<svg xmlns="http://www.w3.org/2000/svg" xmlns:xlink="http://www.w3.org/1999/xlink" width="171" height="301" viewBox="-0.5 -0.5 171 301" xmlns:v="https://vecta.io/nano"><style><![CDATA[.B{pointer-events:all}.C{text-anchor:middle}.D{stroke:#36393d}.E{fill:#000}.F{font-family:Helvetica}.G{font-size:15px}.H{font-weight:bold}.I{fill:none}.J{pointer-events:stroke}.K{stroke:#000}.L{stroke-miterlimit:10}]]></style><ellipse cx="145" cy="15" rx="25" ry="15" fill="#cdeb8b" class="B D"/><text x="144.5" y="19.5" class="C E F G H">x</text><ellipse cx="65" cy="15" rx="25" ry="15" fill="#eee" class="B D"/><text x="64.5" y="19.5" class="C E F G H">2</text><ellipse cx="105" cy="85" rx="25" ry="15" fill="#fc9" class="B D"/><text x="104.5" y="89.5" class="C E F G H">a</text><g class="K L"><path d="M112.58 70.71l19.57-36.59" class="I J"/><path d="M134.62 29.49l-.21 7.82-2.26-3.19-3.91-.11z" class="B"/><path d="M98.45 69.49L77.06 33.52" class="I J"/><path d="M74.37 29.01l6.59 4.23-3.9.28-2.12 3.3z" class="B"/></g><ellipse cx="105" cy="155" rx="25" ry="15" fill="#fc9" class="B D"/><text x="104.5" y="159.5" class="C E F G H">b</text><g class="K L"><path d="M105 140v-33.63" class="I J"/><path d="M105 101.12l3.5 7-3.5-1.75-3.5 1.75z" class="B"/></g><ellipse cx="65" cy="225" rx="25" ry="15" fill="#fc9" class="B D"/><text x="64.5" y="229.5" class="C E F G H">c</text><ellipse cx="25" cy="155" rx="25" ry="15" fill="#eee" class="B D"/><text x="24.5" y="159.5" class="C E F G H">3</text><g class="K L"><path d="M71.78 210.56l17.06-36.21" class="I J"/><path d="M91.07 169.6l.19 7.83-2.42-3.08-3.92.09z" class="B"/><path d="M57 211.71l-20.84-36.96" class="I J"/><path d="M33.58 170.18l6.49 4.38-3.91.19-2.19 3.24z" class="B"/></g><ellipse cx="65" cy="285" rx="25" ry="15" fill="#fc9" class="B D"/><text x="64.5" y="289.5" class="C E F G H">y</text><g class="K L"><path d="M65 270v-23.63" class="I J"/><path d="M65 241.12l3.5 7-3.5-1.75-3.5 1.75z" class="B"/></g></svg>
