<svg xmlns="http://www.w3.org/2000/svg" xmlns:xlink="http://www.w3.org/1999/xlink" width="205" height="151" viewBox="-0.5 -0.5 205 151" xmlns:v="https://vecta.io/nano"><style><![CDATA[.B{pointer-events:all}.C{pointer-events:stroke}.D{fill:none}.E{stroke:#000}.F{stroke-miterlimit:10}.G{stroke:#36393d}.H{fill:#f9f7ed}.I{text-anchor:middle}.J{font-family:Helvetica}]]></style><g class="E F"><path d="M28.14 40.53l55.97-23.1" class="C D"/><path d="M88.97 15.43l-5.14 5.9.28-3.9-2.95-2.57z" class="B"/><path d="M29.61 47.4l54.07 6.8" class="C D"/><path d="M88.89 54.86l-7.38 2.6 2.17-3.26-1.3-3.69z" class="B"/><path d="M28.05 51.72l56.29 35.53" class="C D"/><path d="M88.78 90.05L81 89.28l3.34-2.03.39-3.89z" class="B"/></g><circle cx="15" cy="45" fill="#cce5ff" r="15" class="B G"/><text x="14.5" y="49.5" fill="#000" font-size="15" class="I J">x1</text><g class="E F"><path d="M25.61 94.39l64.28-64.28" class="C D"/><path d="M93.6 26.4l-2.47 7.42-1.24-3.71-3.71-1.24z" class="B"/><path d="M29.61 99.6l55.15-36.13" class="C D"/><path d="M89.15 60.59l-3.93 6.77-.46-3.89-3.38-1.97z" class="B"/><path d="M30 105l53.09-7.44" class="C D"/><path d="M88.29 96.84l-6.44 4.43 1.24-3.71-2.22-3.22z" class="B"/><path d="M28.59 112.17l55.44 20.61" class="C D"/><path d="M88.95 134.61l-7.78.84 2.86-2.67-.42-3.89z" class="B"/></g><circle cx="15" cy="105" fill="#cce5ff" r="15" class="B G"/><text x="14.5" y="109.5" fill="#000" font-size="15" class="I J">x2</text><g class="E F"><path d="M115.61 25.61l55.61 39.8" class="C D"/><path d="M175.49 68.47l-7.73-1.23 3.46-1.83.62-3.86z" class="B"/></g><circle cx="105" cy="15" r="15" class="B G H"/><g class="E F"><path d="M119.85 60.22l48.11 10.51" class="C D"/><path d="M173.09 71.85l-7.59 1.93 2.46-3.05-.96-3.79z" class="B"/></g><circle cx="105" cy="55" r="15" class="B G H"/><g class="E F"><path d="M120 95l48.48-14.04" class="C D"/><path d="M173.52 79.5l-5.75 5.31.71-3.85-2.65-2.88z" class="B"/></g><circle cx="105" cy="95" r="15" class="B G H"/><g class="E F"><path d="M120 135l52.89-45.96" class="C D"/><path d="M176.85 85.59l-2.99 7.24-.97-3.79-3.62-1.5z" class="B"/></g><circle cx="105" cy="135" r="15" class="B G H"/><g class="E F"><path d="M25.61 55.61l61.67 69.56" class="C D"/><path d="M90.76 129.09l-7.26-2.91 3.78-1.01 1.45-3.64z" class="B"/><g class="D C"><use xlink:href="#B"/><use xlink:href="#B" y="40"/><use xlink:href="#B" y="80"/><use xlink:href="#B" y="120"/></g></g><circle cx="189" cy="75" fill="#fcc" r="15" class="B G"/><defs ><path id="B" d="M95 22.5q10 0 10-7.5 0-7.5 10-7.5"/></defs></svg>
