<?xml version="1.0" encoding="utf-8" standalone="no"?>
<!DOCTYPE svg PUBLIC "-//W3C//DTD SVG 1.1//EN"
  "http://www.w3.org/Graphics/SVG/1.1/DTD/svg11.dtd">
<svg xmlns:xlink="http://www.w3.org/1999/xlink" width="486.516406pt" height="714.944062pt" viewBox="0 0 486.516406 714.944062" xmlns="http://www.w3.org/2000/svg" version="1.1">
 <metadata>
  <rdf:RDF xmlns:dc="http://purl.org/dc/elements/1.1/" xmlns:cc="http://creativecommons.org/ns#" xmlns:rdf="http://www.w3.org/1999/02/22-rdf-syntax-ns#">
   <cc:Work>
    <dc:type rdf:resource="http://purl.org/dc/dcmitype/StillImage"/>
    <dc:date>2024-09-01T11:56:06.847018</dc:date>
    <dc:format>image/svg+xml</dc:format>
    <dc:creator>
     <cc:Agent>
      <dc:title>Matplotlib v3.9.2, https://matplotlib.org/</dc:title>
     </cc:Agent>
    </dc:creator>
   </cc:Work>
  </rdf:RDF>
 </metadata>
 <defs>
  <style type="text/css">*{stroke-linejoin: round; stroke-linecap: butt}</style>
 </defs>
 <g id="figure_1">
  <g id="patch_1">
   <path d="M 0 714.944062 
L 486.516406 714.944062 
L 486.516406 0 
L 0 0 
z
" style="fill: #ffffff"/>
  </g>
  <g id="axes_1">
   <g id="patch_2">
    <path d="M 32.916406 207.118125 
L 235.825497 207.118125 
L 235.825497 22.318125 
L 32.916406 22.318125 
z
" style="fill: #eaeaf2"/>
   </g>
   <g id="matplotlib.axis_1">
    <g id="xtick_1">
     <g id="line2d_1">
      <path d="M 60.585828 207.118125 
L 60.585828 22.318125 
" clip-path="url(#pcdae62613c)" style="fill: none; stroke: #ffffff; stroke-linecap: round"/>
     </g>
     <g id="text_1">
      <!-- −4 -->
      <g style="fill: #262626" transform="translate(52.477625 224.976406) scale(0.11 -0.11)">
       <defs>
        <path id="DejaVuSans-2212" d="M 678 2272 
L 4684 2272 
L 4684 1741 
L 678 1741 
L 678 2272 
z
" transform="scale(0.015625)"/>
        <path id="DejaVuSans-34" d="M 2419 4116 
L 825 1625 
L 2419 1625 
L 2419 4116 
z
M 2253 4666 
L 3047 4666 
L 3047 1625 
L 3713 1625 
L 3713 1100 
L 3047 1100 
L 3047 0 
L 2419 0 
L 2419 1100 
L 313 1100 
L 313 1709 
L 2253 4666 
z
" transform="scale(0.015625)"/>
       </defs>
       <use xlink:href="#DejaVuSans-2212"/>
       <use xlink:href="#DejaVuSans-34" x="83.789062"/>
      </g>
     </g>
    </g>
    <g id="xtick_2">
     <g id="line2d_2">
      <path d="M 97.47839 207.118125 
L 97.47839 22.318125 
" clip-path="url(#pcdae62613c)" style="fill: none; stroke: #ffffff; stroke-linecap: round"/>
     </g>
     <g id="text_2">
      <!-- −2 -->
      <g style="fill: #262626" transform="translate(89.370187 224.976406) scale(0.11 -0.11)">
       <defs>
        <path id="DejaVuSans-32" d="M 1228 531 
L 3431 531 
L 3431 0 
L 469 0 
L 469 531 
Q 828 903 1448 1529 
Q 2069 2156 2228 2338 
Q 2531 2678 2651 2914 
Q 2772 3150 2772 3378 
Q 2772 3750 2511 3984 
Q 2250 4219 1831 4219 
Q 1534 4219 1204 4116 
Q 875 4013 500 3803 
L 500 4441 
Q 881 4594 1212 4672 
Q 1544 4750 1819 4750 
Q 2544 4750 2975 4387 
Q 3406 4025 3406 3419 
Q 3406 3131 3298 2873 
Q 3191 2616 2906 2266 
Q 2828 2175 2409 1742 
Q 1991 1309 1228 531 
z
" transform="scale(0.015625)"/>
       </defs>
       <use xlink:href="#DejaVuSans-2212"/>
       <use xlink:href="#DejaVuSans-32" x="83.789062"/>
      </g>
     </g>
    </g>
    <g id="xtick_3">
     <g id="line2d_3">
      <path d="M 134.370952 207.118125 
L 134.370952 22.318125 
" clip-path="url(#pcdae62613c)" style="fill: none; stroke: #ffffff; stroke-linecap: round"/>
     </g>
     <g id="text_3">
      <!-- 0 -->
      <g style="fill: #262626" transform="translate(130.871577 224.976406) scale(0.11 -0.11)">
       <defs>
        <path id="DejaVuSans-30" d="M 2034 4250 
Q 1547 4250 1301 3770 
Q 1056 3291 1056 2328 
Q 1056 1369 1301 889 
Q 1547 409 2034 409 
Q 2525 409 2770 889 
Q 3016 1369 3016 2328 
Q 3016 3291 2770 3770 
Q 2525 4250 2034 4250 
z
M 2034 4750 
Q 2819 4750 3233 4129 
Q 3647 3509 3647 2328 
Q 3647 1150 3233 529 
Q 2819 -91 2034 -91 
Q 1250 -91 836 529 
Q 422 1150 422 2328 
Q 422 3509 836 4129 
Q 1250 4750 2034 4750 
z
" transform="scale(0.015625)"/>
       </defs>
       <use xlink:href="#DejaVuSans-30"/>
      </g>
     </g>
    </g>
    <g id="xtick_4">
     <g id="line2d_4">
      <path d="M 171.263514 207.118125 
L 171.263514 22.318125 
" clip-path="url(#pcdae62613c)" style="fill: none; stroke: #ffffff; stroke-linecap: round"/>
     </g>
     <g id="text_4">
      <!-- 2 -->
      <g style="fill: #262626" transform="translate(167.764139 224.976406) scale(0.11 -0.11)">
       <use xlink:href="#DejaVuSans-32"/>
      </g>
     </g>
    </g>
    <g id="xtick_5">
     <g id="line2d_5">
      <path d="M 208.156076 207.118125 
L 208.156076 22.318125 
" clip-path="url(#pcdae62613c)" style="fill: none; stroke: #ffffff; stroke-linecap: round"/>
     </g>
     <g id="text_5">
      <!-- 4 -->
      <g style="fill: #262626" transform="translate(204.656701 224.976406) scale(0.11 -0.11)">
       <use xlink:href="#DejaVuSans-34"/>
      </g>
     </g>
    </g>
   </g>
   <g id="matplotlib.axis_2">
    <g id="ytick_1">
     <g id="line2d_6">
      <path d="M 32.916406 192.90274 
L 235.825497 192.90274 
" clip-path="url(#pcdae62613c)" style="fill: none; stroke: #ffffff; stroke-linecap: round"/>
     </g>
     <g id="text_6">
      <!-- −1 -->
      <g style="fill: #262626" transform="translate(7.2 197.081881) scale(0.11 -0.11)">
       <defs>
        <path id="DejaVuSans-31" d="M 794 531 
L 1825 531 
L 1825 4091 
L 703 3866 
L 703 4441 
L 1819 4666 
L 2450 4666 
L 2450 531 
L 3481 531 
L 3481 0 
L 794 0 
L 794 531 
z
" transform="scale(0.015625)"/>
       </defs>
       <use xlink:href="#DejaVuSans-2212"/>
       <use xlink:href="#DejaVuSans-31" x="83.789062"/>
      </g>
     </g>
    </g>
    <g id="ytick_2">
     <g id="line2d_7">
      <path d="M 32.916406 164.471971 
L 235.825497 164.471971 
" clip-path="url(#pcdae62613c)" style="fill: none; stroke: #ffffff; stroke-linecap: round"/>
     </g>
     <g id="text_7">
      <!-- 0 -->
      <g style="fill: #262626" transform="translate(16.417656 168.651112) scale(0.11 -0.11)">
       <use xlink:href="#DejaVuSans-30"/>
      </g>
     </g>
    </g>
    <g id="ytick_3">
     <g id="line2d_8">
      <path d="M 32.916406 136.041202 
L 235.825497 136.041202 
" clip-path="url(#pcdae62613c)" style="fill: none; stroke: #ffffff; stroke-linecap: round"/>
     </g>
     <g id="text_8">
      <!-- 1 -->
      <g style="fill: #262626" transform="translate(16.417656 140.220343) scale(0.11 -0.11)">
       <use xlink:href="#DejaVuSans-31"/>
      </g>
     </g>
    </g>
    <g id="ytick_4">
     <g id="line2d_9">
      <path d="M 32.916406 107.610433 
L 235.825497 107.610433 
" clip-path="url(#pcdae62613c)" style="fill: none; stroke: #ffffff; stroke-linecap: round"/>
     </g>
     <g id="text_9">
      <!-- 2 -->
      <g style="fill: #262626" transform="translate(16.417656 111.789573) scale(0.11 -0.11)">
       <use xlink:href="#DejaVuSans-32"/>
      </g>
     </g>
    </g>
    <g id="ytick_5">
     <g id="line2d_10">
      <path d="M 32.916406 79.179663 
L 235.825497 79.179663 
" clip-path="url(#pcdae62613c)" style="fill: none; stroke: #ffffff; stroke-linecap: round"/>
     </g>
     <g id="text_10">
      <!-- 3 -->
      <g style="fill: #262626" transform="translate(16.417656 83.358804) scale(0.11 -0.11)">
       <defs>
        <path id="DejaVuSans-33" d="M 2597 2516 
Q 3050 2419 3304 2112 
Q 3559 1806 3559 1356 
Q 3559 666 3084 287 
Q 2609 -91 1734 -91 
Q 1441 -91 1130 -33 
Q 819 25 488 141 
L 488 750 
Q 750 597 1062 519 
Q 1375 441 1716 441 
Q 2309 441 2620 675 
Q 2931 909 2931 1356 
Q 2931 1769 2642 2001 
Q 2353 2234 1838 2234 
L 1294 2234 
L 1294 2753 
L 1863 2753 
Q 2328 2753 2575 2939 
Q 2822 3125 2822 3475 
Q 2822 3834 2567 4026 
Q 2313 4219 1838 4219 
Q 1578 4219 1281 4162 
Q 984 4106 628 3988 
L 628 4550 
Q 988 4650 1302 4700 
Q 1616 4750 1894 4750 
Q 2613 4750 3031 4423 
Q 3450 4097 3450 3541 
Q 3450 3153 3228 2886 
Q 3006 2619 2597 2516 
z
" transform="scale(0.015625)"/>
       </defs>
       <use xlink:href="#DejaVuSans-33"/>
      </g>
     </g>
    </g>
    <g id="ytick_6">
     <g id="line2d_11">
      <path d="M 32.916406 50.748894 
L 235.825497 50.748894 
" clip-path="url(#pcdae62613c)" style="fill: none; stroke: #ffffff; stroke-linecap: round"/>
     </g>
     <g id="text_11">
      <!-- 4 -->
      <g style="fill: #262626" transform="translate(16.417656 54.928035) scale(0.11 -0.11)">
       <use xlink:href="#DejaVuSans-34"/>
      </g>
     </g>
    </g>
    <g id="ytick_7">
     <g id="line2d_12">
      <path d="M 32.916406 22.318125 
L 235.825497 22.318125 
" clip-path="url(#pcdae62613c)" style="fill: none; stroke: #ffffff; stroke-linecap: round"/>
     </g>
     <g id="text_12">
      <!-- 5 -->
      <g style="fill: #262626" transform="translate(16.417656 26.497266) scale(0.11 -0.11)">
       <defs>
        <path id="DejaVuSans-35" d="M 691 4666 
L 3169 4666 
L 3169 4134 
L 1269 4134 
L 1269 2991 
Q 1406 3038 1543 3061 
Q 1681 3084 1819 3084 
Q 2600 3084 3056 2656 
Q 3513 2228 3513 1497 
Q 3513 744 3044 326 
Q 2575 -91 1722 -91 
Q 1428 -91 1123 -41 
Q 819 9 494 109 
L 494 744 
Q 775 591 1075 516 
Q 1375 441 1709 441 
Q 2250 441 2565 725 
Q 2881 1009 2881 1497 
Q 2881 1984 2565 2268 
Q 2250 2553 1709 2553 
Q 1456 2553 1204 2497 
Q 953 2441 691 2322 
L 691 4666 
z
" transform="scale(0.015625)"/>
       </defs>
       <use xlink:href="#DejaVuSans-35"/>
      </g>
     </g>
    </g>
   </g>
   <g id="line2d_13">
    <path d="M 42.139547 164.281688 
L 59.311763 163.994163 
L 70.944551 163.587333 
L 79.992275 163.055164 
L 87.562821 162.3889 
L 94.025482 161.603108 
L 99.934199 160.664959 
L 105.473622 159.561796 
L 110.828397 158.268812 
L 116.183175 156.747171 
L 121.907245 154.884346 
L 128.739201 152.409904 
L 148.865781 144.942143 
L 154.589852 143.162316 
L 159.944627 141.726937 
L 165.299402 140.520071 
L 170.838827 139.499562 
L 176.747547 138.638269 
L 183.210204 137.921447 
L 190.596102 137.329168 
L 199.459183 136.8518 
L 210.538024 136.491601 
L 225.494473 136.24318 
L 226.602357 136.231484 
L 226.602357 136.231484 
" clip-path="url(#pcdae62613c)" style="fill: none; stroke: #4c72b0; stroke-width: 2; stroke-linecap: round"/>
   </g>
   <g id="line2d_14">
    <path d="M 42.139547 164.282962 
L 59.496406 163.997627 
L 71.498493 163.590403 
L 81.100159 163.051217 
L 89.593941 162.353112 
L 97.718429 161.457246 
L 106.766153 160.222185 
L 121.907245 158.117553 
L 127.446669 157.608894 
L 132.247503 157.387774 
L 136.863696 157.396629 
L 141.66453 157.634998 
L 146.834659 158.117553 
L 153.481965 158.975855 
L 174.901069 161.913146 
L 183.025556 162.700768 
L 191.519343 163.29719 
L 201.305657 163.755609 
L 213.492391 164.092532 
L 226.602357 164.282962 
L 226.602357 164.282962 
" clip-path="url(#pcdae62613c)" style="fill: none; stroke: #dd8452; stroke-width: 2; stroke-linecap: round"/>
   </g>
   <g id="patch_3">
    <path d="M 32.916406 207.118125 
L 32.916406 22.318125 
" style="fill: none; stroke: #ffffff; stroke-width: 1.25; stroke-linejoin: miter; stroke-linecap: square"/>
   </g>
   <g id="patch_4">
    <path d="M 235.825497 207.118125 
L 235.825497 22.318125 
" style="fill: none; stroke: #ffffff; stroke-width: 1.25; stroke-linejoin: miter; stroke-linecap: square"/>
   </g>
   <g id="patch_5">
    <path d="M 32.916406 207.118125 
L 235.825497 207.118125 
" style="fill: none; stroke: #ffffff; stroke-width: 1.25; stroke-linejoin: miter; stroke-linecap: square"/>
   </g>
   <g id="patch_6">
    <path d="M 32.916406 22.318125 
L 235.825497 22.318125 
" style="fill: none; stroke: #ffffff; stroke-width: 1.25; stroke-linejoin: miter; stroke-linecap: square"/>
   </g>
   <g id="text_13">
    <!-- Sigmoid -->
    <g style="fill: #262626" transform="translate(110.094389 16.318125) scale(0.12 -0.12)">
     <defs>
      <path id="DejaVuSans-53" d="M 3425 4513 
L 3425 3897 
Q 3066 4069 2747 4153 
Q 2428 4238 2131 4238 
Q 1616 4238 1336 4038 
Q 1056 3838 1056 3469 
Q 1056 3159 1242 3001 
Q 1428 2844 1947 2747 
L 2328 2669 
Q 3034 2534 3370 2195 
Q 3706 1856 3706 1288 
Q 3706 609 3251 259 
Q 2797 -91 1919 -91 
Q 1588 -91 1214 -16 
Q 841 59 441 206 
L 441 856 
Q 825 641 1194 531 
Q 1563 422 1919 422 
Q 2459 422 2753 634 
Q 3047 847 3047 1241 
Q 3047 1584 2836 1778 
Q 2625 1972 2144 2069 
L 1759 2144 
Q 1053 2284 737 2584 
Q 422 2884 422 3419 
Q 422 4038 858 4394 
Q 1294 4750 2059 4750 
Q 2388 4750 2728 4690 
Q 3069 4631 3425 4513 
z
" transform="scale(0.015625)"/>
      <path id="DejaVuSans-69" d="M 603 3500 
L 1178 3500 
L 1178 0 
L 603 0 
L 603 3500 
z
M 603 4863 
L 1178 4863 
L 1178 4134 
L 603 4134 
L 603 4863 
z
" transform="scale(0.015625)"/>
      <path id="DejaVuSans-67" d="M 2906 1791 
Q 2906 2416 2648 2759 
Q 2391 3103 1925 3103 
Q 1463 3103 1205 2759 
Q 947 2416 947 1791 
Q 947 1169 1205 825 
Q 1463 481 1925 481 
Q 2391 481 2648 825 
Q 2906 1169 2906 1791 
z
M 3481 434 
Q 3481 -459 3084 -895 
Q 2688 -1331 1869 -1331 
Q 1566 -1331 1297 -1286 
Q 1028 -1241 775 -1147 
L 775 -588 
Q 1028 -725 1275 -790 
Q 1522 -856 1778 -856 
Q 2344 -856 2625 -561 
Q 2906 -266 2906 331 
L 2906 616 
Q 2728 306 2450 153 
Q 2172 0 1784 0 
Q 1141 0 747 490 
Q 353 981 353 1791 
Q 353 2603 747 3093 
Q 1141 3584 1784 3584 
Q 2172 3584 2450 3431 
Q 2728 3278 2906 2969 
L 2906 3500 
L 3481 3500 
L 3481 434 
z
" transform="scale(0.015625)"/>
      <path id="DejaVuSans-6d" d="M 3328 2828 
Q 3544 3216 3844 3400 
Q 4144 3584 4550 3584 
Q 5097 3584 5394 3201 
Q 5691 2819 5691 2113 
L 5691 0 
L 5113 0 
L 5113 2094 
Q 5113 2597 4934 2840 
Q 4756 3084 4391 3084 
Q 3944 3084 3684 2787 
Q 3425 2491 3425 1978 
L 3425 0 
L 2847 0 
L 2847 2094 
Q 2847 2600 2669 2842 
Q 2491 3084 2119 3084 
Q 1678 3084 1418 2786 
Q 1159 2488 1159 1978 
L 1159 0 
L 581 0 
L 581 3500 
L 1159 3500 
L 1159 2956 
Q 1356 3278 1631 3431 
Q 1906 3584 2284 3584 
Q 2666 3584 2933 3390 
Q 3200 3197 3328 2828 
z
" transform="scale(0.015625)"/>
      <path id="DejaVuSans-6f" d="M 1959 3097 
Q 1497 3097 1228 2736 
Q 959 2375 959 1747 
Q 959 1119 1226 758 
Q 1494 397 1959 397 
Q 2419 397 2687 759 
Q 2956 1122 2956 1747 
Q 2956 2369 2687 2733 
Q 2419 3097 1959 3097 
z
M 1959 3584 
Q 2709 3584 3137 3096 
Q 3566 2609 3566 1747 
Q 3566 888 3137 398 
Q 2709 -91 1959 -91 
Q 1206 -91 779 398 
Q 353 888 353 1747 
Q 353 2609 779 3096 
Q 1206 3584 1959 3584 
z
" transform="scale(0.015625)"/>
      <path id="DejaVuSans-64" d="M 2906 2969 
L 2906 4863 
L 3481 4863 
L 3481 0 
L 2906 0 
L 2906 525 
Q 2725 213 2448 61 
Q 2172 -91 1784 -91 
Q 1150 -91 751 415 
Q 353 922 353 1747 
Q 353 2572 751 3078 
Q 1150 3584 1784 3584 
Q 2172 3584 2448 3432 
Q 2725 3281 2906 2969 
z
M 947 1747 
Q 947 1113 1208 752 
Q 1469 391 1925 391 
Q 2381 391 2643 752 
Q 2906 1113 2906 1747 
Q 2906 2381 2643 2742 
Q 2381 3103 1925 3103 
Q 1469 3103 1208 2742 
Q 947 2381 947 1747 
z
" transform="scale(0.015625)"/>
     </defs>
     <use xlink:href="#DejaVuSans-53"/>
     <use xlink:href="#DejaVuSans-69" x="63.476562"/>
     <use xlink:href="#DejaVuSans-67" x="91.259766"/>
     <use xlink:href="#DejaVuSans-6d" x="154.736328"/>
     <use xlink:href="#DejaVuSans-6f" x="252.148438"/>
     <use xlink:href="#DejaVuSans-69" x="313.330078"/>
     <use xlink:href="#DejaVuSans-64" x="341.113281"/>
    </g>
   </g>
   <g id="legend_1">
    <g id="patch_7">
     <path d="M 145.047997 63.41 
L 228.125497 63.41 
Q 230.325497 63.41 230.325497 61.21 
L 230.325497 30.018125 
Q 230.325497 27.818125 228.125497 27.818125 
L 145.047997 27.818125 
Q 142.847997 27.818125 142.847997 30.018125 
L 142.847997 61.21 
Q 142.847997 63.41 145.047997 63.41 
z
" style="fill: #eaeaf2; opacity: 0.8; stroke: #cccccc; stroke-linejoin: miter"/>
    </g>
    <g id="line2d_15">
     <path d="M 147.247997 36.726406 
L 158.247997 36.726406 
L 169.247997 36.726406 
" style="fill: none; stroke: #4c72b0; stroke-width: 2; stroke-linecap: round"/>
    </g>
    <g id="text_14">
     <!-- ActFn -->
     <g style="fill: #262626" transform="translate(178.047997 40.576406) scale(0.11 -0.11)">
      <defs>
       <path id="DejaVuSans-41" d="M 2188 4044 
L 1331 1722 
L 3047 1722 
L 2188 4044 
z
M 1831 4666 
L 2547 4666 
L 4325 0 
L 3669 0 
L 3244 1197 
L 1141 1197 
L 716 0 
L 50 0 
L 1831 4666 
z
" transform="scale(0.015625)"/>
       <path id="DejaVuSans-63" d="M 3122 3366 
L 3122 2828 
Q 2878 2963 2633 3030 
Q 2388 3097 2138 3097 
Q 1578 3097 1268 2742 
Q 959 2388 959 1747 
Q 959 1106 1268 751 
Q 1578 397 2138 397 
Q 2388 397 2633 464 
Q 2878 531 3122 666 
L 3122 134 
Q 2881 22 2623 -34 
Q 2366 -91 2075 -91 
Q 1284 -91 818 406 
Q 353 903 353 1747 
Q 353 2603 823 3093 
Q 1294 3584 2113 3584 
Q 2378 3584 2631 3529 
Q 2884 3475 3122 3366 
z
" transform="scale(0.015625)"/>
       <path id="DejaVuSans-74" d="M 1172 4494 
L 1172 3500 
L 2356 3500 
L 2356 3053 
L 1172 3053 
L 1172 1153 
Q 1172 725 1289 603 
Q 1406 481 1766 481 
L 2356 481 
L 2356 0 
L 1766 0 
Q 1100 0 847 248 
Q 594 497 594 1153 
L 594 3053 
L 172 3053 
L 172 3500 
L 594 3500 
L 594 4494 
L 1172 4494 
z
" transform="scale(0.015625)"/>
       <path id="DejaVuSans-46" d="M 628 4666 
L 3309 4666 
L 3309 4134 
L 1259 4134 
L 1259 2759 
L 3109 2759 
L 3109 2228 
L 1259 2228 
L 1259 0 
L 628 0 
L 628 4666 
z
" transform="scale(0.015625)"/>
       <path id="DejaVuSans-6e" d="M 3513 2113 
L 3513 0 
L 2938 0 
L 2938 2094 
Q 2938 2591 2744 2837 
Q 2550 3084 2163 3084 
Q 1697 3084 1428 2787 
Q 1159 2491 1159 1978 
L 1159 0 
L 581 0 
L 581 3500 
L 1159 3500 
L 1159 2956 
Q 1366 3272 1645 3428 
Q 1925 3584 2291 3584 
Q 2894 3584 3203 3211 
Q 3513 2838 3513 2113 
z
" transform="scale(0.015625)"/>
      </defs>
      <use xlink:href="#DejaVuSans-41"/>
      <use xlink:href="#DejaVuSans-63" x="66.658203"/>
      <use xlink:href="#DejaVuSans-74" x="121.638672"/>
      <use xlink:href="#DejaVuSans-46" x="160.847656"/>
      <use xlink:href="#DejaVuSans-6e" x="218.367188"/>
     </g>
    </g>
    <g id="line2d_16">
     <path d="M 147.247997 52.872344 
L 158.247997 52.872344 
L 169.247997 52.872344 
" style="fill: none; stroke: #dd8452; stroke-width: 2; stroke-linecap: round"/>
    </g>
    <g id="text_15">
     <!-- Gradient -->
     <g style="fill: #262626" transform="translate(178.047997 56.722344) scale(0.11 -0.11)">
      <defs>
       <path id="DejaVuSans-47" d="M 3809 666 
L 3809 1919 
L 2778 1919 
L 2778 2438 
L 4434 2438 
L 4434 434 
Q 4069 175 3628 42 
Q 3188 -91 2688 -91 
Q 1594 -91 976 548 
Q 359 1188 359 2328 
Q 359 3472 976 4111 
Q 1594 4750 2688 4750 
Q 3144 4750 3555 4637 
Q 3966 4525 4313 4306 
L 4313 3634 
Q 3963 3931 3569 4081 
Q 3175 4231 2741 4231 
Q 1884 4231 1454 3753 
Q 1025 3275 1025 2328 
Q 1025 1384 1454 906 
Q 1884 428 2741 428 
Q 3075 428 3337 486 
Q 3600 544 3809 666 
z
" transform="scale(0.015625)"/>
       <path id="DejaVuSans-72" d="M 2631 2963 
Q 2534 3019 2420 3045 
Q 2306 3072 2169 3072 
Q 1681 3072 1420 2755 
Q 1159 2438 1159 1844 
L 1159 0 
L 581 0 
L 581 3500 
L 1159 3500 
L 1159 2956 
Q 1341 3275 1631 3429 
Q 1922 3584 2338 3584 
Q 2397 3584 2469 3576 
Q 2541 3569 2628 3553 
L 2631 2963 
z
" transform="scale(0.015625)"/>
       <path id="DejaVuSans-61" d="M 2194 1759 
Q 1497 1759 1228 1600 
Q 959 1441 959 1056 
Q 959 750 1161 570 
Q 1363 391 1709 391 
Q 2188 391 2477 730 
Q 2766 1069 2766 1631 
L 2766 1759 
L 2194 1759 
z
M 3341 1997 
L 3341 0 
L 2766 0 
L 2766 531 
Q 2569 213 2275 61 
Q 1981 -91 1556 -91 
Q 1019 -91 701 211 
Q 384 513 384 1019 
Q 384 1609 779 1909 
Q 1175 2209 1959 2209 
L 2766 2209 
L 2766 2266 
Q 2766 2663 2505 2880 
Q 2244 3097 1772 3097 
Q 1472 3097 1187 3025 
Q 903 2953 641 2809 
L 641 3341 
Q 956 3463 1253 3523 
Q 1550 3584 1831 3584 
Q 2591 3584 2966 3190 
Q 3341 2797 3341 1997 
z
" transform="scale(0.015625)"/>
       <path id="DejaVuSans-65" d="M 3597 1894 
L 3597 1613 
L 953 1613 
Q 991 1019 1311 708 
Q 1631 397 2203 397 
Q 2534 397 2845 478 
Q 3156 559 3463 722 
L 3463 178 
Q 3153 47 2828 -22 
Q 2503 -91 2169 -91 
Q 1331 -91 842 396 
Q 353 884 353 1716 
Q 353 2575 817 3079 
Q 1281 3584 2069 3584 
Q 2775 3584 3186 3129 
Q 3597 2675 3597 1894 
z
M 3022 2063 
Q 3016 2534 2758 2815 
Q 2500 3097 2075 3097 
Q 1594 3097 1305 2825 
Q 1016 2553 972 2059 
L 3022 2063 
z
" transform="scale(0.015625)"/>
      </defs>
      <use xlink:href="#DejaVuSans-47"/>
      <use xlink:href="#DejaVuSans-72" x="77.490234"/>
      <use xlink:href="#DejaVuSans-61" x="118.603516"/>
      <use xlink:href="#DejaVuSans-64" x="179.882812"/>
      <use xlink:href="#DejaVuSans-69" x="243.359375"/>
      <use xlink:href="#DejaVuSans-65" x="271.142578"/>
      <use xlink:href="#DejaVuSans-6e" x="332.666016"/>
      <use xlink:href="#DejaVuSans-74" x="396.044922"/>
     </g>
    </g>
   </g>
  </g>
  <g id="axes_2">
   <g id="patch_8">
    <path d="M 276.407315 207.118125 
L 479.316406 207.118125 
L 479.316406 22.318125 
L 276.407315 22.318125 
z
" style="fill: #eaeaf2"/>
   </g>
   <g id="matplotlib.axis_3">
    <g id="xtick_6">
     <g id="line2d_17">
      <path d="M 304.076737 207.118125 
L 304.076737 22.318125 
" clip-path="url(#p496059b61b)" style="fill: none; stroke: #ffffff; stroke-linecap: round"/>
     </g>
     <g id="text_16">
      <!-- −4 -->
      <g style="fill: #262626" transform="translate(295.968534 224.976406) scale(0.11 -0.11)">
       <use xlink:href="#DejaVuSans-2212"/>
       <use xlink:href="#DejaVuSans-34" x="83.789062"/>
      </g>
     </g>
    </g>
    <g id="xtick_7">
     <g id="line2d_18">
      <path d="M 340.969299 207.118125 
L 340.969299 22.318125 
" clip-path="url(#p496059b61b)" style="fill: none; stroke: #ffffff; stroke-linecap: round"/>
     </g>
     <g id="text_17">
      <!-- −2 -->
      <g style="fill: #262626" transform="translate(332.861096 224.976406) scale(0.11 -0.11)">
       <use xlink:href="#DejaVuSans-2212"/>
       <use xlink:href="#DejaVuSans-32" x="83.789062"/>
      </g>
     </g>
    </g>
    <g id="xtick_8">
     <g id="line2d_19">
      <path d="M 377.861861 207.118125 
L 377.861861 22.318125 
" clip-path="url(#p496059b61b)" style="fill: none; stroke: #ffffff; stroke-linecap: round"/>
     </g>
     <g id="text_18">
      <!-- 0 -->
      <g style="fill: #262626" transform="translate(374.362486 224.976406) scale(0.11 -0.11)">
       <use xlink:href="#DejaVuSans-30"/>
      </g>
     </g>
    </g>
    <g id="xtick_9">
     <g id="line2d_20">
      <path d="M 414.754423 207.118125 
L 414.754423 22.318125 
" clip-path="url(#p496059b61b)" style="fill: none; stroke: #ffffff; stroke-linecap: round"/>
     </g>
     <g id="text_19">
      <!-- 2 -->
      <g style="fill: #262626" transform="translate(411.255048 224.976406) scale(0.11 -0.11)">
       <use xlink:href="#DejaVuSans-32"/>
      </g>
     </g>
    </g>
    <g id="xtick_10">
     <g id="line2d_21">
      <path d="M 451.646985 207.118125 
L 451.646985 22.318125 
" clip-path="url(#p496059b61b)" style="fill: none; stroke: #ffffff; stroke-linecap: round"/>
     </g>
     <g id="text_20">
      <!-- 4 -->
      <g style="fill: #262626" transform="translate(448.14761 224.976406) scale(0.11 -0.11)">
       <use xlink:href="#DejaVuSans-34"/>
      </g>
     </g>
    </g>
   </g>
   <g id="matplotlib.axis_4">
    <g id="ytick_8">
     <g id="line2d_22">
      <path d="M 276.407315 192.90274 
L 479.316406 192.90274 
" clip-path="url(#p496059b61b)" style="fill: none; stroke: #ffffff; stroke-linecap: round"/>
     </g>
     <g id="text_21">
      <!-- −1 -->
      <g style="fill: #262626" transform="translate(250.690909 197.081881) scale(0.11 -0.11)">
       <use xlink:href="#DejaVuSans-2212"/>
       <use xlink:href="#DejaVuSans-31" x="83.789062"/>
      </g>
     </g>
    </g>
    <g id="ytick_9">
     <g id="line2d_23">
      <path d="M 276.407315 164.471971 
L 479.316406 164.471971 
" clip-path="url(#p496059b61b)" style="fill: none; stroke: #ffffff; stroke-linecap: round"/>
     </g>
     <g id="text_22">
      <!-- 0 -->
      <g style="fill: #262626" transform="translate(259.908565 168.651112) scale(0.11 -0.11)">
       <use xlink:href="#DejaVuSans-30"/>
      </g>
     </g>
    </g>
    <g id="ytick_10">
     <g id="line2d_24">
      <path d="M 276.407315 136.041202 
L 479.316406 136.041202 
" clip-path="url(#p496059b61b)" style="fill: none; stroke: #ffffff; stroke-linecap: round"/>
     </g>
     <g id="text_23">
      <!-- 1 -->
      <g style="fill: #262626" transform="translate(259.908565 140.220343) scale(0.11 -0.11)">
       <use xlink:href="#DejaVuSans-31"/>
      </g>
     </g>
    </g>
    <g id="ytick_11">
     <g id="line2d_25">
      <path d="M 276.407315 107.610433 
L 479.316406 107.610433 
" clip-path="url(#p496059b61b)" style="fill: none; stroke: #ffffff; stroke-linecap: round"/>
     </g>
     <g id="text_24">
      <!-- 2 -->
      <g style="fill: #262626" transform="translate(259.908565 111.789573) scale(0.11 -0.11)">
       <use xlink:href="#DejaVuSans-32"/>
      </g>
     </g>
    </g>
    <g id="ytick_12">
     <g id="line2d_26">
      <path d="M 276.407315 79.179663 
L 479.316406 79.179663 
" clip-path="url(#p496059b61b)" style="fill: none; stroke: #ffffff; stroke-linecap: round"/>
     </g>
     <g id="text_25">
      <!-- 3 -->
      <g style="fill: #262626" transform="translate(259.908565 83.358804) scale(0.11 -0.11)">
       <use xlink:href="#DejaVuSans-33"/>
      </g>
     </g>
    </g>
    <g id="ytick_13">
     <g id="line2d_27">
      <path d="M 276.407315 50.748894 
L 479.316406 50.748894 
" clip-path="url(#p496059b61b)" style="fill: none; stroke: #ffffff; stroke-linecap: round"/>
     </g>
     <g id="text_26">
      <!-- 4 -->
      <g style="fill: #262626" transform="translate(259.908565 54.928035) scale(0.11 -0.11)">
       <use xlink:href="#DejaVuSans-34"/>
      </g>
     </g>
    </g>
    <g id="ytick_14">
     <g id="line2d_28">
      <path d="M 276.407315 22.318125 
L 479.316406 22.318125 
" clip-path="url(#p496059b61b)" style="fill: none; stroke: #ffffff; stroke-linecap: round"/>
     </g>
     <g id="text_27">
      <!-- 5 -->
      <g style="fill: #262626" transform="translate(259.908565 26.497266) scale(0.11 -0.11)">
       <use xlink:href="#DejaVuSans-35"/>
      </g>
     </g>
    </g>
   </g>
   <g id="line2d_29">
    <path d="M 285.630456 192.900156 
L 321.267416 192.78 
L 331.423024 192.535191 
L 337.885686 192.166897 
L 342.686517 191.675239 
L 346.564113 191.054593 
L 349.703121 190.339091 
L 352.472833 189.494951 
L 355.057898 188.478309 
L 357.458314 187.292831 
L 359.674084 185.955556 
L 361.889853 184.352688 
L 364.105622 182.457395 
L 366.321392 180.251984 
L 368.537161 177.733105 
L 370.937578 174.669653 
L 373.70729 170.769183 
L 377.769534 164.614271 
L 382.939669 156.837549 
L 385.709381 153.057263 
L 388.109797 150.123745 
L 390.325568 147.734747 
L 392.541337 145.659902 
L 394.757106 143.889239 
L 396.972874 142.400653 
L 399.188645 141.164902 
L 401.589063 140.074083 
L 404.174125 139.142092 
L 407.128485 138.326342 
L 410.45214 137.654535 
L 414.329736 137.111213 
L 418.945924 136.694715 
L 425.039287 136.380633 
L 433.717716 136.174151 
L 449.043455 136.066485 
L 470.093266 136.043786 
L 470.093266 136.043786 
" clip-path="url(#p496059b61b)" style="fill: none; stroke: #4c72b0; stroke-width: 2; stroke-linecap: round"/>
   </g>
   <g id="line2d_30">
    <path d="M 285.630456 164.466806 
L 315.543344 164.340017 
L 325.329657 164.092374 
L 331.607672 163.72705 
L 336.408503 163.229556 
L 340.286101 162.601927 
L 343.425109 161.879041 
L 346.194819 161.027396 
L 348.779884 160.003919 
L 351.180302 158.814347 
L 353.39607 157.478836 
L 355.61184 155.889394 
L 357.827608 154.030291 
L 360.228026 151.713897 
L 362.997737 148.699986 
L 371.306873 139.349422 
L 372.9687 137.951518 
L 374.445879 136.994333 
L 375.738412 136.414649 
L 377.030944 136.098812 
L 378.138835 136.047611 
L 379.24672 136.200844 
L 380.354605 136.554135 
L 381.647137 137.205576 
L 383.124317 138.235122 
L 384.786143 139.698955 
L 386.817265 141.814463 
L 390.140919 145.675413 
L 394.387812 150.547023 
L 396.972874 153.175562 
L 399.373292 155.300026 
L 401.589063 156.97827 
L 403.804831 158.395965 
L 406.205248 159.664295 
L 408.605664 160.689686 
L 411.375376 161.620089 
L 414.329736 162.372219 
L 417.653388 162.990737 
L 421.715634 163.50939 
L 426.701113 163.907314 
L 433.348422 164.195905 
L 443.13474 164.376123 
L 461.968774 164.459515 
L 470.093266 164.466806 
L 470.093266 164.466806 
" clip-path="url(#p496059b61b)" style="fill: none; stroke: #dd8452; stroke-width: 2; stroke-linecap: round"/>
   </g>
   <g id="patch_9">
    <path d="M 276.407315 207.118125 
L 276.407315 22.318125 
" style="fill: none; stroke: #ffffff; stroke-width: 1.25; stroke-linejoin: miter; stroke-linecap: square"/>
   </g>
   <g id="patch_10">
    <path d="M 479.316406 207.118125 
L 479.316406 22.318125 
" style="fill: none; stroke: #ffffff; stroke-width: 1.25; stroke-linejoin: miter; stroke-linecap: square"/>
   </g>
   <g id="patch_11">
    <path d="M 276.407315 207.118125 
L 479.316406 207.118125 
" style="fill: none; stroke: #ffffff; stroke-width: 1.25; stroke-linejoin: miter; stroke-linecap: square"/>
   </g>
   <g id="patch_12">
    <path d="M 276.407315 22.318125 
L 479.316406 22.318125 
" style="fill: none; stroke: #ffffff; stroke-width: 1.25; stroke-linejoin: miter; stroke-linecap: square"/>
   </g>
   <g id="text_28">
    <!-- Tanh -->
    <g style="fill: #262626" transform="translate(363.905298 16.318125) scale(0.12 -0.12)">
     <defs>
      <path id="DejaVuSans-54" d="M -19 4666 
L 3928 4666 
L 3928 4134 
L 2272 4134 
L 2272 0 
L 1638 0 
L 1638 4134 
L -19 4134 
L -19 4666 
z
" transform="scale(0.015625)"/>
      <path id="DejaVuSans-68" d="M 3513 2113 
L 3513 0 
L 2938 0 
L 2938 2094 
Q 2938 2591 2744 2837 
Q 2550 3084 2163 3084 
Q 1697 3084 1428 2787 
Q 1159 2491 1159 1978 
L 1159 0 
L 581 0 
L 581 4863 
L 1159 4863 
L 1159 2956 
Q 1366 3272 1645 3428 
Q 1925 3584 2291 3584 
Q 2894 3584 3203 3211 
Q 3513 2838 3513 2113 
z
" transform="scale(0.015625)"/>
     </defs>
     <use xlink:href="#DejaVuSans-54"/>
     <use xlink:href="#DejaVuSans-61" x="44.583984"/>
     <use xlink:href="#DejaVuSans-6e" x="105.863281"/>
     <use xlink:href="#DejaVuSans-68" x="169.242188"/>
    </g>
   </g>
   <g id="legend_2">
    <g id="patch_13">
     <path d="M 388.538906 63.41 
L 471.616406 63.41 
Q 473.816406 63.41 473.816406 61.21 
L 473.816406 30.018125 
Q 473.816406 27.818125 471.616406 27.818125 
L 388.538906 27.818125 
Q 386.338906 27.818125 386.338906 30.018125 
L 386.338906 61.21 
Q 386.338906 63.41 388.538906 63.41 
z
" style="fill: #eaeaf2; opacity: 0.8; stroke: #cccccc; stroke-linejoin: miter"/>
    </g>
    <g id="line2d_31">
     <path d="M 390.738906 36.726406 
L 401.738906 36.726406 
L 412.738906 36.726406 
" style="fill: none; stroke: #4c72b0; stroke-width: 2; stroke-linecap: round"/>
    </g>
    <g id="text_29">
     <!-- ActFn -->
     <g style="fill: #262626" transform="translate(421.538906 40.576406) scale(0.11 -0.11)">
      <use xlink:href="#DejaVuSans-41"/>
      <use xlink:href="#DejaVuSans-63" x="66.658203"/>
      <use xlink:href="#DejaVuSans-74" x="121.638672"/>
      <use xlink:href="#DejaVuSans-46" x="160.847656"/>
      <use xlink:href="#DejaVuSans-6e" x="218.367188"/>
     </g>
    </g>
    <g id="line2d_32">
     <path d="M 390.738906 52.872344 
L 401.738906 52.872344 
L 412.738906 52.872344 
" style="fill: none; stroke: #dd8452; stroke-width: 2; stroke-linecap: round"/>
    </g>
    <g id="text_30">
     <!-- Gradient -->
     <g style="fill: #262626" transform="translate(421.538906 56.722344) scale(0.11 -0.11)">
      <use xlink:href="#DejaVuSans-47"/>
      <use xlink:href="#DejaVuSans-72" x="77.490234"/>
      <use xlink:href="#DejaVuSans-61" x="118.603516"/>
      <use xlink:href="#DejaVuSans-64" x="179.882812"/>
      <use xlink:href="#DejaVuSans-69" x="243.359375"/>
      <use xlink:href="#DejaVuSans-65" x="271.142578"/>
      <use xlink:href="#DejaVuSans-6e" x="332.666016"/>
      <use xlink:href="#DejaVuSans-74" x="396.044922"/>
     </g>
    </g>
   </g>
  </g>
  <g id="axes_3">
   <g id="patch_14">
    <path d="M 32.916406 447.358125 
L 235.825497 447.358125 
L 235.825497 262.558125 
L 32.916406 262.558125 
z
" style="fill: #eaeaf2"/>
   </g>
   <g id="matplotlib.axis_5">
    <g id="xtick_11">
     <g id="line2d_33">
      <path d="M 60.585828 447.358125 
L 60.585828 262.558125 
" clip-path="url(#pa2b6ad8608)" style="fill: none; stroke: #ffffff; stroke-linecap: round"/>
     </g>
     <g id="text_31">
      <!-- −4 -->
      <g style="fill: #262626" transform="translate(52.477625 465.216406) scale(0.11 -0.11)">
       <use xlink:href="#DejaVuSans-2212"/>
       <use xlink:href="#DejaVuSans-34" x="83.789062"/>
      </g>
     </g>
    </g>
    <g id="xtick_12">
     <g id="line2d_34">
      <path d="M 97.47839 447.358125 
L 97.47839 262.558125 
" clip-path="url(#pa2b6ad8608)" style="fill: none; stroke: #ffffff; stroke-linecap: round"/>
     </g>
     <g id="text_32">
      <!-- −2 -->
      <g style="fill: #262626" transform="translate(89.370187 465.216406) scale(0.11 -0.11)">
       <use xlink:href="#DejaVuSans-2212"/>
       <use xlink:href="#DejaVuSans-32" x="83.789062"/>
      </g>
     </g>
    </g>
    <g id="xtick_13">
     <g id="line2d_35">
      <path d="M 134.370952 447.358125 
L 134.370952 262.558125 
" clip-path="url(#pa2b6ad8608)" style="fill: none; stroke: #ffffff; stroke-linecap: round"/>
     </g>
     <g id="text_33">
      <!-- 0 -->
      <g style="fill: #262626" transform="translate(130.871577 465.216406) scale(0.11 -0.11)">
       <use xlink:href="#DejaVuSans-30"/>
      </g>
     </g>
    </g>
    <g id="xtick_14">
     <g id="line2d_36">
      <path d="M 171.263514 447.358125 
L 171.263514 262.558125 
" clip-path="url(#pa2b6ad8608)" style="fill: none; stroke: #ffffff; stroke-linecap: round"/>
     </g>
     <g id="text_34">
      <!-- 2 -->
      <g style="fill: #262626" transform="translate(167.764139 465.216406) scale(0.11 -0.11)">
       <use xlink:href="#DejaVuSans-32"/>
      </g>
     </g>
    </g>
    <g id="xtick_15">
     <g id="line2d_37">
      <path d="M 208.156076 447.358125 
L 208.156076 262.558125 
" clip-path="url(#pa2b6ad8608)" style="fill: none; stroke: #ffffff; stroke-linecap: round"/>
     </g>
     <g id="text_35">
      <!-- 4 -->
      <g style="fill: #262626" transform="translate(204.656701 465.216406) scale(0.11 -0.11)">
       <use xlink:href="#DejaVuSans-34"/>
      </g>
     </g>
    </g>
   </g>
   <g id="matplotlib.axis_6">
    <g id="ytick_15">
     <g id="line2d_38">
      <path d="M 32.916406 433.14274 
L 235.825497 433.14274 
" clip-path="url(#pa2b6ad8608)" style="fill: none; stroke: #ffffff; stroke-linecap: round"/>
     </g>
     <g id="text_36">
      <!-- −1 -->
      <g style="fill: #262626" transform="translate(7.2 437.321881) scale(0.11 -0.11)">
       <use xlink:href="#DejaVuSans-2212"/>
       <use xlink:href="#DejaVuSans-31" x="83.789062"/>
      </g>
     </g>
    </g>
    <g id="ytick_16">
     <g id="line2d_39">
      <path d="M 32.916406 404.711971 
L 235.825497 404.711971 
" clip-path="url(#pa2b6ad8608)" style="fill: none; stroke: #ffffff; stroke-linecap: round"/>
     </g>
     <g id="text_37">
      <!-- 0 -->
      <g style="fill: #262626" transform="translate(16.417656 408.891112) scale(0.11 -0.11)">
       <use xlink:href="#DejaVuSans-30"/>
      </g>
     </g>
    </g>
    <g id="ytick_17">
     <g id="line2d_40">
      <path d="M 32.916406 376.281202 
L 235.825497 376.281202 
" clip-path="url(#pa2b6ad8608)" style="fill: none; stroke: #ffffff; stroke-linecap: round"/>
     </g>
     <g id="text_38">
      <!-- 1 -->
      <g style="fill: #262626" transform="translate(16.417656 380.460343) scale(0.11 -0.11)">
       <use xlink:href="#DejaVuSans-31"/>
      </g>
     </g>
    </g>
    <g id="ytick_18">
     <g id="line2d_41">
      <path d="M 32.916406 347.850433 
L 235.825497 347.850433 
" clip-path="url(#pa2b6ad8608)" style="fill: none; stroke: #ffffff; stroke-linecap: round"/>
     </g>
     <g id="text_39">
      <!-- 2 -->
      <g style="fill: #262626" transform="translate(16.417656 352.029573) scale(0.11 -0.11)">
       <use xlink:href="#DejaVuSans-32"/>
      </g>
     </g>
    </g>
    <g id="ytick_19">
     <g id="line2d_42">
      <path d="M 32.916406 319.419663 
L 235.825497 319.419663 
" clip-path="url(#pa2b6ad8608)" style="fill: none; stroke: #ffffff; stroke-linecap: round"/>
     </g>
     <g id="text_40">
      <!-- 3 -->
      <g style="fill: #262626" transform="translate(16.417656 323.598804) scale(0.11 -0.11)">
       <use xlink:href="#DejaVuSans-33"/>
      </g>
     </g>
    </g>
    <g id="ytick_20">
     <g id="line2d_43">
      <path d="M 32.916406 290.988894 
L 235.825497 290.988894 
" clip-path="url(#pa2b6ad8608)" style="fill: none; stroke: #ffffff; stroke-linecap: round"/>
     </g>
     <g id="text_41">
      <!-- 4 -->
      <g style="fill: #262626" transform="translate(16.417656 295.168035) scale(0.11 -0.11)">
       <use xlink:href="#DejaVuSans-34"/>
      </g>
     </g>
    </g>
    <g id="ytick_21">
     <g id="line2d_44">
      <path d="M 32.916406 262.558125 
L 235.825497 262.558125 
" clip-path="url(#pa2b6ad8608)" style="fill: none; stroke: #ffffff; stroke-linecap: round"/>
     </g>
     <g id="text_42">
      <!-- 5 -->
      <g style="fill: #262626" transform="translate(16.417656 266.737266) scale(0.11 -0.11)">
       <use xlink:href="#DejaVuSans-35"/>
      </g>
     </g>
    </g>
   </g>
   <g id="line2d_45">
    <path d="M 42.139547 404.711971 
L 134.278624 404.711971 
L 134.463279 404.56967 
L 226.602357 262.558125 
L 226.602357 262.558125 
" clip-path="url(#pa2b6ad8608)" style="fill: none; stroke: #4c72b0; stroke-width: 2; stroke-linecap: round"/>
   </g>
   <g id="line2d_46">
    <path d="M 42.139547 404.711971 
L 134.278624 404.711971 
L 134.463279 376.281202 
L 226.602357 376.281202 
L 226.602357 376.281202 
" clip-path="url(#pa2b6ad8608)" style="fill: none; stroke: #dd8452; stroke-width: 2; stroke-linecap: round"/>
   </g>
   <g id="patch_15">
    <path d="M 32.916406 447.358125 
L 32.916406 262.558125 
" style="fill: none; stroke: #ffffff; stroke-width: 1.25; stroke-linejoin: miter; stroke-linecap: square"/>
   </g>
   <g id="patch_16">
    <path d="M 235.825497 447.358125 
L 235.825497 262.558125 
" style="fill: none; stroke: #ffffff; stroke-width: 1.25; stroke-linejoin: miter; stroke-linecap: square"/>
   </g>
   <g id="patch_17">
    <path d="M 32.916406 447.358125 
L 235.825497 447.358125 
" style="fill: none; stroke: #ffffff; stroke-width: 1.25; stroke-linejoin: miter; stroke-linecap: square"/>
   </g>
   <g id="patch_18">
    <path d="M 32.916406 262.558125 
L 235.825497 262.558125 
" style="fill: none; stroke: #ffffff; stroke-width: 1.25; stroke-linejoin: miter; stroke-linecap: square"/>
   </g>
   <g id="text_43">
    <!-- ReLU -->
    <g style="fill: #262626" transform="translate(119.345639 256.558125) scale(0.12 -0.12)">
     <defs>
      <path id="DejaVuSans-52" d="M 2841 2188 
Q 3044 2119 3236 1894 
Q 3428 1669 3622 1275 
L 4263 0 
L 3584 0 
L 2988 1197 
Q 2756 1666 2539 1819 
Q 2322 1972 1947 1972 
L 1259 1972 
L 1259 0 
L 628 0 
L 628 4666 
L 2053 4666 
Q 2853 4666 3247 4331 
Q 3641 3997 3641 3322 
Q 3641 2881 3436 2590 
Q 3231 2300 2841 2188 
z
M 1259 4147 
L 1259 2491 
L 2053 2491 
Q 2509 2491 2742 2702 
Q 2975 2913 2975 3322 
Q 2975 3731 2742 3939 
Q 2509 4147 2053 4147 
L 1259 4147 
z
" transform="scale(0.015625)"/>
      <path id="DejaVuSans-4c" d="M 628 4666 
L 1259 4666 
L 1259 531 
L 3531 531 
L 3531 0 
L 628 0 
L 628 4666 
z
" transform="scale(0.015625)"/>
      <path id="DejaVuSans-55" d="M 556 4666 
L 1191 4666 
L 1191 1831 
Q 1191 1081 1462 751 
Q 1734 422 2344 422 
Q 2950 422 3222 751 
Q 3494 1081 3494 1831 
L 3494 4666 
L 4128 4666 
L 4128 1753 
Q 4128 841 3676 375 
Q 3225 -91 2344 -91 
Q 1459 -91 1007 375 
Q 556 841 556 1753 
L 556 4666 
z
" transform="scale(0.015625)"/>
     </defs>
     <use xlink:href="#DejaVuSans-52"/>
     <use xlink:href="#DejaVuSans-65" x="64.982422"/>
     <use xlink:href="#DejaVuSans-4c" x="126.505859"/>
     <use xlink:href="#DejaVuSans-55" x="177.21875"/>
    </g>
   </g>
   <g id="legend_3">
    <g id="patch_19">
     <path d="M 40.616406 303.65 
L 123.693906 303.65 
Q 125.893906 303.65 125.893906 301.45 
L 125.893906 270.258125 
Q 125.893906 268.058125 123.693906 268.058125 
L 40.616406 268.058125 
Q 38.416406 268.058125 38.416406 270.258125 
L 38.416406 301.45 
Q 38.416406 303.65 40.616406 303.65 
z
" style="fill: #eaeaf2; opacity: 0.8; stroke: #cccccc; stroke-linejoin: miter"/>
    </g>
    <g id="line2d_47">
     <path d="M 42.816406 276.966406 
L 53.816406 276.966406 
L 64.816406 276.966406 
" style="fill: none; stroke: #4c72b0; stroke-width: 2; stroke-linecap: round"/>
    </g>
    <g id="text_44">
     <!-- ActFn -->
     <g style="fill: #262626" transform="translate(73.616406 280.816406) scale(0.11 -0.11)">
      <use xlink:href="#DejaVuSans-41"/>
      <use xlink:href="#DejaVuSans-63" x="66.658203"/>
      <use xlink:href="#DejaVuSans-74" x="121.638672"/>
      <use xlink:href="#DejaVuSans-46" x="160.847656"/>
      <use xlink:href="#DejaVuSans-6e" x="218.367188"/>
     </g>
    </g>
    <g id="line2d_48">
     <path d="M 42.816406 293.112344 
L 53.816406 293.112344 
L 64.816406 293.112344 
" style="fill: none; stroke: #dd8452; stroke-width: 2; stroke-linecap: round"/>
    </g>
    <g id="text_45">
     <!-- Gradient -->
     <g style="fill: #262626" transform="translate(73.616406 296.962344) scale(0.11 -0.11)">
      <use xlink:href="#DejaVuSans-47"/>
      <use xlink:href="#DejaVuSans-72" x="77.490234"/>
      <use xlink:href="#DejaVuSans-61" x="118.603516"/>
      <use xlink:href="#DejaVuSans-64" x="179.882812"/>
      <use xlink:href="#DejaVuSans-69" x="243.359375"/>
      <use xlink:href="#DejaVuSans-65" x="271.142578"/>
      <use xlink:href="#DejaVuSans-6e" x="332.666016"/>
      <use xlink:href="#DejaVuSans-74" x="396.044922"/>
     </g>
    </g>
   </g>
  </g>
  <g id="axes_4">
   <g id="patch_20">
    <path d="M 276.407315 447.358125 
L 479.316406 447.358125 
L 479.316406 262.558125 
L 276.407315 262.558125 
z
" style="fill: #eaeaf2"/>
   </g>
   <g id="matplotlib.axis_7">
    <g id="xtick_16">
     <g id="line2d_49">
      <path d="M 304.076737 447.358125 
L 304.076737 262.558125 
" clip-path="url(#p65831caaea)" style="fill: none; stroke: #ffffff; stroke-linecap: round"/>
     </g>
     <g id="text_46">
      <!-- −4 -->
      <g style="fill: #262626" transform="translate(295.968534 465.216406) scale(0.11 -0.11)">
       <use xlink:href="#DejaVuSans-2212"/>
       <use xlink:href="#DejaVuSans-34" x="83.789062"/>
      </g>
     </g>
    </g>
    <g id="xtick_17">
     <g id="line2d_50">
      <path d="M 340.969299 447.358125 
L 340.969299 262.558125 
" clip-path="url(#p65831caaea)" style="fill: none; stroke: #ffffff; stroke-linecap: round"/>
     </g>
     <g id="text_47">
      <!-- −2 -->
      <g style="fill: #262626" transform="translate(332.861096 465.216406) scale(0.11 -0.11)">
       <use xlink:href="#DejaVuSans-2212"/>
       <use xlink:href="#DejaVuSans-32" x="83.789062"/>
      </g>
     </g>
    </g>
    <g id="xtick_18">
     <g id="line2d_51">
      <path d="M 377.861861 447.358125 
L 377.861861 262.558125 
" clip-path="url(#p65831caaea)" style="fill: none; stroke: #ffffff; stroke-linecap: round"/>
     </g>
     <g id="text_48">
      <!-- 0 -->
      <g style="fill: #262626" transform="translate(374.362486 465.216406) scale(0.11 -0.11)">
       <use xlink:href="#DejaVuSans-30"/>
      </g>
     </g>
    </g>
    <g id="xtick_19">
     <g id="line2d_52">
      <path d="M 414.754423 447.358125 
L 414.754423 262.558125 
" clip-path="url(#p65831caaea)" style="fill: none; stroke: #ffffff; stroke-linecap: round"/>
     </g>
     <g id="text_49">
      <!-- 2 -->
      <g style="fill: #262626" transform="translate(411.255048 465.216406) scale(0.11 -0.11)">
       <use xlink:href="#DejaVuSans-32"/>
      </g>
     </g>
    </g>
    <g id="xtick_20">
     <g id="line2d_53">
      <path d="M 451.646985 447.358125 
L 451.646985 262.558125 
" clip-path="url(#p65831caaea)" style="fill: none; stroke: #ffffff; stroke-linecap: round"/>
     </g>
     <g id="text_50">
      <!-- 4 -->
      <g style="fill: #262626" transform="translate(448.14761 465.216406) scale(0.11 -0.11)">
       <use xlink:href="#DejaVuSans-34"/>
      </g>
     </g>
    </g>
   </g>
   <g id="matplotlib.axis_8">
    <g id="ytick_22">
     <g id="line2d_54">
      <path d="M 276.407315 433.14274 
L 479.316406 433.14274 
" clip-path="url(#p65831caaea)" style="fill: none; stroke: #ffffff; stroke-linecap: round"/>
     </g>
     <g id="text_51">
      <!-- −1 -->
      <g style="fill: #262626" transform="translate(250.690909 437.321881) scale(0.11 -0.11)">
       <use xlink:href="#DejaVuSans-2212"/>
       <use xlink:href="#DejaVuSans-31" x="83.789062"/>
      </g>
     </g>
    </g>
    <g id="ytick_23">
     <g id="line2d_55">
      <path d="M 276.407315 404.711971 
L 479.316406 404.711971 
" clip-path="url(#p65831caaea)" style="fill: none; stroke: #ffffff; stroke-linecap: round"/>
     </g>
     <g id="text_52">
      <!-- 0 -->
      <g style="fill: #262626" transform="translate(259.908565 408.891112) scale(0.11 -0.11)">
       <use xlink:href="#DejaVuSans-30"/>
      </g>
     </g>
    </g>
    <g id="ytick_24">
     <g id="line2d_56">
      <path d="M 276.407315 376.281202 
L 479.316406 376.281202 
" clip-path="url(#p65831caaea)" style="fill: none; stroke: #ffffff; stroke-linecap: round"/>
     </g>
     <g id="text_53">
      <!-- 1 -->
      <g style="fill: #262626" transform="translate(259.908565 380.460343) scale(0.11 -0.11)">
       <use xlink:href="#DejaVuSans-31"/>
      </g>
     </g>
    </g>
    <g id="ytick_25">
     <g id="line2d_57">
      <path d="M 276.407315 347.850433 
L 479.316406 347.850433 
" clip-path="url(#p65831caaea)" style="fill: none; stroke: #ffffff; stroke-linecap: round"/>
     </g>
     <g id="text_54">
      <!-- 2 -->
      <g style="fill: #262626" transform="translate(259.908565 352.029573) scale(0.11 -0.11)">
       <use xlink:href="#DejaVuSans-32"/>
      </g>
     </g>
    </g>
    <g id="ytick_26">
     <g id="line2d_58">
      <path d="M 276.407315 319.419663 
L 479.316406 319.419663 
" clip-path="url(#p65831caaea)" style="fill: none; stroke: #ffffff; stroke-linecap: round"/>
     </g>
     <g id="text_55">
      <!-- 3 -->
      <g style="fill: #262626" transform="translate(259.908565 323.598804) scale(0.11 -0.11)">
       <use xlink:href="#DejaVuSans-33"/>
      </g>
     </g>
    </g>
    <g id="ytick_27">
     <g id="line2d_59">
      <path d="M 276.407315 290.988894 
L 479.316406 290.988894 
" clip-path="url(#p65831caaea)" style="fill: none; stroke: #ffffff; stroke-linecap: round"/>
     </g>
     <g id="text_56">
      <!-- 4 -->
      <g style="fill: #262626" transform="translate(259.908565 295.168035) scale(0.11 -0.11)">
       <use xlink:href="#DejaVuSans-34"/>
      </g>
     </g>
    </g>
    <g id="ytick_28">
     <g id="line2d_60">
      <path d="M 276.407315 262.558125 
L 479.316406 262.558125 
" clip-path="url(#p65831caaea)" style="fill: none; stroke: #ffffff; stroke-linecap: round"/>
     </g>
     <g id="text_57">
      <!-- 5 -->
      <g style="fill: #262626" transform="translate(259.908565 266.737266) scale(0.11 -0.11)">
       <use xlink:href="#DejaVuSans-35"/>
      </g>
     </g>
    </g>
   </g>
   <g id="line2d_61">
    <path d="M 285.630456 418.927356 
L 377.769534 404.726201 
L 378.138835 404.285077 
L 470.093266 262.558125 
L 470.093266 262.558125 
" clip-path="url(#p65831caaea)" style="fill: none; stroke: #4c72b0; stroke-width: 2; stroke-linecap: round"/>
   </g>
   <g id="line2d_62">
    <path d="M 285.630456 401.868894 
L 377.769534 401.868894 
L 377.954188 376.281202 
L 470.093266 376.281202 
L 470.093266 376.281202 
" clip-path="url(#p65831caaea)" style="fill: none; stroke: #dd8452; stroke-width: 2; stroke-linecap: round"/>
   </g>
   <g id="patch_21">
    <path d="M 276.407315 447.358125 
L 276.407315 262.558125 
" style="fill: none; stroke: #ffffff; stroke-width: 1.25; stroke-linejoin: miter; stroke-linecap: square"/>
   </g>
   <g id="patch_22">
    <path d="M 479.316406 447.358125 
L 479.316406 262.558125 
" style="fill: none; stroke: #ffffff; stroke-width: 1.25; stroke-linejoin: miter; stroke-linecap: square"/>
   </g>
   <g id="patch_23">
    <path d="M 276.407315 447.358125 
L 479.316406 447.358125 
" style="fill: none; stroke: #ffffff; stroke-width: 1.25; stroke-linejoin: miter; stroke-linecap: square"/>
   </g>
   <g id="patch_24">
    <path d="M 276.407315 262.558125 
L 479.316406 262.558125 
" style="fill: none; stroke: #ffffff; stroke-width: 1.25; stroke-linejoin: miter; stroke-linecap: square"/>
   </g>
   <g id="text_58">
    <!-- LeakyReLU -->
    <g style="fill: #262626" transform="translate(345.421548 256.558125) scale(0.12 -0.12)">
     <defs>
      <path id="DejaVuSans-6b" d="M 581 4863 
L 1159 4863 
L 1159 1991 
L 2875 3500 
L 3609 3500 
L 1753 1863 
L 3688 0 
L 2938 0 
L 1159 1709 
L 1159 0 
L 581 0 
L 581 4863 
z
" transform="scale(0.015625)"/>
      <path id="DejaVuSans-79" d="M 2059 -325 
Q 1816 -950 1584 -1140 
Q 1353 -1331 966 -1331 
L 506 -1331 
L 506 -850 
L 844 -850 
Q 1081 -850 1212 -737 
Q 1344 -625 1503 -206 
L 1606 56 
L 191 3500 
L 800 3500 
L 1894 763 
L 2988 3500 
L 3597 3500 
L 2059 -325 
z
" transform="scale(0.015625)"/>
     </defs>
     <use xlink:href="#DejaVuSans-4c"/>
     <use xlink:href="#DejaVuSans-65" x="53.962891"/>
     <use xlink:href="#DejaVuSans-61" x="115.486328"/>
     <use xlink:href="#DejaVuSans-6b" x="176.765625"/>
     <use xlink:href="#DejaVuSans-79" x="231.050781"/>
     <use xlink:href="#DejaVuSans-52" x="290.230469"/>
     <use xlink:href="#DejaVuSans-65" x="355.212891"/>
     <use xlink:href="#DejaVuSans-4c" x="416.736328"/>
     <use xlink:href="#DejaVuSans-55" x="467.449219"/>
    </g>
   </g>
   <g id="legend_4">
    <g id="patch_25">
     <path d="M 284.107315 303.65 
L 367.184815 303.65 
Q 369.384815 303.65 369.384815 301.45 
L 369.384815 270.258125 
Q 369.384815 268.058125 367.184815 268.058125 
L 284.107315 268.058125 
Q 281.907315 268.058125 281.907315 270.258125 
L 281.907315 301.45 
Q 281.907315 303.65 284.107315 303.65 
z
" style="fill: #eaeaf2; opacity: 0.8; stroke: #cccccc; stroke-linejoin: miter"/>
    </g>
    <g id="line2d_63">
     <path d="M 286.307315 276.966406 
L 297.307315 276.966406 
L 308.307315 276.966406 
" style="fill: none; stroke: #4c72b0; stroke-width: 2; stroke-linecap: round"/>
    </g>
    <g id="text_59">
     <!-- ActFn -->
     <g style="fill: #262626" transform="translate(317.107315 280.816406) scale(0.11 -0.11)">
      <use xlink:href="#DejaVuSans-41"/>
      <use xlink:href="#DejaVuSans-63" x="66.658203"/>
      <use xlink:href="#DejaVuSans-74" x="121.638672"/>
      <use xlink:href="#DejaVuSans-46" x="160.847656"/>
      <use xlink:href="#DejaVuSans-6e" x="218.367188"/>
     </g>
    </g>
    <g id="line2d_64">
     <path d="M 286.307315 293.112344 
L 297.307315 293.112344 
L 308.307315 293.112344 
" style="fill: none; stroke: #dd8452; stroke-width: 2; stroke-linecap: round"/>
    </g>
    <g id="text_60">
     <!-- Gradient -->
     <g style="fill: #262626" transform="translate(317.107315 296.962344) scale(0.11 -0.11)">
      <use xlink:href="#DejaVuSans-47"/>
      <use xlink:href="#DejaVuSans-72" x="77.490234"/>
      <use xlink:href="#DejaVuSans-61" x="118.603516"/>
      <use xlink:href="#DejaVuSans-64" x="179.882812"/>
      <use xlink:href="#DejaVuSans-69" x="243.359375"/>
      <use xlink:href="#DejaVuSans-65" x="271.142578"/>
      <use xlink:href="#DejaVuSans-6e" x="332.666016"/>
      <use xlink:href="#DejaVuSans-74" x="396.044922"/>
     </g>
    </g>
   </g>
  </g>
  <g id="axes_5">
   <g id="patch_26">
    <path d="M 32.916406 687.598125 
L 235.825497 687.598125 
L 235.825497 502.798125 
L 32.916406 502.798125 
z
" style="fill: #eaeaf2"/>
   </g>
   <g id="matplotlib.axis_9">
    <g id="xtick_21">
     <g id="line2d_65">
      <path d="M 60.585828 687.598125 
L 60.585828 502.798125 
" clip-path="url(#pb42f9c0cfa)" style="fill: none; stroke: #ffffff; stroke-linecap: round"/>
     </g>
     <g id="text_61">
      <!-- −4 -->
      <g style="fill: #262626" transform="translate(52.477625 705.456406) scale(0.11 -0.11)">
       <use xlink:href="#DejaVuSans-2212"/>
       <use xlink:href="#DejaVuSans-34" x="83.789062"/>
      </g>
     </g>
    </g>
    <g id="xtick_22">
     <g id="line2d_66">
      <path d="M 97.47839 687.598125 
L 97.47839 502.798125 
" clip-path="url(#pb42f9c0cfa)" style="fill: none; stroke: #ffffff; stroke-linecap: round"/>
     </g>
     <g id="text_62">
      <!-- −2 -->
      <g style="fill: #262626" transform="translate(89.370187 705.456406) scale(0.11 -0.11)">
       <use xlink:href="#DejaVuSans-2212"/>
       <use xlink:href="#DejaVuSans-32" x="83.789062"/>
      </g>
     </g>
    </g>
    <g id="xtick_23">
     <g id="line2d_67">
      <path d="M 134.370952 687.598125 
L 134.370952 502.798125 
" clip-path="url(#pb42f9c0cfa)" style="fill: none; stroke: #ffffff; stroke-linecap: round"/>
     </g>
     <g id="text_63">
      <!-- 0 -->
      <g style="fill: #262626" transform="translate(130.871577 705.456406) scale(0.11 -0.11)">
       <use xlink:href="#DejaVuSans-30"/>
      </g>
     </g>
    </g>
    <g id="xtick_24">
     <g id="line2d_68">
      <path d="M 171.263514 687.598125 
L 171.263514 502.798125 
" clip-path="url(#pb42f9c0cfa)" style="fill: none; stroke: #ffffff; stroke-linecap: round"/>
     </g>
     <g id="text_64">
      <!-- 2 -->
      <g style="fill: #262626" transform="translate(167.764139 705.456406) scale(0.11 -0.11)">
       <use xlink:href="#DejaVuSans-32"/>
      </g>
     </g>
    </g>
    <g id="xtick_25">
     <g id="line2d_69">
      <path d="M 208.156076 687.598125 
L 208.156076 502.798125 
" clip-path="url(#pb42f9c0cfa)" style="fill: none; stroke: #ffffff; stroke-linecap: round"/>
     </g>
     <g id="text_65">
      <!-- 4 -->
      <g style="fill: #262626" transform="translate(204.656701 705.456406) scale(0.11 -0.11)">
       <use xlink:href="#DejaVuSans-34"/>
      </g>
     </g>
    </g>
   </g>
   <g id="matplotlib.axis_10">
    <g id="ytick_29">
     <g id="line2d_70">
      <path d="M 32.916406 673.38274 
L 235.825497 673.38274 
" clip-path="url(#pb42f9c0cfa)" style="fill: none; stroke: #ffffff; stroke-linecap: round"/>
     </g>
     <g id="text_66">
      <!-- −1 -->
      <g style="fill: #262626" transform="translate(7.2 677.561881) scale(0.11 -0.11)">
       <use xlink:href="#DejaVuSans-2212"/>
       <use xlink:href="#DejaVuSans-31" x="83.789062"/>
      </g>
     </g>
    </g>
    <g id="ytick_30">
     <g id="line2d_71">
      <path d="M 32.916406 644.951971 
L 235.825497 644.951971 
" clip-path="url(#pb42f9c0cfa)" style="fill: none; stroke: #ffffff; stroke-linecap: round"/>
     </g>
     <g id="text_67">
      <!-- 0 -->
      <g style="fill: #262626" transform="translate(16.417656 649.131112) scale(0.11 -0.11)">
       <use xlink:href="#DejaVuSans-30"/>
      </g>
     </g>
    </g>
    <g id="ytick_31">
     <g id="line2d_72">
      <path d="M 32.916406 616.521202 
L 235.825497 616.521202 
" clip-path="url(#pb42f9c0cfa)" style="fill: none; stroke: #ffffff; stroke-linecap: round"/>
     </g>
     <g id="text_68">
      <!-- 1 -->
      <g style="fill: #262626" transform="translate(16.417656 620.700343) scale(0.11 -0.11)">
       <use xlink:href="#DejaVuSans-31"/>
      </g>
     </g>
    </g>
    <g id="ytick_32">
     <g id="line2d_73">
      <path d="M 32.916406 588.090433 
L 235.825497 588.090433 
" clip-path="url(#pb42f9c0cfa)" style="fill: none; stroke: #ffffff; stroke-linecap: round"/>
     </g>
     <g id="text_69">
      <!-- 2 -->
      <g style="fill: #262626" transform="translate(16.417656 592.269573) scale(0.11 -0.11)">
       <use xlink:href="#DejaVuSans-32"/>
      </g>
     </g>
    </g>
    <g id="ytick_33">
     <g id="line2d_74">
      <path d="M 32.916406 559.659663 
L 235.825497 559.659663 
" clip-path="url(#pb42f9c0cfa)" style="fill: none; stroke: #ffffff; stroke-linecap: round"/>
     </g>
     <g id="text_70">
      <!-- 3 -->
      <g style="fill: #262626" transform="translate(16.417656 563.838804) scale(0.11 -0.11)">
       <use xlink:href="#DejaVuSans-33"/>
      </g>
     </g>
    </g>
    <g id="ytick_34">
     <g id="line2d_75">
      <path d="M 32.916406 531.228894 
L 235.825497 531.228894 
" clip-path="url(#pb42f9c0cfa)" style="fill: none; stroke: #ffffff; stroke-linecap: round"/>
     </g>
     <g id="text_71">
      <!-- 4 -->
      <g style="fill: #262626" transform="translate(16.417656 535.408035) scale(0.11 -0.11)">
       <use xlink:href="#DejaVuSans-34"/>
      </g>
     </g>
    </g>
    <g id="ytick_35">
     <g id="line2d_76">
      <path d="M 32.916406 502.798125 
L 235.825497 502.798125 
" clip-path="url(#pb42f9c0cfa)" style="fill: none; stroke: #ffffff; stroke-linecap: round"/>
     </g>
     <g id="text_72">
      <!-- 5 -->
      <g style="fill: #262626" transform="translate(16.417656 506.977266) scale(0.11 -0.11)">
       <use xlink:href="#DejaVuSans-35"/>
      </g>
     </g>
    </g>
   </g>
   <g id="line2d_77">
    <path d="M 42.139547 673.191175 
L 58.942469 672.906397 
L 70.205961 672.505528 
L 78.699744 671.992531 
L 85.5317 671.369342 
L 91.255768 670.63677 
L 96.24125 669.784645 
L 100.672789 668.807565 
L 104.735033 667.680466 
L 108.243334 666.485955 
L 111.566989 665.124301 
L 114.705994 663.592307 
L 117.660354 661.891719 
L 120.430066 660.030075 
L 123.01513 658.021367 
L 125.415547 655.886494 
L 127.815964 653.454926 
L 130.216381 650.685426 
L 132.43215 647.788516 
L 134.647926 644.525077 
L 226.602357 502.798125 
L 226.602357 502.798125 
" clip-path="url(#pb42f9c0cfa)" style="fill: none; stroke: #4c72b0; stroke-width: 2; stroke-linecap: round"/>
   </g>
   <g id="line2d_78">
    <path d="M 42.139547 644.760406 
L 58.942469 644.475628 
L 70.205961 644.074759 
L 78.699744 643.561762 
L 85.5317 642.938572 
L 91.255768 642.206001 
L 96.24125 641.353875 
L 100.672789 640.376796 
L 104.735033 639.249696 
L 108.243334 638.055186 
L 111.566989 636.693531 
L 114.705994 635.161538 
L 117.660354 633.460951 
L 120.430066 631.599305 
L 123.01513 629.590597 
L 125.415547 627.455724 
L 127.815964 625.024156 
L 130.216381 622.254657 
L 132.43215 619.357747 
L 134.463279 616.521202 
L 226.602357 616.521202 
L 226.602357 616.521202 
" clip-path="url(#pb42f9c0cfa)" style="fill: none; stroke: #dd8452; stroke-width: 2; stroke-linecap: round"/>
   </g>
   <g id="patch_27">
    <path d="M 32.916406 687.598125 
L 32.916406 502.798125 
" style="fill: none; stroke: #ffffff; stroke-width: 1.25; stroke-linejoin: miter; stroke-linecap: square"/>
   </g>
   <g id="patch_28">
    <path d="M 235.825497 687.598125 
L 235.825497 502.798125 
" style="fill: none; stroke: #ffffff; stroke-width: 1.25; stroke-linejoin: miter; stroke-linecap: square"/>
   </g>
   <g id="patch_29">
    <path d="M 32.916406 687.598125 
L 235.825497 687.598125 
" style="fill: none; stroke: #ffffff; stroke-width: 1.25; stroke-linejoin: miter; stroke-linecap: square"/>
   </g>
   <g id="patch_30">
    <path d="M 32.916406 502.798125 
L 235.825497 502.798125 
" style="fill: none; stroke: #ffffff; stroke-width: 1.25; stroke-linejoin: miter; stroke-linecap: square"/>
   </g>
   <g id="text_73">
    <!-- ELU -->
    <g style="fill: #262626" transform="translate(123.145327 496.798125) scale(0.12 -0.12)">
     <defs>
      <path id="DejaVuSans-45" d="M 628 4666 
L 3578 4666 
L 3578 4134 
L 1259 4134 
L 1259 2753 
L 3481 2753 
L 3481 2222 
L 1259 2222 
L 1259 531 
L 3634 531 
L 3634 0 
L 628 0 
L 628 4666 
z
" transform="scale(0.015625)"/>
     </defs>
     <use xlink:href="#DejaVuSans-45"/>
     <use xlink:href="#DejaVuSans-4c" x="63.183594"/>
     <use xlink:href="#DejaVuSans-55" x="113.896484"/>
    </g>
   </g>
   <g id="legend_5">
    <g id="patch_31">
     <path d="M 40.616406 543.89 
L 123.693906 543.89 
Q 125.893906 543.89 125.893906 541.69 
L 125.893906 510.498125 
Q 125.893906 508.298125 123.693906 508.298125 
L 40.616406 508.298125 
Q 38.416406 508.298125 38.416406 510.498125 
L 38.416406 541.69 
Q 38.416406 543.89 40.616406 543.89 
z
" style="fill: #eaeaf2; opacity: 0.8; stroke: #cccccc; stroke-linejoin: miter"/>
    </g>
    <g id="line2d_79">
     <path d="M 42.816406 517.206406 
L 53.816406 517.206406 
L 64.816406 517.206406 
" style="fill: none; stroke: #4c72b0; stroke-width: 2; stroke-linecap: round"/>
    </g>
    <g id="text_74">
     <!-- ActFn -->
     <g style="fill: #262626" transform="translate(73.616406 521.056406) scale(0.11 -0.11)">
      <use xlink:href="#DejaVuSans-41"/>
      <use xlink:href="#DejaVuSans-63" x="66.658203"/>
      <use xlink:href="#DejaVuSans-74" x="121.638672"/>
      <use xlink:href="#DejaVuSans-46" x="160.847656"/>
      <use xlink:href="#DejaVuSans-6e" x="218.367188"/>
     </g>
    </g>
    <g id="line2d_80">
     <path d="M 42.816406 533.352344 
L 53.816406 533.352344 
L 64.816406 533.352344 
" style="fill: none; stroke: #dd8452; stroke-width: 2; stroke-linecap: round"/>
    </g>
    <g id="text_75">
     <!-- Gradient -->
     <g style="fill: #262626" transform="translate(73.616406 537.202344) scale(0.11 -0.11)">
      <use xlink:href="#DejaVuSans-47"/>
      <use xlink:href="#DejaVuSans-72" x="77.490234"/>
      <use xlink:href="#DejaVuSans-61" x="118.603516"/>
      <use xlink:href="#DejaVuSans-64" x="179.882812"/>
      <use xlink:href="#DejaVuSans-69" x="243.359375"/>
      <use xlink:href="#DejaVuSans-65" x="271.142578"/>
      <use xlink:href="#DejaVuSans-6e" x="332.666016"/>
      <use xlink:href="#DejaVuSans-74" x="396.044922"/>
     </g>
    </g>
   </g>
  </g>
  <g id="axes_6">
   <g id="patch_32">
    <path d="M 276.407315 687.598125 
L 479.316406 687.598125 
L 479.316406 502.798125 
L 276.407315 502.798125 
z
" style="fill: #eaeaf2"/>
   </g>
   <g id="matplotlib.axis_11">
    <g id="xtick_26">
     <g id="line2d_81">
      <path d="M 304.076737 687.598125 
L 304.076737 502.798125 
" clip-path="url(#p8976fc2754)" style="fill: none; stroke: #ffffff; stroke-linecap: round"/>
     </g>
     <g id="text_76">
      <!-- −4 -->
      <g style="fill: #262626" transform="translate(295.968534 705.456406) scale(0.11 -0.11)">
       <use xlink:href="#DejaVuSans-2212"/>
       <use xlink:href="#DejaVuSans-34" x="83.789062"/>
      </g>
     </g>
    </g>
    <g id="xtick_27">
     <g id="line2d_82">
      <path d="M 340.969299 687.598125 
L 340.969299 502.798125 
" clip-path="url(#p8976fc2754)" style="fill: none; stroke: #ffffff; stroke-linecap: round"/>
     </g>
     <g id="text_77">
      <!-- −2 -->
      <g style="fill: #262626" transform="translate(332.861096 705.456406) scale(0.11 -0.11)">
       <use xlink:href="#DejaVuSans-2212"/>
       <use xlink:href="#DejaVuSans-32" x="83.789062"/>
      </g>
     </g>
    </g>
    <g id="xtick_28">
     <g id="line2d_83">
      <path d="M 377.861861 687.598125 
L 377.861861 502.798125 
" clip-path="url(#p8976fc2754)" style="fill: none; stroke: #ffffff; stroke-linecap: round"/>
     </g>
     <g id="text_78">
      <!-- 0 -->
      <g style="fill: #262626" transform="translate(374.362486 705.456406) scale(0.11 -0.11)">
       <use xlink:href="#DejaVuSans-30"/>
      </g>
     </g>
    </g>
    <g id="xtick_29">
     <g id="line2d_84">
      <path d="M 414.754423 687.598125 
L 414.754423 502.798125 
" clip-path="url(#p8976fc2754)" style="fill: none; stroke: #ffffff; stroke-linecap: round"/>
     </g>
     <g id="text_79">
      <!-- 2 -->
      <g style="fill: #262626" transform="translate(411.255048 705.456406) scale(0.11 -0.11)">
       <use xlink:href="#DejaVuSans-32"/>
      </g>
     </g>
    </g>
    <g id="xtick_30">
     <g id="line2d_85">
      <path d="M 451.646985 687.598125 
L 451.646985 502.798125 
" clip-path="url(#p8976fc2754)" style="fill: none; stroke: #ffffff; stroke-linecap: round"/>
     </g>
     <g id="text_80">
      <!-- 4 -->
      <g style="fill: #262626" transform="translate(448.14761 705.456406) scale(0.11 -0.11)">
       <use xlink:href="#DejaVuSans-34"/>
      </g>
     </g>
    </g>
   </g>
   <g id="matplotlib.axis_12">
    <g id="ytick_36">
     <g id="line2d_86">
      <path d="M 276.407315 673.38274 
L 479.316406 673.38274 
" clip-path="url(#p8976fc2754)" style="fill: none; stroke: #ffffff; stroke-linecap: round"/>
     </g>
     <g id="text_81">
      <!-- −1 -->
      <g style="fill: #262626" transform="translate(250.690909 677.561881) scale(0.11 -0.11)">
       <use xlink:href="#DejaVuSans-2212"/>
       <use xlink:href="#DejaVuSans-31" x="83.789062"/>
      </g>
     </g>
    </g>
    <g id="ytick_37">
     <g id="line2d_87">
      <path d="M 276.407315 644.951971 
L 479.316406 644.951971 
" clip-path="url(#p8976fc2754)" style="fill: none; stroke: #ffffff; stroke-linecap: round"/>
     </g>
     <g id="text_82">
      <!-- 0 -->
      <g style="fill: #262626" transform="translate(259.908565 649.131112) scale(0.11 -0.11)">
       <use xlink:href="#DejaVuSans-30"/>
      </g>
     </g>
    </g>
    <g id="ytick_38">
     <g id="line2d_88">
      <path d="M 276.407315 616.521202 
L 479.316406 616.521202 
" clip-path="url(#p8976fc2754)" style="fill: none; stroke: #ffffff; stroke-linecap: round"/>
     </g>
     <g id="text_83">
      <!-- 1 -->
      <g style="fill: #262626" transform="translate(259.908565 620.700343) scale(0.11 -0.11)">
       <use xlink:href="#DejaVuSans-31"/>
      </g>
     </g>
    </g>
    <g id="ytick_39">
     <g id="line2d_89">
      <path d="M 276.407315 588.090433 
L 479.316406 588.090433 
" clip-path="url(#p8976fc2754)" style="fill: none; stroke: #ffffff; stroke-linecap: round"/>
     </g>
     <g id="text_84">
      <!-- 2 -->
      <g style="fill: #262626" transform="translate(259.908565 592.269573) scale(0.11 -0.11)">
       <use xlink:href="#DejaVuSans-32"/>
      </g>
     </g>
    </g>
    <g id="ytick_40">
     <g id="line2d_90">
      <path d="M 276.407315 559.659663 
L 479.316406 559.659663 
" clip-path="url(#p8976fc2754)" style="fill: none; stroke: #ffffff; stroke-linecap: round"/>
     </g>
     <g id="text_85">
      <!-- 3 -->
      <g style="fill: #262626" transform="translate(259.908565 563.838804) scale(0.11 -0.11)">
       <use xlink:href="#DejaVuSans-33"/>
      </g>
     </g>
    </g>
    <g id="ytick_41">
     <g id="line2d_91">
      <path d="M 276.407315 531.228894 
L 479.316406 531.228894 
" clip-path="url(#p8976fc2754)" style="fill: none; stroke: #ffffff; stroke-linecap: round"/>
     </g>
     <g id="text_86">
      <!-- 4 -->
      <g style="fill: #262626" transform="translate(259.908565 535.408035) scale(0.11 -0.11)">
       <use xlink:href="#DejaVuSans-34"/>
      </g>
     </g>
    </g>
    <g id="ytick_42">
     <g id="line2d_92">
      <path d="M 276.407315 502.798125 
L 479.316406 502.798125 
" clip-path="url(#p8976fc2754)" style="fill: none; stroke: #ffffff; stroke-linecap: round"/>
     </g>
     <g id="text_87">
      <!-- 5 -->
      <g style="fill: #262626" transform="translate(259.908565 506.977266) scale(0.11 -0.11)">
       <use xlink:href="#DejaVuSans-35"/>
      </g>
     </g>
    </g>
   </g>
   <g id="line2d_93">
    <path d="M 285.630456 645.903386 
L 296.524654 646.458358 
L 305.941677 647.153618 
L 314.620107 648.014444 
L 323.298537 649.103146 
L 334.008087 650.691374 
L 344.348345 652.173971 
L 349.518473 652.685919 
L 353.580717 652.864571 
L 357.089019 652.792099 
L 360.228026 652.499149 
L 362.997737 652.026137 
L 365.76745 651.321833 
L 368.352514 650.43206 
L 370.937578 649.298154 
L 373.522642 647.904428 
L 376.107707 646.23956 
L 378.692778 644.297216 
L 381.277842 642.076436 
L 384.047554 639.393195 
L 387.001913 636.198106 
L 390.140919 632.451146 
L 393.464574 628.125668 
L 397.157522 622.944004 
L 401.404415 616.583397 
L 406.389896 608.70287 
L 413.037205 597.748673 
L 425.962523 575.905166 
L 439.811083 552.681561 
L 451.813165 533.004767 
L 464.92314 511.952752 
L 470.093266 503.749531 
L 470.093266 503.749531 
" clip-path="url(#p8976fc2754)" style="fill: none; stroke: #4c72b0; stroke-width: 2; stroke-linecap: round"/>
   </g>
   <g id="line2d_94">
    <path d="M 285.630456 645.706735 
L 299.848306 646.245079 
L 315.543344 647.07746 
L 328.468662 647.70431 
L 334.746677 647.7853 
L 339.547512 647.629469 
L 343.609756 647.279293 
L 347.302705 646.734049 
L 350.626357 646.019472 
L 353.765364 645.121164 
L 356.904371 643.984777 
L 360.043379 642.59795 
L 363.182385 640.959565 
L 366.506039 638.964931 
L 370.198988 636.476329 
L 374.815174 633.073845 
L 386.447971 624.3512 
L 390.140919 621.92891 
L 393.464574 620.006081 
L 396.60358 618.441024 
L 399.742587 617.128532 
L 402.881594 616.063879 
L 406.020601 615.231969 
L 409.344256 614.579882 
L 413.037205 614.093374 
L 417.099446 613.794561 
L 421.715634 613.68333 
L 427.439707 613.774646 
L 435.933489 614.158816 
L 463.630604 615.549983 
L 470.093266 615.766441 
L 470.093266 615.766441 
" clip-path="url(#p8976fc2754)" style="fill: none; stroke: #dd8452; stroke-width: 2; stroke-linecap: round"/>
   </g>
   <g id="patch_33">
    <path d="M 276.407315 687.598125 
L 276.407315 502.798125 
" style="fill: none; stroke: #ffffff; stroke-width: 1.25; stroke-linejoin: miter; stroke-linecap: square"/>
   </g>
   <g id="patch_34">
    <path d="M 479.316406 687.598125 
L 479.316406 502.798125 
" style="fill: none; stroke: #ffffff; stroke-width: 1.25; stroke-linejoin: miter; stroke-linecap: square"/>
   </g>
   <g id="patch_35">
    <path d="M 276.407315 687.598125 
L 479.316406 687.598125 
" style="fill: none; stroke: #ffffff; stroke-width: 1.25; stroke-linejoin: miter; stroke-linecap: square"/>
   </g>
   <g id="patch_36">
    <path d="M 276.407315 502.798125 
L 479.316406 502.798125 
" style="fill: none; stroke: #ffffff; stroke-width: 1.25; stroke-linejoin: miter; stroke-linecap: square"/>
   </g>
   <g id="text_88">
    <!-- Swish -->
    <g style="fill: #262626" transform="translate(360.550923 496.798125) scale(0.12 -0.12)">
     <defs>
      <path id="DejaVuSans-77" d="M 269 3500 
L 844 3500 
L 1563 769 
L 2278 3500 
L 2956 3500 
L 3675 769 
L 4391 3500 
L 4966 3500 
L 4050 0 
L 3372 0 
L 2619 2869 
L 1863 0 
L 1184 0 
L 269 3500 
z
" transform="scale(0.015625)"/>
      <path id="DejaVuSans-73" d="M 2834 3397 
L 2834 2853 
Q 2591 2978 2328 3040 
Q 2066 3103 1784 3103 
Q 1356 3103 1142 2972 
Q 928 2841 928 2578 
Q 928 2378 1081 2264 
Q 1234 2150 1697 2047 
L 1894 2003 
Q 2506 1872 2764 1633 
Q 3022 1394 3022 966 
Q 3022 478 2636 193 
Q 2250 -91 1575 -91 
Q 1294 -91 989 -36 
Q 684 19 347 128 
L 347 722 
Q 666 556 975 473 
Q 1284 391 1588 391 
Q 1994 391 2212 530 
Q 2431 669 2431 922 
Q 2431 1156 2273 1281 
Q 2116 1406 1581 1522 
L 1381 1569 
Q 847 1681 609 1914 
Q 372 2147 372 2553 
Q 372 3047 722 3315 
Q 1072 3584 1716 3584 
Q 2034 3584 2315 3537 
Q 2597 3491 2834 3397 
z
" transform="scale(0.015625)"/>
     </defs>
     <use xlink:href="#DejaVuSans-53"/>
     <use xlink:href="#DejaVuSans-77" x="63.476562"/>
     <use xlink:href="#DejaVuSans-69" x="145.263672"/>
     <use xlink:href="#DejaVuSans-73" x="173.046875"/>
     <use xlink:href="#DejaVuSans-68" x="225.146484"/>
    </g>
   </g>
   <g id="legend_6">
    <g id="patch_37">
     <path d="M 284.107315 543.89 
L 367.184815 543.89 
Q 369.384815 543.89 369.384815 541.69 
L 369.384815 510.498125 
Q 369.384815 508.298125 367.184815 508.298125 
L 284.107315 508.298125 
Q 281.907315 508.298125 281.907315 510.498125 
L 281.907315 541.69 
Q 281.907315 543.89 284.107315 543.89 
z
" style="fill: #eaeaf2; opacity: 0.8; stroke: #cccccc; stroke-linejoin: miter"/>
    </g>
    <g id="line2d_95">
     <path d="M 286.307315 517.206406 
L 297.307315 517.206406 
L 308.307315 517.206406 
" style="fill: none; stroke: #4c72b0; stroke-width: 2; stroke-linecap: round"/>
    </g>
    <g id="text_89">
     <!-- ActFn -->
     <g style="fill: #262626" transform="translate(317.107315 521.056406) scale(0.11 -0.11)">
      <use xlink:href="#DejaVuSans-41"/>
      <use xlink:href="#DejaVuSans-63" x="66.658203"/>
      <use xlink:href="#DejaVuSans-74" x="121.638672"/>
      <use xlink:href="#DejaVuSans-46" x="160.847656"/>
      <use xlink:href="#DejaVuSans-6e" x="218.367188"/>
     </g>
    </g>
    <g id="line2d_96">
     <path d="M 286.307315 533.352344 
L 297.307315 533.352344 
L 308.307315 533.352344 
" style="fill: none; stroke: #dd8452; stroke-width: 2; stroke-linecap: round"/>
    </g>
    <g id="text_90">
     <!-- Gradient -->
     <g style="fill: #262626" transform="translate(317.107315 537.202344) scale(0.11 -0.11)">
      <use xlink:href="#DejaVuSans-47"/>
      <use xlink:href="#DejaVuSans-72" x="77.490234"/>
      <use xlink:href="#DejaVuSans-61" x="118.603516"/>
      <use xlink:href="#DejaVuSans-64" x="179.882812"/>
      <use xlink:href="#DejaVuSans-69" x="243.359375"/>
      <use xlink:href="#DejaVuSans-65" x="271.142578"/>
      <use xlink:href="#DejaVuSans-6e" x="332.666016"/>
      <use xlink:href="#DejaVuSans-74" x="396.044922"/>
     </g>
    </g>
   </g>
  </g>
 </g>
 <defs>
  <clipPath id="pcdae62613c">
   <rect x="32.916406" y="22.318125" width="202.909091" height="184.8"/>
  </clipPath>
  <clipPath id="p496059b61b">
   <rect x="276.407315" y="22.318125" width="202.909091" height="184.8"/>
  </clipPath>
  <clipPath id="pa2b6ad8608">
   <rect x="32.916406" y="262.558125" width="202.909091" height="184.8"/>
  </clipPath>
  <clipPath id="p65831caaea">
   <rect x="276.407315" y="262.558125" width="202.909091" height="184.8"/>
  </clipPath>
  <clipPath id="pb42f9c0cfa">
   <rect x="32.916406" y="502.798125" width="202.909091" height="184.8"/>
  </clipPath>
  <clipPath id="p8976fc2754">
   <rect x="276.407315" y="502.798125" width="202.909091" height="184.8"/>
  </clipPath>
 </defs>
</svg>
