<?xml version="1.0" encoding="utf-8" standalone="no"?>
<!DOCTYPE svg PUBLIC "-//W3C//DTD SVG 1.1//EN"
  "http://www.w3.org/Graphics/SVG/1.1/DTD/svg11.dtd">
<svg xmlns:xlink="http://www.w3.org/1999/xlink" width="599.393438pt" height="215.984063pt" viewBox="0 0 599.393438 215.984063" xmlns="http://www.w3.org/2000/svg" version="1.1">
 <metadata>
  <rdf:RDF xmlns:dc="http://purl.org/dc/elements/1.1/" xmlns:cc="http://creativecommons.org/ns#" xmlns:rdf="http://www.w3.org/1999/02/22-rdf-syntax-ns#">
   <cc:Work>
    <dc:type rdf:resource="http://purl.org/dc/dcmitype/StillImage"/>
    <dc:date>2024-09-01T12:11:59.839784</dc:date>
    <dc:format>image/svg+xml</dc:format>
    <dc:creator>
     <cc:Agent>
      <dc:title>Matplotlib v3.9.2, https://matplotlib.org/</dc:title>
     </cc:Agent>
    </dc:creator>
   </cc:Work>
  </rdf:RDF>
 </metadata>
 <defs>
  <style type="text/css">*{stroke-linejoin: round; stroke-linecap: butt}</style>
 </defs>
 <g id="figure_1">
  <g id="patch_1">
   <path d="M 0 215.984063 
L 599.393438 215.984063 
L 599.393438 0 
L 0 0 
z
" style="fill: #ffffff"/>
  </g>
  <g id="axes_1">
   <g id="patch_2">
    <path d="M 34.193438 188.638125 
L 592.193437 188.638125 
L 592.193437 22.318125 
L 34.193438 22.318125 
z
" style="fill: #eaeaf2"/>
   </g>
   <g id="matplotlib.axis_1">
    <g id="xtick_1">
     <g id="line2d_1">
      <path d="M 105.444914 188.638125 
L 105.444914 22.318125 
" clip-path="url(#p4388c18a1d)" style="fill: none; stroke: #ffffff; stroke-linecap: round"/>
     </g>
     <g id="text_1">
      <!-- −10 -->
      <g style="fill: #262626" transform="translate(93.837336 206.496406) scale(0.11 -0.11)">
       <defs>
        <path id="DejaVuSans-2212" d="M 678 2272 
L 4684 2272 
L 4684 1741 
L 678 1741 
L 678 2272 
z
" transform="scale(0.015625)"/>
        <path id="DejaVuSans-31" d="M 794 531 
L 1825 531 
L 1825 4091 
L 703 3866 
L 703 4441 
L 1819 4666 
L 2450 4666 
L 2450 531 
L 3481 531 
L 3481 0 
L 794 0 
L 794 531 
z
" transform="scale(0.015625)"/>
        <path id="DejaVuSans-30" d="M 2034 4250 
Q 1547 4250 1301 3770 
Q 1056 3291 1056 2328 
Q 1056 1369 1301 889 
Q 1547 409 2034 409 
Q 2525 409 2770 889 
Q 3016 1369 3016 2328 
Q 3016 3291 2770 3770 
Q 2525 4250 2034 4250 
z
M 2034 4750 
Q 2819 4750 3233 4129 
Q 3647 3509 3647 2328 
Q 3647 1150 3233 529 
Q 2819 -91 2034 -91 
Q 1250 -91 836 529 
Q 422 1150 422 2328 
Q 422 3509 836 4129 
Q 1250 4750 2034 4750 
z
" transform="scale(0.015625)"/>
       </defs>
       <use xlink:href="#DejaVuSans-2212"/>
       <use xlink:href="#DejaVuSans-31" x="83.789062"/>
       <use xlink:href="#DejaVuSans-30" x="147.412109"/>
      </g>
     </g>
    </g>
    <g id="xtick_2">
     <g id="line2d_2">
      <path d="M 209.448598 188.638125 
L 209.448598 22.318125 
" clip-path="url(#p4388c18a1d)" style="fill: none; stroke: #ffffff; stroke-linecap: round"/>
     </g>
     <g id="text_2">
      <!-- −5 -->
      <g style="fill: #262626" transform="translate(201.340395 206.496406) scale(0.11 -0.11)">
       <defs>
        <path id="DejaVuSans-35" d="M 691 4666 
L 3169 4666 
L 3169 4134 
L 1269 4134 
L 1269 2991 
Q 1406 3038 1543 3061 
Q 1681 3084 1819 3084 
Q 2600 3084 3056 2656 
Q 3513 2228 3513 1497 
Q 3513 744 3044 326 
Q 2575 -91 1722 -91 
Q 1428 -91 1123 -41 
Q 819 9 494 109 
L 494 744 
Q 775 591 1075 516 
Q 1375 441 1709 441 
Q 2250 441 2565 725 
Q 2881 1009 2881 1497 
Q 2881 1984 2565 2268 
Q 2250 2553 1709 2553 
Q 1456 2553 1204 2497 
Q 953 2441 691 2322 
L 691 4666 
z
" transform="scale(0.015625)"/>
       </defs>
       <use xlink:href="#DejaVuSans-2212"/>
       <use xlink:href="#DejaVuSans-35" x="83.789062"/>
      </g>
     </g>
    </g>
    <g id="xtick_3">
     <g id="line2d_3">
      <path d="M 313.452282 188.638125 
L 313.452282 22.318125 
" clip-path="url(#p4388c18a1d)" style="fill: none; stroke: #ffffff; stroke-linecap: round"/>
     </g>
     <g id="text_3">
      <!-- 0 -->
      <g style="fill: #262626" transform="translate(309.952907 206.496406) scale(0.11 -0.11)">
       <use xlink:href="#DejaVuSans-30"/>
      </g>
     </g>
    </g>
    <g id="xtick_4">
     <g id="line2d_4">
      <path d="M 417.455966 188.638125 
L 417.455966 22.318125 
" clip-path="url(#p4388c18a1d)" style="fill: none; stroke: #ffffff; stroke-linecap: round"/>
     </g>
     <g id="text_4">
      <!-- 5 -->
      <g style="fill: #262626" transform="translate(413.956591 206.496406) scale(0.11 -0.11)">
       <use xlink:href="#DejaVuSans-35"/>
      </g>
     </g>
    </g>
    <g id="xtick_5">
     <g id="line2d_5">
      <path d="M 521.45965 188.638125 
L 521.45965 22.318125 
" clip-path="url(#p4388c18a1d)" style="fill: none; stroke: #ffffff; stroke-linecap: round"/>
     </g>
     <g id="text_5">
      <!-- 10 -->
      <g style="fill: #262626" transform="translate(514.4609 206.496406) scale(0.11 -0.11)">
       <use xlink:href="#DejaVuSans-31"/>
       <use xlink:href="#DejaVuSans-30" x="63.623047"/>
      </g>
     </g>
    </g>
   </g>
   <g id="matplotlib.axis_2">
    <g id="ytick_1">
     <g id="line2d_6">
      <path d="M 34.193438 188.638125 
L 592.193437 188.638125 
" clip-path="url(#p4388c18a1d)" style="fill: none; stroke: #ffffff; stroke-linecap: round"/>
     </g>
     <g id="text_6">
      <!-- 0.0 -->
      <g style="fill: #262626" transform="translate(7.2 192.817266) scale(0.11 -0.11)">
       <defs>
        <path id="DejaVuSans-2e" d="M 684 794 
L 1344 794 
L 1344 0 
L 684 0 
L 684 794 
z
" transform="scale(0.015625)"/>
       </defs>
       <use xlink:href="#DejaVuSans-30"/>
       <use xlink:href="#DejaVuSans-2e" x="63.623047"/>
       <use xlink:href="#DejaVuSans-30" x="95.410156"/>
      </g>
     </g>
    </g>
    <g id="ytick_2">
     <g id="line2d_7">
      <path d="M 34.193438 146.886036 
L 592.193437 146.886036 
" clip-path="url(#p4388c18a1d)" style="fill: none; stroke: #ffffff; stroke-linecap: round"/>
     </g>
     <g id="text_7">
      <!-- 0.2 -->
      <g style="fill: #262626" transform="translate(7.2 151.065177) scale(0.11 -0.11)">
       <defs>
        <path id="DejaVuSans-32" d="M 1228 531 
L 3431 531 
L 3431 0 
L 469 0 
L 469 531 
Q 828 903 1448 1529 
Q 2069 2156 2228 2338 
Q 2531 2678 2651 2914 
Q 2772 3150 2772 3378 
Q 2772 3750 2511 3984 
Q 2250 4219 1831 4219 
Q 1534 4219 1204 4116 
Q 875 4013 500 3803 
L 500 4441 
Q 881 4594 1212 4672 
Q 1544 4750 1819 4750 
Q 2544 4750 2975 4387 
Q 3406 4025 3406 3419 
Q 3406 3131 3298 2873 
Q 3191 2616 2906 2266 
Q 2828 2175 2409 1742 
Q 1991 1309 1228 531 
z
" transform="scale(0.015625)"/>
       </defs>
       <use xlink:href="#DejaVuSans-30"/>
       <use xlink:href="#DejaVuSans-2e" x="63.623047"/>
       <use xlink:href="#DejaVuSans-32" x="95.410156"/>
      </g>
     </g>
    </g>
    <g id="ytick_3">
     <g id="line2d_8">
      <path d="M 34.193438 105.133948 
L 592.193437 105.133948 
" clip-path="url(#p4388c18a1d)" style="fill: none; stroke: #ffffff; stroke-linecap: round"/>
     </g>
     <g id="text_8">
      <!-- 0.4 -->
      <g style="fill: #262626" transform="translate(7.2 109.313088) scale(0.11 -0.11)">
       <defs>
        <path id="DejaVuSans-34" d="M 2419 4116 
L 825 1625 
L 2419 1625 
L 2419 4116 
z
M 2253 4666 
L 3047 4666 
L 3047 1625 
L 3713 1625 
L 3713 1100 
L 3047 1100 
L 3047 0 
L 2419 0 
L 2419 1100 
L 313 1100 
L 313 1709 
L 2253 4666 
z
" transform="scale(0.015625)"/>
       </defs>
       <use xlink:href="#DejaVuSans-30"/>
       <use xlink:href="#DejaVuSans-2e" x="63.623047"/>
       <use xlink:href="#DejaVuSans-34" x="95.410156"/>
      </g>
     </g>
    </g>
    <g id="ytick_4">
     <g id="line2d_9">
      <path d="M 34.193438 63.381859 
L 592.193437 63.381859 
" clip-path="url(#p4388c18a1d)" style="fill: none; stroke: #ffffff; stroke-linecap: round"/>
     </g>
     <g id="text_9">
      <!-- 0.6 -->
      <g style="fill: #262626" transform="translate(7.2 67.561) scale(0.11 -0.11)">
       <defs>
        <path id="DejaVuSans-36" d="M 2113 2584 
Q 1688 2584 1439 2293 
Q 1191 2003 1191 1497 
Q 1191 994 1439 701 
Q 1688 409 2113 409 
Q 2538 409 2786 701 
Q 3034 994 3034 1497 
Q 3034 2003 2786 2293 
Q 2538 2584 2113 2584 
z
M 3366 4563 
L 3366 3988 
Q 3128 4100 2886 4159 
Q 2644 4219 2406 4219 
Q 1781 4219 1451 3797 
Q 1122 3375 1075 2522 
Q 1259 2794 1537 2939 
Q 1816 3084 2150 3084 
Q 2853 3084 3261 2657 
Q 3669 2231 3669 1497 
Q 3669 778 3244 343 
Q 2819 -91 2113 -91 
Q 1303 -91 875 529 
Q 447 1150 447 2328 
Q 447 3434 972 4092 
Q 1497 4750 2381 4750 
Q 2619 4750 2861 4703 
Q 3103 4656 3366 4563 
z
" transform="scale(0.015625)"/>
       </defs>
       <use xlink:href="#DejaVuSans-30"/>
       <use xlink:href="#DejaVuSans-2e" x="63.623047"/>
       <use xlink:href="#DejaVuSans-36" x="95.410156"/>
      </g>
     </g>
    </g>
   </g>
   <g id="patch_3">
    <path d="M 59.557074 188.638125 
L 61.538605 188.638125 
L 61.538605 188.415657 
L 59.557074 188.415657 
z
" clip-path="url(#p4388c18a1d)" style="fill: #4c72b0; fill-opacity: 0.5; stroke: #4c72b0; stroke-linejoin: miter"/>
   </g>
   <g id="patch_4">
    <path d="M 61.538605 188.638125 
L 63.520135 188.638125 
L 63.520135 188.392455 
L 61.538605 188.392455 
z
" clip-path="url(#p4388c18a1d)" style="fill: #4c72b0; fill-opacity: 0.5; stroke: #4c72b0; stroke-linejoin: miter"/>
   </g>
   <g id="patch_5">
    <path d="M 63.520135 188.638125 
L 65.501666 188.638125 
L 65.501666 188.341956 
L 63.520135 188.341956 
z
" clip-path="url(#p4388c18a1d)" style="fill: #4c72b0; fill-opacity: 0.5; stroke: #4c72b0; stroke-linejoin: miter"/>
   </g>
   <g id="patch_6">
    <path d="M 65.501666 188.638125 
L 67.483217 188.638125 
L 67.483217 188.324216 
L 65.501666 188.324216 
z
" clip-path="url(#p4388c18a1d)" style="fill: #4c72b0; fill-opacity: 0.5; stroke: #4c72b0; stroke-linejoin: miter"/>
   </g>
   <g id="patch_7">
    <path d="M 67.483217 188.638125 
L 69.464747 188.638125 
L 69.464747 188.296916 
L 67.483217 188.296916 
z
" clip-path="url(#p4388c18a1d)" style="fill: #4c72b0; fill-opacity: 0.5; stroke: #4c72b0; stroke-linejoin: miter"/>
   </g>
   <g id="patch_8">
    <path d="M 69.464747 188.638125 
L 71.446278 188.638125 
L 71.446278 188.277809 
L 69.464747 188.277809 
z
" clip-path="url(#p4388c18a1d)" style="fill: #4c72b0; fill-opacity: 0.5; stroke: #4c72b0; stroke-linejoin: miter"/>
   </g>
   <g id="patch_9">
    <path d="M 71.446278 188.638125 
L 73.427809 188.638125 
L 73.427809 188.254606 
L 71.446278 188.254606 
z
" clip-path="url(#p4388c18a1d)" style="fill: #4c72b0; fill-opacity: 0.5; stroke: #4c72b0; stroke-linejoin: miter"/>
   </g>
   <g id="patch_10">
    <path d="M 73.427809 188.638125 
L 75.40934 188.638125 
L 75.40934 188.185 
L 73.427809 188.185 
z
" clip-path="url(#p4388c18a1d)" style="fill: #4c72b0; fill-opacity: 0.5; stroke: #4c72b0; stroke-linejoin: miter"/>
   </g>
   <g id="patch_11">
    <path d="M 75.40934 188.638125 
L 77.39089 188.638125 
L 77.39089 188.14133 
L 75.40934 188.14133 
z
" clip-path="url(#p4388c18a1d)" style="fill: #4c72b0; fill-opacity: 0.5; stroke: #4c72b0; stroke-linejoin: miter"/>
   </g>
   <g id="patch_12">
    <path d="M 77.39089 188.638125 
L 79.372421 188.638125 
L 79.372421 188.06353 
L 77.39089 188.06353 
z
" clip-path="url(#p4388c18a1d)" style="fill: #4c72b0; fill-opacity: 0.5; stroke: #4c72b0; stroke-linejoin: miter"/>
   </g>
   <g id="patch_13">
    <path d="M 79.372421 188.638125 
L 81.353952 188.638125 
L 81.353952 188.075813 
L 79.372421 188.075813 
z
" clip-path="url(#p4388c18a1d)" style="fill: #4c72b0; fill-opacity: 0.5; stroke: #4c72b0; stroke-linejoin: miter"/>
   </g>
   <g id="patch_14">
    <path d="M 81.353952 188.638125 
L 83.335483 188.638125 
L 83.335483 187.974815 
L 81.353952 187.974815 
z
" clip-path="url(#p4388c18a1d)" style="fill: #4c72b0; fill-opacity: 0.5; stroke: #4c72b0; stroke-linejoin: miter"/>
   </g>
   <g id="patch_15">
    <path d="M 83.335483 188.638125 
L 85.317013 188.638125 
L 85.317013 187.85198 
L 83.335483 187.85198 
z
" clip-path="url(#p4388c18a1d)" style="fill: #4c72b0; fill-opacity: 0.5; stroke: #4c72b0; stroke-linejoin: miter"/>
   </g>
   <g id="patch_16">
    <path d="M 85.317013 188.638125 
L 87.298544 188.638125 
L 87.298544 187.806941 
L 85.317013 187.806941 
z
" clip-path="url(#p4388c18a1d)" style="fill: #4c72b0; fill-opacity: 0.5; stroke: #4c72b0; stroke-linejoin: miter"/>
   </g>
   <g id="patch_17">
    <path d="M 87.298544 188.638125 
L 89.280095 188.638125 
L 89.280095 187.827421 
L 87.298544 187.827421 
z
" clip-path="url(#p4388c18a1d)" style="fill: #4c72b0; fill-opacity: 0.5; stroke: #4c72b0; stroke-linejoin: miter"/>
   </g>
   <g id="patch_18">
    <path d="M 89.280095 188.638125 
L 91.261626 188.638125 
L 91.261626 187.699119 
L 89.280095 187.699119 
z
" clip-path="url(#p4388c18a1d)" style="fill: #4c72b0; fill-opacity: 0.5; stroke: #4c72b0; stroke-linejoin: miter"/>
   </g>
   <g id="patch_19">
    <path d="M 91.261626 188.638125 
L 93.243156 188.638125 
L 93.243156 187.604945 
L 91.261626 187.604945 
z
" clip-path="url(#p4388c18a1d)" style="fill: #4c72b0; fill-opacity: 0.5; stroke: #4c72b0; stroke-linejoin: miter"/>
   </g>
   <g id="patch_20">
    <path d="M 93.243156 188.638125 
L 95.224687 188.638125 
L 95.224687 187.490299 
L 93.243156 187.490299 
z
" clip-path="url(#p4388c18a1d)" style="fill: #4c72b0; fill-opacity: 0.5; stroke: #4c72b0; stroke-linejoin: miter"/>
   </g>
   <g id="patch_21">
    <path d="M 95.224687 188.638125 
L 97.206218 188.638125 
L 97.206218 187.377018 
L 95.224687 187.377018 
z
" clip-path="url(#p4388c18a1d)" style="fill: #4c72b0; fill-opacity: 0.5; stroke: #4c72b0; stroke-linejoin: miter"/>
   </g>
   <g id="patch_22">
    <path d="M 97.206218 188.638125 
L 99.187768 188.638125 
L 99.187768 187.281493 
L 97.206218 187.281493 
z
" clip-path="url(#p4388c18a1d)" style="fill: #4c72b0; fill-opacity: 0.5; stroke: #4c72b0; stroke-linejoin: miter"/>
   </g>
   <g id="patch_23">
    <path d="M 99.187768 188.638125 
L 101.169299 188.638125 
L 101.169299 187.042633 
L 99.187768 187.042633 
z
" clip-path="url(#p4388c18a1d)" style="fill: #4c72b0; fill-opacity: 0.5; stroke: #4c72b0; stroke-linejoin: miter"/>
   </g>
   <g id="patch_24">
    <path d="M 101.169299 188.638125 
L 103.15083 188.638125 
L 103.15083 186.918433 
L 101.169299 186.918433 
z
" clip-path="url(#p4388c18a1d)" style="fill: #4c72b0; fill-opacity: 0.5; stroke: #4c72b0; stroke-linejoin: miter"/>
   </g>
   <g id="patch_25">
    <path d="M 103.15083 188.638125 
L 105.132361 188.638125 
L 105.132361 186.710978 
L 103.15083 186.710978 
z
" clip-path="url(#p4388c18a1d)" style="fill: #4c72b0; fill-opacity: 0.5; stroke: #4c72b0; stroke-linejoin: miter"/>
   </g>
   <g id="patch_26">
    <path d="M 105.132361 188.638125 
L 107.113891 188.638125 
L 107.113891 186.548563 
L 105.132361 186.548563 
z
" clip-path="url(#p4388c18a1d)" style="fill: #4c72b0; fill-opacity: 0.5; stroke: #4c72b0; stroke-linejoin: miter"/>
   </g>
   <g id="patch_27">
    <path d="M 107.113891 188.638125 
L 109.095422 188.638125 
L 109.095422 186.443471 
L 107.113891 186.443471 
z
" clip-path="url(#p4388c18a1d)" style="fill: #4c72b0; fill-opacity: 0.5; stroke: #4c72b0; stroke-linejoin: miter"/>
   </g>
   <g id="patch_28">
    <path d="M 109.095422 188.638125 
L 111.076953 188.638125 
L 111.076953 186.184152 
L 109.095422 186.184152 
z
" clip-path="url(#p4388c18a1d)" style="fill: #4c72b0; fill-opacity: 0.5; stroke: #4c72b0; stroke-linejoin: miter"/>
   </g>
   <g id="patch_29">
    <path d="M 111.076953 188.638125 
L 113.058504 188.638125 
L 113.058504 185.933049 
L 111.076953 185.933049 
z
" clip-path="url(#p4388c18a1d)" style="fill: #4c72b0; fill-opacity: 0.5; stroke: #4c72b0; stroke-linejoin: miter"/>
   </g>
   <g id="patch_30">
    <path d="M 113.058504 188.638125 
L 115.040034 188.638125 
L 115.040034 185.694176 
L 113.058504 185.694176 
z
" clip-path="url(#p4388c18a1d)" style="fill: #4c72b0; fill-opacity: 0.5; stroke: #4c72b0; stroke-linejoin: miter"/>
   </g>
   <g id="patch_31">
    <path d="M 115.040034 188.638125 
L 117.021565 188.638125 
L 117.021565 185.433493 
L 115.040034 185.433493 
z
" clip-path="url(#p4388c18a1d)" style="fill: #4c72b0; fill-opacity: 0.5; stroke: #4c72b0; stroke-linejoin: miter"/>
   </g>
   <g id="patch_32">
    <path d="M 117.021565 188.638125 
L 119.003096 188.638125 
L 119.003096 185.116851 
L 117.021565 185.116851 
z
" clip-path="url(#p4388c18a1d)" style="fill: #4c72b0; fill-opacity: 0.5; stroke: #4c72b0; stroke-linejoin: miter"/>
   </g>
   <g id="patch_33">
    <path d="M 119.003096 188.638125 
L 120.984627 188.638125 
L 120.984627 184.669185 
L 119.003096 184.669185 
z
" clip-path="url(#p4388c18a1d)" style="fill: #4c72b0; fill-opacity: 0.5; stroke: #4c72b0; stroke-linejoin: miter"/>
   </g>
   <g id="patch_34">
    <path d="M 120.984627 188.638125 
L 122.966177 188.638125 
L 122.966177 184.269332 
L 120.984627 184.269332 
z
" clip-path="url(#p4388c18a1d)" style="fill: #4c72b0; fill-opacity: 0.5; stroke: #4c72b0; stroke-linejoin: miter"/>
   </g>
   <g id="patch_35">
    <path d="M 122.966177 188.638125 
L 124.947708 188.638125 
L 124.947708 183.874851 
L 122.966177 183.874851 
z
" clip-path="url(#p4388c18a1d)" style="fill: #4c72b0; fill-opacity: 0.5; stroke: #4c72b0; stroke-linejoin: miter"/>
   </g>
   <g id="patch_36">
    <path d="M 124.947708 188.638125 
L 126.929239 188.638125 
L 126.929239 183.459942 
L 124.947708 183.459942 
z
" clip-path="url(#p4388c18a1d)" style="fill: #4c72b0; fill-opacity: 0.5; stroke: #4c72b0; stroke-linejoin: miter"/>
   </g>
   <g id="patch_37">
    <path d="M 126.929239 188.638125 
L 128.910769 188.638125 
L 128.910769 182.89763 
L 126.929239 182.89763 
z
" clip-path="url(#p4388c18a1d)" style="fill: #4c72b0; fill-opacity: 0.5; stroke: #4c72b0; stroke-linejoin: miter"/>
   </g>
   <g id="patch_38">
    <path d="M 128.910769 188.638125 
L 130.8923 188.638125 
L 130.8923 182.148335 
L 128.910769 182.148335 
z
" clip-path="url(#p4388c18a1d)" style="fill: #4c72b0; fill-opacity: 0.5; stroke: #4c72b0; stroke-linejoin: miter"/>
   </g>
   <g id="patch_39">
    <path d="M 130.8923 188.638125 
L 132.873831 188.638125 
L 132.873831 181.599672 
L 130.8923 181.599672 
z
" clip-path="url(#p4388c18a1d)" style="fill: #4c72b0; fill-opacity: 0.5; stroke: #4c72b0; stroke-linejoin: miter"/>
   </g>
   <g id="patch_40">
    <path d="M 132.873831 188.638125 
L 134.855362 188.638125 
L 134.855362 180.899512 
L 132.873831 180.899512 
z
" clip-path="url(#p4388c18a1d)" style="fill: #4c72b0; fill-opacity: 0.5; stroke: #4c72b0; stroke-linejoin: miter"/>
   </g>
   <g id="patch_41">
    <path d="M 134.855362 188.638125 
L 136.836912 188.638125 
L 136.836912 180.337283 
L 134.855362 180.337283 
z
" clip-path="url(#p4388c18a1d)" style="fill: #4c72b0; fill-opacity: 0.5; stroke: #4c72b0; stroke-linejoin: miter"/>
   </g>
   <g id="patch_42">
    <path d="M 136.836912 188.638125 
L 138.818443 188.638125 
L 138.818443 179.624756 
L 136.836912 179.624756 
z
" clip-path="url(#p4388c18a1d)" style="fill: #4c72b0; fill-opacity: 0.5; stroke: #4c72b0; stroke-linejoin: miter"/>
   </g>
   <g id="patch_43">
    <path d="M 138.818443 188.638125 
L 140.799974 188.638125 
L 140.799974 178.227165 
L 138.818443 178.227165 
z
" clip-path="url(#p4388c18a1d)" style="fill: #4c72b0; fill-opacity: 0.5; stroke: #4c72b0; stroke-linejoin: miter"/>
   </g>
   <g id="patch_44">
    <path d="M 140.799974 188.638125 
L 142.781505 188.638125 
L 142.781505 177.348211 
L 140.799974 177.348211 
z
" clip-path="url(#p4388c18a1d)" style="fill: #4c72b0; fill-opacity: 0.5; stroke: #4c72b0; stroke-linejoin: miter"/>
   </g>
   <g id="patch_45">
    <path d="M 142.781505 188.638125 
L 144.763055 188.638125 
L 144.763055 176.122715 
L 142.781505 176.122715 
z
" clip-path="url(#p4388c18a1d)" style="fill: #4c72b0; fill-opacity: 0.5; stroke: #4c72b0; stroke-linejoin: miter"/>
   </g>
   <g id="patch_46">
    <path d="M 144.763055 188.638125 
L 146.744586 188.638125 
L 146.744586 174.988412 
L 144.763055 174.988412 
z
" clip-path="url(#p4388c18a1d)" style="fill: #4c72b0; fill-opacity: 0.5; stroke: #4c72b0; stroke-linejoin: miter"/>
   </g>
   <g id="patch_47">
    <path d="M 146.744586 188.638125 
L 148.726107 188.638125 
L 148.726107 173.800931 
L 146.744586 173.800931 
z
" clip-path="url(#p4388c18a1d)" style="fill: #4c72b0; fill-opacity: 0.5; stroke: #4c72b0; stroke-linejoin: miter"/>
   </g>
   <g id="patch_48">
    <path d="M 148.726107 188.638125 
L 150.707647 188.638125 
L 150.707647 172.376199 
L 148.726107 172.376199 
z
" clip-path="url(#p4388c18a1d)" style="fill: #4c72b0; fill-opacity: 0.5; stroke: #4c72b0; stroke-linejoin: miter"/>
   </g>
   <g id="patch_49">
    <path d="M 150.707647 188.638125 
L 152.689178 188.638125 
L 152.689178 170.510389 
L 150.707647 170.510389 
z
" clip-path="url(#p4388c18a1d)" style="fill: #4c72b0; fill-opacity: 0.5; stroke: #4c72b0; stroke-linejoin: miter"/>
   </g>
   <g id="patch_50">
    <path d="M 152.689178 188.638125 
L 154.670709 188.638125 
L 154.670709 169.040462 
L 152.689178 169.040462 
z
" clip-path="url(#p4388c18a1d)" style="fill: #4c72b0; fill-opacity: 0.5; stroke: #4c72b0; stroke-linejoin: miter"/>
   </g>
   <g id="patch_51">
    <path d="M 154.670709 188.638125 
L 156.65225 188.638125 
L 156.65225 166.646652 
L 154.670709 166.646652 
z
" clip-path="url(#p4388c18a1d)" style="fill: #4c72b0; fill-opacity: 0.5; stroke: #4c72b0; stroke-linejoin: miter"/>
   </g>
   <g id="patch_52">
    <path d="M 156.65225 188.638125 
L 158.63378 188.638125 
L 158.63378 164.581546 
L 156.65225 164.581546 
z
" clip-path="url(#p4388c18a1d)" style="fill: #4c72b0; fill-opacity: 0.5; stroke: #4c72b0; stroke-linejoin: miter"/>
   </g>
   <g id="patch_53">
    <path d="M 158.63378 188.638125 
L 160.615321 188.638125 
L 160.615321 161.972116 
L 158.63378 161.972116 
z
" clip-path="url(#p4388c18a1d)" style="fill: #4c72b0; fill-opacity: 0.5; stroke: #4c72b0; stroke-linejoin: miter"/>
   </g>
   <g id="patch_54">
    <path d="M 160.615321 188.638125 
L 162.596852 188.638125 
L 162.596852 159.13722 
L 160.615321 159.13722 
z
" clip-path="url(#p4388c18a1d)" style="fill: #4c72b0; fill-opacity: 0.5; stroke: #4c72b0; stroke-linejoin: miter"/>
   </g>
   <g id="patch_55">
    <path d="M 162.596852 188.638125 
L 164.578383 188.638125 
L 164.578383 156.505819 
L 162.596852 156.505819 
z
" clip-path="url(#p4388c18a1d)" style="fill: #4c72b0; fill-opacity: 0.5; stroke: #4c72b0; stroke-linejoin: miter"/>
   </g>
   <g id="patch_56">
    <path d="M 164.578383 188.638125 
L 166.559923 188.638125 
L 166.559923 153.215379 
L 164.578383 153.215379 
z
" clip-path="url(#p4388c18a1d)" style="fill: #4c72b0; fill-opacity: 0.5; stroke: #4c72b0; stroke-linejoin: miter"/>
   </g>
   <g id="patch_57">
    <path d="M 166.559923 188.638125 
L 168.541454 188.638125 
L 168.541454 149.960071 
L 166.559923 149.960071 
z
" clip-path="url(#p4388c18a1d)" style="fill: #4c72b0; fill-opacity: 0.5; stroke: #4c72b0; stroke-linejoin: miter"/>
   </g>
   <g id="patch_58">
    <path d="M 168.541454 188.638125 
L 170.522985 188.638125 
L 170.522985 145.820527 
L 168.541454 145.820527 
z
" clip-path="url(#p4388c18a1d)" style="fill: #4c72b0; fill-opacity: 0.5; stroke: #4c72b0; stroke-linejoin: miter"/>
   </g>
   <g id="patch_59">
    <path d="M 170.522985 188.638125 
L 172.504525 188.638125 
L 172.504525 141.203528 
L 170.522985 141.203528 
z
" clip-path="url(#p4388c18a1d)" style="fill: #4c72b0; fill-opacity: 0.5; stroke: #4c72b0; stroke-linejoin: miter"/>
   </g>
   <g id="patch_60">
    <path d="M 172.504525 188.638125 
L 174.486056 188.638125 
L 174.486056 137.051463 
L 172.504525 137.051463 
z
" clip-path="url(#p4388c18a1d)" style="fill: #4c72b0; fill-opacity: 0.5; stroke: #4c72b0; stroke-linejoin: miter"/>
   </g>
   <g id="patch_61">
    <path d="M 174.486056 188.638125 
L 176.467587 188.638125 
L 176.467587 132.162625 
L 174.486056 132.162625 
z
" clip-path="url(#p4388c18a1d)" style="fill: #4c72b0; fill-opacity: 0.5; stroke: #4c72b0; stroke-linejoin: miter"/>
   </g>
   <g id="patch_62">
    <path d="M 176.467587 188.638125 
L 178.449128 188.638125 
L 178.449128 125.573518 
L 176.467587 125.573518 
z
" clip-path="url(#p4388c18a1d)" style="fill: #4c72b0; fill-opacity: 0.5; stroke: #4c72b0; stroke-linejoin: miter"/>
   </g>
   <g id="patch_63">
    <path d="M 178.449128 188.638125 
L 180.430658 188.638125 
L 180.430658 120.22305 
L 178.449128 120.22305 
z
" clip-path="url(#p4388c18a1d)" style="fill: #4c72b0; fill-opacity: 0.5; stroke: #4c72b0; stroke-linejoin: miter"/>
   </g>
   <g id="patch_64">
    <path d="M 180.430658 188.638125 
L 182.412189 188.638125 
L 182.412189 113.509427 
L 180.430658 113.509427 
z
" clip-path="url(#p4388c18a1d)" style="fill: #4c72b0; fill-opacity: 0.5; stroke: #4c72b0; stroke-linejoin: miter"/>
   </g>
   <g id="patch_65">
    <path d="M 182.412189 188.638125 
L 184.39373 188.638125 
L 184.39373 105.393171 
L 182.412189 105.393171 
z
" clip-path="url(#p4388c18a1d)" style="fill: #4c72b0; fill-opacity: 0.5; stroke: #4c72b0; stroke-linejoin: miter"/>
   </g>
   <g id="patch_66">
    <path d="M 184.39373 188.638125 
L 186.375261 188.638125 
L 186.375261 97.854772 
L 184.39373 97.854772 
z
" clip-path="url(#p4388c18a1d)" style="fill: #4c72b0; fill-opacity: 0.5; stroke: #4c72b0; stroke-linejoin: miter"/>
   </g>
   <g id="patch_67">
    <path d="M 186.375261 188.638125 
L 188.356791 188.638125 
L 188.356791 88.051163 
L 186.375261 88.051163 
z
" clip-path="url(#p4388c18a1d)" style="fill: #4c72b0; fill-opacity: 0.5; stroke: #4c72b0; stroke-linejoin: miter"/>
   </g>
   <g id="patch_68">
    <path d="M 188.356791 188.638125 
L 190.338332 188.638125 
L 190.338332 78.642543 
L 188.356791 78.642543 
z
" clip-path="url(#p4388c18a1d)" style="fill: #4c72b0; fill-opacity: 0.5; stroke: #4c72b0; stroke-linejoin: miter"/>
   </g>
   <g id="patch_69">
    <path d="M 190.338332 188.638125 
L 192.319863 188.638125 
L 192.319863 67.350714 
L 190.338332 67.350714 
z
" clip-path="url(#p4388c18a1d)" style="fill: #4c72b0; fill-opacity: 0.5; stroke: #4c72b0; stroke-linejoin: miter"/>
   </g>
   <g id="patch_70">
    <path d="M 192.319863 188.638125 
L 194.301394 188.638125 
L 194.301394 55.341532 
L 192.319863 55.341532 
z
" clip-path="url(#p4388c18a1d)" style="fill: #4c72b0; fill-opacity: 0.5; stroke: #4c72b0; stroke-linejoin: miter"/>
   </g>
   <g id="patch_71">
    <path d="M 194.301394 188.638125 
L 196.282934 188.638125 
L 196.282934 42.481425 
L 194.301394 42.481425 
z
" clip-path="url(#p4388c18a1d)" style="fill: #4c72b0; fill-opacity: 0.5; stroke: #4c72b0; stroke-linejoin: miter"/>
   </g>
   <g id="patch_72">
    <path d="M 196.282934 188.638125 
L 198.264465 188.638125 
L 198.264465 30.238125 
L 196.282934 30.238125 
z
" clip-path="url(#p4388c18a1d)" style="fill: #4c72b0; fill-opacity: 0.5; stroke: #4c72b0; stroke-linejoin: miter"/>
   </g>
   <g id="patch_73">
    <path d="M 198.264465 188.638125 
L 200.245996 188.638125 
L 200.245996 188.538492 
L 198.264465 188.538492 
z
" clip-path="url(#p4388c18a1d)" style="fill: #4c72b0; fill-opacity: 0.5; stroke: #4c72b0; stroke-linejoin: miter"/>
   </g>
   <g id="patch_74">
    <path d="M 200.245996 188.638125 
L 202.227536 188.638125 
L 202.227536 188.549411 
L 200.245996 188.549411 
z
" clip-path="url(#p4388c18a1d)" style="fill: #4c72b0; fill-opacity: 0.5; stroke: #4c72b0; stroke-linejoin: miter"/>
   </g>
   <g id="patch_75">
    <path d="M 202.227536 188.638125 
L 204.209067 188.638125 
L 204.209067 188.553505 
L 202.227536 188.553505 
z
" clip-path="url(#p4388c18a1d)" style="fill: #4c72b0; fill-opacity: 0.5; stroke: #4c72b0; stroke-linejoin: miter"/>
   </g>
   <g id="patch_76">
    <path d="M 204.209067 188.638125 
L 206.190598 188.638125 
L 206.190598 188.549411 
L 204.209067 188.549411 
z
" clip-path="url(#p4388c18a1d)" style="fill: #4c72b0; fill-opacity: 0.5; stroke: #4c72b0; stroke-linejoin: miter"/>
   </g>
   <g id="patch_77">
    <path d="M 206.190598 188.638125 
L 208.172139 188.638125 
L 208.172139 188.523479 
L 206.190598 188.523479 
z
" clip-path="url(#p4388c18a1d)" style="fill: #4c72b0; fill-opacity: 0.5; stroke: #4c72b0; stroke-linejoin: miter"/>
   </g>
   <g id="patch_78">
    <path d="M 208.172139 188.638125 
L 210.153669 188.638125 
L 210.153669 188.522114 
L 208.172139 188.522114 
z
" clip-path="url(#p4388c18a1d)" style="fill: #4c72b0; fill-opacity: 0.5; stroke: #4c72b0; stroke-linejoin: miter"/>
   </g>
   <g id="patch_79">
    <path d="M 210.153669 188.638125 
L 212.1352 188.638125 
L 212.1352 188.479804 
L 210.153669 188.479804 
z
" clip-path="url(#p4388c18a1d)" style="fill: #4c72b0; fill-opacity: 0.5; stroke: #4c72b0; stroke-linejoin: miter"/>
   </g>
   <g id="patch_80">
    <path d="M 212.1352 188.638125 
L 214.116741 188.638125 
L 214.116741 188.358335 
L 212.1352 188.358335 
z
" clip-path="url(#p4388c18a1d)" style="fill: #4c72b0; fill-opacity: 0.5; stroke: #4c72b0; stroke-linejoin: miter"/>
   </g>
   <g id="patch_81">
    <path d="M 214.116741 188.638125 
L 216.098272 188.638125 
L 216.098272 188.261431 
L 214.116741 188.261431 
z
" clip-path="url(#p4388c18a1d)" style="fill: #4c72b0; fill-opacity: 0.5; stroke: #4c72b0; stroke-linejoin: miter"/>
   </g>
   <g id="patch_82">
    <path d="M 216.098272 188.638125 
L 218.079812 188.638125 
L 218.079812 188.24369 
L 216.098272 188.24369 
z
" clip-path="url(#p4388c18a1d)" style="fill: #4c72b0; fill-opacity: 0.5; stroke: #4c72b0; stroke-linejoin: miter"/>
   </g>
   <g id="patch_83">
    <path d="M 218.079812 188.638125 
L 220.061343 188.638125 
L 220.061343 188.231404 
L 218.079812 188.231404 
z
" clip-path="url(#p4388c18a1d)" style="fill: #4c72b0; fill-opacity: 0.5; stroke: #4c72b0; stroke-linejoin: miter"/>
   </g>
   <g id="patch_84">
    <path d="M 220.061343 188.638125 
L 222.042874 188.638125 
L 222.042874 188.172716 
L 220.061343 188.172716 
z
" clip-path="url(#p4388c18a1d)" style="fill: #4c72b0; fill-opacity: 0.5; stroke: #4c72b0; stroke-linejoin: miter"/>
   </g>
   <g id="patch_85">
    <path d="M 222.042874 188.638125 
L 224.024414 188.638125 
L 224.024414 188.19865 
L 222.042874 188.19865 
z
" clip-path="url(#p4388c18a1d)" style="fill: #4c72b0; fill-opacity: 0.5; stroke: #4c72b0; stroke-linejoin: miter"/>
   </g>
   <g id="patch_86">
    <path d="M 224.024414 188.638125 
L 226.005935 188.638125 
L 226.005935 188.186362 
L 224.024414 188.186362 
z
" clip-path="url(#p4388c18a1d)" style="fill: #4c72b0; fill-opacity: 0.5; stroke: #4c72b0; stroke-linejoin: miter"/>
   </g>
   <g id="patch_87">
    <path d="M 226.005935 188.638125 
L 227.987486 188.638125 
L 227.987486 188.082643 
L 226.005935 188.082643 
z
" clip-path="url(#p4388c18a1d)" style="fill: #4c72b0; fill-opacity: 0.5; stroke: #4c72b0; stroke-linejoin: miter"/>
   </g>
   <g id="patch_88">
    <path d="M 227.987486 188.638125 
L 229.969017 188.638125 
L 229.969017 187.913398 
L 227.987486 187.913398 
z
" clip-path="url(#p4388c18a1d)" style="fill: #4c72b0; fill-opacity: 0.5; stroke: #4c72b0; stroke-linejoin: miter"/>
   </g>
   <g id="patch_89">
    <path d="M 229.969017 188.638125 
L 231.950547 188.638125 
L 231.950547 187.910668 
L 229.969017 187.910668 
z
" clip-path="url(#p4388c18a1d)" style="fill: #4c72b0; fill-opacity: 0.5; stroke: #4c72b0; stroke-linejoin: miter"/>
   </g>
   <g id="patch_90">
    <path d="M 231.950547 188.638125 
L 233.932078 188.638125 
L 233.932078 187.952978 
L 231.950547 187.952978 
z
" clip-path="url(#p4388c18a1d)" style="fill: #4c72b0; fill-opacity: 0.5; stroke: #4c72b0; stroke-linejoin: miter"/>
   </g>
   <g id="patch_91">
    <path d="M 233.932078 188.638125 
L 235.913609 188.638125 
L 235.913609 187.865628 
L 233.932078 187.865628 
z
" clip-path="url(#p4388c18a1d)" style="fill: #4c72b0; fill-opacity: 0.5; stroke: #4c72b0; stroke-linejoin: miter"/>
   </g>
   <g id="patch_92">
    <path d="M 235.913609 188.638125 
L 237.89514 188.638125 
L 237.89514 187.417963 
L 235.913609 187.417963 
z
" clip-path="url(#p4388c18a1d)" style="fill: #4c72b0; fill-opacity: 0.5; stroke: #4c72b0; stroke-linejoin: miter"/>
   </g>
   <g id="patch_93">
    <path d="M 237.89514 188.638125 
L 239.87669 188.638125 
L 239.87669 187.434353 
L 237.89514 187.434353 
z
" clip-path="url(#p4388c18a1d)" style="fill: #4c72b0; fill-opacity: 0.5; stroke: #4c72b0; stroke-linejoin: miter"/>
   </g>
   <g id="patch_94">
    <path d="M 239.87669 188.638125 
L 241.858221 188.638125 
L 241.858221 187.508042 
L 239.87669 187.508042 
z
" clip-path="url(#p4388c18a1d)" style="fill: #4c72b0; fill-opacity: 0.5; stroke: #4c72b0; stroke-linejoin: miter"/>
   </g>
   <g id="patch_95">
    <path d="M 241.858221 188.638125 
L 243.839752 188.638125 
L 243.839752 187.426152 
L 241.858221 187.426152 
z
" clip-path="url(#p4388c18a1d)" style="fill: #4c72b0; fill-opacity: 0.5; stroke: #4c72b0; stroke-linejoin: miter"/>
   </g>
   <g id="patch_96">
    <path d="M 243.839752 188.638125 
L 245.821283 188.638125 
L 245.821283 187.114969 
L 243.839752 187.114969 
z
" clip-path="url(#p4388c18a1d)" style="fill: #4c72b0; fill-opacity: 0.5; stroke: #4c72b0; stroke-linejoin: miter"/>
   </g>
   <g id="patch_97">
    <path d="M 245.821283 188.638125 
L 247.802813 188.638125 
L 247.802813 186.888407 
L 245.821283 186.888407 
z
" clip-path="url(#p4388c18a1d)" style="fill: #4c72b0; fill-opacity: 0.5; stroke: #4c72b0; stroke-linejoin: miter"/>
   </g>
   <g id="patch_98">
    <path d="M 247.802813 188.638125 
L 249.784344 188.638125 
L 249.784344 186.796963 
L 247.802813 186.796963 
z
" clip-path="url(#p4388c18a1d)" style="fill: #4c72b0; fill-opacity: 0.5; stroke: #4c72b0; stroke-linejoin: miter"/>
   </g>
   <g id="patch_99">
    <path d="M 249.784344 188.638125 
L 251.765895 188.638125 
L 251.765895 186.945747 
L 249.784344 186.945747 
z
" clip-path="url(#p4388c18a1d)" style="fill: #4c72b0; fill-opacity: 0.5; stroke: #4c72b0; stroke-linejoin: miter"/>
   </g>
   <g id="patch_100">
    <path d="M 251.765895 188.638125 
L 253.747425 188.638125 
L 253.747425 186.704154 
L 251.765895 186.704154 
z
" clip-path="url(#p4388c18a1d)" style="fill: #4c72b0; fill-opacity: 0.5; stroke: #4c72b0; stroke-linejoin: miter"/>
   </g>
   <g id="patch_101">
    <path d="M 253.747425 188.638125 
L 255.728956 188.638125 
L 255.728956 186.760112 
L 253.747425 186.760112 
z
" clip-path="url(#p4388c18a1d)" style="fill: #4c72b0; fill-opacity: 0.5; stroke: #4c72b0; stroke-linejoin: miter"/>
   </g>
   <g id="patch_102">
    <path d="M 255.728956 188.638125 
L 257.710487 188.638125 
L 257.710487 186.780585 
L 255.728956 186.780585 
z
" clip-path="url(#p4388c18a1d)" style="fill: #4c72b0; fill-opacity: 0.5; stroke: #4c72b0; stroke-linejoin: miter"/>
   </g>
   <g id="patch_103">
    <path d="M 257.710487 188.638125 
L 259.692018 188.638125 
L 259.692018 186.724627 
L 257.710487 186.724627 
z
" clip-path="url(#p4388c18a1d)" style="fill: #4c72b0; fill-opacity: 0.5; stroke: #4c72b0; stroke-linejoin: miter"/>
   </g>
   <g id="patch_104">
    <path d="M 259.692018 188.638125 
L 261.673568 188.638125 
L 261.673568 186.240134 
L 259.692018 186.240134 
z
" clip-path="url(#p4388c18a1d)" style="fill: #4c72b0; fill-opacity: 0.5; stroke: #4c72b0; stroke-linejoin: miter"/>
   </g>
   <g id="patch_105">
    <path d="M 261.673568 188.638125 
L 263.655099 188.638125 
L 263.655099 185.964414 
L 261.673568 185.964414 
z
" clip-path="url(#p4388c18a1d)" style="fill: #4c72b0; fill-opacity: 0.5; stroke: #4c72b0; stroke-linejoin: miter"/>
   </g>
   <g id="patch_106">
    <path d="M 263.655099 188.638125 
L 265.63663 188.638125 
L 265.63663 185.894807 
L 263.655099 185.894807 
z
" clip-path="url(#p4388c18a1d)" style="fill: #4c72b0; fill-opacity: 0.5; stroke: #4c72b0; stroke-linejoin: miter"/>
   </g>
   <g id="patch_107">
    <path d="M 265.63663 188.638125 
L 267.618161 188.638125 
L 267.618161 186.266042 
L 265.63663 186.266042 
z
" clip-path="url(#p4388c18a1d)" style="fill: #4c72b0; fill-opacity: 0.5; stroke: #4c72b0; stroke-linejoin: miter"/>
   </g>
   <g id="patch_108">
    <path d="M 267.618161 188.638125 
L 269.599691 188.638125 
L 269.599691 186.210084 
L 267.618161 186.210084 
z
" clip-path="url(#p4388c18a1d)" style="fill: #4c72b0; fill-opacity: 0.5; stroke: #4c72b0; stroke-linejoin: miter"/>
   </g>
   <g id="patch_109">
    <path d="M 269.599691 188.638125 
L 271.581222 188.638125 
L 271.581222 185.149607 
L 269.599691 185.149607 
z
" clip-path="url(#p4388c18a1d)" style="fill: #4c72b0; fill-opacity: 0.5; stroke: #4c72b0; stroke-linejoin: miter"/>
   </g>
   <g id="patch_110">
    <path d="M 271.581222 188.638125 
L 273.562773 188.638125 
L 273.562773 185.127805 
L 271.581222 185.127805 
z
" clip-path="url(#p4388c18a1d)" style="fill: #4c72b0; fill-opacity: 0.5; stroke: #4c72b0; stroke-linejoin: miter"/>
   </g>
   <g id="patch_111">
    <path d="M 273.562773 188.638125 
L 275.544303 188.638125 
L 275.544303 186.219638 
L 273.562773 186.219638 
z
" clip-path="url(#p4388c18a1d)" style="fill: #4c72b0; fill-opacity: 0.5; stroke: #4c72b0; stroke-linejoin: miter"/>
   </g>
   <g id="patch_112">
    <path d="M 275.544303 188.638125 
L 277.525834 188.638125 
L 277.525834 185.103203 
L 275.544303 185.103203 
z
" clip-path="url(#p4388c18a1d)" style="fill: #4c72b0; fill-opacity: 0.5; stroke: #4c72b0; stroke-linejoin: miter"/>
   </g>
   <g id="patch_113">
    <path d="M 277.525834 188.638125 
L 279.507365 188.638125 
L 279.507365 185.398007 
L 277.525834 185.398007 
z
" clip-path="url(#p4388c18a1d)" style="fill: #4c72b0; fill-opacity: 0.5; stroke: #4c72b0; stroke-linejoin: miter"/>
   </g>
   <g id="patch_114">
    <path d="M 279.507365 188.638125 
L 281.488896 188.638125 
L 281.488896 185.086825 
L 279.507365 185.086825 
z
" clip-path="url(#p4388c18a1d)" style="fill: #4c72b0; fill-opacity: 0.5; stroke: #4c72b0; stroke-linejoin: miter"/>
   </g>
   <g id="patch_115">
    <path d="M 281.488896 188.638125 
L 283.470427 188.638125 
L 283.470427 185.276537 
L 281.488896 185.276537 
z
" clip-path="url(#p4388c18a1d)" style="fill: #4c72b0; fill-opacity: 0.5; stroke: #4c72b0; stroke-linejoin: miter"/>
   </g>
   <g id="patch_116">
    <path d="M 283.470427 188.638125 
L 285.451977 188.638125 
L 285.451977 184.875313 
L 283.470427 184.875313 
z
" clip-path="url(#p4388c18a1d)" style="fill: #4c72b0; fill-opacity: 0.5; stroke: #4c72b0; stroke-linejoin: miter"/>
   </g>
   <g id="patch_117">
    <path d="M 285.451977 188.638125 
L 287.433508 188.638125 
L 287.433508 185.051339 
L 285.451977 185.051339 
z
" clip-path="url(#p4388c18a1d)" style="fill: #4c72b0; fill-opacity: 0.5; stroke: #4c72b0; stroke-linejoin: miter"/>
   </g>
   <g id="patch_118">
    <path d="M 287.433508 188.638125 
L 289.415039 188.638125 
L 289.415039 184.898478 
L 287.433508 184.898478 
z
" clip-path="url(#p4388c18a1d)" style="fill: #4c72b0; fill-opacity: 0.5; stroke: #4c72b0; stroke-linejoin: miter"/>
   </g>
   <g id="patch_119">
    <path d="M 289.415039 188.638125 
L 291.396569 188.638125 
L 291.396569 183.212907 
L 289.415039 183.212907 
z
" clip-path="url(#p4388c18a1d)" style="fill: #4c72b0; fill-opacity: 0.5; stroke: #4c72b0; stroke-linejoin: miter"/>
   </g>
   <g id="patch_120">
    <path d="M 291.396569 188.638125 
L 293.3781 188.638125 
L 293.3781 184.689658 
L 291.396569 184.689658 
z
" clip-path="url(#p4388c18a1d)" style="fill: #4c72b0; fill-opacity: 0.5; stroke: #4c72b0; stroke-linejoin: miter"/>
   </g>
   <g id="patch_121">
    <path d="M 293.3781 188.638125 
L 295.359631 188.638125 
L 295.359631 184.407137 
L 293.3781 184.407137 
z
" clip-path="url(#p4388c18a1d)" style="fill: #4c72b0; fill-opacity: 0.5; stroke: #4c72b0; stroke-linejoin: miter"/>
   </g>
   <g id="patch_122">
    <path d="M 295.359631 188.638125 
L 297.341182 188.638125 
L 297.341182 184.153323 
L 295.359631 184.153323 
z
" clip-path="url(#p4388c18a1d)" style="fill: #4c72b0; fill-opacity: 0.5; stroke: #4c72b0; stroke-linejoin: miter"/>
   </g>
   <g id="patch_123">
    <path d="M 297.341182 188.638125 
L 299.322712 188.638125 
L 299.322712 183.323458 
L 297.341182 183.323458 
z
" clip-path="url(#p4388c18a1d)" style="fill: #4c72b0; fill-opacity: 0.5; stroke: #4c72b0; stroke-linejoin: miter"/>
   </g>
   <g id="patch_124">
    <path d="M 299.322712 188.638125 
L 301.304243 188.638125 
L 301.304243 184.254276 
L 299.322712 184.254276 
z
" clip-path="url(#p4388c18a1d)" style="fill: #4c72b0; fill-opacity: 0.5; stroke: #4c72b0; stroke-linejoin: miter"/>
   </g>
   <g id="patch_125">
    <path d="M 301.304243 188.638125 
L 303.285774 188.638125 
L 303.285774 183.902148 
L 301.304243 183.902148 
z
" clip-path="url(#p4388c18a1d)" style="fill: #4c72b0; fill-opacity: 0.5; stroke: #4c72b0; stroke-linejoin: miter"/>
   </g>
   <g id="patch_126">
    <path d="M 303.285774 188.638125 
L 305.267305 188.638125 
L 305.267305 184.140994 
L 303.285774 184.140994 
z
" clip-path="url(#p4388c18a1d)" style="fill: #4c72b0; fill-opacity: 0.5; stroke: #4c72b0; stroke-linejoin: miter"/>
   </g>
   <g id="patch_127">
    <path d="M 305.267305 188.638125 
L 307.248835 188.638125 
L 307.248835 183.997687 
L 305.267305 183.997687 
z
" clip-path="url(#p4388c18a1d)" style="fill: #4c72b0; fill-opacity: 0.5; stroke: #4c72b0; stroke-linejoin: miter"/>
   </g>
   <g id="patch_128">
    <path d="M 307.248835 188.638125 
L 309.230386 188.638125 
L 309.230386 183.416319 
L 307.248835 183.416319 
z
" clip-path="url(#p4388c18a1d)" style="fill: #4c72b0; fill-opacity: 0.5; stroke: #4c72b0; stroke-linejoin: miter"/>
   </g>
   <g id="patch_129">
    <path d="M 309.230386 188.638125 
L 311.211917 188.638125 
L 311.211917 183.794326 
L 309.230386 183.794326 
z
" clip-path="url(#p4388c18a1d)" style="fill: #4c72b0; fill-opacity: 0.5; stroke: #4c72b0; stroke-linejoin: miter"/>
   </g>
   <g id="patch_130">
    <path d="M 311.211917 188.638125 
L 313.193447 188.638125 
L 313.193447 183.817528 
L 311.211917 183.817528 
z
" clip-path="url(#p4388c18a1d)" style="fill: #4c72b0; fill-opacity: 0.5; stroke: #4c72b0; stroke-linejoin: miter"/>
   </g>
   <g id="patch_131">
    <path d="M 313.193447 188.638125 
L 315.174978 188.638125 
L 315.174978 180.948646 
L 313.193447 180.948646 
z
" clip-path="url(#p4388c18a1d)" style="fill: #4c72b0; fill-opacity: 0.5; stroke: #4c72b0; stroke-linejoin: miter"/>
   </g>
   <g id="patch_132">
    <path d="M 315.174978 188.638125 
L 317.156509 188.638125 
L 317.156509 183.735638 
L 315.174978 183.735638 
z
" clip-path="url(#p4388c18a1d)" style="fill: #4c72b0; fill-opacity: 0.5; stroke: #4c72b0; stroke-linejoin: miter"/>
   </g>
   <g id="patch_133">
    <path d="M 317.156509 188.638125 
L 319.13806 188.638125 
L 319.13806 183.495479 
L 317.156509 183.495479 
z
" clip-path="url(#p4388c18a1d)" style="fill: #4c72b0; fill-opacity: 0.5; stroke: #4c72b0; stroke-linejoin: miter"/>
   </g>
   <g id="patch_134">
    <path d="M 319.13806 188.638125 
L 321.11959 188.638125 
L 321.11959 183.495427 
L 319.13806 183.495427 
z
" clip-path="url(#p4388c18a1d)" style="fill: #4c72b0; fill-opacity: 0.5; stroke: #4c72b0; stroke-linejoin: miter"/>
   </g>
   <g id="patch_135">
    <path d="M 321.11959 188.638125 
L 323.101121 188.638125 
L 323.101121 184.130076 
L 321.11959 184.130076 
z
" clip-path="url(#p4388c18a1d)" style="fill: #4c72b0; fill-opacity: 0.5; stroke: #4c72b0; stroke-linejoin: miter"/>
   </g>
   <g id="patch_136">
    <path d="M 323.101121 188.638125 
L 325.082652 188.638125 
L 325.082652 184.34299 
L 323.101121 184.34299 
z
" clip-path="url(#p4388c18a1d)" style="fill: #4c72b0; fill-opacity: 0.5; stroke: #4c72b0; stroke-linejoin: miter"/>
   </g>
   <g id="patch_137">
    <path d="M 325.082652 188.638125 
L 327.064183 188.638125 
L 327.064183 184.278843 
L 325.082652 184.278843 
z
" clip-path="url(#p4388c18a1d)" style="fill: #4c72b0; fill-opacity: 0.5; stroke: #4c72b0; stroke-linejoin: miter"/>
   </g>
   <g id="patch_138">
    <path d="M 327.064183 188.638125 
L 329.045713 188.638125 
L 329.045713 182.732485 
L 327.064183 182.732485 
z
" clip-path="url(#p4388c18a1d)" style="fill: #4c72b0; fill-opacity: 0.5; stroke: #4c72b0; stroke-linejoin: miter"/>
   </g>
   <g id="patch_139">
    <path d="M 329.045713 188.638125 
L 331.027264 188.638125 
L 331.027264 184.284345 
L 329.045713 184.284345 
z
" clip-path="url(#p4388c18a1d)" style="fill: #4c72b0; fill-opacity: 0.5; stroke: #4c72b0; stroke-linejoin: miter"/>
   </g>
   <g id="patch_140">
    <path d="M 331.027264 188.638125 
L 333.008795 188.638125 
L 333.008795 184.124616 
L 331.027264 184.124616 
z
" clip-path="url(#p4388c18a1d)" style="fill: #4c72b0; fill-opacity: 0.5; stroke: #4c72b0; stroke-linejoin: miter"/>
   </g>
   <g id="patch_141">
    <path d="M 333.008795 188.638125 
L 334.990325 188.638125 
L 334.990325 185.103203 
L 333.008795 185.103203 
z
" clip-path="url(#p4388c18a1d)" style="fill: #4c72b0; fill-opacity: 0.5; stroke: #4c72b0; stroke-linejoin: miter"/>
   </g>
   <g id="patch_142">
    <path d="M 334.990325 188.638125 
L 336.971856 188.638125 
L 336.971856 182.714742 
L 334.990325 182.714742 
z
" clip-path="url(#p4388c18a1d)" style="fill: #4c72b0; fill-opacity: 0.5; stroke: #4c72b0; stroke-linejoin: miter"/>
   </g>
   <g id="patch_143">
    <path d="M 336.971856 188.638125 
L 338.953387 188.638125 
L 338.953387 184.21606 
L 336.971856 184.21606 
z
" clip-path="url(#p4388c18a1d)" style="fill: #4c72b0; fill-opacity: 0.5; stroke: #4c72b0; stroke-linejoin: miter"/>
   </g>
   <g id="patch_144">
    <path d="M 338.953387 188.638125 
L 340.934918 188.638125 
L 340.934918 184.711495 
L 338.953387 184.711495 
z
" clip-path="url(#p4388c18a1d)" style="fill: #4c72b0; fill-opacity: 0.5; stroke: #4c72b0; stroke-linejoin: miter"/>
   </g>
   <g id="patch_145">
    <path d="M 340.934918 188.638125 
L 342.916468 188.638125 
L 342.916468 185.137359 
L 340.934918 185.137359 
z
" clip-path="url(#p4388c18a1d)" style="fill: #4c72b0; fill-opacity: 0.5; stroke: #4c72b0; stroke-linejoin: miter"/>
   </g>
   <g id="patch_146">
    <path d="M 342.916468 188.638125 
L 344.897999 188.638125 
L 344.897999 185.276537 
L 342.916468 185.276537 
z
" clip-path="url(#p4388c18a1d)" style="fill: #4c72b0; fill-opacity: 0.5; stroke: #4c72b0; stroke-linejoin: miter"/>
   </g>
   <g id="patch_147">
    <path d="M 344.897999 188.638125 
L 346.87953 188.638125 
L 346.87953 184.890289 
L 344.897999 184.890289 
z
" clip-path="url(#p4388c18a1d)" style="fill: #4c72b0; fill-opacity: 0.5; stroke: #4c72b0; stroke-linejoin: miter"/>
   </g>
   <g id="patch_148">
    <path d="M 346.87953 188.638125 
L 348.861061 188.638125 
L 348.861061 184.714225 
L 346.87953 184.714225 
z
" clip-path="url(#p4388c18a1d)" style="fill: #4c72b0; fill-opacity: 0.5; stroke: #4c72b0; stroke-linejoin: miter"/>
   </g>
   <g id="patch_149">
    <path d="M 348.861061 188.638125 
L 350.842591 188.638125 
L 350.842591 185.449871 
L 348.861061 185.449871 
z
" clip-path="url(#p4388c18a1d)" style="fill: #4c72b0; fill-opacity: 0.5; stroke: #4c72b0; stroke-linejoin: miter"/>
   </g>
   <g id="patch_150">
    <path d="M 350.842591 188.638125 
L 352.824122 188.638125 
L 352.824122 185.550869 
L 350.842591 185.550869 
z
" clip-path="url(#p4388c18a1d)" style="fill: #4c72b0; fill-opacity: 0.5; stroke: #4c72b0; stroke-linejoin: miter"/>
   </g>
   <g id="patch_151">
    <path d="M 352.824122 188.638125 
L 354.805673 188.638125 
L 354.805673 185.54817 
L 352.824122 185.54817 
z
" clip-path="url(#p4388c18a1d)" style="fill: #4c72b0; fill-opacity: 0.5; stroke: #4c72b0; stroke-linejoin: miter"/>
   </g>
   <g id="patch_152">
    <path d="M 354.805673 188.638125 
L 356.787203 188.638125 
L 356.787203 185.039056 
L 354.805673 185.039056 
z
" clip-path="url(#p4388c18a1d)" style="fill: #4c72b0; fill-opacity: 0.5; stroke: #4c72b0; stroke-linejoin: miter"/>
   </g>
   <g id="patch_153">
    <path d="M 356.787203 188.638125 
L 358.768734 188.638125 
L 358.768734 186.032655 
L 356.787203 186.032655 
z
" clip-path="url(#p4388c18a1d)" style="fill: #4c72b0; fill-opacity: 0.5; stroke: #4c72b0; stroke-linejoin: miter"/>
   </g>
   <g id="patch_154">
    <path d="M 358.768734 188.638125 
L 360.750265 188.638125 
L 360.750265 185.967143 
L 358.768734 185.967143 
z
" clip-path="url(#p4388c18a1d)" style="fill: #4c72b0; fill-opacity: 0.5; stroke: #4c72b0; stroke-linejoin: miter"/>
   </g>
   <g id="patch_155">
    <path d="M 360.750265 188.638125 
L 362.731796 188.638125 
L 362.731796 185.586354 
L 360.750265 185.586354 
z
" clip-path="url(#p4388c18a1d)" style="fill: #4c72b0; fill-opacity: 0.5; stroke: #4c72b0; stroke-linejoin: miter"/>
   </g>
   <g id="patch_156">
    <path d="M 362.731796 188.638125 
L 364.713326 188.638125 
L 364.713326 186.357486 
L 362.731796 186.357486 
z
" clip-path="url(#p4388c18a1d)" style="fill: #4c72b0; fill-opacity: 0.5; stroke: #4c72b0; stroke-linejoin: miter"/>
   </g>
   <g id="patch_157">
    <path d="M 364.713326 188.638125 
L 366.694877 188.638125 
L 366.694877 185.859349 
L 364.713326 185.859349 
z
" clip-path="url(#p4388c18a1d)" style="fill: #4c72b0; fill-opacity: 0.5; stroke: #4c72b0; stroke-linejoin: miter"/>
   </g>
   <g id="patch_158">
    <path d="M 366.694877 188.638125 
L 368.676408 188.638125 
L 368.676408 186.732816 
L 366.694877 186.732816 
z
" clip-path="url(#p4388c18a1d)" style="fill: #4c72b0; fill-opacity: 0.5; stroke: #4c72b0; stroke-linejoin: miter"/>
   </g>
   <g id="patch_159">
    <path d="M 368.676408 188.638125 
L 370.657939 188.638125 
L 370.657939 186.588143 
L 368.676408 186.588143 
z
" clip-path="url(#p4388c18a1d)" style="fill: #4c72b0; fill-opacity: 0.5; stroke: #4c72b0; stroke-linejoin: miter"/>
   </g>
   <g id="patch_160">
    <path d="M 370.657939 188.638125 
L 372.639469 188.638125 
L 372.639469 186.571765 
L 370.657939 186.571765 
z
" clip-path="url(#p4388c18a1d)" style="fill: #4c72b0; fill-opacity: 0.5; stroke: #4c72b0; stroke-linejoin: miter"/>
   </g>
   <g id="patch_161">
    <path d="M 372.639469 188.638125 
L 374.621 188.638125 
L 374.621 186.691871 
L 372.639469 186.691871 
z
" clip-path="url(#p4388c18a1d)" style="fill: #4c72b0; fill-opacity: 0.5; stroke: #4c72b0; stroke-linejoin: miter"/>
   </g>
   <g id="patch_162">
    <path d="M 374.621 188.638125 
L 376.602551 188.638125 
L 376.602551 186.885695 
L 374.621 186.885695 
z
" clip-path="url(#p4388c18a1d)" style="fill: #4c72b0; fill-opacity: 0.5; stroke: #4c72b0; stroke-linejoin: miter"/>
   </g>
   <g id="patch_163">
    <path d="M 376.602551 188.638125 
L 378.584081 188.638125 
L 378.584081 187.016701 
L 376.602551 187.016701 
z
" clip-path="url(#p4388c18a1d)" style="fill: #4c72b0; fill-opacity: 0.5; stroke: #4c72b0; stroke-linejoin: miter"/>
   </g>
   <g id="patch_164">
    <path d="M 378.584081 188.638125 
L 380.565612 188.638125 
L 380.565612 187.043998 
L 378.584081 187.043998 
z
" clip-path="url(#p4388c18a1d)" style="fill: #4c72b0; fill-opacity: 0.5; stroke: #4c72b0; stroke-linejoin: miter"/>
   </g>
   <g id="patch_165">
    <path d="M 380.565612 188.638125 
L 382.547143 188.638125 
L 382.547143 187.506677 
L 380.565612 187.506677 
z
" clip-path="url(#p4388c18a1d)" style="fill: #4c72b0; fill-opacity: 0.5; stroke: #4c72b0; stroke-linejoin: miter"/>
   </g>
   <g id="patch_166">
    <path d="M 382.547143 188.638125 
L 384.528674 188.638125 
L 384.528674 187.211873 
L 382.547143 187.211873 
z
" clip-path="url(#p4388c18a1d)" style="fill: #4c72b0; fill-opacity: 0.5; stroke: #4c72b0; stroke-linejoin: miter"/>
   </g>
   <g id="patch_167">
    <path d="M 384.528674 188.638125 
L 386.510205 188.638125 
L 386.510205 187.407044 
L 384.528674 187.407044 
z
" clip-path="url(#p4388c18a1d)" style="fill: #4c72b0; fill-opacity: 0.5; stroke: #4c72b0; stroke-linejoin: miter"/>
   </g>
   <g id="patch_168">
    <path d="M 386.510205 188.638125 
L 388.491755 188.638125 
L 388.491755 187.531255 
L 386.510205 187.531255 
z
" clip-path="url(#p4388c18a1d)" style="fill: #4c72b0; fill-opacity: 0.5; stroke: #4c72b0; stroke-linejoin: miter"/>
   </g>
   <g id="patch_169">
    <path d="M 388.491755 188.638125 
L 390.473286 188.638125 
L 390.473286 187.550352 
L 388.491755 187.550352 
z
" clip-path="url(#p4388c18a1d)" style="fill: #4c72b0; fill-opacity: 0.5; stroke: #4c72b0; stroke-linejoin: miter"/>
   </g>
   <g id="patch_170">
    <path d="M 390.473286 188.638125 
L 392.454797 188.638125 
L 392.454797 187.686826 
L 390.473286 187.686826 
z
" clip-path="url(#p4388c18a1d)" style="fill: #4c72b0; fill-opacity: 0.5; stroke: #4c72b0; stroke-linejoin: miter"/>
   </g>
   <g id="patch_171">
    <path d="M 392.454797 188.638125 
L 394.436367 188.638125 
L 394.436367 187.742811 
L 392.454797 187.742811 
z
" clip-path="url(#p4388c18a1d)" style="fill: #4c72b0; fill-opacity: 0.5; stroke: #4c72b0; stroke-linejoin: miter"/>
   </g>
   <g id="patch_172">
    <path d="M 394.436367 188.638125 
L 396.417898 188.638125 
L 396.417898 186.689141 
L 394.436367 186.689141 
z
" clip-path="url(#p4388c18a1d)" style="fill: #4c72b0; fill-opacity: 0.5; stroke: #4c72b0; stroke-linejoin: miter"/>
   </g>
   <g id="patch_173">
    <path d="M 396.417898 188.638125 
L 398.399429 188.638125 
L 398.399429 186.517172 
L 396.417898 186.517172 
z
" clip-path="url(#p4388c18a1d)" style="fill: #4c72b0; fill-opacity: 0.5; stroke: #4c72b0; stroke-linejoin: miter"/>
   </g>
   <g id="patch_174">
    <path d="M 398.399429 188.638125 
L 400.38096 188.638125 
L 400.38096 182.370803 
L 398.399429 182.370803 
z
" clip-path="url(#p4388c18a1d)" style="fill: #4c72b0; fill-opacity: 0.5; stroke: #4c72b0; stroke-linejoin: miter"/>
   </g>
   <g id="patch_175">
    <path d="M 400.38096 188.638125 
L 402.36249 188.638125 
L 402.36249 176.336869 
L 400.38096 176.336869 
z
" clip-path="url(#p4388c18a1d)" style="fill: #4c72b0; fill-opacity: 0.5; stroke: #4c72b0; stroke-linejoin: miter"/>
   </g>
   <g id="patch_176">
    <path d="M 402.36249 188.638125 
L 404.344021 188.638125 
L 404.344021 177.469682 
L 402.36249 177.469682 
z
" clip-path="url(#p4388c18a1d)" style="fill: #4c72b0; fill-opacity: 0.5; stroke: #4c72b0; stroke-linejoin: miter"/>
   </g>
   <g id="patch_177">
    <path d="M 404.344021 188.638125 
L 406.325552 188.638125 
L 406.325552 176.177183 
L 404.344021 176.177183 
z
" clip-path="url(#p4388c18a1d)" style="fill: #4c72b0; fill-opacity: 0.5; stroke: #4c72b0; stroke-linejoin: miter"/>
   </g>
   <g id="patch_178">
    <path d="M 406.325552 188.638125 
L 408.307083 188.638125 
L 408.307083 173.316489 
L 406.325552 173.316489 
z
" clip-path="url(#p4388c18a1d)" style="fill: #4c72b0; fill-opacity: 0.5; stroke: #4c72b0; stroke-linejoin: miter"/>
   </g>
   <g id="patch_179">
    <path d="M 408.307083 188.638125 
L 410.288613 188.638125 
L 410.288613 174.774133 
L 408.307083 174.774133 
z
" clip-path="url(#p4388c18a1d)" style="fill: #4c72b0; fill-opacity: 0.5; stroke: #4c72b0; stroke-linejoin: miter"/>
   </g>
   <g id="patch_180">
    <path d="M 410.288613 188.638125 
L 412.270144 188.638125 
L 412.270144 175.796394 
L 410.288613 175.796394 
z
" clip-path="url(#p4388c18a1d)" style="fill: #4c72b0; fill-opacity: 0.5; stroke: #4c72b0; stroke-linejoin: miter"/>
   </g>
   <g id="patch_181">
    <path d="M 412.270144 188.638125 
L 414.251675 188.638125 
L 414.251675 177.322279 
L 412.270144 177.322279 
z
" clip-path="url(#p4388c18a1d)" style="fill: #4c72b0; fill-opacity: 0.5; stroke: #4c72b0; stroke-linejoin: miter"/>
   </g>
   <g id="patch_182">
    <path d="M 414.251675 188.638125 
L 416.233206 188.638125 
L 416.233206 180.869485 
L 414.251675 180.869485 
z
" clip-path="url(#p4388c18a1d)" style="fill: #4c72b0; fill-opacity: 0.5; stroke: #4c72b0; stroke-linejoin: miter"/>
   </g>
   <g id="patch_183">
    <path d="M 416.233206 188.638125 
L 418.214776 188.638125 
L 418.214776 181.658499 
L 416.233206 181.658499 
z
" clip-path="url(#p4388c18a1d)" style="fill: #4c72b0; fill-opacity: 0.5; stroke: #4c72b0; stroke-linejoin: miter"/>
   </g>
   <g id="patch_184">
    <path d="M 418.214776 188.638125 
L 420.196307 188.638125 
L 420.196307 182.066445 
L 418.214776 182.066445 
z
" clip-path="url(#p4388c18a1d)" style="fill: #4c72b0; fill-opacity: 0.5; stroke: #4c72b0; stroke-linejoin: miter"/>
   </g>
   <g id="patch_185">
    <path d="M 420.196307 188.638125 
L 422.177838 188.638125 
L 422.177838 182.883981 
L 420.196307 182.883981 
z
" clip-path="url(#p4388c18a1d)" style="fill: #4c72b0; fill-opacity: 0.5; stroke: #4c72b0; stroke-linejoin: miter"/>
   </g>
   <g id="patch_186">
    <path d="M 422.177838 188.638125 
L 424.159368 188.638125 
L 424.159368 183.457212 
L 422.177838 183.457212 
z
" clip-path="url(#p4388c18a1d)" style="fill: #4c72b0; fill-opacity: 0.5; stroke: #4c72b0; stroke-linejoin: miter"/>
   </g>
   <g id="patch_187">
    <path d="M 424.159368 188.638125 
L 426.140899 188.638125 
L 426.140899 183.701517 
L 424.159368 183.701517 
z
" clip-path="url(#p4388c18a1d)" style="fill: #4c72b0; fill-opacity: 0.5; stroke: #4c72b0; stroke-linejoin: miter"/>
   </g>
   <g id="patch_188">
    <path d="M 426.140899 188.638125 
L 428.12243 188.638125 
L 428.12243 184.201047 
L 426.140899 184.201047 
z
" clip-path="url(#p4388c18a1d)" style="fill: #4c72b0; fill-opacity: 0.5; stroke: #4c72b0; stroke-linejoin: miter"/>
   </g>
   <g id="patch_189">
    <path d="M 428.12243 188.638125 
L 430.103961 188.638125 
L 430.103961 186.455754 
L 428.12243 186.455754 
z
" clip-path="url(#p4388c18a1d)" style="fill: #4c72b0; fill-opacity: 0.5; stroke: #4c72b0; stroke-linejoin: miter"/>
   </g>
   <g id="patch_190">
    <path d="M 430.103961 188.638125 
L 432.085491 188.638125 
L 432.085491 187.334708 
L 430.103961 187.334708 
z
" clip-path="url(#p4388c18a1d)" style="fill: #4c72b0; fill-opacity: 0.5; stroke: #4c72b0; stroke-linejoin: miter"/>
   </g>
   <g id="patch_191">
    <path d="M 432.085491 188.638125 
L 434.067022 188.638125 
L 434.067022 187.517596 
L 432.085491 187.517596 
z
" clip-path="url(#p4388c18a1d)" style="fill: #4c72b0; fill-opacity: 0.5; stroke: #4c72b0; stroke-linejoin: miter"/>
   </g>
   <g id="patch_192">
    <path d="M 434.067022 188.638125 
L 436.048553 188.638125 
L 436.048553 187.542163 
L 434.067022 187.542163 
z
" clip-path="url(#p4388c18a1d)" style="fill: #4c72b0; fill-opacity: 0.5; stroke: #4c72b0; stroke-linejoin: miter"/>
   </g>
   <g id="patch_193">
    <path d="M 436.048553 188.638125 
L 438.030084 188.638125 
L 438.030084 187.630877 
L 436.048553 187.630877 
z
" clip-path="url(#p4388c18a1d)" style="fill: #4c72b0; fill-opacity: 0.5; stroke: #4c72b0; stroke-linejoin: miter"/>
   </g>
   <g id="patch_194">
    <path d="M 438.030084 188.638125 
L 440.011614 188.638125 
L 440.011614 187.805576 
L 438.030084 187.805576 
z
" clip-path="url(#p4388c18a1d)" style="fill: #4c72b0; fill-opacity: 0.5; stroke: #4c72b0; stroke-linejoin: miter"/>
   </g>
   <g id="patch_195">
    <path d="M 440.011614 188.638125 
L 441.993185 188.638125 
L 441.993185 187.781026 
L 440.011614 187.781026 
z
" clip-path="url(#p4388c18a1d)" style="fill: #4c72b0; fill-opacity: 0.5; stroke: #4c72b0; stroke-linejoin: miter"/>
   </g>
   <g id="patch_196">
    <path d="M 441.993185 188.638125 
L 443.974716 188.638125 
L 443.974716 187.952978 
L 441.993185 187.952978 
z
" clip-path="url(#p4388c18a1d)" style="fill: #4c72b0; fill-opacity: 0.5; stroke: #4c72b0; stroke-linejoin: miter"/>
   </g>
   <g id="patch_197">
    <path d="M 443.974716 188.638125 
L 445.956246 188.638125 
L 445.956246 187.965261 
L 443.974716 187.965261 
z
" clip-path="url(#p4388c18a1d)" style="fill: #4c72b0; fill-opacity: 0.5; stroke: #4c72b0; stroke-linejoin: miter"/>
   </g>
   <g id="patch_198">
    <path d="M 445.956246 188.638125 
L 447.937777 188.638125 
L 447.937777 188.023949 
L 445.956246 188.023949 
z
" clip-path="url(#p4388c18a1d)" style="fill: #4c72b0; fill-opacity: 0.5; stroke: #4c72b0; stroke-linejoin: miter"/>
   </g>
   <g id="patch_199">
    <path d="M 447.937777 188.638125 
L 449.919308 188.638125 
L 449.919308 188.074448 
L 447.937777 188.074448 
z
" clip-path="url(#p4388c18a1d)" style="fill: #4c72b0; fill-opacity: 0.5; stroke: #4c72b0; stroke-linejoin: miter"/>
   </g>
   <g id="patch_200">
    <path d="M 449.919308 188.638125 
L 451.900839 188.638125 
L 451.900839 188.073083 
L 449.919308 188.073083 
z
" clip-path="url(#p4388c18a1d)" style="fill: #4c72b0; fill-opacity: 0.5; stroke: #4c72b0; stroke-linejoin: miter"/>
   </g>
   <g id="patch_201">
    <path d="M 451.900839 188.638125 
L 453.882369 188.638125 
L 453.882369 188.200013 
L 451.900839 188.200013 
z
" clip-path="url(#p4388c18a1d)" style="fill: #4c72b0; fill-opacity: 0.5; stroke: #4c72b0; stroke-linejoin: miter"/>
   </g>
   <g id="patch_202">
    <path d="M 453.882369 188.638125 
L 455.8639 188.638125 
L 455.8639 188.232769 
L 453.882369 188.232769 
z
" clip-path="url(#p4388c18a1d)" style="fill: #4c72b0; fill-opacity: 0.5; stroke: #4c72b0; stroke-linejoin: miter"/>
   </g>
   <g id="patch_203">
    <path d="M 455.8639 188.638125 
L 457.845431 188.638125 
L 457.845431 188.208202 
L 455.8639 188.208202 
z
" clip-path="url(#p4388c18a1d)" style="fill: #4c72b0; fill-opacity: 0.5; stroke: #4c72b0; stroke-linejoin: miter"/>
   </g>
   <g id="patch_204">
    <path d="M 457.845431 188.638125 
L 459.826962 188.638125 
L 459.826962 188.317389 
L 457.845431 188.317389 
z
" clip-path="url(#p4388c18a1d)" style="fill: #4c72b0; fill-opacity: 0.5; stroke: #4c72b0; stroke-linejoin: miter"/>
   </g>
   <g id="patch_205">
    <path d="M 459.826962 188.638125 
L 461.808492 188.638125 
L 461.808492 188.288727 
L 459.826962 188.288727 
z
" clip-path="url(#p4388c18a1d)" style="fill: #4c72b0; fill-opacity: 0.5; stroke: #4c72b0; stroke-linejoin: miter"/>
   </g>
   <g id="patch_206">
    <path d="M 461.808492 188.638125 
L 463.790063 188.638125 
L 463.790063 188.359704 
L 461.808492 188.359704 
z
" clip-path="url(#p4388c18a1d)" style="fill: #4c72b0; fill-opacity: 0.5; stroke: #4c72b0; stroke-linejoin: miter"/>
   </g>
   <g id="patch_207">
    <path d="M 463.790063 188.638125 
L 465.771594 188.638125 
L 465.771594 188.370617 
L 463.790063 188.370617 
z
" clip-path="url(#p4388c18a1d)" style="fill: #4c72b0; fill-opacity: 0.5; stroke: #4c72b0; stroke-linejoin: miter"/>
   </g>
   <g id="patch_208">
    <path d="M 465.771594 188.638125 
L 467.753124 188.638125 
L 467.753124 188.423846 
L 465.771594 188.423846 
z
" clip-path="url(#p4388c18a1d)" style="fill: #4c72b0; fill-opacity: 0.5; stroke: #4c72b0; stroke-linejoin: miter"/>
   </g>
   <g id="patch_209">
    <path d="M 467.753124 188.638125 
L 469.734655 188.638125 
L 469.734655 188.408833 
L 467.753124 188.408833 
z
" clip-path="url(#p4388c18a1d)" style="fill: #4c72b0; fill-opacity: 0.5; stroke: #4c72b0; stroke-linejoin: miter"/>
   </g>
   <g id="patch_210">
    <path d="M 469.734655 188.638125 
L 471.716186 188.638125 
L 471.716186 188.455237 
L 469.734655 188.455237 
z
" clip-path="url(#p4388c18a1d)" style="fill: #4c72b0; fill-opacity: 0.5; stroke: #4c72b0; stroke-linejoin: miter"/>
   </g>
   <g id="patch_211">
    <path d="M 471.716186 188.638125 
L 473.697717 188.638125 
L 473.697717 188.442954 
L 471.716186 188.442954 
z
" clip-path="url(#p4388c18a1d)" style="fill: #4c72b0; fill-opacity: 0.5; stroke: #4c72b0; stroke-linejoin: miter"/>
   </g>
   <g id="patch_212">
    <path d="M 473.697717 188.638125 
L 475.679247 188.638125 
L 475.679247 188.478439 
L 473.697717 188.478439 
z
" clip-path="url(#p4388c18a1d)" style="fill: #4c72b0; fill-opacity: 0.5; stroke: #4c72b0; stroke-linejoin: miter"/>
   </g>
   <g id="patch_213">
    <path d="M 475.679247 188.638125 
L 477.660778 188.638125 
L 477.660778 188.507101 
L 475.679247 188.507101 
z
" clip-path="url(#p4388c18a1d)" style="fill: #4c72b0; fill-opacity: 0.5; stroke: #4c72b0; stroke-linejoin: miter"/>
   </g>
   <g id="patch_214">
    <path d="M 477.660778 188.638125 
L 479.642309 188.638125 
L 479.642309 188.485263 
L 477.660778 188.485263 
z
" clip-path="url(#p4388c18a1d)" style="fill: #4c72b0; fill-opacity: 0.5; stroke: #4c72b0; stroke-linejoin: miter"/>
   </g>
   <g id="patch_215">
    <path d="M 479.642309 188.638125 
L 481.62384 188.638125 
L 481.62384 188.504371 
L 479.642309 188.504371 
z
" clip-path="url(#p4388c18a1d)" style="fill: #4c72b0; fill-opacity: 0.5; stroke: #4c72b0; stroke-linejoin: miter"/>
   </g>
   <g id="patch_216">
    <path d="M 481.62384 188.638125 
L 483.60537 188.638125 
L 483.60537 188.526209 
L 481.62384 188.526209 
z
" clip-path="url(#p4388c18a1d)" style="fill: #4c72b0; fill-opacity: 0.5; stroke: #4c72b0; stroke-linejoin: miter"/>
   </g>
   <g id="patch_217">
    <path d="M 483.60537 188.638125 
L 485.586901 188.638125 
L 485.586901 188.542587 
L 483.60537 188.542587 
z
" clip-path="url(#p4388c18a1d)" style="fill: #4c72b0; fill-opacity: 0.5; stroke: #4c72b0; stroke-linejoin: miter"/>
   </g>
   <g id="patch_218">
    <path d="M 485.586901 188.638125 
L 487.568472 188.638125 
L 487.568472 188.548048 
L 485.586901 188.548048 
z
" clip-path="url(#p4388c18a1d)" style="fill: #4c72b0; fill-opacity: 0.5; stroke: #4c72b0; stroke-linejoin: miter"/>
   </g>
   <g id="patch_219">
    <path d="M 487.568472 188.638125 
L 489.550002 188.638125 
L 489.550002 188.564424 
L 487.568472 188.564424 
z
" clip-path="url(#p4388c18a1d)" style="fill: #4c72b0; fill-opacity: 0.5; stroke: #4c72b0; stroke-linejoin: miter"/>
   </g>
   <g id="patch_220">
    <path d="M 489.550002 188.638125 
L 491.531533 188.638125 
L 491.531533 188.571248 
L 489.550002 188.571248 
z
" clip-path="url(#p4388c18a1d)" style="fill: #4c72b0; fill-opacity: 0.5; stroke: #4c72b0; stroke-linejoin: miter"/>
   </g>
   <g id="patch_221">
    <path d="M 491.531533 188.638125 
L 493.513064 188.638125 
L 493.513064 188.564424 
L 491.531533 188.564424 
z
" clip-path="url(#p4388c18a1d)" style="fill: #4c72b0; fill-opacity: 0.5; stroke: #4c72b0; stroke-linejoin: miter"/>
   </g>
   <g id="patch_222">
    <path d="M 493.513064 188.638125 
L 495.494595 188.638125 
L 495.494595 188.572613 
L 493.513064 188.572613 
z
" clip-path="url(#p4388c18a1d)" style="fill: #4c72b0; fill-opacity: 0.5; stroke: #4c72b0; stroke-linejoin: miter"/>
   </g>
   <g id="patch_223">
    <path d="M 495.494595 188.638125 
L 497.476125 188.638125 
L 497.476125 188.564424 
L 495.494595 188.564424 
z
" clip-path="url(#p4388c18a1d)" style="fill: #4c72b0; fill-opacity: 0.5; stroke: #4c72b0; stroke-linejoin: miter"/>
   </g>
   <g id="patch_224">
    <path d="M 497.476125 188.638125 
L 499.457656 188.638125 
L 499.457656 188.604004 
L 497.476125 188.604004 
z
" clip-path="url(#p4388c18a1d)" style="fill: #4c72b0; fill-opacity: 0.5; stroke: #4c72b0; stroke-linejoin: miter"/>
   </g>
   <g id="patch_225">
    <path d="M 499.457656 188.638125 
L 501.439187 188.638125 
L 501.439187 188.598545 
L 499.457656 188.598545 
z
" clip-path="url(#p4388c18a1d)" style="fill: #4c72b0; fill-opacity: 0.5; stroke: #4c72b0; stroke-linejoin: miter"/>
   </g>
   <g id="patch_226">
    <path d="M 501.439187 188.638125 
L 503.420718 188.638125 
L 503.420718 188.59445 
L 501.439187 188.59445 
z
" clip-path="url(#p4388c18a1d)" style="fill: #4c72b0; fill-opacity: 0.5; stroke: #4c72b0; stroke-linejoin: miter"/>
   </g>
   <g id="patch_227">
    <path d="M 503.420718 188.638125 
L 505.402248 188.638125 
L 505.402248 188.604004 
L 503.420718 188.604004 
z
" clip-path="url(#p4388c18a1d)" style="fill: #4c72b0; fill-opacity: 0.5; stroke: #4c72b0; stroke-linejoin: miter"/>
   </g>
   <g id="patch_228">
    <path d="M 505.402248 188.638125 
L 507.383779 188.638125 
L 507.383779 188.595815 
L 505.402248 188.595815 
z
" clip-path="url(#p4388c18a1d)" style="fill: #4c72b0; fill-opacity: 0.5; stroke: #4c72b0; stroke-linejoin: miter"/>
   </g>
   <g id="patch_229">
    <path d="M 507.383779 188.638125 
L 509.36535 188.638125 
L 509.36535 188.612194 
L 507.383779 188.612194 
z
" clip-path="url(#p4388c18a1d)" style="fill: #4c72b0; fill-opacity: 0.5; stroke: #4c72b0; stroke-linejoin: miter"/>
   </g>
   <g id="patch_230">
    <path d="M 509.36535 188.638125 
L 511.34688 188.638125 
L 511.34688 188.608099 
L 509.36535 188.608099 
z
" clip-path="url(#p4388c18a1d)" style="fill: #4c72b0; fill-opacity: 0.5; stroke: #4c72b0; stroke-linejoin: miter"/>
   </g>
   <g id="patch_231">
    <path d="M 511.34688 188.638125 
L 513.328411 188.638125 
L 513.328411 188.619017 
L 511.34688 188.619017 
z
" clip-path="url(#p4388c18a1d)" style="fill: #4c72b0; fill-opacity: 0.5; stroke: #4c72b0; stroke-linejoin: miter"/>
   </g>
   <g id="patch_232">
    <path d="M 513.328411 188.638125 
L 515.309942 188.638125 
L 515.309942 188.617652 
L 513.328411 188.617652 
z
" clip-path="url(#p4388c18a1d)" style="fill: #4c72b0; fill-opacity: 0.5; stroke: #4c72b0; stroke-linejoin: miter"/>
   </g>
   <g id="patch_233">
    <path d="M 515.309942 188.638125 
L 517.291473 188.638125 
L 517.291473 188.621747 
L 515.309942 188.621747 
z
" clip-path="url(#p4388c18a1d)" style="fill: #4c72b0; fill-opacity: 0.5; stroke: #4c72b0; stroke-linejoin: miter"/>
   </g>
   <g id="patch_234">
    <path d="M 517.291473 188.638125 
L 519.273003 188.638125 
L 519.273003 188.619017 
L 517.291473 188.619017 
z
" clip-path="url(#p4388c18a1d)" style="fill: #4c72b0; fill-opacity: 0.5; stroke: #4c72b0; stroke-linejoin: miter"/>
   </g>
   <g id="patch_235">
    <path d="M 519.273003 188.638125 
L 521.254534 188.638125 
L 521.254534 188.629936 
L 519.273003 188.629936 
z
" clip-path="url(#p4388c18a1d)" style="fill: #4c72b0; fill-opacity: 0.5; stroke: #4c72b0; stroke-linejoin: miter"/>
   </g>
   <g id="patch_236">
    <path d="M 521.254534 188.638125 
L 523.236065 188.638125 
L 523.236065 188.620382 
L 521.254534 188.620382 
z
" clip-path="url(#p4388c18a1d)" style="fill: #4c72b0; fill-opacity: 0.5; stroke: #4c72b0; stroke-linejoin: miter"/>
   </g>
   <g id="patch_237">
    <path d="M 523.236065 188.638125 
L 525.217596 188.638125 
L 525.217596 188.625841 
L 523.236065 188.625841 
z
" clip-path="url(#p4388c18a1d)" style="fill: #4c72b0; fill-opacity: 0.5; stroke: #4c72b0; stroke-linejoin: miter"/>
   </g>
   <g id="patch_238">
    <path d="M 525.217596 188.638125 
L 527.199126 188.638125 
L 527.199126 188.625841 
L 525.217596 188.625841 
z
" clip-path="url(#p4388c18a1d)" style="fill: #4c72b0; fill-opacity: 0.5; stroke: #4c72b0; stroke-linejoin: miter"/>
   </g>
   <g id="patch_239">
    <path d="M 527.199126 188.638125 
L 529.180657 188.638125 
L 529.180657 188.628571 
L 527.199126 188.628571 
z
" clip-path="url(#p4388c18a1d)" style="fill: #4c72b0; fill-opacity: 0.5; stroke: #4c72b0; stroke-linejoin: miter"/>
   </g>
   <g id="patch_240">
    <path d="M 529.180657 188.638125 
L 531.162188 188.638125 
L 531.162188 188.629936 
L 529.180657 188.629936 
z
" clip-path="url(#p4388c18a1d)" style="fill: #4c72b0; fill-opacity: 0.5; stroke: #4c72b0; stroke-linejoin: miter"/>
   </g>
   <g id="patch_241">
    <path d="M 531.162188 188.638125 
L 533.143758 188.638125 
L 533.143758 188.625842 
L 531.162188 188.625842 
z
" clip-path="url(#p4388c18a1d)" style="fill: #4c72b0; fill-opacity: 0.5; stroke: #4c72b0; stroke-linejoin: miter"/>
   </g>
   <g id="patch_242">
    <path d="M 533.143758 188.638125 
L 535.125289 188.638125 
L 535.125289 188.629936 
L 533.143758 188.629936 
z
" clip-path="url(#p4388c18a1d)" style="fill: #4c72b0; fill-opacity: 0.5; stroke: #4c72b0; stroke-linejoin: miter"/>
   </g>
   <g id="patch_243">
    <path d="M 535.125289 188.638125 
L 537.10682 188.638125 
L 537.10682 188.635395 
L 535.125289 188.635395 
z
" clip-path="url(#p4388c18a1d)" style="fill: #4c72b0; fill-opacity: 0.5; stroke: #4c72b0; stroke-linejoin: miter"/>
   </g>
   <g id="patch_244">
    <path d="M 537.10682 188.638125 
L 539.088351 188.638125 
L 539.088351 188.63403 
L 537.10682 188.63403 
z
" clip-path="url(#p4388c18a1d)" style="fill: #4c72b0; fill-opacity: 0.5; stroke: #4c72b0; stroke-linejoin: miter"/>
   </g>
   <g id="patch_245">
    <path d="M 539.088351 188.638125 
L 541.069881 188.638125 
L 541.069881 188.628571 
L 539.088351 188.628571 
z
" clip-path="url(#p4388c18a1d)" style="fill: #4c72b0; fill-opacity: 0.5; stroke: #4c72b0; stroke-linejoin: miter"/>
   </g>
   <g id="patch_246">
    <path d="M 541.069881 188.638125 
L 543.051412 188.638125 
L 543.051412 188.627206 
L 541.069881 188.627206 
z
" clip-path="url(#p4388c18a1d)" style="fill: #4c72b0; fill-opacity: 0.5; stroke: #4c72b0; stroke-linejoin: miter"/>
   </g>
   <g id="patch_247">
    <path d="M 543.051412 188.638125 
L 545.032943 188.638125 
L 545.032943 188.632666 
L 543.051412 188.632666 
z
" clip-path="url(#p4388c18a1d)" style="fill: #4c72b0; fill-opacity: 0.5; stroke: #4c72b0; stroke-linejoin: miter"/>
   </g>
   <g id="patch_248">
    <path d="M 545.032943 188.638125 
L 547.014474 188.638125 
L 547.014474 188.631301 
L 545.032943 188.631301 
z
" clip-path="url(#p4388c18a1d)" style="fill: #4c72b0; fill-opacity: 0.5; stroke: #4c72b0; stroke-linejoin: miter"/>
   </g>
   <g id="patch_249">
    <path d="M 547.014474 188.638125 
L 548.996004 188.638125 
L 548.996004 188.63403 
L 547.014474 188.63403 
z
" clip-path="url(#p4388c18a1d)" style="fill: #4c72b0; fill-opacity: 0.5; stroke: #4c72b0; stroke-linejoin: miter"/>
   </g>
   <g id="patch_250">
    <path d="M 548.996004 188.638125 
L 550.977535 188.638125 
L 550.977535 188.63676 
L 548.996004 188.63676 
z
" clip-path="url(#p4388c18a1d)" style="fill: #4c72b0; fill-opacity: 0.5; stroke: #4c72b0; stroke-linejoin: miter"/>
   </g>
   <g id="patch_251">
    <path d="M 550.977535 188.638125 
L 552.959066 188.638125 
L 552.959066 188.638125 
L 550.977535 188.638125 
z
" clip-path="url(#p4388c18a1d)" style="fill: #4c72b0; fill-opacity: 0.5; stroke: #4c72b0; stroke-linejoin: miter"/>
   </g>
   <g id="patch_252">
    <path d="M 552.959066 188.638125 
L 554.940597 188.638125 
L 554.940597 188.632666 
L 552.959066 188.632666 
z
" clip-path="url(#p4388c18a1d)" style="fill: #4c72b0; fill-opacity: 0.5; stroke: #4c72b0; stroke-linejoin: miter"/>
   </g>
   <g id="patch_253">
    <path d="M 554.940597 188.638125 
L 556.922167 188.638125 
L 556.922167 188.635395 
L 554.940597 188.635395 
z
" clip-path="url(#p4388c18a1d)" style="fill: #4c72b0; fill-opacity: 0.5; stroke: #4c72b0; stroke-linejoin: miter"/>
   </g>
   <g id="patch_254">
    <path d="M 556.922167 188.638125 
L 558.903698 188.638125 
L 558.903698 188.635395 
L 556.922167 188.635395 
z
" clip-path="url(#p4388c18a1d)" style="fill: #4c72b0; fill-opacity: 0.5; stroke: #4c72b0; stroke-linejoin: miter"/>
   </g>
   <g id="patch_255">
    <path d="M 558.903698 188.638125 
L 560.885229 188.638125 
L 560.885229 188.635395 
L 558.903698 188.635395 
z
" clip-path="url(#p4388c18a1d)" style="fill: #4c72b0; fill-opacity: 0.5; stroke: #4c72b0; stroke-linejoin: miter"/>
   </g>
   <g id="patch_256">
    <path d="M 560.885229 188.638125 
L 562.866759 188.638125 
L 562.866759 188.63676 
L 560.885229 188.63676 
z
" clip-path="url(#p4388c18a1d)" style="fill: #4c72b0; fill-opacity: 0.5; stroke: #4c72b0; stroke-linejoin: miter"/>
   </g>
   <g id="patch_257">
    <path d="M 562.866759 188.638125 
L 564.84829 188.638125 
L 564.84829 188.638125 
L 562.866759 188.638125 
z
" clip-path="url(#p4388c18a1d)" style="fill: #4c72b0; fill-opacity: 0.5; stroke: #4c72b0; stroke-linejoin: miter"/>
   </g>
   <g id="patch_258">
    <path d="M 564.84829 188.638125 
L 566.829801 188.638125 
L 566.829801 188.635395 
L 564.84829 188.635395 
z
" clip-path="url(#p4388c18a1d)" style="fill: #4c72b0; fill-opacity: 0.5; stroke: #4c72b0; stroke-linejoin: miter"/>
   </g>
   <g id="patch_259">
    <path d="M 34.193438 188.638125 
L 34.193438 22.318125 
" style="fill: none; stroke: #ffffff; stroke-width: 1.25; stroke-linejoin: miter; stroke-linecap: square"/>
   </g>
   <g id="patch_260">
    <path d="M 592.193437 188.638125 
L 592.193437 22.318125 
" style="fill: none; stroke: #ffffff; stroke-width: 1.25; stroke-linejoin: miter; stroke-linecap: square"/>
   </g>
   <g id="patch_261">
    <path d="M 34.193438 188.638125 
L 592.193438 188.638125 
" style="fill: none; stroke: #ffffff; stroke-width: 1.25; stroke-linejoin: miter; stroke-linecap: square"/>
   </g>
   <g id="patch_262">
    <path d="M 34.193438 22.318125 
L 592.193438 22.318125 
" style="fill: none; stroke: #ffffff; stroke-width: 1.25; stroke-linejoin: miter; stroke-linecap: square"/>
   </g>
   <g id="text_10">
    <!-- Dequantization -->
    <g style="fill: #262626" transform="translate(267.452812 16.318125) scale(0.12 -0.12)">
     <defs>
      <path id="DejaVuSans-44" d="M 1259 4147 
L 1259 519 
L 2022 519 
Q 2988 519 3436 956 
Q 3884 1394 3884 2338 
Q 3884 3275 3436 3711 
Q 2988 4147 2022 4147 
L 1259 4147 
z
M 628 4666 
L 1925 4666 
Q 3281 4666 3915 4102 
Q 4550 3538 4550 2338 
Q 4550 1131 3912 565 
Q 3275 0 1925 0 
L 628 0 
L 628 4666 
z
" transform="scale(0.015625)"/>
      <path id="DejaVuSans-65" d="M 3597 1894 
L 3597 1613 
L 953 1613 
Q 991 1019 1311 708 
Q 1631 397 2203 397 
Q 2534 397 2845 478 
Q 3156 559 3463 722 
L 3463 178 
Q 3153 47 2828 -22 
Q 2503 -91 2169 -91 
Q 1331 -91 842 396 
Q 353 884 353 1716 
Q 353 2575 817 3079 
Q 1281 3584 2069 3584 
Q 2775 3584 3186 3129 
Q 3597 2675 3597 1894 
z
M 3022 2063 
Q 3016 2534 2758 2815 
Q 2500 3097 2075 3097 
Q 1594 3097 1305 2825 
Q 1016 2553 972 2059 
L 3022 2063 
z
" transform="scale(0.015625)"/>
      <path id="DejaVuSans-71" d="M 947 1747 
Q 947 1113 1208 752 
Q 1469 391 1925 391 
Q 2381 391 2643 752 
Q 2906 1113 2906 1747 
Q 2906 2381 2643 2742 
Q 2381 3103 1925 3103 
Q 1469 3103 1208 2742 
Q 947 2381 947 1747 
z
M 2906 525 
Q 2725 213 2448 61 
Q 2172 -91 1784 -91 
Q 1150 -91 751 415 
Q 353 922 353 1747 
Q 353 2572 751 3078 
Q 1150 3584 1784 3584 
Q 2172 3584 2448 3432 
Q 2725 3281 2906 2969 
L 2906 3500 
L 3481 3500 
L 3481 -1331 
L 2906 -1331 
L 2906 525 
z
" transform="scale(0.015625)"/>
      <path id="DejaVuSans-75" d="M 544 1381 
L 544 3500 
L 1119 3500 
L 1119 1403 
Q 1119 906 1312 657 
Q 1506 409 1894 409 
Q 2359 409 2629 706 
Q 2900 1003 2900 1516 
L 2900 3500 
L 3475 3500 
L 3475 0 
L 2900 0 
L 2900 538 
Q 2691 219 2414 64 
Q 2138 -91 1772 -91 
Q 1169 -91 856 284 
Q 544 659 544 1381 
z
M 1991 3584 
L 1991 3584 
z
" transform="scale(0.015625)"/>
      <path id="DejaVuSans-61" d="M 2194 1759 
Q 1497 1759 1228 1600 
Q 959 1441 959 1056 
Q 959 750 1161 570 
Q 1363 391 1709 391 
Q 2188 391 2477 730 
Q 2766 1069 2766 1631 
L 2766 1759 
L 2194 1759 
z
M 3341 1997 
L 3341 0 
L 2766 0 
L 2766 531 
Q 2569 213 2275 61 
Q 1981 -91 1556 -91 
Q 1019 -91 701 211 
Q 384 513 384 1019 
Q 384 1609 779 1909 
Q 1175 2209 1959 2209 
L 2766 2209 
L 2766 2266 
Q 2766 2663 2505 2880 
Q 2244 3097 1772 3097 
Q 1472 3097 1187 3025 
Q 903 2953 641 2809 
L 641 3341 
Q 956 3463 1253 3523 
Q 1550 3584 1831 3584 
Q 2591 3584 2966 3190 
Q 3341 2797 3341 1997 
z
" transform="scale(0.015625)"/>
      <path id="DejaVuSans-6e" d="M 3513 2113 
L 3513 0 
L 2938 0 
L 2938 2094 
Q 2938 2591 2744 2837 
Q 2550 3084 2163 3084 
Q 1697 3084 1428 2787 
Q 1159 2491 1159 1978 
L 1159 0 
L 581 0 
L 581 3500 
L 1159 3500 
L 1159 2956 
Q 1366 3272 1645 3428 
Q 1925 3584 2291 3584 
Q 2894 3584 3203 3211 
Q 3513 2838 3513 2113 
z
" transform="scale(0.015625)"/>
      <path id="DejaVuSans-74" d="M 1172 4494 
L 1172 3500 
L 2356 3500 
L 2356 3053 
L 1172 3053 
L 1172 1153 
Q 1172 725 1289 603 
Q 1406 481 1766 481 
L 2356 481 
L 2356 0 
L 1766 0 
Q 1100 0 847 248 
Q 594 497 594 1153 
L 594 3053 
L 172 3053 
L 172 3500 
L 594 3500 
L 594 4494 
L 1172 4494 
z
" transform="scale(0.015625)"/>
      <path id="DejaVuSans-69" d="M 603 3500 
L 1178 3500 
L 1178 0 
L 603 0 
L 603 3500 
z
M 603 4863 
L 1178 4863 
L 1178 4134 
L 603 4134 
L 603 4863 
z
" transform="scale(0.015625)"/>
      <path id="DejaVuSans-7a" d="M 353 3500 
L 3084 3500 
L 3084 2975 
L 922 459 
L 3084 459 
L 3084 0 
L 275 0 
L 275 525 
L 2438 3041 
L 353 3041 
L 353 3500 
z
" transform="scale(0.015625)"/>
      <path id="DejaVuSans-6f" d="M 1959 3097 
Q 1497 3097 1228 2736 
Q 959 2375 959 1747 
Q 959 1119 1226 758 
Q 1494 397 1959 397 
Q 2419 397 2687 759 
Q 2956 1122 2956 1747 
Q 2956 2369 2687 2733 
Q 2419 3097 1959 3097 
z
M 1959 3584 
Q 2709 3584 3137 3096 
Q 3566 2609 3566 1747 
Q 3566 888 3137 398 
Q 2709 -91 1959 -91 
Q 1206 -91 779 398 
Q 353 888 353 1747 
Q 353 2609 779 3096 
Q 1206 3584 1959 3584 
z
" transform="scale(0.015625)"/>
     </defs>
     <use xlink:href="#DejaVuSans-44"/>
     <use xlink:href="#DejaVuSans-65" x="77.001953"/>
     <use xlink:href="#DejaVuSans-71" x="138.525391"/>
     <use xlink:href="#DejaVuSans-75" x="202.001953"/>
     <use xlink:href="#DejaVuSans-61" x="265.380859"/>
     <use xlink:href="#DejaVuSans-6e" x="326.660156"/>
     <use xlink:href="#DejaVuSans-74" x="390.039062"/>
     <use xlink:href="#DejaVuSans-69" x="429.248047"/>
     <use xlink:href="#DejaVuSans-7a" x="457.03125"/>
     <use xlink:href="#DejaVuSans-61" x="509.521484"/>
     <use xlink:href="#DejaVuSans-74" x="570.800781"/>
     <use xlink:href="#DejaVuSans-69" x="610.009766"/>
     <use xlink:href="#DejaVuSans-6f" x="637.792969"/>
     <use xlink:href="#DejaVuSans-6e" x="698.974609"/>
    </g>
   </g>
  </g>
 </g>
 <defs>
  <clipPath id="p4388c18a1d">
   <rect x="34.193438" y="22.318125" width="558" height="166.32"/>
  </clipPath>
 </defs>
</svg>
