<?xml version="1.0" encoding="utf-8" standalone="no"?>
<!DOCTYPE svg PUBLIC "-//W3C//DTD SVG 1.1//EN"
  "http://www.w3.org/Graphics/SVG/1.1/DTD/svg11.dtd">
<svg xmlns:xlink="http://www.w3.org/1999/xlink" width="400.095313pt" height="226.194375pt" viewBox="0 0 400.095313 226.194375" xmlns="http://www.w3.org/2000/svg" version="1.1">
 <metadata>
  <rdf:RDF xmlns:dc="http://purl.org/dc/elements/1.1/" xmlns:cc="http://creativecommons.org/ns#" xmlns:rdf="http://www.w3.org/1999/02/22-rdf-syntax-ns#">
   <cc:Work>
    <dc:type rdf:resource="http://purl.org/dc/dcmitype/StillImage"/>
    <dc:date>2024-09-01T12:11:53.696189</dc:date>
    <dc:format>image/svg+xml</dc:format>
    <dc:creator>
     <cc:Agent>
      <dc:title>Matplotlib v3.9.2, https://matplotlib.org/</dc:title>
     </cc:Agent>
    </dc:creator>
   </cc:Work>
  </rdf:RDF>
 </metadata>
 <defs>
  <style type="text/css">*{stroke-linejoin: round; stroke-linecap: butt}</style>
 </defs>
 <g id="figure_1">
  <g id="patch_1">
   <path d="M 0 226.194375 
L 400.095313 226.194375 
L 400.095313 0 
L 0 0 
z
" style="fill: #ffffff"/>
  </g>
  <g id="axes_1">
   <g id="patch_2">
    <path d="M 50.14375 188.638125 
L 384.94375 188.638125 
L 384.94375 22.318125 
L 50.14375 22.318125 
z
" style="fill: #ffffff"/>
   </g>
   <g id="matplotlib.axis_1">
    <g id="xtick_1">
     <g id="text_1">
      <!-- -4.0 -->
      <g style="fill: #262626" transform="translate(40.388281 203.236563) scale(0.1 -0.1)">
       <defs>
        <path id="DejaVuSans-2d" d="M 313 2009 
L 1997 2009 
L 1997 1497 
L 313 1497 
L 313 2009 
z
" transform="scale(0.015625)"/>
        <path id="DejaVuSans-34" d="M 2419 4116 
L 825 1625 
L 2419 1625 
L 2419 4116 
z
M 2253 4666 
L 3047 4666 
L 3047 1625 
L 3713 1625 
L 3713 1100 
L 3047 1100 
L 3047 0 
L 2419 0 
L 2419 1100 
L 313 1100 
L 313 1709 
L 2253 4666 
z
" transform="scale(0.015625)"/>
        <path id="DejaVuSans-2e" d="M 684 794 
L 1344 794 
L 1344 0 
L 684 0 
L 684 794 
z
" transform="scale(0.015625)"/>
        <path id="DejaVuSans-30" d="M 2034 4250 
Q 1547 4250 1301 3770 
Q 1056 3291 1056 2328 
Q 1056 1369 1301 889 
Q 1547 409 2034 409 
Q 2525 409 2770 889 
Q 3016 1369 3016 2328 
Q 3016 3291 2770 3770 
Q 2525 4250 2034 4250 
z
M 2034 4750 
Q 2819 4750 3233 4129 
Q 3647 3509 3647 2328 
Q 3647 1150 3233 529 
Q 2819 -91 2034 -91 
Q 1250 -91 836 529 
Q 422 1150 422 2328 
Q 422 3509 836 4129 
Q 1250 4750 2034 4750 
z
" transform="scale(0.015625)"/>
       </defs>
       <use xlink:href="#DejaVuSans-2d"/>
       <use xlink:href="#DejaVuSans-34" x="36.083984"/>
       <use xlink:href="#DejaVuSans-2e" x="99.707031"/>
       <use xlink:href="#DejaVuSans-30" x="131.494141"/>
      </g>
     </g>
    </g>
    <g id="xtick_2">
     <g id="text_2">
      <!-- -1.9 -->
      <g style="fill: #262626" transform="translate(126.707177 203.236563) scale(0.1 -0.1)">
       <defs>
        <path id="DejaVuSans-31" d="M 794 531 
L 1825 531 
L 1825 4091 
L 703 3866 
L 703 4441 
L 1819 4666 
L 2450 4666 
L 2450 531 
L 3481 531 
L 3481 0 
L 794 0 
L 794 531 
z
" transform="scale(0.015625)"/>
        <path id="DejaVuSans-39" d="M 703 97 
L 703 672 
Q 941 559 1184 500 
Q 1428 441 1663 441 
Q 2288 441 2617 861 
Q 2947 1281 2994 2138 
Q 2813 1869 2534 1725 
Q 2256 1581 1919 1581 
Q 1219 1581 811 2004 
Q 403 2428 403 3163 
Q 403 3881 828 4315 
Q 1253 4750 1959 4750 
Q 2769 4750 3195 4129 
Q 3622 3509 3622 2328 
Q 3622 1225 3098 567 
Q 2575 -91 1691 -91 
Q 1453 -91 1209 -44 
Q 966 3 703 97 
z
M 1959 2075 
Q 2384 2075 2632 2365 
Q 2881 2656 2881 3163 
Q 2881 3666 2632 3958 
Q 2384 4250 1959 4250 
Q 1534 4250 1286 3958 
Q 1038 3666 1038 3163 
Q 1038 2656 1286 2365 
Q 1534 2075 1959 2075 
z
" transform="scale(0.015625)"/>
       </defs>
       <use xlink:href="#DejaVuSans-2d"/>
       <use xlink:href="#DejaVuSans-31" x="36.083984"/>
       <use xlink:href="#DejaVuSans-2e" x="99.707031"/>
       <use xlink:href="#DejaVuSans-39" x="131.494141"/>
      </g>
     </g>
    </g>
    <g id="xtick_3">
     <g id="text_3">
      <!-- -1.1 -->
      <g style="fill: #262626" transform="translate(162.3242 203.236563) scale(0.1 -0.1)">
       <use xlink:href="#DejaVuSans-2d"/>
       <use xlink:href="#DejaVuSans-31" x="36.083984"/>
       <use xlink:href="#DejaVuSans-2e" x="99.707031"/>
       <use xlink:href="#DejaVuSans-31" x="131.494141"/>
      </g>
     </g>
    </g>
    <g id="xtick_4">
     <g id="text_4">
      <!-- -0.5 -->
      <g style="fill: #262626" transform="translate(186.627581 203.236563) scale(0.1 -0.1)">
       <defs>
        <path id="DejaVuSans-35" d="M 691 4666 
L 3169 4666 
L 3169 4134 
L 1269 4134 
L 1269 2991 
Q 1406 3038 1543 3061 
Q 1681 3084 1819 3084 
Q 2600 3084 3056 2656 
Q 3513 2228 3513 1497 
Q 3513 744 3044 326 
Q 2575 -91 1722 -91 
Q 1428 -91 1123 -41 
Q 819 9 494 109 
L 494 744 
Q 775 591 1075 516 
Q 1375 441 1709 441 
Q 2250 441 2565 725 
Q 2881 1009 2881 1497 
Q 2881 1984 2565 2268 
Q 2250 2553 1709 2553 
Q 1456 2553 1204 2497 
Q 953 2441 691 2322 
L 691 4666 
z
" transform="scale(0.015625)"/>
       </defs>
       <use xlink:href="#DejaVuSans-2d"/>
       <use xlink:href="#DejaVuSans-30" x="36.083984"/>
       <use xlink:href="#DejaVuSans-2e" x="99.707031"/>
       <use xlink:href="#DejaVuSans-35" x="131.494141"/>
      </g>
     </g>
    </g>
    <g id="xtick_5">
     <g id="text_5">
      <!-- 0.0 -->
      <g style="fill: #262626" transform="translate(209.801699 203.236563) scale(0.1 -0.1)">
       <use xlink:href="#DejaVuSans-30"/>
       <use xlink:href="#DejaVuSans-2e" x="63.623047"/>
       <use xlink:href="#DejaVuSans-30" x="95.410156"/>
      </g>
     </g>
    </g>
    <g id="xtick_6">
     <g id="text_6">
      <!-- 0.5 -->
      <g style="fill: #262626" transform="translate(231.590935 203.236563) scale(0.1 -0.1)">
       <use xlink:href="#DejaVuSans-30"/>
       <use xlink:href="#DejaVuSans-2e" x="63.623047"/>
       <use xlink:href="#DejaVuSans-35" x="95.410156"/>
      </g>
     </g>
    </g>
    <g id="xtick_7">
     <g id="text_7">
      <!-- 1.1 -->
      <g style="fill: #262626" transform="translate(255.894311 203.236563) scale(0.1 -0.1)">
       <use xlink:href="#DejaVuSans-31"/>
       <use xlink:href="#DejaVuSans-2e" x="63.623047"/>
       <use xlink:href="#DejaVuSans-31" x="95.410156"/>
      </g>
     </g>
    </g>
    <g id="xtick_8">
     <g id="text_8">
      <!-- 1.9 -->
      <g style="fill: #262626" transform="translate(291.511333 203.236563) scale(0.1 -0.1)">
       <use xlink:href="#DejaVuSans-31"/>
       <use xlink:href="#DejaVuSans-2e" x="63.623047"/>
       <use xlink:href="#DejaVuSans-39" x="95.410156"/>
      </g>
     </g>
    </g>
    <g id="xtick_9">
     <g id="text_9">
      <!-- 4.0 -->
      <g style="fill: #262626" transform="translate(376.992188 203.236563) scale(0.1 -0.1)">
       <use xlink:href="#DejaVuSans-34"/>
       <use xlink:href="#DejaVuSans-2e" x="63.623047"/>
       <use xlink:href="#DejaVuSans-30" x="95.410156"/>
      </g>
     </g>
    </g>
    <g id="text_10">
     <!-- z -->
     <g style="fill: #262626" transform="translate(214.919531 216.914688) scale(0.1 -0.1)">
      <defs>
       <path id="DejaVuSans-7a" d="M 353 3500 
L 3084 3500 
L 3084 2975 
L 922 459 
L 3084 459 
L 3084 0 
L 275 0 
L 275 525 
L 2438 3041 
L 353 3041 
L 353 3500 
z
" transform="scale(0.015625)"/>
      </defs>
      <use xlink:href="#DejaVuSans-7a"/>
     </g>
    </g>
   </g>
   <g id="matplotlib.axis_2">
    <g id="ytick_1">
     <g id="text_11">
      <!-- 0.00 -->
      <g style="fill: #262626" transform="translate(20.878125 192.437344) scale(0.1 -0.1)">
       <use xlink:href="#DejaVuSans-30"/>
       <use xlink:href="#DejaVuSans-2e" x="63.623047"/>
       <use xlink:href="#DejaVuSans-30" x="95.410156"/>
       <use xlink:href="#DejaVuSans-30" x="159.033203"/>
      </g>
     </g>
    </g>
    <g id="ytick_2">
     <g id="text_12">
      <!-- 0.05 -->
      <g style="fill: #262626" transform="translate(20.878125 162.197344) scale(0.1 -0.1)">
       <use xlink:href="#DejaVuSans-30"/>
       <use xlink:href="#DejaVuSans-2e" x="63.623047"/>
       <use xlink:href="#DejaVuSans-30" x="95.410156"/>
       <use xlink:href="#DejaVuSans-35" x="159.033203"/>
      </g>
     </g>
    </g>
    <g id="ytick_3">
     <g id="text_13">
      <!-- 0.10 -->
      <g style="fill: #262626" transform="translate(20.878125 131.957345) scale(0.1 -0.1)">
       <use xlink:href="#DejaVuSans-30"/>
       <use xlink:href="#DejaVuSans-2e" x="63.623047"/>
       <use xlink:href="#DejaVuSans-31" x="95.410156"/>
       <use xlink:href="#DejaVuSans-30" x="159.033203"/>
      </g>
     </g>
    </g>
    <g id="ytick_4">
     <g id="text_14">
      <!-- 0.15 -->
      <g style="fill: #262626" transform="translate(20.878125 101.717346) scale(0.1 -0.1)">
       <use xlink:href="#DejaVuSans-30"/>
       <use xlink:href="#DejaVuSans-2e" x="63.623047"/>
       <use xlink:href="#DejaVuSans-31" x="95.410156"/>
       <use xlink:href="#DejaVuSans-35" x="159.033203"/>
      </g>
     </g>
    </g>
    <g id="ytick_5">
     <g id="text_15">
      <!-- 0.20 -->
      <g style="fill: #262626" transform="translate(20.878125 71.477346) scale(0.1 -0.1)">
       <defs>
        <path id="DejaVuSans-32" d="M 1228 531 
L 3431 531 
L 3431 0 
L 469 0 
L 469 531 
Q 828 903 1448 1529 
Q 2069 2156 2228 2338 
Q 2531 2678 2651 2914 
Q 2772 3150 2772 3378 
Q 2772 3750 2511 3984 
Q 2250 4219 1831 4219 
Q 1534 4219 1204 4116 
Q 875 4013 500 3803 
L 500 4441 
Q 881 4594 1212 4672 
Q 1544 4750 1819 4750 
Q 2544 4750 2975 4387 
Q 3406 4025 3406 3419 
Q 3406 3131 3298 2873 
Q 3191 2616 2906 2266 
Q 2828 2175 2409 1742 
Q 1991 1309 1228 531 
z
" transform="scale(0.015625)"/>
       </defs>
       <use xlink:href="#DejaVuSans-30"/>
       <use xlink:href="#DejaVuSans-2e" x="63.623047"/>
       <use xlink:href="#DejaVuSans-32" x="95.410156"/>
       <use xlink:href="#DejaVuSans-30" x="159.033203"/>
      </g>
     </g>
    </g>
    <g id="ytick_6">
     <g id="text_16">
      <!-- 0.25 -->
      <g style="fill: #262626" transform="translate(20.878125 41.237347) scale(0.1 -0.1)">
       <use xlink:href="#DejaVuSans-30"/>
       <use xlink:href="#DejaVuSans-2e" x="63.623047"/>
       <use xlink:href="#DejaVuSans-32" x="95.410156"/>
       <use xlink:href="#DejaVuSans-35" x="159.033203"/>
      </g>
     </g>
    </g>
    <g id="text_17">
     <!-- Probability -->
     <g style="fill: #262626" transform="translate(14.798438 131.907031) rotate(-90) scale(0.1 -0.1)">
      <defs>
       <path id="DejaVuSans-50" d="M 1259 4147 
L 1259 2394 
L 2053 2394 
Q 2494 2394 2734 2622 
Q 2975 2850 2975 3272 
Q 2975 3691 2734 3919 
Q 2494 4147 2053 4147 
L 1259 4147 
z
M 628 4666 
L 2053 4666 
Q 2838 4666 3239 4311 
Q 3641 3956 3641 3272 
Q 3641 2581 3239 2228 
Q 2838 1875 2053 1875 
L 1259 1875 
L 1259 0 
L 628 0 
L 628 4666 
z
" transform="scale(0.015625)"/>
       <path id="DejaVuSans-72" d="M 2631 2963 
Q 2534 3019 2420 3045 
Q 2306 3072 2169 3072 
Q 1681 3072 1420 2755 
Q 1159 2438 1159 1844 
L 1159 0 
L 581 0 
L 581 3500 
L 1159 3500 
L 1159 2956 
Q 1341 3275 1631 3429 
Q 1922 3584 2338 3584 
Q 2397 3584 2469 3576 
Q 2541 3569 2628 3553 
L 2631 2963 
z
" transform="scale(0.015625)"/>
       <path id="DejaVuSans-6f" d="M 1959 3097 
Q 1497 3097 1228 2736 
Q 959 2375 959 1747 
Q 959 1119 1226 758 
Q 1494 397 1959 397 
Q 2419 397 2687 759 
Q 2956 1122 2956 1747 
Q 2956 2369 2687 2733 
Q 2419 3097 1959 3097 
z
M 1959 3584 
Q 2709 3584 3137 3096 
Q 3566 2609 3566 1747 
Q 3566 888 3137 398 
Q 2709 -91 1959 -91 
Q 1206 -91 779 398 
Q 353 888 353 1747 
Q 353 2609 779 3096 
Q 1206 3584 1959 3584 
z
" transform="scale(0.015625)"/>
       <path id="DejaVuSans-62" d="M 3116 1747 
Q 3116 2381 2855 2742 
Q 2594 3103 2138 3103 
Q 1681 3103 1420 2742 
Q 1159 2381 1159 1747 
Q 1159 1113 1420 752 
Q 1681 391 2138 391 
Q 2594 391 2855 752 
Q 3116 1113 3116 1747 
z
M 1159 2969 
Q 1341 3281 1617 3432 
Q 1894 3584 2278 3584 
Q 2916 3584 3314 3078 
Q 3713 2572 3713 1747 
Q 3713 922 3314 415 
Q 2916 -91 2278 -91 
Q 1894 -91 1617 61 
Q 1341 213 1159 525 
L 1159 0 
L 581 0 
L 581 4863 
L 1159 4863 
L 1159 2969 
z
" transform="scale(0.015625)"/>
       <path id="DejaVuSans-61" d="M 2194 1759 
Q 1497 1759 1228 1600 
Q 959 1441 959 1056 
Q 959 750 1161 570 
Q 1363 391 1709 391 
Q 2188 391 2477 730 
Q 2766 1069 2766 1631 
L 2766 1759 
L 2194 1759 
z
M 3341 1997 
L 3341 0 
L 2766 0 
L 2766 531 
Q 2569 213 2275 61 
Q 1981 -91 1556 -91 
Q 1019 -91 701 211 
Q 384 513 384 1019 
Q 384 1609 779 1909 
Q 1175 2209 1959 2209 
L 2766 2209 
L 2766 2266 
Q 2766 2663 2505 2880 
Q 2244 3097 1772 3097 
Q 1472 3097 1187 3025 
Q 903 2953 641 2809 
L 641 3341 
Q 956 3463 1253 3523 
Q 1550 3584 1831 3584 
Q 2591 3584 2966 3190 
Q 3341 2797 3341 1997 
z
" transform="scale(0.015625)"/>
       <path id="DejaVuSans-69" d="M 603 3500 
L 1178 3500 
L 1178 0 
L 603 0 
L 603 3500 
z
M 603 4863 
L 1178 4863 
L 1178 4134 
L 603 4134 
L 603 4863 
z
" transform="scale(0.015625)"/>
       <path id="DejaVuSans-6c" d="M 603 4863 
L 1178 4863 
L 1178 0 
L 603 0 
L 603 4863 
z
" transform="scale(0.015625)"/>
       <path id="DejaVuSans-74" d="M 1172 4494 
L 1172 3500 
L 2356 3500 
L 2356 3053 
L 1172 3053 
L 1172 1153 
Q 1172 725 1289 603 
Q 1406 481 1766 481 
L 2356 481 
L 2356 0 
L 1766 0 
Q 1100 0 847 248 
Q 594 497 594 1153 
L 594 3053 
L 172 3053 
L 172 3500 
L 594 3500 
L 594 4494 
L 1172 4494 
z
" transform="scale(0.015625)"/>
       <path id="DejaVuSans-79" d="M 2059 -325 
Q 1816 -950 1584 -1140 
Q 1353 -1331 966 -1331 
L 506 -1331 
L 506 -850 
L 844 -850 
Q 1081 -850 1212 -737 
Q 1344 -625 1503 -206 
L 1606 56 
L 191 3500 
L 800 3500 
L 1894 763 
L 2988 3500 
L 3597 3500 
L 2059 -325 
z
" transform="scale(0.015625)"/>
      </defs>
      <use xlink:href="#DejaVuSans-50"/>
      <use xlink:href="#DejaVuSans-72" x="58.552734"/>
      <use xlink:href="#DejaVuSans-6f" x="97.416016"/>
      <use xlink:href="#DejaVuSans-62" x="158.597656"/>
      <use xlink:href="#DejaVuSans-61" x="222.074219"/>
      <use xlink:href="#DejaVuSans-62" x="283.353516"/>
      <use xlink:href="#DejaVuSans-69" x="346.830078"/>
      <use xlink:href="#DejaVuSans-6c" x="374.613281"/>
      <use xlink:href="#DejaVuSans-69" x="402.396484"/>
      <use xlink:href="#DejaVuSans-74" x="430.179688"/>
      <use xlink:href="#DejaVuSans-79" x="469.388672"/>
     </g>
    </g>
   </g>
   <g id="PolyCollection_1">
    <defs>
     <path id="m162a00545a" d="M 50.14375 -37.55625 
L 50.14375 -48.238657 
L 50.562773 -48.342109 
L 50.981797 -48.446538 
L 51.40082 -48.551936 
L 51.819844 -48.658306 
L 52.238867 -48.765665 
L 52.65789 -48.874031 
L 53.076914 -48.983389 
L 53.495937 -49.093765 
L 53.91496 -49.205164 
L 54.333984 -49.317593 
L 54.753007 -49.431061 
L 55.172031 -49.545573 
L 55.591054 -49.661149 
L 56.010077 -49.777786 
L 56.429101 -49.895495 
L 56.848134 -50.014286 
L 57.267157 -50.134177 
L 57.686181 -50.25516 
L 58.105204 -50.377258 
L 58.524228 -50.500469 
L 58.943251 -50.624814 
L 59.362274 -50.750296 
L 59.781298 -50.87692 
L 60.200321 -51.004708 
L 60.619344 -51.133657 
L 61.038368 -51.263777 
L 61.457391 -51.395085 
L 61.876415 -51.527584 
L 62.295438 -51.66129 
L 62.714461 -51.796209 
L 63.133485 -51.93235 
L 63.552508 -52.069722 
L 63.971532 -52.208344 
L 64.390555 -52.348207 
L 64.809578 -52.48934 
L 65.228602 -52.631741 
L 65.647625 -52.775426 
L 66.066648 -52.920401 
L 66.485672 -53.066683 
L 66.904705 -53.21428 
L 67.323729 -53.363193 
L 67.742752 -53.51344 
L 68.161775 -53.66503 
L 68.580799 -53.817968 
L 68.999822 -53.972278 
L 69.418845 -54.127959 
L 69.837869 -54.285027 
L 70.256892 -54.443489 
L 70.675916 -54.603354 
L 71.094939 -54.764641 
L 71.513962 -54.927348 
L 71.932986 -55.0915 
L 72.352009 -55.257093 
L 72.771032 -55.424149 
L 73.190056 -55.592677 
L 73.609079 -55.762684 
L 74.028103 -55.934186 
L 74.447126 -56.10718 
L 74.866149 -56.281696 
L 75.285173 -56.457737 
L 75.704196 -56.635313 
L 76.12322 -56.81444 
L 76.542243 -56.995117 
L 76.961276 -57.177374 
L 77.3803 -57.361201 
L 77.799323 -57.546627 
L 78.218346 -57.733646 
L 78.63737 -57.922288 
L 79.056393 -58.112545 
L 79.475417 -58.304442 
L 79.89444 -58.497991 
L 80.313463 -58.693205 
L 80.732487 -58.890075 
L 81.15151 -59.088634 
L 81.570533 -59.288886 
L 81.989557 -59.490845 
L 82.40858 -59.69451 
L 82.827604 -59.899908 
L 83.246627 -60.107049 
L 83.66565 -60.315948 
L 84.084674 -60.526595 
L 84.503697 -60.739015 
L 84.92272 -60.953234 
L 85.341744 -61.169238 
L 85.760767 -61.387057 
L 86.179791 -61.606689 
L 86.598814 -61.828149 
L 87.017847 -62.051467 
L 87.436871 -62.276633 
L 87.855894 -62.503656 
L 88.274918 -62.732571 
L 88.693941 -62.963367 
L 89.112964 -63.19606 
L 89.531988 -63.430662 
L 89.951011 -63.667199 
L 90.370034 -63.90566 
L 90.789058 -64.14607 
L 91.208081 -64.388442 
L 91.627105 -64.63278 
L 92.046128 -64.879095 
L 92.465151 -65.1274 
L 92.884175 -65.37771 
L 93.303198 -65.630038 
L 93.722221 -65.884386 
L 94.141245 -66.140777 
L 94.560268 -66.399216 
L 94.979292 -66.659712 
L 95.398315 -66.922281 
L 95.817338 -67.186936 
L 96.236362 -67.453677 
L 96.655385 -67.722519 
L 97.074408 -67.993471 
L 97.493432 -68.26655 
L 97.912455 -68.541768 
L 98.331479 -68.819126 
L 98.750502 -69.098651 
L 99.169525 -69.380326 
L 99.588549 -69.664193 
L 100.007572 -69.950254 
L 100.426606 -70.238497 
L 100.845629 -70.528967 
L 101.264652 -70.821637 
L 101.683676 -71.116537 
L 102.102699 -71.413681 
L 102.521722 -71.713081 
L 102.940746 -72.014734 
L 103.359769 -72.318653 
L 103.778793 -72.624852 
L 104.197816 -72.933343 
L 104.616839 -73.24412 
L 105.035863 -73.5572 
L 105.454886 -73.872594 
L 105.873909 -74.190313 
L 106.292933 -74.510371 
L 106.711956 -74.832765 
L 107.13098 -75.157505 
L 107.550003 -75.484619 
L 107.969026 -75.81407 
L 108.38805 -76.145923 
L 108.807073 -76.480136 
L 109.226096 -76.816756 
L 109.64512 -77.155756 
L 110.064143 -77.49717 
L 110.483177 -77.841 
L 110.9022 -78.187259 
L 111.321223 -78.535928 
L 111.740247 -78.887012 
L 112.15927 -79.240553 
L 112.578294 -79.596554 
L 112.997317 -79.954965 
L 113.41634 -80.315869 
L 113.835364 -80.679224 
L 114.254387 -81.045043 
L 114.67341 -81.413337 
L 115.092434 -81.784099 
L 115.511457 -82.157359 
L 115.930481 -82.533101 
L 116.349504 -82.911317 
L 116.768527 -83.292038 
L 117.187551 -83.675274 
L 117.606574 -84.060988 
L 118.025597 -84.449234 
L 118.444621 -84.839955 
L 118.863644 -85.233208 
L 119.282668 -85.62897 
L 119.701691 -86.027234 
L 120.120714 -86.42803 
L 120.539748 -86.831349 
L 120.958771 -87.237179 
L 121.377794 -87.645518 
L 121.796818 -88.056394 
L 122.215841 -88.469794 
L 122.634865 -88.88569 
L 123.053888 -89.304123 
L 123.472911 -89.725048 
L 123.891935 -90.148518 
L 124.310958 -90.57449 
L 124.729982 -91.002994 
L 125.149005 -91.433986 
L 125.568028 -91.867496 
L 125.987052 -92.303499 
L 126.406075 -92.742006 
L 126.825098 -93.183015 
L 127.244122 -93.626533 
L 127.663145 -94.072508 
L 128.082169 -94.521001 
L 128.501192 -94.971954 
L 128.920215 -95.425377 
L 129.339239 -95.881265 
L 129.758262 -96.3396 
L 130.177285 -96.800404 
L 130.596319 -97.263636 
L 131.015342 -97.729302 
L 131.434366 -98.197411 
L 131.853389 -98.667912 
L 132.272412 -99.140828 
L 132.691436 -99.616164 
L 133.110459 -100.093857 
L 133.529482 -100.573929 
L 133.948506 -101.056358 
L 134.367529 -101.54117 
L 134.786553 -102.028267 
L 135.205576 -102.517708 
L 135.624599 -103.009491 
L 136.043623 -103.503523 
L 136.043623 -37.55625 
L 136.043623 -37.55625 
L 135.624599 -37.55625 
L 135.205576 -37.55625 
L 134.786553 -37.55625 
L 134.367529 -37.55625 
L 133.948506 -37.55625 
L 133.529482 -37.55625 
L 133.110459 -37.55625 
L 132.691436 -37.55625 
L 132.272412 -37.55625 
L 131.853389 -37.55625 
L 131.434366 -37.55625 
L 131.015342 -37.55625 
L 130.596319 -37.55625 
L 130.177285 -37.55625 
L 129.758262 -37.55625 
L 129.339239 -37.55625 
L 128.920215 -37.55625 
L 128.501192 -37.55625 
L 128.082169 -37.55625 
L 127.663145 -37.55625 
L 127.244122 -37.55625 
L 126.825098 -37.55625 
L 126.406075 -37.55625 
L 125.987052 -37.55625 
L 125.568028 -37.55625 
L 125.149005 -37.55625 
L 124.729982 -37.55625 
L 124.310958 -37.55625 
L 123.891935 -37.55625 
L 123.472911 -37.55625 
L 123.053888 -37.55625 
L 122.634865 -37.55625 
L 122.215841 -37.55625 
L 121.796818 -37.55625 
L 121.377794 -37.55625 
L 120.958771 -37.55625 
L 120.539748 -37.55625 
L 120.120714 -37.55625 
L 119.701691 -37.55625 
L 119.282668 -37.55625 
L 118.863644 -37.55625 
L 118.444621 -37.55625 
L 118.025597 -37.55625 
L 117.606574 -37.55625 
L 117.187551 -37.55625 
L 116.768527 -37.55625 
L 116.349504 -37.55625 
L 115.930481 -37.55625 
L 115.511457 -37.55625 
L 115.092434 -37.55625 
L 114.67341 -37.55625 
L 114.254387 -37.55625 
L 113.835364 -37.55625 
L 113.41634 -37.55625 
L 112.997317 -37.55625 
L 112.578294 -37.55625 
L 112.15927 -37.55625 
L 111.740247 -37.55625 
L 111.321223 -37.55625 
L 110.9022 -37.55625 
L 110.483177 -37.55625 
L 110.064143 -37.55625 
L 109.64512 -37.55625 
L 109.226096 -37.55625 
L 108.807073 -37.55625 
L 108.38805 -37.55625 
L 107.969026 -37.55625 
L 107.550003 -37.55625 
L 107.13098 -37.55625 
L 106.711956 -37.55625 
L 106.292933 -37.55625 
L 105.873909 -37.55625 
L 105.454886 -37.55625 
L 105.035863 -37.55625 
L 104.616839 -37.55625 
L 104.197816 -37.55625 
L 103.778793 -37.55625 
L 103.359769 -37.55625 
L 102.940746 -37.55625 
L 102.521722 -37.55625 
L 102.102699 -37.55625 
L 101.683676 -37.55625 
L 101.264652 -37.55625 
L 100.845629 -37.55625 
L 100.426606 -37.55625 
L 100.007572 -37.55625 
L 99.588549 -37.55625 
L 99.169525 -37.55625 
L 98.750502 -37.55625 
L 98.331479 -37.55625 
L 97.912455 -37.55625 
L 97.493432 -37.55625 
L 97.074408 -37.55625 
L 96.655385 -37.55625 
L 96.236362 -37.55625 
L 95.817338 -37.55625 
L 95.398315 -37.55625 
L 94.979292 -37.55625 
L 94.560268 -37.55625 
L 94.141245 -37.55625 
L 93.722221 -37.55625 
L 93.303198 -37.55625 
L 92.884175 -37.55625 
L 92.465151 -37.55625 
L 92.046128 -37.55625 
L 91.627105 -37.55625 
L 91.208081 -37.55625 
L 90.789058 -37.55625 
L 90.370034 -37.55625 
L 89.951011 -37.55625 
L 89.531988 -37.55625 
L 89.112964 -37.55625 
L 88.693941 -37.55625 
L 88.274918 -37.55625 
L 87.855894 -37.55625 
L 87.436871 -37.55625 
L 87.017847 -37.55625 
L 86.598814 -37.55625 
L 86.179791 -37.55625 
L 85.760767 -37.55625 
L 85.341744 -37.55625 
L 84.92272 -37.55625 
L 84.503697 -37.55625 
L 84.084674 -37.55625 
L 83.66565 -37.55625 
L 83.246627 -37.55625 
L 82.827604 -37.55625 
L 82.40858 -37.55625 
L 81.989557 -37.55625 
L 81.570533 -37.55625 
L 81.15151 -37.55625 
L 80.732487 -37.55625 
L 80.313463 -37.55625 
L 79.89444 -37.55625 
L 79.475417 -37.55625 
L 79.056393 -37.55625 
L 78.63737 -37.55625 
L 78.218346 -37.55625 
L 77.799323 -37.55625 
L 77.3803 -37.55625 
L 76.961276 -37.55625 
L 76.542243 -37.55625 
L 76.12322 -37.55625 
L 75.704196 -37.55625 
L 75.285173 -37.55625 
L 74.866149 -37.55625 
L 74.447126 -37.55625 
L 74.028103 -37.55625 
L 73.609079 -37.55625 
L 73.190056 -37.55625 
L 72.771032 -37.55625 
L 72.352009 -37.55625 
L 71.932986 -37.55625 
L 71.513962 -37.55625 
L 71.094939 -37.55625 
L 70.675916 -37.55625 
L 70.256892 -37.55625 
L 69.837869 -37.55625 
L 69.418845 -37.55625 
L 68.999822 -37.55625 
L 68.580799 -37.55625 
L 68.161775 -37.55625 
L 67.742752 -37.55625 
L 67.323729 -37.55625 
L 66.904705 -37.55625 
L 66.485672 -37.55625 
L 66.066648 -37.55625 
L 65.647625 -37.55625 
L 65.228602 -37.55625 
L 64.809578 -37.55625 
L 64.390555 -37.55625 
L 63.971532 -37.55625 
L 63.552508 -37.55625 
L 63.133485 -37.55625 
L 62.714461 -37.55625 
L 62.295438 -37.55625 
L 61.876415 -37.55625 
L 61.457391 -37.55625 
L 61.038368 -37.55625 
L 60.619344 -37.55625 
L 60.200321 -37.55625 
L 59.781298 -37.55625 
L 59.362274 -37.55625 
L 58.943251 -37.55625 
L 58.524228 -37.55625 
L 58.105204 -37.55625 
L 57.686181 -37.55625 
L 57.267157 -37.55625 
L 56.848134 -37.55625 
L 56.429101 -37.55625 
L 56.010077 -37.55625 
L 55.591054 -37.55625 
L 55.172031 -37.55625 
L 54.753007 -37.55625 
L 54.333984 -37.55625 
L 53.91496 -37.55625 
L 53.495937 -37.55625 
L 53.076914 -37.55625 
L 52.65789 -37.55625 
L 52.238867 -37.55625 
L 51.819844 -37.55625 
L 51.40082 -37.55625 
L 50.981797 -37.55625 
L 50.562773 -37.55625 
L 50.14375 -37.55625 
z
" style="stroke: #1f77b4; stroke-opacity: 0.5"/>
    </defs>
    <g clip-path="url(#p36f98d5c34)">
     <use xlink:href="#m162a00545a" x="0" y="226.194375" style="fill: #1f77b4; fill-opacity: 0.5; stroke: #1f77b4; stroke-opacity: 0.5"/>
    </g>
   </g>
   <g id="PolyCollection_2">
    <defs>
     <path id="m3a09c4f47d" d="M 136.462646 -37.55625 
L 136.462646 -103.999858 
L 136.881674 -104.498472 
L 137.300698 -104.999318 
L 137.719721 -105.502389 
L 138.138745 -106.007677 
L 138.557768 -106.515146 
L 138.976791 -107.024819 
L 139.395815 -107.536623 
L 139.814838 -108.050622 
L 140.233867 -108.566698 
L 140.652885 -109.084882 
L 141.071908 -109.605135 
L 141.490932 -110.127434 
L 141.909955 -110.651783 
L 142.328978 -111.17816 
L 142.748002 -111.706493 
L 143.167025 -112.236799 
L 143.586054 -112.769034 
L 144.005077 -113.303184 
L 144.4241 -113.839213 
L 144.843124 -114.37708 
L 145.262147 -114.916804 
L 145.68117 -115.458312 
L 146.100194 -116.001587 
L 146.519217 -116.546601 
L 146.938246 -117.093319 
L 147.357269 -117.641757 
L 147.776292 -118.191782 
L 148.195316 -118.743457 
L 148.614339 -119.29669 
L 149.033362 -119.851482 
L 149.452386 -120.407789 
L 149.871409 -120.965564 
L 150.290438 -121.524791 
L 150.709456 -122.085396 
L 151.128479 -122.647371 
L 151.547503 -123.210662 
L 151.966526 -123.775269 
L 152.38555 -124.341101 
L 152.804573 -124.908141 
L 153.223596 -125.476353 
L 153.642625 -126.045718 
L 154.061648 -126.616128 
L 154.480671 -127.187584 
L 154.899695 -127.760023 
L 155.318718 -128.333407 
L 155.737742 -128.90772 
L 156.156765 -129.48288 
L 156.575788 -130.058833 
L 156.994817 -130.63557 
L 157.413835 -131.213001 
L 157.832858 -131.791081 
L 158.251882 -132.36981 
L 158.670905 -132.949071 
L 159.089929 -133.528872 
L 159.508952 -134.109115 
L 159.927975 -134.689754 
L 160.347004 -135.270781 
L 160.766027 -135.852088 
L 161.18505 -136.433646 
L 161.604074 -137.015394 
L 162.023097 -137.59725 
L 162.442121 -138.179197 
L 162.861144 -138.761179 
L 163.280167 -139.343098 
L 163.699196 -139.924918 
L 164.118219 -140.506585 
L 164.537243 -141.088036 
L 164.956266 -141.669207 
L 165.375289 -142.250008 
L 165.794313 -142.830432 
L 166.213336 -143.410386 
L 166.632359 -143.9898 
L 167.051388 -144.568628 
L 167.470406 -145.146807 
L 167.88943 -145.724256 
L 168.308453 -146.300894 
L 168.727476 -146.876685 
L 169.1465 -147.451548 
L 169.565523 -148.025437 
L 169.984546 -148.598263 
L 170.403575 -149.169944 
L 170.822598 -149.740445 
L 171.241622 -150.309666 
L 171.660645 -150.877562 
L 171.660645 -37.55625 
L 171.660645 -37.55625 
L 171.241622 -37.55625 
L 170.822598 -37.55625 
L 170.403575 -37.55625 
L 169.984546 -37.55625 
L 169.565523 -37.55625 
L 169.1465 -37.55625 
L 168.727476 -37.55625 
L 168.308453 -37.55625 
L 167.88943 -37.55625 
L 167.470406 -37.55625 
L 167.051388 -37.55625 
L 166.632359 -37.55625 
L 166.213336 -37.55625 
L 165.794313 -37.55625 
L 165.375289 -37.55625 
L 164.956266 -37.55625 
L 164.537243 -37.55625 
L 164.118219 -37.55625 
L 163.699196 -37.55625 
L 163.280167 -37.55625 
L 162.861144 -37.55625 
L 162.442121 -37.55625 
L 162.023097 -37.55625 
L 161.604074 -37.55625 
L 161.18505 -37.55625 
L 160.766027 -37.55625 
L 160.347004 -37.55625 
L 159.927975 -37.55625 
L 159.508952 -37.55625 
L 159.089929 -37.55625 
L 158.670905 -37.55625 
L 158.251882 -37.55625 
L 157.832858 -37.55625 
L 157.413835 -37.55625 
L 156.994817 -37.55625 
L 156.575788 -37.55625 
L 156.156765 -37.55625 
L 155.737742 -37.55625 
L 155.318718 -37.55625 
L 154.899695 -37.55625 
L 154.480671 -37.55625 
L 154.061648 -37.55625 
L 153.642625 -37.55625 
L 153.223596 -37.55625 
L 152.804573 -37.55625 
L 152.38555 -37.55625 
L 151.966526 -37.55625 
L 151.547503 -37.55625 
L 151.128479 -37.55625 
L 150.709456 -37.55625 
L 150.290438 -37.55625 
L 149.871409 -37.55625 
L 149.452386 -37.55625 
L 149.033362 -37.55625 
L 148.614339 -37.55625 
L 148.195316 -37.55625 
L 147.776292 -37.55625 
L 147.357269 -37.55625 
L 146.938246 -37.55625 
L 146.519217 -37.55625 
L 146.100194 -37.55625 
L 145.68117 -37.55625 
L 145.262147 -37.55625 
L 144.843124 -37.55625 
L 144.4241 -37.55625 
L 144.005077 -37.55625 
L 143.586054 -37.55625 
L 143.167025 -37.55625 
L 142.748002 -37.55625 
L 142.328978 -37.55625 
L 141.909955 -37.55625 
L 141.490932 -37.55625 
L 141.071908 -37.55625 
L 140.652885 -37.55625 
L 140.233867 -37.55625 
L 139.814838 -37.55625 
L 139.395815 -37.55625 
L 138.976791 -37.55625 
L 138.557768 -37.55625 
L 138.138745 -37.55625 
L 137.719721 -37.55625 
L 137.300698 -37.55625 
L 136.881674 -37.55625 
L 136.462646 -37.55625 
z
" style="stroke: #ff7f0e; stroke-opacity: 0.5"/>
    </defs>
    <g clip-path="url(#p36f98d5c34)">
     <use xlink:href="#m3a09c4f47d" x="0" y="226.194375" style="fill: #ff7f0e; fill-opacity: 0.5; stroke: #ff7f0e; stroke-opacity: 0.5"/>
    </g>
   </g>
   <g id="PolyCollection_3">
    <defs>
     <path id="m8cf8301fa4" d="M 172.079668 -37.55625 
L 172.079668 -151.444025 
L 172.498692 -152.009037 
L 172.917715 -152.57249 
L 173.336738 -153.134303 
L 173.755767 -153.694449 
L 174.17479 -154.252819 
L 174.593814 -154.809342 
L 175.012837 -155.363945 
L 175.43186 -155.916593 
L 175.850886 -156.467158 
L 176.26991 -157.015588 
L 176.688933 -157.561792 
L 177.107956 -158.105724 
L 177.52698 -158.647305 
L 177.946003 -159.186416 
L 178.365027 -159.723031 
L 178.78405 -160.257068 
L 179.203076 -160.788429 
L 179.622099 -161.317032 
L 180.041123 -161.842841 
L 180.460146 -162.36573 
L 180.879169 -162.885681 
L 181.298193 -163.40255 
L 181.717216 -163.916301 
L 182.136239 -164.426861 
L 182.555265 -164.934123 
L 182.974289 -165.438005 
L 183.393312 -165.93849 
L 183.812335 -166.43546 
L 184.231359 -166.928843 
L 184.650382 -167.418531 
L 185.069406 -167.904479 
L 185.488429 -168.386606 
L 185.907455 -168.864876 
L 186.326478 -169.339144 
L 186.745502 -169.809357 
L 187.164525 -170.27546 
L 187.583548 -170.737327 
L 188.002572 -171.194941 
L 188.421595 -171.64821 
L 188.840619 -172.097019 
L 189.259644 -172.541349 
L 189.678668 -172.9811 
L 190.097691 -173.416201 
L 190.516715 -173.846553 
L 190.93574 -174.272119 
L 191.354764 -174.6928 
L 191.773787 -175.108561 
L 192.192811 -175.519311 
L 192.611836 -175.924933 
L 193.03086 -176.325445 
L 193.449883 -176.720713 
L 193.868907 -177.110689 
L 194.28793 -177.495277 
L 194.706953 -177.874475 
L 195.125977 -178.248158 
L 195.545 -178.616235 
L 195.964026 -178.978725 
L 195.964026 -37.55625 
L 195.964026 -37.55625 
L 195.545 -37.55625 
L 195.125977 -37.55625 
L 194.706953 -37.55625 
L 194.28793 -37.55625 
L 193.868907 -37.55625 
L 193.449883 -37.55625 
L 193.03086 -37.55625 
L 192.611836 -37.55625 
L 192.192811 -37.55625 
L 191.773787 -37.55625 
L 191.354764 -37.55625 
L 190.93574 -37.55625 
L 190.516715 -37.55625 
L 190.097691 -37.55625 
L 189.678668 -37.55625 
L 189.259644 -37.55625 
L 188.840619 -37.55625 
L 188.421595 -37.55625 
L 188.002572 -37.55625 
L 187.583548 -37.55625 
L 187.164525 -37.55625 
L 186.745502 -37.55625 
L 186.326478 -37.55625 
L 185.907455 -37.55625 
L 185.488429 -37.55625 
L 185.069406 -37.55625 
L 184.650382 -37.55625 
L 184.231359 -37.55625 
L 183.812335 -37.55625 
L 183.393312 -37.55625 
L 182.974289 -37.55625 
L 182.555265 -37.55625 
L 182.136239 -37.55625 
L 181.717216 -37.55625 
L 181.298193 -37.55625 
L 180.879169 -37.55625 
L 180.460146 -37.55625 
L 180.041123 -37.55625 
L 179.622099 -37.55625 
L 179.203076 -37.55625 
L 178.78405 -37.55625 
L 178.365027 -37.55625 
L 177.946003 -37.55625 
L 177.52698 -37.55625 
L 177.107956 -37.55625 
L 176.688933 -37.55625 
L 176.26991 -37.55625 
L 175.850886 -37.55625 
L 175.43186 -37.55625 
L 175.012837 -37.55625 
L 174.593814 -37.55625 
L 174.17479 -37.55625 
L 173.755767 -37.55625 
L 173.336738 -37.55625 
L 172.917715 -37.55625 
L 172.498692 -37.55625 
L 172.079668 -37.55625 
z
" style="stroke: #2ca02c; stroke-opacity: 0.5"/>
    </defs>
    <g clip-path="url(#p36f98d5c34)">
     <use xlink:href="#m8cf8301fa4" x="0" y="226.194375" style="fill: #2ca02c; fill-opacity: 0.5; stroke: #2ca02c; stroke-opacity: 0.5"/>
    </g>
   </g>
   <g id="PolyCollection_4">
    <defs>
     <path id="mfcde3b88ea" d="M 196.383049 -37.55625 
L 196.383049 -179.335492 
L 196.802073 -179.686491 
L 197.221096 -180.031668 
L 197.640121 -180.370969 
L 198.059144 -180.704304 
L 198.478169 -181.031601 
L 198.897192 -181.352859 
L 199.316216 -181.667999 
L 199.73524 -181.976911 
L 200.154264 -182.279559 
L 200.573287 -182.575935 
L 200.99231 -182.865948 
L 201.411334 -183.149527 
L 201.830358 -183.426653 
L 202.249382 -183.697254 
L 202.668405 -183.961267 
L 203.08743 -184.218665 
L 203.506453 -184.469412 
L 203.925476 -184.713418 
L 204.344501 -184.950647 
L 204.763524 -185.181071 
L 205.182549 -185.404637 
L 205.601572 -185.6213 
L 206.020596 -185.831033 
L 206.43962 -186.033772 
L 206.858644 -186.229481 
L 207.277667 -186.418143 
L 207.696691 -186.599703 
L 208.115715 -186.774135 
L 208.534739 -186.941383 
L 208.953763 -187.101441 
L 209.372787 -187.254279 
L 209.79181 -187.399826 
L 210.210834 -187.53811 
L 210.629857 -187.669066 
L 211.048881 -187.792678 
L 211.467905 -187.908918 
L 211.886929 -188.017776 
L 212.305953 -188.119218 
L 212.724976 -188.213224 
L 213.144 -188.299805 
L 213.563024 -188.378869 
L 213.982048 -188.45048 
L 214.401072 -188.514584 
L 214.820095 -188.571181 
L 215.239119 -188.620225 
L 215.658143 -188.661772 
L 216.077167 -188.695766 
L 216.49619 -188.722235 
L 216.915214 -188.741124 
L 217.334238 -188.752462 
L 217.334238 -37.55625 
L 217.334238 -37.55625 
L 216.915214 -37.55625 
L 216.49619 -37.55625 
L 216.077167 -37.55625 
L 215.658143 -37.55625 
L 215.239119 -37.55625 
L 214.820095 -37.55625 
L 214.401072 -37.55625 
L 213.982048 -37.55625 
L 213.563024 -37.55625 
L 213.144 -37.55625 
L 212.724976 -37.55625 
L 212.305953 -37.55625 
L 211.886929 -37.55625 
L 211.467905 -37.55625 
L 211.048881 -37.55625 
L 210.629857 -37.55625 
L 210.210834 -37.55625 
L 209.79181 -37.55625 
L 209.372787 -37.55625 
L 208.953763 -37.55625 
L 208.534739 -37.55625 
L 208.115715 -37.55625 
L 207.696691 -37.55625 
L 207.277667 -37.55625 
L 206.858644 -37.55625 
L 206.43962 -37.55625 
L 206.020596 -37.55625 
L 205.601572 -37.55625 
L 205.182549 -37.55625 
L 204.763524 -37.55625 
L 204.344501 -37.55625 
L 203.925476 -37.55625 
L 203.506453 -37.55625 
L 203.08743 -37.55625 
L 202.668405 -37.55625 
L 202.249382 -37.55625 
L 201.830358 -37.55625 
L 201.411334 -37.55625 
L 200.99231 -37.55625 
L 200.573287 -37.55625 
L 200.154264 -37.55625 
L 199.73524 -37.55625 
L 199.316216 -37.55625 
L 198.897192 -37.55625 
L 198.478169 -37.55625 
L 198.059144 -37.55625 
L 197.640121 -37.55625 
L 197.221096 -37.55625 
L 196.802073 -37.55625 
L 196.383049 -37.55625 
z
" style="stroke: #d62728; stroke-opacity: 0.5"/>
    </defs>
    <g clip-path="url(#p36f98d5c34)">
     <use xlink:href="#mfcde3b88ea" x="0" y="226.194375" style="fill: #d62728; fill-opacity: 0.5; stroke: #d62728; stroke-opacity: 0.5"/>
    </g>
   </g>
   <g id="PolyCollection_5">
    <defs>
     <path id="m98378be0c0" d="M 217.753262 -37.55625 
L 217.753262 -188.756247 
L 218.172285 -188.752462 
L 218.591309 -188.741124 
L 219.010333 -188.722235 
L 219.429357 -188.695784 
L 219.848381 -188.66179 
L 220.267404 -188.620261 
L 220.686428 -188.571181 
L 221.105452 -188.514584 
L 221.524476 -188.45048 
L 221.9435 -188.378869 
L 222.362523 -188.299787 
L 222.781547 -188.213224 
L 223.200571 -188.119218 
L 223.619595 -188.017776 
L 224.038618 -187.908918 
L 224.457642 -187.792696 
L 224.876666 -187.669066 
L 225.295689 -187.53811 
L 225.714713 -187.399826 
L 226.133737 -187.254261 
L 226.552761 -187.101441 
L 226.971785 -186.941383 
L 227.390808 -186.774117 
L 227.809832 -186.599703 
L 228.228856 -186.418143 
L 228.64788 -186.229481 
L 229.066903 -186.033772 
L 229.485928 -185.831033 
L 229.904951 -185.6213 
L 230.323974 -185.404637 
L 230.742999 -185.181071 
L 231.162022 -184.950647 
L 231.581046 -184.713418 
L 232.00007 -184.469394 
L 232.419094 -184.218683 
L 232.838117 -183.961267 
L 233.257142 -183.697254 
L 233.676165 -183.426653 
L 234.095188 -183.149527 
L 234.514213 -182.865948 
L 234.933236 -182.575944 
L 235.352261 -182.279577 
L 235.771284 -181.976911 
L 236.190308 -181.667981 
L 236.609333 -181.352859 
L 237.028356 -181.031619 
L 237.447379 -180.704295 
L 237.866403 -180.370969 
L 238.285426 -180.031668 
L 238.704451 -179.686491 
L 239.123474 -179.335492 
L 239.123474 -37.55625 
L 239.123474 -37.55625 
L 238.704451 -37.55625 
L 238.285426 -37.55625 
L 237.866403 -37.55625 
L 237.447379 -37.55625 
L 237.028356 -37.55625 
L 236.609333 -37.55625 
L 236.190308 -37.55625 
L 235.771284 -37.55625 
L 235.352261 -37.55625 
L 234.933236 -37.55625 
L 234.514213 -37.55625 
L 234.095188 -37.55625 
L 233.676165 -37.55625 
L 233.257142 -37.55625 
L 232.838117 -37.55625 
L 232.419094 -37.55625 
L 232.00007 -37.55625 
L 231.581046 -37.55625 
L 231.162022 -37.55625 
L 230.742999 -37.55625 
L 230.323974 -37.55625 
L 229.904951 -37.55625 
L 229.485928 -37.55625 
L 229.066903 -37.55625 
L 228.64788 -37.55625 
L 228.228856 -37.55625 
L 227.809832 -37.55625 
L 227.390808 -37.55625 
L 226.971785 -37.55625 
L 226.552761 -37.55625 
L 226.133737 -37.55625 
L 225.714713 -37.55625 
L 225.295689 -37.55625 
L 224.876666 -37.55625 
L 224.457642 -37.55625 
L 224.038618 -37.55625 
L 223.619595 -37.55625 
L 223.200571 -37.55625 
L 222.781547 -37.55625 
L 222.362523 -37.55625 
L 221.9435 -37.55625 
L 221.524476 -37.55625 
L 221.105452 -37.55625 
L 220.686428 -37.55625 
L 220.267404 -37.55625 
L 219.848381 -37.55625 
L 219.429357 -37.55625 
L 219.010333 -37.55625 
L 218.591309 -37.55625 
L 218.172285 -37.55625 
L 217.753262 -37.55625 
z
" style="stroke: #9467bd; stroke-opacity: 0.5"/>
    </defs>
    <g clip-path="url(#p36f98d5c34)">
     <use xlink:href="#m98378be0c0" x="0" y="226.194375" style="fill: #9467bd; fill-opacity: 0.5; stroke: #9467bd; stroke-opacity: 0.5"/>
    </g>
   </g>
   <g id="PolyCollection_6">
    <defs>
     <path id="mfad8ae6c3d" d="M 239.542497 -37.55625 
L 239.542497 -178.978716 
L 239.961521 -178.616235 
L 240.380544 -178.24814 
L 240.79957 -177.874475 
L 241.218593 -177.495295 
L 241.637617 -177.110689 
L 242.05664 -176.720713 
L 242.475664 -176.325445 
L 242.894689 -175.924969 
L 243.313713 -175.519293 
L 243.732736 -175.108561 
L 244.15176 -174.692809 
L 244.570783 -174.27211 
L 244.989806 -173.846553 
L 245.40883 -173.416183 
L 245.827853 -172.981082 
L 246.246879 -172.541349 
L 246.665902 -172.097019 
L 247.084926 -171.648192 
L 247.503949 -171.194941 
L 247.922975 -170.737327 
L 248.341998 -170.275442 
L 248.761022 -169.809357 
L 249.180045 -169.339144 
L 249.599071 -168.864876 
L 250.018094 -168.386633 
L 250.437118 -167.904479 
L 250.856141 -167.418531 
L 251.275165 -166.928843 
L 251.694188 -166.43546 
L 252.113211 -165.938508 
L 252.532235 -165.438032 
L 252.951261 -164.934123 
L 253.370284 -164.426852 
L 253.789307 -163.916292 
L 254.208331 -163.40255 
L 254.627354 -162.885672 
L 255.046377 -162.365748 
L 255.465401 -161.842823 
L 255.884424 -161.317032 
L 256.30345 -160.78842 
L 256.722473 -160.25705 
L 257.141497 -159.723031 
L 257.56052 -159.186416 
L 257.979544 -158.647278 
L 258.398567 -158.105724 
L 258.81759 -157.561792 
L 259.236614 -157.01557 
L 259.65564 -156.467149 
L 260.074663 -155.916584 
L 260.493686 -155.363954 
L 260.91271 -154.809342 
L 261.331733 -154.252819 
L 261.750757 -153.694449 
L 262.16978 -153.134321 
L 262.588803 -152.57249 
L 263.007827 -152.009037 
L 263.42685 -151.444034 
L 263.42685 -37.55625 
L 263.42685 -37.55625 
L 263.007827 -37.55625 
L 262.588803 -37.55625 
L 262.16978 -37.55625 
L 261.750757 -37.55625 
L 261.331733 -37.55625 
L 260.91271 -37.55625 
L 260.493686 -37.55625 
L 260.074663 -37.55625 
L 259.65564 -37.55625 
L 259.236614 -37.55625 
L 258.81759 -37.55625 
L 258.398567 -37.55625 
L 257.979544 -37.55625 
L 257.56052 -37.55625 
L 257.141497 -37.55625 
L 256.722473 -37.55625 
L 256.30345 -37.55625 
L 255.884424 -37.55625 
L 255.465401 -37.55625 
L 255.046377 -37.55625 
L 254.627354 -37.55625 
L 254.208331 -37.55625 
L 253.789307 -37.55625 
L 253.370284 -37.55625 
L 252.951261 -37.55625 
L 252.532235 -37.55625 
L 252.113211 -37.55625 
L 251.694188 -37.55625 
L 251.275165 -37.55625 
L 250.856141 -37.55625 
L 250.437118 -37.55625 
L 250.018094 -37.55625 
L 249.599071 -37.55625 
L 249.180045 -37.55625 
L 248.761022 -37.55625 
L 248.341998 -37.55625 
L 247.922975 -37.55625 
L 247.503949 -37.55625 
L 247.084926 -37.55625 
L 246.665902 -37.55625 
L 246.246879 -37.55625 
L 245.827853 -37.55625 
L 245.40883 -37.55625 
L 244.989806 -37.55625 
L 244.570783 -37.55625 
L 244.15176 -37.55625 
L 243.732736 -37.55625 
L 243.313713 -37.55625 
L 242.894689 -37.55625 
L 242.475664 -37.55625 
L 242.05664 -37.55625 
L 241.637617 -37.55625 
L 241.218593 -37.55625 
L 240.79957 -37.55625 
L 240.380544 -37.55625 
L 239.961521 -37.55625 
L 239.542497 -37.55625 
z
" style="stroke: #8c564b; stroke-opacity: 0.5"/>
    </defs>
    <g clip-path="url(#p36f98d5c34)">
     <use xlink:href="#mfad8ae6c3d" x="0" y="226.194375" style="fill: #8c564b; fill-opacity: 0.5; stroke: #8c564b; stroke-opacity: 0.5"/>
    </g>
   </g>
   <g id="PolyCollection_7">
    <defs>
     <path id="m6829811738" d="M 263.845873 -37.55625 
L 263.845873 -150.877562 
L 264.264902 -150.309657 
L 264.683925 -149.740436 
L 265.102949 -149.169935 
L 265.521972 -148.598263 
L 265.940995 -148.025437 
L 266.360019 -147.451566 
L 266.779042 -146.876685 
L 267.198065 -146.300903 
L 267.617094 -145.724247 
L 268.036117 -145.146807 
L 268.455141 -144.568646 
L 268.874164 -143.989818 
L 269.293187 -143.410395 
L 269.712211 -142.830441 
L 270.131234 -142.250035 
L 270.550257 -141.669198 
L 270.969286 -141.088036 
L 271.388304 -140.506585 
L 271.807328 -139.924927 
L 272.226351 -139.343098 
L 272.645374 -138.761179 
L 273.064398 -138.179206 
L 273.483421 -137.597259 
L 273.902445 -137.015394 
L 274.321473 -136.433646 
L 274.740496 -135.852097 
L 275.15952 -135.270781 
L 275.578543 -134.689781 
L 275.997566 -134.109124 
L 276.41659 -133.528872 
L 276.835613 -132.949089 
L 277.254637 -132.36981 
L 277.673665 -131.79109 
L 278.092688 -131.212992 
L 278.511712 -130.635561 
L 278.930735 -130.058833 
L 279.349758 -129.482862 
L 279.768782 -128.90772 
L 280.187805 -128.333407 
L 280.606829 -127.760023 
L 281.025857 -127.187566 
L 281.444875 -126.616128 
L 281.863899 -126.045709 
L 282.282922 -125.476362 
L 282.701945 -124.908168 
L 283.120969 -124.34111 
L 283.539992 -123.775269 
L 283.959016 -123.21068 
L 284.378044 -122.647362 
L 284.797067 -122.085387 
L 285.216091 -121.524772 
L 285.635114 -120.965564 
L 286.054138 -120.40778 
L 286.473161 -119.851491 
L 286.892184 -119.29669 
L 287.311208 -118.743457 
L 287.730236 -118.191782 
L 288.149254 -117.641739 
L 288.568278 -117.093337 
L 288.987301 -116.546601 
L 289.406325 -116.001587 
L 289.825348 -115.458312 
L 290.244371 -114.916804 
L 290.663395 -114.377098 
L 291.082423 -113.839195 
L 291.501446 -113.303184 
L 291.92047 -112.769034 
L 292.339493 -112.236799 
L 292.758517 -111.706493 
L 293.17754 -111.17816 
L 293.596563 -110.651801 
L 294.015587 -110.127452 
L 294.434615 -109.605135 
L 294.853638 -109.084882 
L 295.272662 -108.566698 
L 295.691685 -108.050622 
L 296.110709 -107.536641 
L 296.529732 -107.024819 
L 296.948755 -106.515164 
L 297.367779 -106.007677 
L 297.786807 -105.502371 
L 298.205826 -104.9993 
L 298.624849 -104.498454 
L 299.043872 -103.999871 
L 299.043872 -37.55625 
L 299.043872 -37.55625 
L 298.624849 -37.55625 
L 298.205826 -37.55625 
L 297.786807 -37.55625 
L 297.367779 -37.55625 
L 296.948755 -37.55625 
L 296.529732 -37.55625 
L 296.110709 -37.55625 
L 295.691685 -37.55625 
L 295.272662 -37.55625 
L 294.853638 -37.55625 
L 294.434615 -37.55625 
L 294.015587 -37.55625 
L 293.596563 -37.55625 
L 293.17754 -37.55625 
L 292.758517 -37.55625 
L 292.339493 -37.55625 
L 291.92047 -37.55625 
L 291.501446 -37.55625 
L 291.082423 -37.55625 
L 290.663395 -37.55625 
L 290.244371 -37.55625 
L 289.825348 -37.55625 
L 289.406325 -37.55625 
L 288.987301 -37.55625 
L 288.568278 -37.55625 
L 288.149254 -37.55625 
L 287.730236 -37.55625 
L 287.311208 -37.55625 
L 286.892184 -37.55625 
L 286.473161 -37.55625 
L 286.054138 -37.55625 
L 285.635114 -37.55625 
L 285.216091 -37.55625 
L 284.797067 -37.55625 
L 284.378044 -37.55625 
L 283.959016 -37.55625 
L 283.539992 -37.55625 
L 283.120969 -37.55625 
L 282.701945 -37.55625 
L 282.282922 -37.55625 
L 281.863899 -37.55625 
L 281.444875 -37.55625 
L 281.025857 -37.55625 
L 280.606829 -37.55625 
L 280.187805 -37.55625 
L 279.768782 -37.55625 
L 279.349758 -37.55625 
L 278.930735 -37.55625 
L 278.511712 -37.55625 
L 278.092688 -37.55625 
L 277.673665 -37.55625 
L 277.254637 -37.55625 
L 276.835613 -37.55625 
L 276.41659 -37.55625 
L 275.997566 -37.55625 
L 275.578543 -37.55625 
L 275.15952 -37.55625 
L 274.740496 -37.55625 
L 274.321473 -37.55625 
L 273.902445 -37.55625 
L 273.483421 -37.55625 
L 273.064398 -37.55625 
L 272.645374 -37.55625 
L 272.226351 -37.55625 
L 271.807328 -37.55625 
L 271.388304 -37.55625 
L 270.969286 -37.55625 
L 270.550257 -37.55625 
L 270.131234 -37.55625 
L 269.712211 -37.55625 
L 269.293187 -37.55625 
L 268.874164 -37.55625 
L 268.455141 -37.55625 
L 268.036117 -37.55625 
L 267.617094 -37.55625 
L 267.198065 -37.55625 
L 266.779042 -37.55625 
L 266.360019 -37.55625 
L 265.940995 -37.55625 
L 265.521972 -37.55625 
L 265.102949 -37.55625 
L 264.683925 -37.55625 
L 264.264902 -37.55625 
L 263.845873 -37.55625 
z
" style="stroke: #e377c2; stroke-opacity: 0.5"/>
    </defs>
    <g clip-path="url(#p36f98d5c34)">
     <use xlink:href="#m6829811738" x="0" y="226.194375" style="fill: #e377c2; fill-opacity: 0.5; stroke: #e377c2; stroke-opacity: 0.5"/>
    </g>
   </g>
   <g id="PolyCollection_8">
    <defs>
     <path id="m3a1099b052" d="M 299.462896 -37.55625 
L 299.462896 -103.503537 
L 299.881919 -103.009491 
L 300.300942 -102.517726 
L 300.719966 -102.028281 
L 301.138994 -101.541152 
L 301.558018 -101.056376 
L 301.977041 -100.573929 
L 302.396064 -100.093857 
L 302.815088 -99.616164 
L 303.234111 -99.140846 
L 303.653134 -98.667925 
L 304.072158 -98.197411 
L 304.491181 -97.729316 
L 304.910205 -97.26365 
L 305.329228 -96.800404 
L 305.748251 -96.339613 
L 306.167275 -95.881265 
L 306.586298 -95.425377 
L 307.005321 -94.971954 
L 307.424345 -94.521001 
L 307.843368 -94.072521 
L 308.262402 -93.62652 
L 308.681425 -93.183028 
L 309.100448 -92.74202 
L 309.519472 -92.303499 
L 309.938495 -91.867483 
L 310.357518 -91.433972 
L 310.776542 -91.002981 
L 311.195565 -90.57449 
L 311.614589 -90.148518 
L 312.033612 -89.725048 
L 312.452635 -89.304114 
L 312.871659 -88.88569 
L 313.290682 -88.46978 
L 313.709706 -88.056394 
L 314.128729 -87.645532 
L 314.547752 -87.237179 
L 314.966776 -86.831349 
L 315.385799 -86.428039 
L 315.804822 -86.027256 
L 316.223846 -85.628984 
L 316.642869 -85.233217 
L 317.061893 -84.839968 
L 317.480916 -84.449234 
L 317.899939 -84.060997 
L 318.318973 -83.675274 
L 318.737996 -83.292047 
L 319.157019 -82.911317 
L 319.576043 -82.533092 
L 319.995066 -82.157359 
L 320.41409 -81.784099 
L 320.833113 -81.413328 
L 321.252136 -81.045043 
L 321.67116 -80.679224 
L 322.090183 -80.315869 
L 322.509206 -79.954979 
L 322.92823 -79.596545 
L 323.347253 -79.240562 
L 323.766277 -78.887022 
L 324.1853 -78.535928 
L 324.604323 -78.187249 
L 325.023347 -77.841013 
L 325.44237 -77.497184 
L 325.861394 -77.155778 
L 326.280417 -76.816765 
L 326.69944 -76.480154 
L 327.118464 -76.145932 
L 327.537487 -75.814088 
L 327.95651 -75.484619 
L 328.375544 -75.157514 
L 328.794567 -74.832765 
L 329.213591 -74.510371 
L 329.632614 -74.190322 
L 330.051637 -73.872594 
L 330.470661 -73.5572 
L 330.889684 -73.244111 
L 331.308707 -72.933334 
L 331.727731 -72.624852 
L 332.146754 -72.318653 
L 332.565778 -72.014734 
L 332.984801 -71.713081 
L 333.403824 -71.413688 
L 333.822848 -71.116546 
L 334.241871 -70.821637 
L 334.660894 -70.528958 
L 335.079918 -70.238506 
L 335.498941 -69.950254 
L 335.917965 -69.664202 
L 336.336988 -69.380339 
L 336.756011 -69.098651 
L 337.175035 -68.819135 
L 337.594058 -68.541768 
L 338.013082 -68.266557 
L 338.432115 -67.993471 
L 338.851138 -67.72251 
L 339.270162 -67.45367 
L 339.689185 -67.186929 
L 340.108208 -66.922281 
L 340.527232 -66.659718 
L 340.946255 -66.399222 
L 341.365279 -66.140783 
L 341.784302 -65.884392 
L 342.203325 -65.630045 
L 342.622349 -65.377716 
L 343.041372 -65.1274 
L 343.460395 -64.879095 
L 343.879419 -64.632773 
L 344.298442 -64.388436 
L 344.717466 -64.14607 
L 345.136489 -63.90566 
L 345.555512 -63.667192 
L 345.974536 -63.430662 
L 346.393559 -63.196053 
L 346.812582 -62.96336 
L 347.231606 -62.732564 
L 347.650629 -62.50366 
L 348.069653 -62.276627 
L 348.488676 -62.051467 
L 348.907699 -61.82816 
L 349.326723 -61.606694 
L 349.745746 -61.387057 
L 350.16477 -61.169245 
L 350.583793 -60.953234 
L 351.002816 -60.739027 
L 351.42184 -60.526599 
L 351.840873 -60.315941 
L 352.259896 -60.107053 
L 352.67892 -59.899912 
L 353.097943 -59.694514 
L 353.516967 -59.490845 
L 353.93599 -59.288886 
L 354.355013 -59.088634 
L 354.774037 -58.890075 
L 355.19306 -58.693198 
L 355.612083 -58.497991 
L 356.031107 -58.304447 
L 356.45013 -58.112545 
L 356.869154 -57.922284 
L 357.288177 -57.733646 
L 357.7072 -57.546623 
L 358.126224 -57.361201 
L 358.545247 -57.177374 
L 358.96427 -56.995122 
L 359.383294 -56.814445 
L 359.802317 -56.635318 
L 360.221341 -56.457746 
L 360.640364 -56.281705 
L 361.059387 -56.107189 
L 361.478411 -55.934186 
L 361.897444 -55.762684 
L 362.316468 -55.592677 
L 362.735491 -55.424149 
L 363.154514 -55.257093 
L 363.573538 -55.0915 
L 363.992561 -54.927351 
L 364.411584 -54.764637 
L 364.830608 -54.603354 
L 365.249631 -54.443489 
L 365.668655 -54.285027 
L 366.087678 -54.127959 
L 366.506701 -53.972278 
L 366.925725 -53.817971 
L 367.344748 -53.665026 
L 367.763771 -53.51344 
L 368.182795 -53.36319 
L 368.601818 -53.21428 
L 369.020842 -53.066686 
L 369.439865 -52.920409 
L 369.858888 -52.775429 
L 370.277912 -52.631744 
L 370.696935 -52.489343 
L 371.115958 -52.348214 
L 371.534982 -52.208344 
L 371.954015 -52.069725 
L 372.373039 -51.93235 
L 372.792062 -51.796209 
L 373.211085 -51.66129 
L 373.630109 -51.527586 
L 374.049132 -51.395085 
L 374.468156 -51.263777 
L 374.887179 -51.133654 
L 375.306202 -51.004705 
L 375.725226 -50.87692 
L 376.144249 -50.750293 
L 376.563272 -50.624814 
L 376.982296 -50.500472 
L 377.401319 -50.377256 
L 377.820343 -50.25516 
L 378.239366 -50.134174 
L 378.658389 -50.01429 
L 379.077413 -49.895495 
L 379.496436 -49.777786 
L 379.915459 -49.661149 
L 380.334483 -49.54558 
L 380.753506 -49.431065 
L 381.17253 -49.317595 
L 381.591553 -49.205167 
L 382.010586 -49.093765 
L 382.42961 -48.983392 
L 382.848633 -48.874028 
L 383.267656 -48.765669 
L 383.68668 -48.658306 
L 384.105703 -48.55193 
L 384.524727 -48.446538 
L 384.94375 -48.342115 
L 384.94375 -37.55625 
L 384.94375 -37.55625 
L 384.524727 -37.55625 
L 384.105703 -37.55625 
L 383.68668 -37.55625 
L 383.267656 -37.55625 
L 382.848633 -37.55625 
L 382.42961 -37.55625 
L 382.010586 -37.55625 
L 381.591553 -37.55625 
L 381.17253 -37.55625 
L 380.753506 -37.55625 
L 380.334483 -37.55625 
L 379.915459 -37.55625 
L 379.496436 -37.55625 
L 379.077413 -37.55625 
L 378.658389 -37.55625 
L 378.239366 -37.55625 
L 377.820343 -37.55625 
L 377.401319 -37.55625 
L 376.982296 -37.55625 
L 376.563272 -37.55625 
L 376.144249 -37.55625 
L 375.725226 -37.55625 
L 375.306202 -37.55625 
L 374.887179 -37.55625 
L 374.468156 -37.55625 
L 374.049132 -37.55625 
L 373.630109 -37.55625 
L 373.211085 -37.55625 
L 372.792062 -37.55625 
L 372.373039 -37.55625 
L 371.954015 -37.55625 
L 371.534982 -37.55625 
L 371.115958 -37.55625 
L 370.696935 -37.55625 
L 370.277912 -37.55625 
L 369.858888 -37.55625 
L 369.439865 -37.55625 
L 369.020842 -37.55625 
L 368.601818 -37.55625 
L 368.182795 -37.55625 
L 367.763771 -37.55625 
L 367.344748 -37.55625 
L 366.925725 -37.55625 
L 366.506701 -37.55625 
L 366.087678 -37.55625 
L 365.668655 -37.55625 
L 365.249631 -37.55625 
L 364.830608 -37.55625 
L 364.411584 -37.55625 
L 363.992561 -37.55625 
L 363.573538 -37.55625 
L 363.154514 -37.55625 
L 362.735491 -37.55625 
L 362.316468 -37.55625 
L 361.897444 -37.55625 
L 361.478411 -37.55625 
L 361.059387 -37.55625 
L 360.640364 -37.55625 
L 360.221341 -37.55625 
L 359.802317 -37.55625 
L 359.383294 -37.55625 
L 358.96427 -37.55625 
L 358.545247 -37.55625 
L 358.126224 -37.55625 
L 357.7072 -37.55625 
L 357.288177 -37.55625 
L 356.869154 -37.55625 
L 356.45013 -37.55625 
L 356.031107 -37.55625 
L 355.612083 -37.55625 
L 355.19306 -37.55625 
L 354.774037 -37.55625 
L 354.355013 -37.55625 
L 353.93599 -37.55625 
L 353.516967 -37.55625 
L 353.097943 -37.55625 
L 352.67892 -37.55625 
L 352.259896 -37.55625 
L 351.840873 -37.55625 
L 351.42184 -37.55625 
L 351.002816 -37.55625 
L 350.583793 -37.55625 
L 350.16477 -37.55625 
L 349.745746 -37.55625 
L 349.326723 -37.55625 
L 348.907699 -37.55625 
L 348.488676 -37.55625 
L 348.069653 -37.55625 
L 347.650629 -37.55625 
L 347.231606 -37.55625 
L 346.812582 -37.55625 
L 346.393559 -37.55625 
L 345.974536 -37.55625 
L 345.555512 -37.55625 
L 345.136489 -37.55625 
L 344.717466 -37.55625 
L 344.298442 -37.55625 
L 343.879419 -37.55625 
L 343.460395 -37.55625 
L 343.041372 -37.55625 
L 342.622349 -37.55625 
L 342.203325 -37.55625 
L 341.784302 -37.55625 
L 341.365279 -37.55625 
L 340.946255 -37.55625 
L 340.527232 -37.55625 
L 340.108208 -37.55625 
L 339.689185 -37.55625 
L 339.270162 -37.55625 
L 338.851138 -37.55625 
L 338.432115 -37.55625 
L 338.013082 -37.55625 
L 337.594058 -37.55625 
L 337.175035 -37.55625 
L 336.756011 -37.55625 
L 336.336988 -37.55625 
L 335.917965 -37.55625 
L 335.498941 -37.55625 
L 335.079918 -37.55625 
L 334.660894 -37.55625 
L 334.241871 -37.55625 
L 333.822848 -37.55625 
L 333.403824 -37.55625 
L 332.984801 -37.55625 
L 332.565778 -37.55625 
L 332.146754 -37.55625 
L 331.727731 -37.55625 
L 331.308707 -37.55625 
L 330.889684 -37.55625 
L 330.470661 -37.55625 
L 330.051637 -37.55625 
L 329.632614 -37.55625 
L 329.213591 -37.55625 
L 328.794567 -37.55625 
L 328.375544 -37.55625 
L 327.95651 -37.55625 
L 327.537487 -37.55625 
L 327.118464 -37.55625 
L 326.69944 -37.55625 
L 326.280417 -37.55625 
L 325.861394 -37.55625 
L 325.44237 -37.55625 
L 325.023347 -37.55625 
L 324.604323 -37.55625 
L 324.1853 -37.55625 
L 323.766277 -37.55625 
L 323.347253 -37.55625 
L 322.92823 -37.55625 
L 322.509206 -37.55625 
L 322.090183 -37.55625 
L 321.67116 -37.55625 
L 321.252136 -37.55625 
L 320.833113 -37.55625 
L 320.41409 -37.55625 
L 319.995066 -37.55625 
L 319.576043 -37.55625 
L 319.157019 -37.55625 
L 318.737996 -37.55625 
L 318.318973 -37.55625 
L 317.899939 -37.55625 
L 317.480916 -37.55625 
L 317.061893 -37.55625 
L 316.642869 -37.55625 
L 316.223846 -37.55625 
L 315.804822 -37.55625 
L 315.385799 -37.55625 
L 314.966776 -37.55625 
L 314.547752 -37.55625 
L 314.128729 -37.55625 
L 313.709706 -37.55625 
L 313.290682 -37.55625 
L 312.871659 -37.55625 
L 312.452635 -37.55625 
L 312.033612 -37.55625 
L 311.614589 -37.55625 
L 311.195565 -37.55625 
L 310.776542 -37.55625 
L 310.357518 -37.55625 
L 309.938495 -37.55625 
L 309.519472 -37.55625 
L 309.100448 -37.55625 
L 308.681425 -37.55625 
L 308.262402 -37.55625 
L 307.843368 -37.55625 
L 307.424345 -37.55625 
L 307.005321 -37.55625 
L 306.586298 -37.55625 
L 306.167275 -37.55625 
L 305.748251 -37.55625 
L 305.329228 -37.55625 
L 304.910205 -37.55625 
L 304.491181 -37.55625 
L 304.072158 -37.55625 
L 303.653134 -37.55625 
L 303.234111 -37.55625 
L 302.815088 -37.55625 
L 302.396064 -37.55625 
L 301.977041 -37.55625 
L 301.558018 -37.55625 
L 301.138994 -37.55625 
L 300.719966 -37.55625 
L 300.300942 -37.55625 
L 299.881919 -37.55625 
L 299.462896 -37.55625 
z
" style="stroke: #7f7f7f; stroke-opacity: 0.5"/>
    </defs>
    <g clip-path="url(#p36f98d5c34)">
     <use xlink:href="#m3a1099b052" x="0" y="226.194375" style="fill: #7f7f7f; fill-opacity: 0.5; stroke: #7f7f7f; stroke-opacity: 0.5"/>
    </g>
   </g>
   <g id="line2d_1">
    <path d="M 50.14375 188.638125 
L 50.14375 177.955718 
" clip-path="url(#p36f98d5c34)" style="fill: none; stroke: #1f77b4; stroke-width: 1.5; stroke-linecap: round"/>
   </g>
   <g id="line2d_2">
    <path d="M 136.043623 188.638125 
L 136.043623 122.690852 
" clip-path="url(#p36f98d5c34)" style="fill: none; stroke: #1f77b4; stroke-width: 1.5; stroke-linecap: round"/>
   </g>
   <g id="line2d_3">
    <path d="M 136.462646 188.638125 
L 136.462646 122.194517 
" clip-path="url(#p36f98d5c34)" style="fill: none; stroke: #ff7f0e; stroke-width: 1.5; stroke-linecap: round"/>
   </g>
   <g id="line2d_4">
    <path d="M 171.660645 188.638125 
L 171.660645 75.316813 
" clip-path="url(#p36f98d5c34)" style="fill: none; stroke: #ff7f0e; stroke-width: 1.5; stroke-linecap: round"/>
   </g>
   <g id="line2d_5">
    <path d="M 172.079668 188.638125 
L 172.079668 74.75035 
" clip-path="url(#p36f98d5c34)" style="fill: none; stroke: #2ca02c; stroke-width: 1.5; stroke-linecap: round"/>
   </g>
   <g id="line2d_6">
    <path d="M 195.964026 188.638125 
L 195.964026 47.21565 
" clip-path="url(#p36f98d5c34)" style="fill: none; stroke: #2ca02c; stroke-width: 1.5; stroke-linecap: round"/>
   </g>
   <g id="line2d_7">
    <path d="M 196.383049 188.638125 
L 196.383049 46.858883 
" clip-path="url(#p36f98d5c34)" style="fill: none; stroke: #d62728; stroke-width: 1.5; stroke-linecap: round"/>
   </g>
   <g id="line2d_8">
    <path d="M 217.334238 188.638125 
L 217.334238 37.441913 
" clip-path="url(#p36f98d5c34)" style="fill: none; stroke: #d62728; stroke-width: 1.5; stroke-linecap: round"/>
   </g>
   <g id="line2d_9">
    <path d="M 217.753262 188.638125 
L 217.753262 37.438128 
" clip-path="url(#p36f98d5c34)" style="fill: none; stroke: #9467bd; stroke-width: 1.5; stroke-linecap: round"/>
   </g>
   <g id="line2d_10">
    <path d="M 239.123474 188.638125 
L 239.123474 46.858883 
" clip-path="url(#p36f98d5c34)" style="fill: none; stroke: #9467bd; stroke-width: 1.5; stroke-linecap: round"/>
   </g>
   <g id="line2d_11">
    <path d="M 239.542497 188.638125 
L 239.542497 47.215659 
" clip-path="url(#p36f98d5c34)" style="fill: none; stroke: #8c564b; stroke-width: 1.5; stroke-linecap: round"/>
   </g>
   <g id="line2d_12">
    <path d="M 263.42685 188.638125 
L 263.42685 74.750341 
" clip-path="url(#p36f98d5c34)" style="fill: none; stroke: #8c564b; stroke-width: 1.5; stroke-linecap: round"/>
   </g>
   <g id="line2d_13">
    <path d="M 263.845873 188.638125 
L 263.845873 75.316813 
" clip-path="url(#p36f98d5c34)" style="fill: none; stroke: #e377c2; stroke-width: 1.5; stroke-linecap: round"/>
   </g>
   <g id="line2d_14">
    <path d="M 299.043872 188.638125 
L 299.043872 122.194504 
" clip-path="url(#p36f98d5c34)" style="fill: none; stroke: #e377c2; stroke-width: 1.5; stroke-linecap: round"/>
   </g>
   <g id="line2d_15">
    <path d="M 299.462896 188.638125 
L 299.462896 122.690838 
" clip-path="url(#p36f98d5c34)" style="fill: none; stroke: #7f7f7f; stroke-width: 1.5; stroke-linecap: round"/>
   </g>
   <g id="line2d_16">
    <path d="M 384.94375 188.638125 
L 384.94375 177.85226 
" clip-path="url(#p36f98d5c34)" style="fill: none; stroke: #7f7f7f; stroke-width: 1.5; stroke-linecap: round"/>
   </g>
   <g id="line2d_17">
    <path d="M 50.14375 177.955718 
L 56.429101 176.29888 
L 62.295438 174.533085 
L 68.161775 172.529345 
L 73.609079 170.431691 
L 78.63737 168.272087 
L 83.66565 165.878427 
L 88.693941 163.231008 
L 93.303198 160.564337 
L 97.912455 157.652607 
L 102.521722 154.481294 
L 107.13098 151.03687 
L 111.740247 147.307363 
L 116.349504 143.283058 
L 120.958771 138.957196 
L 125.568028 134.326879 
L 130.177285 129.393971 
L 135.205576 123.676667 
L 140.233867 117.627677 
L 145.68117 110.736063 
L 151.966526 102.419106 
L 160.347004 90.923594 
L 173.755767 72.499926 
L 179.203076 65.405946 
L 183.812335 59.758915 
L 187.583548 55.457048 
L 191.354764 51.501575 
L 194.706953 48.3199 
L 197.640121 45.823406 
L 200.573287 43.61844 
L 203.08743 41.97571 
L 205.601572 40.573075 
L 208.115715 39.42024 
L 210.629857 38.525309 
L 213.144 37.89457 
L 215.658143 37.532603 
L 217.753262 37.438128 
L 219.848381 37.532585 
L 221.9435 37.815506 
L 224.457642 38.401679 
L 226.971785 39.252992 
L 229.485928 40.363342 
L 232.00007 41.724981 
L 234.514213 43.328427 
L 237.447379 45.49008 
L 240.380544 47.946235 
L 243.313713 50.675082 
L 246.665902 54.097356 
L 250.437118 58.289896 
L 254.627354 63.308703 
L 259.236614 69.178805 
L 265.102949 77.02444 
L 275.15952 90.923594 
L 284.797067 104.108988 
L 291.082423 112.35518 
L 296.948755 119.679211 
L 301.977041 125.620446 
L 307.005321 131.222421 
L 311.614589 136.045857 
L 316.223846 140.565391 
L 320.833113 144.781047 
L 325.44237 148.697191 
L 330.051637 152.321781 
L 334.660894 155.665417 
L 339.270162 158.740705 
L 343.879419 161.561602 
L 348.907699 164.366215 
L 353.93599 166.905489 
L 358.96427 169.199253 
L 364.411584 171.429738 
L 369.858888 173.418946 
L 375.725226 175.317455 
L 381.591553 176.989208 
L 384.94375 177.85226 
L 384.94375 177.85226 
" clip-path="url(#p36f98d5c34)" style="fill: none; stroke: #000000; stroke-width: 1.5; stroke-linecap: round"/>
   </g>
   <g id="patch_3">
    <path d="M 50.14375 188.638125 
L 50.14375 22.318125 
" style="fill: none; stroke: #262626; stroke-width: 0.8; stroke-linejoin: miter; stroke-linecap: square"/>
   </g>
   <g id="patch_4">
    <path d="M 384.94375 188.638125 
L 384.94375 22.318125 
" style="fill: none; stroke: #262626; stroke-width: 0.8; stroke-linejoin: miter; stroke-linecap: square"/>
   </g>
   <g id="patch_5">
    <path d="M 50.14375 188.638125 
L 384.94375 188.638125 
" style="fill: none; stroke: #262626; stroke-width: 0.8; stroke-linejoin: miter; stroke-linecap: square"/>
   </g>
   <g id="patch_6">
    <path d="M 50.14375 22.318125 
L 384.94375 22.318125 
" style="fill: none; stroke: #262626; stroke-width: 0.8; stroke-linejoin: miter; stroke-linecap: square"/>
   </g>
   <g id="text_18">
    <!-- Dequantization distribution for 8 discrete values -->
    <g style="fill: #262626" transform="translate(72.526563 16.318125) scale(0.12 -0.12)">
     <defs>
      <path id="DejaVuSans-44" d="M 1259 4147 
L 1259 519 
L 2022 519 
Q 2988 519 3436 956 
Q 3884 1394 3884 2338 
Q 3884 3275 3436 3711 
Q 2988 4147 2022 4147 
L 1259 4147 
z
M 628 4666 
L 1925 4666 
Q 3281 4666 3915 4102 
Q 4550 3538 4550 2338 
Q 4550 1131 3912 565 
Q 3275 0 1925 0 
L 628 0 
L 628 4666 
z
" transform="scale(0.015625)"/>
      <path id="DejaVuSans-65" d="M 3597 1894 
L 3597 1613 
L 953 1613 
Q 991 1019 1311 708 
Q 1631 397 2203 397 
Q 2534 397 2845 478 
Q 3156 559 3463 722 
L 3463 178 
Q 3153 47 2828 -22 
Q 2503 -91 2169 -91 
Q 1331 -91 842 396 
Q 353 884 353 1716 
Q 353 2575 817 3079 
Q 1281 3584 2069 3584 
Q 2775 3584 3186 3129 
Q 3597 2675 3597 1894 
z
M 3022 2063 
Q 3016 2534 2758 2815 
Q 2500 3097 2075 3097 
Q 1594 3097 1305 2825 
Q 1016 2553 972 2059 
L 3022 2063 
z
" transform="scale(0.015625)"/>
      <path id="DejaVuSans-71" d="M 947 1747 
Q 947 1113 1208 752 
Q 1469 391 1925 391 
Q 2381 391 2643 752 
Q 2906 1113 2906 1747 
Q 2906 2381 2643 2742 
Q 2381 3103 1925 3103 
Q 1469 3103 1208 2742 
Q 947 2381 947 1747 
z
M 2906 525 
Q 2725 213 2448 61 
Q 2172 -91 1784 -91 
Q 1150 -91 751 415 
Q 353 922 353 1747 
Q 353 2572 751 3078 
Q 1150 3584 1784 3584 
Q 2172 3584 2448 3432 
Q 2725 3281 2906 2969 
L 2906 3500 
L 3481 3500 
L 3481 -1331 
L 2906 -1331 
L 2906 525 
z
" transform="scale(0.015625)"/>
      <path id="DejaVuSans-75" d="M 544 1381 
L 544 3500 
L 1119 3500 
L 1119 1403 
Q 1119 906 1312 657 
Q 1506 409 1894 409 
Q 2359 409 2629 706 
Q 2900 1003 2900 1516 
L 2900 3500 
L 3475 3500 
L 3475 0 
L 2900 0 
L 2900 538 
Q 2691 219 2414 64 
Q 2138 -91 1772 -91 
Q 1169 -91 856 284 
Q 544 659 544 1381 
z
M 1991 3584 
L 1991 3584 
z
" transform="scale(0.015625)"/>
      <path id="DejaVuSans-6e" d="M 3513 2113 
L 3513 0 
L 2938 0 
L 2938 2094 
Q 2938 2591 2744 2837 
Q 2550 3084 2163 3084 
Q 1697 3084 1428 2787 
Q 1159 2491 1159 1978 
L 1159 0 
L 581 0 
L 581 3500 
L 1159 3500 
L 1159 2956 
Q 1366 3272 1645 3428 
Q 1925 3584 2291 3584 
Q 2894 3584 3203 3211 
Q 3513 2838 3513 2113 
z
" transform="scale(0.015625)"/>
      <path id="DejaVuSans-20" transform="scale(0.015625)"/>
      <path id="DejaVuSans-64" d="M 2906 2969 
L 2906 4863 
L 3481 4863 
L 3481 0 
L 2906 0 
L 2906 525 
Q 2725 213 2448 61 
Q 2172 -91 1784 -91 
Q 1150 -91 751 415 
Q 353 922 353 1747 
Q 353 2572 751 3078 
Q 1150 3584 1784 3584 
Q 2172 3584 2448 3432 
Q 2725 3281 2906 2969 
z
M 947 1747 
Q 947 1113 1208 752 
Q 1469 391 1925 391 
Q 2381 391 2643 752 
Q 2906 1113 2906 1747 
Q 2906 2381 2643 2742 
Q 2381 3103 1925 3103 
Q 1469 3103 1208 2742 
Q 947 2381 947 1747 
z
" transform="scale(0.015625)"/>
      <path id="DejaVuSans-73" d="M 2834 3397 
L 2834 2853 
Q 2591 2978 2328 3040 
Q 2066 3103 1784 3103 
Q 1356 3103 1142 2972 
Q 928 2841 928 2578 
Q 928 2378 1081 2264 
Q 1234 2150 1697 2047 
L 1894 2003 
Q 2506 1872 2764 1633 
Q 3022 1394 3022 966 
Q 3022 478 2636 193 
Q 2250 -91 1575 -91 
Q 1294 -91 989 -36 
Q 684 19 347 128 
L 347 722 
Q 666 556 975 473 
Q 1284 391 1588 391 
Q 1994 391 2212 530 
Q 2431 669 2431 922 
Q 2431 1156 2273 1281 
Q 2116 1406 1581 1522 
L 1381 1569 
Q 847 1681 609 1914 
Q 372 2147 372 2553 
Q 372 3047 722 3315 
Q 1072 3584 1716 3584 
Q 2034 3584 2315 3537 
Q 2597 3491 2834 3397 
z
" transform="scale(0.015625)"/>
      <path id="DejaVuSans-66" d="M 2375 4863 
L 2375 4384 
L 1825 4384 
Q 1516 4384 1395 4259 
Q 1275 4134 1275 3809 
L 1275 3500 
L 2222 3500 
L 2222 3053 
L 1275 3053 
L 1275 0 
L 697 0 
L 697 3053 
L 147 3053 
L 147 3500 
L 697 3500 
L 697 3744 
Q 697 4328 969 4595 
Q 1241 4863 1831 4863 
L 2375 4863 
z
" transform="scale(0.015625)"/>
      <path id="DejaVuSans-38" d="M 2034 2216 
Q 1584 2216 1326 1975 
Q 1069 1734 1069 1313 
Q 1069 891 1326 650 
Q 1584 409 2034 409 
Q 2484 409 2743 651 
Q 3003 894 3003 1313 
Q 3003 1734 2745 1975 
Q 2488 2216 2034 2216 
z
M 1403 2484 
Q 997 2584 770 2862 
Q 544 3141 544 3541 
Q 544 4100 942 4425 
Q 1341 4750 2034 4750 
Q 2731 4750 3128 4425 
Q 3525 4100 3525 3541 
Q 3525 3141 3298 2862 
Q 3072 2584 2669 2484 
Q 3125 2378 3379 2068 
Q 3634 1759 3634 1313 
Q 3634 634 3220 271 
Q 2806 -91 2034 -91 
Q 1263 -91 848 271 
Q 434 634 434 1313 
Q 434 1759 690 2068 
Q 947 2378 1403 2484 
z
M 1172 3481 
Q 1172 3119 1398 2916 
Q 1625 2713 2034 2713 
Q 2441 2713 2670 2916 
Q 2900 3119 2900 3481 
Q 2900 3844 2670 4047 
Q 2441 4250 2034 4250 
Q 1625 4250 1398 4047 
Q 1172 3844 1172 3481 
z
" transform="scale(0.015625)"/>
      <path id="DejaVuSans-63" d="M 3122 3366 
L 3122 2828 
Q 2878 2963 2633 3030 
Q 2388 3097 2138 3097 
Q 1578 3097 1268 2742 
Q 959 2388 959 1747 
Q 959 1106 1268 751 
Q 1578 397 2138 397 
Q 2388 397 2633 464 
Q 2878 531 3122 666 
L 3122 134 
Q 2881 22 2623 -34 
Q 2366 -91 2075 -91 
Q 1284 -91 818 406 
Q 353 903 353 1747 
Q 353 2603 823 3093 
Q 1294 3584 2113 3584 
Q 2378 3584 2631 3529 
Q 2884 3475 3122 3366 
z
" transform="scale(0.015625)"/>
      <path id="DejaVuSans-76" d="M 191 3500 
L 800 3500 
L 1894 563 
L 2988 3500 
L 3597 3500 
L 2284 0 
L 1503 0 
L 191 3500 
z
" transform="scale(0.015625)"/>
     </defs>
     <use xlink:href="#DejaVuSans-44"/>
     <use xlink:href="#DejaVuSans-65" x="77.001953"/>
     <use xlink:href="#DejaVuSans-71" x="138.525391"/>
     <use xlink:href="#DejaVuSans-75" x="202.001953"/>
     <use xlink:href="#DejaVuSans-61" x="265.380859"/>
     <use xlink:href="#DejaVuSans-6e" x="326.660156"/>
     <use xlink:href="#DejaVuSans-74" x="390.039062"/>
     <use xlink:href="#DejaVuSans-69" x="429.248047"/>
     <use xlink:href="#DejaVuSans-7a" x="457.03125"/>
     <use xlink:href="#DejaVuSans-61" x="509.521484"/>
     <use xlink:href="#DejaVuSans-74" x="570.800781"/>
     <use xlink:href="#DejaVuSans-69" x="610.009766"/>
     <use xlink:href="#DejaVuSans-6f" x="637.792969"/>
     <use xlink:href="#DejaVuSans-6e" x="698.974609"/>
     <use xlink:href="#DejaVuSans-20" x="762.353516"/>
     <use xlink:href="#DejaVuSans-64" x="794.140625"/>
     <use xlink:href="#DejaVuSans-69" x="857.617188"/>
     <use xlink:href="#DejaVuSans-73" x="885.400391"/>
     <use xlink:href="#DejaVuSans-74" x="937.5"/>
     <use xlink:href="#DejaVuSans-72" x="976.708984"/>
     <use xlink:href="#DejaVuSans-69" x="1017.822266"/>
     <use xlink:href="#DejaVuSans-62" x="1045.605469"/>
     <use xlink:href="#DejaVuSans-75" x="1109.082031"/>
     <use xlink:href="#DejaVuSans-74" x="1172.460938"/>
     <use xlink:href="#DejaVuSans-69" x="1211.669922"/>
     <use xlink:href="#DejaVuSans-6f" x="1239.453125"/>
     <use xlink:href="#DejaVuSans-6e" x="1300.634766"/>
     <use xlink:href="#DejaVuSans-20" x="1364.013672"/>
     <use xlink:href="#DejaVuSans-66" x="1395.800781"/>
     <use xlink:href="#DejaVuSans-6f" x="1431.005859"/>
     <use xlink:href="#DejaVuSans-72" x="1492.1875"/>
     <use xlink:href="#DejaVuSans-20" x="1533.300781"/>
     <use xlink:href="#DejaVuSans-38" x="1565.087891"/>
     <use xlink:href="#DejaVuSans-20" x="1628.710938"/>
     <use xlink:href="#DejaVuSans-64" x="1660.498047"/>
     <use xlink:href="#DejaVuSans-69" x="1723.974609"/>
     <use xlink:href="#DejaVuSans-73" x="1751.757812"/>
     <use xlink:href="#DejaVuSans-63" x="1803.857422"/>
     <use xlink:href="#DejaVuSans-72" x="1858.837891"/>
     <use xlink:href="#DejaVuSans-65" x="1897.701172"/>
     <use xlink:href="#DejaVuSans-74" x="1959.224609"/>
     <use xlink:href="#DejaVuSans-65" x="1998.433594"/>
     <use xlink:href="#DejaVuSans-20" x="2059.957031"/>
     <use xlink:href="#DejaVuSans-76" x="2091.744141"/>
     <use xlink:href="#DejaVuSans-61" x="2150.923828"/>
     <use xlink:href="#DejaVuSans-6c" x="2212.203125"/>
     <use xlink:href="#DejaVuSans-75" x="2239.986328"/>
     <use xlink:href="#DejaVuSans-65" x="2303.365234"/>
     <use xlink:href="#DejaVuSans-73" x="2364.888672"/>
    </g>
   </g>
   <g id="legend_1">
    <g id="patch_7">
     <path d="M 339.58125 147.743125 
L 377.94375 147.743125 
Q 379.94375 147.743125 379.94375 145.743125 
L 379.94375 29.318125 
Q 379.94375 27.318125 377.94375 27.318125 
L 339.58125 27.318125 
Q 337.58125 27.318125 337.58125 29.318125 
L 337.58125 145.743125 
Q 337.58125 147.743125 339.58125 147.743125 
z
" style="fill: #ffffff; opacity: 0.8; stroke: #cccccc; stroke-linejoin: miter"/>
    </g>
    <g id="patch_8">
     <path d="M 341.58125 38.916562 
L 361.58125 38.916562 
L 361.58125 31.916562 
L 341.58125 31.916562 
z
" style="fill: #1f77b4; fill-opacity: 0.5; stroke: #1f77b4; stroke-opacity: 0.5; stroke-linejoin: miter"/>
    </g>
    <g id="text_19">
     <!-- 0 -->
     <g style="fill: #262626" transform="translate(369.58125 38.916562) scale(0.1 -0.1)">
      <use xlink:href="#DejaVuSans-30"/>
     </g>
    </g>
    <g id="patch_9">
     <path d="M 341.58125 53.594688 
L 361.58125 53.594688 
L 361.58125 46.594688 
L 341.58125 46.594688 
z
" style="fill: #ff7f0e; fill-opacity: 0.5; stroke: #ff7f0e; stroke-opacity: 0.5; stroke-linejoin: miter"/>
    </g>
    <g id="text_20">
     <!-- 1 -->
     <g style="fill: #262626" transform="translate(369.58125 53.594688) scale(0.1 -0.1)">
      <use xlink:href="#DejaVuSans-31"/>
     </g>
    </g>
    <g id="patch_10">
     <path d="M 341.58125 68.272812 
L 361.58125 68.272812 
L 361.58125 61.272812 
L 341.58125 61.272812 
z
" style="fill: #2ca02c; fill-opacity: 0.5; stroke: #2ca02c; stroke-opacity: 0.5; stroke-linejoin: miter"/>
    </g>
    <g id="text_21">
     <!-- 2 -->
     <g style="fill: #262626" transform="translate(369.58125 68.272812) scale(0.1 -0.1)">
      <use xlink:href="#DejaVuSans-32"/>
     </g>
    </g>
    <g id="patch_11">
     <path d="M 341.58125 82.950938 
L 361.58125 82.950938 
L 361.58125 75.950938 
L 341.58125 75.950938 
z
" style="fill: #d62728; fill-opacity: 0.5; stroke: #d62728; stroke-opacity: 0.5; stroke-linejoin: miter"/>
    </g>
    <g id="text_22">
     <!-- 3 -->
     <g style="fill: #262626" transform="translate(369.58125 82.950938) scale(0.1 -0.1)">
      <defs>
       <path id="DejaVuSans-33" d="M 2597 2516 
Q 3050 2419 3304 2112 
Q 3559 1806 3559 1356 
Q 3559 666 3084 287 
Q 2609 -91 1734 -91 
Q 1441 -91 1130 -33 
Q 819 25 488 141 
L 488 750 
Q 750 597 1062 519 
Q 1375 441 1716 441 
Q 2309 441 2620 675 
Q 2931 909 2931 1356 
Q 2931 1769 2642 2001 
Q 2353 2234 1838 2234 
L 1294 2234 
L 1294 2753 
L 1863 2753 
Q 2328 2753 2575 2939 
Q 2822 3125 2822 3475 
Q 2822 3834 2567 4026 
Q 2313 4219 1838 4219 
Q 1578 4219 1281 4162 
Q 984 4106 628 3988 
L 628 4550 
Q 988 4650 1302 4700 
Q 1616 4750 1894 4750 
Q 2613 4750 3031 4423 
Q 3450 4097 3450 3541 
Q 3450 3153 3228 2886 
Q 3006 2619 2597 2516 
z
" transform="scale(0.015625)"/>
      </defs>
      <use xlink:href="#DejaVuSans-33"/>
     </g>
    </g>
    <g id="patch_12">
     <path d="M 341.58125 97.629063 
L 361.58125 97.629063 
L 361.58125 90.629063 
L 341.58125 90.629063 
z
" style="fill: #9467bd; fill-opacity: 0.5; stroke: #9467bd; stroke-opacity: 0.5; stroke-linejoin: miter"/>
    </g>
    <g id="text_23">
     <!-- 4 -->
     <g style="fill: #262626" transform="translate(369.58125 97.629063) scale(0.1 -0.1)">
      <use xlink:href="#DejaVuSans-34"/>
     </g>
    </g>
    <g id="patch_13">
     <path d="M 341.58125 112.307187 
L 361.58125 112.307187 
L 361.58125 105.307187 
L 341.58125 105.307187 
z
" style="fill: #8c564b; fill-opacity: 0.5; stroke: #8c564b; stroke-opacity: 0.5; stroke-linejoin: miter"/>
    </g>
    <g id="text_24">
     <!-- 5 -->
     <g style="fill: #262626" transform="translate(369.58125 112.307187) scale(0.1 -0.1)">
      <use xlink:href="#DejaVuSans-35"/>
     </g>
    </g>
    <g id="patch_14">
     <path d="M 341.58125 126.985312 
L 361.58125 126.985312 
L 361.58125 119.985312 
L 341.58125 119.985312 
z
" style="fill: #e377c2; fill-opacity: 0.5; stroke: #e377c2; stroke-opacity: 0.5; stroke-linejoin: miter"/>
    </g>
    <g id="text_25">
     <!-- 6 -->
     <g style="fill: #262626" transform="translate(369.58125 126.985312) scale(0.1 -0.1)">
      <defs>
       <path id="DejaVuSans-36" d="M 2113 2584 
Q 1688 2584 1439 2293 
Q 1191 2003 1191 1497 
Q 1191 994 1439 701 
Q 1688 409 2113 409 
Q 2538 409 2786 701 
Q 3034 994 3034 1497 
Q 3034 2003 2786 2293 
Q 2538 2584 2113 2584 
z
M 3366 4563 
L 3366 3988 
Q 3128 4100 2886 4159 
Q 2644 4219 2406 4219 
Q 1781 4219 1451 3797 
Q 1122 3375 1075 2522 
Q 1259 2794 1537 2939 
Q 1816 3084 2150 3084 
Q 2853 3084 3261 2657 
Q 3669 2231 3669 1497 
Q 3669 778 3244 343 
Q 2819 -91 2113 -91 
Q 1303 -91 875 529 
Q 447 1150 447 2328 
Q 447 3434 972 4092 
Q 1497 4750 2381 4750 
Q 2619 4750 2861 4703 
Q 3103 4656 3366 4563 
z
" transform="scale(0.015625)"/>
      </defs>
      <use xlink:href="#DejaVuSans-36"/>
     </g>
    </g>
    <g id="patch_15">
     <path d="M 341.58125 141.663437 
L 361.58125 141.663437 
L 361.58125 134.663437 
L 341.58125 134.663437 
z
" style="fill: #7f7f7f; fill-opacity: 0.5; stroke: #7f7f7f; stroke-opacity: 0.5; stroke-linejoin: miter"/>
    </g>
    <g id="text_26">
     <!-- 7 -->
     <g style="fill: #262626" transform="translate(369.58125 141.663437) scale(0.1 -0.1)">
      <defs>
       <path id="DejaVuSans-37" d="M 525 4666 
L 3525 4666 
L 3525 4397 
L 1831 0 
L 1172 0 
L 2766 4134 
L 525 4134 
L 525 4666 
z
" transform="scale(0.015625)"/>
      </defs>
      <use xlink:href="#DejaVuSans-37"/>
     </g>
    </g>
   </g>
  </g>
 </g>
 <defs>
  <clipPath id="p36f98d5c34">
   <rect x="50.14375" y="22.318125" width="334.8" height="166.32"/>
  </clipPath>
 </defs>
</svg>
