<?xml version="1.0" encoding="utf-8" standalone="no"?>
<!DOCTYPE svg PUBLIC "-//W3C//DTD SVG 1.1//EN"
  "http://www.w3.org/Graphics/SVG/1.1/DTD/svg11.dtd">
<svg xmlns:xlink="http://www.w3.org/1999/xlink" width="384.192188pt" height="226.194375pt" viewBox="0 0 384.192188 226.194375" xmlns="http://www.w3.org/2000/svg" version="1.1">
 <metadata>
  <rdf:RDF xmlns:dc="http://purl.org/dc/elements/1.1/" xmlns:cc="http://creativecommons.org/ns#" xmlns:rdf="http://www.w3.org/1999/02/22-rdf-syntax-ns#">
   <cc:Work>
    <dc:type rdf:resource="http://purl.org/dc/dcmitype/StillImage"/>
    <dc:date>2022-05-12T14:19:10.029130</dc:date>
    <dc:format>image/svg+xml</dc:format>
    <dc:creator>
     <cc:Agent>
      <dc:title>Matplotlib v3.5.2, https://matplotlib.org/</dc:title>
     </cc:Agent>
    </dc:creator>
   </cc:Work>
  </rdf:RDF>
 </metadata>
 <defs>
  <style type="text/css">*{stroke-linejoin: round; stroke-linecap: butt}</style>
 </defs>
 <g id="figure_1">
  <g id="patch_1">
   <path d="M 0 226.194375 
L 384.192188 226.194375 
L 384.192188 0 
L 0 0 
z
" style="fill: #ffffff"/>
  </g>
  <g id="axes_1">
   <g id="patch_2">
    <path d="M 34.240625 188.638125 
L 369.040625 188.638125 
L 369.040625 22.318125 
L 34.240625 22.318125 
z
" style="fill: #ffffff"/>
   </g>
   <g id="matplotlib.axis_1">
    <g id="xtick_1">
     <g id="text_1">
      <!-- -4.0 -->
      <g style="fill: #262626" transform="translate(24.485156 203.236563)scale(0.1 -0.1)">
       <defs>
        <path id="DejaVuSans-2d" d="M 313 2009 
L 1997 2009 
L 1997 1497 
L 313 1497 
L 313 2009 
z
" transform="scale(0.015625)"/>
        <path id="DejaVuSans-34" d="M 2419 4116 
L 825 1625 
L 2419 1625 
L 2419 4116 
z
M 2253 4666 
L 3047 4666 
L 3047 1625 
L 3713 1625 
L 3713 1100 
L 3047 1100 
L 3047 0 
L 2419 0 
L 2419 1100 
L 313 1100 
L 313 1709 
L 2253 4666 
z
" transform="scale(0.015625)"/>
        <path id="DejaVuSans-2e" d="M 684 794 
L 1344 794 
L 1344 0 
L 684 0 
L 684 794 
z
" transform="scale(0.015625)"/>
        <path id="DejaVuSans-30" d="M 2034 4250 
Q 1547 4250 1301 3770 
Q 1056 3291 1056 2328 
Q 1056 1369 1301 889 
Q 1547 409 2034 409 
Q 2525 409 2770 889 
Q 3016 1369 3016 2328 
Q 3016 3291 2770 3770 
Q 2525 4250 2034 4250 
z
M 2034 4750 
Q 2819 4750 3233 4129 
Q 3647 3509 3647 2328 
Q 3647 1150 3233 529 
Q 2819 -91 2034 -91 
Q 1250 -91 836 529 
Q 422 1150 422 2328 
Q 422 3509 836 4129 
Q 1250 4750 2034 4750 
z
" transform="scale(0.015625)"/>
       </defs>
       <use xlink:href="#DejaVuSans-2d"/>
       <use xlink:href="#DejaVuSans-34" x="36.083984"/>
       <use xlink:href="#DejaVuSans-2e" x="99.707031"/>
       <use xlink:href="#DejaVuSans-30" x="131.494141"/>
      </g>
     </g>
    </g>
    <g id="xtick_2">
     <g id="text_2">
      <!-- -1.9 -->
      <g style="fill: #262626" transform="translate(110.804052 203.236563)scale(0.1 -0.1)">
       <defs>
        <path id="DejaVuSans-31" d="M 794 531 
L 1825 531 
L 1825 4091 
L 703 3866 
L 703 4441 
L 1819 4666 
L 2450 4666 
L 2450 531 
L 3481 531 
L 3481 0 
L 794 0 
L 794 531 
z
" transform="scale(0.015625)"/>
        <path id="DejaVuSans-39" d="M 703 97 
L 703 672 
Q 941 559 1184 500 
Q 1428 441 1663 441 
Q 2288 441 2617 861 
Q 2947 1281 2994 2138 
Q 2813 1869 2534 1725 
Q 2256 1581 1919 1581 
Q 1219 1581 811 2004 
Q 403 2428 403 3163 
Q 403 3881 828 4315 
Q 1253 4750 1959 4750 
Q 2769 4750 3195 4129 
Q 3622 3509 3622 2328 
Q 3622 1225 3098 567 
Q 2575 -91 1691 -91 
Q 1453 -91 1209 -44 
Q 966 3 703 97 
z
M 1959 2075 
Q 2384 2075 2632 2365 
Q 2881 2656 2881 3163 
Q 2881 3666 2632 3958 
Q 2384 4250 1959 4250 
Q 1534 4250 1286 3958 
Q 1038 3666 1038 3163 
Q 1038 2656 1286 2365 
Q 1534 2075 1959 2075 
z
" transform="scale(0.015625)"/>
       </defs>
       <use xlink:href="#DejaVuSans-2d"/>
       <use xlink:href="#DejaVuSans-31" x="36.083984"/>
       <use xlink:href="#DejaVuSans-2e" x="99.707031"/>
       <use xlink:href="#DejaVuSans-39" x="131.494141"/>
      </g>
     </g>
    </g>
    <g id="xtick_3">
     <g id="text_3">
      <!-- -1.1 -->
      <g style="fill: #262626" transform="translate(146.421075 203.236563)scale(0.1 -0.1)">
       <use xlink:href="#DejaVuSans-2d"/>
       <use xlink:href="#DejaVuSans-31" x="36.083984"/>
       <use xlink:href="#DejaVuSans-2e" x="99.707031"/>
       <use xlink:href="#DejaVuSans-31" x="131.494141"/>
      </g>
     </g>
    </g>
    <g id="xtick_4">
     <g id="text_4">
      <!-- -0.5 -->
      <g style="fill: #262626" transform="translate(170.724456 203.236563)scale(0.1 -0.1)">
       <defs>
        <path id="DejaVuSans-35" d="M 691 4666 
L 3169 4666 
L 3169 4134 
L 1269 4134 
L 1269 2991 
Q 1406 3038 1543 3061 
Q 1681 3084 1819 3084 
Q 2600 3084 3056 2656 
Q 3513 2228 3513 1497 
Q 3513 744 3044 326 
Q 2575 -91 1722 -91 
Q 1428 -91 1123 -41 
Q 819 9 494 109 
L 494 744 
Q 775 591 1075 516 
Q 1375 441 1709 441 
Q 2250 441 2565 725 
Q 2881 1009 2881 1497 
Q 2881 1984 2565 2268 
Q 2250 2553 1709 2553 
Q 1456 2553 1204 2497 
Q 953 2441 691 2322 
L 691 4666 
z
" transform="scale(0.015625)"/>
       </defs>
       <use xlink:href="#DejaVuSans-2d"/>
       <use xlink:href="#DejaVuSans-30" x="36.083984"/>
       <use xlink:href="#DejaVuSans-2e" x="99.707031"/>
       <use xlink:href="#DejaVuSans-35" x="131.494141"/>
      </g>
     </g>
    </g>
    <g id="xtick_5">
     <g id="text_5">
      <!-- 0.0 -->
      <g style="fill: #262626" transform="translate(193.898574 203.236563)scale(0.1 -0.1)">
       <use xlink:href="#DejaVuSans-30"/>
       <use xlink:href="#DejaVuSans-2e" x="63.623047"/>
       <use xlink:href="#DejaVuSans-30" x="95.410156"/>
      </g>
     </g>
    </g>
    <g id="xtick_6">
     <g id="text_6">
      <!-- 0.5 -->
      <g style="fill: #262626" transform="translate(215.68781 203.236563)scale(0.1 -0.1)">
       <use xlink:href="#DejaVuSans-30"/>
       <use xlink:href="#DejaVuSans-2e" x="63.623047"/>
       <use xlink:href="#DejaVuSans-35" x="95.410156"/>
      </g>
     </g>
    </g>
    <g id="xtick_7">
     <g id="text_7">
      <!-- 1.1 -->
      <g style="fill: #262626" transform="translate(239.991186 203.236563)scale(0.1 -0.1)">
       <use xlink:href="#DejaVuSans-31"/>
       <use xlink:href="#DejaVuSans-2e" x="63.623047"/>
       <use xlink:href="#DejaVuSans-31" x="95.410156"/>
      </g>
     </g>
    </g>
    <g id="xtick_8">
     <g id="text_8">
      <!-- 1.9 -->
      <g style="fill: #262626" transform="translate(275.608208 203.236563)scale(0.1 -0.1)">
       <use xlink:href="#DejaVuSans-31"/>
       <use xlink:href="#DejaVuSans-2e" x="63.623047"/>
       <use xlink:href="#DejaVuSans-39" x="95.410156"/>
      </g>
     </g>
    </g>
    <g id="xtick_9">
     <g id="text_9">
      <!-- 4.0 -->
      <g style="fill: #262626" transform="translate(361.089063 203.236563)scale(0.1 -0.1)">
       <use xlink:href="#DejaVuSans-34"/>
       <use xlink:href="#DejaVuSans-2e" x="63.623047"/>
       <use xlink:href="#DejaVuSans-30" x="95.410156"/>
      </g>
     </g>
    </g>
    <g id="text_10">
     <!-- z -->
     <g style="fill: #262626" transform="translate(199.016406 216.914688)scale(0.1 -0.1)">
      <defs>
       <path id="DejaVuSans-7a" d="M 353 3500 
L 3084 3500 
L 3084 2975 
L 922 459 
L 3084 459 
L 3084 0 
L 275 0 
L 275 525 
L 2438 3041 
L 353 3041 
L 353 3500 
z
" transform="scale(0.015625)"/>
      </defs>
      <use xlink:href="#DejaVuSans-7a"/>
     </g>
    </g>
   </g>
   <g id="matplotlib.axis_2">
    <g id="ytick_1">
     <g id="text_11">
      <!-- 0 -->
      <g style="fill: #262626" transform="translate(20.878125 192.437344)scale(0.1 -0.1)">
       <use xlink:href="#DejaVuSans-30"/>
      </g>
     </g>
    </g>
    <g id="ytick_2">
     <g id="text_12">
      <!-- 1 -->
      <g style="fill: #262626" transform="translate(20.878125 167.178983)scale(0.1 -0.1)">
       <use xlink:href="#DejaVuSans-31"/>
      </g>
     </g>
    </g>
    <g id="ytick_3">
     <g id="text_13">
      <!-- 2 -->
      <g style="fill: #262626" transform="translate(20.878125 141.920622)scale(0.1 -0.1)">
       <defs>
        <path id="DejaVuSans-32" d="M 1228 531 
L 3431 531 
L 3431 0 
L 469 0 
L 469 531 
Q 828 903 1448 1529 
Q 2069 2156 2228 2338 
Q 2531 2678 2651 2914 
Q 2772 3150 2772 3378 
Q 2772 3750 2511 3984 
Q 2250 4219 1831 4219 
Q 1534 4219 1204 4116 
Q 875 4013 500 3803 
L 500 4441 
Q 881 4594 1212 4672 
Q 1544 4750 1819 4750 
Q 2544 4750 2975 4387 
Q 3406 4025 3406 3419 
Q 3406 3131 3298 2873 
Q 3191 2616 2906 2266 
Q 2828 2175 2409 1742 
Q 1991 1309 1228 531 
z
" transform="scale(0.015625)"/>
       </defs>
       <use xlink:href="#DejaVuSans-32"/>
      </g>
     </g>
    </g>
    <g id="ytick_4">
     <g id="text_14">
      <!-- 3 -->
      <g style="fill: #262626" transform="translate(20.878125 116.662261)scale(0.1 -0.1)">
       <defs>
        <path id="DejaVuSans-33" d="M 2597 2516 
Q 3050 2419 3304 2112 
Q 3559 1806 3559 1356 
Q 3559 666 3084 287 
Q 2609 -91 1734 -91 
Q 1441 -91 1130 -33 
Q 819 25 488 141 
L 488 750 
Q 750 597 1062 519 
Q 1375 441 1716 441 
Q 2309 441 2620 675 
Q 2931 909 2931 1356 
Q 2931 1769 2642 2001 
Q 2353 2234 1838 2234 
L 1294 2234 
L 1294 2753 
L 1863 2753 
Q 2328 2753 2575 2939 
Q 2822 3125 2822 3475 
Q 2822 3834 2567 4026 
Q 2313 4219 1838 4219 
Q 1578 4219 1281 4162 
Q 984 4106 628 3988 
L 628 4550 
Q 988 4650 1302 4700 
Q 1616 4750 1894 4750 
Q 2613 4750 3031 4423 
Q 3450 4097 3450 3541 
Q 3450 3153 3228 2886 
Q 3006 2619 2597 2516 
z
" transform="scale(0.015625)"/>
       </defs>
       <use xlink:href="#DejaVuSans-33"/>
      </g>
     </g>
    </g>
    <g id="ytick_5">
     <g id="text_15">
      <!-- 4 -->
      <g style="fill: #262626" transform="translate(20.878125 91.4039)scale(0.1 -0.1)">
       <use xlink:href="#DejaVuSans-34"/>
      </g>
     </g>
    </g>
    <g id="ytick_6">
     <g id="text_16">
      <!-- 5 -->
      <g style="fill: #262626" transform="translate(20.878125 66.145539)scale(0.1 -0.1)">
       <use xlink:href="#DejaVuSans-35"/>
      </g>
     </g>
    </g>
    <g id="ytick_7">
     <g id="text_17">
      <!-- 6 -->
      <g style="fill: #262626" transform="translate(20.878125 40.887178)scale(0.1 -0.1)">
       <defs>
        <path id="DejaVuSans-36" d="M 2113 2584 
Q 1688 2584 1439 2293 
Q 1191 2003 1191 1497 
Q 1191 994 1439 701 
Q 1688 409 2113 409 
Q 2538 409 2786 701 
Q 3034 994 3034 1497 
Q 3034 2003 2786 2293 
Q 2538 2584 2113 2584 
z
M 3366 4563 
L 3366 3988 
Q 3128 4100 2886 4159 
Q 2644 4219 2406 4219 
Q 1781 4219 1451 3797 
Q 1122 3375 1075 2522 
Q 1259 2794 1537 2939 
Q 1816 3084 2150 3084 
Q 2853 3084 3261 2657 
Q 3669 2231 3669 1497 
Q 3669 778 3244 343 
Q 2819 -91 2113 -91 
Q 1303 -91 875 529 
Q 447 1150 447 2328 
Q 447 3434 972 4092 
Q 1497 4750 2381 4750 
Q 2619 4750 2861 4703 
Q 3103 4656 3366 4563 
z
" transform="scale(0.015625)"/>
       </defs>
       <use xlink:href="#DejaVuSans-36"/>
      </g>
     </g>
    </g>
    <g id="text_18">
     <!-- Probability -->
     <g style="fill: #262626" transform="translate(14.798437 131.907031)rotate(-90)scale(0.1 -0.1)">
      <defs>
       <path id="DejaVuSans-50" d="M 1259 4147 
L 1259 2394 
L 2053 2394 
Q 2494 2394 2734 2622 
Q 2975 2850 2975 3272 
Q 2975 3691 2734 3919 
Q 2494 4147 2053 4147 
L 1259 4147 
z
M 628 4666 
L 2053 4666 
Q 2838 4666 3239 4311 
Q 3641 3956 3641 3272 
Q 3641 2581 3239 2228 
Q 2838 1875 2053 1875 
L 1259 1875 
L 1259 0 
L 628 0 
L 628 4666 
z
" transform="scale(0.015625)"/>
       <path id="DejaVuSans-72" d="M 2631 2963 
Q 2534 3019 2420 3045 
Q 2306 3072 2169 3072 
Q 1681 3072 1420 2755 
Q 1159 2438 1159 1844 
L 1159 0 
L 581 0 
L 581 3500 
L 1159 3500 
L 1159 2956 
Q 1341 3275 1631 3429 
Q 1922 3584 2338 3584 
Q 2397 3584 2469 3576 
Q 2541 3569 2628 3553 
L 2631 2963 
z
" transform="scale(0.015625)"/>
       <path id="DejaVuSans-6f" d="M 1959 3097 
Q 1497 3097 1228 2736 
Q 959 2375 959 1747 
Q 959 1119 1226 758 
Q 1494 397 1959 397 
Q 2419 397 2687 759 
Q 2956 1122 2956 1747 
Q 2956 2369 2687 2733 
Q 2419 3097 1959 3097 
z
M 1959 3584 
Q 2709 3584 3137 3096 
Q 3566 2609 3566 1747 
Q 3566 888 3137 398 
Q 2709 -91 1959 -91 
Q 1206 -91 779 398 
Q 353 888 353 1747 
Q 353 2609 779 3096 
Q 1206 3584 1959 3584 
z
" transform="scale(0.015625)"/>
       <path id="DejaVuSans-62" d="M 3116 1747 
Q 3116 2381 2855 2742 
Q 2594 3103 2138 3103 
Q 1681 3103 1420 2742 
Q 1159 2381 1159 1747 
Q 1159 1113 1420 752 
Q 1681 391 2138 391 
Q 2594 391 2855 752 
Q 3116 1113 3116 1747 
z
M 1159 2969 
Q 1341 3281 1617 3432 
Q 1894 3584 2278 3584 
Q 2916 3584 3314 3078 
Q 3713 2572 3713 1747 
Q 3713 922 3314 415 
Q 2916 -91 2278 -91 
Q 1894 -91 1617 61 
Q 1341 213 1159 525 
L 1159 0 
L 581 0 
L 581 4863 
L 1159 4863 
L 1159 2969 
z
" transform="scale(0.015625)"/>
       <path id="DejaVuSans-61" d="M 2194 1759 
Q 1497 1759 1228 1600 
Q 959 1441 959 1056 
Q 959 750 1161 570 
Q 1363 391 1709 391 
Q 2188 391 2477 730 
Q 2766 1069 2766 1631 
L 2766 1759 
L 2194 1759 
z
M 3341 1997 
L 3341 0 
L 2766 0 
L 2766 531 
Q 2569 213 2275 61 
Q 1981 -91 1556 -91 
Q 1019 -91 701 211 
Q 384 513 384 1019 
Q 384 1609 779 1909 
Q 1175 2209 1959 2209 
L 2766 2209 
L 2766 2266 
Q 2766 2663 2505 2880 
Q 2244 3097 1772 3097 
Q 1472 3097 1187 3025 
Q 903 2953 641 2809 
L 641 3341 
Q 956 3463 1253 3523 
Q 1550 3584 1831 3584 
Q 2591 3584 2966 3190 
Q 3341 2797 3341 1997 
z
" transform="scale(0.015625)"/>
       <path id="DejaVuSans-69" d="M 603 3500 
L 1178 3500 
L 1178 0 
L 603 0 
L 603 3500 
z
M 603 4863 
L 1178 4863 
L 1178 4134 
L 603 4134 
L 603 4863 
z
" transform="scale(0.015625)"/>
       <path id="DejaVuSans-6c" d="M 603 4863 
L 1178 4863 
L 1178 0 
L 603 0 
L 603 4863 
z
" transform="scale(0.015625)"/>
       <path id="DejaVuSans-74" d="M 1172 4494 
L 1172 3500 
L 2356 3500 
L 2356 3053 
L 1172 3053 
L 1172 1153 
Q 1172 725 1289 603 
Q 1406 481 1766 481 
L 2356 481 
L 2356 0 
L 1766 0 
Q 1100 0 847 248 
Q 594 497 594 1153 
L 594 3053 
L 172 3053 
L 172 3500 
L 594 3500 
L 594 4494 
L 1172 4494 
z
" transform="scale(0.015625)"/>
       <path id="DejaVuSans-79" d="M 2059 -325 
Q 1816 -950 1584 -1140 
Q 1353 -1331 966 -1331 
L 506 -1331 
L 506 -850 
L 844 -850 
Q 1081 -850 1212 -737 
Q 1344 -625 1503 -206 
L 1606 56 
L 191 3500 
L 800 3500 
L 1894 763 
L 2988 3500 
L 3597 3500 
L 2059 -325 
z
" transform="scale(0.015625)"/>
      </defs>
      <use xlink:href="#DejaVuSans-50"/>
      <use xlink:href="#DejaVuSans-72" x="58.552734"/>
      <use xlink:href="#DejaVuSans-6f" x="97.416016"/>
      <use xlink:href="#DejaVuSans-62" x="158.597656"/>
      <use xlink:href="#DejaVuSans-61" x="222.074219"/>
      <use xlink:href="#DejaVuSans-62" x="283.353516"/>
      <use xlink:href="#DejaVuSans-69" x="346.830078"/>
      <use xlink:href="#DejaVuSans-6c" x="374.613281"/>
      <use xlink:href="#DejaVuSans-69" x="402.396484"/>
      <use xlink:href="#DejaVuSans-74" x="430.179688"/>
      <use xlink:href="#DejaVuSans-79" x="469.388672"/>
     </g>
    </g>
   </g>
   <g id="PolyCollection_1">
    <defs>
     <path id="m86a3a2cffd" d="M 34.240625 -37.55625 
L 34.240625 -39.697679 
L 34.659648 -39.718418 
L 35.078672 -39.739352 
L 35.497695 -39.76048 
L 35.916719 -39.781804 
L 36.335742 -39.803325 
L 36.754765 -39.825048 
L 37.173789 -39.846971 
L 37.592812 -39.869097 
L 38.011835 -39.891429 
L 38.430859 -39.913966 
L 38.849882 -39.936713 
L 39.268906 -39.959668 
L 39.687929 -39.982837 
L 40.106952 -40.006218 
L 40.525976 -40.029814 
L 40.945009 -40.053628 
L 41.364032 -40.077661 
L 41.783056 -40.101914 
L 42.202079 -40.12639 
L 42.621103 -40.151089 
L 43.040126 -40.176016 
L 43.459149 -40.201171 
L 43.878173 -40.226554 
L 44.297196 -40.252171 
L 44.716219 -40.27802 
L 45.135243 -40.304104 
L 45.554266 -40.330427 
L 45.97329 -40.356988 
L 46.392313 -40.383791 
L 46.811336 -40.410837 
L 47.23036 -40.438129 
L 47.649383 -40.465667 
L 48.068407 -40.493456 
L 48.48743 -40.521493 
L 48.906453 -40.549785 
L 49.325477 -40.578331 
L 49.7445 -40.607135 
L 50.163523 -40.636197 
L 50.582547 -40.665521 
L 51.00158 -40.695109 
L 51.420604 -40.72496 
L 51.839627 -40.755079 
L 52.25865 -40.785467 
L 52.677674 -40.816126 
L 53.096697 -40.847059 
L 53.51572 -40.878268 
L 53.934744 -40.909754 
L 54.353767 -40.94152 
L 54.772791 -40.973567 
L 55.191814 -41.005899 
L 55.610837 -41.038515 
L 56.029861 -41.071422 
L 56.448884 -41.104617 
L 56.867907 -41.138106 
L 57.286931 -41.17189 
L 57.705954 -41.20597 
L 58.124978 -41.24035 
L 58.544001 -41.275029 
L 58.963024 -41.310013 
L 59.382048 -41.345302 
L 59.801071 -41.3809 
L 60.220095 -41.416808 
L 60.639118 -41.453027 
L 61.058151 -41.489563 
L 61.477175 -41.526414 
L 61.896198 -41.563585 
L 62.315221 -41.601075 
L 62.734245 -41.638891 
L 63.153268 -41.67703 
L 63.572292 -41.715499 
L 63.991315 -41.754298 
L 64.410338 -41.793431 
L 64.829362 -41.832896 
L 65.248385 -41.8727 
L 65.667408 -41.912843 
L 66.086432 -41.953329 
L 66.505455 -41.994156 
L 66.924479 -42.035331 
L 67.343502 -42.076855 
L 67.762525 -42.118732 
L 68.181549 -42.160959 
L 68.600572 -42.203541 
L 69.019595 -42.246484 
L 69.438619 -42.289785 
L 69.857642 -42.33345 
L 70.276666 -42.377478 
L 70.695689 -42.421872 
L 71.114722 -42.466639 
L 71.533746 -42.511777 
L 71.952769 -42.557286 
L 72.371793 -42.603175 
L 72.790816 -42.649442 
L 73.209839 -42.696088 
L 73.628863 -42.743117 
L 74.047886 -42.790534 
L 74.466909 -42.838337 
L 74.885933 -42.88653 
L 75.304956 -42.935117 
L 75.72398 -42.984097 
L 76.143003 -43.033475 
L 76.562026 -43.083251 
L 76.98105 -43.133429 
L 77.400073 -43.184011 
L 77.819096 -43.234998 
L 78.23812 -43.286395 
L 78.657143 -43.338203 
L 79.076167 -43.390423 
L 79.49519 -43.443058 
L 79.914213 -43.496112 
L 80.333237 -43.549584 
L 80.75226 -43.603476 
L 81.171283 -43.657792 
L 81.590307 -43.712535 
L 82.00933 -43.767706 
L 82.428354 -43.823306 
L 82.847377 -43.87934 
L 83.2664 -43.935806 
L 83.685424 -43.992711 
L 84.104447 -44.050055 
L 84.523481 -44.107837 
L 84.942504 -44.166066 
L 85.361527 -44.224735 
L 85.780551 -44.283852 
L 86.199574 -44.343419 
L 86.618597 -44.403437 
L 87.037621 -44.463907 
L 87.456644 -44.524832 
L 87.875668 -44.586214 
L 88.294691 -44.648054 
L 88.713714 -44.710354 
L 89.132738 -44.773115 
L 89.551761 -44.83634 
L 89.970784 -44.900031 
L 90.389808 -44.964191 
L 90.808831 -45.028819 
L 91.227855 -45.093917 
L 91.646878 -45.159492 
L 92.065901 -45.225535 
L 92.484925 -45.292059 
L 92.903948 -45.359056 
L 93.322971 -45.426536 
L 93.741995 -45.494493 
L 94.161018 -45.562934 
L 94.580052 -45.63186 
L 94.999075 -45.701271 
L 95.418098 -45.771167 
L 95.837122 -45.841546 
L 96.256145 -45.912418 
L 96.675169 -45.983783 
L 97.094192 -46.055632 
L 97.513215 -46.127979 
L 97.932239 -46.200819 
L 98.351262 -46.274152 
L 98.770285 -46.347981 
L 99.189309 -46.422306 
L 99.608332 -46.49713 
L 100.027356 -46.572453 
L 100.446379 -46.648271 
L 100.865402 -46.724592 
L 101.284426 -46.801416 
L 101.703449 -46.878738 
L 102.122472 -46.956567 
L 102.541496 -47.034892 
L 102.960519 -47.113725 
L 103.379543 -47.193061 
L 103.798566 -47.272898 
L 104.217589 -47.353243 
L 104.636623 -47.434093 
L 105.055646 -47.515447 
L 105.474669 -47.597304 
L 105.893693 -47.67967 
L 106.312716 -47.76254 
L 106.73174 -47.845913 
L 107.150763 -47.929794 
L 107.569786 -48.014173 
L 107.98881 -48.099064 
L 108.407833 -48.184455 
L 108.826857 -48.270355 
L 109.24588 -48.356753 
L 109.664903 -48.443656 
L 110.083927 -48.531058 
L 110.50295 -48.618963 
L 110.921973 -48.707369 
L 111.340997 -48.796278 
L 111.76002 -48.885679 
L 112.179044 -48.975585 
L 112.598067 -49.065985 
L 113.01709 -49.15688 
L 113.436114 -49.248268 
L 113.855137 -49.340148 
L 114.27416 -49.432521 
L 114.693194 -49.525383 
L 115.112217 -49.618732 
L 115.531241 -49.71257 
L 115.950264 -49.806888 
L 116.369287 -49.901691 
L 116.788311 -49.996978 
L 117.207334 -50.092738 
L 117.626357 -50.188975 
L 118.045381 -50.285684 
L 118.464404 -50.382871 
L 118.883428 -50.480516 
L 119.302451 -50.578631 
L 119.721474 -50.677216 
L 120.140498 -50.776251 
L 120.140498 -37.55625 
L 120.140498 -37.55625 
L 119.721474 -37.55625 
L 119.302451 -37.55625 
L 118.883428 -37.55625 
L 118.464404 -37.55625 
L 118.045381 -37.55625 
L 117.626357 -37.55625 
L 117.207334 -37.55625 
L 116.788311 -37.55625 
L 116.369287 -37.55625 
L 115.950264 -37.55625 
L 115.531241 -37.55625 
L 115.112217 -37.55625 
L 114.693194 -37.55625 
L 114.27416 -37.55625 
L 113.855137 -37.55625 
L 113.436114 -37.55625 
L 113.01709 -37.55625 
L 112.598067 -37.55625 
L 112.179044 -37.55625 
L 111.76002 -37.55625 
L 111.340997 -37.55625 
L 110.921973 -37.55625 
L 110.50295 -37.55625 
L 110.083927 -37.55625 
L 109.664903 -37.55625 
L 109.24588 -37.55625 
L 108.826857 -37.55625 
L 108.407833 -37.55625 
L 107.98881 -37.55625 
L 107.569786 -37.55625 
L 107.150763 -37.55625 
L 106.73174 -37.55625 
L 106.312716 -37.55625 
L 105.893693 -37.55625 
L 105.474669 -37.55625 
L 105.055646 -37.55625 
L 104.636623 -37.55625 
L 104.217589 -37.55625 
L 103.798566 -37.55625 
L 103.379543 -37.55625 
L 102.960519 -37.55625 
L 102.541496 -37.55625 
L 102.122472 -37.55625 
L 101.703449 -37.55625 
L 101.284426 -37.55625 
L 100.865402 -37.55625 
L 100.446379 -37.55625 
L 100.027356 -37.55625 
L 99.608332 -37.55625 
L 99.189309 -37.55625 
L 98.770285 -37.55625 
L 98.351262 -37.55625 
L 97.932239 -37.55625 
L 97.513215 -37.55625 
L 97.094192 -37.55625 
L 96.675169 -37.55625 
L 96.256145 -37.55625 
L 95.837122 -37.55625 
L 95.418098 -37.55625 
L 94.999075 -37.55625 
L 94.580052 -37.55625 
L 94.161018 -37.55625 
L 93.741995 -37.55625 
L 93.322971 -37.55625 
L 92.903948 -37.55625 
L 92.484925 -37.55625 
L 92.065901 -37.55625 
L 91.646878 -37.55625 
L 91.227855 -37.55625 
L 90.808831 -37.55625 
L 90.389808 -37.55625 
L 89.970784 -37.55625 
L 89.551761 -37.55625 
L 89.132738 -37.55625 
L 88.713714 -37.55625 
L 88.294691 -37.55625 
L 87.875668 -37.55625 
L 87.456644 -37.55625 
L 87.037621 -37.55625 
L 86.618597 -37.55625 
L 86.199574 -37.55625 
L 85.780551 -37.55625 
L 85.361527 -37.55625 
L 84.942504 -37.55625 
L 84.523481 -37.55625 
L 84.104447 -37.55625 
L 83.685424 -37.55625 
L 83.2664 -37.55625 
L 82.847377 -37.55625 
L 82.428354 -37.55625 
L 82.00933 -37.55625 
L 81.590307 -37.55625 
L 81.171283 -37.55625 
L 80.75226 -37.55625 
L 80.333237 -37.55625 
L 79.914213 -37.55625 
L 79.49519 -37.55625 
L 79.076167 -37.55625 
L 78.657143 -37.55625 
L 78.23812 -37.55625 
L 77.819096 -37.55625 
L 77.400073 -37.55625 
L 76.98105 -37.55625 
L 76.562026 -37.55625 
L 76.143003 -37.55625 
L 75.72398 -37.55625 
L 75.304956 -37.55625 
L 74.885933 -37.55625 
L 74.466909 -37.55625 
L 74.047886 -37.55625 
L 73.628863 -37.55625 
L 73.209839 -37.55625 
L 72.790816 -37.55625 
L 72.371793 -37.55625 
L 71.952769 -37.55625 
L 71.533746 -37.55625 
L 71.114722 -37.55625 
L 70.695689 -37.55625 
L 70.276666 -37.55625 
L 69.857642 -37.55625 
L 69.438619 -37.55625 
L 69.019595 -37.55625 
L 68.600572 -37.55625 
L 68.181549 -37.55625 
L 67.762525 -37.55625 
L 67.343502 -37.55625 
L 66.924479 -37.55625 
L 66.505455 -37.55625 
L 66.086432 -37.55625 
L 65.667408 -37.55625 
L 65.248385 -37.55625 
L 64.829362 -37.55625 
L 64.410338 -37.55625 
L 63.991315 -37.55625 
L 63.572292 -37.55625 
L 63.153268 -37.55625 
L 62.734245 -37.55625 
L 62.315221 -37.55625 
L 61.896198 -37.55625 
L 61.477175 -37.55625 
L 61.058151 -37.55625 
L 60.639118 -37.55625 
L 60.220095 -37.55625 
L 59.801071 -37.55625 
L 59.382048 -37.55625 
L 58.963024 -37.55625 
L 58.544001 -37.55625 
L 58.124978 -37.55625 
L 57.705954 -37.55625 
L 57.286931 -37.55625 
L 56.867907 -37.55625 
L 56.448884 -37.55625 
L 56.029861 -37.55625 
L 55.610837 -37.55625 
L 55.191814 -37.55625 
L 54.772791 -37.55625 
L 54.353767 -37.55625 
L 53.934744 -37.55625 
L 53.51572 -37.55625 
L 53.096697 -37.55625 
L 52.677674 -37.55625 
L 52.25865 -37.55625 
L 51.839627 -37.55625 
L 51.420604 -37.55625 
L 51.00158 -37.55625 
L 50.582547 -37.55625 
L 50.163523 -37.55625 
L 49.7445 -37.55625 
L 49.325477 -37.55625 
L 48.906453 -37.55625 
L 48.48743 -37.55625 
L 48.068407 -37.55625 
L 47.649383 -37.55625 
L 47.23036 -37.55625 
L 46.811336 -37.55625 
L 46.392313 -37.55625 
L 45.97329 -37.55625 
L 45.554266 -37.55625 
L 45.135243 -37.55625 
L 44.716219 -37.55625 
L 44.297196 -37.55625 
L 43.878173 -37.55625 
L 43.459149 -37.55625 
L 43.040126 -37.55625 
L 42.621103 -37.55625 
L 42.202079 -37.55625 
L 41.783056 -37.55625 
L 41.364032 -37.55625 
L 40.945009 -37.55625 
L 40.525976 -37.55625 
L 40.106952 -37.55625 
L 39.687929 -37.55625 
L 39.268906 -37.55625 
L 38.849882 -37.55625 
L 38.430859 -37.55625 
L 38.011835 -37.55625 
L 37.592812 -37.55625 
L 37.173789 -37.55625 
L 36.754765 -37.55625 
L 36.335742 -37.55625 
L 35.916719 -37.55625 
L 35.497695 -37.55625 
L 35.078672 -37.55625 
L 34.659648 -37.55625 
L 34.240625 -37.55625 
z
" style="stroke: #1f77b4; stroke-opacity: 0.5"/>
    </defs>
    <g clip-path="url(#pfb33315d50)">
     <use xlink:href="#m86a3a2cffd" x="0" y="226.194375" style="fill: #1f77b4; fill-opacity: 0.5; stroke: #1f77b4; stroke-opacity: 0.5"/>
    </g>
   </g>
   <g id="PolyCollection_2">
    <defs>
     <path id="m262a478bf3" d="M 120.559521 -37.55625 
L 120.559521 -73.07491 
L 120.978549 -73.341453 
L 121.397573 -73.609189 
L 121.816596 -73.878115 
L 122.23562 -74.148227 
L 122.654643 -74.419504 
L 123.073666 -74.691959 
L 123.49269 -74.965553 
L 123.911713 -75.24032 
L 124.330742 -75.516198 
L 124.74976 -75.793204 
L 125.168783 -76.071312 
L 125.587807 -76.350519 
L 126.00683 -76.63082 
L 126.425853 -76.912204 
L 126.844877 -77.194634 
L 127.2639 -77.478119 
L 127.682929 -77.762635 
L 128.101952 -78.048175 
L 128.520975 -78.334719 
L 128.939999 -78.622246 
L 129.359022 -78.910765 
L 129.778045 -79.200239 
L 130.197069 -79.490656 
L 130.616092 -79.782003 
L 131.035121 -80.074261 
L 131.454144 -80.367439 
L 131.873167 -80.661465 
L 132.292191 -80.956373 
L 132.711214 -81.252114 
L 133.130237 -81.548689 
L 133.549261 -81.846073 
L 133.968284 -82.144242 
L 134.387313 -82.443187 
L 134.806331 -82.742869 
L 135.225354 -83.043283 
L 135.644378 -83.3444 
L 136.063401 -83.646221 
L 136.482425 -83.948697 
L 136.901448 -84.251819 
L 137.320471 -84.555567 
L 137.7395 -84.859932 
L 138.158523 -85.164855 
L 138.577546 -85.470338 
L 138.99657 -85.776345 
L 139.415593 -86.082859 
L 139.834617 -86.389868 
L 140.25364 -86.697331 
L 140.672663 -87.005217 
L 141.091692 -87.313522 
L 141.51071 -87.622199 
L 141.929733 -87.931222 
L 142.348757 -88.240593 
L 142.76778 -88.550247 
L 143.186804 -88.86019 
L 143.605827 -89.17037 
L 144.02485 -89.480762 
L 144.443879 -89.79136 
L 144.862902 -90.102108 
L 145.281925 -90.412991 
L 145.700949 -90.723975 
L 146.119972 -91.035017 
L 146.538996 -91.346108 
L 146.958019 -91.657217 
L 147.377042 -91.968293 
L 147.796071 -92.279315 
L 148.215094 -92.590256 
L 148.634118 -92.901076 
L 149.053141 -93.211757 
L 149.472164 -93.522235 
L 149.891188 -93.832511 
L 150.310211 -94.142537 
L 150.729234 -94.452273 
L 151.148263 -94.761696 
L 151.567281 -95.070773 
L 151.986305 -95.379459 
L 152.405328 -95.687711 
L 152.824351 -95.995511 
L 153.243375 -96.302814 
L 153.662398 -96.609597 
L 154.081421 -96.915812 
L 154.50045 -97.221415 
L 154.919473 -97.526387 
L 155.338497 -97.830674 
L 155.75752 -98.134254 
L 155.75752 -37.55625 
L 155.75752 -37.55625 
L 155.338497 -37.55625 
L 154.919473 -37.55625 
L 154.50045 -37.55625 
L 154.081421 -37.55625 
L 153.662398 -37.55625 
L 153.243375 -37.55625 
L 152.824351 -37.55625 
L 152.405328 -37.55625 
L 151.986305 -37.55625 
L 151.567281 -37.55625 
L 151.148263 -37.55625 
L 150.729234 -37.55625 
L 150.310211 -37.55625 
L 149.891188 -37.55625 
L 149.472164 -37.55625 
L 149.053141 -37.55625 
L 148.634118 -37.55625 
L 148.215094 -37.55625 
L 147.796071 -37.55625 
L 147.377042 -37.55625 
L 146.958019 -37.55625 
L 146.538996 -37.55625 
L 146.119972 -37.55625 
L 145.700949 -37.55625 
L 145.281925 -37.55625 
L 144.862902 -37.55625 
L 144.443879 -37.55625 
L 144.02485 -37.55625 
L 143.605827 -37.55625 
L 143.186804 -37.55625 
L 142.76778 -37.55625 
L 142.348757 -37.55625 
L 141.929733 -37.55625 
L 141.51071 -37.55625 
L 141.091692 -37.55625 
L 140.672663 -37.55625 
L 140.25364 -37.55625 
L 139.834617 -37.55625 
L 139.415593 -37.55625 
L 138.99657 -37.55625 
L 138.577546 -37.55625 
L 138.158523 -37.55625 
L 137.7395 -37.55625 
L 137.320471 -37.55625 
L 136.901448 -37.55625 
L 136.482425 -37.55625 
L 136.063401 -37.55625 
L 135.644378 -37.55625 
L 135.225354 -37.55625 
L 134.806331 -37.55625 
L 134.387313 -37.55625 
L 133.968284 -37.55625 
L 133.549261 -37.55625 
L 133.130237 -37.55625 
L 132.711214 -37.55625 
L 132.292191 -37.55625 
L 131.873167 -37.55625 
L 131.454144 -37.55625 
L 131.035121 -37.55625 
L 130.616092 -37.55625 
L 130.197069 -37.55625 
L 129.778045 -37.55625 
L 129.359022 -37.55625 
L 128.939999 -37.55625 
L 128.520975 -37.55625 
L 128.101952 -37.55625 
L 127.682929 -37.55625 
L 127.2639 -37.55625 
L 126.844877 -37.55625 
L 126.425853 -37.55625 
L 126.00683 -37.55625 
L 125.587807 -37.55625 
L 125.168783 -37.55625 
L 124.74976 -37.55625 
L 124.330742 -37.55625 
L 123.911713 -37.55625 
L 123.49269 -37.55625 
L 123.073666 -37.55625 
L 122.654643 -37.55625 
L 122.23562 -37.55625 
L 121.816596 -37.55625 
L 121.397573 -37.55625 
L 120.978549 -37.55625 
L 120.559521 -37.55625 
z
" style="stroke: #ff7f0e; stroke-opacity: 0.5"/>
    </defs>
    <g clip-path="url(#pfb33315d50)">
     <use xlink:href="#m262a478bf3" x="0" y="226.194375" style="fill: #ff7f0e; fill-opacity: 0.5; stroke: #ff7f0e; stroke-opacity: 0.5"/>
    </g>
   </g>
   <g id="PolyCollection_3">
    <defs>
     <path id="mf547a6d129" d="M 156.176543 -37.55625 
L 156.176543 -159.317884 
L 156.595567 -159.921959 
L 157.01459 -160.524368 
L 157.433613 -161.125023 
L 157.852642 -161.723895 
L 158.271665 -162.32087 
L 158.690689 -162.915869 
L 159.109712 -163.508815 
L 159.528735 -164.099671 
L 159.947761 -164.688301 
L 160.366785 -165.274648 
L 160.785808 -165.858615 
L 161.204831 -166.440153 
L 161.623855 -167.019177 
L 162.042878 -167.595551 
L 162.461902 -168.169275 
L 162.880925 -168.740234 
L 163.299951 -169.308331 
L 163.718974 -169.87348 
L 164.137998 -170.435642 
L 164.557021 -170.994682 
L 164.976044 -171.550581 
L 165.395068 -172.103185 
L 165.814091 -172.652455 
L 166.233114 -173.198314 
L 166.65214 -173.740647 
L 167.071164 -174.279366 
L 167.490187 -174.814453 
L 167.90921 -175.345782 
L 168.328234 -175.873276 
L 168.747257 -176.396819 
L 169.166281 -176.916364 
L 169.585304 -177.431824 
L 170.00433 -177.94316 
L 170.423353 -178.450217 
L 170.842377 -178.952939 
L 171.2614 -179.451267 
L 171.680423 -179.945067 
L 172.099447 -180.434318 
L 172.51847 -180.918926 
L 172.937494 -181.398764 
L 173.356519 -181.873813 
L 173.775543 -182.343967 
L 174.194566 -182.80915 
L 174.61359 -183.269255 
L 175.032615 -183.724253 
L 175.451639 -184.17401 
L 175.870662 -184.618525 
L 176.289686 -185.057663 
L 176.708711 -185.491329 
L 177.127735 -185.919531 
L 177.546758 -186.342126 
L 177.965782 -186.759064 
L 178.384805 -187.170241 
L 178.803828 -187.575656 
L 179.222852 -187.975164 
L 179.641875 -188.368699 
L 180.060901 -188.75625 
L 180.060901 -37.55625 
L 180.060901 -37.55625 
L 179.641875 -37.55625 
L 179.222852 -37.55625 
L 178.803828 -37.55625 
L 178.384805 -37.55625 
L 177.965782 -37.55625 
L 177.546758 -37.55625 
L 177.127735 -37.55625 
L 176.708711 -37.55625 
L 176.289686 -37.55625 
L 175.870662 -37.55625 
L 175.451639 -37.55625 
L 175.032615 -37.55625 
L 174.61359 -37.55625 
L 174.194566 -37.55625 
L 173.775543 -37.55625 
L 173.356519 -37.55625 
L 172.937494 -37.55625 
L 172.51847 -37.55625 
L 172.099447 -37.55625 
L 171.680423 -37.55625 
L 171.2614 -37.55625 
L 170.842377 -37.55625 
L 170.423353 -37.55625 
L 170.00433 -37.55625 
L 169.585304 -37.55625 
L 169.166281 -37.55625 
L 168.747257 -37.55625 
L 168.328234 -37.55625 
L 167.90921 -37.55625 
L 167.490187 -37.55625 
L 167.071164 -37.55625 
L 166.65214 -37.55625 
L 166.233114 -37.55625 
L 165.814091 -37.55625 
L 165.395068 -37.55625 
L 164.976044 -37.55625 
L 164.557021 -37.55625 
L 164.137998 -37.55625 
L 163.718974 -37.55625 
L 163.299951 -37.55625 
L 162.880925 -37.55625 
L 162.461902 -37.55625 
L 162.042878 -37.55625 
L 161.623855 -37.55625 
L 161.204831 -37.55625 
L 160.785808 -37.55625 
L 160.366785 -37.55625 
L 159.947761 -37.55625 
L 159.528735 -37.55625 
L 159.109712 -37.55625 
L 158.690689 -37.55625 
L 158.271665 -37.55625 
L 157.852642 -37.55625 
L 157.433613 -37.55625 
L 157.01459 -37.55625 
L 156.595567 -37.55625 
L 156.176543 -37.55625 
z
" style="stroke: #2ca02c; stroke-opacity: 0.5"/>
    </defs>
    <g clip-path="url(#pfb33315d50)">
     <use xlink:href="#mf547a6d129" x="0" y="226.194375" style="fill: #2ca02c; fill-opacity: 0.5; stroke: #2ca02c; stroke-opacity: 0.5"/>
    </g>
   </g>
   <g id="PolyCollection_4">
    <defs>
     <path id="m079bb74f88" d="M 180.479924 -37.55625 
L 180.479924 -113.346966 
L 180.898948 -113.534599 
L 181.317971 -113.71912 
L 181.736996 -113.9005 
L 182.156019 -114.07869 
L 182.575044 -114.253653 
L 182.994067 -114.425388 
L 183.413091 -114.593851 
L 183.832115 -114.758986 
L 184.251139 -114.920772 
L 184.670162 -115.079205 
L 185.089185 -115.234237 
L 185.508209 -115.38583 
L 185.927233 -115.533972 
L 186.346257 -115.678627 
L 186.76528 -115.81976 
L 187.184305 -115.957357 
L 187.603328 -116.091398 
L 188.022351 -116.221836 
L 188.441376 -116.348651 
L 188.860399 -116.471829 
L 189.279424 -116.59134 
L 189.698447 -116.707162 
L 190.117471 -116.819278 
L 190.536495 -116.927656 
L 190.955519 -117.032276 
L 191.374542 -117.133129 
L 191.793566 -117.230185 
L 192.21259 -117.323431 
L 192.631614 -117.412837 
L 193.050638 -117.498398 
L 193.469662 -117.580101 
L 193.888685 -117.657906 
L 194.307709 -117.731828 
L 194.726732 -117.801833 
L 195.145756 -117.867912 
L 195.56478 -117.93005 
L 195.983804 -117.988242 
L 196.402828 -118.04247 
L 196.821851 -118.092723 
L 197.240875 -118.139006 
L 197.659899 -118.181271 
L 198.078923 -118.219552 
L 198.497947 -118.25382 
L 198.91697 -118.284075 
L 199.335994 -118.310292 
L 199.755018 -118.332502 
L 200.174042 -118.350674 
L 200.593065 -118.364823 
L 201.012089 -118.374921 
L 201.431113 -118.380982 
L 201.431113 -37.55625 
L 201.431113 -37.55625 
L 201.012089 -37.55625 
L 200.593065 -37.55625 
L 200.174042 -37.55625 
L 199.755018 -37.55625 
L 199.335994 -37.55625 
L 198.91697 -37.55625 
L 198.497947 -37.55625 
L 198.078923 -37.55625 
L 197.659899 -37.55625 
L 197.240875 -37.55625 
L 196.821851 -37.55625 
L 196.402828 -37.55625 
L 195.983804 -37.55625 
L 195.56478 -37.55625 
L 195.145756 -37.55625 
L 194.726732 -37.55625 
L 194.307709 -37.55625 
L 193.888685 -37.55625 
L 193.469662 -37.55625 
L 193.050638 -37.55625 
L 192.631614 -37.55625 
L 192.21259 -37.55625 
L 191.793566 -37.55625 
L 191.374542 -37.55625 
L 190.955519 -37.55625 
L 190.536495 -37.55625 
L 190.117471 -37.55625 
L 189.698447 -37.55625 
L 189.279424 -37.55625 
L 188.860399 -37.55625 
L 188.441376 -37.55625 
L 188.022351 -37.55625 
L 187.603328 -37.55625 
L 187.184305 -37.55625 
L 186.76528 -37.55625 
L 186.346257 -37.55625 
L 185.927233 -37.55625 
L 185.508209 -37.55625 
L 185.089185 -37.55625 
L 184.670162 -37.55625 
L 184.251139 -37.55625 
L 183.832115 -37.55625 
L 183.413091 -37.55625 
L 182.994067 -37.55625 
L 182.575044 -37.55625 
L 182.156019 -37.55625 
L 181.736996 -37.55625 
L 181.317971 -37.55625 
L 180.898948 -37.55625 
L 180.479924 -37.55625 
z
" style="stroke: #d62728; stroke-opacity: 0.5"/>
    </defs>
    <g clip-path="url(#pfb33315d50)">
     <use xlink:href="#m079bb74f88" x="0" y="226.194375" style="fill: #d62728; fill-opacity: 0.5; stroke: #d62728; stroke-opacity: 0.5"/>
    </g>
   </g>
   <g id="PolyCollection_5">
    <defs>
     <path id="m4d8781ee5e" d="M 201.850137 -37.55625 
L 201.850137 -67.866283 
L 202.26916 -67.865524 
L 202.688184 -67.863252 
L 203.107208 -67.859465 
L 203.526232 -67.854163 
L 203.945256 -67.847348 
L 204.364279 -67.839023 
L 204.783303 -67.829184 
L 205.202327 -67.817839 
L 205.621351 -67.804988 
L 206.040375 -67.790633 
L 206.459398 -67.77478 
L 206.878422 -67.757427 
L 207.297446 -67.738582 
L 207.71647 -67.718247 
L 208.135493 -67.696425 
L 208.554517 -67.673127 
L 208.973541 -67.648344 
L 209.392564 -67.622092 
L 209.811588 -67.594371 
L 210.230612 -67.56519 
L 210.649636 -67.534555 
L 211.06866 -67.50247 
L 211.487683 -67.468939 
L 211.906707 -67.433976 
L 212.325731 -67.397579 
L 212.744755 -67.35976 
L 213.163778 -67.320527 
L 213.582803 -67.279885 
L 214.001826 -67.237842 
L 214.420849 -67.194409 
L 214.839874 -67.149592 
L 215.258897 -67.103401 
L 215.677921 -67.055845 
L 216.096945 -67.006927 
L 216.515969 -66.956669 
L 216.934992 -66.905066 
L 217.354017 -66.852141 
L 217.77304 -66.797896 
L 218.192063 -66.742342 
L 218.611088 -66.685495 
L 219.030111 -66.62736 
L 219.449136 -66.567949 
L 219.868159 -66.507276 
L 220.287183 -66.445347 
L 220.706208 -66.382177 
L 221.125231 -66.31778 
L 221.544254 -66.252163 
L 221.963278 -66.185344 
L 222.382301 -66.117326 
L 222.801326 -66.048131 
L 223.220349 -65.977769 
L 223.220349 -37.55625 
L 223.220349 -37.55625 
L 222.801326 -37.55625 
L 222.382301 -37.55625 
L 221.963278 -37.55625 
L 221.544254 -37.55625 
L 221.125231 -37.55625 
L 220.706208 -37.55625 
L 220.287183 -37.55625 
L 219.868159 -37.55625 
L 219.449136 -37.55625 
L 219.030111 -37.55625 
L 218.611088 -37.55625 
L 218.192063 -37.55625 
L 217.77304 -37.55625 
L 217.354017 -37.55625 
L 216.934992 -37.55625 
L 216.515969 -37.55625 
L 216.096945 -37.55625 
L 215.677921 -37.55625 
L 215.258897 -37.55625 
L 214.839874 -37.55625 
L 214.420849 -37.55625 
L 214.001826 -37.55625 
L 213.582803 -37.55625 
L 213.163778 -37.55625 
L 212.744755 -37.55625 
L 212.325731 -37.55625 
L 211.906707 -37.55625 
L 211.487683 -37.55625 
L 211.06866 -37.55625 
L 210.649636 -37.55625 
L 210.230612 -37.55625 
L 209.811588 -37.55625 
L 209.392564 -37.55625 
L 208.973541 -37.55625 
L 208.554517 -37.55625 
L 208.135493 -37.55625 
L 207.71647 -37.55625 
L 207.297446 -37.55625 
L 206.878422 -37.55625 
L 206.459398 -37.55625 
L 206.040375 -37.55625 
L 205.621351 -37.55625 
L 205.202327 -37.55625 
L 204.783303 -37.55625 
L 204.364279 -37.55625 
L 203.945256 -37.55625 
L 203.526232 -37.55625 
L 203.107208 -37.55625 
L 202.688184 -37.55625 
L 202.26916 -37.55625 
L 201.850137 -37.55625 
z
" style="stroke: #9467bd; stroke-opacity: 0.5"/>
    </defs>
    <g clip-path="url(#pfb33315d50)">
     <use xlink:href="#m4d8781ee5e" x="0" y="226.194375" style="fill: #9467bd; fill-opacity: 0.5; stroke: #9467bd; stroke-opacity: 0.5"/>
    </g>
   </g>
   <g id="PolyCollection_6">
    <defs>
     <path id="me6b72ba6eb" d="M 223.639372 -37.55625 
L 223.639372 -47.006249 
L 224.058396 -46.982028 
L 224.477419 -46.957432 
L 224.896445 -46.932463 
L 225.315468 -46.907126 
L 225.734492 -46.881426 
L 226.153515 -46.855367 
L 226.572539 -46.828955 
L 226.991564 -46.802195 
L 227.410588 -46.775087 
L 227.829611 -46.747642 
L 228.248635 -46.719861 
L 228.667658 -46.691749 
L 229.086681 -46.663313 
L 229.505705 -46.634555 
L 229.924728 -46.605481 
L 230.343754 -46.576098 
L 230.762777 -46.546407 
L 231.181801 -46.516416 
L 231.600824 -46.486129 
L 232.01985 -46.455551 
L 232.438873 -46.424687 
L 232.857897 -46.393543 
L 233.27692 -46.362123 
L 233.695946 -46.330432 
L 234.114969 -46.298475 
L 234.533993 -46.266257 
L 234.953016 -46.233786 
L 235.37204 -46.201064 
L 235.791063 -46.168096 
L 236.210086 -46.134889 
L 236.62911 -46.101447 
L 237.048136 -46.067775 
L 237.467159 -46.033878 
L 237.886182 -45.999762 
L 238.305206 -45.965433 
L 238.724229 -45.930895 
L 239.143252 -45.896153 
L 239.562276 -45.861211 
L 239.981299 -45.826077 
L 240.400325 -45.790754 
L 240.819348 -45.755248 
L 241.238372 -45.719564 
L 241.657395 -45.683706 
L 242.076419 -45.647681 
L 242.495442 -45.611494 
L 242.914465 -45.575148 
L 243.333489 -45.538649 
L 243.752515 -45.502002 
L 244.171538 -45.465213 
L 244.590561 -45.428286 
L 245.009585 -45.391226 
L 245.428608 -45.354039 
L 245.847632 -45.316728 
L 246.266655 -45.2793 
L 246.685678 -45.241757 
L 247.104702 -45.204107 
L 247.523725 -45.166353 
L 247.523725 -37.55625 
L 247.523725 -37.55625 
L 247.104702 -37.55625 
L 246.685678 -37.55625 
L 246.266655 -37.55625 
L 245.847632 -37.55625 
L 245.428608 -37.55625 
L 245.009585 -37.55625 
L 244.590561 -37.55625 
L 244.171538 -37.55625 
L 243.752515 -37.55625 
L 243.333489 -37.55625 
L 242.914465 -37.55625 
L 242.495442 -37.55625 
L 242.076419 -37.55625 
L 241.657395 -37.55625 
L 241.238372 -37.55625 
L 240.819348 -37.55625 
L 240.400325 -37.55625 
L 239.981299 -37.55625 
L 239.562276 -37.55625 
L 239.143252 -37.55625 
L 238.724229 -37.55625 
L 238.305206 -37.55625 
L 237.886182 -37.55625 
L 237.467159 -37.55625 
L 237.048136 -37.55625 
L 236.62911 -37.55625 
L 236.210086 -37.55625 
L 235.791063 -37.55625 
L 235.37204 -37.55625 
L 234.953016 -37.55625 
L 234.533993 -37.55625 
L 234.114969 -37.55625 
L 233.695946 -37.55625 
L 233.27692 -37.55625 
L 232.857897 -37.55625 
L 232.438873 -37.55625 
L 232.01985 -37.55625 
L 231.600824 -37.55625 
L 231.181801 -37.55625 
L 230.762777 -37.55625 
L 230.343754 -37.55625 
L 229.924728 -37.55625 
L 229.505705 -37.55625 
L 229.086681 -37.55625 
L 228.667658 -37.55625 
L 228.248635 -37.55625 
L 227.829611 -37.55625 
L 227.410588 -37.55625 
L 226.991564 -37.55625 
L 226.572539 -37.55625 
L 226.153515 -37.55625 
L 225.734492 -37.55625 
L 225.315468 -37.55625 
L 224.896445 -37.55625 
L 224.477419 -37.55625 
L 224.058396 -37.55625 
L 223.639372 -37.55625 
z
" style="stroke: #8c564b; stroke-opacity: 0.5"/>
    </defs>
    <g clip-path="url(#pfb33315d50)">
     <use xlink:href="#me6b72ba6eb" x="0" y="226.194375" style="fill: #8c564b; fill-opacity: 0.5; stroke: #8c564b; stroke-opacity: 0.5"/>
    </g>
   </g>
   <g id="PolyCollection_7">
    <defs>
     <path id="m34741f690e" d="M 247.942748 -37.55625 
L 247.942748 -41.342375 
L 248.361777 -41.323401 
L 248.7808 -41.304383 
L 249.199824 -41.285323 
L 249.618847 -41.266223 
L 250.03787 -41.247084 
L 250.456894 -41.227911 
L 250.875917 -41.208704 
L 251.29494 -41.189467 
L 251.713969 -41.1702 
L 252.132992 -41.150908 
L 252.552016 -41.131591 
L 252.971039 -41.112252 
L 253.390062 -41.092893 
L 253.809086 -41.073517 
L 254.228109 -41.054125 
L 254.647132 -41.034719 
L 255.066161 -41.015302 
L 255.485179 -40.995875 
L 255.904203 -40.976442 
L 256.323226 -40.957003 
L 256.742249 -40.93756 
L 257.161273 -40.918116 
L 257.580296 -40.898673 
L 257.99932 -40.879233 
L 258.418348 -40.859796 
L 258.837371 -40.840366 
L 259.256395 -40.820944 
L 259.675418 -40.801533 
L 260.094441 -40.782133 
L 260.513465 -40.762746 
L 260.932488 -40.743375 
L 261.351512 -40.724021 
L 261.77054 -40.704686 
L 262.189563 -40.685372 
L 262.608587 -40.666079 
L 263.02761 -40.64681 
L 263.446633 -40.627567 
L 263.865657 -40.608351 
L 264.28468 -40.589163 
L 264.703704 -40.570006 
L 265.122732 -40.55088 
L 265.54175 -40.531788 
L 265.960774 -40.51273 
L 266.379797 -40.493708 
L 266.79882 -40.474724 
L 267.217844 -40.455778 
L 267.636867 -40.436873 
L 268.055891 -40.41801 
L 268.474919 -40.399189 
L 268.893942 -40.380413 
L 269.312966 -40.361683 
L 269.731989 -40.342999 
L 270.151013 -40.324364 
L 270.570036 -40.305778 
L 270.989059 -40.287242 
L 271.408083 -40.268758 
L 271.827111 -40.250326 
L 272.246129 -40.231949 
L 272.665153 -40.213626 
L 273.084176 -40.19536 
L 273.5032 -40.17715 
L 273.922223 -40.158999 
L 274.341246 -40.140907 
L 274.76027 -40.122875 
L 275.179298 -40.104904 
L 275.598321 -40.086995 
L 276.017345 -40.069149 
L 276.436368 -40.051367 
L 276.855392 -40.033649 
L 277.274415 -40.015997 
L 277.693438 -39.998411 
L 278.112462 -39.980892 
L 278.53149 -39.963441 
L 278.950513 -39.94606 
L 279.369537 -39.928747 
L 279.78856 -39.911504 
L 280.207584 -39.894332 
L 280.626607 -39.877232 
L 281.04563 -39.860204 
L 281.464654 -39.843249 
L 281.883682 -39.826366 
L 282.302701 -39.809558 
L 282.721724 -39.792825 
L 283.140747 -39.776167 
L 283.140747 -37.55625 
L 283.140747 -37.55625 
L 282.721724 -37.55625 
L 282.302701 -37.55625 
L 281.883682 -37.55625 
L 281.464654 -37.55625 
L 281.04563 -37.55625 
L 280.626607 -37.55625 
L 280.207584 -37.55625 
L 279.78856 -37.55625 
L 279.369537 -37.55625 
L 278.950513 -37.55625 
L 278.53149 -37.55625 
L 278.112462 -37.55625 
L 277.693438 -37.55625 
L 277.274415 -37.55625 
L 276.855392 -37.55625 
L 276.436368 -37.55625 
L 276.017345 -37.55625 
L 275.598321 -37.55625 
L 275.179298 -37.55625 
L 274.76027 -37.55625 
L 274.341246 -37.55625 
L 273.922223 -37.55625 
L 273.5032 -37.55625 
L 273.084176 -37.55625 
L 272.665153 -37.55625 
L 272.246129 -37.55625 
L 271.827111 -37.55625 
L 271.408083 -37.55625 
L 270.989059 -37.55625 
L 270.570036 -37.55625 
L 270.151013 -37.55625 
L 269.731989 -37.55625 
L 269.312966 -37.55625 
L 268.893942 -37.55625 
L 268.474919 -37.55625 
L 268.055891 -37.55625 
L 267.636867 -37.55625 
L 267.217844 -37.55625 
L 266.79882 -37.55625 
L 266.379797 -37.55625 
L 265.960774 -37.55625 
L 265.54175 -37.55625 
L 265.122732 -37.55625 
L 264.703704 -37.55625 
L 264.28468 -37.55625 
L 263.865657 -37.55625 
L 263.446633 -37.55625 
L 263.02761 -37.55625 
L 262.608587 -37.55625 
L 262.189563 -37.55625 
L 261.77054 -37.55625 
L 261.351512 -37.55625 
L 260.932488 -37.55625 
L 260.513465 -37.55625 
L 260.094441 -37.55625 
L 259.675418 -37.55625 
L 259.256395 -37.55625 
L 258.837371 -37.55625 
L 258.418348 -37.55625 
L 257.99932 -37.55625 
L 257.580296 -37.55625 
L 257.161273 -37.55625 
L 256.742249 -37.55625 
L 256.323226 -37.55625 
L 255.904203 -37.55625 
L 255.485179 -37.55625 
L 255.066161 -37.55625 
L 254.647132 -37.55625 
L 254.228109 -37.55625 
L 253.809086 -37.55625 
L 253.390062 -37.55625 
L 252.971039 -37.55625 
L 252.552016 -37.55625 
L 252.132992 -37.55625 
L 251.713969 -37.55625 
L 251.29494 -37.55625 
L 250.875917 -37.55625 
L 250.456894 -37.55625 
L 250.03787 -37.55625 
L 249.618847 -37.55625 
L 249.199824 -37.55625 
L 248.7808 -37.55625 
L 248.361777 -37.55625 
L 247.942748 -37.55625 
z
" style="stroke: #e377c2; stroke-opacity: 0.5"/>
    </defs>
    <g clip-path="url(#pfb33315d50)">
     <use xlink:href="#m34741f690e" x="0" y="226.194375" style="fill: #e377c2; fill-opacity: 0.5; stroke: #e377c2; stroke-opacity: 0.5"/>
    </g>
   </g>
   <g id="PolyCollection_8">
    <defs>
     <path id="m3716da7abd" d="M 283.559771 -37.55625 
L 283.559771 -39.759584 
L 283.978794 -39.743078 
L 284.397817 -39.726647 
L 284.816841 -39.710295 
L 285.235869 -39.69402 
L 285.654893 -39.677823 
L 286.073916 -39.661704 
L 286.492939 -39.645665 
L 286.911963 -39.629705 
L 287.330986 -39.613824 
L 287.750009 -39.598024 
L 288.169033 -39.582303 
L 288.588056 -39.566664 
L 289.00708 -39.551106 
L 289.426103 -39.535628 
L 289.845126 -39.520233 
L 290.26415 -39.50492 
L 290.683173 -39.489688 
L 291.102196 -39.474539 
L 291.52122 -39.459473 
L 291.940243 -39.444489 
L 292.359277 -39.429587 
L 292.7783 -39.41477 
L 293.197323 -39.400036 
L 293.616347 -39.385385 
L 294.03537 -39.370817 
L 294.454393 -39.356333 
L 294.873417 -39.341934 
L 295.29244 -39.327618 
L 295.711464 -39.313386 
L 296.130487 -39.299237 
L 296.54951 -39.285174 
L 296.968534 -39.271194 
L 297.387557 -39.257298 
L 297.806581 -39.243487 
L 298.225604 -39.22976 
L 298.644627 -39.216116 
L 299.063651 -39.202557 
L 299.482674 -39.189082 
L 299.901697 -39.175692 
L 300.320721 -39.162386 
L 300.739744 -39.149163 
L 301.158768 -39.136024 
L 301.577791 -39.12297 
L 301.996814 -39.109998 
L 302.415848 -39.097111 
L 302.834871 -39.084307 
L 303.253894 -39.071587 
L 303.672918 -39.05895 
L 304.091941 -39.046397 
L 304.510965 -39.033926 
L 304.929988 -39.021538 
L 305.349011 -39.009234 
L 305.768035 -38.997011 
L 306.187058 -38.984872 
L 306.606081 -38.972814 
L 307.025105 -38.960838 
L 307.444128 -38.948945 
L 307.863152 -38.937133 
L 308.282175 -38.925403 
L 308.701198 -38.913753 
L 309.120222 -38.902185 
L 309.539245 -38.890698 
L 309.958269 -38.879291 
L 310.377292 -38.867965 
L 310.796315 -38.856718 
L 311.215339 -38.845552 
L 311.634362 -38.834465 
L 312.053385 -38.823457 
L 312.472419 -38.812528 
L 312.891442 -38.801678 
L 313.310466 -38.790907 
L 313.729489 -38.780214 
L 314.148512 -38.769598 
L 314.567536 -38.759061 
L 314.986559 -38.7486 
L 315.405582 -38.738217 
L 315.824606 -38.727911 
L 316.243629 -38.71768 
L 316.662653 -38.707526 
L 317.081676 -38.697448 
L 317.500699 -38.687445 
L 317.919723 -38.677517 
L 318.338746 -38.667664 
L 318.757769 -38.657886 
L 319.176793 -38.648182 
L 319.595816 -38.638551 
L 320.01484 -38.628994 
L 320.433863 -38.61951 
L 320.852886 -38.610098 
L 321.27191 -38.60076 
L 321.690933 -38.591493 
L 322.109957 -38.582298 
L 322.52899 -38.573174 
L 322.948013 -38.564121 
L 323.367037 -38.555139 
L 323.78606 -38.546227 
L 324.205083 -38.537385 
L 324.624107 -38.528612 
L 325.04313 -38.519909 
L 325.462154 -38.511275 
L 325.881177 -38.502708 
L 326.3002 -38.49421 
L 326.719224 -38.48578 
L 327.138247 -38.477417 
L 327.55727 -38.469121 
L 327.976294 -38.460891 
L 328.395317 -38.452728 
L 328.814341 -38.44463 
L 329.233364 -38.436598 
L 329.652387 -38.42863 
L 330.071411 -38.420728 
L 330.490434 -38.412889 
L 330.909457 -38.405115 
L 331.328481 -38.397404 
L 331.747504 -38.389756 
L 332.166528 -38.382171 
L 332.585551 -38.374648 
L 333.004574 -38.367187 
L 333.423598 -38.359788 
L 333.842621 -38.35245 
L 334.261645 -38.345173 
L 334.680668 -38.337956 
L 335.099691 -38.330799 
L 335.518715 -38.323702 
L 335.937748 -38.316663 
L 336.356771 -38.309684 
L 336.775795 -38.302764 
L 337.194818 -38.295901 
L 337.613842 -38.289096 
L 338.032865 -38.282349 
L 338.451888 -38.275658 
L 338.870912 -38.269024 
L 339.289935 -38.262447 
L 339.708958 -38.255925 
L 340.127982 -38.249458 
L 340.547005 -38.243047 
L 340.966029 -38.23669 
L 341.385052 -38.230388 
L 341.804075 -38.224139 
L 342.223099 -38.217944 
L 342.642122 -38.211802 
L 343.061145 -38.205713 
L 343.480169 -38.199677 
L 343.899192 -38.193692 
L 344.318216 -38.187759 
L 344.737239 -38.181877 
L 345.156262 -38.176047 
L 345.575286 -38.170267 
L 345.994319 -38.164537 
L 346.413343 -38.158857 
L 346.832366 -38.153226 
L 347.251389 -38.147645 
L 347.670413 -38.142112 
L 348.089436 -38.136628 
L 348.508459 -38.131191 
L 348.927483 -38.125803 
L 349.346506 -38.120462 
L 349.76553 -38.115167 
L 350.184553 -38.10992 
L 350.603576 -38.104718 
L 351.0226 -38.099563 
L 351.441623 -38.094453 
L 351.860646 -38.089388 
L 352.27967 -38.084368 
L 352.698693 -38.079393 
L 353.117717 -38.074462 
L 353.53674 -38.069575 
L 353.955763 -38.064731 
L 354.374787 -38.05993 
L 354.79381 -38.055173 
L 355.212833 -38.050457 
L 355.631857 -38.045784 
L 356.05089 -38.041153 
L 356.469914 -38.036563 
L 356.888937 -38.032015 
L 357.30796 -38.027507 
L 357.726984 -38.02304 
L 358.146007 -38.018613 
L 358.565031 -38.014226 
L 358.984054 -38.009878 
L 359.403077 -38.00557 
L 359.822101 -38.001301 
L 360.241124 -37.99707 
L 360.660147 -37.992878 
L 361.079171 -37.988723 
L 361.498194 -37.984607 
L 361.917218 -37.980527 
L 362.336241 -37.976485 
L 362.755264 -37.97248 
L 363.174288 -37.968511 
L 363.593311 -37.964578 
L 364.012334 -37.960681 
L 364.431358 -37.95682 
L 364.850381 -37.952994 
L 365.269405 -37.949203 
L 365.688428 -37.945446 
L 366.107461 -37.941725 
L 366.526485 -37.938037 
L 366.945508 -37.934383 
L 367.364531 -37.930763 
L 367.783555 -37.927176 
L 368.202578 -37.923622 
L 368.621602 -37.9201 
L 369.040625 -37.916611 
L 369.040625 -37.55625 
L 369.040625 -37.55625 
L 368.621602 -37.55625 
L 368.202578 -37.55625 
L 367.783555 -37.55625 
L 367.364531 -37.55625 
L 366.945508 -37.55625 
L 366.526485 -37.55625 
L 366.107461 -37.55625 
L 365.688428 -37.55625 
L 365.269405 -37.55625 
L 364.850381 -37.55625 
L 364.431358 -37.55625 
L 364.012334 -37.55625 
L 363.593311 -37.55625 
L 363.174288 -37.55625 
L 362.755264 -37.55625 
L 362.336241 -37.55625 
L 361.917218 -37.55625 
L 361.498194 -37.55625 
L 361.079171 -37.55625 
L 360.660147 -37.55625 
L 360.241124 -37.55625 
L 359.822101 -37.55625 
L 359.403077 -37.55625 
L 358.984054 -37.55625 
L 358.565031 -37.55625 
L 358.146007 -37.55625 
L 357.726984 -37.55625 
L 357.30796 -37.55625 
L 356.888937 -37.55625 
L 356.469914 -37.55625 
L 356.05089 -37.55625 
L 355.631857 -37.55625 
L 355.212833 -37.55625 
L 354.79381 -37.55625 
L 354.374787 -37.55625 
L 353.955763 -37.55625 
L 353.53674 -37.55625 
L 353.117717 -37.55625 
L 352.698693 -37.55625 
L 352.27967 -37.55625 
L 351.860646 -37.55625 
L 351.441623 -37.55625 
L 351.0226 -37.55625 
L 350.603576 -37.55625 
L 350.184553 -37.55625 
L 349.76553 -37.55625 
L 349.346506 -37.55625 
L 348.927483 -37.55625 
L 348.508459 -37.55625 
L 348.089436 -37.55625 
L 347.670413 -37.55625 
L 347.251389 -37.55625 
L 346.832366 -37.55625 
L 346.413343 -37.55625 
L 345.994319 -37.55625 
L 345.575286 -37.55625 
L 345.156262 -37.55625 
L 344.737239 -37.55625 
L 344.318216 -37.55625 
L 343.899192 -37.55625 
L 343.480169 -37.55625 
L 343.061145 -37.55625 
L 342.642122 -37.55625 
L 342.223099 -37.55625 
L 341.804075 -37.55625 
L 341.385052 -37.55625 
L 340.966029 -37.55625 
L 340.547005 -37.55625 
L 340.127982 -37.55625 
L 339.708958 -37.55625 
L 339.289935 -37.55625 
L 338.870912 -37.55625 
L 338.451888 -37.55625 
L 338.032865 -37.55625 
L 337.613842 -37.55625 
L 337.194818 -37.55625 
L 336.775795 -37.55625 
L 336.356771 -37.55625 
L 335.937748 -37.55625 
L 335.518715 -37.55625 
L 335.099691 -37.55625 
L 334.680668 -37.55625 
L 334.261645 -37.55625 
L 333.842621 -37.55625 
L 333.423598 -37.55625 
L 333.004574 -37.55625 
L 332.585551 -37.55625 
L 332.166528 -37.55625 
L 331.747504 -37.55625 
L 331.328481 -37.55625 
L 330.909457 -37.55625 
L 330.490434 -37.55625 
L 330.071411 -37.55625 
L 329.652387 -37.55625 
L 329.233364 -37.55625 
L 328.814341 -37.55625 
L 328.395317 -37.55625 
L 327.976294 -37.55625 
L 327.55727 -37.55625 
L 327.138247 -37.55625 
L 326.719224 -37.55625 
L 326.3002 -37.55625 
L 325.881177 -37.55625 
L 325.462154 -37.55625 
L 325.04313 -37.55625 
L 324.624107 -37.55625 
L 324.205083 -37.55625 
L 323.78606 -37.55625 
L 323.367037 -37.55625 
L 322.948013 -37.55625 
L 322.52899 -37.55625 
L 322.109957 -37.55625 
L 321.690933 -37.55625 
L 321.27191 -37.55625 
L 320.852886 -37.55625 
L 320.433863 -37.55625 
L 320.01484 -37.55625 
L 319.595816 -37.55625 
L 319.176793 -37.55625 
L 318.757769 -37.55625 
L 318.338746 -37.55625 
L 317.919723 -37.55625 
L 317.500699 -37.55625 
L 317.081676 -37.55625 
L 316.662653 -37.55625 
L 316.243629 -37.55625 
L 315.824606 -37.55625 
L 315.405582 -37.55625 
L 314.986559 -37.55625 
L 314.567536 -37.55625 
L 314.148512 -37.55625 
L 313.729489 -37.55625 
L 313.310466 -37.55625 
L 312.891442 -37.55625 
L 312.472419 -37.55625 
L 312.053385 -37.55625 
L 311.634362 -37.55625 
L 311.215339 -37.55625 
L 310.796315 -37.55625 
L 310.377292 -37.55625 
L 309.958269 -37.55625 
L 309.539245 -37.55625 
L 309.120222 -37.55625 
L 308.701198 -37.55625 
L 308.282175 -37.55625 
L 307.863152 -37.55625 
L 307.444128 -37.55625 
L 307.025105 -37.55625 
L 306.606081 -37.55625 
L 306.187058 -37.55625 
L 305.768035 -37.55625 
L 305.349011 -37.55625 
L 304.929988 -37.55625 
L 304.510965 -37.55625 
L 304.091941 -37.55625 
L 303.672918 -37.55625 
L 303.253894 -37.55625 
L 302.834871 -37.55625 
L 302.415848 -37.55625 
L 301.996814 -37.55625 
L 301.577791 -37.55625 
L 301.158768 -37.55625 
L 300.739744 -37.55625 
L 300.320721 -37.55625 
L 299.901697 -37.55625 
L 299.482674 -37.55625 
L 299.063651 -37.55625 
L 298.644627 -37.55625 
L 298.225604 -37.55625 
L 297.806581 -37.55625 
L 297.387557 -37.55625 
L 296.968534 -37.55625 
L 296.54951 -37.55625 
L 296.130487 -37.55625 
L 295.711464 -37.55625 
L 295.29244 -37.55625 
L 294.873417 -37.55625 
L 294.454393 -37.55625 
L 294.03537 -37.55625 
L 293.616347 -37.55625 
L 293.197323 -37.55625 
L 292.7783 -37.55625 
L 292.359277 -37.55625 
L 291.940243 -37.55625 
L 291.52122 -37.55625 
L 291.102196 -37.55625 
L 290.683173 -37.55625 
L 290.26415 -37.55625 
L 289.845126 -37.55625 
L 289.426103 -37.55625 
L 289.00708 -37.55625 
L 288.588056 -37.55625 
L 288.169033 -37.55625 
L 287.750009 -37.55625 
L 287.330986 -37.55625 
L 286.911963 -37.55625 
L 286.492939 -37.55625 
L 286.073916 -37.55625 
L 285.654893 -37.55625 
L 285.235869 -37.55625 
L 284.816841 -37.55625 
L 284.397817 -37.55625 
L 283.978794 -37.55625 
L 283.559771 -37.55625 
z
" style="stroke: #7f7f7f; stroke-opacity: 0.5"/>
    </defs>
    <g clip-path="url(#pfb33315d50)">
     <use xlink:href="#m3716da7abd" x="0" y="226.194375" style="fill: #7f7f7f; fill-opacity: 0.5; stroke: #7f7f7f; stroke-opacity: 0.5"/>
    </g>
   </g>
   <g id="line2d_1">
    <path d="M 34.240625 188.638125 
L 34.240625 186.496696 
" clip-path="url(#pfb33315d50)" style="fill: none; stroke: #1f77b4; stroke-width: 1.5; stroke-linecap: round"/>
   </g>
   <g id="line2d_2">
    <path d="M 120.140498 188.638125 
L 120.140498 175.418124 
" clip-path="url(#pfb33315d50)" style="fill: none; stroke: #1f77b4; stroke-width: 1.5; stroke-linecap: round"/>
   </g>
   <g id="line2d_3">
    <path d="M 120.559521 188.638125 
L 120.559521 153.119465 
" clip-path="url(#pfb33315d50)" style="fill: none; stroke: #ff7f0e; stroke-width: 1.5; stroke-linecap: round"/>
   </g>
   <g id="line2d_4">
    <path d="M 155.75752 188.638125 
L 155.75752 128.060121 
" clip-path="url(#pfb33315d50)" style="fill: none; stroke: #ff7f0e; stroke-width: 1.5; stroke-linecap: round"/>
   </g>
   <g id="line2d_5">
    <path d="M 156.176543 188.638125 
L 156.176543 66.876491 
" clip-path="url(#pfb33315d50)" style="fill: none; stroke: #2ca02c; stroke-width: 1.5; stroke-linecap: round"/>
   </g>
   <g id="line2d_6">
    <path d="M 180.060901 188.638125 
L 180.060901 37.438125 
" clip-path="url(#pfb33315d50)" style="fill: none; stroke: #2ca02c; stroke-width: 1.5; stroke-linecap: round"/>
   </g>
   <g id="line2d_7">
    <path d="M 180.479924 188.638125 
L 180.479924 112.847409 
" clip-path="url(#pfb33315d50)" style="fill: none; stroke: #d62728; stroke-width: 1.5; stroke-linecap: round"/>
   </g>
   <g id="line2d_8">
    <path d="M 201.431113 188.638125 
L 201.431113 107.813393 
" clip-path="url(#pfb33315d50)" style="fill: none; stroke: #d62728; stroke-width: 1.5; stroke-linecap: round"/>
   </g>
   <g id="line2d_9">
    <path d="M 201.850137 188.638125 
L 201.850137 158.328092 
" clip-path="url(#pfb33315d50)" style="fill: none; stroke: #9467bd; stroke-width: 1.5; stroke-linecap: round"/>
   </g>
   <g id="line2d_10">
    <path d="M 223.220349 188.638125 
L 223.220349 160.216606 
" clip-path="url(#pfb33315d50)" style="fill: none; stroke: #9467bd; stroke-width: 1.5; stroke-linecap: round"/>
   </g>
   <g id="line2d_11">
    <path d="M 223.639372 188.638125 
L 223.639372 179.188126 
" clip-path="url(#pfb33315d50)" style="fill: none; stroke: #8c564b; stroke-width: 1.5; stroke-linecap: round"/>
   </g>
   <g id="line2d_12">
    <path d="M 247.523725 188.638125 
L 247.523725 181.028022 
" clip-path="url(#pfb33315d50)" style="fill: none; stroke: #8c564b; stroke-width: 1.5; stroke-linecap: round"/>
   </g>
   <g id="line2d_13">
    <path d="M 247.942748 188.638125 
L 247.942748 184.852 
" clip-path="url(#pfb33315d50)" style="fill: none; stroke: #e377c2; stroke-width: 1.5; stroke-linecap: round"/>
   </g>
   <g id="line2d_14">
    <path d="M 283.140747 188.638125 
L 283.140747 186.418208 
" clip-path="url(#pfb33315d50)" style="fill: none; stroke: #e377c2; stroke-width: 1.5; stroke-linecap: round"/>
   </g>
   <g id="line2d_15">
    <path d="M 283.559771 188.638125 
L 283.559771 186.434791 
" clip-path="url(#pfb33315d50)" style="fill: none; stroke: #7f7f7f; stroke-width: 1.5; stroke-linecap: round"/>
   </g>
   <g id="line2d_16">
    <path d="M 369.040625 188.638125 
L 369.040625 188.277764 
" clip-path="url(#pfb33315d50)" style="fill: none; stroke: #7f7f7f; stroke-width: 1.5; stroke-linecap: round"/>
   </g>
   <g id="line2d_17">
    <path d="M 34.240625 186.496696 
L 47.649383 185.728708 
L 59.801071 184.813475 
L 70.695689 183.772503 
L 80.75226 182.590899 
L 90.389808 181.230184 
L 99.608332 179.697245 
L 108.407833 178.00992 
L 117.207334 176.101637 
L 120.140498 175.418124 
L 120.559521 153.119465 
L 126.844877 148.999741 
L 133.968284 144.050133 
L 142.76778 137.644128 
L 155.75752 128.060121 
L 156.176543 66.876491 
L 162.042878 58.598824 
L 166.65214 52.453728 
L 170.842377 47.241436 
L 174.61359 42.92512 
L 177.965782 39.435311 
L 180.060901 37.438125 
L 180.479924 112.847409 
L 184.251139 111.273603 
L 187.603328 110.102977 
L 190.955519 109.162099 
L 194.307709 108.462547 
L 197.659899 108.013104 
L 200.593065 107.829552 
L 201.431113 107.813393 
L 201.850137 158.328092 
L 206.878422 158.436948 
L 211.906707 158.760399 
L 217.354017 159.342234 
L 222.801326 160.146244 
L 223.220349 160.216606 
L 223.639372 179.188126 
L 234.533993 179.928118 
L 247.523725 181.028022 
L 247.942748 184.852 
L 293.616347 186.80899 
L 315.405582 187.456158 
L 338.870912 187.925351 
L 367.364531 188.263612 
L 369.040625 188.277764 
L 369.040625 188.277764 
" clip-path="url(#pfb33315d50)" style="fill: none; stroke: #000000; stroke-width: 1.5; stroke-linecap: round"/>
   </g>
   <g id="patch_3">
    <path d="M 34.240625 188.638125 
L 34.240625 22.318125 
" style="fill: none; stroke: #262626; stroke-width: 0.8; stroke-linejoin: miter; stroke-linecap: square"/>
   </g>
   <g id="patch_4">
    <path d="M 369.040625 188.638125 
L 369.040625 22.318125 
" style="fill: none; stroke: #262626; stroke-width: 0.8; stroke-linejoin: miter; stroke-linecap: square"/>
   </g>
   <g id="patch_5">
    <path d="M 34.240625 188.638125 
L 369.040625 188.638125 
" style="fill: none; stroke: #262626; stroke-width: 0.8; stroke-linejoin: miter; stroke-linecap: square"/>
   </g>
   <g id="patch_6">
    <path d="M 34.240625 22.318125 
L 369.040625 22.318125 
" style="fill: none; stroke: #262626; stroke-width: 0.8; stroke-linejoin: miter; stroke-linecap: square"/>
   </g>
   <g id="text_19">
    <!-- Dequantization distribution for 8 discrete values -->
    <g style="fill: #262626" transform="translate(56.623438 16.318125)scale(0.12 -0.12)">
     <defs>
      <path id="DejaVuSans-44" d="M 1259 4147 
L 1259 519 
L 2022 519 
Q 2988 519 3436 956 
Q 3884 1394 3884 2338 
Q 3884 3275 3436 3711 
Q 2988 4147 2022 4147 
L 1259 4147 
z
M 628 4666 
L 1925 4666 
Q 3281 4666 3915 4102 
Q 4550 3538 4550 2338 
Q 4550 1131 3912 565 
Q 3275 0 1925 0 
L 628 0 
L 628 4666 
z
" transform="scale(0.015625)"/>
      <path id="DejaVuSans-65" d="M 3597 1894 
L 3597 1613 
L 953 1613 
Q 991 1019 1311 708 
Q 1631 397 2203 397 
Q 2534 397 2845 478 
Q 3156 559 3463 722 
L 3463 178 
Q 3153 47 2828 -22 
Q 2503 -91 2169 -91 
Q 1331 -91 842 396 
Q 353 884 353 1716 
Q 353 2575 817 3079 
Q 1281 3584 2069 3584 
Q 2775 3584 3186 3129 
Q 3597 2675 3597 1894 
z
M 3022 2063 
Q 3016 2534 2758 2815 
Q 2500 3097 2075 3097 
Q 1594 3097 1305 2825 
Q 1016 2553 972 2059 
L 3022 2063 
z
" transform="scale(0.015625)"/>
      <path id="DejaVuSans-71" d="M 947 1747 
Q 947 1113 1208 752 
Q 1469 391 1925 391 
Q 2381 391 2643 752 
Q 2906 1113 2906 1747 
Q 2906 2381 2643 2742 
Q 2381 3103 1925 3103 
Q 1469 3103 1208 2742 
Q 947 2381 947 1747 
z
M 2906 525 
Q 2725 213 2448 61 
Q 2172 -91 1784 -91 
Q 1150 -91 751 415 
Q 353 922 353 1747 
Q 353 2572 751 3078 
Q 1150 3584 1784 3584 
Q 2172 3584 2448 3432 
Q 2725 3281 2906 2969 
L 2906 3500 
L 3481 3500 
L 3481 -1331 
L 2906 -1331 
L 2906 525 
z
" transform="scale(0.015625)"/>
      <path id="DejaVuSans-75" d="M 544 1381 
L 544 3500 
L 1119 3500 
L 1119 1403 
Q 1119 906 1312 657 
Q 1506 409 1894 409 
Q 2359 409 2629 706 
Q 2900 1003 2900 1516 
L 2900 3500 
L 3475 3500 
L 3475 0 
L 2900 0 
L 2900 538 
Q 2691 219 2414 64 
Q 2138 -91 1772 -91 
Q 1169 -91 856 284 
Q 544 659 544 1381 
z
M 1991 3584 
L 1991 3584 
z
" transform="scale(0.015625)"/>
      <path id="DejaVuSans-6e" d="M 3513 2113 
L 3513 0 
L 2938 0 
L 2938 2094 
Q 2938 2591 2744 2837 
Q 2550 3084 2163 3084 
Q 1697 3084 1428 2787 
Q 1159 2491 1159 1978 
L 1159 0 
L 581 0 
L 581 3500 
L 1159 3500 
L 1159 2956 
Q 1366 3272 1645 3428 
Q 1925 3584 2291 3584 
Q 2894 3584 3203 3211 
Q 3513 2838 3513 2113 
z
" transform="scale(0.015625)"/>
      <path id="DejaVuSans-20" transform="scale(0.015625)"/>
      <path id="DejaVuSans-64" d="M 2906 2969 
L 2906 4863 
L 3481 4863 
L 3481 0 
L 2906 0 
L 2906 525 
Q 2725 213 2448 61 
Q 2172 -91 1784 -91 
Q 1150 -91 751 415 
Q 353 922 353 1747 
Q 353 2572 751 3078 
Q 1150 3584 1784 3584 
Q 2172 3584 2448 3432 
Q 2725 3281 2906 2969 
z
M 947 1747 
Q 947 1113 1208 752 
Q 1469 391 1925 391 
Q 2381 391 2643 752 
Q 2906 1113 2906 1747 
Q 2906 2381 2643 2742 
Q 2381 3103 1925 3103 
Q 1469 3103 1208 2742 
Q 947 2381 947 1747 
z
" transform="scale(0.015625)"/>
      <path id="DejaVuSans-73" d="M 2834 3397 
L 2834 2853 
Q 2591 2978 2328 3040 
Q 2066 3103 1784 3103 
Q 1356 3103 1142 2972 
Q 928 2841 928 2578 
Q 928 2378 1081 2264 
Q 1234 2150 1697 2047 
L 1894 2003 
Q 2506 1872 2764 1633 
Q 3022 1394 3022 966 
Q 3022 478 2636 193 
Q 2250 -91 1575 -91 
Q 1294 -91 989 -36 
Q 684 19 347 128 
L 347 722 
Q 666 556 975 473 
Q 1284 391 1588 391 
Q 1994 391 2212 530 
Q 2431 669 2431 922 
Q 2431 1156 2273 1281 
Q 2116 1406 1581 1522 
L 1381 1569 
Q 847 1681 609 1914 
Q 372 2147 372 2553 
Q 372 3047 722 3315 
Q 1072 3584 1716 3584 
Q 2034 3584 2315 3537 
Q 2597 3491 2834 3397 
z
" transform="scale(0.015625)"/>
      <path id="DejaVuSans-66" d="M 2375 4863 
L 2375 4384 
L 1825 4384 
Q 1516 4384 1395 4259 
Q 1275 4134 1275 3809 
L 1275 3500 
L 2222 3500 
L 2222 3053 
L 1275 3053 
L 1275 0 
L 697 0 
L 697 3053 
L 147 3053 
L 147 3500 
L 697 3500 
L 697 3744 
Q 697 4328 969 4595 
Q 1241 4863 1831 4863 
L 2375 4863 
z
" transform="scale(0.015625)"/>
      <path id="DejaVuSans-38" d="M 2034 2216 
Q 1584 2216 1326 1975 
Q 1069 1734 1069 1313 
Q 1069 891 1326 650 
Q 1584 409 2034 409 
Q 2484 409 2743 651 
Q 3003 894 3003 1313 
Q 3003 1734 2745 1975 
Q 2488 2216 2034 2216 
z
M 1403 2484 
Q 997 2584 770 2862 
Q 544 3141 544 3541 
Q 544 4100 942 4425 
Q 1341 4750 2034 4750 
Q 2731 4750 3128 4425 
Q 3525 4100 3525 3541 
Q 3525 3141 3298 2862 
Q 3072 2584 2669 2484 
Q 3125 2378 3379 2068 
Q 3634 1759 3634 1313 
Q 3634 634 3220 271 
Q 2806 -91 2034 -91 
Q 1263 -91 848 271 
Q 434 634 434 1313 
Q 434 1759 690 2068 
Q 947 2378 1403 2484 
z
M 1172 3481 
Q 1172 3119 1398 2916 
Q 1625 2713 2034 2713 
Q 2441 2713 2670 2916 
Q 2900 3119 2900 3481 
Q 2900 3844 2670 4047 
Q 2441 4250 2034 4250 
Q 1625 4250 1398 4047 
Q 1172 3844 1172 3481 
z
" transform="scale(0.015625)"/>
      <path id="DejaVuSans-63" d="M 3122 3366 
L 3122 2828 
Q 2878 2963 2633 3030 
Q 2388 3097 2138 3097 
Q 1578 3097 1268 2742 
Q 959 2388 959 1747 
Q 959 1106 1268 751 
Q 1578 397 2138 397 
Q 2388 397 2633 464 
Q 2878 531 3122 666 
L 3122 134 
Q 2881 22 2623 -34 
Q 2366 -91 2075 -91 
Q 1284 -91 818 406 
Q 353 903 353 1747 
Q 353 2603 823 3093 
Q 1294 3584 2113 3584 
Q 2378 3584 2631 3529 
Q 2884 3475 3122 3366 
z
" transform="scale(0.015625)"/>
      <path id="DejaVuSans-76" d="M 191 3500 
L 800 3500 
L 1894 563 
L 2988 3500 
L 3597 3500 
L 2284 0 
L 1503 0 
L 191 3500 
z
" transform="scale(0.015625)"/>
     </defs>
     <use xlink:href="#DejaVuSans-44"/>
     <use xlink:href="#DejaVuSans-65" x="77.001953"/>
     <use xlink:href="#DejaVuSans-71" x="138.525391"/>
     <use xlink:href="#DejaVuSans-75" x="202.001953"/>
     <use xlink:href="#DejaVuSans-61" x="265.380859"/>
     <use xlink:href="#DejaVuSans-6e" x="326.660156"/>
     <use xlink:href="#DejaVuSans-74" x="390.039062"/>
     <use xlink:href="#DejaVuSans-69" x="429.248047"/>
     <use xlink:href="#DejaVuSans-7a" x="457.03125"/>
     <use xlink:href="#DejaVuSans-61" x="509.521484"/>
     <use xlink:href="#DejaVuSans-74" x="570.800781"/>
     <use xlink:href="#DejaVuSans-69" x="610.009766"/>
     <use xlink:href="#DejaVuSans-6f" x="637.792969"/>
     <use xlink:href="#DejaVuSans-6e" x="698.974609"/>
     <use xlink:href="#DejaVuSans-20" x="762.353516"/>
     <use xlink:href="#DejaVuSans-64" x="794.140625"/>
     <use xlink:href="#DejaVuSans-69" x="857.617188"/>
     <use xlink:href="#DejaVuSans-73" x="885.400391"/>
     <use xlink:href="#DejaVuSans-74" x="937.5"/>
     <use xlink:href="#DejaVuSans-72" x="976.708984"/>
     <use xlink:href="#DejaVuSans-69" x="1017.822266"/>
     <use xlink:href="#DejaVuSans-62" x="1045.605469"/>
     <use xlink:href="#DejaVuSans-75" x="1109.082031"/>
     <use xlink:href="#DejaVuSans-74" x="1172.460938"/>
     <use xlink:href="#DejaVuSans-69" x="1211.669922"/>
     <use xlink:href="#DejaVuSans-6f" x="1239.453125"/>
     <use xlink:href="#DejaVuSans-6e" x="1300.634766"/>
     <use xlink:href="#DejaVuSans-20" x="1364.013672"/>
     <use xlink:href="#DejaVuSans-66" x="1395.800781"/>
     <use xlink:href="#DejaVuSans-6f" x="1431.005859"/>
     <use xlink:href="#DejaVuSans-72" x="1492.1875"/>
     <use xlink:href="#DejaVuSans-20" x="1533.300781"/>
     <use xlink:href="#DejaVuSans-38" x="1565.087891"/>
     <use xlink:href="#DejaVuSans-20" x="1628.710938"/>
     <use xlink:href="#DejaVuSans-64" x="1660.498047"/>
     <use xlink:href="#DejaVuSans-69" x="1723.974609"/>
     <use xlink:href="#DejaVuSans-73" x="1751.757812"/>
     <use xlink:href="#DejaVuSans-63" x="1803.857422"/>
     <use xlink:href="#DejaVuSans-72" x="1858.837891"/>
     <use xlink:href="#DejaVuSans-65" x="1897.701172"/>
     <use xlink:href="#DejaVuSans-74" x="1959.224609"/>
     <use xlink:href="#DejaVuSans-65" x="1998.433594"/>
     <use xlink:href="#DejaVuSans-20" x="2059.957031"/>
     <use xlink:href="#DejaVuSans-76" x="2091.744141"/>
     <use xlink:href="#DejaVuSans-61" x="2150.923828"/>
     <use xlink:href="#DejaVuSans-6c" x="2212.203125"/>
     <use xlink:href="#DejaVuSans-75" x="2239.986328"/>
     <use xlink:href="#DejaVuSans-65" x="2303.365234"/>
     <use xlink:href="#DejaVuSans-73" x="2364.888672"/>
    </g>
   </g>
   <g id="legend_1">
    <g id="patch_7">
     <path d="M 323.678125 147.743125 
L 362.040625 147.743125 
Q 364.040625 147.743125 364.040625 145.743125 
L 364.040625 29.318125 
Q 364.040625 27.318125 362.040625 27.318125 
L 323.678125 27.318125 
Q 321.678125 27.318125 321.678125 29.318125 
L 321.678125 145.743125 
Q 321.678125 147.743125 323.678125 147.743125 
z
" style="fill: #ffffff; opacity: 0.8; stroke: #cccccc; stroke-linejoin: miter"/>
    </g>
    <g id="patch_8">
     <path d="M 325.678125 38.916562 
L 345.678125 38.916562 
L 345.678125 31.916562 
L 325.678125 31.916562 
z
" style="fill: #1f77b4; fill-opacity: 0.5; stroke: #1f77b4; stroke-opacity: 0.5; stroke-linejoin: miter"/>
    </g>
    <g id="text_20">
     <!-- 0 -->
     <g style="fill: #262626" transform="translate(353.678125 38.916562)scale(0.1 -0.1)">
      <use xlink:href="#DejaVuSans-30"/>
     </g>
    </g>
    <g id="patch_9">
     <path d="M 325.678125 53.594688 
L 345.678125 53.594688 
L 345.678125 46.594688 
L 325.678125 46.594688 
z
" style="fill: #ff7f0e; fill-opacity: 0.5; stroke: #ff7f0e; stroke-opacity: 0.5; stroke-linejoin: miter"/>
    </g>
    <g id="text_21">
     <!-- 1 -->
     <g style="fill: #262626" transform="translate(353.678125 53.594688)scale(0.1 -0.1)">
      <use xlink:href="#DejaVuSans-31"/>
     </g>
    </g>
    <g id="patch_10">
     <path d="M 325.678125 68.272812 
L 345.678125 68.272812 
L 345.678125 61.272812 
L 325.678125 61.272812 
z
" style="fill: #2ca02c; fill-opacity: 0.5; stroke: #2ca02c; stroke-opacity: 0.5; stroke-linejoin: miter"/>
    </g>
    <g id="text_22">
     <!-- 2 -->
     <g style="fill: #262626" transform="translate(353.678125 68.272812)scale(0.1 -0.1)">
      <use xlink:href="#DejaVuSans-32"/>
     </g>
    </g>
    <g id="patch_11">
     <path d="M 325.678125 82.950938 
L 345.678125 82.950938 
L 345.678125 75.950938 
L 325.678125 75.950938 
z
" style="fill: #d62728; fill-opacity: 0.5; stroke: #d62728; stroke-opacity: 0.5; stroke-linejoin: miter"/>
    </g>
    <g id="text_23">
     <!-- 3 -->
     <g style="fill: #262626" transform="translate(353.678125 82.950938)scale(0.1 -0.1)">
      <use xlink:href="#DejaVuSans-33"/>
     </g>
    </g>
    <g id="patch_12">
     <path d="M 325.678125 97.629063 
L 345.678125 97.629063 
L 345.678125 90.629063 
L 325.678125 90.629063 
z
" style="fill: #9467bd; fill-opacity: 0.5; stroke: #9467bd; stroke-opacity: 0.5; stroke-linejoin: miter"/>
    </g>
    <g id="text_24">
     <!-- 4 -->
     <g style="fill: #262626" transform="translate(353.678125 97.629063)scale(0.1 -0.1)">
      <use xlink:href="#DejaVuSans-34"/>
     </g>
    </g>
    <g id="patch_13">
     <path d="M 325.678125 112.307187 
L 345.678125 112.307187 
L 345.678125 105.307187 
L 325.678125 105.307187 
z
" style="fill: #8c564b; fill-opacity: 0.5; stroke: #8c564b; stroke-opacity: 0.5; stroke-linejoin: miter"/>
    </g>
    <g id="text_25">
     <!-- 5 -->
     <g style="fill: #262626" transform="translate(353.678125 112.307187)scale(0.1 -0.1)">
      <use xlink:href="#DejaVuSans-35"/>
     </g>
    </g>
    <g id="patch_14">
     <path d="M 325.678125 126.985312 
L 345.678125 126.985312 
L 345.678125 119.985312 
L 325.678125 119.985312 
z
" style="fill: #e377c2; fill-opacity: 0.5; stroke: #e377c2; stroke-opacity: 0.5; stroke-linejoin: miter"/>
    </g>
    <g id="text_26">
     <!-- 6 -->
     <g style="fill: #262626" transform="translate(353.678125 126.985312)scale(0.1 -0.1)">
      <use xlink:href="#DejaVuSans-36"/>
     </g>
    </g>
    <g id="patch_15">
     <path d="M 325.678125 141.663437 
L 345.678125 141.663437 
L 345.678125 134.663437 
L 325.678125 134.663437 
z
" style="fill: #7f7f7f; fill-opacity: 0.5; stroke: #7f7f7f; stroke-opacity: 0.5; stroke-linejoin: miter"/>
    </g>
    <g id="text_27">
     <!-- 7 -->
     <g style="fill: #262626" transform="translate(353.678125 141.663437)scale(0.1 -0.1)">
      <defs>
       <path id="DejaVuSans-37" d="M 525 4666 
L 3525 4666 
L 3525 4397 
L 1831 0 
L 1172 0 
L 2766 4134 
L 525 4134 
L 525 4666 
z
" transform="scale(0.015625)"/>
      </defs>
      <use xlink:href="#DejaVuSans-37"/>
     </g>
    </g>
   </g>
  </g>
 </g>
 <defs>
  <clipPath id="pfb33315d50">
   <rect x="34.240625" y="22.318125" width="334.8" height="166.32"/>
  </clipPath>
 </defs>
</svg>
