<?xml version="1.0" encoding="utf-8" standalone="no"?>
<!DOCTYPE svg PUBLIC "-//W3C//DTD SVG 1.1//EN"
  "http://www.w3.org/Graphics/SVG/1.1/DTD/svg11.dtd">
<svg xmlns:xlink="http://www.w3.org/1999/xlink" width="599.393438pt" height="215.984063pt" viewBox="0 0 599.393438 215.984063" xmlns="http://www.w3.org/2000/svg" version="1.1">
 <metadata>
  <rdf:RDF xmlns:dc="http://purl.org/dc/elements/1.1/" xmlns:cc="http://creativecommons.org/ns#" xmlns:rdf="http://www.w3.org/1999/02/22-rdf-syntax-ns#">
   <cc:Work>
    <dc:type rdf:resource="http://purl.org/dc/dcmitype/StillImage"/>
    <dc:date>2022-05-12T14:19:20.625605</dc:date>
    <dc:format>image/svg+xml</dc:format>
    <dc:creator>
     <cc:Agent>
      <dc:title>Matplotlib v3.5.2, https://matplotlib.org/</dc:title>
     </cc:Agent>
    </dc:creator>
   </cc:Work>
  </rdf:RDF>
 </metadata>
 <defs>
  <style type="text/css">*{stroke-linejoin: round; stroke-linecap: butt}</style>
 </defs>
 <g id="figure_1">
  <g id="patch_1">
   <path d="M 0 215.984063 
L 599.393438 215.984063 
L 599.393438 0 
L 0 0 
z
" style="fill: #ffffff"/>
  </g>
  <g id="axes_1">
   <g id="patch_2">
    <path d="M 34.193438 188.638125 
L 592.193437 188.638125 
L 592.193437 22.318125 
L 34.193438 22.318125 
z
" style="fill: #eaeaf2"/>
   </g>
   <g id="matplotlib.axis_1">
    <g id="xtick_1">
     <g id="line2d_1">
      <path d="M 105.49848 188.638125 
L 105.49848 22.318125 
" clip-path="url(#pa20a266b46)" style="fill: none; stroke: #ffffff; stroke-linecap: round"/>
     </g>
     <g id="text_1">
      <!-- −10 -->
      <g style="fill: #262626" transform="translate(93.890902 206.496406)scale(0.11 -0.11)">
       <defs>
        <path id="DejaVuSans-2212" d="M 678 2272 
L 4684 2272 
L 4684 1741 
L 678 1741 
L 678 2272 
z
" transform="scale(0.015625)"/>
        <path id="DejaVuSans-31" d="M 794 531 
L 1825 531 
L 1825 4091 
L 703 3866 
L 703 4441 
L 1819 4666 
L 2450 4666 
L 2450 531 
L 3481 531 
L 3481 0 
L 794 0 
L 794 531 
z
" transform="scale(0.015625)"/>
        <path id="DejaVuSans-30" d="M 2034 4250 
Q 1547 4250 1301 3770 
Q 1056 3291 1056 2328 
Q 1056 1369 1301 889 
Q 1547 409 2034 409 
Q 2525 409 2770 889 
Q 3016 1369 3016 2328 
Q 3016 3291 2770 3770 
Q 2525 4250 2034 4250 
z
M 2034 4750 
Q 2819 4750 3233 4129 
Q 3647 3509 3647 2328 
Q 3647 1150 3233 529 
Q 2819 -91 2034 -91 
Q 1250 -91 836 529 
Q 422 1150 422 2328 
Q 422 3509 836 4129 
Q 1250 4750 2034 4750 
z
" transform="scale(0.015625)"/>
       </defs>
       <use xlink:href="#DejaVuSans-2212"/>
       <use xlink:href="#DejaVuSans-31" x="83.789062"/>
       <use xlink:href="#DejaVuSans-30" x="147.412109"/>
      </g>
     </g>
    </g>
    <g id="xtick_2">
     <g id="line2d_2">
      <path d="M 209.755714 188.638125 
L 209.755714 22.318125 
" clip-path="url(#pa20a266b46)" style="fill: none; stroke: #ffffff; stroke-linecap: round"/>
     </g>
     <g id="text_2">
      <!-- −5 -->
      <g style="fill: #262626" transform="translate(201.647511 206.496406)scale(0.11 -0.11)">
       <defs>
        <path id="DejaVuSans-35" d="M 691 4666 
L 3169 4666 
L 3169 4134 
L 1269 4134 
L 1269 2991 
Q 1406 3038 1543 3061 
Q 1681 3084 1819 3084 
Q 2600 3084 3056 2656 
Q 3513 2228 3513 1497 
Q 3513 744 3044 326 
Q 2575 -91 1722 -91 
Q 1428 -91 1123 -41 
Q 819 9 494 109 
L 494 744 
Q 775 591 1075 516 
Q 1375 441 1709 441 
Q 2250 441 2565 725 
Q 2881 1009 2881 1497 
Q 2881 1984 2565 2268 
Q 2250 2553 1709 2553 
Q 1456 2553 1204 2497 
Q 953 2441 691 2322 
L 691 4666 
z
" transform="scale(0.015625)"/>
       </defs>
       <use xlink:href="#DejaVuSans-2212"/>
       <use xlink:href="#DejaVuSans-35" x="83.789062"/>
      </g>
     </g>
    </g>
    <g id="xtick_3">
     <g id="line2d_3">
      <path d="M 314.012948 188.638125 
L 314.012948 22.318125 
" clip-path="url(#pa20a266b46)" style="fill: none; stroke: #ffffff; stroke-linecap: round"/>
     </g>
     <g id="text_3">
      <!-- 0 -->
      <g style="fill: #262626" transform="translate(310.513573 206.496406)scale(0.11 -0.11)">
       <use xlink:href="#DejaVuSans-30"/>
      </g>
     </g>
    </g>
    <g id="xtick_4">
     <g id="line2d_4">
      <path d="M 418.270182 188.638125 
L 418.270182 22.318125 
" clip-path="url(#pa20a266b46)" style="fill: none; stroke: #ffffff; stroke-linecap: round"/>
     </g>
     <g id="text_4">
      <!-- 5 -->
      <g style="fill: #262626" transform="translate(414.770807 206.496406)scale(0.11 -0.11)">
       <use xlink:href="#DejaVuSans-35"/>
      </g>
     </g>
    </g>
    <g id="xtick_5">
     <g id="line2d_5">
      <path d="M 522.527417 188.638125 
L 522.527417 22.318125 
" clip-path="url(#pa20a266b46)" style="fill: none; stroke: #ffffff; stroke-linecap: round"/>
     </g>
     <g id="text_5">
      <!-- 10 -->
      <g style="fill: #262626" transform="translate(515.528667 206.496406)scale(0.11 -0.11)">
       <use xlink:href="#DejaVuSans-31"/>
       <use xlink:href="#DejaVuSans-30" x="63.623047"/>
      </g>
     </g>
    </g>
   </g>
   <g id="matplotlib.axis_2">
    <g id="ytick_1">
     <g id="line2d_6">
      <path d="M 34.193438 188.638125 
L 592.193437 188.638125 
" clip-path="url(#pa20a266b46)" style="fill: none; stroke: #ffffff; stroke-linecap: round"/>
     </g>
     <g id="text_6">
      <!-- 0.0 -->
      <g style="fill: #262626" transform="translate(7.2 192.817266)scale(0.11 -0.11)">
       <defs>
        <path id="DejaVuSans-2e" d="M 684 794 
L 1344 794 
L 1344 0 
L 684 0 
L 684 794 
z
" transform="scale(0.015625)"/>
       </defs>
       <use xlink:href="#DejaVuSans-30"/>
       <use xlink:href="#DejaVuSans-2e" x="63.623047"/>
       <use xlink:href="#DejaVuSans-30" x="95.410156"/>
      </g>
     </g>
    </g>
    <g id="ytick_2">
     <g id="line2d_7">
      <path d="M 34.193438 146.915706 
L 592.193437 146.915706 
" clip-path="url(#pa20a266b46)" style="fill: none; stroke: #ffffff; stroke-linecap: round"/>
     </g>
     <g id="text_7">
      <!-- 0.1 -->
      <g style="fill: #262626" transform="translate(7.2 151.094847)scale(0.11 -0.11)">
       <use xlink:href="#DejaVuSans-30"/>
       <use xlink:href="#DejaVuSans-2e" x="63.623047"/>
       <use xlink:href="#DejaVuSans-31" x="95.410156"/>
      </g>
     </g>
    </g>
    <g id="ytick_3">
     <g id="line2d_8">
      <path d="M 34.193438 105.193288 
L 592.193437 105.193288 
" clip-path="url(#pa20a266b46)" style="fill: none; stroke: #ffffff; stroke-linecap: round"/>
     </g>
     <g id="text_8">
      <!-- 0.2 -->
      <g style="fill: #262626" transform="translate(7.2 109.372428)scale(0.11 -0.11)">
       <defs>
        <path id="DejaVuSans-32" d="M 1228 531 
L 3431 531 
L 3431 0 
L 469 0 
L 469 531 
Q 828 903 1448 1529 
Q 2069 2156 2228 2338 
Q 2531 2678 2651 2914 
Q 2772 3150 2772 3378 
Q 2772 3750 2511 3984 
Q 2250 4219 1831 4219 
Q 1534 4219 1204 4116 
Q 875 4013 500 3803 
L 500 4441 
Q 881 4594 1212 4672 
Q 1544 4750 1819 4750 
Q 2544 4750 2975 4387 
Q 3406 4025 3406 3419 
Q 3406 3131 3298 2873 
Q 3191 2616 2906 2266 
Q 2828 2175 2409 1742 
Q 1991 1309 1228 531 
z
" transform="scale(0.015625)"/>
       </defs>
       <use xlink:href="#DejaVuSans-30"/>
       <use xlink:href="#DejaVuSans-2e" x="63.623047"/>
       <use xlink:href="#DejaVuSans-32" x="95.410156"/>
      </g>
     </g>
    </g>
    <g id="ytick_4">
     <g id="line2d_9">
      <path d="M 34.193438 63.470869 
L 592.193437 63.470869 
" clip-path="url(#pa20a266b46)" style="fill: none; stroke: #ffffff; stroke-linecap: round"/>
     </g>
     <g id="text_9">
      <!-- 0.3 -->
      <g style="fill: #262626" transform="translate(7.2 67.65001)scale(0.11 -0.11)">
       <defs>
        <path id="DejaVuSans-33" d="M 2597 2516 
Q 3050 2419 3304 2112 
Q 3559 1806 3559 1356 
Q 3559 666 3084 287 
Q 2609 -91 1734 -91 
Q 1441 -91 1130 -33 
Q 819 25 488 141 
L 488 750 
Q 750 597 1062 519 
Q 1375 441 1716 441 
Q 2309 441 2620 675 
Q 2931 909 2931 1356 
Q 2931 1769 2642 2001 
Q 2353 2234 1838 2234 
L 1294 2234 
L 1294 2753 
L 1863 2753 
Q 2328 2753 2575 2939 
Q 2822 3125 2822 3475 
Q 2822 3834 2567 4026 
Q 2313 4219 1838 4219 
Q 1578 4219 1281 4162 
Q 984 4106 628 3988 
L 628 4550 
Q 988 4650 1302 4700 
Q 1616 4750 1894 4750 
Q 2613 4750 3031 4423 
Q 3450 4097 3450 3541 
Q 3450 3153 3228 2886 
Q 3006 2619 2597 2516 
z
" transform="scale(0.015625)"/>
       </defs>
       <use xlink:href="#DejaVuSans-30"/>
       <use xlink:href="#DejaVuSans-2e" x="63.623047"/>
       <use xlink:href="#DejaVuSans-33" x="95.410156"/>
      </g>
     </g>
    </g>
   </g>
   <g id="patch_3">
    <path d="M 59.557074 188.638125 
L 61.538603 188.638125 
L 61.538603 188.474062 
L 59.557074 188.474062 
z
" clip-path="url(#pa20a266b46)" style="fill: #4c72b0; fill-opacity: 0.5; stroke: #4c72b0; stroke-linejoin: miter"/>
   </g>
   <g id="patch_4">
    <path d="M 61.538623 188.638125 
L 63.520152 188.638125 
L 63.520152 188.312734 
L 61.538623 188.312734 
z
" clip-path="url(#pa20a266b46)" style="fill: #4c72b0; fill-opacity: 0.5; stroke: #4c72b0; stroke-linejoin: miter"/>
   </g>
   <g id="patch_5">
    <path d="M 63.520152 188.638125 
L 65.501702 188.638125 
L 65.501702 188.241644 
L 63.520152 188.241644 
z
" clip-path="url(#pa20a266b46)" style="fill: #4c72b0; fill-opacity: 0.5; stroke: #4c72b0; stroke-linejoin: miter"/>
   </g>
   <g id="patch_6">
    <path d="M 65.501682 188.638125 
L 67.483211 188.638125 
L 67.483211 188.099452 
L 65.501682 188.099452 
z
" clip-path="url(#pa20a266b46)" style="fill: #4c72b0; fill-opacity: 0.5; stroke: #4c72b0; stroke-linejoin: miter"/>
   </g>
   <g id="patch_7">
    <path d="M 67.483231 188.638125 
L 69.46476 188.638125 
L 69.46476 187.888904 
L 67.483231 187.888904 
z
" clip-path="url(#pa20a266b46)" style="fill: #4c72b0; fill-opacity: 0.5; stroke: #4c72b0; stroke-linejoin: miter"/>
   </g>
   <g id="patch_8">
    <path d="M 69.464741 188.638125 
L 71.44627 188.638125 
L 71.44627 187.634607 
L 69.464741 187.634607 
z
" clip-path="url(#pa20a266b46)" style="fill: #4c72b0; fill-opacity: 0.5; stroke: #4c72b0; stroke-linejoin: miter"/>
   </g>
   <g id="patch_9">
    <path d="M 71.44629 188.638125 
L 73.427839 188.638125 
L 73.427839 187.235401 
L 71.44629 187.235401 
z
" clip-path="url(#pa20a266b46)" style="fill: #4c72b0; fill-opacity: 0.5; stroke: #4c72b0; stroke-linejoin: miter"/>
   </g>
   <g id="patch_10">
    <path d="M 73.427839 188.638125 
L 75.409368 188.638125 
L 75.409368 186.874449 
L 73.427839 186.874449 
z
" clip-path="url(#pa20a266b46)" style="fill: #4c72b0; fill-opacity: 0.5; stroke: #4c72b0; stroke-linejoin: miter"/>
   </g>
   <g id="patch_11">
    <path d="M 75.409348 188.638125 
L 77.390878 188.638125 
L 77.390878 186.267416 
L 75.409348 186.267416 
z
" clip-path="url(#pa20a266b46)" style="fill: #4c72b0; fill-opacity: 0.5; stroke: #4c72b0; stroke-linejoin: miter"/>
   </g>
   <g id="patch_12">
    <path d="M 77.390898 188.638125 
L 79.372427 188.638125 
L 79.372427 185.611164 
L 77.390898 185.611164 
z
" clip-path="url(#pa20a266b46)" style="fill: #4c72b0; fill-opacity: 0.5; stroke: #4c72b0; stroke-linejoin: miter"/>
   </g>
   <g id="patch_13">
    <path d="M 79.372427 188.638125 
L 81.353976 188.638125 
L 81.353976 184.883857 
L 79.372427 184.883857 
z
" clip-path="url(#pa20a266b46)" style="fill: #4c72b0; fill-opacity: 0.5; stroke: #4c72b0; stroke-linejoin: miter"/>
   </g>
   <g id="patch_14">
    <path d="M 81.353956 188.638125 
L 83.335486 188.638125 
L 83.335486 183.970535 
L 81.353956 183.970535 
z
" clip-path="url(#pa20a266b46)" style="fill: #4c72b0; fill-opacity: 0.5; stroke: #4c72b0; stroke-linejoin: miter"/>
   </g>
   <g id="patch_15">
    <path d="M 83.335506 188.638125 
L 85.317035 188.638125 
L 85.317035 182.524047 
L 83.335506 182.524047 
z
" clip-path="url(#pa20a266b46)" style="fill: #4c72b0; fill-opacity: 0.5; stroke: #4c72b0; stroke-linejoin: miter"/>
   </g>
   <g id="patch_16">
    <path d="M 85.317015 188.638125 
L 87.298544 188.638125 
L 87.298544 181.293576 
L 85.317015 181.293576 
z
" clip-path="url(#pa20a266b46)" style="fill: #4c72b0; fill-opacity: 0.5; stroke: #4c72b0; stroke-linejoin: miter"/>
   </g>
   <g id="patch_17">
    <path d="M 87.298564 188.638125 
L 89.280114 188.638125 
L 89.280114 179.478038 
L 87.298564 179.478038 
z
" clip-path="url(#pa20a266b46)" style="fill: #4c72b0; fill-opacity: 0.5; stroke: #4c72b0; stroke-linejoin: miter"/>
   </g>
   <g id="patch_18">
    <path d="M 89.280114 188.638125 
L 91.261643 188.638125 
L 91.261643 177.112706 
L 89.280114 177.112706 
z
" clip-path="url(#pa20a266b46)" style="fill: #4c72b0; fill-opacity: 0.5; stroke: #4c72b0; stroke-linejoin: miter"/>
   </g>
   <g id="patch_19">
    <path d="M 91.261623 188.638125 
L 93.243152 188.638125 
L 93.243152 174.640825 
L 91.261623 174.640825 
z
" clip-path="url(#pa20a266b46)" style="fill: #4c72b0; fill-opacity: 0.5; stroke: #4c72b0; stroke-linejoin: miter"/>
   </g>
   <g id="patch_20">
    <path d="M 93.243172 188.638125 
L 95.224702 188.638125 
L 95.224702 171.613864 
L 93.243172 171.613864 
z
" clip-path="url(#pa20a266b46)" style="fill: #4c72b0; fill-opacity: 0.5; stroke: #4c72b0; stroke-linejoin: miter"/>
   </g>
   <g id="patch_21">
    <path d="M 95.224682 188.638125 
L 97.206211 188.638125 
L 97.206211 167.679089 
L 95.224682 167.679089 
z
" clip-path="url(#pa20a266b46)" style="fill: #4c72b0; fill-opacity: 0.5; stroke: #4c72b0; stroke-linejoin: miter"/>
   </g>
   <g id="patch_22">
    <path d="M 97.206231 188.638125 
L 99.18778 188.638125 
L 99.18778 162.812149 
L 97.206231 162.812149 
z
" clip-path="url(#pa20a266b46)" style="fill: #4c72b0; fill-opacity: 0.5; stroke: #4c72b0; stroke-linejoin: miter"/>
   </g>
   <g id="patch_23">
    <path d="M 99.18778 188.638125 
L 101.16931 188.638125 
L 101.16931 157.78883 
L 99.18778 157.78883 
z
" clip-path="url(#pa20a266b46)" style="fill: #4c72b0; fill-opacity: 0.5; stroke: #4c72b0; stroke-linejoin: miter"/>
   </g>
   <g id="patch_24">
    <path d="M 101.16929 188.638125 
L 103.150819 188.638125 
L 103.150819 152.607177 
L 101.16929 152.607177 
z
" clip-path="url(#pa20a266b46)" style="fill: #4c72b0; fill-opacity: 0.5; stroke: #4c72b0; stroke-linejoin: miter"/>
   </g>
   <g id="patch_25">
    <path d="M 103.150839 188.638125 
L 105.132368 188.638125 
L 105.132368 145.475909 
L 103.150839 145.475909 
z
" clip-path="url(#pa20a266b46)" style="fill: #4c72b0; fill-opacity: 0.5; stroke: #4c72b0; stroke-linejoin: miter"/>
   </g>
   <g id="patch_26">
    <path d="M 105.132368 188.638125 
L 107.113918 188.638125 
L 107.113918 137.943196 
L 105.132368 137.943196 
z
" clip-path="url(#pa20a266b46)" style="fill: #4c72b0; fill-opacity: 0.5; stroke: #4c72b0; stroke-linejoin: miter"/>
   </g>
   <g id="patch_27">
    <path d="M 107.113898 188.638125 
L 109.095427 188.638125 
L 109.095427 129.545401 
L 107.113898 129.545401 
z
" clip-path="url(#pa20a266b46)" style="fill: #4c72b0; fill-opacity: 0.5; stroke: #4c72b0; stroke-linejoin: miter"/>
   </g>
   <g id="patch_28">
    <path d="M 109.095447 188.638125 
L 111.076976 188.638125 
L 111.076976 120.65866 
L 109.095447 120.65866 
z
" clip-path="url(#pa20a266b46)" style="fill: #4c72b0; fill-opacity: 0.5; stroke: #4c72b0; stroke-linejoin: miter"/>
   </g>
   <g id="patch_29">
    <path d="M 111.076956 188.638125 
L 113.058486 188.638125 
L 113.058486 111.74731 
L 111.076956 111.74731 
z
" clip-path="url(#pa20a266b46)" style="fill: #4c72b0; fill-opacity: 0.5; stroke: #4c72b0; stroke-linejoin: miter"/>
   </g>
   <g id="patch_30">
    <path d="M 113.058506 188.638125 
L 115.040055 188.638125 
L 115.040055 101.877063 
L 113.058506 101.877063 
z
" clip-path="url(#pa20a266b46)" style="fill: #4c72b0; fill-opacity: 0.5; stroke: #4c72b0; stroke-linejoin: miter"/>
   </g>
   <g id="patch_31">
    <path d="M 115.040055 188.638125 
L 117.021584 188.638125 
L 117.021584 91.318744 
L 115.040055 91.318744 
z
" clip-path="url(#pa20a266b46)" style="fill: #4c72b0; fill-opacity: 0.5; stroke: #4c72b0; stroke-linejoin: miter"/>
   </g>
   <g id="patch_32">
    <path d="M 117.021564 188.638125 
L 119.003094 188.638125 
L 119.003094 80.824187 
L 117.021564 80.824187 
z
" clip-path="url(#pa20a266b46)" style="fill: #4c72b0; fill-opacity: 0.5; stroke: #4c72b0; stroke-linejoin: miter"/>
   </g>
   <g id="patch_33">
    <path d="M 119.003114 188.638125 
L 120.984643 188.638125 
L 120.984643 70.991351 
L 119.003114 70.991351 
z
" clip-path="url(#pa20a266b46)" style="fill: #4c72b0; fill-opacity: 0.5; stroke: #4c72b0; stroke-linejoin: miter"/>
   </g>
   <g id="patch_34">
    <path d="M 120.984623 188.638125 
L 122.966152 188.638125 
L 122.966152 60.496793 
L 120.984623 60.496793 
z
" clip-path="url(#pa20a266b46)" style="fill: #4c72b0; fill-opacity: 0.5; stroke: #4c72b0; stroke-linejoin: miter"/>
   </g>
   <g id="patch_35">
    <path d="M 122.966172 188.638125 
L 124.947721 188.638125 
L 124.947721 52.532905 
L 122.966172 52.532905 
z
" clip-path="url(#pa20a266b46)" style="fill: #4c72b0; fill-opacity: 0.5; stroke: #4c72b0; stroke-linejoin: miter"/>
   </g>
   <g id="patch_36">
    <path d="M 124.947721 188.638125 
L 126.929251 188.638125 
L 126.929251 44.549879 
L 124.947721 44.549879 
z
" clip-path="url(#pa20a266b46)" style="fill: #4c72b0; fill-opacity: 0.5; stroke: #4c72b0; stroke-linejoin: miter"/>
   </g>
   <g id="patch_37">
    <path d="M 126.929231 188.638125 
L 128.91076 188.638125 
L 128.91076 38.036582 
L 126.929231 38.036582 
z
" clip-path="url(#pa20a266b46)" style="fill: #4c72b0; fill-opacity: 0.5; stroke: #4c72b0; stroke-linejoin: miter"/>
   </g>
   <g id="patch_38">
    <path d="M 128.91078 188.638125 
L 130.89231 188.638125 
L 130.89231 34.257666 
L 128.91078 34.257666 
z
" clip-path="url(#pa20a266b46)" style="fill: #4c72b0; fill-opacity: 0.5; stroke: #4c72b0; stroke-linejoin: miter"/>
   </g>
   <g id="patch_39">
    <path d="M 130.89231 188.638125 
L 132.873859 188.638125 
L 132.873859 31.172129 
L 130.89231 31.172129 
z
" clip-path="url(#pa20a266b46)" style="fill: #4c72b0; fill-opacity: 0.5; stroke: #4c72b0; stroke-linejoin: miter"/>
   </g>
   <g id="patch_40">
    <path d="M 132.873839 188.638125 
L 134.855368 188.638125 
L 134.855368 30.238125 
L 132.873839 30.238125 
z
" clip-path="url(#pa20a266b46)" style="fill: #4c72b0; fill-opacity: 0.5; stroke: #4c72b0; stroke-linejoin: miter"/>
   </g>
   <g id="patch_41">
    <path d="M 134.855388 188.638125 
L 136.836917 188.638125 
L 136.836917 32.797506 
L 134.855388 32.797506 
z
" clip-path="url(#pa20a266b46)" style="fill: #4c72b0; fill-opacity: 0.5; stroke: #4c72b0; stroke-linejoin: miter"/>
   </g>
   <g id="patch_42">
    <path d="M 136.836898 188.638125 
L 138.818427 188.638125 
L 138.818427 37.112361 
L 136.836898 37.112361 
z
" clip-path="url(#pa20a266b46)" style="fill: #4c72b0; fill-opacity: 0.5; stroke: #4c72b0; stroke-linejoin: miter"/>
   </g>
   <g id="patch_43">
    <path d="M 138.818447 188.638125 
L 140.799996 188.638125 
L 140.799996 43.55602 
L 138.818447 43.55602 
z
" clip-path="url(#pa20a266b46)" style="fill: #4c72b0; fill-opacity: 0.5; stroke: #4c72b0; stroke-linejoin: miter"/>
   </g>
   <g id="patch_44">
    <path d="M 140.799996 188.638125 
L 142.781525 188.638125 
L 142.781525 50.953801 
L 140.799996 50.953801 
z
" clip-path="url(#pa20a266b46)" style="fill: #4c72b0; fill-opacity: 0.5; stroke: #4c72b0; stroke-linejoin: miter"/>
   </g>
   <g id="patch_45">
    <path d="M 142.781506 188.638125 
L 144.763035 188.638125 
L 144.763035 59.211634 
L 142.781506 59.211634 
z
" clip-path="url(#pa20a266b46)" style="fill: #4c72b0; fill-opacity: 0.5; stroke: #4c72b0; stroke-linejoin: miter"/>
   </g>
   <g id="patch_46">
    <path d="M 144.763055 188.638125 
L 146.744584 188.638125 
L 146.744584 68.519469 
L 144.763055 68.519469 
z
" clip-path="url(#pa20a266b46)" style="fill: #4c72b0; fill-opacity: 0.5; stroke: #4c72b0; stroke-linejoin: miter"/>
   </g>
   <g id="patch_47">
    <path d="M 146.744584 188.638125 
L 148.726133 188.638125 
L 148.726133 80.411839 
L 146.744584 80.411839 
z
" clip-path="url(#pa20a266b46)" style="fill: #4c72b0; fill-opacity: 0.5; stroke: #4c72b0; stroke-linejoin: miter"/>
   </g>
   <g id="patch_48">
    <path d="M 148.726113 188.638125 
L 150.707663 188.638125 
L 150.707663 90.381344 
L 148.726113 90.381344 
z
" clip-path="url(#pa20a266b46)" style="fill: #4c72b0; fill-opacity: 0.5; stroke: #4c72b0; stroke-linejoin: miter"/>
   </g>
   <g id="patch_49">
    <path d="M 150.707663 188.638125 
L 152.689192 188.638125 
L 152.689192 102.070333 
L 150.707663 102.070333 
z
" clip-path="url(#pa20a266b46)" style="fill: #4c72b0; fill-opacity: 0.5; stroke: #4c72b0; stroke-linejoin: miter"/>
   </g>
   <g id="patch_50">
    <path d="M 152.689192 188.638125 
L 154.670721 188.638125 
L 154.670721 111.818404 
L 152.689192 111.818404 
z
" clip-path="url(#pa20a266b46)" style="fill: #4c72b0; fill-opacity: 0.5; stroke: #4c72b0; stroke-linejoin: miter"/>
   </g>
   <g id="patch_51">
    <path d="M 154.670721 188.638125 
L 156.652271 188.638125 
L 156.652271 122.627747 
L 154.670721 122.627747 
z
" clip-path="url(#pa20a266b46)" style="fill: #4c72b0; fill-opacity: 0.5; stroke: #4c72b0; stroke-linejoin: miter"/>
   </g>
   <g id="patch_52">
    <path d="M 156.652261 188.638125 
L 158.63379 188.638125 
L 158.63379 131.880563 
L 156.652261 131.880563 
z
" clip-path="url(#pa20a266b46)" style="fill: #4c72b0; fill-opacity: 0.5; stroke: #4c72b0; stroke-linejoin: miter"/>
   </g>
   <g id="patch_53">
    <path d="M 158.63378 188.638125 
L 160.615329 188.638125 
L 160.615329 140.187858 
L 158.63378 140.187858 
z
" clip-path="url(#pa20a266b46)" style="fill: #4c72b0; fill-opacity: 0.5; stroke: #4c72b0; stroke-linejoin: miter"/>
   </g>
   <g id="patch_54">
    <path d="M 160.615329 188.638125 
L 162.596859 188.638125 
L 162.596859 147.414586 
L 160.615329 147.414586 
z
" clip-path="url(#pa20a266b46)" style="fill: #4c72b0; fill-opacity: 0.5; stroke: #4c72b0; stroke-linejoin: miter"/>
   </g>
   <g id="patch_55">
    <path d="M 162.596859 188.638125 
L 164.578408 188.638125 
L 164.578408 154.461259 
L 162.596859 154.461259 
z
" clip-path="url(#pa20a266b46)" style="fill: #4c72b0; fill-opacity: 0.5; stroke: #4c72b0; stroke-linejoin: miter"/>
   </g>
   <g id="patch_56">
    <path d="M 164.578398 188.638125 
L 166.559927 188.638125 
L 166.559927 159.566178 
L 164.578398 159.566178 
z
" clip-path="url(#pa20a266b46)" style="fill: #4c72b0; fill-opacity: 0.5; stroke: #4c72b0; stroke-linejoin: miter"/>
   </g>
   <g id="patch_57">
    <path d="M 166.559917 188.638125 
L 168.541467 188.638125 
L 168.541467 164.77803 
L 166.559917 164.77803 
z
" clip-path="url(#pa20a266b46)" style="fill: #4c72b0; fill-opacity: 0.5; stroke: #4c72b0; stroke-linejoin: miter"/>
   </g>
   <g id="patch_58">
    <path d="M 168.541467 188.638125 
L 170.522996 188.638125 
L 170.522996 168.720888 
L 168.541467 168.720888 
z
" clip-path="url(#pa20a266b46)" style="fill: #4c72b0; fill-opacity: 0.5; stroke: #4c72b0; stroke-linejoin: miter"/>
   </g>
   <g id="patch_59">
    <path d="M 170.522996 188.638125 
L 172.504545 188.638125 
L 172.504545 172.573713 
L 170.522996 172.573713 
z
" clip-path="url(#pa20a266b46)" style="fill: #4c72b0; fill-opacity: 0.5; stroke: #4c72b0; stroke-linejoin: miter"/>
   </g>
   <g id="patch_60">
    <path d="M 172.504535 188.638125 
L 174.486065 188.638125 
L 174.486065 175.075592 
L 172.504535 175.075592 
z
" clip-path="url(#pa20a266b46)" style="fill: #4c72b0; fill-opacity: 0.5; stroke: #4c72b0; stroke-linejoin: miter"/>
   </g>
   <g id="patch_61">
    <path d="M 174.486055 188.638125 
L 176.467604 188.638125 
L 176.467604 177.730731 
L 174.486055 177.730731 
z
" clip-path="url(#pa20a266b46)" style="fill: #4c72b0; fill-opacity: 0.5; stroke: #4c72b0; stroke-linejoin: miter"/>
   </g>
   <g id="patch_62">
    <path d="M 176.467604 188.638125 
L 178.449133 188.638125 
L 178.449133 179.467009 
L 176.467604 179.467009 
z
" clip-path="url(#pa20a266b46)" style="fill: #4c72b0; fill-opacity: 0.5; stroke: #4c72b0; stroke-linejoin: miter"/>
   </g>
   <g id="patch_63">
    <path d="M 178.449133 188.638125 
L 180.430683 188.638125 
L 180.430683 181.036582 
L 178.449133 181.036582 
z
" clip-path="url(#pa20a266b46)" style="fill: #4c72b0; fill-opacity: 0.5; stroke: #4c72b0; stroke-linejoin: miter"/>
   </g>
   <g id="patch_64">
    <path d="M 180.430673 188.638125 
L 182.412202 188.638125 
L 182.412202 182.242406 
L 180.430673 182.242406 
z
" clip-path="url(#pa20a266b46)" style="fill: #4c72b0; fill-opacity: 0.5; stroke: #4c72b0; stroke-linejoin: miter"/>
   </g>
   <g id="patch_65">
    <path d="M 182.412192 188.638125 
L 184.393741 188.638125 
L 184.393741 183.308842 
L 182.412192 183.308842 
z
" clip-path="url(#pa20a266b46)" style="fill: #4c72b0; fill-opacity: 0.5; stroke: #4c72b0; stroke-linejoin: miter"/>
   </g>
   <g id="patch_66">
    <path d="M 184.393741 188.638125 
L 186.375271 188.638125 
L 186.375271 184.219364 
L 184.393741 184.219364 
z
" clip-path="url(#pa20a266b46)" style="fill: #4c72b0; fill-opacity: 0.5; stroke: #4c72b0; stroke-linejoin: miter"/>
   </g>
   <g id="patch_67">
    <path d="M 186.375271 188.638125 
L 188.3568 188.638125 
L 188.3568 184.872881 
L 186.375271 184.872881 
z
" clip-path="url(#pa20a266b46)" style="fill: #4c72b0; fill-opacity: 0.5; stroke: #4c72b0; stroke-linejoin: miter"/>
   </g>
   <g id="patch_68">
    <path d="M 188.3568 188.638125 
L 190.338349 188.638125 
L 190.338349 185.378758 
L 188.3568 185.378758 
z
" clip-path="url(#pa20a266b46)" style="fill: #4c72b0; fill-opacity: 0.5; stroke: #4c72b0; stroke-linejoin: miter"/>
   </g>
   <g id="patch_69">
    <path d="M 190.338339 188.638125 
L 192.319869 188.638125 
L 192.319869 185.865462 
L 190.338339 185.865462 
z
" clip-path="url(#pa20a266b46)" style="fill: #4c72b0; fill-opacity: 0.5; stroke: #4c72b0; stroke-linejoin: miter"/>
   </g>
   <g id="patch_70">
    <path d="M 192.319859 188.638125 
L 194.301408 188.638125 
L 194.301408 186.316647 
L 192.319859 186.316647 
z
" clip-path="url(#pa20a266b46)" style="fill: #4c72b0; fill-opacity: 0.5; stroke: #4c72b0; stroke-linejoin: miter"/>
   </g>
   <g id="patch_71">
    <path d="M 194.301408 188.638125 
L 196.282937 188.638125 
L 196.282937 186.639292 
L 194.301408 186.639292 
z
" clip-path="url(#pa20a266b46)" style="fill: #4c72b0; fill-opacity: 0.5; stroke: #4c72b0; stroke-linejoin: miter"/>
   </g>
   <g id="patch_72">
    <path d="M 196.282937 188.638125 
L 198.264486 188.638125 
L 198.264486 187.08227 
L 196.282937 187.08227 
z
" clip-path="url(#pa20a266b46)" style="fill: #4c72b0; fill-opacity: 0.5; stroke: #4c72b0; stroke-linejoin: miter"/>
   </g>
   <g id="patch_73">
    <path d="M 198.264477 188.638125 
L 200.246006 188.638125 
L 200.246006 188.230702 
L 198.264477 188.230702 
z
" clip-path="url(#pa20a266b46)" style="fill: #4c72b0; fill-opacity: 0.5; stroke: #4c72b0; stroke-linejoin: miter"/>
   </g>
   <g id="patch_74">
    <path d="M 200.245996 188.638125 
L 202.227545 188.638125 
L 202.227545 188.37836 
L 200.245996 188.37836 
z
" clip-path="url(#pa20a266b46)" style="fill: #4c72b0; fill-opacity: 0.5; stroke: #4c72b0; stroke-linejoin: miter"/>
   </g>
   <g id="patch_75">
    <path d="M 202.227545 188.638125 
L 204.209075 188.638125 
L 204.209075 188.438515 
L 202.227545 188.438515 
z
" clip-path="url(#pa20a266b46)" style="fill: #4c72b0; fill-opacity: 0.5; stroke: #4c72b0; stroke-linejoin: miter"/>
   </g>
   <g id="patch_76">
    <path d="M 204.209075 188.638125 
L 206.190624 188.638125 
L 206.190624 188.405704 
L 204.209075 188.405704 
z
" clip-path="url(#pa20a266b46)" style="fill: #4c72b0; fill-opacity: 0.5; stroke: #4c72b0; stroke-linejoin: miter"/>
   </g>
   <g id="patch_77">
    <path d="M 206.190614 188.638125 
L 208.172143 188.638125 
L 208.172143 188.424843 
L 206.190614 188.424843 
z
" clip-path="url(#pa20a266b46)" style="fill: #4c72b0; fill-opacity: 0.5; stroke: #4c72b0; stroke-linejoin: miter"/>
   </g>
   <g id="patch_78">
    <path d="M 208.172133 188.638125 
L 210.153682 188.638125 
L 210.153682 188.498672 
L 208.172133 188.498672 
z
" clip-path="url(#pa20a266b46)" style="fill: #4c72b0; fill-opacity: 0.5; stroke: #4c72b0; stroke-linejoin: miter"/>
   </g>
   <g id="patch_79">
    <path d="M 210.153682 188.638125 
L 212.135212 188.638125 
L 212.135212 188.463125 
L 210.153682 188.463125 
z
" clip-path="url(#pa20a266b46)" style="fill: #4c72b0; fill-opacity: 0.5; stroke: #4c72b0; stroke-linejoin: miter"/>
   </g>
   <g id="patch_80">
    <path d="M 212.135212 188.638125 
L 214.116761 188.638125 
L 214.116761 188.143204 
L 212.135212 188.143204 
z
" clip-path="url(#pa20a266b46)" style="fill: #4c72b0; fill-opacity: 0.5; stroke: #4c72b0; stroke-linejoin: miter"/>
   </g>
   <g id="patch_81">
    <path d="M 214.116751 188.638125 
L 216.09828 188.638125 
L 216.09828 187.905311 
L 214.116751 187.905311 
z
" clip-path="url(#pa20a266b46)" style="fill: #4c72b0; fill-opacity: 0.5; stroke: #4c72b0; stroke-linejoin: miter"/>
   </g>
   <g id="patch_82">
    <path d="M 216.098271 188.638125 
L 218.07982 188.638125 
L 218.07982 187.910783 
L 216.098271 187.910783 
z
" clip-path="url(#pa20a266b46)" style="fill: #4c72b0; fill-opacity: 0.5; stroke: #4c72b0; stroke-linejoin: miter"/>
   </g>
   <g id="patch_83">
    <path d="M 218.07982 188.638125 
L 220.061349 188.638125 
L 220.061349 187.782264 
L 218.07982 187.782264 
z
" clip-path="url(#pa20a266b46)" style="fill: #4c72b0; fill-opacity: 0.5; stroke: #4c72b0; stroke-linejoin: miter"/>
   </g>
   <g id="patch_84">
    <path d="M 220.061349 188.638125 
L 222.042878 188.638125 
L 222.042878 187.779529 
L 220.061349 187.779529 
z
" clip-path="url(#pa20a266b46)" style="fill: #4c72b0; fill-opacity: 0.5; stroke: #4c72b0; stroke-linejoin: miter"/>
   </g>
   <g id="patch_85">
    <path d="M 222.042878 188.638125 
L 224.024428 188.638125 
L 224.024428 187.864299 
L 222.042878 187.864299 
z
" clip-path="url(#pa20a266b46)" style="fill: #4c72b0; fill-opacity: 0.5; stroke: #4c72b0; stroke-linejoin: miter"/>
   </g>
   <g id="patch_86">
    <path d="M 224.024418 188.638125 
L 226.005947 188.638125 
L 226.005947 187.689295 
L 224.024418 187.689295 
z
" clip-path="url(#pa20a266b46)" style="fill: #4c72b0; fill-opacity: 0.5; stroke: #4c72b0; stroke-linejoin: miter"/>
   </g>
   <g id="patch_87">
    <path d="M 226.005937 188.638125 
L 227.987486 188.638125 
L 227.987486 187.517034 
L 226.005937 187.517034 
z
" clip-path="url(#pa20a266b46)" style="fill: #4c72b0; fill-opacity: 0.5; stroke: #4c72b0; stroke-linejoin: miter"/>
   </g>
   <g id="patch_88">
    <path d="M 227.987486 188.638125 
L 229.969016 188.638125 
L 229.969016 187.183434 
L 227.987486 187.183434 
z
" clip-path="url(#pa20a266b46)" style="fill: #4c72b0; fill-opacity: 0.5; stroke: #4c72b0; stroke-linejoin: miter"/>
   </g>
   <g id="patch_89">
    <path d="M 229.969016 188.638125 
L 231.950565 188.638125 
L 231.950565 187.208051 
L 229.969016 187.208051 
z
" clip-path="url(#pa20a266b46)" style="fill: #4c72b0; fill-opacity: 0.5; stroke: #4c72b0; stroke-linejoin: miter"/>
   </g>
   <g id="patch_90">
    <path d="M 231.950555 188.638125 
L 233.932084 188.638125 
L 233.932084 187.221715 
L 231.950555 187.221715 
z
" clip-path="url(#pa20a266b46)" style="fill: #4c72b0; fill-opacity: 0.5; stroke: #4c72b0; stroke-linejoin: miter"/>
   </g>
   <g id="patch_91">
    <path d="M 233.932084 188.638125 
L 235.913614 188.638125 
L 235.913614 187.112344 
L 233.932084 187.112344 
z
" clip-path="url(#pa20a266b46)" style="fill: #4c72b0; fill-opacity: 0.5; stroke: #4c72b0; stroke-linejoin: miter"/>
   </g>
   <g id="patch_92">
    <path d="M 235.913624 188.638125 
L 237.895153 188.638125 
L 237.895153 186.406875 
L 235.913624 186.406875 
z
" clip-path="url(#pa20a266b46)" style="fill: #4c72b0; fill-opacity: 0.5; stroke: #4c72b0; stroke-linejoin: miter"/>
   </g>
   <g id="patch_93">
    <path d="M 237.895153 188.638125 
L 239.876682 188.638125 
L 239.876682 186.220938 
L 237.895153 186.220938 
z
" clip-path="url(#pa20a266b46)" style="fill: #4c72b0; fill-opacity: 0.5; stroke: #4c72b0; stroke-linejoin: miter"/>
   </g>
   <g id="patch_94">
    <path d="M 239.876692 188.638125 
L 241.858222 188.638125 
L 241.858222 186.401406 
L 239.876692 186.401406 
z
" clip-path="url(#pa20a266b46)" style="fill: #4c72b0; fill-opacity: 0.5; stroke: #4c72b0; stroke-linejoin: miter"/>
   </g>
   <g id="patch_95">
    <path d="M 241.858222 188.638125 
L 243.839751 188.638125 
L 243.839751 186.275625 
L 241.858222 186.275625 
z
" clip-path="url(#pa20a266b46)" style="fill: #4c72b0; fill-opacity: 0.5; stroke: #4c72b0; stroke-linejoin: miter"/>
   </g>
   <g id="patch_96">
    <path d="M 243.839761 188.638125 
L 245.82129 188.638125 
L 245.82129 185.734219 
L 243.839761 185.734219 
z
" clip-path="url(#pa20a266b46)" style="fill: #4c72b0; fill-opacity: 0.5; stroke: #4c72b0; stroke-linejoin: miter"/>
   </g>
   <g id="patch_97">
    <path d="M 245.82129 188.638125 
L 247.80282 188.638125 
L 247.80282 185.042422 
L 245.82129 185.042422 
z
" clip-path="url(#pa20a266b46)" style="fill: #4c72b0; fill-opacity: 0.5; stroke: #4c72b0; stroke-linejoin: miter"/>
   </g>
   <g id="patch_98">
    <path d="M 247.80283 188.638125 
L 249.784359 188.638125 
L 249.784359 185.138125 
L 247.80283 185.138125 
z
" clip-path="url(#pa20a266b46)" style="fill: #4c72b0; fill-opacity: 0.5; stroke: #4c72b0; stroke-linejoin: miter"/>
   </g>
   <g id="patch_99">
    <path d="M 249.784359 188.638125 
L 251.765888 188.638125 
L 251.765888 185.00961 
L 249.784359 185.00961 
z
" clip-path="url(#pa20a266b46)" style="fill: #4c72b0; fill-opacity: 0.5; stroke: #4c72b0; stroke-linejoin: miter"/>
   </g>
   <g id="patch_100">
    <path d="M 251.765898 188.638125 
L 253.747428 188.638125 
L 253.747428 185.088906 
L 251.765898 185.088906 
z
" clip-path="url(#pa20a266b46)" style="fill: #4c72b0; fill-opacity: 0.5; stroke: #4c72b0; stroke-linejoin: miter"/>
   </g>
   <g id="patch_101">
    <path d="M 253.747428 188.638125 
L 255.728957 188.638125 
L 255.728957 184.684219 
L 253.747428 184.684219 
z
" clip-path="url(#pa20a266b46)" style="fill: #4c72b0; fill-opacity: 0.5; stroke: #4c72b0; stroke-linejoin: miter"/>
   </g>
   <g id="patch_102">
    <path d="M 255.728967 188.638125 
L 257.710496 188.638125 
L 257.710496 184.943985 
L 255.728967 184.943985 
z
" clip-path="url(#pa20a266b46)" style="fill: #4c72b0; fill-opacity: 0.5; stroke: #4c72b0; stroke-linejoin: miter"/>
   </g>
   <g id="patch_103">
    <path d="M 257.710496 188.638125 
L 259.692026 188.638125 
L 259.692026 184.924844 
L 257.710496 184.924844 
z
" clip-path="url(#pa20a266b46)" style="fill: #4c72b0; fill-opacity: 0.5; stroke: #4c72b0; stroke-linejoin: miter"/>
   </g>
   <g id="patch_104">
    <path d="M 259.692036 188.638125 
L 261.673565 188.638125 
L 261.673565 184.205703 
L 259.692036 184.205703 
z
" clip-path="url(#pa20a266b46)" style="fill: #4c72b0; fill-opacity: 0.5; stroke: #4c72b0; stroke-linejoin: miter"/>
   </g>
   <g id="patch_105">
    <path d="M 261.673565 188.638125 
L 263.655094 188.638125 
L 263.655094 183.549453 
L 261.673565 183.549453 
z
" clip-path="url(#pa20a266b46)" style="fill: #4c72b0; fill-opacity: 0.5; stroke: #4c72b0; stroke-linejoin: miter"/>
   </g>
   <g id="patch_106">
    <path d="M 263.655104 188.638125 
L 265.636634 188.638125 
L 265.636634 182.693594 
L 263.655104 182.693594 
z
" clip-path="url(#pa20a266b46)" style="fill: #4c72b0; fill-opacity: 0.5; stroke: #4c72b0; stroke-linejoin: miter"/>
   </g>
   <g id="patch_107">
    <path d="M 265.636634 188.638125 
L 267.618163 188.638125 
L 267.618163 184.123661 
L 265.636634 184.123661 
z
" clip-path="url(#pa20a266b46)" style="fill: #4c72b0; fill-opacity: 0.5; stroke: #4c72b0; stroke-linejoin: miter"/>
   </g>
   <g id="patch_108">
    <path d="M 267.618163 188.638125 
L 269.599692 188.638125 
L 269.599692 183.623281 
L 267.618163 183.623281 
z
" clip-path="url(#pa20a266b46)" style="fill: #4c72b0; fill-opacity: 0.5; stroke: #4c72b0; stroke-linejoin: miter"/>
   </g>
   <g id="patch_109">
    <path d="M 269.599702 188.638125 
L 271.581232 188.638125 
L 271.581232 182.480313 
L 269.599702 182.480313 
z
" clip-path="url(#pa20a266b46)" style="fill: #4c72b0; fill-opacity: 0.5; stroke: #4c72b0; stroke-linejoin: miter"/>
   </g>
   <g id="patch_110">
    <path d="M 271.581232 188.638125 
L 273.562761 188.638125 
L 273.562761 181.413907 
L 271.581232 181.413907 
z
" clip-path="url(#pa20a266b46)" style="fill: #4c72b0; fill-opacity: 0.5; stroke: #4c72b0; stroke-linejoin: miter"/>
   </g>
   <g id="patch_111">
    <path d="M 273.562768 188.638125 
L 275.544298 188.638125 
L 275.544298 183.344375 
L 273.562768 183.344375 
z
" clip-path="url(#pa20a266b46)" style="fill: #4c72b0; fill-opacity: 0.5; stroke: #4c72b0; stroke-linejoin: miter"/>
   </g>
   <g id="patch_112">
    <path d="M 275.544303 188.638125 
L 277.525832 188.638125 
L 277.525832 182.070157 
L 275.544303 182.070157 
z
" clip-path="url(#pa20a266b46)" style="fill: #4c72b0; fill-opacity: 0.5; stroke: #4c72b0; stroke-linejoin: miter"/>
   </g>
   <g id="patch_113">
    <path d="M 277.525837 188.638125 
L 279.507366 188.638125 
L 279.507366 182.007266 
L 277.525837 182.007266 
z
" clip-path="url(#pa20a266b46)" style="fill: #4c72b0; fill-opacity: 0.5; stroke: #4c72b0; stroke-linejoin: miter"/>
   </g>
   <g id="patch_114">
    <path d="M 279.507371 188.638125 
L 281.488901 188.638125 
L 281.488901 181.156875 
L 279.507371 181.156875 
z
" clip-path="url(#pa20a266b46)" style="fill: #4c72b0; fill-opacity: 0.5; stroke: #4c72b0; stroke-linejoin: miter"/>
   </g>
   <g id="patch_115">
    <path d="M 281.488906 188.638125 
L 283.470435 188.638125 
L 283.470435 182.20961 
L 281.488906 182.20961 
z
" clip-path="url(#pa20a266b46)" style="fill: #4c72b0; fill-opacity: 0.5; stroke: #4c72b0; stroke-linejoin: miter"/>
   </g>
   <g id="patch_116">
    <path d="M 283.47044 188.638125 
L 285.451969 188.638125 
L 285.451969 181.135 
L 283.47044 181.135 
z
" clip-path="url(#pa20a266b46)" style="fill: #4c72b0; fill-opacity: 0.5; stroke: #4c72b0; stroke-linejoin: miter"/>
   </g>
   <g id="patch_117">
    <path d="M 285.451974 188.638125 
L 287.433504 188.638125 
L 287.433504 182.362735 
L 285.451974 182.362735 
z
" clip-path="url(#pa20a266b46)" style="fill: #4c72b0; fill-opacity: 0.5; stroke: #4c72b0; stroke-linejoin: miter"/>
   </g>
   <g id="patch_118">
    <path d="M 287.433509 188.638125 
L 289.415038 188.638125 
L 289.415038 180.191641 
L 287.433509 180.191641 
z
" clip-path="url(#pa20a266b46)" style="fill: #4c72b0; fill-opacity: 0.5; stroke: #4c72b0; stroke-linejoin: miter"/>
   </g>
   <g id="patch_119">
    <path d="M 289.415041 188.638125 
L 291.39657 188.638125 
L 291.39657 178.723269 
L 289.415041 178.723269 
z
" clip-path="url(#pa20a266b46)" style="fill: #4c72b0; fill-opacity: 0.5; stroke: #4c72b0; stroke-linejoin: miter"/>
   </g>
   <g id="patch_120">
    <path d="M 291.396575 188.638125 
L 293.378104 188.638125 
L 293.378104 180.292813 
L 291.396575 180.292813 
z
" clip-path="url(#pa20a266b46)" style="fill: #4c72b0; fill-opacity: 0.5; stroke: #4c72b0; stroke-linejoin: miter"/>
   </g>
   <g id="patch_121">
    <path d="M 293.378109 188.638125 
L 295.359639 188.638125 
L 295.359639 180.071328 
L 293.378109 180.071328 
z
" clip-path="url(#pa20a266b46)" style="fill: #4c72b0; fill-opacity: 0.5; stroke: #4c72b0; stroke-linejoin: miter"/>
   </g>
   <g id="patch_122">
    <path d="M 295.359643 188.638125 
L 297.341173 188.638125 
L 297.341173 179.606485 
L 295.359643 179.606485 
z
" clip-path="url(#pa20a266b46)" style="fill: #4c72b0; fill-opacity: 0.5; stroke: #4c72b0; stroke-linejoin: miter"/>
   </g>
   <g id="patch_123">
    <path d="M 297.341178 188.638125 
L 299.322707 188.638125 
L 299.322707 179.652969 
L 297.341178 179.652969 
z
" clip-path="url(#pa20a266b46)" style="fill: #4c72b0; fill-opacity: 0.5; stroke: #4c72b0; stroke-linejoin: miter"/>
   </g>
   <g id="patch_124">
    <path d="M 299.322712 188.638125 
L 301.304241 188.638125 
L 301.304241 177.875625 
L 299.322712 177.875625 
z
" clip-path="url(#pa20a266b46)" style="fill: #4c72b0; fill-opacity: 0.5; stroke: #4c72b0; stroke-linejoin: miter"/>
   </g>
   <g id="patch_125">
    <path d="M 301.304246 188.638125 
L 303.285776 188.638125 
L 303.285776 180.123276 
L 301.304246 180.123276 
z
" clip-path="url(#pa20a266b46)" style="fill: #4c72b0; fill-opacity: 0.5; stroke: #4c72b0; stroke-linejoin: miter"/>
   </g>
   <g id="patch_126">
    <path d="M 303.28578 188.638125 
L 305.267309 188.638125 
L 305.267309 179.669375 
L 303.28578 179.669375 
z
" clip-path="url(#pa20a266b46)" style="fill: #4c72b0; fill-opacity: 0.5; stroke: #4c72b0; stroke-linejoin: miter"/>
   </g>
   <g id="patch_127">
    <path d="M 305.267314 188.638125 
L 307.248843 188.638125 
L 307.248843 179.212735 
L 305.267314 179.212735 
z
" clip-path="url(#pa20a266b46)" style="fill: #4c72b0; fill-opacity: 0.5; stroke: #4c72b0; stroke-linejoin: miter"/>
   </g>
   <g id="patch_128">
    <path d="M 307.248848 188.638125 
L 309.230378 188.638125 
L 309.230378 179.37406 
L 307.248848 179.37406 
z
" clip-path="url(#pa20a266b46)" style="fill: #4c72b0; fill-opacity: 0.5; stroke: #4c72b0; stroke-linejoin: miter"/>
   </g>
   <g id="patch_129">
    <path d="M 309.230382 188.638125 
L 311.211911 188.638125 
L 311.211911 178.392421 
L 309.230382 178.392421 
z
" clip-path="url(#pa20a266b46)" style="fill: #4c72b0; fill-opacity: 0.5; stroke: #4c72b0; stroke-linejoin: miter"/>
   </g>
   <g id="patch_130">
    <path d="M 311.211916 188.638125 
L 313.193445 188.638125 
L 313.193445 178.602968 
L 311.211916 178.602968 
z
" clip-path="url(#pa20a266b46)" style="fill: #4c72b0; fill-opacity: 0.5; stroke: #4c72b0; stroke-linejoin: miter"/>
   </g>
   <g id="patch_131">
    <path d="M 313.19345 188.638125 
L 315.174979 188.638125 
L 315.174979 173.44867 
L 313.19345 173.44867 
z
" clip-path="url(#pa20a266b46)" style="fill: #4c72b0; fill-opacity: 0.5; stroke: #4c72b0; stroke-linejoin: miter"/>
   </g>
   <g id="patch_132">
    <path d="M 315.174984 188.638125 
L 317.156513 188.638125 
L 317.156513 179.05414 
L 315.174984 179.05414 
z
" clip-path="url(#pa20a266b46)" style="fill: #4c72b0; fill-opacity: 0.5; stroke: #4c72b0; stroke-linejoin: miter"/>
   </g>
   <g id="patch_133">
    <path d="M 317.156518 188.638125 
L 319.138047 188.638125 
L 319.138047 177.656874 
L 317.156518 177.656874 
z
" clip-path="url(#pa20a266b46)" style="fill: #4c72b0; fill-opacity: 0.5; stroke: #4c72b0; stroke-linejoin: miter"/>
   </g>
   <g id="patch_134">
    <path d="M 319.138052 188.638125 
L 321.119581 188.638125 
L 321.119581 178.884608 
L 319.138052 178.884608 
z
" clip-path="url(#pa20a266b46)" style="fill: #4c72b0; fill-opacity: 0.5; stroke: #4c72b0; stroke-linejoin: miter"/>
   </g>
   <g id="patch_135">
    <path d="M 321.119586 188.638125 
L 323.101115 188.638125 
L 323.101115 178.843594 
L 321.119586 178.843594 
z
" clip-path="url(#pa20a266b46)" style="fill: #4c72b0; fill-opacity: 0.5; stroke: #4c72b0; stroke-linejoin: miter"/>
   </g>
   <g id="patch_136">
    <path d="M 323.10112 188.638125 
L 325.082648 188.638125 
L 325.082648 180.314683 
L 323.10112 180.314683 
z
" clip-path="url(#pa20a266b46)" style="fill: #4c72b0; fill-opacity: 0.5; stroke: #4c72b0; stroke-linejoin: miter"/>
   </g>
   <g id="patch_137">
    <path d="M 325.082653 188.638125 
L 327.064183 188.638125 
L 327.064183 180.090469 
L 325.082653 180.090469 
z
" clip-path="url(#pa20a266b46)" style="fill: #4c72b0; fill-opacity: 0.5; stroke: #4c72b0; stroke-linejoin: miter"/>
   </g>
   <g id="patch_138">
    <path d="M 327.064188 188.638125 
L 329.045717 188.638125 
L 329.045717 176.87211 
L 327.064188 176.87211 
z
" clip-path="url(#pa20a266b46)" style="fill: #4c72b0; fill-opacity: 0.5; stroke: #4c72b0; stroke-linejoin: miter"/>
   </g>
   <g id="patch_139">
    <path d="M 329.045722 188.638125 
L 331.027251 188.638125 
L 331.027251 179.776016 
L 329.045722 179.776016 
z
" clip-path="url(#pa20a266b46)" style="fill: #4c72b0; fill-opacity: 0.5; stroke: #4c72b0; stroke-linejoin: miter"/>
   </g>
   <g id="patch_140">
    <path d="M 331.027256 188.638125 
L 333.008786 188.638125 
L 333.008786 178.993985 
L 331.027256 178.993985 
z
" clip-path="url(#pa20a266b46)" style="fill: #4c72b0; fill-opacity: 0.5; stroke: #4c72b0; stroke-linejoin: miter"/>
   </g>
   <g id="patch_141">
    <path d="M 333.008791 188.638125 
L 334.99032 188.638125 
L 334.99032 181.722891 
L 333.008791 181.722891 
z
" clip-path="url(#pa20a266b46)" style="fill: #4c72b0; fill-opacity: 0.5; stroke: #4c72b0; stroke-linejoin: miter"/>
   </g>
   <g id="patch_142">
    <path d="M 334.990325 188.638125 
L 336.971854 188.638125 
L 336.971854 176.907642 
L 334.990325 176.907642 
z
" clip-path="url(#pa20a266b46)" style="fill: #4c72b0; fill-opacity: 0.5; stroke: #4c72b0; stroke-linejoin: miter"/>
   </g>
   <g id="patch_143">
    <path d="M 336.971857 188.638125 
L 338.953386 188.638125 
L 338.953386 180.156094 
L 336.971857 180.156094 
z
" clip-path="url(#pa20a266b46)" style="fill: #4c72b0; fill-opacity: 0.5; stroke: #4c72b0; stroke-linejoin: miter"/>
   </g>
   <g id="patch_144">
    <path d="M 338.953391 188.638125 
L 340.934921 188.638125 
L 340.934921 179.97836 
L 338.953391 179.97836 
z
" clip-path="url(#pa20a266b46)" style="fill: #4c72b0; fill-opacity: 0.5; stroke: #4c72b0; stroke-linejoin: miter"/>
   </g>
   <g id="patch_145">
    <path d="M 340.934925 188.638125 
L 342.916455 188.638125 
L 342.916455 181.763907 
L 340.934925 181.763907 
z
" clip-path="url(#pa20a266b46)" style="fill: #4c72b0; fill-opacity: 0.5; stroke: #4c72b0; stroke-linejoin: miter"/>
   </g>
   <g id="patch_146">
    <path d="M 342.91646 188.638125 
L 344.897989 188.638125 
L 344.897989 181.996328 
L 342.91646 181.996328 
z
" clip-path="url(#pa20a266b46)" style="fill: #4c72b0; fill-opacity: 0.5; stroke: #4c72b0; stroke-linejoin: miter"/>
   </g>
   <g id="patch_147">
    <path d="M 344.897994 188.638125 
L 346.879523 188.638125 
L 346.879523 181.156875 
L 344.897994 181.156875 
z
" clip-path="url(#pa20a266b46)" style="fill: #4c72b0; fill-opacity: 0.5; stroke: #4c72b0; stroke-linejoin: miter"/>
   </g>
   <g id="patch_148">
    <path d="M 346.879528 188.638125 
L 348.861058 188.638125 
L 348.861058 180.918985 
L 346.879528 180.918985 
z
" clip-path="url(#pa20a266b46)" style="fill: #4c72b0; fill-opacity: 0.5; stroke: #4c72b0; stroke-linejoin: miter"/>
   </g>
   <g id="patch_149">
    <path d="M 348.861063 188.638125 
L 350.842592 188.638125 
L 350.842592 181.326407 
L 348.861063 181.326407 
z
" clip-path="url(#pa20a266b46)" style="fill: #4c72b0; fill-opacity: 0.5; stroke: #4c72b0; stroke-linejoin: miter"/>
   </g>
   <g id="patch_150">
    <path d="M 350.842597 188.638125 
L 352.824126 188.638125 
L 352.824126 183.311563 
L 350.842597 183.311563 
z
" clip-path="url(#pa20a266b46)" style="fill: #4c72b0; fill-opacity: 0.5; stroke: #4c72b0; stroke-linejoin: miter"/>
   </g>
   <g id="patch_151">
    <path d="M 352.824129 188.638125 
L 354.805658 188.638125 
L 354.805658 181.936164 
L 352.824129 181.936164 
z
" clip-path="url(#pa20a266b46)" style="fill: #4c72b0; fill-opacity: 0.5; stroke: #4c72b0; stroke-linejoin: miter"/>
   </g>
   <g id="patch_152">
    <path d="M 354.805663 188.638125 
L 356.787193 188.638125 
L 356.787193 181.449462 
L 354.805663 181.449462 
z
" clip-path="url(#pa20a266b46)" style="fill: #4c72b0; fill-opacity: 0.5; stroke: #4c72b0; stroke-linejoin: miter"/>
   </g>
   <g id="patch_153">
    <path d="M 356.787203 188.638125 
L 358.768732 188.638125 
L 358.768732 183.076406 
L 356.787203 183.076406 
z
" clip-path="url(#pa20a266b46)" style="fill: #4c72b0; fill-opacity: 0.5; stroke: #4c72b0; stroke-linejoin: miter"/>
   </g>
   <g id="patch_154">
    <path d="M 358.768732 188.638125 
L 360.750261 188.638125 
L 360.750261 183.620535 
L 358.768732 183.620535 
z
" clip-path="url(#pa20a266b46)" style="fill: #4c72b0; fill-opacity: 0.5; stroke: #4c72b0; stroke-linejoin: miter"/>
   </g>
   <g id="patch_155">
    <path d="M 360.750261 188.638125 
L 362.731791 188.638125 
L 362.731791 182.75375 
L 360.750261 182.75375 
z
" clip-path="url(#pa20a266b46)" style="fill: #4c72b0; fill-opacity: 0.5; stroke: #4c72b0; stroke-linejoin: miter"/>
   </g>
   <g id="patch_156">
    <path d="M 362.731801 188.638125 
L 364.71333 188.638125 
L 364.71333 183.213125 
L 362.731801 183.213125 
z
" clip-path="url(#pa20a266b46)" style="fill: #4c72b0; fill-opacity: 0.5; stroke: #4c72b0; stroke-linejoin: miter"/>
   </g>
   <g id="patch_157">
    <path d="M 364.71333 188.638125 
L 366.694859 188.638125 
L 366.694859 183.4975 
L 364.71333 183.4975 
z
" clip-path="url(#pa20a266b46)" style="fill: #4c72b0; fill-opacity: 0.5; stroke: #4c72b0; stroke-linejoin: miter"/>
   </g>
   <g id="patch_158">
    <path d="M 366.694869 188.638125 
L 368.676399 188.638125 
L 368.676399 184.345156 
L 366.694869 184.345156 
z
" clip-path="url(#pa20a266b46)" style="fill: #4c72b0; fill-opacity: 0.5; stroke: #4c72b0; stroke-linejoin: miter"/>
   </g>
   <g id="patch_159">
    <path d="M 368.676399 188.638125 
L 370.657928 188.638125 
L 370.657928 184.700625 
L 368.676399 184.700625 
z
" clip-path="url(#pa20a266b46)" style="fill: #4c72b0; fill-opacity: 0.5; stroke: #4c72b0; stroke-linejoin: miter"/>
   </g>
   <g id="patch_160">
    <path d="M 370.657938 188.638125 
L 372.639467 188.638125 
L 372.639467 184.670547 
L 370.657938 184.670547 
z
" clip-path="url(#pa20a266b46)" style="fill: #4c72b0; fill-opacity: 0.5; stroke: #4c72b0; stroke-linejoin: miter"/>
   </g>
   <g id="patch_161">
    <path d="M 372.639467 188.638125 
L 374.620997 188.638125 
L 374.620997 184.46 
L 372.639467 184.46 
z
" clip-path="url(#pa20a266b46)" style="fill: #4c72b0; fill-opacity: 0.5; stroke: #4c72b0; stroke-linejoin: miter"/>
   </g>
   <g id="patch_162">
    <path d="M 374.621007 188.638125 
L 376.602536 188.638125 
L 376.602536 185.099844 
L 374.621007 185.099844 
z
" clip-path="url(#pa20a266b46)" style="fill: #4c72b0; fill-opacity: 0.5; stroke: #4c72b0; stroke-linejoin: miter"/>
   </g>
   <g id="patch_163">
    <path d="M 376.602536 188.638125 
L 378.584065 188.638125 
L 378.584065 185.389688 
L 376.602536 185.389688 
z
" clip-path="url(#pa20a266b46)" style="fill: #4c72b0; fill-opacity: 0.5; stroke: #4c72b0; stroke-linejoin: miter"/>
   </g>
   <g id="patch_164">
    <path d="M 378.584075 188.638125 
L 380.565605 188.638125 
L 380.565605 185.165469 
L 378.584075 185.165469 
z
" clip-path="url(#pa20a266b46)" style="fill: #4c72b0; fill-opacity: 0.5; stroke: #4c72b0; stroke-linejoin: miter"/>
   </g>
   <g id="patch_165">
    <path d="M 380.565605 188.638125 
L 382.547134 188.638125 
L 382.547134 186.215469 
L 380.565605 186.215469 
z
" clip-path="url(#pa20a266b46)" style="fill: #4c72b0; fill-opacity: 0.5; stroke: #4c72b0; stroke-linejoin: miter"/>
   </g>
   <g id="patch_166">
    <path d="M 382.547144 188.638125 
L 384.528673 188.638125 
L 384.528673 185.881875 
L 382.547144 185.881875 
z
" clip-path="url(#pa20a266b46)" style="fill: #4c72b0; fill-opacity: 0.5; stroke: #4c72b0; stroke-linejoin: miter"/>
   </g>
   <g id="patch_167">
    <path d="M 384.528673 188.638125 
L 386.510203 188.638125 
L 386.510203 186.155313 
L 384.528673 186.155313 
z
" clip-path="url(#pa20a266b46)" style="fill: #4c72b0; fill-opacity: 0.5; stroke: #4c72b0; stroke-linejoin: miter"/>
   </g>
   <g id="patch_168">
    <path d="M 386.510212 188.638125 
L 388.491742 188.638125 
L 388.491742 186.385 
L 386.510212 186.385 
z
" clip-path="url(#pa20a266b46)" style="fill: #4c72b0; fill-opacity: 0.5; stroke: #4c72b0; stroke-linejoin: miter"/>
   </g>
   <g id="patch_169">
    <path d="M 388.491742 188.638125 
L 390.473271 188.638125 
L 390.473271 186.464297 
L 388.491742 186.464297 
z
" clip-path="url(#pa20a266b46)" style="fill: #4c72b0; fill-opacity: 0.5; stroke: #4c72b0; stroke-linejoin: miter"/>
   </g>
   <g id="patch_170">
    <path d="M 390.473281 188.638125 
L 392.45481 188.638125 
L 392.45481 186.631094 
L 390.473281 186.631094 
z
" clip-path="url(#pa20a266b46)" style="fill: #4c72b0; fill-opacity: 0.5; stroke: #4c72b0; stroke-linejoin: miter"/>
   </g>
   <g id="patch_171">
    <path d="M 392.45481 188.638125 
L 394.43634 188.638125 
L 394.43634 186.652964 
L 392.45481 186.652964 
z
" clip-path="url(#pa20a266b46)" style="fill: #4c72b0; fill-opacity: 0.5; stroke: #4c72b0; stroke-linejoin: miter"/>
   </g>
   <g id="patch_172">
    <path d="M 394.43634 188.638125 
L 396.417869 188.638125 
L 396.417869 186.335781 
L 394.43634 186.335781 
z
" clip-path="url(#pa20a266b46)" style="fill: #4c72b0; fill-opacity: 0.5; stroke: #4c72b0; stroke-linejoin: miter"/>
   </g>
   <g id="patch_173">
    <path d="M 396.417879 188.638125 
L 398.399408 188.638125 
L 398.399408 183.770938 
L 396.417879 183.770938 
z
" clip-path="url(#pa20a266b46)" style="fill: #4c72b0; fill-opacity: 0.5; stroke: #4c72b0; stroke-linejoin: miter"/>
   </g>
   <g id="patch_174">
    <path d="M 398.399408 188.638125 
L 400.380958 188.638125 
L 400.380958 184.604932 
L 398.399408 184.604932 
z
" clip-path="url(#pa20a266b46)" style="fill: #4c72b0; fill-opacity: 0.5; stroke: #4c72b0; stroke-linejoin: miter"/>
   </g>
   <g id="patch_175">
    <path d="M 400.380948 188.638125 
L 402.362477 188.638125 
L 402.362477 166.391195 
L 400.380948 166.391195 
z
" clip-path="url(#pa20a266b46)" style="fill: #4c72b0; fill-opacity: 0.5; stroke: #4c72b0; stroke-linejoin: miter"/>
   </g>
   <g id="patch_176">
    <path d="M 402.362467 188.638125 
L 404.344016 188.638125 
L 404.344016 160.53429 
L 402.362467 160.53429 
z
" clip-path="url(#pa20a266b46)" style="fill: #4c72b0; fill-opacity: 0.5; stroke: #4c72b0; stroke-linejoin: miter"/>
   </g>
   <g id="patch_177">
    <path d="M 404.344016 188.638125 
L 406.325546 188.638125 
L 406.325546 168.27245 
L 404.344016 168.27245 
z
" clip-path="url(#pa20a266b46)" style="fill: #4c72b0; fill-opacity: 0.5; stroke: #4c72b0; stroke-linejoin: miter"/>
   </g>
   <g id="patch_178">
    <path d="M 406.325546 188.638125 
L 408.307075 188.638125 
L 408.307075 164.693144 
L 406.325546 164.693144 
z
" clip-path="url(#pa20a266b46)" style="fill: #4c72b0; fill-opacity: 0.5; stroke: #4c72b0; stroke-linejoin: miter"/>
   </g>
   <g id="patch_179">
    <path d="M 408.307075 188.638125 
L 410.288624 188.638125 
L 410.288624 155.470241 
L 408.307075 155.470241 
z
" clip-path="url(#pa20a266b46)" style="fill: #4c72b0; fill-opacity: 0.5; stroke: #4c72b0; stroke-linejoin: miter"/>
   </g>
   <g id="patch_180">
    <path d="M 410.288614 188.638125 
L 412.270144 188.638125 
L 412.270144 156.536483 
L 410.288614 156.536483 
z
" clip-path="url(#pa20a266b46)" style="fill: #4c72b0; fill-opacity: 0.5; stroke: #4c72b0; stroke-linejoin: miter"/>
   </g>
   <g id="patch_181">
    <path d="M 412.270134 188.638125 
L 414.251683 188.638125 
L 414.251683 165.158107 
L 412.270134 165.158107 
z
" clip-path="url(#pa20a266b46)" style="fill: #4c72b0; fill-opacity: 0.5; stroke: #4c72b0; stroke-linejoin: miter"/>
   </g>
   <g id="patch_182">
    <path d="M 414.251683 188.638125 
L 416.233212 188.638125 
L 416.233212 177.088097 
L 414.251683 177.088097 
z
" clip-path="url(#pa20a266b46)" style="fill: #4c72b0; fill-opacity: 0.5; stroke: #4c72b0; stroke-linejoin: miter"/>
   </g>
   <g id="patch_183">
    <path d="M 416.233212 188.638125 
L 418.214762 188.638125 
L 418.214762 174.394802 
L 416.233212 174.394802 
z
" clip-path="url(#pa20a266b46)" style="fill: #4c72b0; fill-opacity: 0.5; stroke: #4c72b0; stroke-linejoin: miter"/>
   </g>
   <g id="patch_184">
    <path d="M 418.214752 188.638125 
L 420.196281 188.638125 
L 420.196281 173.568947 
L 418.214752 173.568947 
z
" clip-path="url(#pa20a266b46)" style="fill: #4c72b0; fill-opacity: 0.5; stroke: #4c72b0; stroke-linejoin: miter"/>
   </g>
   <g id="patch_185">
    <path d="M 420.196271 188.638125 
L 422.17782 188.638125 
L 422.17782 174.074881 
L 420.196271 174.074881 
z
" clip-path="url(#pa20a266b46)" style="fill: #4c72b0; fill-opacity: 0.5; stroke: #4c72b0; stroke-linejoin: miter"/>
   </g>
   <g id="patch_186">
    <path d="M 422.17782 188.638125 
L 424.15935 188.638125 
L 424.15935 175.778328 
L 422.17782 175.778328 
z
" clip-path="url(#pa20a266b46)" style="fill: #4c72b0; fill-opacity: 0.5; stroke: #4c72b0; stroke-linejoin: miter"/>
   </g>
   <g id="patch_187">
    <path d="M 424.15935 188.638125 
L 426.140899 188.638125 
L 426.140899 177.678778 
L 424.15935 177.678778 
z
" clip-path="url(#pa20a266b46)" style="fill: #4c72b0; fill-opacity: 0.5; stroke: #4c72b0; stroke-linejoin: miter"/>
   </g>
   <g id="patch_188">
    <path d="M 426.140889 188.638125 
L 428.122418 188.638125 
L 428.122418 180.426777 
L 426.140889 180.426777 
z
" clip-path="url(#pa20a266b46)" style="fill: #4c72b0; fill-opacity: 0.5; stroke: #4c72b0; stroke-linejoin: miter"/>
   </g>
   <g id="patch_189">
    <path d="M 428.122408 188.638125 
L 430.103958 188.638125 
L 430.103958 184.306886 
L 428.122408 184.306886 
z
" clip-path="url(#pa20a266b46)" style="fill: #4c72b0; fill-opacity: 0.5; stroke: #4c72b0; stroke-linejoin: miter"/>
   </g>
   <g id="patch_190">
    <path d="M 430.103958 188.638125 
L 432.085487 188.638125 
L 432.085487 186.888121 
L 430.103958 186.888121 
z
" clip-path="url(#pa20a266b46)" style="fill: #4c72b0; fill-opacity: 0.5; stroke: #4c72b0; stroke-linejoin: miter"/>
   </g>
   <g id="patch_191">
    <path d="M 432.085487 188.638125 
L 434.067036 188.638125 
L 434.067036 186.499849 
L 432.085487 186.499849 
z
" clip-path="url(#pa20a266b46)" style="fill: #4c72b0; fill-opacity: 0.5; stroke: #4c72b0; stroke-linejoin: miter"/>
   </g>
   <g id="patch_192">
    <path d="M 434.067026 188.638125 
L 436.048556 188.638125 
L 436.048556 186.614683 
L 434.067026 186.614683 
z
" clip-path="url(#pa20a266b46)" style="fill: #4c72b0; fill-opacity: 0.5; stroke: #4c72b0; stroke-linejoin: miter"/>
   </g>
   <g id="patch_193">
    <path d="M 436.048546 188.638125 
L 438.030095 188.638125 
L 438.030095 186.56274 
L 436.048546 186.56274 
z
" clip-path="url(#pa20a266b46)" style="fill: #4c72b0; fill-opacity: 0.5; stroke: #4c72b0; stroke-linejoin: miter"/>
   </g>
   <g id="patch_194">
    <path d="M 438.030095 188.638125 
L 440.011624 188.638125 
L 440.011624 186.661167 
L 438.030095 186.661167 
z
" clip-path="url(#pa20a266b46)" style="fill: #4c72b0; fill-opacity: 0.5; stroke: #4c72b0; stroke-linejoin: miter"/>
   </g>
   <g id="patch_195">
    <path d="M 440.011624 188.638125 
L 441.993154 188.638125 
L 441.993154 186.69398 
L 440.011624 186.69398 
z
" clip-path="url(#pa20a266b46)" style="fill: #4c72b0; fill-opacity: 0.5; stroke: #4c72b0; stroke-linejoin: miter"/>
   </g>
   <g id="patch_196">
    <path d="M 441.993154 188.638125 
L 443.974703 188.638125 
L 443.974703 186.762349 
L 441.993154 186.762349 
z
" clip-path="url(#pa20a266b46)" style="fill: #4c72b0; fill-opacity: 0.5; stroke: #4c72b0; stroke-linejoin: miter"/>
   </g>
   <g id="patch_197">
    <path d="M 443.974693 188.638125 
L 445.956222 188.638125 
L 445.956222 186.986558 
L 443.974693 186.986558 
z
" clip-path="url(#pa20a266b46)" style="fill: #4c72b0; fill-opacity: 0.5; stroke: #4c72b0; stroke-linejoin: miter"/>
   </g>
   <g id="patch_198">
    <path d="M 445.956212 188.638125 
L 447.937762 188.638125 
L 447.937762 187.000239 
L 445.956212 187.000239 
z
" clip-path="url(#pa20a266b46)" style="fill: #4c72b0; fill-opacity: 0.5; stroke: #4c72b0; stroke-linejoin: miter"/>
   </g>
   <g id="patch_199">
    <path d="M 447.937762 188.638125 
L 449.919291 188.638125 
L 449.919291 187.325622 
L 447.937762 187.325622 
z
" clip-path="url(#pa20a266b46)" style="fill: #4c72b0; fill-opacity: 0.5; stroke: #4c72b0; stroke-linejoin: miter"/>
   </g>
   <g id="patch_200">
    <path d="M 449.919291 188.638125 
L 451.90084 188.638125 
L 451.90084 187.443206 
L 449.919291 187.443206 
z
" clip-path="url(#pa20a266b46)" style="fill: #4c72b0; fill-opacity: 0.5; stroke: #4c72b0; stroke-linejoin: miter"/>
   </g>
   <g id="patch_201">
    <path d="M 451.90083 188.638125 
L 453.88236 188.638125 
L 453.88236 187.541638 
L 451.90083 187.541638 
z
" clip-path="url(#pa20a266b46)" style="fill: #4c72b0; fill-opacity: 0.5; stroke: #4c72b0; stroke-linejoin: miter"/>
   </g>
   <g id="patch_202">
    <path d="M 453.88235 188.638125 
L 455.863899 188.638125 
L 455.863899 187.555315 
L 453.88235 187.555315 
z
" clip-path="url(#pa20a266b46)" style="fill: #4c72b0; fill-opacity: 0.5; stroke: #4c72b0; stroke-linejoin: miter"/>
   </g>
   <g id="patch_203">
    <path d="M 455.863899 188.638125 
L 457.845428 188.638125 
L 457.845428 187.609997 
L 455.863899 187.609997 
z
" clip-path="url(#pa20a266b46)" style="fill: #4c72b0; fill-opacity: 0.5; stroke: #4c72b0; stroke-linejoin: miter"/>
   </g>
   <g id="patch_204">
    <path d="M 457.845428 188.638125 
L 459.826977 188.638125 
L 459.826977 187.820549 
L 457.845428 187.820549 
z
" clip-path="url(#pa20a266b46)" style="fill: #4c72b0; fill-opacity: 0.5; stroke: #4c72b0; stroke-linejoin: miter"/>
   </g>
   <g id="patch_205">
    <path d="M 459.826968 188.638125 
L 461.808497 188.638125 
L 461.808497 187.943592 
L 459.826968 187.943592 
z
" clip-path="url(#pa20a266b46)" style="fill: #4c72b0; fill-opacity: 0.5; stroke: #4c72b0; stroke-linejoin: miter"/>
   </g>
   <g id="patch_206">
    <path d="M 461.808487 188.638125 
L 463.790036 188.638125 
L 463.790036 188.003752 
L 461.808487 188.003752 
z
" clip-path="url(#pa20a266b46)" style="fill: #4c72b0; fill-opacity: 0.5; stroke: #4c72b0; stroke-linejoin: miter"/>
   </g>
   <g id="patch_207">
    <path d="M 463.790036 188.638125 
L 465.771566 188.638125 
L 465.771566 188.039295 
L 463.790036 188.039295 
z
" clip-path="url(#pa20a266b46)" style="fill: #4c72b0; fill-opacity: 0.5; stroke: #4c72b0; stroke-linejoin: miter"/>
   </g>
   <g id="patch_208">
    <path d="M 465.771566 188.638125 
L 467.753115 188.638125 
L 467.753115 188.148673 
L 465.771566 188.148673 
z
" clip-path="url(#pa20a266b46)" style="fill: #4c72b0; fill-opacity: 0.5; stroke: #4c72b0; stroke-linejoin: miter"/>
   </g>
   <g id="patch_209">
    <path d="M 467.753105 188.638125 
L 469.734634 188.638125 
L 469.734634 188.230702 
L 467.753105 188.230702 
z
" clip-path="url(#pa20a266b46)" style="fill: #4c72b0; fill-opacity: 0.5; stroke: #4c72b0; stroke-linejoin: miter"/>
   </g>
   <g id="patch_210">
    <path d="M 469.734624 188.638125 
L 471.716173 188.638125 
L 471.716173 188.214298 
L 469.734624 188.214298 
z
" clip-path="url(#pa20a266b46)" style="fill: #4c72b0; fill-opacity: 0.5; stroke: #4c72b0; stroke-linejoin: miter"/>
   </g>
   <g id="patch_211">
    <path d="M 471.716173 188.638125 
L 473.697703 188.638125 
L 473.697703 188.244374 
L 471.716173 188.244374 
z
" clip-path="url(#pa20a266b46)" style="fill: #4c72b0; fill-opacity: 0.5; stroke: #4c72b0; stroke-linejoin: miter"/>
   </g>
   <g id="patch_212">
    <path d="M 473.697703 188.638125 
L 475.679232 188.638125 
L 475.679232 188.383827 
L 473.697703 188.383827 
z
" clip-path="url(#pa20a266b46)" style="fill: #4c72b0; fill-opacity: 0.5; stroke: #4c72b0; stroke-linejoin: miter"/>
   </g>
   <g id="patch_213">
    <path d="M 475.679232 188.638125 
L 477.660781 188.638125 
L 477.660781 188.370157 
L 475.679232 188.370157 
z
" clip-path="url(#pa20a266b46)" style="fill: #4c72b0; fill-opacity: 0.5; stroke: #4c72b0; stroke-linejoin: miter"/>
   </g>
   <g id="patch_214">
    <path d="M 477.660771 188.638125 
L 479.642301 188.638125 
L 479.642301 188.320937 
L 477.660771 188.320937 
z
" clip-path="url(#pa20a266b46)" style="fill: #4c72b0; fill-opacity: 0.5; stroke: #4c72b0; stroke-linejoin: miter"/>
   </g>
   <g id="patch_215">
    <path d="M 479.642291 188.638125 
L 481.62384 188.638125 
L 481.62384 188.427579 
L 479.642291 188.427579 
z
" clip-path="url(#pa20a266b46)" style="fill: #4c72b0; fill-opacity: 0.5; stroke: #4c72b0; stroke-linejoin: miter"/>
   </g>
   <g id="patch_216">
    <path d="M 481.62384 188.638125 
L 483.605369 188.638125 
L 483.605369 188.413906 
L 481.62384 188.413906 
z
" clip-path="url(#pa20a266b46)" style="fill: #4c72b0; fill-opacity: 0.5; stroke: #4c72b0; stroke-linejoin: miter"/>
   </g>
   <g id="patch_217">
    <path d="M 483.60535 188.638125 
L 485.586879 188.638125 
L 485.586879 188.493203 
L 483.60535 188.493203 
z
" clip-path="url(#pa20a266b46)" style="fill: #4c72b0; fill-opacity: 0.5; stroke: #4c72b0; stroke-linejoin: miter"/>
   </g>
   <g id="patch_218">
    <path d="M 485.586899 188.638125 
L 487.568448 188.638125 
L 487.568448 188.44672 
L 485.586899 188.44672 
z
" clip-path="url(#pa20a266b46)" style="fill: #4c72b0; fill-opacity: 0.5; stroke: #4c72b0; stroke-linejoin: miter"/>
   </g>
   <g id="patch_219">
    <path d="M 487.568448 188.638125 
L 489.549977 188.638125 
L 489.549977 188.498672 
L 487.568448 188.498672 
z
" clip-path="url(#pa20a266b46)" style="fill: #4c72b0; fill-opacity: 0.5; stroke: #4c72b0; stroke-linejoin: miter"/>
   </g>
   <g id="patch_220">
    <path d="M 489.549958 188.638125 
L 491.531487 188.638125 
L 491.531487 188.52875 
L 489.549958 188.52875 
z
" clip-path="url(#pa20a266b46)" style="fill: #4c72b0; fill-opacity: 0.5; stroke: #4c72b0; stroke-linejoin: miter"/>
   </g>
   <g id="patch_221">
    <path d="M 491.531507 188.638125 
L 493.513036 188.638125 
L 493.513036 188.545156 
L 491.531507 188.545156 
z
" clip-path="url(#pa20a266b46)" style="fill: #4c72b0; fill-opacity: 0.5; stroke: #4c72b0; stroke-linejoin: miter"/>
   </g>
   <g id="patch_222">
    <path d="M 493.513036 188.638125 
L 495.494585 188.638125 
L 495.494585 188.556094 
L 493.513036 188.556094 
z
" clip-path="url(#pa20a266b46)" style="fill: #4c72b0; fill-opacity: 0.5; stroke: #4c72b0; stroke-linejoin: miter"/>
   </g>
   <g id="patch_223">
    <path d="M 495.494565 188.638125 
L 497.476095 188.638125 
L 497.476095 188.52875 
L 495.494565 188.52875 
z
" clip-path="url(#pa20a266b46)" style="fill: #4c72b0; fill-opacity: 0.5; stroke: #4c72b0; stroke-linejoin: miter"/>
   </g>
   <g id="patch_224">
    <path d="M 497.476115 188.638125 
L 499.457644 188.638125 
L 499.457644 188.556094 
L 497.476115 188.556094 
z
" clip-path="url(#pa20a266b46)" style="fill: #4c72b0; fill-opacity: 0.5; stroke: #4c72b0; stroke-linejoin: miter"/>
   </g>
   <g id="patch_225">
    <path d="M 499.457624 188.638125 
L 501.439154 188.638125 
L 501.439154 188.569765 
L 499.457624 188.569765 
z
" clip-path="url(#pa20a266b46)" style="fill: #4c72b0; fill-opacity: 0.5; stroke: #4c72b0; stroke-linejoin: miter"/>
   </g>
   <g id="patch_226">
    <path d="M 501.439173 188.638125 
L 503.420723 188.638125 
L 503.420723 188.567032 
L 501.439173 188.567032 
z
" clip-path="url(#pa20a266b46)" style="fill: #4c72b0; fill-opacity: 0.5; stroke: #4c72b0; stroke-linejoin: miter"/>
   </g>
   <g id="patch_227">
    <path d="M 503.420723 188.638125 
L 505.402252 188.638125 
L 505.402252 188.558828 
L 503.420723 188.558828 
z
" clip-path="url(#pa20a266b46)" style="fill: #4c72b0; fill-opacity: 0.5; stroke: #4c72b0; stroke-linejoin: miter"/>
   </g>
   <g id="patch_228">
    <path d="M 505.402232 188.638125 
L 507.383761 188.638125 
L 507.383761 188.580703 
L 505.402232 188.580703 
z
" clip-path="url(#pa20a266b46)" style="fill: #4c72b0; fill-opacity: 0.5; stroke: #4c72b0; stroke-linejoin: miter"/>
   </g>
   <g id="patch_229">
    <path d="M 507.383781 188.638125 
L 509.365311 188.638125 
L 509.365311 188.588906 
L 507.383781 188.588906 
z
" clip-path="url(#pa20a266b46)" style="fill: #4c72b0; fill-opacity: 0.5; stroke: #4c72b0; stroke-linejoin: miter"/>
   </g>
   <g id="patch_230">
    <path d="M 509.365291 188.638125 
L 511.34682 188.638125 
L 511.34682 188.583437 
L 509.365291 188.583437 
z
" clip-path="url(#pa20a266b46)" style="fill: #4c72b0; fill-opacity: 0.5; stroke: #4c72b0; stroke-linejoin: miter"/>
   </g>
   <g id="patch_231">
    <path d="M 511.34684 188.638125 
L 513.328389 188.638125 
L 513.328389 188.594375 
L 511.34684 188.594375 
z
" clip-path="url(#pa20a266b46)" style="fill: #4c72b0; fill-opacity: 0.5; stroke: #4c72b0; stroke-linejoin: miter"/>
   </g>
   <g id="patch_232">
    <path d="M 513.328389 188.638125 
L 515.309919 188.638125 
L 515.309919 188.586172 
L 513.328389 188.586172 
z
" clip-path="url(#pa20a266b46)" style="fill: #4c72b0; fill-opacity: 0.5; stroke: #4c72b0; stroke-linejoin: miter"/>
   </g>
   <g id="patch_233">
    <path d="M 515.309899 188.638125 
L 517.291428 188.638125 
L 517.291428 188.605312 
L 515.309899 188.605312 
z
" clip-path="url(#pa20a266b46)" style="fill: #4c72b0; fill-opacity: 0.5; stroke: #4c72b0; stroke-linejoin: miter"/>
   </g>
   <g id="patch_234">
    <path d="M 517.291448 188.638125 
L 519.272977 188.638125 
L 519.272977 188.624453 
L 517.291448 188.624453 
z
" clip-path="url(#pa20a266b46)" style="fill: #4c72b0; fill-opacity: 0.5; stroke: #4c72b0; stroke-linejoin: miter"/>
   </g>
   <g id="patch_235">
    <path d="M 519.272977 188.638125 
L 521.254527 188.638125 
L 521.254527 188.599844 
L 519.272977 188.599844 
z
" clip-path="url(#pa20a266b46)" style="fill: #4c72b0; fill-opacity: 0.5; stroke: #4c72b0; stroke-linejoin: miter"/>
   </g>
   <g id="patch_236">
    <path d="M 521.254507 188.638125 
L 523.236036 188.638125 
L 523.236036 188.610781 
L 521.254507 188.610781 
z
" clip-path="url(#pa20a266b46)" style="fill: #4c72b0; fill-opacity: 0.5; stroke: #4c72b0; stroke-linejoin: miter"/>
   </g>
   <g id="patch_237">
    <path d="M 523.236056 188.638125 
L 525.217585 188.638125 
L 525.217585 188.618984 
L 523.236056 188.618984 
z
" clip-path="url(#pa20a266b46)" style="fill: #4c72b0; fill-opacity: 0.5; stroke: #4c72b0; stroke-linejoin: miter"/>
   </g>
   <g id="patch_238">
    <path d="M 525.217565 188.638125 
L 527.199095 188.638125 
L 527.199095 188.618984 
L 525.217565 188.618984 
z
" clip-path="url(#pa20a266b46)" style="fill: #4c72b0; fill-opacity: 0.5; stroke: #4c72b0; stroke-linejoin: miter"/>
   </g>
   <g id="patch_239">
    <path d="M 527.199115 188.638125 
L 529.180664 188.638125 
L 529.180664 188.61625 
L 527.199115 188.61625 
z
" clip-path="url(#pa20a266b46)" style="fill: #4c72b0; fill-opacity: 0.5; stroke: #4c72b0; stroke-linejoin: miter"/>
   </g>
   <g id="patch_240">
    <path d="M 529.180664 188.638125 
L 531.162193 188.638125 
L 531.162193 188.618984 
L 529.180664 188.618984 
z
" clip-path="url(#pa20a266b46)" style="fill: #4c72b0; fill-opacity: 0.5; stroke: #4c72b0; stroke-linejoin: miter"/>
   </g>
   <g id="patch_241">
    <path d="M 531.162173 188.638125 
L 533.143703 188.638125 
L 533.143703 188.621719 
L 531.162173 188.621719 
z
" clip-path="url(#pa20a266b46)" style="fill: #4c72b0; fill-opacity: 0.5; stroke: #4c72b0; stroke-linejoin: miter"/>
   </g>
   <g id="patch_242">
    <path d="M 533.143723 188.638125 
L 535.125252 188.638125 
L 535.125252 188.621719 
L 533.143723 188.621719 
z
" clip-path="url(#pa20a266b46)" style="fill: #4c72b0; fill-opacity: 0.5; stroke: #4c72b0; stroke-linejoin: miter"/>
   </g>
   <g id="patch_243">
    <path d="M 535.125232 188.638125 
L 537.106761 188.638125 
L 537.106761 188.621719 
L 535.125232 188.621719 
z
" clip-path="url(#pa20a266b46)" style="fill: #4c72b0; fill-opacity: 0.5; stroke: #4c72b0; stroke-linejoin: miter"/>
   </g>
   <g id="patch_244">
    <path d="M 537.106781 188.638125 
L 539.088331 188.638125 
L 539.088331 188.629922 
L 537.106781 188.629922 
z
" clip-path="url(#pa20a266b46)" style="fill: #4c72b0; fill-opacity: 0.5; stroke: #4c72b0; stroke-linejoin: miter"/>
   </g>
   <g id="patch_245">
    <path d="M 539.088331 188.638125 
L 541.06986 188.638125 
L 541.06986 188.632656 
L 539.088331 188.632656 
z
" clip-path="url(#pa20a266b46)" style="fill: #4c72b0; fill-opacity: 0.5; stroke: #4c72b0; stroke-linejoin: miter"/>
   </g>
   <g id="patch_246">
    <path d="M 541.06984 188.638125 
L 543.051369 188.638125 
L 543.051369 188.627187 
L 541.06984 188.627187 
z
" clip-path="url(#pa20a266b46)" style="fill: #4c72b0; fill-opacity: 0.5; stroke: #4c72b0; stroke-linejoin: miter"/>
   </g>
   <g id="patch_247">
    <path d="M 543.051389 188.638125 
L 545.032919 188.638125 
L 545.032919 188.635391 
L 543.051389 188.635391 
z
" clip-path="url(#pa20a266b46)" style="fill: #4c72b0; fill-opacity: 0.5; stroke: #4c72b0; stroke-linejoin: miter"/>
   </g>
   <g id="patch_248">
    <path d="M 545.032919 188.638125 
L 547.014468 188.638125 
L 547.014468 188.629922 
L 545.032919 188.629922 
z
" clip-path="url(#pa20a266b46)" style="fill: #4c72b0; fill-opacity: 0.5; stroke: #4c72b0; stroke-linejoin: miter"/>
   </g>
   <g id="patch_249">
    <path d="M 547.014448 188.638125 
L 548.995977 188.638125 
L 548.995977 188.627187 
L 547.014448 188.627187 
z
" clip-path="url(#pa20a266b46)" style="fill: #4c72b0; fill-opacity: 0.5; stroke: #4c72b0; stroke-linejoin: miter"/>
   </g>
   <g id="patch_250">
    <path d="M 548.995997 188.638125 
L 550.977527 188.638125 
L 550.977527 188.632656 
L 548.995997 188.632656 
z
" clip-path="url(#pa20a266b46)" style="fill: #4c72b0; fill-opacity: 0.5; stroke: #4c72b0; stroke-linejoin: miter"/>
   </g>
   <g id="patch_251">
    <path d="M 550.977507 188.638125 
L 552.959036 188.638125 
L 552.959036 188.635391 
L 550.977507 188.635391 
z
" clip-path="url(#pa20a266b46)" style="fill: #4c72b0; fill-opacity: 0.5; stroke: #4c72b0; stroke-linejoin: miter"/>
   </g>
   <g id="patch_252">
    <path d="M 552.959056 188.638125 
L 554.940605 188.638125 
L 554.940605 188.635391 
L 552.959056 188.635391 
z
" clip-path="url(#pa20a266b46)" style="fill: #4c72b0; fill-opacity: 0.5; stroke: #4c72b0; stroke-linejoin: miter"/>
   </g>
   <g id="patch_253">
    <path d="M 554.940605 188.638125 
L 556.922134 188.638125 
L 556.922134 188.629922 
L 554.940605 188.629922 
z
" clip-path="url(#pa20a266b46)" style="fill: #4c72b0; fill-opacity: 0.5; stroke: #4c72b0; stroke-linejoin: miter"/>
   </g>
   <g id="patch_254">
    <path d="M 556.922115 188.638125 
L 558.903644 188.638125 
L 558.903644 188.638125 
L 556.922115 188.638125 
z
" clip-path="url(#pa20a266b46)" style="fill: #4c72b0; fill-opacity: 0.5; stroke: #4c72b0; stroke-linejoin: miter"/>
   </g>
   <g id="patch_255">
    <path d="M 558.903664 188.638125 
L 560.885193 188.638125 
L 560.885193 188.629922 
L 558.903664 188.629922 
z
" clip-path="url(#pa20a266b46)" style="fill: #4c72b0; fill-opacity: 0.5; stroke: #4c72b0; stroke-linejoin: miter"/>
   </g>
   <g id="patch_256">
    <path d="M 560.885193 188.638125 
L 562.866742 188.638125 
L 562.866742 188.635391 
L 560.885193 188.635391 
z
" clip-path="url(#pa20a266b46)" style="fill: #4c72b0; fill-opacity: 0.5; stroke: #4c72b0; stroke-linejoin: miter"/>
   </g>
   <g id="patch_257">
    <path d="M 562.866723 188.638125 
L 564.848252 188.638125 
L 564.848252 188.629922 
L 562.866723 188.629922 
z
" clip-path="url(#pa20a266b46)" style="fill: #4c72b0; fill-opacity: 0.5; stroke: #4c72b0; stroke-linejoin: miter"/>
   </g>
   <g id="patch_258">
    <path d="M 564.848272 188.638125 
L 566.829801 188.638125 
L 566.829801 188.635391 
L 564.848272 188.635391 
z
" clip-path="url(#pa20a266b46)" style="fill: #4c72b0; fill-opacity: 0.5; stroke: #4c72b0; stroke-linejoin: miter"/>
   </g>
   <g id="patch_259">
    <path d="M 34.193438 188.638125 
L 34.193438 22.318125 
" style="fill: none; stroke: #ffffff; stroke-width: 1.25; stroke-linejoin: miter; stroke-linecap: square"/>
   </g>
   <g id="patch_260">
    <path d="M 592.193437 188.638125 
L 592.193437 22.318125 
" style="fill: none; stroke: #ffffff; stroke-width: 1.25; stroke-linejoin: miter; stroke-linecap: square"/>
   </g>
   <g id="patch_261">
    <path d="M 34.193438 188.638125 
L 592.193438 188.638125 
" style="fill: none; stroke: #ffffff; stroke-width: 1.25; stroke-linejoin: miter; stroke-linecap: square"/>
   </g>
   <g id="patch_262">
    <path d="M 34.193438 22.318125 
L 592.193438 22.318125 
" style="fill: none; stroke: #ffffff; stroke-width: 1.25; stroke-linejoin: miter; stroke-linecap: square"/>
   </g>
   <g id="text_10">
    <!-- Variational dequantization -->
    <g style="fill: #262626" transform="translate(234.39375 16.318125)scale(0.12 -0.12)">
     <defs>
      <path id="DejaVuSans-56" d="M 1831 0 
L 50 4666 
L 709 4666 
L 2188 738 
L 3669 4666 
L 4325 4666 
L 2547 0 
L 1831 0 
z
" transform="scale(0.015625)"/>
      <path id="DejaVuSans-61" d="M 2194 1759 
Q 1497 1759 1228 1600 
Q 959 1441 959 1056 
Q 959 750 1161 570 
Q 1363 391 1709 391 
Q 2188 391 2477 730 
Q 2766 1069 2766 1631 
L 2766 1759 
L 2194 1759 
z
M 3341 1997 
L 3341 0 
L 2766 0 
L 2766 531 
Q 2569 213 2275 61 
Q 1981 -91 1556 -91 
Q 1019 -91 701 211 
Q 384 513 384 1019 
Q 384 1609 779 1909 
Q 1175 2209 1959 2209 
L 2766 2209 
L 2766 2266 
Q 2766 2663 2505 2880 
Q 2244 3097 1772 3097 
Q 1472 3097 1187 3025 
Q 903 2953 641 2809 
L 641 3341 
Q 956 3463 1253 3523 
Q 1550 3584 1831 3584 
Q 2591 3584 2966 3190 
Q 3341 2797 3341 1997 
z
" transform="scale(0.015625)"/>
      <path id="DejaVuSans-72" d="M 2631 2963 
Q 2534 3019 2420 3045 
Q 2306 3072 2169 3072 
Q 1681 3072 1420 2755 
Q 1159 2438 1159 1844 
L 1159 0 
L 581 0 
L 581 3500 
L 1159 3500 
L 1159 2956 
Q 1341 3275 1631 3429 
Q 1922 3584 2338 3584 
Q 2397 3584 2469 3576 
Q 2541 3569 2628 3553 
L 2631 2963 
z
" transform="scale(0.015625)"/>
      <path id="DejaVuSans-69" d="M 603 3500 
L 1178 3500 
L 1178 0 
L 603 0 
L 603 3500 
z
M 603 4863 
L 1178 4863 
L 1178 4134 
L 603 4134 
L 603 4863 
z
" transform="scale(0.015625)"/>
      <path id="DejaVuSans-74" d="M 1172 4494 
L 1172 3500 
L 2356 3500 
L 2356 3053 
L 1172 3053 
L 1172 1153 
Q 1172 725 1289 603 
Q 1406 481 1766 481 
L 2356 481 
L 2356 0 
L 1766 0 
Q 1100 0 847 248 
Q 594 497 594 1153 
L 594 3053 
L 172 3053 
L 172 3500 
L 594 3500 
L 594 4494 
L 1172 4494 
z
" transform="scale(0.015625)"/>
      <path id="DejaVuSans-6f" d="M 1959 3097 
Q 1497 3097 1228 2736 
Q 959 2375 959 1747 
Q 959 1119 1226 758 
Q 1494 397 1959 397 
Q 2419 397 2687 759 
Q 2956 1122 2956 1747 
Q 2956 2369 2687 2733 
Q 2419 3097 1959 3097 
z
M 1959 3584 
Q 2709 3584 3137 3096 
Q 3566 2609 3566 1747 
Q 3566 888 3137 398 
Q 2709 -91 1959 -91 
Q 1206 -91 779 398 
Q 353 888 353 1747 
Q 353 2609 779 3096 
Q 1206 3584 1959 3584 
z
" transform="scale(0.015625)"/>
      <path id="DejaVuSans-6e" d="M 3513 2113 
L 3513 0 
L 2938 0 
L 2938 2094 
Q 2938 2591 2744 2837 
Q 2550 3084 2163 3084 
Q 1697 3084 1428 2787 
Q 1159 2491 1159 1978 
L 1159 0 
L 581 0 
L 581 3500 
L 1159 3500 
L 1159 2956 
Q 1366 3272 1645 3428 
Q 1925 3584 2291 3584 
Q 2894 3584 3203 3211 
Q 3513 2838 3513 2113 
z
" transform="scale(0.015625)"/>
      <path id="DejaVuSans-6c" d="M 603 4863 
L 1178 4863 
L 1178 0 
L 603 0 
L 603 4863 
z
" transform="scale(0.015625)"/>
      <path id="DejaVuSans-20" transform="scale(0.015625)"/>
      <path id="DejaVuSans-64" d="M 2906 2969 
L 2906 4863 
L 3481 4863 
L 3481 0 
L 2906 0 
L 2906 525 
Q 2725 213 2448 61 
Q 2172 -91 1784 -91 
Q 1150 -91 751 415 
Q 353 922 353 1747 
Q 353 2572 751 3078 
Q 1150 3584 1784 3584 
Q 2172 3584 2448 3432 
Q 2725 3281 2906 2969 
z
M 947 1747 
Q 947 1113 1208 752 
Q 1469 391 1925 391 
Q 2381 391 2643 752 
Q 2906 1113 2906 1747 
Q 2906 2381 2643 2742 
Q 2381 3103 1925 3103 
Q 1469 3103 1208 2742 
Q 947 2381 947 1747 
z
" transform="scale(0.015625)"/>
      <path id="DejaVuSans-65" d="M 3597 1894 
L 3597 1613 
L 953 1613 
Q 991 1019 1311 708 
Q 1631 397 2203 397 
Q 2534 397 2845 478 
Q 3156 559 3463 722 
L 3463 178 
Q 3153 47 2828 -22 
Q 2503 -91 2169 -91 
Q 1331 -91 842 396 
Q 353 884 353 1716 
Q 353 2575 817 3079 
Q 1281 3584 2069 3584 
Q 2775 3584 3186 3129 
Q 3597 2675 3597 1894 
z
M 3022 2063 
Q 3016 2534 2758 2815 
Q 2500 3097 2075 3097 
Q 1594 3097 1305 2825 
Q 1016 2553 972 2059 
L 3022 2063 
z
" transform="scale(0.015625)"/>
      <path id="DejaVuSans-71" d="M 947 1747 
Q 947 1113 1208 752 
Q 1469 391 1925 391 
Q 2381 391 2643 752 
Q 2906 1113 2906 1747 
Q 2906 2381 2643 2742 
Q 2381 3103 1925 3103 
Q 1469 3103 1208 2742 
Q 947 2381 947 1747 
z
M 2906 525 
Q 2725 213 2448 61 
Q 2172 -91 1784 -91 
Q 1150 -91 751 415 
Q 353 922 353 1747 
Q 353 2572 751 3078 
Q 1150 3584 1784 3584 
Q 2172 3584 2448 3432 
Q 2725 3281 2906 2969 
L 2906 3500 
L 3481 3500 
L 3481 -1331 
L 2906 -1331 
L 2906 525 
z
" transform="scale(0.015625)"/>
      <path id="DejaVuSans-75" d="M 544 1381 
L 544 3500 
L 1119 3500 
L 1119 1403 
Q 1119 906 1312 657 
Q 1506 409 1894 409 
Q 2359 409 2629 706 
Q 2900 1003 2900 1516 
L 2900 3500 
L 3475 3500 
L 3475 0 
L 2900 0 
L 2900 538 
Q 2691 219 2414 64 
Q 2138 -91 1772 -91 
Q 1169 -91 856 284 
Q 544 659 544 1381 
z
M 1991 3584 
L 1991 3584 
z
" transform="scale(0.015625)"/>
      <path id="DejaVuSans-7a" d="M 353 3500 
L 3084 3500 
L 3084 2975 
L 922 459 
L 3084 459 
L 3084 0 
L 275 0 
L 275 525 
L 2438 3041 
L 353 3041 
L 353 3500 
z
" transform="scale(0.015625)"/>
     </defs>
     <use xlink:href="#DejaVuSans-56"/>
     <use xlink:href="#DejaVuSans-61" x="60.658203"/>
     <use xlink:href="#DejaVuSans-72" x="121.9375"/>
     <use xlink:href="#DejaVuSans-69" x="163.050781"/>
     <use xlink:href="#DejaVuSans-61" x="190.833984"/>
     <use xlink:href="#DejaVuSans-74" x="252.113281"/>
     <use xlink:href="#DejaVuSans-69" x="291.322266"/>
     <use xlink:href="#DejaVuSans-6f" x="319.105469"/>
     <use xlink:href="#DejaVuSans-6e" x="380.287109"/>
     <use xlink:href="#DejaVuSans-61" x="443.666016"/>
     <use xlink:href="#DejaVuSans-6c" x="504.945312"/>
     <use xlink:href="#DejaVuSans-20" x="532.728516"/>
     <use xlink:href="#DejaVuSans-64" x="564.515625"/>
     <use xlink:href="#DejaVuSans-65" x="627.992188"/>
     <use xlink:href="#DejaVuSans-71" x="689.515625"/>
     <use xlink:href="#DejaVuSans-75" x="752.992188"/>
     <use xlink:href="#DejaVuSans-61" x="816.371094"/>
     <use xlink:href="#DejaVuSans-6e" x="877.650391"/>
     <use xlink:href="#DejaVuSans-74" x="941.029297"/>
     <use xlink:href="#DejaVuSans-69" x="980.238281"/>
     <use xlink:href="#DejaVuSans-7a" x="1008.021484"/>
     <use xlink:href="#DejaVuSans-61" x="1060.511719"/>
     <use xlink:href="#DejaVuSans-74" x="1121.791016"/>
     <use xlink:href="#DejaVuSans-69" x="1161"/>
     <use xlink:href="#DejaVuSans-6f" x="1188.783203"/>
     <use xlink:href="#DejaVuSans-6e" x="1249.964844"/>
    </g>
   </g>
  </g>
 </g>
 <defs>
  <clipPath id="pa20a266b46">
   <rect x="34.193438" y="22.318125" width="558" height="166.32"/>
  </clipPath>
 </defs>
</svg>
