<?xml version="1.0" encoding="utf-8" standalone="no"?>
<!DOCTYPE svg PUBLIC "-//W3C//DTD SVG 1.1//EN"
  "http://www.w3.org/Graphics/SVG/1.1/DTD/svg11.dtd">
<svg height="701.984062pt" version="1.1" viewBox="0 0 486.516406 701.984062" width="486.516406pt" xmlns="http://www.w3.org/2000/svg" xmlns:xlink="http://www.w3.org/1999/xlink">
 <metadata>
  <rdf:RDF xmlns:cc="http://creativecommons.org/ns#" xmlns:dc="http://purl.org/dc/elements/1.1/" xmlns:rdf="http://www.w3.org/1999/02/22-rdf-syntax-ns#">
   <cc:Work>
    <dc:type rdf:resource="http://purl.org/dc/dcmitype/StillImage"/>
    <dc:date>2021-09-16T14:33:19.790904</dc:date>
    <dc:format>image/svg+xml</dc:format>
    <dc:creator>
     <cc:Agent>
      <dc:title>Matplotlib v3.4.3, https://matplotlib.org/</dc:title>
     </cc:Agent>
    </dc:creator>
   </cc:Work>
  </rdf:RDF>
 </metadata>
 <defs>
  <style type="text/css">*{stroke-linecap:butt;stroke-linejoin:round;}</style>
 </defs>
 <g id="figure_1">
  <g id="patch_1">
   <path d="M 0 701.984062 
L 486.516406 701.984062 
L 486.516406 -0 
L 0 -0 
z
" style="fill:#ffffff;"/>
  </g>
  <g id="axes_1">
   <g id="patch_2">
    <path d="M 32.916406 203.518125 
L 235.825497 203.518125 
L 235.825497 22.318125 
L 32.916406 22.318125 
z
" style="fill:#eaeaf2;"/>
   </g>
   <g id="matplotlib.axis_1">
    <g id="xtick_1">
     <g id="line2d_1">
      <path clip-path="url(#p26f8441500)" d="M 60.585828 203.518125 
L 60.585828 22.318125 
" style="fill:none;stroke:#ffffff;stroke-linecap:round;"/>
     </g>
     <g id="text_1">
      <!-- −4 -->
      <g style="fill:#262626;" transform="translate(52.477625 221.376406)scale(0.11 -0.11)">
       <defs>
        <path d="M 678 2272 
L 4684 2272 
L 4684 1741 
L 678 1741 
L 678 2272 
z
" id="DejaVuSans-2212" transform="scale(0.015625)"/>
        <path d="M 2419 4116 
L 825 1625 
L 2419 1625 
L 2419 4116 
z
M 2253 4666 
L 3047 4666 
L 3047 1625 
L 3713 1625 
L 3713 1100 
L 3047 1100 
L 3047 0 
L 2419 0 
L 2419 1100 
L 313 1100 
L 313 1709 
L 2253 4666 
z
" id="DejaVuSans-34" transform="scale(0.015625)"/>
       </defs>
       <use xlink:href="#DejaVuSans-2212"/>
       <use x="83.789062" xlink:href="#DejaVuSans-34"/>
      </g>
     </g>
    </g>
    <g id="xtick_2">
     <g id="line2d_2">
      <path clip-path="url(#p26f8441500)" d="M 97.47839 203.518125 
L 97.47839 22.318125 
" style="fill:none;stroke:#ffffff;stroke-linecap:round;"/>
     </g>
     <g id="text_2">
      <!-- −2 -->
      <g style="fill:#262626;" transform="translate(89.370187 221.376406)scale(0.11 -0.11)">
       <defs>
        <path d="M 1228 531 
L 3431 531 
L 3431 0 
L 469 0 
L 469 531 
Q 828 903 1448 1529 
Q 2069 2156 2228 2338 
Q 2531 2678 2651 2914 
Q 2772 3150 2772 3378 
Q 2772 3750 2511 3984 
Q 2250 4219 1831 4219 
Q 1534 4219 1204 4116 
Q 875 4013 500 3803 
L 500 4441 
Q 881 4594 1212 4672 
Q 1544 4750 1819 4750 
Q 2544 4750 2975 4387 
Q 3406 4025 3406 3419 
Q 3406 3131 3298 2873 
Q 3191 2616 2906 2266 
Q 2828 2175 2409 1742 
Q 1991 1309 1228 531 
z
" id="DejaVuSans-32" transform="scale(0.015625)"/>
       </defs>
       <use xlink:href="#DejaVuSans-2212"/>
       <use x="83.789062" xlink:href="#DejaVuSans-32"/>
      </g>
     </g>
    </g>
    <g id="xtick_3">
     <g id="line2d_3">
      <path clip-path="url(#p26f8441500)" d="M 134.370952 203.518125 
L 134.370952 22.318125 
" style="fill:none;stroke:#ffffff;stroke-linecap:round;"/>
     </g>
     <g id="text_3">
      <!-- 0 -->
      <g style="fill:#262626;" transform="translate(130.871577 221.376406)scale(0.11 -0.11)">
       <defs>
        <path d="M 2034 4250 
Q 1547 4250 1301 3770 
Q 1056 3291 1056 2328 
Q 1056 1369 1301 889 
Q 1547 409 2034 409 
Q 2525 409 2770 889 
Q 3016 1369 3016 2328 
Q 3016 3291 2770 3770 
Q 2525 4250 2034 4250 
z
M 2034 4750 
Q 2819 4750 3233 4129 
Q 3647 3509 3647 2328 
Q 3647 1150 3233 529 
Q 2819 -91 2034 -91 
Q 1250 -91 836 529 
Q 422 1150 422 2328 
Q 422 3509 836 4129 
Q 1250 4750 2034 4750 
z
" id="DejaVuSans-30" transform="scale(0.015625)"/>
       </defs>
       <use xlink:href="#DejaVuSans-30"/>
      </g>
     </g>
    </g>
    <g id="xtick_4">
     <g id="line2d_4">
      <path clip-path="url(#p26f8441500)" d="M 171.263514 203.518125 
L 171.263514 22.318125 
" style="fill:none;stroke:#ffffff;stroke-linecap:round;"/>
     </g>
     <g id="text_4">
      <!-- 2 -->
      <g style="fill:#262626;" transform="translate(167.764139 221.376406)scale(0.11 -0.11)">
       <use xlink:href="#DejaVuSans-32"/>
      </g>
     </g>
    </g>
    <g id="xtick_5">
     <g id="line2d_5">
      <path clip-path="url(#p26f8441500)" d="M 208.156076 203.518125 
L 208.156076 22.318125 
" style="fill:none;stroke:#ffffff;stroke-linecap:round;"/>
     </g>
     <g id="text_5">
      <!-- 4 -->
      <g style="fill:#262626;" transform="translate(204.656701 221.376406)scale(0.11 -0.11)">
       <use xlink:href="#DejaVuSans-34"/>
      </g>
     </g>
    </g>
   </g>
   <g id="matplotlib.axis_2">
    <g id="ytick_1">
     <g id="line2d_6">
      <path clip-path="url(#p26f8441500)" d="M 32.916406 189.579663 
L 235.825497 189.579663 
" style="fill:none;stroke:#ffffff;stroke-linecap:round;"/>
     </g>
     <g id="text_6">
      <!-- −1 -->
      <g style="fill:#262626;" transform="translate(7.2 193.758804)scale(0.11 -0.11)">
       <defs>
        <path d="M 794 531 
L 1825 531 
L 1825 4091 
L 703 3866 
L 703 4441 
L 1819 4666 
L 2450 4666 
L 2450 531 
L 3481 531 
L 3481 0 
L 794 0 
L 794 531 
z
" id="DejaVuSans-31" transform="scale(0.015625)"/>
       </defs>
       <use xlink:href="#DejaVuSans-2212"/>
       <use x="83.789062" xlink:href="#DejaVuSans-31"/>
      </g>
     </g>
    </g>
    <g id="ytick_2">
     <g id="line2d_7">
      <path clip-path="url(#p26f8441500)" d="M 32.916406 161.70274 
L 235.825497 161.70274 
" style="fill:none;stroke:#ffffff;stroke-linecap:round;"/>
     </g>
     <g id="text_7">
      <!-- 0 -->
      <g style="fill:#262626;" transform="translate(16.417656 165.881881)scale(0.11 -0.11)">
       <use xlink:href="#DejaVuSans-30"/>
      </g>
     </g>
    </g>
    <g id="ytick_3">
     <g id="line2d_8">
      <path clip-path="url(#p26f8441500)" d="M 32.916406 133.825817 
L 235.825497 133.825817 
" style="fill:none;stroke:#ffffff;stroke-linecap:round;"/>
     </g>
     <g id="text_8">
      <!-- 1 -->
      <g style="fill:#262626;" transform="translate(16.417656 138.004958)scale(0.11 -0.11)">
       <use xlink:href="#DejaVuSans-31"/>
      </g>
     </g>
    </g>
    <g id="ytick_4">
     <g id="line2d_9">
      <path clip-path="url(#p26f8441500)" d="M 32.916406 105.948894 
L 235.825497 105.948894 
" style="fill:none;stroke:#ffffff;stroke-linecap:round;"/>
     </g>
     <g id="text_9">
      <!-- 2 -->
      <g style="fill:#262626;" transform="translate(16.417656 110.128035)scale(0.11 -0.11)">
       <use xlink:href="#DejaVuSans-32"/>
      </g>
     </g>
    </g>
    <g id="ytick_5">
     <g id="line2d_10">
      <path clip-path="url(#p26f8441500)" d="M 32.916406 78.071971 
L 235.825497 78.071971 
" style="fill:none;stroke:#ffffff;stroke-linecap:round;"/>
     </g>
     <g id="text_10">
      <!-- 3 -->
      <g style="fill:#262626;" transform="translate(16.417656 82.251112)scale(0.11 -0.11)">
       <defs>
        <path d="M 2597 2516 
Q 3050 2419 3304 2112 
Q 3559 1806 3559 1356 
Q 3559 666 3084 287 
Q 2609 -91 1734 -91 
Q 1441 -91 1130 -33 
Q 819 25 488 141 
L 488 750 
Q 750 597 1062 519 
Q 1375 441 1716 441 
Q 2309 441 2620 675 
Q 2931 909 2931 1356 
Q 2931 1769 2642 2001 
Q 2353 2234 1838 2234 
L 1294 2234 
L 1294 2753 
L 1863 2753 
Q 2328 2753 2575 2939 
Q 2822 3125 2822 3475 
Q 2822 3834 2567 4026 
Q 2313 4219 1838 4219 
Q 1578 4219 1281 4162 
Q 984 4106 628 3988 
L 628 4550 
Q 988 4650 1302 4700 
Q 1616 4750 1894 4750 
Q 2613 4750 3031 4423 
Q 3450 4097 3450 3541 
Q 3450 3153 3228 2886 
Q 3006 2619 2597 2516 
z
" id="DejaVuSans-33" transform="scale(0.015625)"/>
       </defs>
       <use xlink:href="#DejaVuSans-33"/>
      </g>
     </g>
    </g>
    <g id="ytick_6">
     <g id="line2d_11">
      <path clip-path="url(#p26f8441500)" d="M 32.916406 50.195048 
L 235.825497 50.195048 
" style="fill:none;stroke:#ffffff;stroke-linecap:round;"/>
     </g>
     <g id="text_11">
      <!-- 4 -->
      <g style="fill:#262626;" transform="translate(16.417656 54.374189)scale(0.11 -0.11)">
       <use xlink:href="#DejaVuSans-34"/>
      </g>
     </g>
    </g>
    <g id="ytick_7">
     <g id="line2d_12">
      <path clip-path="url(#p26f8441500)" d="M 32.916406 22.318125 
L 235.825497 22.318125 
" style="fill:none;stroke:#ffffff;stroke-linecap:round;"/>
     </g>
     <g id="text_12">
      <!-- 5 -->
      <g style="fill:#262626;" transform="translate(16.417656 26.497266)scale(0.11 -0.11)">
       <defs>
        <path d="M 691 4666 
L 3169 4666 
L 3169 4134 
L 1269 4134 
L 1269 2991 
Q 1406 3038 1543 3061 
Q 1681 3084 1819 3084 
Q 2600 3084 3056 2656 
Q 3513 2228 3513 1497 
Q 3513 744 3044 326 
Q 2575 -91 1722 -91 
Q 1428 -91 1123 -41 
Q 819 9 494 109 
L 494 744 
Q 775 591 1075 516 
Q 1375 441 1709 441 
Q 2250 441 2565 725 
Q 2881 1009 2881 1497 
Q 2881 1984 2565 2268 
Q 2250 2553 1709 2553 
Q 1456 2553 1204 2497 
Q 953 2441 691 2322 
L 691 4666 
z
" id="DejaVuSans-35" transform="scale(0.015625)"/>
       </defs>
       <use xlink:href="#DejaVuSans-35"/>
      </g>
     </g>
    </g>
   </g>
   <g id="line2d_13">
    <path clip-path="url(#p26f8441500)" d="M 42.139547 161.516164 
L 59.311763 161.23424 
L 71.129198 160.826883 
L 80.176922 160.300261 
L 87.747468 159.64122 
L 94.394777 158.838725 
L 100.303494 157.90469 
L 105.842917 156.807954 
L 111.197692 155.524685 
L 116.552469 154.017483 
L 122.276539 152.176746 
L 129.293143 149.670714 
L 148.127191 142.795187 
L 154.035907 140.966546 
L 159.575332 139.490619 
L 164.930107 138.292016 
L 170.46953 137.276888 
L 176.378247 136.418997 
L 183.025556 135.686745 
L 190.411455 135.100817 
L 199.274532 134.628391 
L 210.353381 134.271812 
L 225.494473 134.023861 
L 226.602357 134.012393 
L 226.602357 134.012393 
" style="fill:none;stroke:#4c72b0;stroke-linecap:round;stroke-width:2;"/>
   </g>
   <g id="line2d_14">
    <path clip-path="url(#p26f8441500)" d="M 42.139547 161.517413 
L 59.681058 161.233118 
L 71.867787 160.822007 
L 81.469454 160.28452 
L 89.963236 159.590081 
L 98.087724 158.701621 
L 107.320096 157.456209 
L 121.722599 155.492519 
L 127.262022 154.986008 
L 132.062855 154.760717 
L 136.679048 154.760717 
L 141.479882 154.986008 
L 146.834659 155.472109 
L 153.481965 156.313691 
L 175.085716 159.213796 
L 183.210204 159.98105 
L 191.888638 160.571741 
L 201.859599 161.020068 
L 214.415632 161.348388 
L 226.602357 161.517413 
L 226.602357 161.517413 
" style="fill:none;stroke:#dd8452;stroke-linecap:round;stroke-width:2;"/>
   </g>
   <g id="patch_3">
    <path d="M 32.916406 203.518125 
L 32.916406 22.318125 
" style="fill:none;stroke:#ffffff;stroke-linecap:square;stroke-linejoin:miter;stroke-width:1.25;"/>
   </g>
   <g id="patch_4">
    <path d="M 235.825497 203.518125 
L 235.825497 22.318125 
" style="fill:none;stroke:#ffffff;stroke-linecap:square;stroke-linejoin:miter;stroke-width:1.25;"/>
   </g>
   <g id="patch_5">
    <path d="M 32.916406 203.518125 
L 235.825497 203.518125 
" style="fill:none;stroke:#ffffff;stroke-linecap:square;stroke-linejoin:miter;stroke-width:1.25;"/>
   </g>
   <g id="patch_6">
    <path d="M 32.916406 22.318125 
L 235.825497 22.318125 
" style="fill:none;stroke:#ffffff;stroke-linecap:square;stroke-linejoin:miter;stroke-width:1.25;"/>
   </g>
   <g id="text_13">
    <!-- Sigmoid -->
    <g style="fill:#262626;" transform="translate(110.094389 16.318125)scale(0.12 -0.12)">
     <defs>
      <path d="M 3425 4513 
L 3425 3897 
Q 3066 4069 2747 4153 
Q 2428 4238 2131 4238 
Q 1616 4238 1336 4038 
Q 1056 3838 1056 3469 
Q 1056 3159 1242 3001 
Q 1428 2844 1947 2747 
L 2328 2669 
Q 3034 2534 3370 2195 
Q 3706 1856 3706 1288 
Q 3706 609 3251 259 
Q 2797 -91 1919 -91 
Q 1588 -91 1214 -16 
Q 841 59 441 206 
L 441 856 
Q 825 641 1194 531 
Q 1563 422 1919 422 
Q 2459 422 2753 634 
Q 3047 847 3047 1241 
Q 3047 1584 2836 1778 
Q 2625 1972 2144 2069 
L 1759 2144 
Q 1053 2284 737 2584 
Q 422 2884 422 3419 
Q 422 4038 858 4394 
Q 1294 4750 2059 4750 
Q 2388 4750 2728 4690 
Q 3069 4631 3425 4513 
z
" id="DejaVuSans-53" transform="scale(0.015625)"/>
      <path d="M 603 3500 
L 1178 3500 
L 1178 0 
L 603 0 
L 603 3500 
z
M 603 4863 
L 1178 4863 
L 1178 4134 
L 603 4134 
L 603 4863 
z
" id="DejaVuSans-69" transform="scale(0.015625)"/>
      <path d="M 2906 1791 
Q 2906 2416 2648 2759 
Q 2391 3103 1925 3103 
Q 1463 3103 1205 2759 
Q 947 2416 947 1791 
Q 947 1169 1205 825 
Q 1463 481 1925 481 
Q 2391 481 2648 825 
Q 2906 1169 2906 1791 
z
M 3481 434 
Q 3481 -459 3084 -895 
Q 2688 -1331 1869 -1331 
Q 1566 -1331 1297 -1286 
Q 1028 -1241 775 -1147 
L 775 -588 
Q 1028 -725 1275 -790 
Q 1522 -856 1778 -856 
Q 2344 -856 2625 -561 
Q 2906 -266 2906 331 
L 2906 616 
Q 2728 306 2450 153 
Q 2172 0 1784 0 
Q 1141 0 747 490 
Q 353 981 353 1791 
Q 353 2603 747 3093 
Q 1141 3584 1784 3584 
Q 2172 3584 2450 3431 
Q 2728 3278 2906 2969 
L 2906 3500 
L 3481 3500 
L 3481 434 
z
" id="DejaVuSans-67" transform="scale(0.015625)"/>
      <path d="M 3328 2828 
Q 3544 3216 3844 3400 
Q 4144 3584 4550 3584 
Q 5097 3584 5394 3201 
Q 5691 2819 5691 2113 
L 5691 0 
L 5113 0 
L 5113 2094 
Q 5113 2597 4934 2840 
Q 4756 3084 4391 3084 
Q 3944 3084 3684 2787 
Q 3425 2491 3425 1978 
L 3425 0 
L 2847 0 
L 2847 2094 
Q 2847 2600 2669 2842 
Q 2491 3084 2119 3084 
Q 1678 3084 1418 2786 
Q 1159 2488 1159 1978 
L 1159 0 
L 581 0 
L 581 3500 
L 1159 3500 
L 1159 2956 
Q 1356 3278 1631 3431 
Q 1906 3584 2284 3584 
Q 2666 3584 2933 3390 
Q 3200 3197 3328 2828 
z
" id="DejaVuSans-6d" transform="scale(0.015625)"/>
      <path d="M 1959 3097 
Q 1497 3097 1228 2736 
Q 959 2375 959 1747 
Q 959 1119 1226 758 
Q 1494 397 1959 397 
Q 2419 397 2687 759 
Q 2956 1122 2956 1747 
Q 2956 2369 2687 2733 
Q 2419 3097 1959 3097 
z
M 1959 3584 
Q 2709 3584 3137 3096 
Q 3566 2609 3566 1747 
Q 3566 888 3137 398 
Q 2709 -91 1959 -91 
Q 1206 -91 779 398 
Q 353 888 353 1747 
Q 353 2609 779 3096 
Q 1206 3584 1959 3584 
z
" id="DejaVuSans-6f" transform="scale(0.015625)"/>
      <path d="M 2906 2969 
L 2906 4863 
L 3481 4863 
L 3481 0 
L 2906 0 
L 2906 525 
Q 2725 213 2448 61 
Q 2172 -91 1784 -91 
Q 1150 -91 751 415 
Q 353 922 353 1747 
Q 353 2572 751 3078 
Q 1150 3584 1784 3584 
Q 2172 3584 2448 3432 
Q 2725 3281 2906 2969 
z
M 947 1747 
Q 947 1113 1208 752 
Q 1469 391 1925 391 
Q 2381 391 2643 752 
Q 2906 1113 2906 1747 
Q 2906 2381 2643 2742 
Q 2381 3103 1925 3103 
Q 1469 3103 1208 2742 
Q 947 2381 947 1747 
z
" id="DejaVuSans-64" transform="scale(0.015625)"/>
     </defs>
     <use xlink:href="#DejaVuSans-53"/>
     <use x="63.476562" xlink:href="#DejaVuSans-69"/>
     <use x="91.259766" xlink:href="#DejaVuSans-67"/>
     <use x="154.736328" xlink:href="#DejaVuSans-6d"/>
     <use x="252.148438" xlink:href="#DejaVuSans-6f"/>
     <use x="313.330078" xlink:href="#DejaVuSans-69"/>
     <use x="341.113281" xlink:href="#DejaVuSans-64"/>
    </g>
   </g>
   <g id="legend_1">
    <g id="patch_7">
     <path d="M 145.047997 63.41 
L 228.125497 63.41 
Q 230.325497 63.41 230.325497 61.21 
L 230.325497 30.018125 
Q 230.325497 27.818125 228.125497 27.818125 
L 145.047997 27.818125 
Q 142.847997 27.818125 142.847997 30.018125 
L 142.847997 61.21 
Q 142.847997 63.41 145.047997 63.41 
z
" style="fill:#eaeaf2;opacity:0.8;stroke:#cccccc;stroke-linejoin:miter;"/>
    </g>
    <g id="line2d_15">
     <path d="M 147.247997 36.726406 
L 169.247997 36.726406 
" style="fill:none;stroke:#4c72b0;stroke-linecap:round;stroke-width:2;"/>
    </g>
    <g id="line2d_16"/>
    <g id="text_14">
     <!-- ActFn -->
     <g style="fill:#262626;" transform="translate(178.047997 40.576406)scale(0.11 -0.11)">
      <defs>
       <path d="M 2188 4044 
L 1331 1722 
L 3047 1722 
L 2188 4044 
z
M 1831 4666 
L 2547 4666 
L 4325 0 
L 3669 0 
L 3244 1197 
L 1141 1197 
L 716 0 
L 50 0 
L 1831 4666 
z
" id="DejaVuSans-41" transform="scale(0.015625)"/>
       <path d="M 3122 3366 
L 3122 2828 
Q 2878 2963 2633 3030 
Q 2388 3097 2138 3097 
Q 1578 3097 1268 2742 
Q 959 2388 959 1747 
Q 959 1106 1268 751 
Q 1578 397 2138 397 
Q 2388 397 2633 464 
Q 2878 531 3122 666 
L 3122 134 
Q 2881 22 2623 -34 
Q 2366 -91 2075 -91 
Q 1284 -91 818 406 
Q 353 903 353 1747 
Q 353 2603 823 3093 
Q 1294 3584 2113 3584 
Q 2378 3584 2631 3529 
Q 2884 3475 3122 3366 
z
" id="DejaVuSans-63" transform="scale(0.015625)"/>
       <path d="M 1172 4494 
L 1172 3500 
L 2356 3500 
L 2356 3053 
L 1172 3053 
L 1172 1153 
Q 1172 725 1289 603 
Q 1406 481 1766 481 
L 2356 481 
L 2356 0 
L 1766 0 
Q 1100 0 847 248 
Q 594 497 594 1153 
L 594 3053 
L 172 3053 
L 172 3500 
L 594 3500 
L 594 4494 
L 1172 4494 
z
" id="DejaVuSans-74" transform="scale(0.015625)"/>
       <path d="M 628 4666 
L 3309 4666 
L 3309 4134 
L 1259 4134 
L 1259 2759 
L 3109 2759 
L 3109 2228 
L 1259 2228 
L 1259 0 
L 628 0 
L 628 4666 
z
" id="DejaVuSans-46" transform="scale(0.015625)"/>
       <path d="M 3513 2113 
L 3513 0 
L 2938 0 
L 2938 2094 
Q 2938 2591 2744 2837 
Q 2550 3084 2163 3084 
Q 1697 3084 1428 2787 
Q 1159 2491 1159 1978 
L 1159 0 
L 581 0 
L 581 3500 
L 1159 3500 
L 1159 2956 
Q 1366 3272 1645 3428 
Q 1925 3584 2291 3584 
Q 2894 3584 3203 3211 
Q 3513 2838 3513 2113 
z
" id="DejaVuSans-6e" transform="scale(0.015625)"/>
      </defs>
      <use xlink:href="#DejaVuSans-41"/>
      <use x="66.658203" xlink:href="#DejaVuSans-63"/>
      <use x="121.638672" xlink:href="#DejaVuSans-74"/>
      <use x="160.847656" xlink:href="#DejaVuSans-46"/>
      <use x="218.367188" xlink:href="#DejaVuSans-6e"/>
     </g>
    </g>
    <g id="line2d_17">
     <path d="M 147.247997 52.872344 
L 169.247997 52.872344 
" style="fill:none;stroke:#dd8452;stroke-linecap:round;stroke-width:2;"/>
    </g>
    <g id="line2d_18"/>
    <g id="text_15">
     <!-- Gradient -->
     <g style="fill:#262626;" transform="translate(178.047997 56.722344)scale(0.11 -0.11)">
      <defs>
       <path d="M 3809 666 
L 3809 1919 
L 2778 1919 
L 2778 2438 
L 4434 2438 
L 4434 434 
Q 4069 175 3628 42 
Q 3188 -91 2688 -91 
Q 1594 -91 976 548 
Q 359 1188 359 2328 
Q 359 3472 976 4111 
Q 1594 4750 2688 4750 
Q 3144 4750 3555 4637 
Q 3966 4525 4313 4306 
L 4313 3634 
Q 3963 3931 3569 4081 
Q 3175 4231 2741 4231 
Q 1884 4231 1454 3753 
Q 1025 3275 1025 2328 
Q 1025 1384 1454 906 
Q 1884 428 2741 428 
Q 3075 428 3337 486 
Q 3600 544 3809 666 
z
" id="DejaVuSans-47" transform="scale(0.015625)"/>
       <path d="M 2631 2963 
Q 2534 3019 2420 3045 
Q 2306 3072 2169 3072 
Q 1681 3072 1420 2755 
Q 1159 2438 1159 1844 
L 1159 0 
L 581 0 
L 581 3500 
L 1159 3500 
L 1159 2956 
Q 1341 3275 1631 3429 
Q 1922 3584 2338 3584 
Q 2397 3584 2469 3576 
Q 2541 3569 2628 3553 
L 2631 2963 
z
" id="DejaVuSans-72" transform="scale(0.015625)"/>
       <path d="M 2194 1759 
Q 1497 1759 1228 1600 
Q 959 1441 959 1056 
Q 959 750 1161 570 
Q 1363 391 1709 391 
Q 2188 391 2477 730 
Q 2766 1069 2766 1631 
L 2766 1759 
L 2194 1759 
z
M 3341 1997 
L 3341 0 
L 2766 0 
L 2766 531 
Q 2569 213 2275 61 
Q 1981 -91 1556 -91 
Q 1019 -91 701 211 
Q 384 513 384 1019 
Q 384 1609 779 1909 
Q 1175 2209 1959 2209 
L 2766 2209 
L 2766 2266 
Q 2766 2663 2505 2880 
Q 2244 3097 1772 3097 
Q 1472 3097 1187 3025 
Q 903 2953 641 2809 
L 641 3341 
Q 956 3463 1253 3523 
Q 1550 3584 1831 3584 
Q 2591 3584 2966 3190 
Q 3341 2797 3341 1997 
z
" id="DejaVuSans-61" transform="scale(0.015625)"/>
       <path d="M 3597 1894 
L 3597 1613 
L 953 1613 
Q 991 1019 1311 708 
Q 1631 397 2203 397 
Q 2534 397 2845 478 
Q 3156 559 3463 722 
L 3463 178 
Q 3153 47 2828 -22 
Q 2503 -91 2169 -91 
Q 1331 -91 842 396 
Q 353 884 353 1716 
Q 353 2575 817 3079 
Q 1281 3584 2069 3584 
Q 2775 3584 3186 3129 
Q 3597 2675 3597 1894 
z
M 3022 2063 
Q 3016 2534 2758 2815 
Q 2500 3097 2075 3097 
Q 1594 3097 1305 2825 
Q 1016 2553 972 2059 
L 3022 2063 
z
" id="DejaVuSans-65" transform="scale(0.015625)"/>
      </defs>
      <use xlink:href="#DejaVuSans-47"/>
      <use x="77.490234" xlink:href="#DejaVuSans-72"/>
      <use x="118.603516" xlink:href="#DejaVuSans-61"/>
      <use x="179.882812" xlink:href="#DejaVuSans-64"/>
      <use x="243.359375" xlink:href="#DejaVuSans-69"/>
      <use x="271.142578" xlink:href="#DejaVuSans-65"/>
      <use x="332.666016" xlink:href="#DejaVuSans-6e"/>
      <use x="396.044922" xlink:href="#DejaVuSans-74"/>
     </g>
    </g>
   </g>
  </g>
  <g id="axes_2">
   <g id="patch_8">
    <path d="M 276.407315 203.518125 
L 479.316406 203.518125 
L 479.316406 22.318125 
L 276.407315 22.318125 
z
" style="fill:#eaeaf2;"/>
   </g>
   <g id="matplotlib.axis_3">
    <g id="xtick_6">
     <g id="line2d_19">
      <path clip-path="url(#p98b792ab95)" d="M 304.076737 203.518125 
L 304.076737 22.318125 
" style="fill:none;stroke:#ffffff;stroke-linecap:round;"/>
     </g>
     <g id="text_16">
      <!-- −4 -->
      <g style="fill:#262626;" transform="translate(295.968534 221.376406)scale(0.11 -0.11)">
       <use xlink:href="#DejaVuSans-2212"/>
       <use x="83.789062" xlink:href="#DejaVuSans-34"/>
      </g>
     </g>
    </g>
    <g id="xtick_7">
     <g id="line2d_20">
      <path clip-path="url(#p98b792ab95)" d="M 340.969299 203.518125 
L 340.969299 22.318125 
" style="fill:none;stroke:#ffffff;stroke-linecap:round;"/>
     </g>
     <g id="text_17">
      <!-- −2 -->
      <g style="fill:#262626;" transform="translate(332.861096 221.376406)scale(0.11 -0.11)">
       <use xlink:href="#DejaVuSans-2212"/>
       <use x="83.789062" xlink:href="#DejaVuSans-32"/>
      </g>
     </g>
    </g>
    <g id="xtick_8">
     <g id="line2d_21">
      <path clip-path="url(#p98b792ab95)" d="M 377.861861 203.518125 
L 377.861861 22.318125 
" style="fill:none;stroke:#ffffff;stroke-linecap:round;"/>
     </g>
     <g id="text_18">
      <!-- 0 -->
      <g style="fill:#262626;" transform="translate(374.362486 221.376406)scale(0.11 -0.11)">
       <use xlink:href="#DejaVuSans-30"/>
      </g>
     </g>
    </g>
    <g id="xtick_9">
     <g id="line2d_22">
      <path clip-path="url(#p98b792ab95)" d="M 414.754423 203.518125 
L 414.754423 22.318125 
" style="fill:none;stroke:#ffffff;stroke-linecap:round;"/>
     </g>
     <g id="text_19">
      <!-- 2 -->
      <g style="fill:#262626;" transform="translate(411.255048 221.376406)scale(0.11 -0.11)">
       <use xlink:href="#DejaVuSans-32"/>
      </g>
     </g>
    </g>
    <g id="xtick_10">
     <g id="line2d_23">
      <path clip-path="url(#p98b792ab95)" d="M 451.646985 203.518125 
L 451.646985 22.318125 
" style="fill:none;stroke:#ffffff;stroke-linecap:round;"/>
     </g>
     <g id="text_20">
      <!-- 4 -->
      <g style="fill:#262626;" transform="translate(448.14761 221.376406)scale(0.11 -0.11)">
       <use xlink:href="#DejaVuSans-34"/>
      </g>
     </g>
    </g>
   </g>
   <g id="matplotlib.axis_4">
    <g id="ytick_8">
     <g id="line2d_24">
      <path clip-path="url(#p98b792ab95)" d="M 276.407315 189.579663 
L 479.316406 189.579663 
" style="fill:none;stroke:#ffffff;stroke-linecap:round;"/>
     </g>
     <g id="text_21">
      <!-- −1 -->
      <g style="fill:#262626;" transform="translate(250.690909 193.758804)scale(0.11 -0.11)">
       <use xlink:href="#DejaVuSans-2212"/>
       <use x="83.789062" xlink:href="#DejaVuSans-31"/>
      </g>
     </g>
    </g>
    <g id="ytick_9">
     <g id="line2d_25">
      <path clip-path="url(#p98b792ab95)" d="M 276.407315 161.70274 
L 479.316406 161.70274 
" style="fill:none;stroke:#ffffff;stroke-linecap:round;"/>
     </g>
     <g id="text_22">
      <!-- 0 -->
      <g style="fill:#262626;" transform="translate(259.908565 165.881881)scale(0.11 -0.11)">
       <use xlink:href="#DejaVuSans-30"/>
      </g>
     </g>
    </g>
    <g id="ytick_10">
     <g id="line2d_26">
      <path clip-path="url(#p98b792ab95)" d="M 276.407315 133.825817 
L 479.316406 133.825817 
" style="fill:none;stroke:#ffffff;stroke-linecap:round;"/>
     </g>
     <g id="text_23">
      <!-- 1 -->
      <g style="fill:#262626;" transform="translate(259.908565 138.004958)scale(0.11 -0.11)">
       <use xlink:href="#DejaVuSans-31"/>
      </g>
     </g>
    </g>
    <g id="ytick_11">
     <g id="line2d_27">
      <path clip-path="url(#p98b792ab95)" d="M 276.407315 105.948894 
L 479.316406 105.948894 
" style="fill:none;stroke:#ffffff;stroke-linecap:round;"/>
     </g>
     <g id="text_24">
      <!-- 2 -->
      <g style="fill:#262626;" transform="translate(259.908565 110.128035)scale(0.11 -0.11)">
       <use xlink:href="#DejaVuSans-32"/>
      </g>
     </g>
    </g>
    <g id="ytick_12">
     <g id="line2d_28">
      <path clip-path="url(#p98b792ab95)" d="M 276.407315 78.071971 
L 479.316406 78.071971 
" style="fill:none;stroke:#ffffff;stroke-linecap:round;"/>
     </g>
     <g id="text_25">
      <!-- 3 -->
      <g style="fill:#262626;" transform="translate(259.908565 82.251112)scale(0.11 -0.11)">
       <use xlink:href="#DejaVuSans-33"/>
      </g>
     </g>
    </g>
    <g id="ytick_13">
     <g id="line2d_29">
      <path clip-path="url(#p98b792ab95)" d="M 276.407315 50.195048 
L 479.316406 50.195048 
" style="fill:none;stroke:#ffffff;stroke-linecap:round;"/>
     </g>
     <g id="text_26">
      <!-- 4 -->
      <g style="fill:#262626;" transform="translate(259.908565 54.374189)scale(0.11 -0.11)">
       <use xlink:href="#DejaVuSans-34"/>
      </g>
     </g>
    </g>
    <g id="ytick_14">
     <g id="line2d_30">
      <path clip-path="url(#p98b792ab95)" d="M 276.407315 22.318125 
L 479.316406 22.318125 
" style="fill:none;stroke:#ffffff;stroke-linecap:round;"/>
     </g>
     <g id="text_27">
      <!-- 5 -->
      <g style="fill:#262626;" transform="translate(259.908565 26.497266)scale(0.11 -0.11)">
       <use xlink:href="#DejaVuSans-35"/>
      </g>
     </g>
    </g>
   </g>
   <g id="line2d_31">
    <path clip-path="url(#p98b792ab95)" d="M 285.630456 189.57713 
L 321.452059 189.456887 
L 331.607672 189.212034 
L 338.070333 188.843762 
L 342.871164 188.35227 
L 346.748761 187.732089 
L 349.887768 187.017457 
L 352.65748 186.174818 
L 355.242545 185.160649 
L 357.642961 183.97898 
L 359.858731 182.647194 
L 362.074501 181.052569 
L 364.29027 179.169361 
L 366.506039 176.981194 
L 368.721808 174.486187 
L 371.122225 171.45775 
L 374.076584 167.34427 
L 378.692778 160.447866 
L 383.124317 153.958815 
L 385.894028 150.277275 
L 388.294445 147.4271 
L 390.510215 145.110301 
L 392.725983 143.101302 
L 394.941754 141.389138 
L 397.157522 139.951369 
L 399.557939 138.669653 
L 401.958355 137.635537 
L 404.54342 136.75323 
L 407.49778 135.981903 
L 410.821434 135.347329 
L 414.699031 134.834548 
L 419.499862 134.429651 
L 425.777876 134.133166 
L 435.010252 133.939168 
L 451.813174 133.84418 
L 470.093266 133.828351 
L 470.093266 133.828351 
" style="fill:none;stroke:#4c72b0;stroke-linecap:round;stroke-width:2;"/>
   </g>
   <g id="line2d_32">
    <path clip-path="url(#p98b792ab95)" d="M 285.630456 161.697676 
L 315.727991 161.570746 
L 325.514305 161.323062 
L 331.792319 160.957763 
L 336.59315 160.46045 
L 340.470749 159.833309 
L 343.609756 159.111356 
L 346.379466 158.261323 
L 348.964531 157.240532 
L 351.364947 156.055153 
L 353.580717 154.72576 
L 355.796487 153.145664 
L 358.012256 151.300506 
L 360.412673 149.006441 
L 363.182385 146.030902 
L 371.122225 137.2394 
L 372.784052 135.835927 
L 374.261232 134.861554 
L 375.553764 134.257752 
L 376.846296 133.910143 
L 377.954181 133.826514 
L 379.062073 133.943503 
L 380.354605 134.328759 
L 381.647137 134.967509 
L 383.124317 135.976998 
L 384.786143 137.412315 
L 386.817266 139.486613 
L 390.14092 143.272349 
L 394.387812 148.049057 
L 396.972874 150.626391 
L 399.373292 152.70947 
L 401.58906 154.35502 
L 403.804831 155.745098 
L 406.205248 156.988721 
L 408.790311 158.062675 
L 411.560024 158.959042 
L 414.514383 159.683199 
L 418.022683 160.305915 
L 422.084929 160.795347 
L 427.255055 161.181052 
L 434.087011 161.452794 
L 444.427271 161.621033 
L 465.477078 161.694393 
L 470.093266 161.697676 
L 470.093266 161.697676 
" style="fill:none;stroke:#dd8452;stroke-linecap:round;stroke-width:2;"/>
   </g>
   <g id="patch_9">
    <path d="M 276.407315 203.518125 
L 276.407315 22.318125 
" style="fill:none;stroke:#ffffff;stroke-linecap:square;stroke-linejoin:miter;stroke-width:1.25;"/>
   </g>
   <g id="patch_10">
    <path d="M 479.316406 203.518125 
L 479.316406 22.318125 
" style="fill:none;stroke:#ffffff;stroke-linecap:square;stroke-linejoin:miter;stroke-width:1.25;"/>
   </g>
   <g id="patch_11">
    <path d="M 276.407315 203.518125 
L 479.316406 203.518125 
" style="fill:none;stroke:#ffffff;stroke-linecap:square;stroke-linejoin:miter;stroke-width:1.25;"/>
   </g>
   <g id="patch_12">
    <path d="M 276.407315 22.318125 
L 479.316406 22.318125 
" style="fill:none;stroke:#ffffff;stroke-linecap:square;stroke-linejoin:miter;stroke-width:1.25;"/>
   </g>
   <g id="text_28">
    <!-- Tanh -->
    <g style="fill:#262626;" transform="translate(363.905298 16.318125)scale(0.12 -0.12)">
     <defs>
      <path d="M -19 4666 
L 3928 4666 
L 3928 4134 
L 2272 4134 
L 2272 0 
L 1638 0 
L 1638 4134 
L -19 4134 
L -19 4666 
z
" id="DejaVuSans-54" transform="scale(0.015625)"/>
      <path d="M 3513 2113 
L 3513 0 
L 2938 0 
L 2938 2094 
Q 2938 2591 2744 2837 
Q 2550 3084 2163 3084 
Q 1697 3084 1428 2787 
Q 1159 2491 1159 1978 
L 1159 0 
L 581 0 
L 581 4863 
L 1159 4863 
L 1159 2956 
Q 1366 3272 1645 3428 
Q 1925 3584 2291 3584 
Q 2894 3584 3203 3211 
Q 3513 2838 3513 2113 
z
" id="DejaVuSans-68" transform="scale(0.015625)"/>
     </defs>
     <use xlink:href="#DejaVuSans-54"/>
     <use x="44.583984" xlink:href="#DejaVuSans-61"/>
     <use x="105.863281" xlink:href="#DejaVuSans-6e"/>
     <use x="169.242188" xlink:href="#DejaVuSans-68"/>
    </g>
   </g>
   <g id="legend_2">
    <g id="patch_13">
     <path d="M 388.538906 63.41 
L 471.616406 63.41 
Q 473.816406 63.41 473.816406 61.21 
L 473.816406 30.018125 
Q 473.816406 27.818125 471.616406 27.818125 
L 388.538906 27.818125 
Q 386.338906 27.818125 386.338906 30.018125 
L 386.338906 61.21 
Q 386.338906 63.41 388.538906 63.41 
z
" style="fill:#eaeaf2;opacity:0.8;stroke:#cccccc;stroke-linejoin:miter;"/>
    </g>
    <g id="line2d_33">
     <path d="M 390.738906 36.726406 
L 412.738906 36.726406 
" style="fill:none;stroke:#4c72b0;stroke-linecap:round;stroke-width:2;"/>
    </g>
    <g id="line2d_34"/>
    <g id="text_29">
     <!-- ActFn -->
     <g style="fill:#262626;" transform="translate(421.538906 40.576406)scale(0.11 -0.11)">
      <use xlink:href="#DejaVuSans-41"/>
      <use x="66.658203" xlink:href="#DejaVuSans-63"/>
      <use x="121.638672" xlink:href="#DejaVuSans-74"/>
      <use x="160.847656" xlink:href="#DejaVuSans-46"/>
      <use x="218.367188" xlink:href="#DejaVuSans-6e"/>
     </g>
    </g>
    <g id="line2d_35">
     <path d="M 390.738906 52.872344 
L 412.738906 52.872344 
" style="fill:none;stroke:#dd8452;stroke-linecap:round;stroke-width:2;"/>
    </g>
    <g id="line2d_36"/>
    <g id="text_30">
     <!-- Gradient -->
     <g style="fill:#262626;" transform="translate(421.538906 56.722344)scale(0.11 -0.11)">
      <use xlink:href="#DejaVuSans-47"/>
      <use x="77.490234" xlink:href="#DejaVuSans-72"/>
      <use x="118.603516" xlink:href="#DejaVuSans-61"/>
      <use x="179.882812" xlink:href="#DejaVuSans-64"/>
      <use x="243.359375" xlink:href="#DejaVuSans-69"/>
      <use x="271.142578" xlink:href="#DejaVuSans-65"/>
      <use x="332.666016" xlink:href="#DejaVuSans-6e"/>
      <use x="396.044922" xlink:href="#DejaVuSans-74"/>
     </g>
    </g>
   </g>
  </g>
  <g id="axes_3">
   <g id="patch_14">
    <path d="M 32.916406 439.078125 
L 235.825497 439.078125 
L 235.825497 257.878125 
L 32.916406 257.878125 
z
" style="fill:#eaeaf2;"/>
   </g>
   <g id="matplotlib.axis_5">
    <g id="xtick_11">
     <g id="line2d_37">
      <path clip-path="url(#pa8f9ddb27c)" d="M 60.585828 439.078125 
L 60.585828 257.878125 
" style="fill:none;stroke:#ffffff;stroke-linecap:round;"/>
     </g>
     <g id="text_31">
      <!-- −4 -->
      <g style="fill:#262626;" transform="translate(52.477625 456.936406)scale(0.11 -0.11)">
       <use xlink:href="#DejaVuSans-2212"/>
       <use x="83.789062" xlink:href="#DejaVuSans-34"/>
      </g>
     </g>
    </g>
    <g id="xtick_12">
     <g id="line2d_38">
      <path clip-path="url(#pa8f9ddb27c)" d="M 97.47839 439.078125 
L 97.47839 257.878125 
" style="fill:none;stroke:#ffffff;stroke-linecap:round;"/>
     </g>
     <g id="text_32">
      <!-- −2 -->
      <g style="fill:#262626;" transform="translate(89.370187 456.936406)scale(0.11 -0.11)">
       <use xlink:href="#DejaVuSans-2212"/>
       <use x="83.789062" xlink:href="#DejaVuSans-32"/>
      </g>
     </g>
    </g>
    <g id="xtick_13">
     <g id="line2d_39">
      <path clip-path="url(#pa8f9ddb27c)" d="M 134.370952 439.078125 
L 134.370952 257.878125 
" style="fill:none;stroke:#ffffff;stroke-linecap:round;"/>
     </g>
     <g id="text_33">
      <!-- 0 -->
      <g style="fill:#262626;" transform="translate(130.871577 456.936406)scale(0.11 -0.11)">
       <use xlink:href="#DejaVuSans-30"/>
      </g>
     </g>
    </g>
    <g id="xtick_14">
     <g id="line2d_40">
      <path clip-path="url(#pa8f9ddb27c)" d="M 171.263514 439.078125 
L 171.263514 257.878125 
" style="fill:none;stroke:#ffffff;stroke-linecap:round;"/>
     </g>
     <g id="text_34">
      <!-- 2 -->
      <g style="fill:#262626;" transform="translate(167.764139 456.936406)scale(0.11 -0.11)">
       <use xlink:href="#DejaVuSans-32"/>
      </g>
     </g>
    </g>
    <g id="xtick_15">
     <g id="line2d_41">
      <path clip-path="url(#pa8f9ddb27c)" d="M 208.156076 439.078125 
L 208.156076 257.878125 
" style="fill:none;stroke:#ffffff;stroke-linecap:round;"/>
     </g>
     <g id="text_35">
      <!-- 4 -->
      <g style="fill:#262626;" transform="translate(204.656701 456.936406)scale(0.11 -0.11)">
       <use xlink:href="#DejaVuSans-34"/>
      </g>
     </g>
    </g>
   </g>
   <g id="matplotlib.axis_6">
    <g id="ytick_15">
     <g id="line2d_42">
      <path clip-path="url(#pa8f9ddb27c)" d="M 32.916406 425.139663 
L 235.825497 425.139663 
" style="fill:none;stroke:#ffffff;stroke-linecap:round;"/>
     </g>
     <g id="text_36">
      <!-- −1 -->
      <g style="fill:#262626;" transform="translate(7.2 429.318804)scale(0.11 -0.11)">
       <use xlink:href="#DejaVuSans-2212"/>
       <use x="83.789062" xlink:href="#DejaVuSans-31"/>
      </g>
     </g>
    </g>
    <g id="ytick_16">
     <g id="line2d_43">
      <path clip-path="url(#pa8f9ddb27c)" d="M 32.916406 397.26274 
L 235.825497 397.26274 
" style="fill:none;stroke:#ffffff;stroke-linecap:round;"/>
     </g>
     <g id="text_37">
      <!-- 0 -->
      <g style="fill:#262626;" transform="translate(16.417656 401.441881)scale(0.11 -0.11)">
       <use xlink:href="#DejaVuSans-30"/>
      </g>
     </g>
    </g>
    <g id="ytick_17">
     <g id="line2d_44">
      <path clip-path="url(#pa8f9ddb27c)" d="M 32.916406 369.385817 
L 235.825497 369.385817 
" style="fill:none;stroke:#ffffff;stroke-linecap:round;"/>
     </g>
     <g id="text_38">
      <!-- 1 -->
      <g style="fill:#262626;" transform="translate(16.417656 373.564958)scale(0.11 -0.11)">
       <use xlink:href="#DejaVuSans-31"/>
      </g>
     </g>
    </g>
    <g id="ytick_18">
     <g id="line2d_45">
      <path clip-path="url(#pa8f9ddb27c)" d="M 32.916406 341.508894 
L 235.825497 341.508894 
" style="fill:none;stroke:#ffffff;stroke-linecap:round;"/>
     </g>
     <g id="text_39">
      <!-- 2 -->
      <g style="fill:#262626;" transform="translate(16.417656 345.688035)scale(0.11 -0.11)">
       <use xlink:href="#DejaVuSans-32"/>
      </g>
     </g>
    </g>
    <g id="ytick_19">
     <g id="line2d_46">
      <path clip-path="url(#pa8f9ddb27c)" d="M 32.916406 313.631971 
L 235.825497 313.631971 
" style="fill:none;stroke:#ffffff;stroke-linecap:round;"/>
     </g>
     <g id="text_40">
      <!-- 3 -->
      <g style="fill:#262626;" transform="translate(16.417656 317.811112)scale(0.11 -0.11)">
       <use xlink:href="#DejaVuSans-33"/>
      </g>
     </g>
    </g>
    <g id="ytick_20">
     <g id="line2d_47">
      <path clip-path="url(#pa8f9ddb27c)" d="M 32.916406 285.755048 
L 235.825497 285.755048 
" style="fill:none;stroke:#ffffff;stroke-linecap:round;"/>
     </g>
     <g id="text_41">
      <!-- 4 -->
      <g style="fill:#262626;" transform="translate(16.417656 289.934189)scale(0.11 -0.11)">
       <use xlink:href="#DejaVuSans-34"/>
      </g>
     </g>
    </g>
    <g id="ytick_21">
     <g id="line2d_48">
      <path clip-path="url(#pa8f9ddb27c)" d="M 32.916406 257.878125 
L 235.825497 257.878125 
" style="fill:none;stroke:#ffffff;stroke-linecap:round;"/>
     </g>
     <g id="text_42">
      <!-- 5 -->
      <g style="fill:#262626;" transform="translate(16.417656 262.057266)scale(0.11 -0.11)">
       <use xlink:href="#DejaVuSans-35"/>
      </g>
     </g>
    </g>
   </g>
   <g id="line2d_49">
    <path clip-path="url(#pa8f9ddb27c)" d="M 42.139547 397.26274 
L 134.278624 397.26274 
L 134.463272 397.123222 
L 226.602357 257.878125 
L 226.602357 257.878125 
" style="fill:none;stroke:#4c72b0;stroke-linecap:round;stroke-width:2;"/>
   </g>
   <g id="line2d_50">
    <path clip-path="url(#pa8f9ddb27c)" d="M 42.139547 397.26274 
L 134.278624 397.26274 
L 134.463272 369.385817 
L 226.602357 369.385817 
L 226.602357 369.385817 
" style="fill:none;stroke:#dd8452;stroke-linecap:round;stroke-width:2;"/>
   </g>
   <g id="patch_15">
    <path d="M 32.916406 439.078125 
L 32.916406 257.878125 
" style="fill:none;stroke:#ffffff;stroke-linecap:square;stroke-linejoin:miter;stroke-width:1.25;"/>
   </g>
   <g id="patch_16">
    <path d="M 235.825497 439.078125 
L 235.825497 257.878125 
" style="fill:none;stroke:#ffffff;stroke-linecap:square;stroke-linejoin:miter;stroke-width:1.25;"/>
   </g>
   <g id="patch_17">
    <path d="M 32.916406 439.078125 
L 235.825497 439.078125 
" style="fill:none;stroke:#ffffff;stroke-linecap:square;stroke-linejoin:miter;stroke-width:1.25;"/>
   </g>
   <g id="patch_18">
    <path d="M 32.916406 257.878125 
L 235.825497 257.878125 
" style="fill:none;stroke:#ffffff;stroke-linecap:square;stroke-linejoin:miter;stroke-width:1.25;"/>
   </g>
   <g id="text_43">
    <!-- ReLU -->
    <g style="fill:#262626;" transform="translate(119.345639 251.878125)scale(0.12 -0.12)">
     <defs>
      <path d="M 2841 2188 
Q 3044 2119 3236 1894 
Q 3428 1669 3622 1275 
L 4263 0 
L 3584 0 
L 2988 1197 
Q 2756 1666 2539 1819 
Q 2322 1972 1947 1972 
L 1259 1972 
L 1259 0 
L 628 0 
L 628 4666 
L 2053 4666 
Q 2853 4666 3247 4331 
Q 3641 3997 3641 3322 
Q 3641 2881 3436 2590 
Q 3231 2300 2841 2188 
z
M 1259 4147 
L 1259 2491 
L 2053 2491 
Q 2509 2491 2742 2702 
Q 2975 2913 2975 3322 
Q 2975 3731 2742 3939 
Q 2509 4147 2053 4147 
L 1259 4147 
z
" id="DejaVuSans-52" transform="scale(0.015625)"/>
      <path d="M 628 4666 
L 1259 4666 
L 1259 531 
L 3531 531 
L 3531 0 
L 628 0 
L 628 4666 
z
" id="DejaVuSans-4c" transform="scale(0.015625)"/>
      <path d="M 556 4666 
L 1191 4666 
L 1191 1831 
Q 1191 1081 1462 751 
Q 1734 422 2344 422 
Q 2950 422 3222 751 
Q 3494 1081 3494 1831 
L 3494 4666 
L 4128 4666 
L 4128 1753 
Q 4128 841 3676 375 
Q 3225 -91 2344 -91 
Q 1459 -91 1007 375 
Q 556 841 556 1753 
L 556 4666 
z
" id="DejaVuSans-55" transform="scale(0.015625)"/>
     </defs>
     <use xlink:href="#DejaVuSans-52"/>
     <use x="64.982422" xlink:href="#DejaVuSans-65"/>
     <use x="126.505859" xlink:href="#DejaVuSans-4c"/>
     <use x="177.21875" xlink:href="#DejaVuSans-55"/>
    </g>
   </g>
   <g id="legend_3">
    <g id="patch_19">
     <path d="M 40.616406 298.97 
L 123.693906 298.97 
Q 125.893906 298.97 125.893906 296.77 
L 125.893906 265.578125 
Q 125.893906 263.378125 123.693906 263.378125 
L 40.616406 263.378125 
Q 38.416406 263.378125 38.416406 265.578125 
L 38.416406 296.77 
Q 38.416406 298.97 40.616406 298.97 
z
" style="fill:#eaeaf2;opacity:0.8;stroke:#cccccc;stroke-linejoin:miter;"/>
    </g>
    <g id="line2d_51">
     <path d="M 42.816406 272.286406 
L 64.816406 272.286406 
" style="fill:none;stroke:#4c72b0;stroke-linecap:round;stroke-width:2;"/>
    </g>
    <g id="line2d_52"/>
    <g id="text_44">
     <!-- ActFn -->
     <g style="fill:#262626;" transform="translate(73.616406 276.136406)scale(0.11 -0.11)">
      <use xlink:href="#DejaVuSans-41"/>
      <use x="66.658203" xlink:href="#DejaVuSans-63"/>
      <use x="121.638672" xlink:href="#DejaVuSans-74"/>
      <use x="160.847656" xlink:href="#DejaVuSans-46"/>
      <use x="218.367188" xlink:href="#DejaVuSans-6e"/>
     </g>
    </g>
    <g id="line2d_53">
     <path d="M 42.816406 288.432344 
L 64.816406 288.432344 
" style="fill:none;stroke:#dd8452;stroke-linecap:round;stroke-width:2;"/>
    </g>
    <g id="line2d_54"/>
    <g id="text_45">
     <!-- Gradient -->
     <g style="fill:#262626;" transform="translate(73.616406 292.282344)scale(0.11 -0.11)">
      <use xlink:href="#DejaVuSans-47"/>
      <use x="77.490234" xlink:href="#DejaVuSans-72"/>
      <use x="118.603516" xlink:href="#DejaVuSans-61"/>
      <use x="179.882812" xlink:href="#DejaVuSans-64"/>
      <use x="243.359375" xlink:href="#DejaVuSans-69"/>
      <use x="271.142578" xlink:href="#DejaVuSans-65"/>
      <use x="332.666016" xlink:href="#DejaVuSans-6e"/>
      <use x="396.044922" xlink:href="#DejaVuSans-74"/>
     </g>
    </g>
   </g>
  </g>
  <g id="axes_4">
   <g id="patch_20">
    <path d="M 276.407315 439.078125 
L 479.316406 439.078125 
L 479.316406 257.878125 
L 276.407315 257.878125 
z
" style="fill:#eaeaf2;"/>
   </g>
   <g id="matplotlib.axis_7">
    <g id="xtick_16">
     <g id="line2d_55">
      <path clip-path="url(#p3625a4867c)" d="M 304.076737 439.078125 
L 304.076737 257.878125 
" style="fill:none;stroke:#ffffff;stroke-linecap:round;"/>
     </g>
     <g id="text_46">
      <!-- −4 -->
      <g style="fill:#262626;" transform="translate(295.968534 456.936406)scale(0.11 -0.11)">
       <use xlink:href="#DejaVuSans-2212"/>
       <use x="83.789062" xlink:href="#DejaVuSans-34"/>
      </g>
     </g>
    </g>
    <g id="xtick_17">
     <g id="line2d_56">
      <path clip-path="url(#p3625a4867c)" d="M 340.969299 439.078125 
L 340.969299 257.878125 
" style="fill:none;stroke:#ffffff;stroke-linecap:round;"/>
     </g>
     <g id="text_47">
      <!-- −2 -->
      <g style="fill:#262626;" transform="translate(332.861096 456.936406)scale(0.11 -0.11)">
       <use xlink:href="#DejaVuSans-2212"/>
       <use x="83.789062" xlink:href="#DejaVuSans-32"/>
      </g>
     </g>
    </g>
    <g id="xtick_18">
     <g id="line2d_57">
      <path clip-path="url(#p3625a4867c)" d="M 377.861861 439.078125 
L 377.861861 257.878125 
" style="fill:none;stroke:#ffffff;stroke-linecap:round;"/>
     </g>
     <g id="text_48">
      <!-- 0 -->
      <g style="fill:#262626;" transform="translate(374.362486 456.936406)scale(0.11 -0.11)">
       <use xlink:href="#DejaVuSans-30"/>
      </g>
     </g>
    </g>
    <g id="xtick_19">
     <g id="line2d_58">
      <path clip-path="url(#p3625a4867c)" d="M 414.754423 439.078125 
L 414.754423 257.878125 
" style="fill:none;stroke:#ffffff;stroke-linecap:round;"/>
     </g>
     <g id="text_49">
      <!-- 2 -->
      <g style="fill:#262626;" transform="translate(411.255048 456.936406)scale(0.11 -0.11)">
       <use xlink:href="#DejaVuSans-32"/>
      </g>
     </g>
    </g>
    <g id="xtick_20">
     <g id="line2d_59">
      <path clip-path="url(#p3625a4867c)" d="M 451.646985 439.078125 
L 451.646985 257.878125 
" style="fill:none;stroke:#ffffff;stroke-linecap:round;"/>
     </g>
     <g id="text_50">
      <!-- 4 -->
      <g style="fill:#262626;" transform="translate(448.14761 456.936406)scale(0.11 -0.11)">
       <use xlink:href="#DejaVuSans-34"/>
      </g>
     </g>
    </g>
   </g>
   <g id="matplotlib.axis_8">
    <g id="ytick_22">
     <g id="line2d_60">
      <path clip-path="url(#p3625a4867c)" d="M 276.407315 425.139663 
L 479.316406 425.139663 
" style="fill:none;stroke:#ffffff;stroke-linecap:round;"/>
     </g>
     <g id="text_51">
      <!-- −1 -->
      <g style="fill:#262626;" transform="translate(250.690909 429.318804)scale(0.11 -0.11)">
       <use xlink:href="#DejaVuSans-2212"/>
       <use x="83.789062" xlink:href="#DejaVuSans-31"/>
      </g>
     </g>
    </g>
    <g id="ytick_23">
     <g id="line2d_61">
      <path clip-path="url(#p3625a4867c)" d="M 276.407315 397.26274 
L 479.316406 397.26274 
" style="fill:none;stroke:#ffffff;stroke-linecap:round;"/>
     </g>
     <g id="text_52">
      <!-- 0 -->
      <g style="fill:#262626;" transform="translate(259.908565 401.441881)scale(0.11 -0.11)">
       <use xlink:href="#DejaVuSans-30"/>
      </g>
     </g>
    </g>
    <g id="ytick_24">
     <g id="line2d_62">
      <path clip-path="url(#p3625a4867c)" d="M 276.407315 369.385817 
L 479.316406 369.385817 
" style="fill:none;stroke:#ffffff;stroke-linecap:round;"/>
     </g>
     <g id="text_53">
      <!-- 1 -->
      <g style="fill:#262626;" transform="translate(259.908565 373.564958)scale(0.11 -0.11)">
       <use xlink:href="#DejaVuSans-31"/>
      </g>
     </g>
    </g>
    <g id="ytick_25">
     <g id="line2d_63">
      <path clip-path="url(#p3625a4867c)" d="M 276.407315 341.508894 
L 479.316406 341.508894 
" style="fill:none;stroke:#ffffff;stroke-linecap:round;"/>
     </g>
     <g id="text_54">
      <!-- 2 -->
      <g style="fill:#262626;" transform="translate(259.908565 345.688035)scale(0.11 -0.11)">
       <use xlink:href="#DejaVuSans-32"/>
      </g>
     </g>
    </g>
    <g id="ytick_26">
     <g id="line2d_64">
      <path clip-path="url(#p3625a4867c)" d="M 276.407315 313.631971 
L 479.316406 313.631971 
" style="fill:none;stroke:#ffffff;stroke-linecap:round;"/>
     </g>
     <g id="text_55">
      <!-- 3 -->
      <g style="fill:#262626;" transform="translate(259.908565 317.811112)scale(0.11 -0.11)">
       <use xlink:href="#DejaVuSans-33"/>
      </g>
     </g>
    </g>
    <g id="ytick_27">
     <g id="line2d_65">
      <path clip-path="url(#p3625a4867c)" d="M 276.407315 285.755048 
L 479.316406 285.755048 
" style="fill:none;stroke:#ffffff;stroke-linecap:round;"/>
     </g>
     <g id="text_56">
      <!-- 4 -->
      <g style="fill:#262626;" transform="translate(259.908565 289.934189)scale(0.11 -0.11)">
       <use xlink:href="#DejaVuSans-34"/>
      </g>
     </g>
    </g>
    <g id="ytick_28">
     <g id="line2d_66">
      <path clip-path="url(#p3625a4867c)" d="M 276.407315 257.878125 
L 479.316406 257.878125 
" style="fill:none;stroke:#ffffff;stroke-linecap:round;"/>
     </g>
     <g id="text_57">
      <!-- 5 -->
      <g style="fill:#262626;" transform="translate(259.908565 262.057266)scale(0.11 -0.11)">
       <use xlink:href="#DejaVuSans-35"/>
      </g>
     </g>
    </g>
   </g>
   <g id="line2d_67">
    <path clip-path="url(#p3625a4867c)" d="M 285.630456 411.201202 
L 377.769534 397.276693 
L 378.138829 396.844173 
L 470.093266 257.878125 
L 470.093266 257.878125 
" style="fill:none;stroke:#4c72b0;stroke-linecap:round;stroke-width:2;"/>
   </g>
   <g id="line2d_68">
    <path clip-path="url(#p3625a4867c)" d="M 285.630456 394.475048 
L 377.769534 394.475048 
L 377.954181 369.385817 
L 470.093266 369.385817 
L 470.093266 369.385817 
" style="fill:none;stroke:#dd8452;stroke-linecap:round;stroke-width:2;"/>
   </g>
   <g id="patch_21">
    <path d="M 276.407315 439.078125 
L 276.407315 257.878125 
" style="fill:none;stroke:#ffffff;stroke-linecap:square;stroke-linejoin:miter;stroke-width:1.25;"/>
   </g>
   <g id="patch_22">
    <path d="M 479.316406 439.078125 
L 479.316406 257.878125 
" style="fill:none;stroke:#ffffff;stroke-linecap:square;stroke-linejoin:miter;stroke-width:1.25;"/>
   </g>
   <g id="patch_23">
    <path d="M 276.407315 439.078125 
L 479.316406 439.078125 
" style="fill:none;stroke:#ffffff;stroke-linecap:square;stroke-linejoin:miter;stroke-width:1.25;"/>
   </g>
   <g id="patch_24">
    <path d="M 276.407315 257.878125 
L 479.316406 257.878125 
" style="fill:none;stroke:#ffffff;stroke-linecap:square;stroke-linejoin:miter;stroke-width:1.25;"/>
   </g>
   <g id="text_58">
    <!-- LeakyReLU -->
    <g style="fill:#262626;" transform="translate(345.421548 251.878125)scale(0.12 -0.12)">
     <defs>
      <path d="M 581 4863 
L 1159 4863 
L 1159 1991 
L 2875 3500 
L 3609 3500 
L 1753 1863 
L 3688 0 
L 2938 0 
L 1159 1709 
L 1159 0 
L 581 0 
L 581 4863 
z
" id="DejaVuSans-6b" transform="scale(0.015625)"/>
      <path d="M 2059 -325 
Q 1816 -950 1584 -1140 
Q 1353 -1331 966 -1331 
L 506 -1331 
L 506 -850 
L 844 -850 
Q 1081 -850 1212 -737 
Q 1344 -625 1503 -206 
L 1606 56 
L 191 3500 
L 800 3500 
L 1894 763 
L 2988 3500 
L 3597 3500 
L 2059 -325 
z
" id="DejaVuSans-79" transform="scale(0.015625)"/>
     </defs>
     <use xlink:href="#DejaVuSans-4c"/>
     <use x="53.962891" xlink:href="#DejaVuSans-65"/>
     <use x="115.486328" xlink:href="#DejaVuSans-61"/>
     <use x="176.765625" xlink:href="#DejaVuSans-6b"/>
     <use x="231.050781" xlink:href="#DejaVuSans-79"/>
     <use x="290.230469" xlink:href="#DejaVuSans-52"/>
     <use x="355.212891" xlink:href="#DejaVuSans-65"/>
     <use x="416.736328" xlink:href="#DejaVuSans-4c"/>
     <use x="467.449219" xlink:href="#DejaVuSans-55"/>
    </g>
   </g>
   <g id="legend_4">
    <g id="patch_25">
     <path d="M 284.107315 298.97 
L 367.184815 298.97 
Q 369.384815 298.97 369.384815 296.77 
L 369.384815 265.578125 
Q 369.384815 263.378125 367.184815 263.378125 
L 284.107315 263.378125 
Q 281.907315 263.378125 281.907315 265.578125 
L 281.907315 296.77 
Q 281.907315 298.97 284.107315 298.97 
z
" style="fill:#eaeaf2;opacity:0.8;stroke:#cccccc;stroke-linejoin:miter;"/>
    </g>
    <g id="line2d_69">
     <path d="M 286.307315 272.286406 
L 308.307315 272.286406 
" style="fill:none;stroke:#4c72b0;stroke-linecap:round;stroke-width:2;"/>
    </g>
    <g id="line2d_70"/>
    <g id="text_59">
     <!-- ActFn -->
     <g style="fill:#262626;" transform="translate(317.107315 276.136406)scale(0.11 -0.11)">
      <use xlink:href="#DejaVuSans-41"/>
      <use x="66.658203" xlink:href="#DejaVuSans-63"/>
      <use x="121.638672" xlink:href="#DejaVuSans-74"/>
      <use x="160.847656" xlink:href="#DejaVuSans-46"/>
      <use x="218.367188" xlink:href="#DejaVuSans-6e"/>
     </g>
    </g>
    <g id="line2d_71">
     <path d="M 286.307315 288.432344 
L 308.307315 288.432344 
" style="fill:none;stroke:#dd8452;stroke-linecap:round;stroke-width:2;"/>
    </g>
    <g id="line2d_72"/>
    <g id="text_60">
     <!-- Gradient -->
     <g style="fill:#262626;" transform="translate(317.107315 292.282344)scale(0.11 -0.11)">
      <use xlink:href="#DejaVuSans-47"/>
      <use x="77.490234" xlink:href="#DejaVuSans-72"/>
      <use x="118.603516" xlink:href="#DejaVuSans-61"/>
      <use x="179.882812" xlink:href="#DejaVuSans-64"/>
      <use x="243.359375" xlink:href="#DejaVuSans-69"/>
      <use x="271.142578" xlink:href="#DejaVuSans-65"/>
      <use x="332.666016" xlink:href="#DejaVuSans-6e"/>
      <use x="396.044922" xlink:href="#DejaVuSans-74"/>
     </g>
    </g>
   </g>
  </g>
  <g id="axes_5">
   <g id="patch_26">
    <path d="M 32.916406 674.638125 
L 235.825497 674.638125 
L 235.825497 493.438125 
L 32.916406 493.438125 
z
" style="fill:#eaeaf2;"/>
   </g>
   <g id="matplotlib.axis_9">
    <g id="xtick_21">
     <g id="line2d_73">
      <path clip-path="url(#pb127e348e5)" d="M 60.585828 674.638125 
L 60.585828 493.438125 
" style="fill:none;stroke:#ffffff;stroke-linecap:round;"/>
     </g>
     <g id="text_61">
      <!-- −4 -->
      <g style="fill:#262626;" transform="translate(52.477625 692.496406)scale(0.11 -0.11)">
       <use xlink:href="#DejaVuSans-2212"/>
       <use x="83.789062" xlink:href="#DejaVuSans-34"/>
      </g>
     </g>
    </g>
    <g id="xtick_22">
     <g id="line2d_74">
      <path clip-path="url(#pb127e348e5)" d="M 97.47839 674.638125 
L 97.47839 493.438125 
" style="fill:none;stroke:#ffffff;stroke-linecap:round;"/>
     </g>
     <g id="text_62">
      <!-- −2 -->
      <g style="fill:#262626;" transform="translate(89.370187 692.496406)scale(0.11 -0.11)">
       <use xlink:href="#DejaVuSans-2212"/>
       <use x="83.789062" xlink:href="#DejaVuSans-32"/>
      </g>
     </g>
    </g>
    <g id="xtick_23">
     <g id="line2d_75">
      <path clip-path="url(#pb127e348e5)" d="M 134.370952 674.638125 
L 134.370952 493.438125 
" style="fill:none;stroke:#ffffff;stroke-linecap:round;"/>
     </g>
     <g id="text_63">
      <!-- 0 -->
      <g style="fill:#262626;" transform="translate(130.871577 692.496406)scale(0.11 -0.11)">
       <use xlink:href="#DejaVuSans-30"/>
      </g>
     </g>
    </g>
    <g id="xtick_24">
     <g id="line2d_76">
      <path clip-path="url(#pb127e348e5)" d="M 171.263514 674.638125 
L 171.263514 493.438125 
" style="fill:none;stroke:#ffffff;stroke-linecap:round;"/>
     </g>
     <g id="text_64">
      <!-- 2 -->
      <g style="fill:#262626;" transform="translate(167.764139 692.496406)scale(0.11 -0.11)">
       <use xlink:href="#DejaVuSans-32"/>
      </g>
     </g>
    </g>
    <g id="xtick_25">
     <g id="line2d_77">
      <path clip-path="url(#pb127e348e5)" d="M 208.156076 674.638125 
L 208.156076 493.438125 
" style="fill:none;stroke:#ffffff;stroke-linecap:round;"/>
     </g>
     <g id="text_65">
      <!-- 4 -->
      <g style="fill:#262626;" transform="translate(204.656701 692.496406)scale(0.11 -0.11)">
       <use xlink:href="#DejaVuSans-34"/>
      </g>
     </g>
    </g>
   </g>
   <g id="matplotlib.axis_10">
    <g id="ytick_29">
     <g id="line2d_78">
      <path clip-path="url(#pb127e348e5)" d="M 32.916406 660.699663 
L 235.825497 660.699663 
" style="fill:none;stroke:#ffffff;stroke-linecap:round;"/>
     </g>
     <g id="text_66">
      <!-- −1 -->
      <g style="fill:#262626;" transform="translate(7.2 664.878804)scale(0.11 -0.11)">
       <use xlink:href="#DejaVuSans-2212"/>
       <use x="83.789062" xlink:href="#DejaVuSans-31"/>
      </g>
     </g>
    </g>
    <g id="ytick_30">
     <g id="line2d_79">
      <path clip-path="url(#pb127e348e5)" d="M 32.916406 632.82274 
L 235.825497 632.82274 
" style="fill:none;stroke:#ffffff;stroke-linecap:round;"/>
     </g>
     <g id="text_67">
      <!-- 0 -->
      <g style="fill:#262626;" transform="translate(16.417656 637.001881)scale(0.11 -0.11)">
       <use xlink:href="#DejaVuSans-30"/>
      </g>
     </g>
    </g>
    <g id="ytick_31">
     <g id="line2d_80">
      <path clip-path="url(#pb127e348e5)" d="M 32.916406 604.945817 
L 235.825497 604.945817 
" style="fill:none;stroke:#ffffff;stroke-linecap:round;"/>
     </g>
     <g id="text_68">
      <!-- 1 -->
      <g style="fill:#262626;" transform="translate(16.417656 609.124958)scale(0.11 -0.11)">
       <use xlink:href="#DejaVuSans-31"/>
      </g>
     </g>
    </g>
    <g id="ytick_32">
     <g id="line2d_81">
      <path clip-path="url(#pb127e348e5)" d="M 32.916406 577.068894 
L 235.825497 577.068894 
" style="fill:none;stroke:#ffffff;stroke-linecap:round;"/>
     </g>
     <g id="text_69">
      <!-- 2 -->
      <g style="fill:#262626;" transform="translate(16.417656 581.248035)scale(0.11 -0.11)">
       <use xlink:href="#DejaVuSans-32"/>
      </g>
     </g>
    </g>
    <g id="ytick_33">
     <g id="line2d_82">
      <path clip-path="url(#pb127e348e5)" d="M 32.916406 549.191971 
L 235.825497 549.191971 
" style="fill:none;stroke:#ffffff;stroke-linecap:round;"/>
     </g>
     <g id="text_70">
      <!-- 3 -->
      <g style="fill:#262626;" transform="translate(16.417656 553.371112)scale(0.11 -0.11)">
       <use xlink:href="#DejaVuSans-33"/>
      </g>
     </g>
    </g>
    <g id="ytick_34">
     <g id="line2d_83">
      <path clip-path="url(#pb127e348e5)" d="M 32.916406 521.315048 
L 235.825497 521.315048 
" style="fill:none;stroke:#ffffff;stroke-linecap:round;"/>
     </g>
     <g id="text_71">
      <!-- 4 -->
      <g style="fill:#262626;" transform="translate(16.417656 525.494189)scale(0.11 -0.11)">
       <use xlink:href="#DejaVuSans-34"/>
      </g>
     </g>
    </g>
    <g id="ytick_35">
     <g id="line2d_84">
      <path clip-path="url(#pb127e348e5)" d="M 32.916406 493.438125 
L 235.825497 493.438125 
" style="fill:none;stroke:#ffffff;stroke-linecap:round;"/>
     </g>
     <g id="text_72">
      <!-- 5 -->
      <g style="fill:#262626;" transform="translate(16.417656 497.617266)scale(0.11 -0.11)">
       <use xlink:href="#DejaVuSans-35"/>
      </g>
     </g>
    </g>
   </g>
   <g id="line2d_85">
    <path clip-path="url(#pb127e348e5)" d="M 42.139547 660.51183 
L 59.127111 660.2279 
L 70.390608 659.830887 
L 79.069038 659.308972 
L 85.90099 658.685565 
L 91.625062 657.952739 
L 96.610545 657.100318 
L 101.042084 656.122899 
L 104.91968 655.052222 
L 108.612629 653.800482 
L 111.936284 652.438356 
L 115.075289 650.905829 
L 118.029648 649.204652 
L 120.799361 647.342361 
L 123.384425 645.332954 
L 125.784842 643.19734 
L 128.185258 640.764928 
L 130.585675 637.994467 
L 132.801445 635.09655 
L 135.201869 631.567018 
L 226.602357 493.438125 
L 226.602357 493.438125 
" style="fill:none;stroke:#4c72b0;stroke-linecap:round;stroke-width:2;"/>
   </g>
   <g id="line2d_86">
    <path clip-path="url(#pb127e348e5)" d="M 42.139547 632.634907 
L 59.127111 632.350978 
L 70.390608 631.953964 
L 79.069038 631.432049 
L 85.90099 630.808643 
L 91.625062 630.075816 
L 96.610545 629.223395 
L 101.042084 628.245976 
L 104.91968 627.175299 
L 108.612629 625.92356 
L 111.936284 624.561432 
L 115.075289 623.028907 
L 118.029648 621.327729 
L 120.799361 619.465437 
L 123.384425 617.456031 
L 125.784842 615.320417 
L 128.185258 612.888004 
L 130.585675 610.117544 
L 132.801445 607.219627 
L 134.463272 604.945817 
L 226.602357 604.945817 
L 226.602357 604.945817 
" style="fill:none;stroke:#dd8452;stroke-linecap:round;stroke-width:2;"/>
   </g>
   <g id="patch_27">
    <path d="M 32.916406 674.638125 
L 32.916406 493.438125 
" style="fill:none;stroke:#ffffff;stroke-linecap:square;stroke-linejoin:miter;stroke-width:1.25;"/>
   </g>
   <g id="patch_28">
    <path d="M 235.825497 674.638125 
L 235.825497 493.438125 
" style="fill:none;stroke:#ffffff;stroke-linecap:square;stroke-linejoin:miter;stroke-width:1.25;"/>
   </g>
   <g id="patch_29">
    <path d="M 32.916406 674.638125 
L 235.825497 674.638125 
" style="fill:none;stroke:#ffffff;stroke-linecap:square;stroke-linejoin:miter;stroke-width:1.25;"/>
   </g>
   <g id="patch_30">
    <path d="M 32.916406 493.438125 
L 235.825497 493.438125 
" style="fill:none;stroke:#ffffff;stroke-linecap:square;stroke-linejoin:miter;stroke-width:1.25;"/>
   </g>
   <g id="text_73">
    <!-- ELU -->
    <g style="fill:#262626;" transform="translate(123.145327 487.438125)scale(0.12 -0.12)">
     <defs>
      <path d="M 628 4666 
L 3578 4666 
L 3578 4134 
L 1259 4134 
L 1259 2753 
L 3481 2753 
L 3481 2222 
L 1259 2222 
L 1259 531 
L 3634 531 
L 3634 0 
L 628 0 
L 628 4666 
z
" id="DejaVuSans-45" transform="scale(0.015625)"/>
     </defs>
     <use xlink:href="#DejaVuSans-45"/>
     <use x="63.183594" xlink:href="#DejaVuSans-4c"/>
     <use x="113.896484" xlink:href="#DejaVuSans-55"/>
    </g>
   </g>
   <g id="legend_5">
    <g id="patch_31">
     <path d="M 40.616406 534.53 
L 123.693906 534.53 
Q 125.893906 534.53 125.893906 532.33 
L 125.893906 501.138125 
Q 125.893906 498.938125 123.693906 498.938125 
L 40.616406 498.938125 
Q 38.416406 498.938125 38.416406 501.138125 
L 38.416406 532.33 
Q 38.416406 534.53 40.616406 534.53 
z
" style="fill:#eaeaf2;opacity:0.8;stroke:#cccccc;stroke-linejoin:miter;"/>
    </g>
    <g id="line2d_87">
     <path d="M 42.816406 507.846406 
L 64.816406 507.846406 
" style="fill:none;stroke:#4c72b0;stroke-linecap:round;stroke-width:2;"/>
    </g>
    <g id="line2d_88"/>
    <g id="text_74">
     <!-- ActFn -->
     <g style="fill:#262626;" transform="translate(73.616406 511.696406)scale(0.11 -0.11)">
      <use xlink:href="#DejaVuSans-41"/>
      <use x="66.658203" xlink:href="#DejaVuSans-63"/>
      <use x="121.638672" xlink:href="#DejaVuSans-74"/>
      <use x="160.847656" xlink:href="#DejaVuSans-46"/>
      <use x="218.367188" xlink:href="#DejaVuSans-6e"/>
     </g>
    </g>
    <g id="line2d_89">
     <path d="M 42.816406 523.992344 
L 64.816406 523.992344 
" style="fill:none;stroke:#dd8452;stroke-linecap:round;stroke-width:2;"/>
    </g>
    <g id="line2d_90"/>
    <g id="text_75">
     <!-- Gradient -->
     <g style="fill:#262626;" transform="translate(73.616406 527.842344)scale(0.11 -0.11)">
      <use xlink:href="#DejaVuSans-47"/>
      <use x="77.490234" xlink:href="#DejaVuSans-72"/>
      <use x="118.603516" xlink:href="#DejaVuSans-61"/>
      <use x="179.882812" xlink:href="#DejaVuSans-64"/>
      <use x="243.359375" xlink:href="#DejaVuSans-69"/>
      <use x="271.142578" xlink:href="#DejaVuSans-65"/>
      <use x="332.666016" xlink:href="#DejaVuSans-6e"/>
      <use x="396.044922" xlink:href="#DejaVuSans-74"/>
     </g>
    </g>
   </g>
  </g>
  <g id="axes_6">
   <g id="patch_32">
    <path d="M 276.407315 674.638125 
L 479.316406 674.638125 
L 479.316406 493.438125 
L 276.407315 493.438125 
z
" style="fill:#eaeaf2;"/>
   </g>
   <g id="matplotlib.axis_11">
    <g id="xtick_26">
     <g id="line2d_91">
      <path clip-path="url(#p8e9933f396)" d="M 304.076737 674.638125 
L 304.076737 493.438125 
" style="fill:none;stroke:#ffffff;stroke-linecap:round;"/>
     </g>
     <g id="text_76">
      <!-- −4 -->
      <g style="fill:#262626;" transform="translate(295.968534 692.496406)scale(0.11 -0.11)">
       <use xlink:href="#DejaVuSans-2212"/>
       <use x="83.789062" xlink:href="#DejaVuSans-34"/>
      </g>
     </g>
    </g>
    <g id="xtick_27">
     <g id="line2d_92">
      <path clip-path="url(#p8e9933f396)" d="M 340.969299 674.638125 
L 340.969299 493.438125 
" style="fill:none;stroke:#ffffff;stroke-linecap:round;"/>
     </g>
     <g id="text_77">
      <!-- −2 -->
      <g style="fill:#262626;" transform="translate(332.861096 692.496406)scale(0.11 -0.11)">
       <use xlink:href="#DejaVuSans-2212"/>
       <use x="83.789062" xlink:href="#DejaVuSans-32"/>
      </g>
     </g>
    </g>
    <g id="xtick_28">
     <g id="line2d_93">
      <path clip-path="url(#p8e9933f396)" d="M 377.861861 674.638125 
L 377.861861 493.438125 
" style="fill:none;stroke:#ffffff;stroke-linecap:round;"/>
     </g>
     <g id="text_78">
      <!-- 0 -->
      <g style="fill:#262626;" transform="translate(374.362486 692.496406)scale(0.11 -0.11)">
       <use xlink:href="#DejaVuSans-30"/>
      </g>
     </g>
    </g>
    <g id="xtick_29">
     <g id="line2d_94">
      <path clip-path="url(#p8e9933f396)" d="M 414.754423 674.638125 
L 414.754423 493.438125 
" style="fill:none;stroke:#ffffff;stroke-linecap:round;"/>
     </g>
     <g id="text_79">
      <!-- 2 -->
      <g style="fill:#262626;" transform="translate(411.255048 692.496406)scale(0.11 -0.11)">
       <use xlink:href="#DejaVuSans-32"/>
      </g>
     </g>
    </g>
    <g id="xtick_30">
     <g id="line2d_95">
      <path clip-path="url(#p8e9933f396)" d="M 451.646985 674.638125 
L 451.646985 493.438125 
" style="fill:none;stroke:#ffffff;stroke-linecap:round;"/>
     </g>
     <g id="text_80">
      <!-- 4 -->
      <g style="fill:#262626;" transform="translate(448.14761 692.496406)scale(0.11 -0.11)">
       <use xlink:href="#DejaVuSans-34"/>
      </g>
     </g>
    </g>
   </g>
   <g id="matplotlib.axis_12">
    <g id="ytick_36">
     <g id="line2d_96">
      <path clip-path="url(#p8e9933f396)" d="M 276.407315 660.699663 
L 479.316406 660.699663 
" style="fill:none;stroke:#ffffff;stroke-linecap:round;"/>
     </g>
     <g id="text_81">
      <!-- −1 -->
      <g style="fill:#262626;" transform="translate(250.690909 664.878804)scale(0.11 -0.11)">
       <use xlink:href="#DejaVuSans-2212"/>
       <use x="83.789062" xlink:href="#DejaVuSans-31"/>
      </g>
     </g>
    </g>
    <g id="ytick_37">
     <g id="line2d_97">
      <path clip-path="url(#p8e9933f396)" d="M 276.407315 632.82274 
L 479.316406 632.82274 
" style="fill:none;stroke:#ffffff;stroke-linecap:round;"/>
     </g>
     <g id="text_82">
      <!-- 0 -->
      <g style="fill:#262626;" transform="translate(259.908565 637.001881)scale(0.11 -0.11)">
       <use xlink:href="#DejaVuSans-30"/>
      </g>
     </g>
    </g>
    <g id="ytick_38">
     <g id="line2d_98">
      <path clip-path="url(#p8e9933f396)" d="M 276.407315 604.945817 
L 479.316406 604.945817 
" style="fill:none;stroke:#ffffff;stroke-linecap:round;"/>
     </g>
     <g id="text_83">
      <!-- 1 -->
      <g style="fill:#262626;" transform="translate(259.908565 609.124958)scale(0.11 -0.11)">
       <use xlink:href="#DejaVuSans-31"/>
      </g>
     </g>
    </g>
    <g id="ytick_39">
     <g id="line2d_99">
      <path clip-path="url(#p8e9933f396)" d="M 276.407315 577.068894 
L 479.316406 577.068894 
" style="fill:none;stroke:#ffffff;stroke-linecap:round;"/>
     </g>
     <g id="text_84">
      <!-- 2 -->
      <g style="fill:#262626;" transform="translate(259.908565 581.248035)scale(0.11 -0.11)">
       <use xlink:href="#DejaVuSans-32"/>
      </g>
     </g>
    </g>
    <g id="ytick_40">
     <g id="line2d_100">
      <path clip-path="url(#p8e9933f396)" d="M 276.407315 549.191971 
L 479.316406 549.191971 
" style="fill:none;stroke:#ffffff;stroke-linecap:round;"/>
     </g>
     <g id="text_85">
      <!-- 3 -->
      <g style="fill:#262626;" transform="translate(259.908565 553.371112)scale(0.11 -0.11)">
       <use xlink:href="#DejaVuSans-33"/>
      </g>
     </g>
    </g>
    <g id="ytick_41">
     <g id="line2d_101">
      <path clip-path="url(#p8e9933f396)" d="M 276.407315 521.315048 
L 479.316406 521.315048 
" style="fill:none;stroke:#ffffff;stroke-linecap:round;"/>
     </g>
     <g id="text_86">
      <!-- 4 -->
      <g style="fill:#262626;" transform="translate(259.908565 525.494189)scale(0.11 -0.11)">
       <use xlink:href="#DejaVuSans-34"/>
      </g>
     </g>
    </g>
    <g id="ytick_42">
     <g id="line2d_102">
      <path clip-path="url(#p8e9933f396)" d="M 276.407315 493.438125 
L 479.316406 493.438125 
" style="fill:none;stroke:#ffffff;stroke-linecap:round;"/>
     </g>
     <g id="text_87">
      <!-- 5 -->
      <g style="fill:#262626;" transform="translate(259.908565 497.617266)scale(0.11 -0.11)">
       <use xlink:href="#DejaVuSans-35"/>
      </g>
     </g>
    </g>
   </g>
   <g id="line2d_103">
    <path clip-path="url(#p8e9933f396)" d="M 285.630456 633.755621 
L 296.709305 634.311075 
L 306.310972 635.012963 
L 314.989402 635.866454 
L 323.667831 636.943139 
L 334.931324 638.589477 
L 344.532993 639.925892 
L 349.518473 640.406027 
L 353.580717 640.581198 
L 357.089019 640.510139 
L 360.228026 640.222896 
L 363.182385 639.720419 
L 365.952096 639.013751 
L 368.537161 638.124802 
L 371.122225 636.995251 
L 373.707289 635.609999 
L 376.292354 633.958275 
L 378.877425 632.034236 
L 381.46249 629.837321 
L 384.232201 627.186143 
L 387.186561 624.032859 
L 390.325568 620.338906 
L 393.649221 616.078893 
L 397.342169 610.980438 
L 401.58906 604.727584 
L 406.75919 596.693952 
L 413.591144 585.62955 
L 428.732238 560.530703 
L 441.657557 539.353805 
L 453.659639 520.124204 
L 467.138908 498.961516 
L 470.093266 494.370997 
L 470.093266 494.370997 
" style="fill:none;stroke:#4c72b0;stroke-linecap:round;stroke-width:2;"/>
   </g>
   <g id="line2d_104">
    <path clip-path="url(#p8e9933f396)" d="M 285.630456 633.562801 
L 300.032958 634.098999 
L 316.097286 634.93764 
L 328.65331 635.526982 
L 334.931324 635.599065 
L 339.732159 635.43723 
L 343.794403 635.083439 
L 347.48735 634.536959 
L 350.811005 633.823764 
L 353.950012 632.929718 
L 357.089019 631.801265 
L 360.228026 630.426853 
L 363.367033 628.806119 
L 366.690686 626.836555 
L 370.383636 624.383955 
L 374.999822 621.03826 
L 386.447971 612.623283 
L 390.14092 610.24818 
L 393.464574 608.362809 
L 396.60358 606.828241 
L 399.742587 605.541316 
L 402.881594 604.497403 
L 406.020601 603.6817 
L 409.344253 603.042315 
L 413.037202 602.565285 
L 417.099446 602.272292 
L 421.900282 602.162787 
L 427.809001 602.264553 
L 436.672078 602.668908 
L 462.52272 603.952593 
L 470.093266 604.20576 
L 470.093266 604.20576 
" style="fill:none;stroke:#dd8452;stroke-linecap:round;stroke-width:2;"/>
   </g>
   <g id="patch_33">
    <path d="M 276.407315 674.638125 
L 276.407315 493.438125 
" style="fill:none;stroke:#ffffff;stroke-linecap:square;stroke-linejoin:miter;stroke-width:1.25;"/>
   </g>
   <g id="patch_34">
    <path d="M 479.316406 674.638125 
L 479.316406 493.438125 
" style="fill:none;stroke:#ffffff;stroke-linecap:square;stroke-linejoin:miter;stroke-width:1.25;"/>
   </g>
   <g id="patch_35">
    <path d="M 276.407315 674.638125 
L 479.316406 674.638125 
" style="fill:none;stroke:#ffffff;stroke-linecap:square;stroke-linejoin:miter;stroke-width:1.25;"/>
   </g>
   <g id="patch_36">
    <path d="M 276.407315 493.438125 
L 479.316406 493.438125 
" style="fill:none;stroke:#ffffff;stroke-linecap:square;stroke-linejoin:miter;stroke-width:1.25;"/>
   </g>
   <g id="text_88">
    <!-- Swish -->
    <g style="fill:#262626;" transform="translate(360.550923 487.438125)scale(0.12 -0.12)">
     <defs>
      <path d="M 269 3500 
L 844 3500 
L 1563 769 
L 2278 3500 
L 2956 3500 
L 3675 769 
L 4391 3500 
L 4966 3500 
L 4050 0 
L 3372 0 
L 2619 2869 
L 1863 0 
L 1184 0 
L 269 3500 
z
" id="DejaVuSans-77" transform="scale(0.015625)"/>
      <path d="M 2834 3397 
L 2834 2853 
Q 2591 2978 2328 3040 
Q 2066 3103 1784 3103 
Q 1356 3103 1142 2972 
Q 928 2841 928 2578 
Q 928 2378 1081 2264 
Q 1234 2150 1697 2047 
L 1894 2003 
Q 2506 1872 2764 1633 
Q 3022 1394 3022 966 
Q 3022 478 2636 193 
Q 2250 -91 1575 -91 
Q 1294 -91 989 -36 
Q 684 19 347 128 
L 347 722 
Q 666 556 975 473 
Q 1284 391 1588 391 
Q 1994 391 2212 530 
Q 2431 669 2431 922 
Q 2431 1156 2273 1281 
Q 2116 1406 1581 1522 
L 1381 1569 
Q 847 1681 609 1914 
Q 372 2147 372 2553 
Q 372 3047 722 3315 
Q 1072 3584 1716 3584 
Q 2034 3584 2315 3537 
Q 2597 3491 2834 3397 
z
" id="DejaVuSans-73" transform="scale(0.015625)"/>
     </defs>
     <use xlink:href="#DejaVuSans-53"/>
     <use x="63.476562" xlink:href="#DejaVuSans-77"/>
     <use x="145.263672" xlink:href="#DejaVuSans-69"/>
     <use x="173.046875" xlink:href="#DejaVuSans-73"/>
     <use x="225.146484" xlink:href="#DejaVuSans-68"/>
    </g>
   </g>
   <g id="legend_6">
    <g id="patch_37">
     <path d="M 284.107315 534.53 
L 367.184815 534.53 
Q 369.384815 534.53 369.384815 532.33 
L 369.384815 501.138125 
Q 369.384815 498.938125 367.184815 498.938125 
L 284.107315 498.938125 
Q 281.907315 498.938125 281.907315 501.138125 
L 281.907315 532.33 
Q 281.907315 534.53 284.107315 534.53 
z
" style="fill:#eaeaf2;opacity:0.8;stroke:#cccccc;stroke-linejoin:miter;"/>
    </g>
    <g id="line2d_105">
     <path d="M 286.307315 507.846406 
L 308.307315 507.846406 
" style="fill:none;stroke:#4c72b0;stroke-linecap:round;stroke-width:2;"/>
    </g>
    <g id="line2d_106"/>
    <g id="text_89">
     <!-- ActFn -->
     <g style="fill:#262626;" transform="translate(317.107315 511.696406)scale(0.11 -0.11)">
      <use xlink:href="#DejaVuSans-41"/>
      <use x="66.658203" xlink:href="#DejaVuSans-63"/>
      <use x="121.638672" xlink:href="#DejaVuSans-74"/>
      <use x="160.847656" xlink:href="#DejaVuSans-46"/>
      <use x="218.367188" xlink:href="#DejaVuSans-6e"/>
     </g>
    </g>
    <g id="line2d_107">
     <path d="M 286.307315 523.992344 
L 308.307315 523.992344 
" style="fill:none;stroke:#dd8452;stroke-linecap:round;stroke-width:2;"/>
    </g>
    <g id="line2d_108"/>
    <g id="text_90">
     <!-- Gradient -->
     <g style="fill:#262626;" transform="translate(317.107315 527.842344)scale(0.11 -0.11)">
      <use xlink:href="#DejaVuSans-47"/>
      <use x="77.490234" xlink:href="#DejaVuSans-72"/>
      <use x="118.603516" xlink:href="#DejaVuSans-61"/>
      <use x="179.882812" xlink:href="#DejaVuSans-64"/>
      <use x="243.359375" xlink:href="#DejaVuSans-69"/>
      <use x="271.142578" xlink:href="#DejaVuSans-65"/>
      <use x="332.666016" xlink:href="#DejaVuSans-6e"/>
      <use x="396.044922" xlink:href="#DejaVuSans-74"/>
     </g>
    </g>
   </g>
  </g>
 </g>
 <defs>
  <clipPath id="p26f8441500">
   <rect height="181.2" width="202.909091" x="32.916406" y="22.318125"/>
  </clipPath>
  <clipPath id="p98b792ab95">
   <rect height="181.2" width="202.909091" x="276.407315" y="22.318125"/>
  </clipPath>
  <clipPath id="pa8f9ddb27c">
   <rect height="181.2" width="202.909091" x="32.916406" y="257.878125"/>
  </clipPath>
  <clipPath id="p3625a4867c">
   <rect height="181.2" width="202.909091" x="276.407315" y="257.878125"/>
  </clipPath>
  <clipPath id="pb127e348e5">
   <rect height="181.2" width="202.909091" x="32.916406" y="493.438125"/>
  </clipPath>
  <clipPath id="p8e9933f396">
   <rect height="181.2" width="202.909091" x="276.407315" y="493.438125"/>
  </clipPath>
 </defs>
</svg>
