<?xml version="1.0" encoding="utf-8" standalone="no"?>
<!DOCTYPE svg PUBLIC "-//W3C//DTD SVG 1.1//EN"
  "http://www.w3.org/Graphics/SVG/1.1/DTD/svg11.dtd">
<svg xmlns:xlink="http://www.w3.org/1999/xlink" width="393.732813pt" height="226.194375pt" viewBox="0 0 393.732813 226.194375" xmlns="http://www.w3.org/2000/svg" version="1.1">
 <metadata>
  <rdf:RDF xmlns:dc="http://purl.org/dc/elements/1.1/" xmlns:cc="http://creativecommons.org/ns#" xmlns:rdf="http://www.w3.org/1999/02/22-rdf-syntax-ns#">
   <cc:Work>
    <dc:type rdf:resource="http://purl.org/dc/dcmitype/StillImage"/>
    <dc:date>2024-09-01T12:11:54.135529</dc:date>
    <dc:format>image/svg+xml</dc:format>
    <dc:creator>
     <cc:Agent>
      <dc:title>Matplotlib v3.9.2, https://matplotlib.org/</dc:title>
     </cc:Agent>
    </dc:creator>
   </cc:Work>
  </rdf:RDF>
 </metadata>
 <defs>
  <style type="text/css">*{stroke-linejoin: round; stroke-linecap: butt}</style>
 </defs>
 <g id="figure_1">
  <g id="patch_1">
   <path d="M 0 226.194375 
L 393.732813 226.194375 
L 393.732813 0 
L 0 0 
z
" style="fill: #ffffff"/>
  </g>
  <g id="axes_1">
   <g id="patch_2">
    <path d="M 43.78125 188.638125 
L 378.58125 188.638125 
L 378.58125 22.318125 
L 43.78125 22.318125 
z
" style="fill: #ffffff"/>
   </g>
   <g id="matplotlib.axis_1">
    <g id="xtick_1">
     <g id="text_1">
      <!-- -4.0 -->
      <g style="fill: #262626" transform="translate(34.025781 203.236563) scale(0.1 -0.1)">
       <defs>
        <path id="DejaVuSans-2d" d="M 313 2009 
L 1997 2009 
L 1997 1497 
L 313 1497 
L 313 2009 
z
" transform="scale(0.015625)"/>
        <path id="DejaVuSans-34" d="M 2419 4116 
L 825 1625 
L 2419 1625 
L 2419 4116 
z
M 2253 4666 
L 3047 4666 
L 3047 1625 
L 3713 1625 
L 3713 1100 
L 3047 1100 
L 3047 0 
L 2419 0 
L 2419 1100 
L 313 1100 
L 313 1709 
L 2253 4666 
z
" transform="scale(0.015625)"/>
        <path id="DejaVuSans-2e" d="M 684 794 
L 1344 794 
L 1344 0 
L 684 0 
L 684 794 
z
" transform="scale(0.015625)"/>
        <path id="DejaVuSans-30" d="M 2034 4250 
Q 1547 4250 1301 3770 
Q 1056 3291 1056 2328 
Q 1056 1369 1301 889 
Q 1547 409 2034 409 
Q 2525 409 2770 889 
Q 3016 1369 3016 2328 
Q 3016 3291 2770 3770 
Q 2525 4250 2034 4250 
z
M 2034 4750 
Q 2819 4750 3233 4129 
Q 3647 3509 3647 2328 
Q 3647 1150 3233 529 
Q 2819 -91 2034 -91 
Q 1250 -91 836 529 
Q 422 1150 422 2328 
Q 422 3509 836 4129 
Q 1250 4750 2034 4750 
z
" transform="scale(0.015625)"/>
       </defs>
       <use xlink:href="#DejaVuSans-2d"/>
       <use xlink:href="#DejaVuSans-34" x="36.083984"/>
       <use xlink:href="#DejaVuSans-2e" x="99.707031"/>
       <use xlink:href="#DejaVuSans-30" x="131.494141"/>
      </g>
     </g>
    </g>
    <g id="xtick_2">
     <g id="text_2">
      <!-- -1.9 -->
      <g style="fill: #262626" transform="translate(120.344677 203.236563) scale(0.1 -0.1)">
       <defs>
        <path id="DejaVuSans-31" d="M 794 531 
L 1825 531 
L 1825 4091 
L 703 3866 
L 703 4441 
L 1819 4666 
L 2450 4666 
L 2450 531 
L 3481 531 
L 3481 0 
L 794 0 
L 794 531 
z
" transform="scale(0.015625)"/>
        <path id="DejaVuSans-39" d="M 703 97 
L 703 672 
Q 941 559 1184 500 
Q 1428 441 1663 441 
Q 2288 441 2617 861 
Q 2947 1281 2994 2138 
Q 2813 1869 2534 1725 
Q 2256 1581 1919 1581 
Q 1219 1581 811 2004 
Q 403 2428 403 3163 
Q 403 3881 828 4315 
Q 1253 4750 1959 4750 
Q 2769 4750 3195 4129 
Q 3622 3509 3622 2328 
Q 3622 1225 3098 567 
Q 2575 -91 1691 -91 
Q 1453 -91 1209 -44 
Q 966 3 703 97 
z
M 1959 2075 
Q 2384 2075 2632 2365 
Q 2881 2656 2881 3163 
Q 2881 3666 2632 3958 
Q 2384 4250 1959 4250 
Q 1534 4250 1286 3958 
Q 1038 3666 1038 3163 
Q 1038 2656 1286 2365 
Q 1534 2075 1959 2075 
z
" transform="scale(0.015625)"/>
       </defs>
       <use xlink:href="#DejaVuSans-2d"/>
       <use xlink:href="#DejaVuSans-31" x="36.083984"/>
       <use xlink:href="#DejaVuSans-2e" x="99.707031"/>
       <use xlink:href="#DejaVuSans-39" x="131.494141"/>
      </g>
     </g>
    </g>
    <g id="xtick_3">
     <g id="text_3">
      <!-- -1.1 -->
      <g style="fill: #262626" transform="translate(155.9617 203.236563) scale(0.1 -0.1)">
       <use xlink:href="#DejaVuSans-2d"/>
       <use xlink:href="#DejaVuSans-31" x="36.083984"/>
       <use xlink:href="#DejaVuSans-2e" x="99.707031"/>
       <use xlink:href="#DejaVuSans-31" x="131.494141"/>
      </g>
     </g>
    </g>
    <g id="xtick_4">
     <g id="text_4">
      <!-- -0.5 -->
      <g style="fill: #262626" transform="translate(180.265081 203.236563) scale(0.1 -0.1)">
       <defs>
        <path id="DejaVuSans-35" d="M 691 4666 
L 3169 4666 
L 3169 4134 
L 1269 4134 
L 1269 2991 
Q 1406 3038 1543 3061 
Q 1681 3084 1819 3084 
Q 2600 3084 3056 2656 
Q 3513 2228 3513 1497 
Q 3513 744 3044 326 
Q 2575 -91 1722 -91 
Q 1428 -91 1123 -41 
Q 819 9 494 109 
L 494 744 
Q 775 591 1075 516 
Q 1375 441 1709 441 
Q 2250 441 2565 725 
Q 2881 1009 2881 1497 
Q 2881 1984 2565 2268 
Q 2250 2553 1709 2553 
Q 1456 2553 1204 2497 
Q 953 2441 691 2322 
L 691 4666 
z
" transform="scale(0.015625)"/>
       </defs>
       <use xlink:href="#DejaVuSans-2d"/>
       <use xlink:href="#DejaVuSans-30" x="36.083984"/>
       <use xlink:href="#DejaVuSans-2e" x="99.707031"/>
       <use xlink:href="#DejaVuSans-35" x="131.494141"/>
      </g>
     </g>
    </g>
    <g id="xtick_5">
     <g id="text_5">
      <!-- 0.0 -->
      <g style="fill: #262626" transform="translate(203.439199 203.236563) scale(0.1 -0.1)">
       <use xlink:href="#DejaVuSans-30"/>
       <use xlink:href="#DejaVuSans-2e" x="63.623047"/>
       <use xlink:href="#DejaVuSans-30" x="95.410156"/>
      </g>
     </g>
    </g>
    <g id="xtick_6">
     <g id="text_6">
      <!-- 0.5 -->
      <g style="fill: #262626" transform="translate(225.228435 203.236563) scale(0.1 -0.1)">
       <use xlink:href="#DejaVuSans-30"/>
       <use xlink:href="#DejaVuSans-2e" x="63.623047"/>
       <use xlink:href="#DejaVuSans-35" x="95.410156"/>
      </g>
     </g>
    </g>
    <g id="xtick_7">
     <g id="text_7">
      <!-- 1.1 -->
      <g style="fill: #262626" transform="translate(249.531811 203.236563) scale(0.1 -0.1)">
       <use xlink:href="#DejaVuSans-31"/>
       <use xlink:href="#DejaVuSans-2e" x="63.623047"/>
       <use xlink:href="#DejaVuSans-31" x="95.410156"/>
      </g>
     </g>
    </g>
    <g id="xtick_8">
     <g id="text_8">
      <!-- 1.9 -->
      <g style="fill: #262626" transform="translate(285.148833 203.236563) scale(0.1 -0.1)">
       <use xlink:href="#DejaVuSans-31"/>
       <use xlink:href="#DejaVuSans-2e" x="63.623047"/>
       <use xlink:href="#DejaVuSans-39" x="95.410156"/>
      </g>
     </g>
    </g>
    <g id="xtick_9">
     <g id="text_9">
      <!-- 4.0 -->
      <g style="fill: #262626" transform="translate(370.629688 203.236563) scale(0.1 -0.1)">
       <use xlink:href="#DejaVuSans-34"/>
       <use xlink:href="#DejaVuSans-2e" x="63.623047"/>
       <use xlink:href="#DejaVuSans-30" x="95.410156"/>
      </g>
     </g>
    </g>
    <g id="text_10">
     <!-- z -->
     <g style="fill: #262626" transform="translate(208.557031 216.914688) scale(0.1 -0.1)">
      <defs>
       <path id="DejaVuSans-7a" d="M 353 3500 
L 3084 3500 
L 3084 2975 
L 922 459 
L 3084 459 
L 3084 0 
L 275 0 
L 275 525 
L 2438 3041 
L 353 3041 
L 353 3500 
z
" transform="scale(0.015625)"/>
      </defs>
      <use xlink:href="#DejaVuSans-7a"/>
     </g>
    </g>
   </g>
   <g id="matplotlib.axis_2">
    <g id="ytick_1">
     <g id="text_11">
      <!-- 0.0 -->
      <g style="fill: #262626" transform="translate(20.878125 192.437344) scale(0.1 -0.1)">
       <use xlink:href="#DejaVuSans-30"/>
       <use xlink:href="#DejaVuSans-2e" x="63.623047"/>
       <use xlink:href="#DejaVuSans-30" x="95.410156"/>
      </g>
     </g>
    </g>
    <g id="ytick_2">
     <g id="text_12">
      <!-- 0.2 -->
      <g style="fill: #262626" transform="translate(20.878125 152.023966) scale(0.1 -0.1)">
       <defs>
        <path id="DejaVuSans-32" d="M 1228 531 
L 3431 531 
L 3431 0 
L 469 0 
L 469 531 
Q 828 903 1448 1529 
Q 2069 2156 2228 2338 
Q 2531 2678 2651 2914 
Q 2772 3150 2772 3378 
Q 2772 3750 2511 3984 
Q 2250 4219 1831 4219 
Q 1534 4219 1204 4116 
Q 875 4013 500 3803 
L 500 4441 
Q 881 4594 1212 4672 
Q 1544 4750 1819 4750 
Q 2544 4750 2975 4387 
Q 3406 4025 3406 3419 
Q 3406 3131 3298 2873 
Q 3191 2616 2906 2266 
Q 2828 2175 2409 1742 
Q 1991 1309 1228 531 
z
" transform="scale(0.015625)"/>
       </defs>
       <use xlink:href="#DejaVuSans-30"/>
       <use xlink:href="#DejaVuSans-2e" x="63.623047"/>
       <use xlink:href="#DejaVuSans-32" x="95.410156"/>
      </g>
     </g>
    </g>
    <g id="ytick_3">
     <g id="text_13">
      <!-- 0.4 -->
      <g style="fill: #262626" transform="translate(20.878125 111.610589) scale(0.1 -0.1)">
       <use xlink:href="#DejaVuSans-30"/>
       <use xlink:href="#DejaVuSans-2e" x="63.623047"/>
       <use xlink:href="#DejaVuSans-34" x="95.410156"/>
      </g>
     </g>
    </g>
    <g id="ytick_4">
     <g id="text_14">
      <!-- 0.6 -->
      <g style="fill: #262626" transform="translate(20.878125 71.197211) scale(0.1 -0.1)">
       <defs>
        <path id="DejaVuSans-36" d="M 2113 2584 
Q 1688 2584 1439 2293 
Q 1191 2003 1191 1497 
Q 1191 994 1439 701 
Q 1688 409 2113 409 
Q 2538 409 2786 701 
Q 3034 994 3034 1497 
Q 3034 2003 2786 2293 
Q 2538 2584 2113 2584 
z
M 3366 4563 
L 3366 3988 
Q 3128 4100 2886 4159 
Q 2644 4219 2406 4219 
Q 1781 4219 1451 3797 
Q 1122 3375 1075 2522 
Q 1259 2794 1537 2939 
Q 1816 3084 2150 3084 
Q 2853 3084 3261 2657 
Q 3669 2231 3669 1497 
Q 3669 778 3244 343 
Q 2819 -91 2113 -91 
Q 1303 -91 875 529 
Q 447 1150 447 2328 
Q 447 3434 972 4092 
Q 1497 4750 2381 4750 
Q 2619 4750 2861 4703 
Q 3103 4656 3366 4563 
z
" transform="scale(0.015625)"/>
       </defs>
       <use xlink:href="#DejaVuSans-30"/>
       <use xlink:href="#DejaVuSans-2e" x="63.623047"/>
       <use xlink:href="#DejaVuSans-36" x="95.410156"/>
      </g>
     </g>
    </g>
    <g id="ytick_5">
     <g id="text_15">
      <!-- 0.8 -->
      <g style="fill: #262626" transform="translate(20.878125 30.783833) scale(0.1 -0.1)">
       <defs>
        <path id="DejaVuSans-38" d="M 2034 2216 
Q 1584 2216 1326 1975 
Q 1069 1734 1069 1313 
Q 1069 891 1326 650 
Q 1584 409 2034 409 
Q 2484 409 2743 651 
Q 3003 894 3003 1313 
Q 3003 1734 2745 1975 
Q 2488 2216 2034 2216 
z
M 1403 2484 
Q 997 2584 770 2862 
Q 544 3141 544 3541 
Q 544 4100 942 4425 
Q 1341 4750 2034 4750 
Q 2731 4750 3128 4425 
Q 3525 4100 3525 3541 
Q 3525 3141 3298 2862 
Q 3072 2584 2669 2484 
Q 3125 2378 3379 2068 
Q 3634 1759 3634 1313 
Q 3634 634 3220 271 
Q 2806 -91 2034 -91 
Q 1263 -91 848 271 
Q 434 634 434 1313 
Q 434 1759 690 2068 
Q 947 2378 1403 2484 
z
M 1172 3481 
Q 1172 3119 1398 2916 
Q 1625 2713 2034 2713 
Q 2441 2713 2670 2916 
Q 2900 3119 2900 3481 
Q 2900 3844 2670 4047 
Q 2441 4250 2034 4250 
Q 1625 4250 1398 4047 
Q 1172 3844 1172 3481 
z
" transform="scale(0.015625)"/>
       </defs>
       <use xlink:href="#DejaVuSans-30"/>
       <use xlink:href="#DejaVuSans-2e" x="63.623047"/>
       <use xlink:href="#DejaVuSans-38" x="95.410156"/>
      </g>
     </g>
    </g>
    <g id="text_16">
     <!-- Probability -->
     <g style="fill: #262626" transform="translate(14.798438 131.907031) rotate(-90) scale(0.1 -0.1)">
      <defs>
       <path id="DejaVuSans-50" d="M 1259 4147 
L 1259 2394 
L 2053 2394 
Q 2494 2394 2734 2622 
Q 2975 2850 2975 3272 
Q 2975 3691 2734 3919 
Q 2494 4147 2053 4147 
L 1259 4147 
z
M 628 4666 
L 2053 4666 
Q 2838 4666 3239 4311 
Q 3641 3956 3641 3272 
Q 3641 2581 3239 2228 
Q 2838 1875 2053 1875 
L 1259 1875 
L 1259 0 
L 628 0 
L 628 4666 
z
" transform="scale(0.015625)"/>
       <path id="DejaVuSans-72" d="M 2631 2963 
Q 2534 3019 2420 3045 
Q 2306 3072 2169 3072 
Q 1681 3072 1420 2755 
Q 1159 2438 1159 1844 
L 1159 0 
L 581 0 
L 581 3500 
L 1159 3500 
L 1159 2956 
Q 1341 3275 1631 3429 
Q 1922 3584 2338 3584 
Q 2397 3584 2469 3576 
Q 2541 3569 2628 3553 
L 2631 2963 
z
" transform="scale(0.015625)"/>
       <path id="DejaVuSans-6f" d="M 1959 3097 
Q 1497 3097 1228 2736 
Q 959 2375 959 1747 
Q 959 1119 1226 758 
Q 1494 397 1959 397 
Q 2419 397 2687 759 
Q 2956 1122 2956 1747 
Q 2956 2369 2687 2733 
Q 2419 3097 1959 3097 
z
M 1959 3584 
Q 2709 3584 3137 3096 
Q 3566 2609 3566 1747 
Q 3566 888 3137 398 
Q 2709 -91 1959 -91 
Q 1206 -91 779 398 
Q 353 888 353 1747 
Q 353 2609 779 3096 
Q 1206 3584 1959 3584 
z
" transform="scale(0.015625)"/>
       <path id="DejaVuSans-62" d="M 3116 1747 
Q 3116 2381 2855 2742 
Q 2594 3103 2138 3103 
Q 1681 3103 1420 2742 
Q 1159 2381 1159 1747 
Q 1159 1113 1420 752 
Q 1681 391 2138 391 
Q 2594 391 2855 752 
Q 3116 1113 3116 1747 
z
M 1159 2969 
Q 1341 3281 1617 3432 
Q 1894 3584 2278 3584 
Q 2916 3584 3314 3078 
Q 3713 2572 3713 1747 
Q 3713 922 3314 415 
Q 2916 -91 2278 -91 
Q 1894 -91 1617 61 
Q 1341 213 1159 525 
L 1159 0 
L 581 0 
L 581 4863 
L 1159 4863 
L 1159 2969 
z
" transform="scale(0.015625)"/>
       <path id="DejaVuSans-61" d="M 2194 1759 
Q 1497 1759 1228 1600 
Q 959 1441 959 1056 
Q 959 750 1161 570 
Q 1363 391 1709 391 
Q 2188 391 2477 730 
Q 2766 1069 2766 1631 
L 2766 1759 
L 2194 1759 
z
M 3341 1997 
L 3341 0 
L 2766 0 
L 2766 531 
Q 2569 213 2275 61 
Q 1981 -91 1556 -91 
Q 1019 -91 701 211 
Q 384 513 384 1019 
Q 384 1609 779 1909 
Q 1175 2209 1959 2209 
L 2766 2209 
L 2766 2266 
Q 2766 2663 2505 2880 
Q 2244 3097 1772 3097 
Q 1472 3097 1187 3025 
Q 903 2953 641 2809 
L 641 3341 
Q 956 3463 1253 3523 
Q 1550 3584 1831 3584 
Q 2591 3584 2966 3190 
Q 3341 2797 3341 1997 
z
" transform="scale(0.015625)"/>
       <path id="DejaVuSans-69" d="M 603 3500 
L 1178 3500 
L 1178 0 
L 603 0 
L 603 3500 
z
M 603 4863 
L 1178 4863 
L 1178 4134 
L 603 4134 
L 603 4863 
z
" transform="scale(0.015625)"/>
       <path id="DejaVuSans-6c" d="M 603 4863 
L 1178 4863 
L 1178 0 
L 603 0 
L 603 4863 
z
" transform="scale(0.015625)"/>
       <path id="DejaVuSans-74" d="M 1172 4494 
L 1172 3500 
L 2356 3500 
L 2356 3053 
L 1172 3053 
L 1172 1153 
Q 1172 725 1289 603 
Q 1406 481 1766 481 
L 2356 481 
L 2356 0 
L 1766 0 
Q 1100 0 847 248 
Q 594 497 594 1153 
L 594 3053 
L 172 3053 
L 172 3500 
L 594 3500 
L 594 4494 
L 1172 4494 
z
" transform="scale(0.015625)"/>
       <path id="DejaVuSans-79" d="M 2059 -325 
Q 1816 -950 1584 -1140 
Q 1353 -1331 966 -1331 
L 506 -1331 
L 506 -850 
L 844 -850 
Q 1081 -850 1212 -737 
Q 1344 -625 1503 -206 
L 1606 56 
L 191 3500 
L 800 3500 
L 1894 763 
L 2988 3500 
L 3597 3500 
L 2059 -325 
z
" transform="scale(0.015625)"/>
      </defs>
      <use xlink:href="#DejaVuSans-50"/>
      <use xlink:href="#DejaVuSans-72" x="58.552734"/>
      <use xlink:href="#DejaVuSans-6f" x="97.416016"/>
      <use xlink:href="#DejaVuSans-62" x="158.597656"/>
      <use xlink:href="#DejaVuSans-61" x="222.074219"/>
      <use xlink:href="#DejaVuSans-62" x="283.353516"/>
      <use xlink:href="#DejaVuSans-69" x="346.830078"/>
      <use xlink:href="#DejaVuSans-6c" x="374.613281"/>
      <use xlink:href="#DejaVuSans-69" x="402.396484"/>
      <use xlink:href="#DejaVuSans-74" x="430.179688"/>
      <use xlink:href="#DejaVuSans-79" x="469.388672"/>
     </g>
    </g>
   </g>
   <g id="PolyCollection_1">
    <defs>
     <path id="m96165d11fa" d="M 43.78125 -37.55625 
L 43.78125 -39.697679 
L 44.200273 -39.718418 
L 44.619297 -39.739352 
L 45.03832 -39.76048 
L 45.457344 -39.781804 
L 45.876367 -39.803325 
L 46.29539 -39.825048 
L 46.714414 -39.846971 
L 47.133437 -39.869097 
L 47.55246 -39.891429 
L 47.971484 -39.913966 
L 48.390507 -39.936713 
L 48.809531 -39.959668 
L 49.228554 -39.982837 
L 49.647577 -40.006218 
L 50.066601 -40.029814 
L 50.485634 -40.053628 
L 50.904657 -40.077661 
L 51.323681 -40.101914 
L 51.742704 -40.12639 
L 52.161728 -40.151089 
L 52.580751 -40.176016 
L 52.999774 -40.201171 
L 53.418798 -40.226554 
L 53.837821 -40.252171 
L 54.256844 -40.27802 
L 54.675868 -40.304104 
L 55.094891 -40.330427 
L 55.513915 -40.356988 
L 55.932938 -40.383791 
L 56.351961 -40.410837 
L 56.770985 -40.438129 
L 57.190008 -40.465667 
L 57.609032 -40.493456 
L 58.028055 -40.521493 
L 58.447078 -40.549785 
L 58.866102 -40.578331 
L 59.285125 -40.607135 
L 59.704148 -40.636197 
L 60.123172 -40.665521 
L 60.542205 -40.695109 
L 60.961229 -40.72496 
L 61.380252 -40.755079 
L 61.799275 -40.785467 
L 62.218299 -40.816126 
L 62.637322 -40.847059 
L 63.056345 -40.878268 
L 63.475369 -40.909754 
L 63.894392 -40.94152 
L 64.313416 -40.973567 
L 64.732439 -41.005899 
L 65.151462 -41.038516 
L 65.570486 -41.071422 
L 65.989509 -41.104617 
L 66.408532 -41.138106 
L 66.827556 -41.17189 
L 67.246579 -41.20597 
L 67.665603 -41.24035 
L 68.084626 -41.275029 
L 68.503649 -41.310013 
L 68.922673 -41.345302 
L 69.341696 -41.3809 
L 69.76072 -41.416808 
L 70.179743 -41.453027 
L 70.598776 -41.489563 
L 71.0178 -41.526414 
L 71.436823 -41.563585 
L 71.855846 -41.601075 
L 72.27487 -41.638891 
L 72.693893 -41.67703 
L 73.112917 -41.715499 
L 73.53194 -41.754298 
L 73.950963 -41.793431 
L 74.369987 -41.832896 
L 74.78901 -41.8727 
L 75.208033 -41.912843 
L 75.627057 -41.953329 
L 76.04608 -41.994156 
L 76.465104 -42.035331 
L 76.884127 -42.076855 
L 77.30315 -42.118732 
L 77.722174 -42.160959 
L 78.141197 -42.203541 
L 78.56022 -42.246484 
L 78.979244 -42.289785 
L 79.398267 -42.33345 
L 79.817291 -42.377478 
L 80.236314 -42.421872 
L 80.655347 -42.466639 
L 81.074371 -42.511777 
L 81.493394 -42.557286 
L 81.912418 -42.603175 
L 82.331441 -42.649442 
L 82.750464 -42.696088 
L 83.169488 -42.743117 
L 83.588511 -42.790534 
L 84.007534 -42.838337 
L 84.426558 -42.88653 
L 84.845581 -42.935117 
L 85.264605 -42.984097 
L 85.683628 -43.033475 
L 86.102651 -43.083251 
L 86.521675 -43.133428 
L 86.940698 -43.184011 
L 87.359721 -43.234998 
L 87.778745 -43.286395 
L 88.197768 -43.338203 
L 88.616792 -43.390423 
L 89.035815 -43.443058 
L 89.454838 -43.496112 
L 89.873862 -43.549584 
L 90.292885 -43.603476 
L 90.711908 -43.657792 
L 91.130932 -43.712535 
L 91.549955 -43.767706 
L 91.968979 -43.823306 
L 92.388002 -43.87934 
L 92.807025 -43.935806 
L 93.226049 -43.992711 
L 93.645072 -44.050055 
L 94.064106 -44.107837 
L 94.483129 -44.166066 
L 94.902152 -44.224735 
L 95.321176 -44.283852 
L 95.740199 -44.343419 
L 96.159222 -44.403437 
L 96.578246 -44.463907 
L 96.997269 -44.524832 
L 97.416293 -44.586214 
L 97.835316 -44.648055 
L 98.254339 -44.710354 
L 98.673363 -44.773115 
L 99.092386 -44.83634 
L 99.511409 -44.900031 
L 99.930433 -44.964191 
L 100.349456 -45.028819 
L 100.76848 -45.093917 
L 101.187503 -45.159492 
L 101.606526 -45.225535 
L 102.02555 -45.292059 
L 102.444573 -45.359056 
L 102.863596 -45.426536 
L 103.28262 -45.494493 
L 103.701643 -45.562934 
L 104.120677 -45.631859 
L 104.5397 -45.701271 
L 104.958723 -45.771167 
L 105.377747 -45.841546 
L 105.79677 -45.912418 
L 106.215794 -45.983783 
L 106.634817 -46.055632 
L 107.05384 -46.127979 
L 107.472864 -46.200819 
L 107.891887 -46.274152 
L 108.31091 -46.347981 
L 108.729934 -46.422306 
L 109.148957 -46.49713 
L 109.567981 -46.572453 
L 109.987004 -46.648271 
L 110.406027 -46.724592 
L 110.825051 -46.801416 
L 111.244074 -46.878738 
L 111.663097 -46.956567 
L 112.082121 -47.034892 
L 112.501144 -47.113725 
L 112.920168 -47.193061 
L 113.339191 -47.272898 
L 113.758214 -47.353243 
L 114.177248 -47.434093 
L 114.596271 -47.515447 
L 115.015294 -47.597304 
L 115.434318 -47.67967 
L 115.853341 -47.762541 
L 116.272365 -47.845913 
L 116.691388 -47.929794 
L 117.110411 -48.014173 
L 117.529435 -48.099064 
L 117.948458 -48.184455 
L 118.367482 -48.270355 
L 118.786505 -48.356753 
L 119.205528 -48.443656 
L 119.624552 -48.531058 
L 120.043575 -48.618963 
L 120.462598 -48.707369 
L 120.881622 -48.796278 
L 121.300645 -48.885679 
L 121.719669 -48.975585 
L 122.138692 -49.065985 
L 122.557715 -49.15688 
L 122.976739 -49.248268 
L 123.395762 -49.340148 
L 123.814785 -49.432522 
L 124.233819 -49.525383 
L 124.652842 -49.618732 
L 125.071866 -49.71257 
L 125.490889 -49.806888 
L 125.909912 -49.901691 
L 126.328936 -49.996978 
L 126.747959 -50.092738 
L 127.166982 -50.188975 
L 127.586006 -50.285684 
L 128.005029 -50.382871 
L 128.424053 -50.480516 
L 128.843076 -50.578631 
L 129.262099 -50.677215 
L 129.681123 -50.776251 
L 129.681123 -37.55625 
L 129.681123 -37.55625 
L 129.262099 -37.55625 
L 128.843076 -37.55625 
L 128.424053 -37.55625 
L 128.005029 -37.55625 
L 127.586006 -37.55625 
L 127.166982 -37.55625 
L 126.747959 -37.55625 
L 126.328936 -37.55625 
L 125.909912 -37.55625 
L 125.490889 -37.55625 
L 125.071866 -37.55625 
L 124.652842 -37.55625 
L 124.233819 -37.55625 
L 123.814785 -37.55625 
L 123.395762 -37.55625 
L 122.976739 -37.55625 
L 122.557715 -37.55625 
L 122.138692 -37.55625 
L 121.719669 -37.55625 
L 121.300645 -37.55625 
L 120.881622 -37.55625 
L 120.462598 -37.55625 
L 120.043575 -37.55625 
L 119.624552 -37.55625 
L 119.205528 -37.55625 
L 118.786505 -37.55625 
L 118.367482 -37.55625 
L 117.948458 -37.55625 
L 117.529435 -37.55625 
L 117.110411 -37.55625 
L 116.691388 -37.55625 
L 116.272365 -37.55625 
L 115.853341 -37.55625 
L 115.434318 -37.55625 
L 115.015294 -37.55625 
L 114.596271 -37.55625 
L 114.177248 -37.55625 
L 113.758214 -37.55625 
L 113.339191 -37.55625 
L 112.920168 -37.55625 
L 112.501144 -37.55625 
L 112.082121 -37.55625 
L 111.663097 -37.55625 
L 111.244074 -37.55625 
L 110.825051 -37.55625 
L 110.406027 -37.55625 
L 109.987004 -37.55625 
L 109.567981 -37.55625 
L 109.148957 -37.55625 
L 108.729934 -37.55625 
L 108.31091 -37.55625 
L 107.891887 -37.55625 
L 107.472864 -37.55625 
L 107.05384 -37.55625 
L 106.634817 -37.55625 
L 106.215794 -37.55625 
L 105.79677 -37.55625 
L 105.377747 -37.55625 
L 104.958723 -37.55625 
L 104.5397 -37.55625 
L 104.120677 -37.55625 
L 103.701643 -37.55625 
L 103.28262 -37.55625 
L 102.863596 -37.55625 
L 102.444573 -37.55625 
L 102.02555 -37.55625 
L 101.606526 -37.55625 
L 101.187503 -37.55625 
L 100.76848 -37.55625 
L 100.349456 -37.55625 
L 99.930433 -37.55625 
L 99.511409 -37.55625 
L 99.092386 -37.55625 
L 98.673363 -37.55625 
L 98.254339 -37.55625 
L 97.835316 -37.55625 
L 97.416293 -37.55625 
L 96.997269 -37.55625 
L 96.578246 -37.55625 
L 96.159222 -37.55625 
L 95.740199 -37.55625 
L 95.321176 -37.55625 
L 94.902152 -37.55625 
L 94.483129 -37.55625 
L 94.064106 -37.55625 
L 93.645072 -37.55625 
L 93.226049 -37.55625 
L 92.807025 -37.55625 
L 92.388002 -37.55625 
L 91.968979 -37.55625 
L 91.549955 -37.55625 
L 91.130932 -37.55625 
L 90.711908 -37.55625 
L 90.292885 -37.55625 
L 89.873862 -37.55625 
L 89.454838 -37.55625 
L 89.035815 -37.55625 
L 88.616792 -37.55625 
L 88.197768 -37.55625 
L 87.778745 -37.55625 
L 87.359721 -37.55625 
L 86.940698 -37.55625 
L 86.521675 -37.55625 
L 86.102651 -37.55625 
L 85.683628 -37.55625 
L 85.264605 -37.55625 
L 84.845581 -37.55625 
L 84.426558 -37.55625 
L 84.007534 -37.55625 
L 83.588511 -37.55625 
L 83.169488 -37.55625 
L 82.750464 -37.55625 
L 82.331441 -37.55625 
L 81.912418 -37.55625 
L 81.493394 -37.55625 
L 81.074371 -37.55625 
L 80.655347 -37.55625 
L 80.236314 -37.55625 
L 79.817291 -37.55625 
L 79.398267 -37.55625 
L 78.979244 -37.55625 
L 78.56022 -37.55625 
L 78.141197 -37.55625 
L 77.722174 -37.55625 
L 77.30315 -37.55625 
L 76.884127 -37.55625 
L 76.465104 -37.55625 
L 76.04608 -37.55625 
L 75.627057 -37.55625 
L 75.208033 -37.55625 
L 74.78901 -37.55625 
L 74.369987 -37.55625 
L 73.950963 -37.55625 
L 73.53194 -37.55625 
L 73.112917 -37.55625 
L 72.693893 -37.55625 
L 72.27487 -37.55625 
L 71.855846 -37.55625 
L 71.436823 -37.55625 
L 71.0178 -37.55625 
L 70.598776 -37.55625 
L 70.179743 -37.55625 
L 69.76072 -37.55625 
L 69.341696 -37.55625 
L 68.922673 -37.55625 
L 68.503649 -37.55625 
L 68.084626 -37.55625 
L 67.665603 -37.55625 
L 67.246579 -37.55625 
L 66.827556 -37.55625 
L 66.408532 -37.55625 
L 65.989509 -37.55625 
L 65.570486 -37.55625 
L 65.151462 -37.55625 
L 64.732439 -37.55625 
L 64.313416 -37.55625 
L 63.894392 -37.55625 
L 63.475369 -37.55625 
L 63.056345 -37.55625 
L 62.637322 -37.55625 
L 62.218299 -37.55625 
L 61.799275 -37.55625 
L 61.380252 -37.55625 
L 60.961229 -37.55625 
L 60.542205 -37.55625 
L 60.123172 -37.55625 
L 59.704148 -37.55625 
L 59.285125 -37.55625 
L 58.866102 -37.55625 
L 58.447078 -37.55625 
L 58.028055 -37.55625 
L 57.609032 -37.55625 
L 57.190008 -37.55625 
L 56.770985 -37.55625 
L 56.351961 -37.55625 
L 55.932938 -37.55625 
L 55.513915 -37.55625 
L 55.094891 -37.55625 
L 54.675868 -37.55625 
L 54.256844 -37.55625 
L 53.837821 -37.55625 
L 53.418798 -37.55625 
L 52.999774 -37.55625 
L 52.580751 -37.55625 
L 52.161728 -37.55625 
L 51.742704 -37.55625 
L 51.323681 -37.55625 
L 50.904657 -37.55625 
L 50.485634 -37.55625 
L 50.066601 -37.55625 
L 49.647577 -37.55625 
L 49.228554 -37.55625 
L 48.809531 -37.55625 
L 48.390507 -37.55625 
L 47.971484 -37.55625 
L 47.55246 -37.55625 
L 47.133437 -37.55625 
L 46.714414 -37.55625 
L 46.29539 -37.55625 
L 45.876367 -37.55625 
L 45.457344 -37.55625 
L 45.03832 -37.55625 
L 44.619297 -37.55625 
L 44.200273 -37.55625 
L 43.78125 -37.55625 
z
" style="stroke: #1f77b4; stroke-opacity: 0.5"/>
    </defs>
    <g clip-path="url(#p240affcbdd)">
     <use xlink:href="#m96165d11fa" x="0" y="226.194375" style="fill: #1f77b4; fill-opacity: 0.5; stroke: #1f77b4; stroke-opacity: 0.5"/>
    </g>
   </g>
   <g id="PolyCollection_2">
    <defs>
     <path id="m07a3ba11de" d="M 130.100146 -37.55625 
L 130.100146 -73.07491 
L 130.519174 -73.341453 
L 130.938198 -73.609189 
L 131.357221 -73.878115 
L 131.776245 -74.148227 
L 132.195268 -74.419504 
L 132.614291 -74.691959 
L 133.033315 -74.965553 
L 133.452338 -75.24032 
L 133.871367 -75.516198 
L 134.290385 -75.793204 
L 134.709408 -76.071315 
L 135.128432 -76.350519 
L 135.547455 -76.63082 
L 135.966478 -76.912204 
L 136.385502 -77.194634 
L 136.804525 -77.478119 
L 137.223554 -77.762635 
L 137.642577 -78.048175 
L 138.0616 -78.334719 
L 138.480624 -78.622246 
L 138.899647 -78.910765 
L 139.31867 -79.200239 
L 139.737694 -79.490656 
L 140.156717 -79.782003 
L 140.575746 -80.074261 
L 140.994769 -80.367439 
L 141.413792 -80.661465 
L 141.832816 -80.956373 
L 142.251839 -81.252114 
L 142.670862 -81.548689 
L 143.089886 -81.846073 
L 143.508909 -82.144242 
L 143.927938 -82.443187 
L 144.346956 -82.742869 
L 144.765979 -83.043283 
L 145.185003 -83.3444 
L 145.604026 -83.646221 
L 146.02305 -83.948697 
L 146.442073 -84.251819 
L 146.861096 -84.555567 
L 147.280125 -84.859932 
L 147.699148 -85.164855 
L 148.118171 -85.470338 
L 148.537195 -85.776345 
L 148.956218 -86.082859 
L 149.375242 -86.389868 
L 149.794265 -86.697331 
L 150.213288 -87.005217 
L 150.632317 -87.313522 
L 151.051335 -87.622199 
L 151.470358 -87.931222 
L 151.889382 -88.240593 
L 152.308405 -88.550247 
L 152.727429 -88.86019 
L 153.146452 -89.17037 
L 153.565475 -89.480762 
L 153.984504 -89.79136 
L 154.403527 -90.102108 
L 154.82255 -90.412991 
L 155.241574 -90.723975 
L 155.660597 -91.035017 
L 156.079621 -91.346108 
L 156.498644 -91.657217 
L 156.917667 -91.968293 
L 157.336696 -92.279315 
L 157.755719 -92.590256 
L 158.174743 -92.901081 
L 158.593766 -93.211757 
L 159.012789 -93.522235 
L 159.431813 -93.832511 
L 159.850836 -94.142537 
L 160.269859 -94.452273 
L 160.688888 -94.761696 
L 161.107906 -95.070773 
L 161.52693 -95.379459 
L 161.945953 -95.687711 
L 162.364976 -95.995511 
L 162.784 -96.302814 
L 163.203023 -96.609597 
L 163.622046 -96.915812 
L 164.041075 -97.221415 
L 164.460098 -97.526387 
L 164.879122 -97.830674 
L 165.298145 -98.134254 
L 165.298145 -37.55625 
L 165.298145 -37.55625 
L 164.879122 -37.55625 
L 164.460098 -37.55625 
L 164.041075 -37.55625 
L 163.622046 -37.55625 
L 163.203023 -37.55625 
L 162.784 -37.55625 
L 162.364976 -37.55625 
L 161.945953 -37.55625 
L 161.52693 -37.55625 
L 161.107906 -37.55625 
L 160.688888 -37.55625 
L 160.269859 -37.55625 
L 159.850836 -37.55625 
L 159.431813 -37.55625 
L 159.012789 -37.55625 
L 158.593766 -37.55625 
L 158.174743 -37.55625 
L 157.755719 -37.55625 
L 157.336696 -37.55625 
L 156.917667 -37.55625 
L 156.498644 -37.55625 
L 156.079621 -37.55625 
L 155.660597 -37.55625 
L 155.241574 -37.55625 
L 154.82255 -37.55625 
L 154.403527 -37.55625 
L 153.984504 -37.55625 
L 153.565475 -37.55625 
L 153.146452 -37.55625 
L 152.727429 -37.55625 
L 152.308405 -37.55625 
L 151.889382 -37.55625 
L 151.470358 -37.55625 
L 151.051335 -37.55625 
L 150.632317 -37.55625 
L 150.213288 -37.55625 
L 149.794265 -37.55625 
L 149.375242 -37.55625 
L 148.956218 -37.55625 
L 148.537195 -37.55625 
L 148.118171 -37.55625 
L 147.699148 -37.55625 
L 147.280125 -37.55625 
L 146.861096 -37.55625 
L 146.442073 -37.55625 
L 146.02305 -37.55625 
L 145.604026 -37.55625 
L 145.185003 -37.55625 
L 144.765979 -37.55625 
L 144.346956 -37.55625 
L 143.927938 -37.55625 
L 143.508909 -37.55625 
L 143.089886 -37.55625 
L 142.670862 -37.55625 
L 142.251839 -37.55625 
L 141.832816 -37.55625 
L 141.413792 -37.55625 
L 140.994769 -37.55625 
L 140.575746 -37.55625 
L 140.156717 -37.55625 
L 139.737694 -37.55625 
L 139.31867 -37.55625 
L 138.899647 -37.55625 
L 138.480624 -37.55625 
L 138.0616 -37.55625 
L 137.642577 -37.55625 
L 137.223554 -37.55625 
L 136.804525 -37.55625 
L 136.385502 -37.55625 
L 135.966478 -37.55625 
L 135.547455 -37.55625 
L 135.128432 -37.55625 
L 134.709408 -37.55625 
L 134.290385 -37.55625 
L 133.871367 -37.55625 
L 133.452338 -37.55625 
L 133.033315 -37.55625 
L 132.614291 -37.55625 
L 132.195268 -37.55625 
L 131.776245 -37.55625 
L 131.357221 -37.55625 
L 130.938198 -37.55625 
L 130.519174 -37.55625 
L 130.100146 -37.55625 
z
" style="stroke: #ff7f0e; stroke-opacity: 0.5"/>
    </defs>
    <g clip-path="url(#p240affcbdd)">
     <use xlink:href="#m07a3ba11de" x="0" y="226.194375" style="fill: #ff7f0e; fill-opacity: 0.5; stroke: #ff7f0e; stroke-opacity: 0.5"/>
    </g>
   </g>
   <g id="PolyCollection_3">
    <defs>
     <path id="m6e7eaefaf3" d="M 165.717168 -37.55625 
L 165.717168 -159.317884 
L 166.136192 -159.921959 
L 166.555215 -160.524368 
L 166.974238 -161.125023 
L 167.393267 -161.723895 
L 167.81229 -162.32087 
L 168.231314 -162.915869 
L 168.650337 -163.508815 
L 169.06936 -164.099671 
L 169.488386 -164.688301 
L 169.90741 -165.274648 
L 170.326433 -165.858615 
L 170.745456 -166.440153 
L 171.16448 -167.019177 
L 171.583503 -167.59556 
L 172.002527 -168.169275 
L 172.42155 -168.740234 
L 172.840576 -169.308331 
L 173.259599 -169.87348 
L 173.678623 -170.435642 
L 174.097646 -170.994682 
L 174.516669 -171.550581 
L 174.935693 -172.103185 
L 175.354716 -172.652455 
L 175.773739 -173.198314 
L 176.192765 -173.740647 
L 176.611789 -174.279366 
L 177.030812 -174.814453 
L 177.449835 -175.345782 
L 177.868859 -175.873276 
L 178.287882 -176.396819 
L 178.706906 -176.916364 
L 179.125929 -177.431824 
L 179.544955 -177.94316 
L 179.963978 -178.450217 
L 180.383002 -178.952939 
L 180.802025 -179.451267 
L 181.221048 -179.945067 
L 181.640072 -180.434318 
L 182.059095 -180.918926 
L 182.478119 -181.398764 
L 182.897144 -181.873813 
L 183.316168 -182.343967 
L 183.735191 -182.80915 
L 184.154215 -183.269255 
L 184.57324 -183.724243 
L 184.992264 -184.17401 
L 185.411287 -184.618515 
L 185.830311 -185.057663 
L 186.249336 -185.491329 
L 186.66836 -185.919531 
L 187.087383 -186.342126 
L 187.506407 -186.759064 
L 187.92543 -187.170241 
L 188.344453 -187.575656 
L 188.763477 -187.975174 
L 189.1825 -188.368699 
L 189.601526 -188.75625 
L 189.601526 -37.55625 
L 189.601526 -37.55625 
L 189.1825 -37.55625 
L 188.763477 -37.55625 
L 188.344453 -37.55625 
L 187.92543 -37.55625 
L 187.506407 -37.55625 
L 187.087383 -37.55625 
L 186.66836 -37.55625 
L 186.249336 -37.55625 
L 185.830311 -37.55625 
L 185.411287 -37.55625 
L 184.992264 -37.55625 
L 184.57324 -37.55625 
L 184.154215 -37.55625 
L 183.735191 -37.55625 
L 183.316168 -37.55625 
L 182.897144 -37.55625 
L 182.478119 -37.55625 
L 182.059095 -37.55625 
L 181.640072 -37.55625 
L 181.221048 -37.55625 
L 180.802025 -37.55625 
L 180.383002 -37.55625 
L 179.963978 -37.55625 
L 179.544955 -37.55625 
L 179.125929 -37.55625 
L 178.706906 -37.55625 
L 178.287882 -37.55625 
L 177.868859 -37.55625 
L 177.449835 -37.55625 
L 177.030812 -37.55625 
L 176.611789 -37.55625 
L 176.192765 -37.55625 
L 175.773739 -37.55625 
L 175.354716 -37.55625 
L 174.935693 -37.55625 
L 174.516669 -37.55625 
L 174.097646 -37.55625 
L 173.678623 -37.55625 
L 173.259599 -37.55625 
L 172.840576 -37.55625 
L 172.42155 -37.55625 
L 172.002527 -37.55625 
L 171.583503 -37.55625 
L 171.16448 -37.55625 
L 170.745456 -37.55625 
L 170.326433 -37.55625 
L 169.90741 -37.55625 
L 169.488386 -37.55625 
L 169.06936 -37.55625 
L 168.650337 -37.55625 
L 168.231314 -37.55625 
L 167.81229 -37.55625 
L 167.393267 -37.55625 
L 166.974238 -37.55625 
L 166.555215 -37.55625 
L 166.136192 -37.55625 
L 165.717168 -37.55625 
z
" style="stroke: #2ca02c; stroke-opacity: 0.5"/>
    </defs>
    <g clip-path="url(#p240affcbdd)">
     <use xlink:href="#m6e7eaefaf3" x="0" y="226.194375" style="fill: #2ca02c; fill-opacity: 0.5; stroke: #2ca02c; stroke-opacity: 0.5"/>
    </g>
   </g>
   <g id="PolyCollection_4">
    <defs>
     <path id="m7807748c4d" d="M 190.020549 -37.55625 
L 190.020549 -113.346966 
L 190.439573 -113.534599 
L 190.858596 -113.71912 
L 191.277621 -113.9005 
L 191.696644 -114.07869 
L 192.115669 -114.253653 
L 192.534692 -114.425388 
L 192.953716 -114.593851 
L 193.37274 -114.758986 
L 193.791764 -114.920772 
L 194.210787 -115.079205 
L 194.62981 -115.234237 
L 195.048834 -115.38583 
L 195.467858 -115.533972 
L 195.886882 -115.678627 
L 196.305905 -115.81976 
L 196.72493 -115.957357 
L 197.143953 -116.091398 
L 197.562976 -116.221836 
L 197.982001 -116.348651 
L 198.401024 -116.471829 
L 198.820049 -116.59134 
L 199.239072 -116.707162 
L 199.658096 -116.819278 
L 200.07712 -116.927656 
L 200.496144 -117.032276 
L 200.915167 -117.133129 
L 201.334191 -117.230185 
L 201.753215 -117.323431 
L 202.172239 -117.412837 
L 202.591263 -117.498398 
L 203.010287 -117.580101 
L 203.42931 -117.657906 
L 203.848334 -117.731828 
L 204.267357 -117.801833 
L 204.686381 -117.867912 
L 205.105405 -117.93005 
L 205.524429 -117.988242 
L 205.943453 -118.04247 
L 206.362476 -118.092723 
L 206.7815 -118.139006 
L 207.200524 -118.181271 
L 207.619548 -118.219552 
L 208.038572 -118.25382 
L 208.457595 -118.284075 
L 208.876619 -118.310292 
L 209.295643 -118.332502 
L 209.714667 -118.350674 
L 210.13369 -118.364823 
L 210.552714 -118.374921 
L 210.971738 -118.380982 
L 210.971738 -37.55625 
L 210.971738 -37.55625 
L 210.552714 -37.55625 
L 210.13369 -37.55625 
L 209.714667 -37.55625 
L 209.295643 -37.55625 
L 208.876619 -37.55625 
L 208.457595 -37.55625 
L 208.038572 -37.55625 
L 207.619548 -37.55625 
L 207.200524 -37.55625 
L 206.7815 -37.55625 
L 206.362476 -37.55625 
L 205.943453 -37.55625 
L 205.524429 -37.55625 
L 205.105405 -37.55625 
L 204.686381 -37.55625 
L 204.267357 -37.55625 
L 203.848334 -37.55625 
L 203.42931 -37.55625 
L 203.010287 -37.55625 
L 202.591263 -37.55625 
L 202.172239 -37.55625 
L 201.753215 -37.55625 
L 201.334191 -37.55625 
L 200.915167 -37.55625 
L 200.496144 -37.55625 
L 200.07712 -37.55625 
L 199.658096 -37.55625 
L 199.239072 -37.55625 
L 198.820049 -37.55625 
L 198.401024 -37.55625 
L 197.982001 -37.55625 
L 197.562976 -37.55625 
L 197.143953 -37.55625 
L 196.72493 -37.55625 
L 196.305905 -37.55625 
L 195.886882 -37.55625 
L 195.467858 -37.55625 
L 195.048834 -37.55625 
L 194.62981 -37.55625 
L 194.210787 -37.55625 
L 193.791764 -37.55625 
L 193.37274 -37.55625 
L 192.953716 -37.55625 
L 192.534692 -37.55625 
L 192.115669 -37.55625 
L 191.696644 -37.55625 
L 191.277621 -37.55625 
L 190.858596 -37.55625 
L 190.439573 -37.55625 
L 190.020549 -37.55625 
z
" style="stroke: #d62728; stroke-opacity: 0.5"/>
    </defs>
    <g clip-path="url(#p240affcbdd)">
     <use xlink:href="#m7807748c4d" x="0" y="226.194375" style="fill: #d62728; fill-opacity: 0.5; stroke: #d62728; stroke-opacity: 0.5"/>
    </g>
   </g>
   <g id="PolyCollection_5">
    <defs>
     <path id="m6dc9d21bd9" d="M 211.390762 -37.55625 
L 211.390762 -67.866283 
L 211.809785 -67.865524 
L 212.228809 -67.863252 
L 212.647833 -67.859465 
L 213.066857 -67.854163 
L 213.485881 -67.847348 
L 213.904904 -67.839023 
L 214.323928 -67.829184 
L 214.742952 -67.817839 
L 215.161976 -67.804988 
L 215.581 -67.790633 
L 216.000023 -67.77478 
L 216.419047 -67.757427 
L 216.838071 -67.738582 
L 217.257095 -67.718247 
L 217.676118 -67.696425 
L 218.095142 -67.673127 
L 218.514166 -67.648344 
L 218.933189 -67.622092 
L 219.352213 -67.594371 
L 219.771237 -67.56519 
L 220.190261 -67.534555 
L 220.609285 -67.50247 
L 221.028308 -67.468939 
L 221.447332 -67.433976 
L 221.866356 -67.397579 
L 222.28538 -67.35976 
L 222.704403 -67.320527 
L 223.123428 -67.279885 
L 223.542451 -67.237842 
L 223.961474 -67.194409 
L 224.380499 -67.149592 
L 224.799522 -67.103401 
L 225.218546 -67.055845 
L 225.63757 -67.006927 
L 226.056594 -66.956669 
L 226.475617 -66.905066 
L 226.894642 -66.852141 
L 227.313665 -66.797896 
L 227.732688 -66.742342 
L 228.151713 -66.685495 
L 228.570736 -66.62736 
L 228.989761 -66.567949 
L 229.408784 -66.507276 
L 229.827808 -66.445347 
L 230.246833 -66.382177 
L 230.665856 -66.31778 
L 231.084879 -66.252163 
L 231.503903 -66.185344 
L 231.922926 -66.117326 
L 232.341951 -66.048131 
L 232.760974 -65.977769 
L 232.760974 -37.55625 
L 232.760974 -37.55625 
L 232.341951 -37.55625 
L 231.922926 -37.55625 
L 231.503903 -37.55625 
L 231.084879 -37.55625 
L 230.665856 -37.55625 
L 230.246833 -37.55625 
L 229.827808 -37.55625 
L 229.408784 -37.55625 
L 228.989761 -37.55625 
L 228.570736 -37.55625 
L 228.151713 -37.55625 
L 227.732688 -37.55625 
L 227.313665 -37.55625 
L 226.894642 -37.55625 
L 226.475617 -37.55625 
L 226.056594 -37.55625 
L 225.63757 -37.55625 
L 225.218546 -37.55625 
L 224.799522 -37.55625 
L 224.380499 -37.55625 
L 223.961474 -37.55625 
L 223.542451 -37.55625 
L 223.123428 -37.55625 
L 222.704403 -37.55625 
L 222.28538 -37.55625 
L 221.866356 -37.55625 
L 221.447332 -37.55625 
L 221.028308 -37.55625 
L 220.609285 -37.55625 
L 220.190261 -37.55625 
L 219.771237 -37.55625 
L 219.352213 -37.55625 
L 218.933189 -37.55625 
L 218.514166 -37.55625 
L 218.095142 -37.55625 
L 217.676118 -37.55625 
L 217.257095 -37.55625 
L 216.838071 -37.55625 
L 216.419047 -37.55625 
L 216.000023 -37.55625 
L 215.581 -37.55625 
L 215.161976 -37.55625 
L 214.742952 -37.55625 
L 214.323928 -37.55625 
L 213.904904 -37.55625 
L 213.485881 -37.55625 
L 213.066857 -37.55625 
L 212.647833 -37.55625 
L 212.228809 -37.55625 
L 211.809785 -37.55625 
L 211.390762 -37.55625 
z
" style="stroke: #9467bd; stroke-opacity: 0.5"/>
    </defs>
    <g clip-path="url(#p240affcbdd)">
     <use xlink:href="#m6dc9d21bd9" x="0" y="226.194375" style="fill: #9467bd; fill-opacity: 0.5; stroke: #9467bd; stroke-opacity: 0.5"/>
    </g>
   </g>
   <g id="PolyCollection_6">
    <defs>
     <path id="m4d82518546" d="M 233.179997 -37.55625 
L 233.179997 -47.006249 
L 233.599021 -46.982028 
L 234.018044 -46.957432 
L 234.43707 -46.932463 
L 234.856093 -46.907126 
L 235.275117 -46.881426 
L 235.69414 -46.855367 
L 236.113164 -46.828955 
L 236.532189 -46.802195 
L 236.951213 -46.775087 
L 237.370236 -46.747642 
L 237.78926 -46.719861 
L 238.208283 -46.691749 
L 238.627306 -46.663313 
L 239.04633 -46.634555 
L 239.465353 -46.605481 
L 239.884379 -46.576098 
L 240.303402 -46.546407 
L 240.722426 -46.516416 
L 241.141449 -46.486129 
L 241.560475 -46.455551 
L 241.979498 -46.424687 
L 242.398522 -46.393543 
L 242.817545 -46.362123 
L 243.236571 -46.330432 
L 243.655594 -46.298475 
L 244.074618 -46.266257 
L 244.493641 -46.233786 
L 244.912665 -46.201064 
L 245.331688 -46.168096 
L 245.750711 -46.134889 
L 246.169735 -46.101447 
L 246.588761 -46.067775 
L 247.007784 -46.033878 
L 247.426807 -45.999762 
L 247.845831 -45.965433 
L 248.264854 -45.930895 
L 248.683877 -45.896153 
L 249.102901 -45.861211 
L 249.521924 -45.826077 
L 249.94095 -45.790754 
L 250.359973 -45.755248 
L 250.778997 -45.719564 
L 251.19802 -45.683707 
L 251.617044 -45.647681 
L 252.036067 -45.611494 
L 252.45509 -45.575148 
L 252.874114 -45.538649 
L 253.29314 -45.502003 
L 253.712163 -45.465213 
L 254.131186 -45.428286 
L 254.55021 -45.391226 
L 254.969233 -45.354039 
L 255.388257 -45.316728 
L 255.80728 -45.2793 
L 256.226303 -45.241757 
L 256.645327 -45.204107 
L 257.06435 -45.166353 
L 257.06435 -37.55625 
L 257.06435 -37.55625 
L 256.645327 -37.55625 
L 256.226303 -37.55625 
L 255.80728 -37.55625 
L 255.388257 -37.55625 
L 254.969233 -37.55625 
L 254.55021 -37.55625 
L 254.131186 -37.55625 
L 253.712163 -37.55625 
L 253.29314 -37.55625 
L 252.874114 -37.55625 
L 252.45509 -37.55625 
L 252.036067 -37.55625 
L 251.617044 -37.55625 
L 251.19802 -37.55625 
L 250.778997 -37.55625 
L 250.359973 -37.55625 
L 249.94095 -37.55625 
L 249.521924 -37.55625 
L 249.102901 -37.55625 
L 248.683877 -37.55625 
L 248.264854 -37.55625 
L 247.845831 -37.55625 
L 247.426807 -37.55625 
L 247.007784 -37.55625 
L 246.588761 -37.55625 
L 246.169735 -37.55625 
L 245.750711 -37.55625 
L 245.331688 -37.55625 
L 244.912665 -37.55625 
L 244.493641 -37.55625 
L 244.074618 -37.55625 
L 243.655594 -37.55625 
L 243.236571 -37.55625 
L 242.817545 -37.55625 
L 242.398522 -37.55625 
L 241.979498 -37.55625 
L 241.560475 -37.55625 
L 241.141449 -37.55625 
L 240.722426 -37.55625 
L 240.303402 -37.55625 
L 239.884379 -37.55625 
L 239.465353 -37.55625 
L 239.04633 -37.55625 
L 238.627306 -37.55625 
L 238.208283 -37.55625 
L 237.78926 -37.55625 
L 237.370236 -37.55625 
L 236.951213 -37.55625 
L 236.532189 -37.55625 
L 236.113164 -37.55625 
L 235.69414 -37.55625 
L 235.275117 -37.55625 
L 234.856093 -37.55625 
L 234.43707 -37.55625 
L 234.018044 -37.55625 
L 233.599021 -37.55625 
L 233.179997 -37.55625 
z
" style="stroke: #8c564b; stroke-opacity: 0.5"/>
    </defs>
    <g clip-path="url(#p240affcbdd)">
     <use xlink:href="#m4d82518546" x="0" y="226.194375" style="fill: #8c564b; fill-opacity: 0.5; stroke: #8c564b; stroke-opacity: 0.5"/>
    </g>
   </g>
   <g id="PolyCollection_7">
    <defs>
     <path id="mf18888c13f" d="M 257.483373 -37.55625 
L 257.483373 -41.342375 
L 257.902402 -41.323401 
L 258.321425 -41.304383 
L 258.740449 -41.285323 
L 259.159472 -41.266223 
L 259.578495 -41.247084 
L 259.997519 -41.227911 
L 260.416542 -41.208704 
L 260.835565 -41.189467 
L 261.254594 -41.1702 
L 261.673617 -41.150908 
L 262.092641 -41.131591 
L 262.511664 -41.112252 
L 262.930687 -41.092893 
L 263.349711 -41.073517 
L 263.768734 -41.054125 
L 264.187757 -41.034719 
L 264.606786 -41.015302 
L 265.025804 -40.995875 
L 265.444828 -40.976442 
L 265.863851 -40.957003 
L 266.282874 -40.93756 
L 266.701898 -40.918116 
L 267.120921 -40.898673 
L 267.539945 -40.879233 
L 267.958973 -40.859796 
L 268.377996 -40.840366 
L 268.79702 -40.820944 
L 269.216043 -40.801533 
L 269.635066 -40.782133 
L 270.05409 -40.762746 
L 270.473113 -40.743375 
L 270.892137 -40.724021 
L 271.311165 -40.704686 
L 271.730188 -40.685372 
L 272.149212 -40.666079 
L 272.568235 -40.64681 
L 272.987258 -40.627567 
L 273.406282 -40.608351 
L 273.825305 -40.589163 
L 274.244329 -40.570006 
L 274.663357 -40.55088 
L 275.082375 -40.531788 
L 275.501399 -40.51273 
L 275.920422 -40.493708 
L 276.339445 -40.474724 
L 276.758469 -40.455778 
L 277.177492 -40.436873 
L 277.596516 -40.41801 
L 278.015544 -40.399189 
L 278.434567 -40.380413 
L 278.853591 -40.361683 
L 279.272614 -40.342999 
L 279.691638 -40.324364 
L 280.110661 -40.305778 
L 280.529684 -40.287242 
L 280.948708 -40.268758 
L 281.367736 -40.250326 
L 281.786754 -40.231949 
L 282.205778 -40.213626 
L 282.624801 -40.19536 
L 283.043825 -40.17715 
L 283.462848 -40.158999 
L 283.881871 -40.140907 
L 284.300895 -40.122875 
L 284.719923 -40.104904 
L 285.138946 -40.086995 
L 285.55797 -40.069149 
L 285.976993 -40.051367 
L 286.396017 -40.033649 
L 286.81504 -40.015997 
L 287.234063 -39.998411 
L 287.653087 -39.980892 
L 288.072115 -39.963442 
L 288.491138 -39.94606 
L 288.910162 -39.928747 
L 289.329185 -39.911504 
L 289.748209 -39.894332 
L 290.167232 -39.877232 
L 290.586255 -39.860204 
L 291.005279 -39.843249 
L 291.424307 -39.826366 
L 291.843326 -39.809558 
L 292.262349 -39.792825 
L 292.681372 -39.776167 
L 292.681372 -37.55625 
L 292.681372 -37.55625 
L 292.262349 -37.55625 
L 291.843326 -37.55625 
L 291.424307 -37.55625 
L 291.005279 -37.55625 
L 290.586255 -37.55625 
L 290.167232 -37.55625 
L 289.748209 -37.55625 
L 289.329185 -37.55625 
L 288.910162 -37.55625 
L 288.491138 -37.55625 
L 288.072115 -37.55625 
L 287.653087 -37.55625 
L 287.234063 -37.55625 
L 286.81504 -37.55625 
L 286.396017 -37.55625 
L 285.976993 -37.55625 
L 285.55797 -37.55625 
L 285.138946 -37.55625 
L 284.719923 -37.55625 
L 284.300895 -37.55625 
L 283.881871 -37.55625 
L 283.462848 -37.55625 
L 283.043825 -37.55625 
L 282.624801 -37.55625 
L 282.205778 -37.55625 
L 281.786754 -37.55625 
L 281.367736 -37.55625 
L 280.948708 -37.55625 
L 280.529684 -37.55625 
L 280.110661 -37.55625 
L 279.691638 -37.55625 
L 279.272614 -37.55625 
L 278.853591 -37.55625 
L 278.434567 -37.55625 
L 278.015544 -37.55625 
L 277.596516 -37.55625 
L 277.177492 -37.55625 
L 276.758469 -37.55625 
L 276.339445 -37.55625 
L 275.920422 -37.55625 
L 275.501399 -37.55625 
L 275.082375 -37.55625 
L 274.663357 -37.55625 
L 274.244329 -37.55625 
L 273.825305 -37.55625 
L 273.406282 -37.55625 
L 272.987258 -37.55625 
L 272.568235 -37.55625 
L 272.149212 -37.55625 
L 271.730188 -37.55625 
L 271.311165 -37.55625 
L 270.892137 -37.55625 
L 270.473113 -37.55625 
L 270.05409 -37.55625 
L 269.635066 -37.55625 
L 269.216043 -37.55625 
L 268.79702 -37.55625 
L 268.377996 -37.55625 
L 267.958973 -37.55625 
L 267.539945 -37.55625 
L 267.120921 -37.55625 
L 266.701898 -37.55625 
L 266.282874 -37.55625 
L 265.863851 -37.55625 
L 265.444828 -37.55625 
L 265.025804 -37.55625 
L 264.606786 -37.55625 
L 264.187757 -37.55625 
L 263.768734 -37.55625 
L 263.349711 -37.55625 
L 262.930687 -37.55625 
L 262.511664 -37.55625 
L 262.092641 -37.55625 
L 261.673617 -37.55625 
L 261.254594 -37.55625 
L 260.835565 -37.55625 
L 260.416542 -37.55625 
L 259.997519 -37.55625 
L 259.578495 -37.55625 
L 259.159472 -37.55625 
L 258.740449 -37.55625 
L 258.321425 -37.55625 
L 257.902402 -37.55625 
L 257.483373 -37.55625 
z
" style="stroke: #e377c2; stroke-opacity: 0.5"/>
    </defs>
    <g clip-path="url(#p240affcbdd)">
     <use xlink:href="#mf18888c13f" x="0" y="226.194375" style="fill: #e377c2; fill-opacity: 0.5; stroke: #e377c2; stroke-opacity: 0.5"/>
    </g>
   </g>
   <g id="PolyCollection_8">
    <defs>
     <path id="m936f5725c9" d="M 293.100396 -37.55625 
L 293.100396 -39.759584 
L 293.519419 -39.743078 
L 293.938442 -39.726647 
L 294.357466 -39.710295 
L 294.776494 -39.69402 
L 295.195518 -39.677823 
L 295.614541 -39.661704 
L 296.033564 -39.645665 
L 296.452588 -39.629705 
L 296.871611 -39.613824 
L 297.290634 -39.598024 
L 297.709658 -39.582303 
L 298.128681 -39.566664 
L 298.547705 -39.551106 
L 298.966728 -39.535629 
L 299.385751 -39.520233 
L 299.804775 -39.50492 
L 300.223798 -39.489688 
L 300.642821 -39.474539 
L 301.061845 -39.459473 
L 301.480868 -39.444489 
L 301.899902 -39.429587 
L 302.318925 -39.41477 
L 302.737948 -39.400036 
L 303.156972 -39.385385 
L 303.575995 -39.370817 
L 303.995018 -39.356333 
L 304.414042 -39.341934 
L 304.833065 -39.327618 
L 305.252089 -39.313386 
L 305.671112 -39.299237 
L 306.090135 -39.285174 
L 306.509159 -39.271194 
L 306.928182 -39.257298 
L 307.347206 -39.243487 
L 307.766229 -39.22976 
L 308.185252 -39.216116 
L 308.604276 -39.202557 
L 309.023299 -39.189082 
L 309.442322 -39.175692 
L 309.861346 -39.162386 
L 310.280369 -39.149163 
L 310.699393 -39.136024 
L 311.118416 -39.12297 
L 311.537439 -39.109998 
L 311.956473 -39.097111 
L 312.375496 -39.084307 
L 312.794519 -39.071587 
L 313.213543 -39.05895 
L 313.632566 -39.046397 
L 314.05159 -39.033926 
L 314.470613 -39.021538 
L 314.889636 -39.009234 
L 315.30866 -38.997011 
L 315.727683 -38.984872 
L 316.146706 -38.972814 
L 316.56573 -38.960839 
L 316.984753 -38.948945 
L 317.403777 -38.937133 
L 317.8228 -38.925403 
L 318.241823 -38.913753 
L 318.660847 -38.902185 
L 319.07987 -38.890698 
L 319.498894 -38.879291 
L 319.917917 -38.867965 
L 320.33694 -38.856718 
L 320.755964 -38.845552 
L 321.174987 -38.834465 
L 321.59401 -38.823457 
L 322.013044 -38.812528 
L 322.432067 -38.801678 
L 322.851091 -38.790907 
L 323.270114 -38.780214 
L 323.689137 -38.769598 
L 324.108161 -38.759061 
L 324.527184 -38.7486 
L 324.946207 -38.738217 
L 325.365231 -38.727911 
L 325.784254 -38.71768 
L 326.203278 -38.707526 
L 326.622301 -38.697448 
L 327.041324 -38.687445 
L 327.460348 -38.677517 
L 327.879371 -38.667664 
L 328.298394 -38.657886 
L 328.717418 -38.648182 
L 329.136441 -38.638551 
L 329.555465 -38.628994 
L 329.974488 -38.61951 
L 330.393511 -38.610098 
L 330.812535 -38.60076 
L 331.231558 -38.591493 
L 331.650582 -38.582298 
L 332.069615 -38.573174 
L 332.488638 -38.564121 
L 332.907662 -38.555139 
L 333.326685 -38.546227 
L 333.745708 -38.537385 
L 334.164732 -38.528612 
L 334.583755 -38.519909 
L 335.002779 -38.511274 
L 335.421802 -38.502708 
L 335.840825 -38.49421 
L 336.259849 -38.48578 
L 336.678872 -38.477417 
L 337.097895 -38.469121 
L 337.516919 -38.460891 
L 337.935942 -38.452728 
L 338.354966 -38.44463 
L 338.773989 -38.436598 
L 339.193012 -38.42863 
L 339.612036 -38.420728 
L 340.031059 -38.412889 
L 340.450082 -38.405115 
L 340.869106 -38.397404 
L 341.288129 -38.389756 
L 341.707153 -38.382171 
L 342.126176 -38.374648 
L 342.545199 -38.367187 
L 342.964223 -38.359788 
L 343.383246 -38.35245 
L 343.80227 -38.345173 
L 344.221293 -38.337956 
L 344.640316 -38.330799 
L 345.05934 -38.323702 
L 345.478373 -38.316663 
L 345.897396 -38.309684 
L 346.31642 -38.302764 
L 346.735443 -38.295901 
L 347.154467 -38.289096 
L 347.57349 -38.282349 
L 347.992513 -38.275658 
L 348.411537 -38.269024 
L 348.83056 -38.262447 
L 349.249583 -38.255925 
L 349.668607 -38.249458 
L 350.08763 -38.243047 
L 350.506654 -38.23669 
L 350.925677 -38.230388 
L 351.3447 -38.224139 
L 351.763724 -38.217944 
L 352.182747 -38.211802 
L 352.60177 -38.205713 
L 353.020794 -38.199677 
L 353.439817 -38.193692 
L 353.858841 -38.187759 
L 354.277864 -38.181877 
L 354.696887 -38.176047 
L 355.115911 -38.170267 
L 355.534944 -38.164537 
L 355.953968 -38.158857 
L 356.372991 -38.153226 
L 356.792014 -38.147645 
L 357.211038 -38.142112 
L 357.630061 -38.136628 
L 358.049084 -38.131191 
L 358.468108 -38.125803 
L 358.887131 -38.120462 
L 359.306155 -38.115167 
L 359.725178 -38.10992 
L 360.144201 -38.104718 
L 360.563225 -38.099563 
L 360.982248 -38.094453 
L 361.401271 -38.089388 
L 361.820295 -38.084368 
L 362.239318 -38.079393 
L 362.658342 -38.074462 
L 363.077365 -38.069575 
L 363.496388 -38.064731 
L 363.915412 -38.05993 
L 364.334435 -38.055173 
L 364.753458 -38.050457 
L 365.172482 -38.045784 
L 365.591515 -38.041153 
L 366.010539 -38.036563 
L 366.429562 -38.032015 
L 366.848585 -38.027507 
L 367.267609 -38.02304 
L 367.686632 -38.018613 
L 368.105656 -38.014226 
L 368.524679 -38.009878 
L 368.943702 -38.00557 
L 369.362726 -38.001301 
L 369.781749 -37.99707 
L 370.200772 -37.992878 
L 370.619796 -37.988723 
L 371.038819 -37.984607 
L 371.457843 -37.980527 
L 371.876866 -37.976485 
L 372.295889 -37.97248 
L 372.714913 -37.968511 
L 373.133936 -37.964578 
L 373.552959 -37.960681 
L 373.971983 -37.95682 
L 374.391006 -37.952994 
L 374.81003 -37.949203 
L 375.229053 -37.945446 
L 375.648086 -37.941725 
L 376.06711 -37.938037 
L 376.486133 -37.934383 
L 376.905156 -37.930763 
L 377.32418 -37.927176 
L 377.743203 -37.923622 
L 378.162227 -37.9201 
L 378.58125 -37.916611 
L 378.58125 -37.55625 
L 378.58125 -37.55625 
L 378.162227 -37.55625 
L 377.743203 -37.55625 
L 377.32418 -37.55625 
L 376.905156 -37.55625 
L 376.486133 -37.55625 
L 376.06711 -37.55625 
L 375.648086 -37.55625 
L 375.229053 -37.55625 
L 374.81003 -37.55625 
L 374.391006 -37.55625 
L 373.971983 -37.55625 
L 373.552959 -37.55625 
L 373.133936 -37.55625 
L 372.714913 -37.55625 
L 372.295889 -37.55625 
L 371.876866 -37.55625 
L 371.457843 -37.55625 
L 371.038819 -37.55625 
L 370.619796 -37.55625 
L 370.200772 -37.55625 
L 369.781749 -37.55625 
L 369.362726 -37.55625 
L 368.943702 -37.55625 
L 368.524679 -37.55625 
L 368.105656 -37.55625 
L 367.686632 -37.55625 
L 367.267609 -37.55625 
L 366.848585 -37.55625 
L 366.429562 -37.55625 
L 366.010539 -37.55625 
L 365.591515 -37.55625 
L 365.172482 -37.55625 
L 364.753458 -37.55625 
L 364.334435 -37.55625 
L 363.915412 -37.55625 
L 363.496388 -37.55625 
L 363.077365 -37.55625 
L 362.658342 -37.55625 
L 362.239318 -37.55625 
L 361.820295 -37.55625 
L 361.401271 -37.55625 
L 360.982248 -37.55625 
L 360.563225 -37.55625 
L 360.144201 -37.55625 
L 359.725178 -37.55625 
L 359.306155 -37.55625 
L 358.887131 -37.55625 
L 358.468108 -37.55625 
L 358.049084 -37.55625 
L 357.630061 -37.55625 
L 357.211038 -37.55625 
L 356.792014 -37.55625 
L 356.372991 -37.55625 
L 355.953968 -37.55625 
L 355.534944 -37.55625 
L 355.115911 -37.55625 
L 354.696887 -37.55625 
L 354.277864 -37.55625 
L 353.858841 -37.55625 
L 353.439817 -37.55625 
L 353.020794 -37.55625 
L 352.60177 -37.55625 
L 352.182747 -37.55625 
L 351.763724 -37.55625 
L 351.3447 -37.55625 
L 350.925677 -37.55625 
L 350.506654 -37.55625 
L 350.08763 -37.55625 
L 349.668607 -37.55625 
L 349.249583 -37.55625 
L 348.83056 -37.55625 
L 348.411537 -37.55625 
L 347.992513 -37.55625 
L 347.57349 -37.55625 
L 347.154467 -37.55625 
L 346.735443 -37.55625 
L 346.31642 -37.55625 
L 345.897396 -37.55625 
L 345.478373 -37.55625 
L 345.05934 -37.55625 
L 344.640316 -37.55625 
L 344.221293 -37.55625 
L 343.80227 -37.55625 
L 343.383246 -37.55625 
L 342.964223 -37.55625 
L 342.545199 -37.55625 
L 342.126176 -37.55625 
L 341.707153 -37.55625 
L 341.288129 -37.55625 
L 340.869106 -37.55625 
L 340.450082 -37.55625 
L 340.031059 -37.55625 
L 339.612036 -37.55625 
L 339.193012 -37.55625 
L 338.773989 -37.55625 
L 338.354966 -37.55625 
L 337.935942 -37.55625 
L 337.516919 -37.55625 
L 337.097895 -37.55625 
L 336.678872 -37.55625 
L 336.259849 -37.55625 
L 335.840825 -37.55625 
L 335.421802 -37.55625 
L 335.002779 -37.55625 
L 334.583755 -37.55625 
L 334.164732 -37.55625 
L 333.745708 -37.55625 
L 333.326685 -37.55625 
L 332.907662 -37.55625 
L 332.488638 -37.55625 
L 332.069615 -37.55625 
L 331.650582 -37.55625 
L 331.231558 -37.55625 
L 330.812535 -37.55625 
L 330.393511 -37.55625 
L 329.974488 -37.55625 
L 329.555465 -37.55625 
L 329.136441 -37.55625 
L 328.717418 -37.55625 
L 328.298394 -37.55625 
L 327.879371 -37.55625 
L 327.460348 -37.55625 
L 327.041324 -37.55625 
L 326.622301 -37.55625 
L 326.203278 -37.55625 
L 325.784254 -37.55625 
L 325.365231 -37.55625 
L 324.946207 -37.55625 
L 324.527184 -37.55625 
L 324.108161 -37.55625 
L 323.689137 -37.55625 
L 323.270114 -37.55625 
L 322.851091 -37.55625 
L 322.432067 -37.55625 
L 322.013044 -37.55625 
L 321.59401 -37.55625 
L 321.174987 -37.55625 
L 320.755964 -37.55625 
L 320.33694 -37.55625 
L 319.917917 -37.55625 
L 319.498894 -37.55625 
L 319.07987 -37.55625 
L 318.660847 -37.55625 
L 318.241823 -37.55625 
L 317.8228 -37.55625 
L 317.403777 -37.55625 
L 316.984753 -37.55625 
L 316.56573 -37.55625 
L 316.146706 -37.55625 
L 315.727683 -37.55625 
L 315.30866 -37.55625 
L 314.889636 -37.55625 
L 314.470613 -37.55625 
L 314.05159 -37.55625 
L 313.632566 -37.55625 
L 313.213543 -37.55625 
L 312.794519 -37.55625 
L 312.375496 -37.55625 
L 311.956473 -37.55625 
L 311.537439 -37.55625 
L 311.118416 -37.55625 
L 310.699393 -37.55625 
L 310.280369 -37.55625 
L 309.861346 -37.55625 
L 309.442322 -37.55625 
L 309.023299 -37.55625 
L 308.604276 -37.55625 
L 308.185252 -37.55625 
L 307.766229 -37.55625 
L 307.347206 -37.55625 
L 306.928182 -37.55625 
L 306.509159 -37.55625 
L 306.090135 -37.55625 
L 305.671112 -37.55625 
L 305.252089 -37.55625 
L 304.833065 -37.55625 
L 304.414042 -37.55625 
L 303.995018 -37.55625 
L 303.575995 -37.55625 
L 303.156972 -37.55625 
L 302.737948 -37.55625 
L 302.318925 -37.55625 
L 301.899902 -37.55625 
L 301.480868 -37.55625 
L 301.061845 -37.55625 
L 300.642821 -37.55625 
L 300.223798 -37.55625 
L 299.804775 -37.55625 
L 299.385751 -37.55625 
L 298.966728 -37.55625 
L 298.547705 -37.55625 
L 298.128681 -37.55625 
L 297.709658 -37.55625 
L 297.290634 -37.55625 
L 296.871611 -37.55625 
L 296.452588 -37.55625 
L 296.033564 -37.55625 
L 295.614541 -37.55625 
L 295.195518 -37.55625 
L 294.776494 -37.55625 
L 294.357466 -37.55625 
L 293.938442 -37.55625 
L 293.519419 -37.55625 
L 293.100396 -37.55625 
z
" style="stroke: #7f7f7f; stroke-opacity: 0.5"/>
    </defs>
    <g clip-path="url(#p240affcbdd)">
     <use xlink:href="#m936f5725c9" x="0" y="226.194375" style="fill: #7f7f7f; fill-opacity: 0.5; stroke: #7f7f7f; stroke-opacity: 0.5"/>
    </g>
   </g>
   <g id="line2d_1">
    <path d="M 43.78125 188.638125 
L 43.78125 186.496696 
" clip-path="url(#p240affcbdd)" style="fill: none; stroke: #1f77b4; stroke-width: 1.5; stroke-linecap: round"/>
   </g>
   <g id="line2d_2">
    <path d="M 129.681123 188.638125 
L 129.681123 175.418124 
" clip-path="url(#p240affcbdd)" style="fill: none; stroke: #1f77b4; stroke-width: 1.5; stroke-linecap: round"/>
   </g>
   <g id="line2d_3">
    <path d="M 130.100146 188.638125 
L 130.100146 153.119465 
" clip-path="url(#p240affcbdd)" style="fill: none; stroke: #ff7f0e; stroke-width: 1.5; stroke-linecap: round"/>
   </g>
   <g id="line2d_4">
    <path d="M 165.298145 188.638125 
L 165.298145 128.060121 
" clip-path="url(#p240affcbdd)" style="fill: none; stroke: #ff7f0e; stroke-width: 1.5; stroke-linecap: round"/>
   </g>
   <g id="line2d_5">
    <path d="M 165.717168 188.638125 
L 165.717168 66.876491 
" clip-path="url(#p240affcbdd)" style="fill: none; stroke: #2ca02c; stroke-width: 1.5; stroke-linecap: round"/>
   </g>
   <g id="line2d_6">
    <path d="M 189.601526 188.638125 
L 189.601526 37.438125 
" clip-path="url(#p240affcbdd)" style="fill: none; stroke: #2ca02c; stroke-width: 1.5; stroke-linecap: round"/>
   </g>
   <g id="line2d_7">
    <path d="M 190.020549 188.638125 
L 190.020549 112.847409 
" clip-path="url(#p240affcbdd)" style="fill: none; stroke: #d62728; stroke-width: 1.5; stroke-linecap: round"/>
   </g>
   <g id="line2d_8">
    <path d="M 210.971738 188.638125 
L 210.971738 107.813393 
" clip-path="url(#p240affcbdd)" style="fill: none; stroke: #d62728; stroke-width: 1.5; stroke-linecap: round"/>
   </g>
   <g id="line2d_9">
    <path d="M 211.390762 188.638125 
L 211.390762 158.328092 
" clip-path="url(#p240affcbdd)" style="fill: none; stroke: #9467bd; stroke-width: 1.5; stroke-linecap: round"/>
   </g>
   <g id="line2d_10">
    <path d="M 232.760974 188.638125 
L 232.760974 160.216606 
" clip-path="url(#p240affcbdd)" style="fill: none; stroke: #9467bd; stroke-width: 1.5; stroke-linecap: round"/>
   </g>
   <g id="line2d_11">
    <path d="M 233.179997 188.638125 
L 233.179997 179.188126 
" clip-path="url(#p240affcbdd)" style="fill: none; stroke: #8c564b; stroke-width: 1.5; stroke-linecap: round"/>
   </g>
   <g id="line2d_12">
    <path d="M 257.06435 188.638125 
L 257.06435 181.028022 
" clip-path="url(#p240affcbdd)" style="fill: none; stroke: #8c564b; stroke-width: 1.5; stroke-linecap: round"/>
   </g>
   <g id="line2d_13">
    <path d="M 257.483373 188.638125 
L 257.483373 184.852 
" clip-path="url(#p240affcbdd)" style="fill: none; stroke: #e377c2; stroke-width: 1.5; stroke-linecap: round"/>
   </g>
   <g id="line2d_14">
    <path d="M 292.681372 188.638125 
L 292.681372 186.418208 
" clip-path="url(#p240affcbdd)" style="fill: none; stroke: #e377c2; stroke-width: 1.5; stroke-linecap: round"/>
   </g>
   <g id="line2d_15">
    <path d="M 293.100396 188.638125 
L 293.100396 186.434791 
" clip-path="url(#p240affcbdd)" style="fill: none; stroke: #7f7f7f; stroke-width: 1.5; stroke-linecap: round"/>
   </g>
   <g id="line2d_16">
    <path d="M 378.58125 188.638125 
L 378.58125 188.277764 
" clip-path="url(#p240affcbdd)" style="fill: none; stroke: #7f7f7f; stroke-width: 1.5; stroke-linecap: round"/>
   </g>
   <g id="line2d_17">
    <path d="M 43.78125 186.496696 
L 57.190008 185.728708 
L 69.341696 184.813475 
L 80.236314 183.772503 
L 90.292885 182.590899 
L 99.930433 181.230184 
L 109.148957 179.697245 
L 117.948458 178.00992 
L 126.747959 176.101637 
L 129.681123 175.418124 
L 130.100146 153.119465 
L 136.385502 148.999741 
L 143.508909 144.050133 
L 152.308405 137.644128 
L 165.298145 128.060121 
L 165.717168 66.876491 
L 171.583503 58.598815 
L 176.192765 52.453728 
L 180.383002 47.241436 
L 184.154215 42.92512 
L 187.506407 39.435311 
L 189.601526 37.438125 
L 190.020549 112.847409 
L 193.791764 111.273603 
L 197.143953 110.102977 
L 200.496144 109.162099 
L 203.848334 108.462547 
L 207.200524 108.013104 
L 210.13369 107.829552 
L 210.971738 107.813393 
L 211.390762 158.328092 
L 216.419047 158.436948 
L 221.447332 158.760399 
L 226.894642 159.342234 
L 232.341951 160.146244 
L 232.760974 160.216606 
L 233.179997 179.188126 
L 244.074618 179.928118 
L 257.06435 181.028022 
L 257.483373 184.852 
L 303.156972 186.80899 
L 324.946207 187.456158 
L 348.411537 187.925351 
L 376.905156 188.263612 
L 378.58125 188.277764 
L 378.58125 188.277764 
" clip-path="url(#p240affcbdd)" style="fill: none; stroke: #000000; stroke-width: 1.5; stroke-linecap: round"/>
   </g>
   <g id="patch_3">
    <path d="M 43.78125 188.638125 
L 43.78125 22.318125 
" style="fill: none; stroke: #262626; stroke-width: 0.8; stroke-linejoin: miter; stroke-linecap: square"/>
   </g>
   <g id="patch_4">
    <path d="M 378.58125 188.638125 
L 378.58125 22.318125 
" style="fill: none; stroke: #262626; stroke-width: 0.8; stroke-linejoin: miter; stroke-linecap: square"/>
   </g>
   <g id="patch_5">
    <path d="M 43.78125 188.638125 
L 378.58125 188.638125 
" style="fill: none; stroke: #262626; stroke-width: 0.8; stroke-linejoin: miter; stroke-linecap: square"/>
   </g>
   <g id="patch_6">
    <path d="M 43.78125 22.318125 
L 378.58125 22.318125 
" style="fill: none; stroke: #262626; stroke-width: 0.8; stroke-linejoin: miter; stroke-linecap: square"/>
   </g>
   <g id="text_17">
    <!-- Dequantization distribution for 8 discrete values -->
    <g style="fill: #262626" transform="translate(66.164062 16.318125) scale(0.12 -0.12)">
     <defs>
      <path id="DejaVuSans-44" d="M 1259 4147 
L 1259 519 
L 2022 519 
Q 2988 519 3436 956 
Q 3884 1394 3884 2338 
Q 3884 3275 3436 3711 
Q 2988 4147 2022 4147 
L 1259 4147 
z
M 628 4666 
L 1925 4666 
Q 3281 4666 3915 4102 
Q 4550 3538 4550 2338 
Q 4550 1131 3912 565 
Q 3275 0 1925 0 
L 628 0 
L 628 4666 
z
" transform="scale(0.015625)"/>
      <path id="DejaVuSans-65" d="M 3597 1894 
L 3597 1613 
L 953 1613 
Q 991 1019 1311 708 
Q 1631 397 2203 397 
Q 2534 397 2845 478 
Q 3156 559 3463 722 
L 3463 178 
Q 3153 47 2828 -22 
Q 2503 -91 2169 -91 
Q 1331 -91 842 396 
Q 353 884 353 1716 
Q 353 2575 817 3079 
Q 1281 3584 2069 3584 
Q 2775 3584 3186 3129 
Q 3597 2675 3597 1894 
z
M 3022 2063 
Q 3016 2534 2758 2815 
Q 2500 3097 2075 3097 
Q 1594 3097 1305 2825 
Q 1016 2553 972 2059 
L 3022 2063 
z
" transform="scale(0.015625)"/>
      <path id="DejaVuSans-71" d="M 947 1747 
Q 947 1113 1208 752 
Q 1469 391 1925 391 
Q 2381 391 2643 752 
Q 2906 1113 2906 1747 
Q 2906 2381 2643 2742 
Q 2381 3103 1925 3103 
Q 1469 3103 1208 2742 
Q 947 2381 947 1747 
z
M 2906 525 
Q 2725 213 2448 61 
Q 2172 -91 1784 -91 
Q 1150 -91 751 415 
Q 353 922 353 1747 
Q 353 2572 751 3078 
Q 1150 3584 1784 3584 
Q 2172 3584 2448 3432 
Q 2725 3281 2906 2969 
L 2906 3500 
L 3481 3500 
L 3481 -1331 
L 2906 -1331 
L 2906 525 
z
" transform="scale(0.015625)"/>
      <path id="DejaVuSans-75" d="M 544 1381 
L 544 3500 
L 1119 3500 
L 1119 1403 
Q 1119 906 1312 657 
Q 1506 409 1894 409 
Q 2359 409 2629 706 
Q 2900 1003 2900 1516 
L 2900 3500 
L 3475 3500 
L 3475 0 
L 2900 0 
L 2900 538 
Q 2691 219 2414 64 
Q 2138 -91 1772 -91 
Q 1169 -91 856 284 
Q 544 659 544 1381 
z
M 1991 3584 
L 1991 3584 
z
" transform="scale(0.015625)"/>
      <path id="DejaVuSans-6e" d="M 3513 2113 
L 3513 0 
L 2938 0 
L 2938 2094 
Q 2938 2591 2744 2837 
Q 2550 3084 2163 3084 
Q 1697 3084 1428 2787 
Q 1159 2491 1159 1978 
L 1159 0 
L 581 0 
L 581 3500 
L 1159 3500 
L 1159 2956 
Q 1366 3272 1645 3428 
Q 1925 3584 2291 3584 
Q 2894 3584 3203 3211 
Q 3513 2838 3513 2113 
z
" transform="scale(0.015625)"/>
      <path id="DejaVuSans-20" transform="scale(0.015625)"/>
      <path id="DejaVuSans-64" d="M 2906 2969 
L 2906 4863 
L 3481 4863 
L 3481 0 
L 2906 0 
L 2906 525 
Q 2725 213 2448 61 
Q 2172 -91 1784 -91 
Q 1150 -91 751 415 
Q 353 922 353 1747 
Q 353 2572 751 3078 
Q 1150 3584 1784 3584 
Q 2172 3584 2448 3432 
Q 2725 3281 2906 2969 
z
M 947 1747 
Q 947 1113 1208 752 
Q 1469 391 1925 391 
Q 2381 391 2643 752 
Q 2906 1113 2906 1747 
Q 2906 2381 2643 2742 
Q 2381 3103 1925 3103 
Q 1469 3103 1208 2742 
Q 947 2381 947 1747 
z
" transform="scale(0.015625)"/>
      <path id="DejaVuSans-73" d="M 2834 3397 
L 2834 2853 
Q 2591 2978 2328 3040 
Q 2066 3103 1784 3103 
Q 1356 3103 1142 2972 
Q 928 2841 928 2578 
Q 928 2378 1081 2264 
Q 1234 2150 1697 2047 
L 1894 2003 
Q 2506 1872 2764 1633 
Q 3022 1394 3022 966 
Q 3022 478 2636 193 
Q 2250 -91 1575 -91 
Q 1294 -91 989 -36 
Q 684 19 347 128 
L 347 722 
Q 666 556 975 473 
Q 1284 391 1588 391 
Q 1994 391 2212 530 
Q 2431 669 2431 922 
Q 2431 1156 2273 1281 
Q 2116 1406 1581 1522 
L 1381 1569 
Q 847 1681 609 1914 
Q 372 2147 372 2553 
Q 372 3047 722 3315 
Q 1072 3584 1716 3584 
Q 2034 3584 2315 3537 
Q 2597 3491 2834 3397 
z
" transform="scale(0.015625)"/>
      <path id="DejaVuSans-66" d="M 2375 4863 
L 2375 4384 
L 1825 4384 
Q 1516 4384 1395 4259 
Q 1275 4134 1275 3809 
L 1275 3500 
L 2222 3500 
L 2222 3053 
L 1275 3053 
L 1275 0 
L 697 0 
L 697 3053 
L 147 3053 
L 147 3500 
L 697 3500 
L 697 3744 
Q 697 4328 969 4595 
Q 1241 4863 1831 4863 
L 2375 4863 
z
" transform="scale(0.015625)"/>
      <path id="DejaVuSans-63" d="M 3122 3366 
L 3122 2828 
Q 2878 2963 2633 3030 
Q 2388 3097 2138 3097 
Q 1578 3097 1268 2742 
Q 959 2388 959 1747 
Q 959 1106 1268 751 
Q 1578 397 2138 397 
Q 2388 397 2633 464 
Q 2878 531 3122 666 
L 3122 134 
Q 2881 22 2623 -34 
Q 2366 -91 2075 -91 
Q 1284 -91 818 406 
Q 353 903 353 1747 
Q 353 2603 823 3093 
Q 1294 3584 2113 3584 
Q 2378 3584 2631 3529 
Q 2884 3475 3122 3366 
z
" transform="scale(0.015625)"/>
      <path id="DejaVuSans-76" d="M 191 3500 
L 800 3500 
L 1894 563 
L 2988 3500 
L 3597 3500 
L 2284 0 
L 1503 0 
L 191 3500 
z
" transform="scale(0.015625)"/>
     </defs>
     <use xlink:href="#DejaVuSans-44"/>
     <use xlink:href="#DejaVuSans-65" x="77.001953"/>
     <use xlink:href="#DejaVuSans-71" x="138.525391"/>
     <use xlink:href="#DejaVuSans-75" x="202.001953"/>
     <use xlink:href="#DejaVuSans-61" x="265.380859"/>
     <use xlink:href="#DejaVuSans-6e" x="326.660156"/>
     <use xlink:href="#DejaVuSans-74" x="390.039062"/>
     <use xlink:href="#DejaVuSans-69" x="429.248047"/>
     <use xlink:href="#DejaVuSans-7a" x="457.03125"/>
     <use xlink:href="#DejaVuSans-61" x="509.521484"/>
     <use xlink:href="#DejaVuSans-74" x="570.800781"/>
     <use xlink:href="#DejaVuSans-69" x="610.009766"/>
     <use xlink:href="#DejaVuSans-6f" x="637.792969"/>
     <use xlink:href="#DejaVuSans-6e" x="698.974609"/>
     <use xlink:href="#DejaVuSans-20" x="762.353516"/>
     <use xlink:href="#DejaVuSans-64" x="794.140625"/>
     <use xlink:href="#DejaVuSans-69" x="857.617188"/>
     <use xlink:href="#DejaVuSans-73" x="885.400391"/>
     <use xlink:href="#DejaVuSans-74" x="937.5"/>
     <use xlink:href="#DejaVuSans-72" x="976.708984"/>
     <use xlink:href="#DejaVuSans-69" x="1017.822266"/>
     <use xlink:href="#DejaVuSans-62" x="1045.605469"/>
     <use xlink:href="#DejaVuSans-75" x="1109.082031"/>
     <use xlink:href="#DejaVuSans-74" x="1172.460938"/>
     <use xlink:href="#DejaVuSans-69" x="1211.669922"/>
     <use xlink:href="#DejaVuSans-6f" x="1239.453125"/>
     <use xlink:href="#DejaVuSans-6e" x="1300.634766"/>
     <use xlink:href="#DejaVuSans-20" x="1364.013672"/>
     <use xlink:href="#DejaVuSans-66" x="1395.800781"/>
     <use xlink:href="#DejaVuSans-6f" x="1431.005859"/>
     <use xlink:href="#DejaVuSans-72" x="1492.1875"/>
     <use xlink:href="#DejaVuSans-20" x="1533.300781"/>
     <use xlink:href="#DejaVuSans-38" x="1565.087891"/>
     <use xlink:href="#DejaVuSans-20" x="1628.710938"/>
     <use xlink:href="#DejaVuSans-64" x="1660.498047"/>
     <use xlink:href="#DejaVuSans-69" x="1723.974609"/>
     <use xlink:href="#DejaVuSans-73" x="1751.757812"/>
     <use xlink:href="#DejaVuSans-63" x="1803.857422"/>
     <use xlink:href="#DejaVuSans-72" x="1858.837891"/>
     <use xlink:href="#DejaVuSans-65" x="1897.701172"/>
     <use xlink:href="#DejaVuSans-74" x="1959.224609"/>
     <use xlink:href="#DejaVuSans-65" x="1998.433594"/>
     <use xlink:href="#DejaVuSans-20" x="2059.957031"/>
     <use xlink:href="#DejaVuSans-76" x="2091.744141"/>
     <use xlink:href="#DejaVuSans-61" x="2150.923828"/>
     <use xlink:href="#DejaVuSans-6c" x="2212.203125"/>
     <use xlink:href="#DejaVuSans-75" x="2239.986328"/>
     <use xlink:href="#DejaVuSans-65" x="2303.365234"/>
     <use xlink:href="#DejaVuSans-73" x="2364.888672"/>
    </g>
   </g>
   <g id="legend_1">
    <g id="patch_7">
     <path d="M 333.21875 147.743125 
L 371.58125 147.743125 
Q 373.58125 147.743125 373.58125 145.743125 
L 373.58125 29.318125 
Q 373.58125 27.318125 371.58125 27.318125 
L 333.21875 27.318125 
Q 331.21875 27.318125 331.21875 29.318125 
L 331.21875 145.743125 
Q 331.21875 147.743125 333.21875 147.743125 
z
" style="fill: #ffffff; opacity: 0.8; stroke: #cccccc; stroke-linejoin: miter"/>
    </g>
    <g id="patch_8">
     <path d="M 335.21875 38.916562 
L 355.21875 38.916562 
L 355.21875 31.916562 
L 335.21875 31.916562 
z
" style="fill: #1f77b4; fill-opacity: 0.5; stroke: #1f77b4; stroke-opacity: 0.5; stroke-linejoin: miter"/>
    </g>
    <g id="text_18">
     <!-- 0 -->
     <g style="fill: #262626" transform="translate(363.21875 38.916562) scale(0.1 -0.1)">
      <use xlink:href="#DejaVuSans-30"/>
     </g>
    </g>
    <g id="patch_9">
     <path d="M 335.21875 53.594688 
L 355.21875 53.594688 
L 355.21875 46.594688 
L 335.21875 46.594688 
z
" style="fill: #ff7f0e; fill-opacity: 0.5; stroke: #ff7f0e; stroke-opacity: 0.5; stroke-linejoin: miter"/>
    </g>
    <g id="text_19">
     <!-- 1 -->
     <g style="fill: #262626" transform="translate(363.21875 53.594688) scale(0.1 -0.1)">
      <use xlink:href="#DejaVuSans-31"/>
     </g>
    </g>
    <g id="patch_10">
     <path d="M 335.21875 68.272812 
L 355.21875 68.272812 
L 355.21875 61.272812 
L 335.21875 61.272812 
z
" style="fill: #2ca02c; fill-opacity: 0.5; stroke: #2ca02c; stroke-opacity: 0.5; stroke-linejoin: miter"/>
    </g>
    <g id="text_20">
     <!-- 2 -->
     <g style="fill: #262626" transform="translate(363.21875 68.272812) scale(0.1 -0.1)">
      <use xlink:href="#DejaVuSans-32"/>
     </g>
    </g>
    <g id="patch_11">
     <path d="M 335.21875 82.950938 
L 355.21875 82.950938 
L 355.21875 75.950938 
L 335.21875 75.950938 
z
" style="fill: #d62728; fill-opacity: 0.5; stroke: #d62728; stroke-opacity: 0.5; stroke-linejoin: miter"/>
    </g>
    <g id="text_21">
     <!-- 3 -->
     <g style="fill: #262626" transform="translate(363.21875 82.950938) scale(0.1 -0.1)">
      <defs>
       <path id="DejaVuSans-33" d="M 2597 2516 
Q 3050 2419 3304 2112 
Q 3559 1806 3559 1356 
Q 3559 666 3084 287 
Q 2609 -91 1734 -91 
Q 1441 -91 1130 -33 
Q 819 25 488 141 
L 488 750 
Q 750 597 1062 519 
Q 1375 441 1716 441 
Q 2309 441 2620 675 
Q 2931 909 2931 1356 
Q 2931 1769 2642 2001 
Q 2353 2234 1838 2234 
L 1294 2234 
L 1294 2753 
L 1863 2753 
Q 2328 2753 2575 2939 
Q 2822 3125 2822 3475 
Q 2822 3834 2567 4026 
Q 2313 4219 1838 4219 
Q 1578 4219 1281 4162 
Q 984 4106 628 3988 
L 628 4550 
Q 988 4650 1302 4700 
Q 1616 4750 1894 4750 
Q 2613 4750 3031 4423 
Q 3450 4097 3450 3541 
Q 3450 3153 3228 2886 
Q 3006 2619 2597 2516 
z
" transform="scale(0.015625)"/>
      </defs>
      <use xlink:href="#DejaVuSans-33"/>
     </g>
    </g>
    <g id="patch_12">
     <path d="M 335.21875 97.629063 
L 355.21875 97.629063 
L 355.21875 90.629063 
L 335.21875 90.629063 
z
" style="fill: #9467bd; fill-opacity: 0.5; stroke: #9467bd; stroke-opacity: 0.5; stroke-linejoin: miter"/>
    </g>
    <g id="text_22">
     <!-- 4 -->
     <g style="fill: #262626" transform="translate(363.21875 97.629063) scale(0.1 -0.1)">
      <use xlink:href="#DejaVuSans-34"/>
     </g>
    </g>
    <g id="patch_13">
     <path d="M 335.21875 112.307187 
L 355.21875 112.307187 
L 355.21875 105.307187 
L 335.21875 105.307187 
z
" style="fill: #8c564b; fill-opacity: 0.5; stroke: #8c564b; stroke-opacity: 0.5; stroke-linejoin: miter"/>
    </g>
    <g id="text_23">
     <!-- 5 -->
     <g style="fill: #262626" transform="translate(363.21875 112.307187) scale(0.1 -0.1)">
      <use xlink:href="#DejaVuSans-35"/>
     </g>
    </g>
    <g id="patch_14">
     <path d="M 335.21875 126.985312 
L 355.21875 126.985312 
L 355.21875 119.985312 
L 335.21875 119.985312 
z
" style="fill: #e377c2; fill-opacity: 0.5; stroke: #e377c2; stroke-opacity: 0.5; stroke-linejoin: miter"/>
    </g>
    <g id="text_24">
     <!-- 6 -->
     <g style="fill: #262626" transform="translate(363.21875 126.985312) scale(0.1 -0.1)">
      <use xlink:href="#DejaVuSans-36"/>
     </g>
    </g>
    <g id="patch_15">
     <path d="M 335.21875 141.663437 
L 355.21875 141.663437 
L 355.21875 134.663437 
L 335.21875 134.663437 
z
" style="fill: #7f7f7f; fill-opacity: 0.5; stroke: #7f7f7f; stroke-opacity: 0.5; stroke-linejoin: miter"/>
    </g>
    <g id="text_25">
     <!-- 7 -->
     <g style="fill: #262626" transform="translate(363.21875 141.663437) scale(0.1 -0.1)">
      <defs>
       <path id="DejaVuSans-37" d="M 525 4666 
L 3525 4666 
L 3525 4397 
L 1831 0 
L 1172 0 
L 2766 4134 
L 525 4134 
L 525 4666 
z
" transform="scale(0.015625)"/>
      </defs>
      <use xlink:href="#DejaVuSans-37"/>
     </g>
    </g>
   </g>
  </g>
 </g>
 <defs>
  <clipPath id="p240affcbdd">
   <rect x="43.78125" y="22.318125" width="334.8" height="166.32"/>
  </clipPath>
 </defs>
</svg>
