<?xml version="1.0" encoding="utf-8" standalone="no"?>
<!DOCTYPE svg PUBLIC "-//W3C//DTD SVG 1.1//EN"
  "http://www.w3.org/Graphics/SVG/1.1/DTD/svg11.dtd">
<svg xmlns:xlink="http://www.w3.org/1999/xlink" width="599.393438pt" height="215.984063pt" viewBox="0 0 599.393438 215.984063" xmlns="http://www.w3.org/2000/svg" version="1.1">
 <metadata>
  <rdf:RDF xmlns:dc="http://purl.org/dc/elements/1.1/" xmlns:cc="http://creativecommons.org/ns#" xmlns:rdf="http://www.w3.org/1999/02/22-rdf-syntax-ns#">
   <cc:Work>
    <dc:type rdf:resource="http://purl.org/dc/dcmitype/StillImage"/>
    <dc:date>2024-07-26T11:30:29.577451</dc:date>
    <dc:format>image/svg+xml</dc:format>
    <dc:creator>
     <cc:Agent>
      <dc:title>Matplotlib v3.9.1, https://matplotlib.org/</dc:title>
     </cc:Agent>
    </dc:creator>
   </cc:Work>
  </rdf:RDF>
 </metadata>
 <defs>
  <style type="text/css">*{stroke-linejoin: round; stroke-linecap: butt}</style>
 </defs>
 <g id="figure_1">
  <g id="patch_1">
   <path d="M 0 215.984063 
L 599.393438 215.984063 
L 599.393438 0 
L 0 0 
z
" style="fill: #ffffff"/>
  </g>
  <g id="axes_1">
   <g id="patch_2">
    <path d="M 34.193438 188.638125 
L 592.193437 188.638125 
L 592.193437 22.318125 
L 34.193438 22.318125 
z
" style="fill: #eaeaf2"/>
   </g>
   <g id="matplotlib.axis_1">
    <g id="xtick_1">
     <g id="line2d_1">
      <path d="M 105.444914 188.638125 
L 105.444914 22.318125 
" clip-path="url(#p8b3006caec)" style="fill: none; stroke: #ffffff; stroke-linecap: round"/>
     </g>
     <g id="text_1">
      <!-- −10 -->
      <g style="fill: #262626" transform="translate(93.837336 206.496406) scale(0.11 -0.11)">
       <defs>
        <path id="DejaVuSans-2212" d="M 678 2272 
L 4684 2272 
L 4684 1741 
L 678 1741 
L 678 2272 
z
" transform="scale(0.015625)"/>
        <path id="DejaVuSans-31" d="M 794 531 
L 1825 531 
L 1825 4091 
L 703 3866 
L 703 4441 
L 1819 4666 
L 2450 4666 
L 2450 531 
L 3481 531 
L 3481 0 
L 794 0 
L 794 531 
z
" transform="scale(0.015625)"/>
        <path id="DejaVuSans-30" d="M 2034 4250 
Q 1547 4250 1301 3770 
Q 1056 3291 1056 2328 
Q 1056 1369 1301 889 
Q 1547 409 2034 409 
Q 2525 409 2770 889 
Q 3016 1369 3016 2328 
Q 3016 3291 2770 3770 
Q 2525 4250 2034 4250 
z
M 2034 4750 
Q 2819 4750 3233 4129 
Q 3647 3509 3647 2328 
Q 3647 1150 3233 529 
Q 2819 -91 2034 -91 
Q 1250 -91 836 529 
Q 422 1150 422 2328 
Q 422 3509 836 4129 
Q 1250 4750 2034 4750 
z
" transform="scale(0.015625)"/>
       </defs>
       <use xlink:href="#DejaVuSans-2212"/>
       <use xlink:href="#DejaVuSans-31" x="83.789062"/>
       <use xlink:href="#DejaVuSans-30" x="147.412109"/>
      </g>
     </g>
    </g>
    <g id="xtick_2">
     <g id="line2d_2">
      <path d="M 209.448598 188.638125 
L 209.448598 22.318125 
" clip-path="url(#p8b3006caec)" style="fill: none; stroke: #ffffff; stroke-linecap: round"/>
     </g>
     <g id="text_2">
      <!-- −5 -->
      <g style="fill: #262626" transform="translate(201.340395 206.496406) scale(0.11 -0.11)">
       <defs>
        <path id="DejaVuSans-35" d="M 691 4666 
L 3169 4666 
L 3169 4134 
L 1269 4134 
L 1269 2991 
Q 1406 3038 1543 3061 
Q 1681 3084 1819 3084 
Q 2600 3084 3056 2656 
Q 3513 2228 3513 1497 
Q 3513 744 3044 326 
Q 2575 -91 1722 -91 
Q 1428 -91 1123 -41 
Q 819 9 494 109 
L 494 744 
Q 775 591 1075 516 
Q 1375 441 1709 441 
Q 2250 441 2565 725 
Q 2881 1009 2881 1497 
Q 2881 1984 2565 2268 
Q 2250 2553 1709 2553 
Q 1456 2553 1204 2497 
Q 953 2441 691 2322 
L 691 4666 
z
" transform="scale(0.015625)"/>
       </defs>
       <use xlink:href="#DejaVuSans-2212"/>
       <use xlink:href="#DejaVuSans-35" x="83.789062"/>
      </g>
     </g>
    </g>
    <g id="xtick_3">
     <g id="line2d_3">
      <path d="M 313.452282 188.638125 
L 313.452282 22.318125 
" clip-path="url(#p8b3006caec)" style="fill: none; stroke: #ffffff; stroke-linecap: round"/>
     </g>
     <g id="text_3">
      <!-- 0 -->
      <g style="fill: #262626" transform="translate(309.952907 206.496406) scale(0.11 -0.11)">
       <use xlink:href="#DejaVuSans-30"/>
      </g>
     </g>
    </g>
    <g id="xtick_4">
     <g id="line2d_4">
      <path d="M 417.455966 188.638125 
L 417.455966 22.318125 
" clip-path="url(#p8b3006caec)" style="fill: none; stroke: #ffffff; stroke-linecap: round"/>
     </g>
     <g id="text_4">
      <!-- 5 -->
      <g style="fill: #262626" transform="translate(413.956591 206.496406) scale(0.11 -0.11)">
       <use xlink:href="#DejaVuSans-35"/>
      </g>
     </g>
    </g>
    <g id="xtick_5">
     <g id="line2d_5">
      <path d="M 521.45965 188.638125 
L 521.45965 22.318125 
" clip-path="url(#p8b3006caec)" style="fill: none; stroke: #ffffff; stroke-linecap: round"/>
     </g>
     <g id="text_5">
      <!-- 10 -->
      <g style="fill: #262626" transform="translate(514.4609 206.496406) scale(0.11 -0.11)">
       <use xlink:href="#DejaVuSans-31"/>
       <use xlink:href="#DejaVuSans-30" x="63.623047"/>
      </g>
     </g>
    </g>
   </g>
   <g id="matplotlib.axis_2">
    <g id="ytick_1">
     <g id="line2d_6">
      <path d="M 34.193438 188.638125 
L 592.193437 188.638125 
" clip-path="url(#p8b3006caec)" style="fill: none; stroke: #ffffff; stroke-linecap: round"/>
     </g>
     <g id="text_6">
      <!-- 0.0 -->
      <g style="fill: #262626" transform="translate(7.2 192.817266) scale(0.11 -0.11)">
       <defs>
        <path id="DejaVuSans-2e" d="M 684 794 
L 1344 794 
L 1344 0 
L 684 0 
L 684 794 
z
" transform="scale(0.015625)"/>
       </defs>
       <use xlink:href="#DejaVuSans-30"/>
       <use xlink:href="#DejaVuSans-2e" x="63.623047"/>
       <use xlink:href="#DejaVuSans-30" x="95.410156"/>
      </g>
     </g>
    </g>
    <g id="ytick_2">
     <g id="line2d_7">
      <path d="M 34.193438 146.886907 
L 592.193437 146.886907 
" clip-path="url(#p8b3006caec)" style="fill: none; stroke: #ffffff; stroke-linecap: round"/>
     </g>
     <g id="text_7">
      <!-- 0.2 -->
      <g style="fill: #262626" transform="translate(7.2 151.066047) scale(0.11 -0.11)">
       <defs>
        <path id="DejaVuSans-32" d="M 1228 531 
L 3431 531 
L 3431 0 
L 469 0 
L 469 531 
Q 828 903 1448 1529 
Q 2069 2156 2228 2338 
Q 2531 2678 2651 2914 
Q 2772 3150 2772 3378 
Q 2772 3750 2511 3984 
Q 2250 4219 1831 4219 
Q 1534 4219 1204 4116 
Q 875 4013 500 3803 
L 500 4441 
Q 881 4594 1212 4672 
Q 1544 4750 1819 4750 
Q 2544 4750 2975 4387 
Q 3406 4025 3406 3419 
Q 3406 3131 3298 2873 
Q 3191 2616 2906 2266 
Q 2828 2175 2409 1742 
Q 1991 1309 1228 531 
z
" transform="scale(0.015625)"/>
       </defs>
       <use xlink:href="#DejaVuSans-30"/>
       <use xlink:href="#DejaVuSans-2e" x="63.623047"/>
       <use xlink:href="#DejaVuSans-32" x="95.410156"/>
      </g>
     </g>
    </g>
    <g id="ytick_3">
     <g id="line2d_8">
      <path d="M 34.193438 105.135688 
L 592.193437 105.135688 
" clip-path="url(#p8b3006caec)" style="fill: none; stroke: #ffffff; stroke-linecap: round"/>
     </g>
     <g id="text_8">
      <!-- 0.4 -->
      <g style="fill: #262626" transform="translate(7.2 109.314829) scale(0.11 -0.11)">
       <defs>
        <path id="DejaVuSans-34" d="M 2419 4116 
L 825 1625 
L 2419 1625 
L 2419 4116 
z
M 2253 4666 
L 3047 4666 
L 3047 1625 
L 3713 1625 
L 3713 1100 
L 3047 1100 
L 3047 0 
L 2419 0 
L 2419 1100 
L 313 1100 
L 313 1709 
L 2253 4666 
z
" transform="scale(0.015625)"/>
       </defs>
       <use xlink:href="#DejaVuSans-30"/>
       <use xlink:href="#DejaVuSans-2e" x="63.623047"/>
       <use xlink:href="#DejaVuSans-34" x="95.410156"/>
      </g>
     </g>
    </g>
    <g id="ytick_4">
     <g id="line2d_9">
      <path d="M 34.193438 63.38447 
L 592.193437 63.38447 
" clip-path="url(#p8b3006caec)" style="fill: none; stroke: #ffffff; stroke-linecap: round"/>
     </g>
     <g id="text_9">
      <!-- 0.6 -->
      <g style="fill: #262626" transform="translate(7.2 67.563611) scale(0.11 -0.11)">
       <defs>
        <path id="DejaVuSans-36" d="M 2113 2584 
Q 1688 2584 1439 2293 
Q 1191 2003 1191 1497 
Q 1191 994 1439 701 
Q 1688 409 2113 409 
Q 2538 409 2786 701 
Q 3034 994 3034 1497 
Q 3034 2003 2786 2293 
Q 2538 2584 2113 2584 
z
M 3366 4563 
L 3366 3988 
Q 3128 4100 2886 4159 
Q 2644 4219 2406 4219 
Q 1781 4219 1451 3797 
Q 1122 3375 1075 2522 
Q 1259 2794 1537 2939 
Q 1816 3084 2150 3084 
Q 2853 3084 3261 2657 
Q 3669 2231 3669 1497 
Q 3669 778 3244 343 
Q 2819 -91 2113 -91 
Q 1303 -91 875 529 
Q 447 1150 447 2328 
Q 447 3434 972 4092 
Q 1497 4750 2381 4750 
Q 2619 4750 2861 4703 
Q 3103 4656 3366 4563 
z
" transform="scale(0.015625)"/>
       </defs>
       <use xlink:href="#DejaVuSans-30"/>
       <use xlink:href="#DejaVuSans-2e" x="63.623047"/>
       <use xlink:href="#DejaVuSans-36" x="95.410156"/>
      </g>
     </g>
    </g>
   </g>
   <g id="patch_3">
    <path d="M 59.557074 188.638125 
L 61.538605 188.638125 
L 61.538605 188.415662 
L 59.557074 188.415662 
z
" clip-path="url(#p8b3006caec)" style="fill: #4c72b0; fill-opacity: 0.5; stroke: #4c72b0; stroke-linejoin: miter"/>
   </g>
   <g id="patch_4">
    <path d="M 61.538605 188.638125 
L 63.520135 188.638125 
L 63.520135 188.39246 
L 61.538605 188.39246 
z
" clip-path="url(#p8b3006caec)" style="fill: #4c72b0; fill-opacity: 0.5; stroke: #4c72b0; stroke-linejoin: miter"/>
   </g>
   <g id="patch_5">
    <path d="M 63.520135 188.638125 
L 65.501686 188.638125 
L 65.501686 188.341965 
L 63.520135 188.341965 
z
" clip-path="url(#p8b3006caec)" style="fill: #4c72b0; fill-opacity: 0.5; stroke: #4c72b0; stroke-linejoin: miter"/>
   </g>
   <g id="patch_6">
    <path d="M 65.501686 188.638125 
L 67.483217 188.638125 
L 67.483217 188.32422 
L 65.501686 188.32422 
z
" clip-path="url(#p8b3006caec)" style="fill: #4c72b0; fill-opacity: 0.5; stroke: #4c72b0; stroke-linejoin: miter"/>
   </g>
   <g id="patch_7">
    <path d="M 67.483217 188.638125 
L 69.464747 188.638125 
L 69.464747 188.296923 
L 67.483217 188.296923 
z
" clip-path="url(#p8b3006caec)" style="fill: #4c72b0; fill-opacity: 0.5; stroke: #4c72b0; stroke-linejoin: miter"/>
   </g>
   <g id="patch_8">
    <path d="M 69.464747 188.638125 
L 71.446278 188.638125 
L 71.446278 188.277816 
L 69.464747 188.277816 
z
" clip-path="url(#p8b3006caec)" style="fill: #4c72b0; fill-opacity: 0.5; stroke: #4c72b0; stroke-linejoin: miter"/>
   </g>
   <g id="patch_9">
    <path d="M 71.446278 188.638125 
L 73.427809 188.638125 
L 73.427809 188.254614 
L 71.446278 188.254614 
z
" clip-path="url(#p8b3006caec)" style="fill: #4c72b0; fill-opacity: 0.5; stroke: #4c72b0; stroke-linejoin: miter"/>
   </g>
   <g id="patch_10">
    <path d="M 73.427809 188.638125 
L 75.40934 188.638125 
L 75.40934 188.185009 
L 73.427809 188.185009 
z
" clip-path="url(#p8b3006caec)" style="fill: #4c72b0; fill-opacity: 0.5; stroke: #4c72b0; stroke-linejoin: miter"/>
   </g>
   <g id="patch_11">
    <path d="M 75.40934 188.638125 
L 77.39089 188.638125 
L 77.39089 188.14134 
L 75.40934 188.14134 
z
" clip-path="url(#p8b3006caec)" style="fill: #4c72b0; fill-opacity: 0.5; stroke: #4c72b0; stroke-linejoin: miter"/>
   </g>
   <g id="patch_12">
    <path d="M 77.39089 188.638125 
L 79.372421 188.638125 
L 79.372421 188.063542 
L 77.39089 188.063542 
z
" clip-path="url(#p8b3006caec)" style="fill: #4c72b0; fill-opacity: 0.5; stroke: #4c72b0; stroke-linejoin: miter"/>
   </g>
   <g id="patch_13">
    <path d="M 79.372421 188.638125 
L 81.353952 188.638125 
L 81.353952 188.075825 
L 79.372421 188.075825 
z
" clip-path="url(#p8b3006caec)" style="fill: #4c72b0; fill-opacity: 0.5; stroke: #4c72b0; stroke-linejoin: miter"/>
   </g>
   <g id="patch_14">
    <path d="M 81.353952 188.638125 
L 83.335483 188.638125 
L 83.335483 187.974829 
L 81.353952 187.974829 
z
" clip-path="url(#p8b3006caec)" style="fill: #4c72b0; fill-opacity: 0.5; stroke: #4c72b0; stroke-linejoin: miter"/>
   </g>
   <g id="patch_15">
    <path d="M 83.335483 188.638125 
L 85.317013 188.638125 
L 85.317013 187.851997 
L 83.335483 187.851997 
z
" clip-path="url(#p8b3006caec)" style="fill: #4c72b0; fill-opacity: 0.5; stroke: #4c72b0; stroke-linejoin: miter"/>
   </g>
   <g id="patch_16">
    <path d="M 85.317013 188.638125 
L 87.298544 188.638125 
L 87.298544 187.806958 
L 85.317013 187.806958 
z
" clip-path="url(#p8b3006caec)" style="fill: #4c72b0; fill-opacity: 0.5; stroke: #4c72b0; stroke-linejoin: miter"/>
   </g>
   <g id="patch_17">
    <path d="M 87.298544 188.638125 
L 89.280095 188.638125 
L 89.280095 187.827438 
L 87.298544 187.827438 
z
" clip-path="url(#p8b3006caec)" style="fill: #4c72b0; fill-opacity: 0.5; stroke: #4c72b0; stroke-linejoin: miter"/>
   </g>
   <g id="patch_18">
    <path d="M 89.280095 188.638125 
L 91.261626 188.638125 
L 91.261626 187.699138 
L 89.280095 187.699138 
z
" clip-path="url(#p8b3006caec)" style="fill: #4c72b0; fill-opacity: 0.5; stroke: #4c72b0; stroke-linejoin: miter"/>
   </g>
   <g id="patch_19">
    <path d="M 91.261626 188.638125 
L 93.243156 188.638125 
L 93.243156 187.604967 
L 91.261626 187.604967 
z
" clip-path="url(#p8b3006caec)" style="fill: #4c72b0; fill-opacity: 0.5; stroke: #4c72b0; stroke-linejoin: miter"/>
   </g>
   <g id="patch_20">
    <path d="M 93.243156 188.638125 
L 95.224687 188.638125 
L 95.224687 187.490323 
L 93.243156 187.490323 
z
" clip-path="url(#p8b3006caec)" style="fill: #4c72b0; fill-opacity: 0.5; stroke: #4c72b0; stroke-linejoin: miter"/>
   </g>
   <g id="patch_21">
    <path d="M 95.224687 188.638125 
L 97.206218 188.638125 
L 97.206218 187.377044 
L 95.224687 187.377044 
z
" clip-path="url(#p8b3006caec)" style="fill: #4c72b0; fill-opacity: 0.5; stroke: #4c72b0; stroke-linejoin: miter"/>
   </g>
   <g id="patch_22">
    <path d="M 97.206218 188.638125 
L 99.187749 188.638125 
L 99.187749 187.281507 
L 97.206218 187.281507 
z
" clip-path="url(#p8b3006caec)" style="fill: #4c72b0; fill-opacity: 0.5; stroke: #4c72b0; stroke-linejoin: miter"/>
   </g>
   <g id="patch_23">
    <path d="M 99.187749 188.638125 
L 101.169299 188.638125 
L 101.169299 187.042682 
L 99.187749 187.042682 
z
" clip-path="url(#p8b3006caec)" style="fill: #4c72b0; fill-opacity: 0.5; stroke: #4c72b0; stroke-linejoin: miter"/>
   </g>
   <g id="patch_24">
    <path d="M 101.169299 188.638125 
L 103.15083 188.638125 
L 103.15083 186.918469 
L 101.169299 186.918469 
z
" clip-path="url(#p8b3006caec)" style="fill: #4c72b0; fill-opacity: 0.5; stroke: #4c72b0; stroke-linejoin: miter"/>
   </g>
   <g id="patch_25">
    <path d="M 103.15083 188.638125 
L 105.132361 188.638125 
L 105.132361 186.711018 
L 103.15083 186.711018 
z
" clip-path="url(#p8b3006caec)" style="fill: #4c72b0; fill-opacity: 0.5; stroke: #4c72b0; stroke-linejoin: miter"/>
   </g>
   <g id="patch_26">
    <path d="M 105.132361 188.638125 
L 107.113891 188.638125 
L 107.113891 186.548606 
L 105.132361 186.548606 
z
" clip-path="url(#p8b3006caec)" style="fill: #4c72b0; fill-opacity: 0.5; stroke: #4c72b0; stroke-linejoin: miter"/>
   </g>
   <g id="patch_27">
    <path d="M 107.113891 188.638125 
L 109.095422 188.638125 
L 109.095422 186.443516 
L 107.113891 186.443516 
z
" clip-path="url(#p8b3006caec)" style="fill: #4c72b0; fill-opacity: 0.5; stroke: #4c72b0; stroke-linejoin: miter"/>
   </g>
   <g id="patch_28">
    <path d="M 109.095422 188.638125 
L 111.076953 188.638125 
L 111.076953 186.184203 
L 109.095422 186.184203 
z
" clip-path="url(#p8b3006caec)" style="fill: #4c72b0; fill-opacity: 0.5; stroke: #4c72b0; stroke-linejoin: miter"/>
   </g>
   <g id="patch_29">
    <path d="M 111.076953 188.638125 
L 113.058504 188.638125 
L 113.058504 185.933106 
L 111.076953 185.933106 
z
" clip-path="url(#p8b3006caec)" style="fill: #4c72b0; fill-opacity: 0.5; stroke: #4c72b0; stroke-linejoin: miter"/>
   </g>
   <g id="patch_30">
    <path d="M 113.058504 188.638125 
L 115.040034 188.638125 
L 115.040034 185.694238 
L 113.058504 185.694238 
z
" clip-path="url(#p8b3006caec)" style="fill: #4c72b0; fill-opacity: 0.5; stroke: #4c72b0; stroke-linejoin: miter"/>
   </g>
   <g id="patch_31">
    <path d="M 115.040034 188.638125 
L 117.021565 188.638125 
L 117.021565 185.43356 
L 115.040034 185.43356 
z
" clip-path="url(#p8b3006caec)" style="fill: #4c72b0; fill-opacity: 0.5; stroke: #4c72b0; stroke-linejoin: miter"/>
   </g>
   <g id="patch_32">
    <path d="M 117.021565 188.638125 
L 119.003096 188.638125 
L 119.003096 185.116925 
L 117.021565 185.116925 
z
" clip-path="url(#p8b3006caec)" style="fill: #4c72b0; fill-opacity: 0.5; stroke: #4c72b0; stroke-linejoin: miter"/>
   </g>
   <g id="patch_33">
    <path d="M 119.003096 188.638125 
L 120.984627 188.638125 
L 120.984627 184.669268 
L 119.003096 184.669268 
z
" clip-path="url(#p8b3006caec)" style="fill: #4c72b0; fill-opacity: 0.5; stroke: #4c72b0; stroke-linejoin: miter"/>
   </g>
   <g id="patch_34">
    <path d="M 120.984627 188.638125 
L 122.966157 188.638125 
L 122.966157 184.26938 
L 120.984627 184.26938 
z
" clip-path="url(#p8b3006caec)" style="fill: #4c72b0; fill-opacity: 0.5; stroke: #4c72b0; stroke-linejoin: miter"/>
   </g>
   <g id="patch_35">
    <path d="M 122.966157 188.638125 
L 124.947708 188.638125 
L 124.947708 183.874998 
L 122.966157 183.874998 
z
" clip-path="url(#p8b3006caec)" style="fill: #4c72b0; fill-opacity: 0.5; stroke: #4c72b0; stroke-linejoin: miter"/>
   </g>
   <g id="patch_36">
    <path d="M 124.947708 188.638125 
L 126.929239 188.638125 
L 126.929239 183.46005 
L 124.947708 183.46005 
z
" clip-path="url(#p8b3006caec)" style="fill: #4c72b0; fill-opacity: 0.5; stroke: #4c72b0; stroke-linejoin: miter"/>
   </g>
   <g id="patch_37">
    <path d="M 126.929239 188.638125 
L 128.910769 188.638125 
L 128.910769 182.897749 
L 126.929239 182.897749 
z
" clip-path="url(#p8b3006caec)" style="fill: #4c72b0; fill-opacity: 0.5; stroke: #4c72b0; stroke-linejoin: miter"/>
   </g>
   <g id="patch_38">
    <path d="M 128.910769 188.638125 
L 130.8923 188.638125 
L 130.8923 182.148471 
L 128.910769 182.148471 
z
" clip-path="url(#p8b3006caec)" style="fill: #4c72b0; fill-opacity: 0.5; stroke: #4c72b0; stroke-linejoin: miter"/>
   </g>
   <g id="patch_39">
    <path d="M 130.8923 188.638125 
L 132.873831 188.638125 
L 132.873831 181.599819 
L 130.8923 181.599819 
z
" clip-path="url(#p8b3006caec)" style="fill: #4c72b0; fill-opacity: 0.5; stroke: #4c72b0; stroke-linejoin: miter"/>
   </g>
   <g id="patch_40">
    <path d="M 132.873831 188.638125 
L 134.855362 188.638125 
L 134.855362 180.899673 
L 132.873831 180.899673 
z
" clip-path="url(#p8b3006caec)" style="fill: #4c72b0; fill-opacity: 0.5; stroke: #4c72b0; stroke-linejoin: miter"/>
   </g>
   <g id="patch_41">
    <path d="M 134.855362 188.638125 
L 136.836912 188.638125 
L 136.836912 180.337456 
L 134.855362 180.337456 
z
" clip-path="url(#p8b3006caec)" style="fill: #4c72b0; fill-opacity: 0.5; stroke: #4c72b0; stroke-linejoin: miter"/>
   </g>
   <g id="patch_42">
    <path d="M 136.836912 188.638125 
L 138.818443 188.638125 
L 138.818443 179.624944 
L 136.836912 179.624944 
z
" clip-path="url(#p8b3006caec)" style="fill: #4c72b0; fill-opacity: 0.5; stroke: #4c72b0; stroke-linejoin: miter"/>
   </g>
   <g id="patch_43">
    <path d="M 138.818443 188.638125 
L 140.799974 188.638125 
L 140.799974 178.227382 
L 138.818443 178.227382 
z
" clip-path="url(#p8b3006caec)" style="fill: #4c72b0; fill-opacity: 0.5; stroke: #4c72b0; stroke-linejoin: miter"/>
   </g>
   <g id="patch_44">
    <path d="M 140.799974 188.638125 
L 142.781505 188.638125 
L 142.781505 177.348447 
L 140.799974 177.348447 
z
" clip-path="url(#p8b3006caec)" style="fill: #4c72b0; fill-opacity: 0.5; stroke: #4c72b0; stroke-linejoin: miter"/>
   </g>
   <g id="patch_45">
    <path d="M 142.781505 188.638125 
L 144.763035 188.638125 
L 144.763035 176.122851 
L 142.781505 176.122851 
z
" clip-path="url(#p8b3006caec)" style="fill: #4c72b0; fill-opacity: 0.5; stroke: #4c72b0; stroke-linejoin: miter"/>
   </g>
   <g id="patch_46">
    <path d="M 144.763035 188.638125 
L 146.744566 188.638125 
L 146.744566 174.988696 
L 144.763035 174.988696 
z
" clip-path="url(#p8b3006caec)" style="fill: #4c72b0; fill-opacity: 0.5; stroke: #4c72b0; stroke-linejoin: miter"/>
   </g>
   <g id="patch_47">
    <path d="M 146.744566 188.638125 
L 148.726107 188.638125 
L 148.726107 173.801389 
L 146.744566 173.801389 
z
" clip-path="url(#p8b3006caec)" style="fill: #4c72b0; fill-opacity: 0.5; stroke: #4c72b0; stroke-linejoin: miter"/>
   </g>
   <g id="patch_48">
    <path d="M 148.726107 188.638125 
L 150.707638 188.638125 
L 150.707638 172.376457 
L 148.726107 172.376457 
z
" clip-path="url(#p8b3006caec)" style="fill: #4c72b0; fill-opacity: 0.5; stroke: #4c72b0; stroke-linejoin: miter"/>
   </g>
   <g id="patch_49">
    <path d="M 150.707638 188.638125 
L 152.689178 188.638125 
L 152.689178 170.510857 
L 150.707638 170.510857 
z
" clip-path="url(#p8b3006caec)" style="fill: #4c72b0; fill-opacity: 0.5; stroke: #4c72b0; stroke-linejoin: miter"/>
   </g>
   <g id="patch_50">
    <path d="M 152.689178 188.638125 
L 154.670709 188.638125 
L 154.670709 169.04087 
L 152.689178 169.04087 
z
" clip-path="url(#p8b3006caec)" style="fill: #4c72b0; fill-opacity: 0.5; stroke: #4c72b0; stroke-linejoin: miter"/>
   </g>
   <g id="patch_51">
    <path d="M 154.670709 188.638125 
L 156.65224 188.638125 
L 156.65224 166.647 
L 154.670709 166.647 
z
" clip-path="url(#p8b3006caec)" style="fill: #4c72b0; fill-opacity: 0.5; stroke: #4c72b0; stroke-linejoin: miter"/>
   </g>
   <g id="patch_52">
    <path d="M 156.65224 188.638125 
L 158.63378 188.638125 
L 158.63378 164.582168 
L 156.65224 164.582168 
z
" clip-path="url(#p8b3006caec)" style="fill: #4c72b0; fill-opacity: 0.5; stroke: #4c72b0; stroke-linejoin: miter"/>
   </g>
   <g id="patch_53">
    <path d="M 158.63378 188.638125 
L 160.615311 188.638125 
L 160.615311 161.972538 
L 158.63378 161.972538 
z
" clip-path="url(#p8b3006caec)" style="fill: #4c72b0; fill-opacity: 0.5; stroke: #4c72b0; stroke-linejoin: miter"/>
   </g>
   <g id="patch_54">
    <path d="M 160.615311 188.638125 
L 162.596842 188.638125 
L 162.596842 159.137835 
L 160.615311 159.137835 
z
" clip-path="url(#p8b3006caec)" style="fill: #4c72b0; fill-opacity: 0.5; stroke: #4c72b0; stroke-linejoin: miter"/>
   </g>
   <g id="patch_55">
    <path d="M 162.596842 188.638125 
L 164.578383 188.638125 
L 164.578383 156.506649 
L 162.596842 156.506649 
z
" clip-path="url(#p8b3006caec)" style="fill: #4c72b0; fill-opacity: 0.5; stroke: #4c72b0; stroke-linejoin: miter"/>
   </g>
   <g id="patch_56">
    <path d="M 164.578383 188.638125 
L 166.559913 188.638125 
L 166.559913 153.21594 
L 164.578383 153.21594 
z
" clip-path="url(#p8b3006caec)" style="fill: #4c72b0; fill-opacity: 0.5; stroke: #4c72b0; stroke-linejoin: miter"/>
   </g>
   <g id="patch_57">
    <path d="M 166.559913 188.638125 
L 168.541444 188.638125 
L 168.541444 149.960877 
L 166.559913 149.960877 
z
" clip-path="url(#p8b3006caec)" style="fill: #4c72b0; fill-opacity: 0.5; stroke: #4c72b0; stroke-linejoin: miter"/>
   </g>
   <g id="patch_58">
    <path d="M 168.541444 188.638125 
L 170.522985 188.638125 
L 170.522985 145.821634 
L 168.541444 145.821634 
z
" clip-path="url(#p8b3006caec)" style="fill: #4c72b0; fill-opacity: 0.5; stroke: #4c72b0; stroke-linejoin: miter"/>
   </g>
   <g id="patch_59">
    <path d="M 170.522985 188.638125 
L 172.504516 188.638125 
L 172.504516 141.205644 
L 170.522985 141.205644 
z
" clip-path="url(#p8b3006caec)" style="fill: #4c72b0; fill-opacity: 0.5; stroke: #4c72b0; stroke-linejoin: miter"/>
   </g>
   <g id="patch_60">
    <path d="M 172.504516 188.638125 
L 174.486046 188.638125 
L 174.486046 137.051174 
L 172.504516 137.051174 
z
" clip-path="url(#p8b3006caec)" style="fill: #4c72b0; fill-opacity: 0.5; stroke: #4c72b0; stroke-linejoin: miter"/>
   </g>
   <g id="patch_61">
    <path d="M 174.486046 188.638125 
L 176.467587 188.638125 
L 176.467587 132.164085 
L 174.486046 132.164085 
z
" clip-path="url(#p8b3006caec)" style="fill: #4c72b0; fill-opacity: 0.5; stroke: #4c72b0; stroke-linejoin: miter"/>
   </g>
   <g id="patch_62">
    <path d="M 176.467587 188.638125 
L 178.449118 188.638125 
L 178.449118 125.574517 
L 176.467587 125.574517 
z
" clip-path="url(#p8b3006caec)" style="fill: #4c72b0; fill-opacity: 0.5; stroke: #4c72b0; stroke-linejoin: miter"/>
   </g>
   <g id="patch_63">
    <path d="M 178.449118 188.638125 
L 180.430649 188.638125 
L 180.430649 120.224476 
L 178.449118 120.224476 
z
" clip-path="url(#p8b3006caec)" style="fill: #4c72b0; fill-opacity: 0.5; stroke: #4c72b0; stroke-linejoin: miter"/>
   </g>
   <g id="patch_64">
    <path d="M 180.430649 188.638125 
L 182.412189 188.638125 
L 182.412189 113.511369 
L 180.430649 113.511369 
z
" clip-path="url(#p8b3006caec)" style="fill: #4c72b0; fill-opacity: 0.5; stroke: #4c72b0; stroke-linejoin: miter"/>
   </g>
   <g id="patch_65">
    <path d="M 182.412189 188.638125 
L 184.39372 188.638125 
L 184.39372 105.395854 
L 182.412189 105.395854 
z
" clip-path="url(#p8b3006caec)" style="fill: #4c72b0; fill-opacity: 0.5; stroke: #4c72b0; stroke-linejoin: miter"/>
   </g>
   <g id="patch_66">
    <path d="M 184.39372 188.638125 
L 186.375261 188.638125 
L 186.375261 97.855754 
L 184.39372 97.855754 
z
" clip-path="url(#p8b3006caec)" style="fill: #4c72b0; fill-opacity: 0.5; stroke: #4c72b0; stroke-linejoin: miter"/>
   </g>
   <g id="patch_67">
    <path d="M 186.375261 188.638125 
L 188.356791 188.638125 
L 188.356791 88.05326 
L 186.375261 88.05326 
z
" clip-path="url(#p8b3006caec)" style="fill: #4c72b0; fill-opacity: 0.5; stroke: #4c72b0; stroke-linejoin: miter"/>
   </g>
   <g id="patch_68">
    <path d="M 188.356791 188.638125 
L 190.338322 188.638125 
L 190.338322 78.644285 
L 188.356791 78.644285 
z
" clip-path="url(#p8b3006caec)" style="fill: #4c72b0; fill-opacity: 0.5; stroke: #4c72b0; stroke-linejoin: miter"/>
   </g>
   <g id="patch_69">
    <path d="M 190.338322 188.638125 
L 192.319863 188.638125 
L 192.319863 67.353849 
L 190.338322 67.353849 
z
" clip-path="url(#p8b3006caec)" style="fill: #4c72b0; fill-opacity: 0.5; stroke: #4c72b0; stroke-linejoin: miter"/>
   </g>
   <g id="patch_70">
    <path d="M 192.319863 188.638125 
L 194.301394 188.638125 
L 194.301394 55.34431 
L 192.319863 55.34431 
z
" clip-path="url(#p8b3006caec)" style="fill: #4c72b0; fill-opacity: 0.5; stroke: #4c72b0; stroke-linejoin: miter"/>
   </g>
   <g id="patch_71">
    <path d="M 194.301394 188.638125 
L 196.282924 188.638125 
L 196.282924 42.487834 
L 194.301394 42.487834 
z
" clip-path="url(#p8b3006caec)" style="fill: #4c72b0; fill-opacity: 0.5; stroke: #4c72b0; stroke-linejoin: miter"/>
   </g>
   <g id="patch_72">
    <path d="M 196.282924 188.638125 
L 198.264465 188.638125 
L 198.264465 30.238125 
L 196.282924 30.238125 
z
" clip-path="url(#p8b3006caec)" style="fill: #4c72b0; fill-opacity: 0.5; stroke: #4c72b0; stroke-linejoin: miter"/>
   </g>
   <g id="patch_73">
    <path d="M 198.264465 188.638125 
L 200.245996 188.638125 
L 200.245996 188.538494 
L 198.264465 188.538494 
z
" clip-path="url(#p8b3006caec)" style="fill: #4c72b0; fill-opacity: 0.5; stroke: #4c72b0; stroke-linejoin: miter"/>
   </g>
   <g id="patch_74">
    <path d="M 200.245996 188.638125 
L 202.227527 188.638125 
L 202.227527 188.549413 
L 200.245996 188.549413 
z
" clip-path="url(#p8b3006caec)" style="fill: #4c72b0; fill-opacity: 0.5; stroke: #4c72b0; stroke-linejoin: miter"/>
   </g>
   <g id="patch_75">
    <path d="M 202.227527 188.638125 
L 204.209067 188.638125 
L 204.209067 188.553507 
L 202.227527 188.553507 
z
" clip-path="url(#p8b3006caec)" style="fill: #4c72b0; fill-opacity: 0.5; stroke: #4c72b0; stroke-linejoin: miter"/>
   </g>
   <g id="patch_76">
    <path d="M 204.209067 188.638125 
L 206.190598 188.638125 
L 206.190598 188.549413 
L 204.209067 188.549413 
z
" clip-path="url(#p8b3006caec)" style="fill: #4c72b0; fill-opacity: 0.5; stroke: #4c72b0; stroke-linejoin: miter"/>
   </g>
   <g id="patch_77">
    <path d="M 206.190598 188.638125 
L 208.172129 188.638125 
L 208.172129 188.523481 
L 206.190598 188.523481 
z
" clip-path="url(#p8b3006caec)" style="fill: #4c72b0; fill-opacity: 0.5; stroke: #4c72b0; stroke-linejoin: miter"/>
   </g>
   <g id="patch_78">
    <path d="M 208.172129 188.638125 
L 210.153669 188.638125 
L 210.153669 188.522117 
L 208.172129 188.522117 
z
" clip-path="url(#p8b3006caec)" style="fill: #4c72b0; fill-opacity: 0.5; stroke: #4c72b0; stroke-linejoin: miter"/>
   </g>
   <g id="patch_79">
    <path d="M 210.153669 188.638125 
L 212.1352 188.638125 
L 212.1352 188.479807 
L 210.153669 188.479807 
z
" clip-path="url(#p8b3006caec)" style="fill: #4c72b0; fill-opacity: 0.5; stroke: #4c72b0; stroke-linejoin: miter"/>
   </g>
   <g id="patch_80">
    <path d="M 212.1352 188.638125 
L 214.116731 188.638125 
L 214.116731 188.35834 
L 212.1352 188.35834 
z
" clip-path="url(#p8b3006caec)" style="fill: #4c72b0; fill-opacity: 0.5; stroke: #4c72b0; stroke-linejoin: miter"/>
   </g>
   <g id="patch_81">
    <path d="M 214.116731 188.638125 
L 216.098272 188.638125 
L 216.098272 188.26144 
L 214.116731 188.26144 
z
" clip-path="url(#p8b3006caec)" style="fill: #4c72b0; fill-opacity: 0.5; stroke: #4c72b0; stroke-linejoin: miter"/>
   </g>
   <g id="patch_82">
    <path d="M 216.098272 188.638125 
L 218.079802 188.638125 
L 218.079802 188.243696 
L 216.098272 188.243696 
z
" clip-path="url(#p8b3006caec)" style="fill: #4c72b0; fill-opacity: 0.5; stroke: #4c72b0; stroke-linejoin: miter"/>
   </g>
   <g id="patch_83">
    <path d="M 218.079802 188.638125 
L 220.061333 188.638125 
L 220.061333 188.231413 
L 218.079802 188.231413 
z
" clip-path="url(#p8b3006caec)" style="fill: #4c72b0; fill-opacity: 0.5; stroke: #4c72b0; stroke-linejoin: miter"/>
   </g>
   <g id="patch_84">
    <path d="M 220.061333 188.638125 
L 222.042874 188.638125 
L 222.042874 188.172728 
L 220.061333 188.172728 
z
" clip-path="url(#p8b3006caec)" style="fill: #4c72b0; fill-opacity: 0.5; stroke: #4c72b0; stroke-linejoin: miter"/>
   </g>
   <g id="patch_85">
    <path d="M 222.042874 188.638125 
L 224.024405 188.638125 
L 224.024405 188.198657 
L 222.042874 188.198657 
z
" clip-path="url(#p8b3006caec)" style="fill: #4c72b0; fill-opacity: 0.5; stroke: #4c72b0; stroke-linejoin: miter"/>
   </g>
   <g id="patch_86">
    <path d="M 224.024405 188.638125 
L 226.005935 188.638125 
L 226.005935 188.186374 
L 224.024405 188.186374 
z
" clip-path="url(#p8b3006caec)" style="fill: #4c72b0; fill-opacity: 0.5; stroke: #4c72b0; stroke-linejoin: miter"/>
   </g>
   <g id="patch_87">
    <path d="M 226.005935 188.638125 
L 227.987476 188.638125 
L 227.987476 188.082652 
L 226.005935 188.082652 
z
" clip-path="url(#p8b3006caec)" style="fill: #4c72b0; fill-opacity: 0.5; stroke: #4c72b0; stroke-linejoin: miter"/>
   </g>
   <g id="patch_88">
    <path d="M 227.987476 188.638125 
L 229.969007 188.638125 
L 229.969007 187.913413 
L 227.987476 187.913413 
z
" clip-path="url(#p8b3006caec)" style="fill: #4c72b0; fill-opacity: 0.5; stroke: #4c72b0; stroke-linejoin: miter"/>
   </g>
   <g id="patch_89">
    <path d="M 229.969007 188.638125 
L 231.950538 188.638125 
L 231.950538 187.910683 
L 229.969007 187.910683 
z
" clip-path="url(#p8b3006caec)" style="fill: #4c72b0; fill-opacity: 0.5; stroke: #4c72b0; stroke-linejoin: miter"/>
   </g>
   <g id="patch_90">
    <path d="M 231.950538 188.638125 
L 233.932073 188.638125 
L 233.932073 187.952994 
L 231.950538 187.952994 
z
" clip-path="url(#p8b3006caec)" style="fill: #4c72b0; fill-opacity: 0.5; stroke: #4c72b0; stroke-linejoin: miter"/>
   </g>
   <g id="patch_91">
    <path d="M 233.932073 188.638125 
L 235.913609 188.638125 
L 235.913609 187.865647 
L 233.932073 187.865647 
z
" clip-path="url(#p8b3006caec)" style="fill: #4c72b0; fill-opacity: 0.5; stroke: #4c72b0; stroke-linejoin: miter"/>
   </g>
   <g id="patch_92">
    <path d="M 235.913609 188.638125 
L 237.89514 188.638125 
L 237.89514 187.417988 
L 235.913609 187.417988 
z
" clip-path="url(#p8b3006caec)" style="fill: #4c72b0; fill-opacity: 0.5; stroke: #4c72b0; stroke-linejoin: miter"/>
   </g>
   <g id="patch_93">
    <path d="M 237.89514 188.638125 
L 239.876675 188.638125 
L 239.876675 187.434369 
L 237.89514 187.434369 
z
" clip-path="url(#p8b3006caec)" style="fill: #4c72b0; fill-opacity: 0.5; stroke: #4c72b0; stroke-linejoin: miter"/>
   </g>
   <g id="patch_94">
    <path d="M 239.876675 188.638125 
L 241.858211 188.638125 
L 241.858211 187.508068 
L 239.876675 187.508068 
z
" clip-path="url(#p8b3006caec)" style="fill: #4c72b0; fill-opacity: 0.5; stroke: #4c72b0; stroke-linejoin: miter"/>
   </g>
   <g id="patch_95">
    <path d="M 241.858211 188.638125 
L 243.839742 188.638125 
L 243.839742 187.426177 
L 241.858211 187.426177 
z
" clip-path="url(#p8b3006caec)" style="fill: #4c72b0; fill-opacity: 0.5; stroke: #4c72b0; stroke-linejoin: miter"/>
   </g>
   <g id="patch_96">
    <path d="M 243.839742 188.638125 
L 245.821278 188.638125 
L 245.821278 187.115005 
L 243.839742 187.115005 
z
" clip-path="url(#p8b3006caec)" style="fill: #4c72b0; fill-opacity: 0.5; stroke: #4c72b0; stroke-linejoin: miter"/>
   </g>
   <g id="patch_97">
    <path d="M 245.821278 188.638125 
L 247.802813 188.638125 
L 247.802813 186.888448 
L 245.821278 186.888448 
z
" clip-path="url(#p8b3006caec)" style="fill: #4c72b0; fill-opacity: 0.5; stroke: #4c72b0; stroke-linejoin: miter"/>
   </g>
   <g id="patch_98">
    <path d="M 247.802813 188.638125 
L 249.784344 188.638125 
L 249.784344 186.797001 
L 247.802813 186.797001 
z
" clip-path="url(#p8b3006caec)" style="fill: #4c72b0; fill-opacity: 0.5; stroke: #4c72b0; stroke-linejoin: miter"/>
   </g>
   <g id="patch_99">
    <path d="M 249.784344 188.638125 
L 251.76588 188.638125 
L 251.76588 186.945769 
L 249.784344 186.945769 
z
" clip-path="url(#p8b3006caec)" style="fill: #4c72b0; fill-opacity: 0.5; stroke: #4c72b0; stroke-linejoin: miter"/>
   </g>
   <g id="patch_100">
    <path d="M 251.76588 188.638125 
L 253.747416 188.638125 
L 253.747416 186.704199 
L 251.76588 186.704199 
z
" clip-path="url(#p8b3006caec)" style="fill: #4c72b0; fill-opacity: 0.5; stroke: #4c72b0; stroke-linejoin: miter"/>
   </g>
   <g id="patch_101">
    <path d="M 253.747416 188.638125 
L 255.728951 188.638125 
L 255.728951 186.760156 
L 253.747416 186.760156 
z
" clip-path="url(#p8b3006caec)" style="fill: #4c72b0; fill-opacity: 0.5; stroke: #4c72b0; stroke-linejoin: miter"/>
   </g>
   <g id="patch_102">
    <path d="M 255.728951 188.638125 
L 257.710482 188.638125 
L 257.710482 186.780624 
L 255.728951 186.780624 
z
" clip-path="url(#p8b3006caec)" style="fill: #4c72b0; fill-opacity: 0.5; stroke: #4c72b0; stroke-linejoin: miter"/>
   </g>
   <g id="patch_103">
    <path d="M 257.710482 188.638125 
L 259.692018 188.638125 
L 259.692018 186.724671 
L 257.710482 186.724671 
z
" clip-path="url(#p8b3006caec)" style="fill: #4c72b0; fill-opacity: 0.5; stroke: #4c72b0; stroke-linejoin: miter"/>
   </g>
   <g id="patch_104">
    <path d="M 259.692018 188.638125 
L 261.673553 188.638125 
L 261.673553 186.240166 
L 259.692018 186.240166 
z
" clip-path="url(#p8b3006caec)" style="fill: #4c72b0; fill-opacity: 0.5; stroke: #4c72b0; stroke-linejoin: miter"/>
   </g>
   <g id="patch_105">
    <path d="M 261.673553 188.638125 
L 263.655084 188.638125 
L 263.655084 185.964469 
L 261.673553 185.964469 
z
" clip-path="url(#p8b3006caec)" style="fill: #4c72b0; fill-opacity: 0.5; stroke: #4c72b0; stroke-linejoin: miter"/>
   </g>
   <g id="patch_106">
    <path d="M 263.655084 188.638125 
L 265.63662 188.638125 
L 265.63662 185.894871 
L 263.655084 185.894871 
z
" clip-path="url(#p8b3006caec)" style="fill: #4c72b0; fill-opacity: 0.5; stroke: #4c72b0; stroke-linejoin: miter"/>
   </g>
   <g id="patch_107">
    <path d="M 265.63662 188.638125 
L 267.618156 188.638125 
L 267.618156 186.266097 
L 265.63662 186.266097 
z
" clip-path="url(#p8b3006caec)" style="fill: #4c72b0; fill-opacity: 0.5; stroke: #4c72b0; stroke-linejoin: miter"/>
   </g>
   <g id="patch_108">
    <path d="M 267.618156 188.638125 
L 269.599686 188.638125 
L 269.599686 186.210134 
L 267.618156 186.210134 
z
" clip-path="url(#p8b3006caec)" style="fill: #4c72b0; fill-opacity: 0.5; stroke: #4c72b0; stroke-linejoin: miter"/>
   </g>
   <g id="patch_109">
    <path d="M 269.599686 188.638125 
L 271.581222 188.638125 
L 271.581222 185.149689 
L 269.599686 185.149689 
z
" clip-path="url(#p8b3006caec)" style="fill: #4c72b0; fill-opacity: 0.5; stroke: #4c72b0; stroke-linejoin: miter"/>
   </g>
   <g id="patch_110">
    <path d="M 271.581222 188.638125 
L 273.562755 188.638125 
L 273.562755 185.127847 
L 271.581222 185.127847 
z
" clip-path="url(#p8b3006caec)" style="fill: #4c72b0; fill-opacity: 0.5; stroke: #4c72b0; stroke-linejoin: miter"/>
   </g>
   <g id="patch_111">
    <path d="M 273.562755 188.638125 
L 275.544289 188.638125 
L 275.544289 186.219691 
L 273.562755 186.219691 
z
" clip-path="url(#p8b3006caec)" style="fill: #4c72b0; fill-opacity: 0.5; stroke: #4c72b0; stroke-linejoin: miter"/>
   </g>
   <g id="patch_112">
    <path d="M 275.544289 188.638125 
L 277.525824 188.638125 
L 277.525824 185.103285 
L 275.544289 185.103285 
z
" clip-path="url(#p8b3006caec)" style="fill: #4c72b0; fill-opacity: 0.5; stroke: #4c72b0; stroke-linejoin: miter"/>
   </g>
   <g id="patch_113">
    <path d="M 277.525824 188.638125 
L 279.507358 188.638125 
L 279.507358 185.398079 
L 277.525824 185.398079 
z
" clip-path="url(#p8b3006caec)" style="fill: #4c72b0; fill-opacity: 0.5; stroke: #4c72b0; stroke-linejoin: miter"/>
   </g>
   <g id="patch_114">
    <path d="M 279.507358 188.638125 
L 281.488891 188.638125 
L 281.488891 185.086903 
L 279.507358 185.086903 
z
" clip-path="url(#p8b3006caec)" style="fill: #4c72b0; fill-opacity: 0.5; stroke: #4c72b0; stroke-linejoin: miter"/>
   </g>
   <g id="patch_115">
    <path d="M 281.488891 188.638125 
L 283.470427 188.638125 
L 283.470427 185.276615 
L 281.488891 185.276615 
z
" clip-path="url(#p8b3006caec)" style="fill: #4c72b0; fill-opacity: 0.5; stroke: #4c72b0; stroke-linejoin: miter"/>
   </g>
   <g id="patch_116">
    <path d="M 283.470427 188.638125 
L 285.45196 188.638125 
L 285.45196 184.875359 
L 283.470427 184.875359 
z
" clip-path="url(#p8b3006caec)" style="fill: #4c72b0; fill-opacity: 0.5; stroke: #4c72b0; stroke-linejoin: miter"/>
   </g>
   <g id="patch_117">
    <path d="M 285.45196 188.638125 
L 287.433495 188.638125 
L 287.433495 185.051423 
L 285.45196 185.051423 
z
" clip-path="url(#p8b3006caec)" style="fill: #4c72b0; fill-opacity: 0.5; stroke: #4c72b0; stroke-linejoin: miter"/>
   </g>
   <g id="patch_118">
    <path d="M 287.433495 188.638125 
L 289.415029 188.638125 
L 289.415029 184.89856 
L 287.433495 184.89856 
z
" clip-path="url(#p8b3006caec)" style="fill: #4c72b0; fill-opacity: 0.5; stroke: #4c72b0; stroke-linejoin: miter"/>
   </g>
   <g id="patch_119">
    <path d="M 289.415029 188.638125 
L 291.396562 188.638125 
L 291.396562 183.213026 
L 289.415029 183.213026 
z
" clip-path="url(#p8b3006caec)" style="fill: #4c72b0; fill-opacity: 0.5; stroke: #4c72b0; stroke-linejoin: miter"/>
   </g>
   <g id="patch_120">
    <path d="M 291.396562 188.638125 
L 293.378096 188.638125 
L 293.378096 184.689748 
L 291.396562 184.689748 
z
" clip-path="url(#p8b3006caec)" style="fill: #4c72b0; fill-opacity: 0.5; stroke: #4c72b0; stroke-linejoin: miter"/>
   </g>
   <g id="patch_121">
    <path d="M 293.378096 188.638125 
L 295.359631 188.638125 
L 295.359631 184.407233 
L 293.378096 184.407233 
z
" clip-path="url(#p8b3006caec)" style="fill: #4c72b0; fill-opacity: 0.5; stroke: #4c72b0; stroke-linejoin: miter"/>
   </g>
   <g id="patch_122">
    <path d="M 295.359631 188.638125 
L 297.341164 188.638125 
L 297.341164 184.153377 
L 295.359631 184.153377 
z
" clip-path="url(#p8b3006caec)" style="fill: #4c72b0; fill-opacity: 0.5; stroke: #4c72b0; stroke-linejoin: miter"/>
   </g>
   <g id="patch_123">
    <path d="M 297.341164 188.638125 
L 299.322699 188.638125 
L 299.322699 183.324944 
L 297.341164 183.324944 
z
" clip-path="url(#p8b3006caec)" style="fill: #4c72b0; fill-opacity: 0.5; stroke: #4c72b0; stroke-linejoin: miter"/>
   </g>
   <g id="patch_124">
    <path d="M 299.322699 188.638125 
L 301.304233 188.638125 
L 301.304233 184.25301 
L 299.322699 184.25301 
z
" clip-path="url(#p8b3006caec)" style="fill: #4c72b0; fill-opacity: 0.5; stroke: #4c72b0; stroke-linejoin: miter"/>
   </g>
   <g id="patch_125">
    <path d="M 301.304233 188.638125 
L 303.285767 188.638125 
L 303.285767 183.902254 
L 301.304233 183.902254 
z
" clip-path="url(#p8b3006caec)" style="fill: #4c72b0; fill-opacity: 0.5; stroke: #4c72b0; stroke-linejoin: miter"/>
   </g>
   <g id="patch_126">
    <path d="M 303.285767 188.638125 
L 305.267301 188.638125 
L 305.267301 184.141095 
L 303.285767 184.141095 
z
" clip-path="url(#p8b3006caec)" style="fill: #4c72b0; fill-opacity: 0.5; stroke: #4c72b0; stroke-linejoin: miter"/>
   </g>
   <g id="patch_127">
    <path d="M 305.267301 188.638125 
L 307.248835 188.638125 
L 307.248835 183.997792 
L 305.267301 183.997792 
z
" clip-path="url(#p8b3006caec)" style="fill: #4c72b0; fill-opacity: 0.5; stroke: #4c72b0; stroke-linejoin: miter"/>
   </g>
   <g id="patch_128">
    <path d="M 307.248835 188.638125 
L 309.230369 188.638125 
L 309.230369 183.416384 
L 307.248835 183.416384 
z
" clip-path="url(#p8b3006caec)" style="fill: #4c72b0; fill-opacity: 0.5; stroke: #4c72b0; stroke-linejoin: miter"/>
   </g>
   <g id="patch_129">
    <path d="M 309.230369 188.638125 
L 311.211903 188.638125 
L 311.211903 183.794436 
L 309.230369 183.794436 
z
" clip-path="url(#p8b3006caec)" style="fill: #4c72b0; fill-opacity: 0.5; stroke: #4c72b0; stroke-linejoin: miter"/>
   </g>
   <g id="patch_130">
    <path d="M 311.211903 188.638125 
L 313.193438 188.638125 
L 313.193438 183.817637 
L 311.211903 183.817637 
z
" clip-path="url(#p8b3006caec)" style="fill: #4c72b0; fill-opacity: 0.5; stroke: #4c72b0; stroke-linejoin: miter"/>
   </g>
   <g id="patch_131">
    <path d="M 313.193438 188.638125 
L 315.174972 188.638125 
L 315.174972 180.950184 
L 313.193438 180.950184 
z
" clip-path="url(#p8b3006caec)" style="fill: #4c72b0; fill-opacity: 0.5; stroke: #4c72b0; stroke-linejoin: miter"/>
   </g>
   <g id="patch_132">
    <path d="M 315.174972 188.638125 
L 317.156506 188.638125 
L 317.156506 183.734384 
L 315.174972 183.734384 
z
" clip-path="url(#p8b3006caec)" style="fill: #4c72b0; fill-opacity: 0.5; stroke: #4c72b0; stroke-linejoin: miter"/>
   </g>
   <g id="patch_133">
    <path d="M 317.156506 188.638125 
L 319.13804 188.638125 
L 319.13804 183.495543 
L 317.156506 183.495543 
z
" clip-path="url(#p8b3006caec)" style="fill: #4c72b0; fill-opacity: 0.5; stroke: #4c72b0; stroke-linejoin: miter"/>
   </g>
   <g id="patch_134">
    <path d="M 319.13804 188.638125 
L 321.119574 188.638125 
L 321.119574 183.496909 
L 319.13804 183.496909 
z
" clip-path="url(#p8b3006caec)" style="fill: #4c72b0; fill-opacity: 0.5; stroke: #4c72b0; stroke-linejoin: miter"/>
   </g>
   <g id="patch_135">
    <path d="M 321.119574 188.638125 
L 323.101108 188.638125 
L 323.101108 184.128812 
L 321.119574 184.128812 
z
" clip-path="url(#p8b3006caec)" style="fill: #4c72b0; fill-opacity: 0.5; stroke: #4c72b0; stroke-linejoin: miter"/>
   </g>
   <g id="patch_136">
    <path d="M 323.101108 188.638125 
L 325.082642 188.638125 
L 325.082642 184.343086 
L 323.101108 184.343086 
z
" clip-path="url(#p8b3006caec)" style="fill: #4c72b0; fill-opacity: 0.5; stroke: #4c72b0; stroke-linejoin: miter"/>
   </g>
   <g id="patch_137">
    <path d="M 325.082642 188.638125 
L 327.064176 188.638125 
L 327.064176 184.278942 
L 325.082642 184.278942 
z
" clip-path="url(#p8b3006caec)" style="fill: #4c72b0; fill-opacity: 0.5; stroke: #4c72b0; stroke-linejoin: miter"/>
   </g>
   <g id="patch_138">
    <path d="M 327.064176 188.638125 
L 329.045711 188.638125 
L 329.045711 182.732619 
L 327.064176 182.732619 
z
" clip-path="url(#p8b3006caec)" style="fill: #4c72b0; fill-opacity: 0.5; stroke: #4c72b0; stroke-linejoin: miter"/>
   </g>
   <g id="patch_139">
    <path d="M 329.045711 188.638125 
L 331.027244 188.638125 
L 331.027244 184.284398 
L 329.045711 184.284398 
z
" clip-path="url(#p8b3006caec)" style="fill: #4c72b0; fill-opacity: 0.5; stroke: #4c72b0; stroke-linejoin: miter"/>
   </g>
   <g id="patch_140">
    <path d="M 331.027244 188.638125 
L 333.008779 188.638125 
L 333.008779 184.124719 
L 331.027244 184.124719 
z
" clip-path="url(#p8b3006caec)" style="fill: #4c72b0; fill-opacity: 0.5; stroke: #4c72b0; stroke-linejoin: miter"/>
   </g>
   <g id="patch_141">
    <path d="M 333.008779 188.638125 
L 334.990313 188.638125 
L 334.990313 185.103283 
L 333.008779 185.103283 
z
" clip-path="url(#p8b3006caec)" style="fill: #4c72b0; fill-opacity: 0.5; stroke: #4c72b0; stroke-linejoin: miter"/>
   </g>
   <g id="patch_142">
    <path d="M 334.990313 188.638125 
L 336.971846 188.638125 
L 336.971846 182.714873 
L 334.990313 182.714873 
z
" clip-path="url(#p8b3006caec)" style="fill: #4c72b0; fill-opacity: 0.5; stroke: #4c72b0; stroke-linejoin: miter"/>
   </g>
   <g id="patch_143">
    <path d="M 336.971846 188.638125 
L 338.95338 188.638125 
L 338.95338 184.216158 
L 336.971846 184.216158 
z
" clip-path="url(#p8b3006caec)" style="fill: #4c72b0; fill-opacity: 0.5; stroke: #4c72b0; stroke-linejoin: miter"/>
   </g>
   <g id="patch_144">
    <path d="M 338.95338 188.638125 
L 340.934915 188.638125 
L 340.934915 184.711587 
L 338.95338 184.711587 
z
" clip-path="url(#p8b3006caec)" style="fill: #4c72b0; fill-opacity: 0.5; stroke: #4c72b0; stroke-linejoin: miter"/>
   </g>
   <g id="patch_145">
    <path d="M 340.934915 188.638125 
L 342.916448 188.638125 
L 342.916448 185.137401 
L 340.934915 185.137401 
z
" clip-path="url(#p8b3006caec)" style="fill: #4c72b0; fill-opacity: 0.5; stroke: #4c72b0; stroke-linejoin: miter"/>
   </g>
   <g id="patch_146">
    <path d="M 342.916448 188.638125 
L 344.897984 188.638125 
L 344.897984 185.276615 
L 342.916448 185.276615 
z
" clip-path="url(#p8b3006caec)" style="fill: #4c72b0; fill-opacity: 0.5; stroke: #4c72b0; stroke-linejoin: miter"/>
   </g>
   <g id="patch_147">
    <path d="M 344.897984 188.638125 
L 346.879517 188.638125 
L 346.879517 184.890371 
L 344.897984 184.890371 
z
" clip-path="url(#p8b3006caec)" style="fill: #4c72b0; fill-opacity: 0.5; stroke: #4c72b0; stroke-linejoin: miter"/>
   </g>
   <g id="patch_148">
    <path d="M 346.879517 188.638125 
L 348.861051 188.638125 
L 348.861051 184.714312 
L 346.879517 184.714312 
z
" clip-path="url(#p8b3006caec)" style="fill: #4c72b0; fill-opacity: 0.5; stroke: #4c72b0; stroke-linejoin: miter"/>
   </g>
   <g id="patch_149">
    <path d="M 348.861051 188.638125 
L 350.842586 188.638125 
L 350.842586 185.449945 
L 348.861051 185.449945 
z
" clip-path="url(#p8b3006caec)" style="fill: #4c72b0; fill-opacity: 0.5; stroke: #4c72b0; stroke-linejoin: miter"/>
   </g>
   <g id="patch_150">
    <path d="M 350.842586 188.638125 
L 352.82412 188.638125 
L 352.82412 185.550937 
L 350.842586 185.550937 
z
" clip-path="url(#p8b3006caec)" style="fill: #4c72b0; fill-opacity: 0.5; stroke: #4c72b0; stroke-linejoin: miter"/>
   </g>
   <g id="patch_151">
    <path d="M 352.82412 188.638125 
L 354.805653 188.638125 
L 354.805653 185.548207 
L 352.82412 185.548207 
z
" clip-path="url(#p8b3006caec)" style="fill: #4c72b0; fill-opacity: 0.5; stroke: #4c72b0; stroke-linejoin: miter"/>
   </g>
   <g id="patch_152">
    <path d="M 354.805653 188.638125 
L 356.787189 188.638125 
L 356.787189 185.03914 
L 354.805653 185.03914 
z
" clip-path="url(#p8b3006caec)" style="fill: #4c72b0; fill-opacity: 0.5; stroke: #4c72b0; stroke-linejoin: miter"/>
   </g>
   <g id="patch_153">
    <path d="M 356.787189 188.638125 
L 358.768719 188.638125 
L 358.768719 186.03271 
L 356.787189 186.03271 
z
" clip-path="url(#p8b3006caec)" style="fill: #4c72b0; fill-opacity: 0.5; stroke: #4c72b0; stroke-linejoin: miter"/>
   </g>
   <g id="patch_154">
    <path d="M 358.768719 188.638125 
L 360.750255 188.638125 
L 360.750255 185.967206 
L 358.768719 185.967206 
z
" clip-path="url(#p8b3006caec)" style="fill: #4c72b0; fill-opacity: 0.5; stroke: #4c72b0; stroke-linejoin: miter"/>
   </g>
   <g id="patch_155">
    <path d="M 360.750255 188.638125 
L 362.731791 188.638125 
L 362.731791 185.586426 
L 360.750255 185.586426 
z
" clip-path="url(#p8b3006caec)" style="fill: #4c72b0; fill-opacity: 0.5; stroke: #4c72b0; stroke-linejoin: miter"/>
   </g>
   <g id="patch_156">
    <path d="M 362.731791 188.638125 
L 364.713322 188.638125 
L 364.713322 186.357534 
L 362.731791 186.357534 
z
" clip-path="url(#p8b3006caec)" style="fill: #4c72b0; fill-opacity: 0.5; stroke: #4c72b0; stroke-linejoin: miter"/>
   </g>
   <g id="patch_157">
    <path d="M 364.713322 188.638125 
L 366.694857 188.638125 
L 366.694857 185.859386 
L 364.713322 185.859386 
z
" clip-path="url(#p8b3006caec)" style="fill: #4c72b0; fill-opacity: 0.5; stroke: #4c72b0; stroke-linejoin: miter"/>
   </g>
   <g id="patch_158">
    <path d="M 366.694857 188.638125 
L 368.676393 188.638125 
L 368.676393 186.73286 
L 366.694857 186.73286 
z
" clip-path="url(#p8b3006caec)" style="fill: #4c72b0; fill-opacity: 0.5; stroke: #4c72b0; stroke-linejoin: miter"/>
   </g>
   <g id="patch_159">
    <path d="M 368.676393 188.638125 
L 370.657924 188.638125 
L 370.657924 186.588186 
L 368.676393 186.588186 
z
" clip-path="url(#p8b3006caec)" style="fill: #4c72b0; fill-opacity: 0.5; stroke: #4c72b0; stroke-linejoin: miter"/>
   </g>
   <g id="patch_160">
    <path d="M 370.657924 188.638125 
L 372.639459 188.638125 
L 372.639459 186.571813 
L 370.657924 186.571813 
z
" clip-path="url(#p8b3006caec)" style="fill: #4c72b0; fill-opacity: 0.5; stroke: #4c72b0; stroke-linejoin: miter"/>
   </g>
   <g id="patch_161">
    <path d="M 372.639459 188.638125 
L 374.620995 188.638125 
L 374.620995 186.691916 
L 372.639459 186.691916 
z
" clip-path="url(#p8b3006caec)" style="fill: #4c72b0; fill-opacity: 0.5; stroke: #4c72b0; stroke-linejoin: miter"/>
   </g>
   <g id="patch_162">
    <path d="M 374.620995 188.638125 
L 376.602531 188.638125 
L 376.602531 186.885718 
L 374.620995 186.885718 
z
" clip-path="url(#p8b3006caec)" style="fill: #4c72b0; fill-opacity: 0.5; stroke: #4c72b0; stroke-linejoin: miter"/>
   </g>
   <g id="patch_163">
    <path d="M 376.602531 188.638125 
L 378.584062 188.638125 
L 378.584062 187.016735 
L 376.602531 187.016735 
z
" clip-path="url(#p8b3006caec)" style="fill: #4c72b0; fill-opacity: 0.5; stroke: #4c72b0; stroke-linejoin: miter"/>
   </g>
   <g id="patch_164">
    <path d="M 378.584062 188.638125 
L 380.565597 188.638125 
L 380.565597 187.044035 
L 378.584062 187.044035 
z
" clip-path="url(#p8b3006caec)" style="fill: #4c72b0; fill-opacity: 0.5; stroke: #4c72b0; stroke-linejoin: miter"/>
   </g>
   <g id="patch_165">
    <path d="M 380.565597 188.638125 
L 382.547133 188.638125 
L 382.547133 187.506703 
L 380.565597 187.506703 
z
" clip-path="url(#p8b3006caec)" style="fill: #4c72b0; fill-opacity: 0.5; stroke: #4c72b0; stroke-linejoin: miter"/>
   </g>
   <g id="patch_166">
    <path d="M 382.547133 188.638125 
L 384.528664 188.638125 
L 384.528664 187.211902 
L 382.547133 187.211902 
z
" clip-path="url(#p8b3006caec)" style="fill: #4c72b0; fill-opacity: 0.5; stroke: #4c72b0; stroke-linejoin: miter"/>
   </g>
   <g id="patch_167">
    <path d="M 384.528664 188.638125 
L 386.5102 188.638125 
L 386.5102 187.407073 
L 384.528664 187.407073 
z
" clip-path="url(#p8b3006caec)" style="fill: #4c72b0; fill-opacity: 0.5; stroke: #4c72b0; stroke-linejoin: miter"/>
   </g>
   <g id="patch_168">
    <path d="M 386.5102 188.638125 
L 388.491735 188.638125 
L 388.491735 187.53127 
L 386.5102 187.53127 
z
" clip-path="url(#p8b3006caec)" style="fill: #4c72b0; fill-opacity: 0.5; stroke: #4c72b0; stroke-linejoin: miter"/>
   </g>
   <g id="patch_169">
    <path d="M 388.491735 188.638125 
L 390.473266 188.638125 
L 390.473266 187.550374 
L 388.491735 187.550374 
z
" clip-path="url(#p8b3006caec)" style="fill: #4c72b0; fill-opacity: 0.5; stroke: #4c72b0; stroke-linejoin: miter"/>
   </g>
   <g id="patch_170">
    <path d="M 390.473266 188.638125 
L 392.454802 188.638125 
L 392.454802 187.686857 
L 390.473266 187.686857 
z
" clip-path="url(#p8b3006caec)" style="fill: #4c72b0; fill-opacity: 0.5; stroke: #4c72b0; stroke-linejoin: miter"/>
   </g>
   <g id="patch_171">
    <path d="M 392.454802 188.638125 
L 394.436337 188.638125 
L 394.436337 187.742814 
L 392.454802 187.742814 
z
" clip-path="url(#p8b3006caec)" style="fill: #4c72b0; fill-opacity: 0.5; stroke: #4c72b0; stroke-linejoin: miter"/>
   </g>
   <g id="patch_172">
    <path d="M 394.436337 188.638125 
L 396.417868 188.638125 
L 396.417868 186.689181 
L 394.436337 186.689181 
z
" clip-path="url(#p8b3006caec)" style="fill: #4c72b0; fill-opacity: 0.5; stroke: #4c72b0; stroke-linejoin: miter"/>
   </g>
   <g id="patch_173">
    <path d="M 396.417868 188.638125 
L 398.399399 188.638125 
L 398.399399 186.517216 
L 396.417868 186.517216 
z
" clip-path="url(#p8b3006caec)" style="fill: #4c72b0; fill-opacity: 0.5; stroke: #4c72b0; stroke-linejoin: miter"/>
   </g>
   <g id="patch_174">
    <path d="M 398.399399 188.638125 
L 400.38094 188.638125 
L 400.38094 182.370965 
L 398.399399 182.370965 
z
" clip-path="url(#p8b3006caec)" style="fill: #4c72b0; fill-opacity: 0.5; stroke: #4c72b0; stroke-linejoin: miter"/>
   </g>
   <g id="patch_175">
    <path d="M 400.38094 188.638125 
L 402.36247 188.638125 
L 402.36247 176.337125 
L 400.38094 176.337125 
z
" clip-path="url(#p8b3006caec)" style="fill: #4c72b0; fill-opacity: 0.5; stroke: #4c72b0; stroke-linejoin: miter"/>
   </g>
   <g id="patch_176">
    <path d="M 402.36247 188.638125 
L 404.344001 188.638125 
L 404.344001 177.469914 
L 402.36247 177.469914 
z
" clip-path="url(#p8b3006caec)" style="fill: #4c72b0; fill-opacity: 0.5; stroke: #4c72b0; stroke-linejoin: miter"/>
   </g>
   <g id="patch_177">
    <path d="M 404.344001 188.638125 
L 406.325542 188.638125 
L 406.325542 176.177505 
L 404.344001 176.177505 
z
" clip-path="url(#p8b3006caec)" style="fill: #4c72b0; fill-opacity: 0.5; stroke: #4c72b0; stroke-linejoin: miter"/>
   </g>
   <g id="patch_178">
    <path d="M 406.325542 188.638125 
L 408.307073 188.638125 
L 408.307073 173.316809 
L 406.325542 173.316809 
z
" clip-path="url(#p8b3006caec)" style="fill: #4c72b0; fill-opacity: 0.5; stroke: #4c72b0; stroke-linejoin: miter"/>
   </g>
   <g id="patch_179">
    <path d="M 408.307073 188.638125 
L 410.288603 188.638125 
L 410.288603 174.774422 
L 408.307073 174.774422 
z
" clip-path="url(#p8b3006caec)" style="fill: #4c72b0; fill-opacity: 0.5; stroke: #4c72b0; stroke-linejoin: miter"/>
   </g>
   <g id="patch_180">
    <path d="M 410.288603 188.638125 
L 412.270144 188.638125 
L 412.270144 175.796726 
L 410.288603 175.796726 
z
" clip-path="url(#p8b3006caec)" style="fill: #4c72b0; fill-opacity: 0.5; stroke: #4c72b0; stroke-linejoin: miter"/>
   </g>
   <g id="patch_181">
    <path d="M 412.270144 188.638125 
L 414.251675 188.638125 
L 414.251675 177.322515 
L 412.270144 177.322515 
z
" clip-path="url(#p8b3006caec)" style="fill: #4c72b0; fill-opacity: 0.5; stroke: #4c72b0; stroke-linejoin: miter"/>
   </g>
   <g id="patch_182">
    <path d="M 414.251675 188.638125 
L 416.233206 188.638125 
L 416.233206 180.869647 
L 414.251675 180.869647 
z
" clip-path="url(#p8b3006caec)" style="fill: #4c72b0; fill-opacity: 0.5; stroke: #4c72b0; stroke-linejoin: miter"/>
   </g>
   <g id="patch_183">
    <path d="M 416.233206 188.638125 
L 418.214746 188.638125 
L 418.214746 181.65854 
L 416.233206 181.65854 
z
" clip-path="url(#p8b3006caec)" style="fill: #4c72b0; fill-opacity: 0.5; stroke: #4c72b0; stroke-linejoin: miter"/>
   </g>
   <g id="patch_184">
    <path d="M 418.214746 188.638125 
L 420.196277 188.638125 
L 420.196277 182.066582 
L 418.214746 182.066582 
z
" clip-path="url(#p8b3006caec)" style="fill: #4c72b0; fill-opacity: 0.5; stroke: #4c72b0; stroke-linejoin: miter"/>
   </g>
   <g id="patch_185">
    <path d="M 420.196277 188.638125 
L 422.177808 188.638125 
L 422.177808 182.884101 
L 420.196277 182.884101 
z
" clip-path="url(#p8b3006caec)" style="fill: #4c72b0; fill-opacity: 0.5; stroke: #4c72b0; stroke-linejoin: miter"/>
   </g>
   <g id="patch_186">
    <path d="M 422.177808 188.638125 
L 424.159348 188.638125 
L 424.159348 183.457346 
L 422.177808 183.457346 
z
" clip-path="url(#p8b3006caec)" style="fill: #4c72b0; fill-opacity: 0.5; stroke: #4c72b0; stroke-linejoin: miter"/>
   </g>
   <g id="patch_187">
    <path d="M 424.159348 188.638125 
L 426.140879 188.638125 
L 426.140879 183.70162 
L 424.159348 183.70162 
z
" clip-path="url(#p8b3006caec)" style="fill: #4c72b0; fill-opacity: 0.5; stroke: #4c72b0; stroke-linejoin: miter"/>
   </g>
   <g id="patch_188">
    <path d="M 426.140879 188.638125 
L 428.12241 188.638125 
L 428.12241 184.201139 
L 426.140879 184.201139 
z
" clip-path="url(#p8b3006caec)" style="fill: #4c72b0; fill-opacity: 0.5; stroke: #4c72b0; stroke-linejoin: miter"/>
   </g>
   <g id="patch_189">
    <path d="M 428.12241 188.638125 
L 430.103951 188.638125 
L 430.103951 186.455811 
L 428.12241 186.455811 
z
" clip-path="url(#p8b3006caec)" style="fill: #4c72b0; fill-opacity: 0.5; stroke: #4c72b0; stroke-linejoin: miter"/>
   </g>
   <g id="patch_190">
    <path d="M 430.103951 188.638125 
L 432.085481 188.638125 
L 432.085481 187.334735 
L 430.103951 187.334735 
z
" clip-path="url(#p8b3006caec)" style="fill: #4c72b0; fill-opacity: 0.5; stroke: #4c72b0; stroke-linejoin: miter"/>
   </g>
   <g id="patch_191">
    <path d="M 432.085481 188.638125 
L 434.067012 188.638125 
L 434.067012 187.517619 
L 432.085481 187.517619 
z
" clip-path="url(#p8b3006caec)" style="fill: #4c72b0; fill-opacity: 0.5; stroke: #4c72b0; stroke-linejoin: miter"/>
   </g>
   <g id="patch_192">
    <path d="M 434.067012 188.638125 
L 436.048553 188.638125 
L 436.048553 187.542191 
L 434.067012 187.542191 
z
" clip-path="url(#p8b3006caec)" style="fill: #4c72b0; fill-opacity: 0.5; stroke: #4c72b0; stroke-linejoin: miter"/>
   </g>
   <g id="patch_193">
    <path d="M 436.048553 188.638125 
L 438.030084 188.638125 
L 438.030084 187.630898 
L 436.048553 187.630898 
z
" clip-path="url(#p8b3006caec)" style="fill: #4c72b0; fill-opacity: 0.5; stroke: #4c72b0; stroke-linejoin: miter"/>
   </g>
   <g id="patch_194">
    <path d="M 438.030084 188.638125 
L 440.011614 188.638125 
L 440.011614 187.805593 
L 438.030084 187.805593 
z
" clip-path="url(#p8b3006caec)" style="fill: #4c72b0; fill-opacity: 0.5; stroke: #4c72b0; stroke-linejoin: miter"/>
   </g>
   <g id="patch_195">
    <path d="M 440.011614 188.638125 
L 441.993155 188.638125 
L 441.993155 187.781031 
L 440.011614 187.781031 
z
" clip-path="url(#p8b3006caec)" style="fill: #4c72b0; fill-opacity: 0.5; stroke: #4c72b0; stroke-linejoin: miter"/>
   </g>
   <g id="patch_196">
    <path d="M 441.993155 188.638125 
L 443.974686 188.638125 
L 443.974686 187.952992 
L 441.993155 187.952992 
z
" clip-path="url(#p8b3006caec)" style="fill: #4c72b0; fill-opacity: 0.5; stroke: #4c72b0; stroke-linejoin: miter"/>
   </g>
   <g id="patch_197">
    <path d="M 443.974686 188.638125 
L 445.956226 188.638125 
L 445.956226 187.965279 
L 443.974686 187.965279 
z
" clip-path="url(#p8b3006caec)" style="fill: #4c72b0; fill-opacity: 0.5; stroke: #4c72b0; stroke-linejoin: miter"/>
   </g>
   <g id="patch_198">
    <path d="M 445.956226 188.638125 
L 447.937757 188.638125 
L 447.937757 188.023962 
L 445.956226 188.023962 
z
" clip-path="url(#p8b3006caec)" style="fill: #4c72b0; fill-opacity: 0.5; stroke: #4c72b0; stroke-linejoin: miter"/>
   </g>
   <g id="patch_199">
    <path d="M 447.937757 188.638125 
L 449.919288 188.638125 
L 449.919288 188.07446 
L 447.937757 188.07446 
z
" clip-path="url(#p8b3006caec)" style="fill: #4c72b0; fill-opacity: 0.5; stroke: #4c72b0; stroke-linejoin: miter"/>
   </g>
   <g id="patch_200">
    <path d="M 449.919288 188.638125 
L 451.900829 188.638125 
L 451.900829 188.073098 
L 449.919288 188.073098 
z
" clip-path="url(#p8b3006caec)" style="fill: #4c72b0; fill-opacity: 0.5; stroke: #4c72b0; stroke-linejoin: miter"/>
   </g>
   <g id="patch_201">
    <path d="M 451.900829 188.638125 
L 453.882359 188.638125 
L 453.882359 188.200022 
L 451.900829 188.200022 
z
" clip-path="url(#p8b3006caec)" style="fill: #4c72b0; fill-opacity: 0.5; stroke: #4c72b0; stroke-linejoin: miter"/>
   </g>
   <g id="patch_202">
    <path d="M 453.882359 188.638125 
L 455.86389 188.638125 
L 455.86389 188.232778 
L 453.882359 188.232778 
z
" clip-path="url(#p8b3006caec)" style="fill: #4c72b0; fill-opacity: 0.5; stroke: #4c72b0; stroke-linejoin: miter"/>
   </g>
   <g id="patch_203">
    <path d="M 455.86389 188.638125 
L 457.845431 188.638125 
L 457.845431 188.208213 
L 455.86389 188.208213 
z
" clip-path="url(#p8b3006caec)" style="fill: #4c72b0; fill-opacity: 0.5; stroke: #4c72b0; stroke-linejoin: miter"/>
   </g>
   <g id="patch_204">
    <path d="M 457.845431 188.638125 
L 459.826962 188.638125 
L 459.826962 188.317396 
L 457.845431 188.317396 
z
" clip-path="url(#p8b3006caec)" style="fill: #4c72b0; fill-opacity: 0.5; stroke: #4c72b0; stroke-linejoin: miter"/>
   </g>
   <g id="patch_205">
    <path d="M 459.826962 188.638125 
L 461.808492 188.638125 
L 461.808492 188.288735 
L 459.826962 188.288735 
z
" clip-path="url(#p8b3006caec)" style="fill: #4c72b0; fill-opacity: 0.5; stroke: #4c72b0; stroke-linejoin: miter"/>
   </g>
   <g id="patch_206">
    <path d="M 461.808492 188.638125 
L 463.790033 188.638125 
L 463.790033 188.359706 
L 461.808492 188.359706 
z
" clip-path="url(#p8b3006caec)" style="fill: #4c72b0; fill-opacity: 0.5; stroke: #4c72b0; stroke-linejoin: miter"/>
   </g>
   <g id="patch_207">
    <path d="M 463.790033 188.638125 
L 465.771564 188.638125 
L 465.771564 188.370623 
L 463.790033 188.370623 
z
" clip-path="url(#p8b3006caec)" style="fill: #4c72b0; fill-opacity: 0.5; stroke: #4c72b0; stroke-linejoin: miter"/>
   </g>
   <g id="patch_208">
    <path d="M 465.771564 188.638125 
L 467.753095 188.638125 
L 467.753095 188.42385 
L 465.771564 188.42385 
z
" clip-path="url(#p8b3006caec)" style="fill: #4c72b0; fill-opacity: 0.5; stroke: #4c72b0; stroke-linejoin: miter"/>
   </g>
   <g id="patch_209">
    <path d="M 467.753095 188.638125 
L 469.734635 188.638125 
L 469.734635 188.408839 
L 467.753095 188.408839 
z
" clip-path="url(#p8b3006caec)" style="fill: #4c72b0; fill-opacity: 0.5; stroke: #4c72b0; stroke-linejoin: miter"/>
   </g>
   <g id="patch_210">
    <path d="M 469.734635 188.638125 
L 471.716166 188.638125 
L 471.716166 188.455241 
L 469.734635 188.455241 
z
" clip-path="url(#p8b3006caec)" style="fill: #4c72b0; fill-opacity: 0.5; stroke: #4c72b0; stroke-linejoin: miter"/>
   </g>
   <g id="patch_211">
    <path d="M 471.716166 188.638125 
L 473.697697 188.638125 
L 473.697697 188.442958 
L 471.716166 188.442958 
z
" clip-path="url(#p8b3006caec)" style="fill: #4c72b0; fill-opacity: 0.5; stroke: #4c72b0; stroke-linejoin: miter"/>
   </g>
   <g id="patch_212">
    <path d="M 473.697697 188.638125 
L 475.679237 188.638125 
L 475.679237 188.478443 
L 473.697697 188.478443 
z
" clip-path="url(#p8b3006caec)" style="fill: #4c72b0; fill-opacity: 0.5; stroke: #4c72b0; stroke-linejoin: miter"/>
   </g>
   <g id="patch_213">
    <path d="M 475.679237 188.638125 
L 477.660768 188.638125 
L 477.660768 188.507104 
L 475.679237 188.507104 
z
" clip-path="url(#p8b3006caec)" style="fill: #4c72b0; fill-opacity: 0.5; stroke: #4c72b0; stroke-linejoin: miter"/>
   </g>
   <g id="patch_214">
    <path d="M 477.660768 188.638125 
L 479.642299 188.638125 
L 479.642299 188.485267 
L 477.660768 188.485267 
z
" clip-path="url(#p8b3006caec)" style="fill: #4c72b0; fill-opacity: 0.5; stroke: #4c72b0; stroke-linejoin: miter"/>
   </g>
   <g id="patch_215">
    <path d="M 479.642299 188.638125 
L 481.62384 188.638125 
L 481.62384 188.504375 
L 479.642299 188.504375 
z
" clip-path="url(#p8b3006caec)" style="fill: #4c72b0; fill-opacity: 0.5; stroke: #4c72b0; stroke-linejoin: miter"/>
   </g>
   <g id="patch_216">
    <path d="M 481.62384 188.638125 
L 483.60537 188.638125 
L 483.60537 188.526211 
L 481.62384 188.526211 
z
" clip-path="url(#p8b3006caec)" style="fill: #4c72b0; fill-opacity: 0.5; stroke: #4c72b0; stroke-linejoin: miter"/>
   </g>
   <g id="patch_217">
    <path d="M 483.60537 188.638125 
L 485.586901 188.638125 
L 485.586901 188.542589 
L 483.60537 188.542589 
z
" clip-path="url(#p8b3006caec)" style="fill: #4c72b0; fill-opacity: 0.5; stroke: #4c72b0; stroke-linejoin: miter"/>
   </g>
   <g id="patch_218">
    <path d="M 485.586901 188.638125 
L 487.568432 188.638125 
L 487.568432 188.548048 
L 485.586901 188.548048 
z
" clip-path="url(#p8b3006caec)" style="fill: #4c72b0; fill-opacity: 0.5; stroke: #4c72b0; stroke-linejoin: miter"/>
   </g>
   <g id="patch_219">
    <path d="M 487.568432 188.638125 
L 489.549963 188.638125 
L 489.549963 188.564425 
L 487.568432 188.564425 
z
" clip-path="url(#p8b3006caec)" style="fill: #4c72b0; fill-opacity: 0.5; stroke: #4c72b0; stroke-linejoin: miter"/>
   </g>
   <g id="patch_220">
    <path d="M 489.549963 188.638125 
L 491.531513 188.638125 
L 491.531513 188.57125 
L 489.549963 188.57125 
z
" clip-path="url(#p8b3006caec)" style="fill: #4c72b0; fill-opacity: 0.5; stroke: #4c72b0; stroke-linejoin: miter"/>
   </g>
   <g id="patch_221">
    <path d="M 491.531513 188.638125 
L 493.513044 188.638125 
L 493.513044 188.564425 
L 491.531513 188.564425 
z
" clip-path="url(#p8b3006caec)" style="fill: #4c72b0; fill-opacity: 0.5; stroke: #4c72b0; stroke-linejoin: miter"/>
   </g>
   <g id="patch_222">
    <path d="M 493.513044 188.638125 
L 495.494575 188.638125 
L 495.494575 188.572614 
L 493.513044 188.572614 
z
" clip-path="url(#p8b3006caec)" style="fill: #4c72b0; fill-opacity: 0.5; stroke: #4c72b0; stroke-linejoin: miter"/>
   </g>
   <g id="patch_223">
    <path d="M 495.494575 188.638125 
L 497.476106 188.638125 
L 497.476106 188.564425 
L 495.494575 188.564425 
z
" clip-path="url(#p8b3006caec)" style="fill: #4c72b0; fill-opacity: 0.5; stroke: #4c72b0; stroke-linejoin: miter"/>
   </g>
   <g id="patch_224">
    <path d="M 497.476106 188.638125 
L 499.457636 188.638125 
L 499.457636 188.604005 
L 497.476106 188.604005 
z
" clip-path="url(#p8b3006caec)" style="fill: #4c72b0; fill-opacity: 0.5; stroke: #4c72b0; stroke-linejoin: miter"/>
   </g>
   <g id="patch_225">
    <path d="M 499.457636 188.638125 
L 501.439167 188.638125 
L 501.439167 188.598546 
L 499.457636 188.598546 
z
" clip-path="url(#p8b3006caec)" style="fill: #4c72b0; fill-opacity: 0.5; stroke: #4c72b0; stroke-linejoin: miter"/>
   </g>
   <g id="patch_226">
    <path d="M 501.439167 188.638125 
L 503.420718 188.638125 
L 503.420718 188.594452 
L 501.439167 188.594452 
z
" clip-path="url(#p8b3006caec)" style="fill: #4c72b0; fill-opacity: 0.5; stroke: #4c72b0; stroke-linejoin: miter"/>
   </g>
   <g id="patch_227">
    <path d="M 503.420718 188.638125 
L 505.402248 188.638125 
L 505.402248 188.604005 
L 503.420718 188.604005 
z
" clip-path="url(#p8b3006caec)" style="fill: #4c72b0; fill-opacity: 0.5; stroke: #4c72b0; stroke-linejoin: miter"/>
   </g>
   <g id="patch_228">
    <path d="M 505.402248 188.638125 
L 507.383779 188.638125 
L 507.383779 188.595816 
L 505.402248 188.595816 
z
" clip-path="url(#p8b3006caec)" style="fill: #4c72b0; fill-opacity: 0.5; stroke: #4c72b0; stroke-linejoin: miter"/>
   </g>
   <g id="patch_229">
    <path d="M 507.383779 188.638125 
L 509.36531 188.638125 
L 509.36531 188.612194 
L 507.383779 188.612194 
z
" clip-path="url(#p8b3006caec)" style="fill: #4c72b0; fill-opacity: 0.5; stroke: #4c72b0; stroke-linejoin: miter"/>
   </g>
   <g id="patch_230">
    <path d="M 509.36531 188.638125 
L 511.346841 188.638125 
L 511.346841 188.608099 
L 509.36531 188.608099 
z
" clip-path="url(#p8b3006caec)" style="fill: #4c72b0; fill-opacity: 0.5; stroke: #4c72b0; stroke-linejoin: miter"/>
   </g>
   <g id="patch_231">
    <path d="M 511.346841 188.638125 
L 513.328371 188.638125 
L 513.328371 188.619018 
L 511.346841 188.619018 
z
" clip-path="url(#p8b3006caec)" style="fill: #4c72b0; fill-opacity: 0.5; stroke: #4c72b0; stroke-linejoin: miter"/>
   </g>
   <g id="patch_232">
    <path d="M 513.328371 188.638125 
L 515.309922 188.638125 
L 515.309922 188.617653 
L 513.328371 188.617653 
z
" clip-path="url(#p8b3006caec)" style="fill: #4c72b0; fill-opacity: 0.5; stroke: #4c72b0; stroke-linejoin: miter"/>
   </g>
   <g id="patch_233">
    <path d="M 515.309922 188.638125 
L 517.291453 188.638125 
L 517.291453 188.621747 
L 515.309922 188.621747 
z
" clip-path="url(#p8b3006caec)" style="fill: #4c72b0; fill-opacity: 0.5; stroke: #4c72b0; stroke-linejoin: miter"/>
   </g>
   <g id="patch_234">
    <path d="M 517.291453 188.638125 
L 519.272984 188.638125 
L 519.272984 188.619018 
L 517.291453 188.619018 
z
" clip-path="url(#p8b3006caec)" style="fill: #4c72b0; fill-opacity: 0.5; stroke: #4c72b0; stroke-linejoin: miter"/>
   </g>
   <g id="patch_235">
    <path d="M 519.272984 188.638125 
L 521.254514 188.638125 
L 521.254514 188.629936 
L 519.272984 188.629936 
z
" clip-path="url(#p8b3006caec)" style="fill: #4c72b0; fill-opacity: 0.5; stroke: #4c72b0; stroke-linejoin: miter"/>
   </g>
   <g id="patch_236">
    <path d="M 521.254514 188.638125 
L 523.236045 188.638125 
L 523.236045 188.620383 
L 521.254514 188.620383 
z
" clip-path="url(#p8b3006caec)" style="fill: #4c72b0; fill-opacity: 0.5; stroke: #4c72b0; stroke-linejoin: miter"/>
   </g>
   <g id="patch_237">
    <path d="M 523.236045 188.638125 
L 525.217576 188.638125 
L 525.217576 188.625842 
L 523.236045 188.625842 
z
" clip-path="url(#p8b3006caec)" style="fill: #4c72b0; fill-opacity: 0.5; stroke: #4c72b0; stroke-linejoin: miter"/>
   </g>
   <g id="patch_238">
    <path d="M 525.217576 188.638125 
L 527.199126 188.638125 
L 527.199126 188.625842 
L 525.217576 188.625842 
z
" clip-path="url(#p8b3006caec)" style="fill: #4c72b0; fill-opacity: 0.5; stroke: #4c72b0; stroke-linejoin: miter"/>
   </g>
   <g id="patch_239">
    <path d="M 527.199126 188.638125 
L 529.180657 188.638125 
L 529.180657 188.628571 
L 527.199126 188.628571 
z
" clip-path="url(#p8b3006caec)" style="fill: #4c72b0; fill-opacity: 0.5; stroke: #4c72b0; stroke-linejoin: miter"/>
   </g>
   <g id="patch_240">
    <path d="M 529.180657 188.638125 
L 531.162188 188.638125 
L 531.162188 188.629936 
L 529.180657 188.629936 
z
" clip-path="url(#p8b3006caec)" style="fill: #4c72b0; fill-opacity: 0.5; stroke: #4c72b0; stroke-linejoin: miter"/>
   </g>
   <g id="patch_241">
    <path d="M 531.162188 188.638125 
L 533.143719 188.638125 
L 533.143719 188.625842 
L 531.162188 188.625842 
z
" clip-path="url(#p8b3006caec)" style="fill: #4c72b0; fill-opacity: 0.5; stroke: #4c72b0; stroke-linejoin: miter"/>
   </g>
   <g id="patch_242">
    <path d="M 533.143719 188.638125 
L 535.125249 188.638125 
L 535.125249 188.629936 
L 533.143719 188.629936 
z
" clip-path="url(#p8b3006caec)" style="fill: #4c72b0; fill-opacity: 0.5; stroke: #4c72b0; stroke-linejoin: miter"/>
   </g>
   <g id="patch_243">
    <path d="M 535.125249 188.638125 
L 537.10678 188.638125 
L 537.10678 188.635395 
L 535.125249 188.635395 
z
" clip-path="url(#p8b3006caec)" style="fill: #4c72b0; fill-opacity: 0.5; stroke: #4c72b0; stroke-linejoin: miter"/>
   </g>
   <g id="patch_244">
    <path d="M 537.10678 188.638125 
L 539.088331 188.638125 
L 539.088331 188.634031 
L 537.10678 188.634031 
z
" clip-path="url(#p8b3006caec)" style="fill: #4c72b0; fill-opacity: 0.5; stroke: #4c72b0; stroke-linejoin: miter"/>
   </g>
   <g id="patch_245">
    <path d="M 539.088331 188.638125 
L 541.069862 188.638125 
L 541.069862 188.628571 
L 539.088331 188.628571 
z
" clip-path="url(#p8b3006caec)" style="fill: #4c72b0; fill-opacity: 0.5; stroke: #4c72b0; stroke-linejoin: miter"/>
   </g>
   <g id="patch_246">
    <path d="M 541.069862 188.638125 
L 543.051392 188.638125 
L 543.051392 188.627207 
L 541.069862 188.627207 
z
" clip-path="url(#p8b3006caec)" style="fill: #4c72b0; fill-opacity: 0.5; stroke: #4c72b0; stroke-linejoin: miter"/>
   </g>
   <g id="patch_247">
    <path d="M 543.051392 188.638125 
L 545.032923 188.638125 
L 545.032923 188.632666 
L 543.051392 188.632666 
z
" clip-path="url(#p8b3006caec)" style="fill: #4c72b0; fill-opacity: 0.5; stroke: #4c72b0; stroke-linejoin: miter"/>
   </g>
   <g id="patch_248">
    <path d="M 545.032923 188.638125 
L 547.014454 188.638125 
L 547.014454 188.631301 
L 545.032923 188.631301 
z
" clip-path="url(#p8b3006caec)" style="fill: #4c72b0; fill-opacity: 0.5; stroke: #4c72b0; stroke-linejoin: miter"/>
   </g>
   <g id="patch_249">
    <path d="M 547.014454 188.638125 
L 548.995985 188.638125 
L 548.995985 188.634031 
L 547.014454 188.634031 
z
" clip-path="url(#p8b3006caec)" style="fill: #4c72b0; fill-opacity: 0.5; stroke: #4c72b0; stroke-linejoin: miter"/>
   </g>
   <g id="patch_250">
    <path d="M 548.995985 188.638125 
L 550.977535 188.638125 
L 550.977535 188.63676 
L 548.995985 188.63676 
z
" clip-path="url(#p8b3006caec)" style="fill: #4c72b0; fill-opacity: 0.5; stroke: #4c72b0; stroke-linejoin: miter"/>
   </g>
   <g id="patch_251">
    <path d="M 550.977535 188.638125 
L 552.959066 188.638125 
L 552.959066 188.638125 
L 550.977535 188.638125 
z
" clip-path="url(#p8b3006caec)" style="fill: #4c72b0; fill-opacity: 0.5; stroke: #4c72b0; stroke-linejoin: miter"/>
   </g>
   <g id="patch_252">
    <path d="M 552.959066 188.638125 
L 554.940597 188.638125 
L 554.940597 188.632666 
L 552.959066 188.632666 
z
" clip-path="url(#p8b3006caec)" style="fill: #4c72b0; fill-opacity: 0.5; stroke: #4c72b0; stroke-linejoin: miter"/>
   </g>
   <g id="patch_253">
    <path d="M 554.940597 188.638125 
L 556.922128 188.638125 
L 556.922128 188.635395 
L 554.940597 188.635395 
z
" clip-path="url(#p8b3006caec)" style="fill: #4c72b0; fill-opacity: 0.5; stroke: #4c72b0; stroke-linejoin: miter"/>
   </g>
   <g id="patch_254">
    <path d="M 556.922128 188.638125 
L 558.903658 188.638125 
L 558.903658 188.635395 
L 556.922128 188.635395 
z
" clip-path="url(#p8b3006caec)" style="fill: #4c72b0; fill-opacity: 0.5; stroke: #4c72b0; stroke-linejoin: miter"/>
   </g>
   <g id="patch_255">
    <path d="M 558.903658 188.638125 
L 560.885189 188.638125 
L 560.885189 188.635395 
L 558.903658 188.635395 
z
" clip-path="url(#p8b3006caec)" style="fill: #4c72b0; fill-opacity: 0.5; stroke: #4c72b0; stroke-linejoin: miter"/>
   </g>
   <g id="patch_256">
    <path d="M 560.885189 188.638125 
L 562.86674 188.638125 
L 562.86674 188.63676 
L 560.885189 188.63676 
z
" clip-path="url(#p8b3006caec)" style="fill: #4c72b0; fill-opacity: 0.5; stroke: #4c72b0; stroke-linejoin: miter"/>
   </g>
   <g id="patch_257">
    <path d="M 562.86674 188.638125 
L 564.84827 188.638125 
L 564.84827 188.638125 
L 562.86674 188.638125 
z
" clip-path="url(#p8b3006caec)" style="fill: #4c72b0; fill-opacity: 0.5; stroke: #4c72b0; stroke-linejoin: miter"/>
   </g>
   <g id="patch_258">
    <path d="M 564.84827 188.638125 
L 566.829801 188.638125 
L 566.829801 188.635395 
L 564.84827 188.635395 
z
" clip-path="url(#p8b3006caec)" style="fill: #4c72b0; fill-opacity: 0.5; stroke: #4c72b0; stroke-linejoin: miter"/>
   </g>
   <g id="patch_259">
    <path d="M 34.193438 188.638125 
L 34.193438 22.318125 
" style="fill: none; stroke: #ffffff; stroke-width: 1.25; stroke-linejoin: miter; stroke-linecap: square"/>
   </g>
   <g id="patch_260">
    <path d="M 592.193437 188.638125 
L 592.193437 22.318125 
" style="fill: none; stroke: #ffffff; stroke-width: 1.25; stroke-linejoin: miter; stroke-linecap: square"/>
   </g>
   <g id="patch_261">
    <path d="M 34.193438 188.638125 
L 592.193438 188.638125 
" style="fill: none; stroke: #ffffff; stroke-width: 1.25; stroke-linejoin: miter; stroke-linecap: square"/>
   </g>
   <g id="patch_262">
    <path d="M 34.193438 22.318125 
L 592.193438 22.318125 
" style="fill: none; stroke: #ffffff; stroke-width: 1.25; stroke-linejoin: miter; stroke-linecap: square"/>
   </g>
   <g id="text_10">
    <!-- Dequantization -->
    <g style="fill: #262626" transform="translate(267.452812 16.318125) scale(0.12 -0.12)">
     <defs>
      <path id="DejaVuSans-44" d="M 1259 4147 
L 1259 519 
L 2022 519 
Q 2988 519 3436 956 
Q 3884 1394 3884 2338 
Q 3884 3275 3436 3711 
Q 2988 4147 2022 4147 
L 1259 4147 
z
M 628 4666 
L 1925 4666 
Q 3281 4666 3915 4102 
Q 4550 3538 4550 2338 
Q 4550 1131 3912 565 
Q 3275 0 1925 0 
L 628 0 
L 628 4666 
z
" transform="scale(0.015625)"/>
      <path id="DejaVuSans-65" d="M 3597 1894 
L 3597 1613 
L 953 1613 
Q 991 1019 1311 708 
Q 1631 397 2203 397 
Q 2534 397 2845 478 
Q 3156 559 3463 722 
L 3463 178 
Q 3153 47 2828 -22 
Q 2503 -91 2169 -91 
Q 1331 -91 842 396 
Q 353 884 353 1716 
Q 353 2575 817 3079 
Q 1281 3584 2069 3584 
Q 2775 3584 3186 3129 
Q 3597 2675 3597 1894 
z
M 3022 2063 
Q 3016 2534 2758 2815 
Q 2500 3097 2075 3097 
Q 1594 3097 1305 2825 
Q 1016 2553 972 2059 
L 3022 2063 
z
" transform="scale(0.015625)"/>
      <path id="DejaVuSans-71" d="M 947 1747 
Q 947 1113 1208 752 
Q 1469 391 1925 391 
Q 2381 391 2643 752 
Q 2906 1113 2906 1747 
Q 2906 2381 2643 2742 
Q 2381 3103 1925 3103 
Q 1469 3103 1208 2742 
Q 947 2381 947 1747 
z
M 2906 525 
Q 2725 213 2448 61 
Q 2172 -91 1784 -91 
Q 1150 -91 751 415 
Q 353 922 353 1747 
Q 353 2572 751 3078 
Q 1150 3584 1784 3584 
Q 2172 3584 2448 3432 
Q 2725 3281 2906 2969 
L 2906 3500 
L 3481 3500 
L 3481 -1331 
L 2906 -1331 
L 2906 525 
z
" transform="scale(0.015625)"/>
      <path id="DejaVuSans-75" d="M 544 1381 
L 544 3500 
L 1119 3500 
L 1119 1403 
Q 1119 906 1312 657 
Q 1506 409 1894 409 
Q 2359 409 2629 706 
Q 2900 1003 2900 1516 
L 2900 3500 
L 3475 3500 
L 3475 0 
L 2900 0 
L 2900 538 
Q 2691 219 2414 64 
Q 2138 -91 1772 -91 
Q 1169 -91 856 284 
Q 544 659 544 1381 
z
M 1991 3584 
L 1991 3584 
z
" transform="scale(0.015625)"/>
      <path id="DejaVuSans-61" d="M 2194 1759 
Q 1497 1759 1228 1600 
Q 959 1441 959 1056 
Q 959 750 1161 570 
Q 1363 391 1709 391 
Q 2188 391 2477 730 
Q 2766 1069 2766 1631 
L 2766 1759 
L 2194 1759 
z
M 3341 1997 
L 3341 0 
L 2766 0 
L 2766 531 
Q 2569 213 2275 61 
Q 1981 -91 1556 -91 
Q 1019 -91 701 211 
Q 384 513 384 1019 
Q 384 1609 779 1909 
Q 1175 2209 1959 2209 
L 2766 2209 
L 2766 2266 
Q 2766 2663 2505 2880 
Q 2244 3097 1772 3097 
Q 1472 3097 1187 3025 
Q 903 2953 641 2809 
L 641 3341 
Q 956 3463 1253 3523 
Q 1550 3584 1831 3584 
Q 2591 3584 2966 3190 
Q 3341 2797 3341 1997 
z
" transform="scale(0.015625)"/>
      <path id="DejaVuSans-6e" d="M 3513 2113 
L 3513 0 
L 2938 0 
L 2938 2094 
Q 2938 2591 2744 2837 
Q 2550 3084 2163 3084 
Q 1697 3084 1428 2787 
Q 1159 2491 1159 1978 
L 1159 0 
L 581 0 
L 581 3500 
L 1159 3500 
L 1159 2956 
Q 1366 3272 1645 3428 
Q 1925 3584 2291 3584 
Q 2894 3584 3203 3211 
Q 3513 2838 3513 2113 
z
" transform="scale(0.015625)"/>
      <path id="DejaVuSans-74" d="M 1172 4494 
L 1172 3500 
L 2356 3500 
L 2356 3053 
L 1172 3053 
L 1172 1153 
Q 1172 725 1289 603 
Q 1406 481 1766 481 
L 2356 481 
L 2356 0 
L 1766 0 
Q 1100 0 847 248 
Q 594 497 594 1153 
L 594 3053 
L 172 3053 
L 172 3500 
L 594 3500 
L 594 4494 
L 1172 4494 
z
" transform="scale(0.015625)"/>
      <path id="DejaVuSans-69" d="M 603 3500 
L 1178 3500 
L 1178 0 
L 603 0 
L 603 3500 
z
M 603 4863 
L 1178 4863 
L 1178 4134 
L 603 4134 
L 603 4863 
z
" transform="scale(0.015625)"/>
      <path id="DejaVuSans-7a" d="M 353 3500 
L 3084 3500 
L 3084 2975 
L 922 459 
L 3084 459 
L 3084 0 
L 275 0 
L 275 525 
L 2438 3041 
L 353 3041 
L 353 3500 
z
" transform="scale(0.015625)"/>
      <path id="DejaVuSans-6f" d="M 1959 3097 
Q 1497 3097 1228 2736 
Q 959 2375 959 1747 
Q 959 1119 1226 758 
Q 1494 397 1959 397 
Q 2419 397 2687 759 
Q 2956 1122 2956 1747 
Q 2956 2369 2687 2733 
Q 2419 3097 1959 3097 
z
M 1959 3584 
Q 2709 3584 3137 3096 
Q 3566 2609 3566 1747 
Q 3566 888 3137 398 
Q 2709 -91 1959 -91 
Q 1206 -91 779 398 
Q 353 888 353 1747 
Q 353 2609 779 3096 
Q 1206 3584 1959 3584 
z
" transform="scale(0.015625)"/>
     </defs>
     <use xlink:href="#DejaVuSans-44"/>
     <use xlink:href="#DejaVuSans-65" x="77.001953"/>
     <use xlink:href="#DejaVuSans-71" x="138.525391"/>
     <use xlink:href="#DejaVuSans-75" x="202.001953"/>
     <use xlink:href="#DejaVuSans-61" x="265.380859"/>
     <use xlink:href="#DejaVuSans-6e" x="326.660156"/>
     <use xlink:href="#DejaVuSans-74" x="390.039062"/>
     <use xlink:href="#DejaVuSans-69" x="429.248047"/>
     <use xlink:href="#DejaVuSans-7a" x="457.03125"/>
     <use xlink:href="#DejaVuSans-61" x="509.521484"/>
     <use xlink:href="#DejaVuSans-74" x="570.800781"/>
     <use xlink:href="#DejaVuSans-69" x="610.009766"/>
     <use xlink:href="#DejaVuSans-6f" x="637.792969"/>
     <use xlink:href="#DejaVuSans-6e" x="698.974609"/>
    </g>
   </g>
  </g>
 </g>
 <defs>
  <clipPath id="p8b3006caec">
   <rect x="34.193438" y="22.318125" width="558" height="166.32"/>
  </clipPath>
 </defs>
</svg>
