<?xml version="1.0" encoding="utf-8" standalone="no"?>
<!DOCTYPE svg PUBLIC "-//W3C//DTD SVG 1.1//EN"
  "http://www.w3.org/Graphics/SVG/1.1/DTD/svg11.dtd">
<svg xmlns:xlink="http://www.w3.org/1999/xlink" width="288.985258pt" height="281.634375pt" viewBox="0 0 288.985258 281.634375" xmlns="http://www.w3.org/2000/svg" version="1.1">
 <metadata>
  <rdf:RDF xmlns:dc="http://purl.org/dc/elements/1.1/" xmlns:cc="http://creativecommons.org/ns#" xmlns:rdf="http://www.w3.org/1999/02/22-rdf-syntax-ns#">
   <cc:Work>
    <dc:type rdf:resource="http://purl.org/dc/dcmitype/StillImage"/>
    <dc:date>2024-09-01T11:54:59.908720</dc:date>
    <dc:format>image/svg+xml</dc:format>
    <dc:creator>
     <cc:Agent>
      <dc:title>Matplotlib v3.9.2, https://matplotlib.org/</dc:title>
     </cc:Agent>
    </dc:creator>
   </cc:Work>
  </rdf:RDF>
 </metadata>
 <defs>
  <style type="text/css">*{stroke-linejoin: round; stroke-linecap: butt}</style>
 </defs>
 <g id="figure_1">
  <g id="patch_1">
   <path d="M 0 281.634375 
L 288.985258 281.634375 
L 288.985258 0 
L 0 0 
z
" style="fill: #ffffff"/>
  </g>
  <g id="axes_1">
   <g id="patch_2">
    <path d="M 52.160938 244.078125 
L 275.360937 244.078125 
L 275.360937 22.318125 
L 52.160938 22.318125 
z
" style="fill: #ffffff"/>
   </g>
   <g id="PathCollection_1">
    <defs>
     <path id="m75ef230662" d="M 0 3 
C 0.795609 3 1.55874 2.683901 2.12132 2.12132 
C 2.683901 1.55874 3 0.795609 3 0 
C 3 -0.795609 2.683901 -1.55874 2.12132 -2.12132 
C 1.55874 -2.683901 0.795609 -3 0 -3 
C -0.795609 -3 -1.55874 -2.683901 -2.12132 -2.12132 
C -2.683901 -1.55874 -3 -0.795609 -3 0 
C -3 0.795609 -2.683901 1.55874 -2.12132 2.12132 
C -1.55874 2.683901 -0.795609 3 0 3 
z
" style="stroke: #333333"/>
    </defs>
    <g clip-path="url(#p86fbf4621b)">
     <use xlink:href="#m75ef230662" x="96.31168" y="196.722839" style="fill: #1f77b4; stroke: #333333"/>
     <use xlink:href="#m75ef230662" x="232.057657" y="62.936312" style="fill: #1f77b4; stroke: #333333"/>
     <use xlink:href="#m75ef230662" x="258.979442" y="64.604217" style="fill: #1f77b4; stroke: #333333"/>
     <use xlink:href="#m75ef230662" x="108.913368" y="208.027289" style="fill: #1f77b4; stroke: #333333"/>
     <use xlink:href="#m75ef230662" x="101.325808" y="208.673311" style="fill: #1f77b4; stroke: #333333"/>
     <use xlink:href="#m75ef230662" x="70.983454" y="192.883124" style="fill: #1f77b4; stroke: #333333"/>
     <use xlink:href="#m75ef230662" x="242.885541" y="59.286292" style="fill: #1f77b4; stroke: #333333"/>
     <use xlink:href="#m75ef230662" x="232.016709" y="52.019112" style="fill: #1f77b4; stroke: #333333"/>
     <use xlink:href="#m75ef230662" x="93.978943" y="208.171202" style="fill: #1f77b4; stroke: #333333"/>
     <use xlink:href="#m75ef230662" x="237.538974" y="54.192986" style="fill: #1f77b4; stroke: #333333"/>
     <use xlink:href="#m75ef230662" x="103.543109" y="203.846094" style="fill: #1f77b4; stroke: #333333"/>
     <use xlink:href="#m75ef230662" x="255.555098" y="32.398125" style="fill: #1f77b4; stroke: #333333"/>
     <use xlink:href="#m75ef230662" x="238.058002" y="63.389821" style="fill: #1f77b4; stroke: #333333"/>
     <use xlink:href="#m75ef230662" x="232.170061" y="58.458486" style="fill: #1f77b4; stroke: #333333"/>
     <use xlink:href="#m75ef230662" x="94.264177" y="216.407122" style="fill: #1f77b4; stroke: #333333"/>
     <use xlink:href="#m75ef230662" x="89.231835" y="188.27051" style="fill: #1f77b4; stroke: #333333"/>
     <use xlink:href="#m75ef230662" x="251.267421" y="92.174531" style="fill: #1f77b4; stroke: #333333"/>
     <use xlink:href="#m75ef230662" x="254.815479" y="84.973665" style="fill: #1f77b4; stroke: #333333"/>
     <use xlink:href="#m75ef230662" x="226.105337" y="59.869761" style="fill: #1f77b4; stroke: #333333"/>
     <use xlink:href="#m75ef230662" x="82.022892" y="212.915172" style="fill: #1f77b4; stroke: #333333"/>
     <use xlink:href="#m75ef230662" x="253.973129" y="32.829691" style="fill: #1f77b4; stroke: #333333"/>
     <use xlink:href="#m75ef230662" x="245.15091" y="60.703566" style="fill: #1f77b4; stroke: #333333"/>
     <use xlink:href="#m75ef230662" x="114.421987" y="178.887482" style="fill: #1f77b4; stroke: #333333"/>
     <use xlink:href="#m75ef230662" x="228.657784" y="32.535284" style="fill: #1f77b4; stroke: #333333"/>
     <use xlink:href="#m75ef230662" x="99.781014" y="198.203555" style="fill: #1f77b4; stroke: #333333"/>
     <use xlink:href="#m75ef230662" x="227.807175" y="52.08478" style="fill: #1f77b4; stroke: #333333"/>
     <use xlink:href="#m75ef230662" x="86.881354" y="182.615423" style="fill: #1f77b4; stroke: #333333"/>
     <use xlink:href="#m75ef230662" x="250.727063" y="49.299705" style="fill: #1f77b4; stroke: #333333"/>
     <use xlink:href="#m75ef230662" x="246.39628" y="62.291446" style="fill: #1f77b4; stroke: #333333"/>
     <use xlink:href="#m75ef230662" x="240.179519" y="44.118696" style="fill: #1f77b4; stroke: #333333"/>
     <use xlink:href="#m75ef230662" x="92.34098" y="187.59289" style="fill: #1f77b4; stroke: #333333"/>
     <use xlink:href="#m75ef230662" x="104.506115" y="213.43273" style="fill: #1f77b4; stroke: #333333"/>
     <use xlink:href="#m75ef230662" x="87.360439" y="172.552241" style="fill: #1f77b4; stroke: #333333"/>
     <use xlink:href="#m75ef230662" x="97.745486" y="204.875134" style="fill: #1f77b4; stroke: #333333"/>
     <use xlink:href="#m75ef230662" x="112.202457" y="204.414963" style="fill: #1f77b4; stroke: #333333"/>
     <use xlink:href="#m75ef230662" x="93.386735" y="199.146562" style="fill: #1f77b4; stroke: #333333"/>
     <use xlink:href="#m75ef230662" x="112.962408" y="215.984474" style="fill: #1f77b4; stroke: #333333"/>
     <use xlink:href="#m75ef230662" x="213.923524" y="39.964075" style="fill: #1f77b4; stroke: #333333"/>
     <use xlink:href="#m75ef230662" x="253.408944" y="65.444962" style="fill: #1f77b4; stroke: #333333"/>
     <use xlink:href="#m75ef230662" x="238.202599" y="64.58313" style="fill: #1f77b4; stroke: #333333"/>
     <use xlink:href="#m75ef230662" x="93.334759" y="209.048204" style="fill: #1f77b4; stroke: #333333"/>
     <use xlink:href="#m75ef230662" x="222.697015" y="90.419292" style="fill: #1f77b4; stroke: #333333"/>
     <use xlink:href="#m75ef230662" x="246.067518" y="57.466065" style="fill: #1f77b4; stroke: #333333"/>
     <use xlink:href="#m75ef230662" x="97.908356" y="215.89812" style="fill: #1f77b4; stroke: #333333"/>
     <use xlink:href="#m75ef230662" x="110.608912" y="221.55911" style="fill: #1f77b4; stroke: #333333"/>
     <use xlink:href="#m75ef230662" x="119.278606" y="180.101675" style="fill: #1f77b4; stroke: #333333"/>
     <use xlink:href="#m75ef230662" x="229.431275" y="72.852515" style="fill: #1f77b4; stroke: #333333"/>
     <use xlink:href="#m75ef230662" x="217.108023" y="44.796606" style="fill: #1f77b4; stroke: #333333"/>
     <use xlink:href="#m75ef230662" x="90.421001" y="209.459161" style="fill: #1f77b4; stroke: #333333"/>
     <use xlink:href="#m75ef230662" x="230.637614" y="69.402923" style="fill: #1f77b4; stroke: #333333"/>
     <use xlink:href="#m75ef230662" x="98.642521" y="204.583978" style="fill: #1f77b4; stroke: #333333"/>
     <use xlink:href="#m75ef230662" x="242.296554" y="33.833591" style="fill: #1f77b4; stroke: #333333"/>
     <use xlink:href="#m75ef230662" x="95.167044" y="192.066827" style="fill: #1f77b4; stroke: #333333"/>
     <use xlink:href="#m75ef230662" x="227.659933" y="77.653923" style="fill: #1f77b4; stroke: #333333"/>
     <use xlink:href="#m75ef230662" x="239.162594" y="47.935546" style="fill: #1f77b4; stroke: #333333"/>
     <use xlink:href="#m75ef230662" x="70.985535" y="193.95253" style="fill: #1f77b4; stroke: #333333"/>
     <use xlink:href="#m75ef230662" x="216.984682" y="47.691351" style="fill: #1f77b4; stroke: #333333"/>
     <use xlink:href="#m75ef230662" x="247.342435" y="66.4751" style="fill: #1f77b4; stroke: #333333"/>
     <use xlink:href="#m75ef230662" x="82.942512" y="200.290075" style="fill: #1f77b4; stroke: #333333"/>
     <use xlink:href="#m75ef230662" x="94.610207" y="233.998125" style="fill: #1f77b4; stroke: #333333"/>
     <use xlink:href="#m75ef230662" x="94.065144" y="203.39981" style="fill: #1f77b4; stroke: #333333"/>
     <use xlink:href="#m75ef230662" x="75.9265" y="203.53779" style="fill: #1f77b4; stroke: #333333"/>
     <use xlink:href="#m75ef230662" x="261.562131" y="66.615549" style="fill: #1f77b4; stroke: #333333"/>
     <use xlink:href="#m75ef230662" x="227.651459" y="74.78159" style="fill: #1f77b4; stroke: #333333"/>
     <use xlink:href="#m75ef230662" x="253.566025" y="40.024793" style="fill: #1f77b4; stroke: #333333"/>
     <use xlink:href="#m75ef230662" x="76.490724" y="188.559525" style="fill: #1f77b4; stroke: #333333"/>
     <use xlink:href="#m75ef230662" x="238.897525" y="83.623854" style="fill: #1f77b4; stroke: #333333"/>
     <use xlink:href="#m75ef230662" x="249.223089" y="90.999539" style="fill: #1f77b4; stroke: #333333"/>
     <use xlink:href="#m75ef230662" x="118.387936" y="222.197319" style="fill: #1f77b4; stroke: #333333"/>
     <use xlink:href="#m75ef230662" x="108.710707" y="210.741125" style="fill: #1f77b4; stroke: #333333"/>
     <use xlink:href="#m75ef230662" x="94.960359" y="193.355747" style="fill: #1f77b4; stroke: #333333"/>
     <use xlink:href="#m75ef230662" x="95.804305" y="190.997518" style="fill: #1f77b4; stroke: #333333"/>
     <use xlink:href="#m75ef230662" x="239.509346" y="54.496271" style="fill: #1f77b4; stroke: #333333"/>
     <use xlink:href="#m75ef230662" x="226.971018" y="89.462105" style="fill: #1f77b4; stroke: #333333"/>
     <use xlink:href="#m75ef230662" x="94.916859" y="198.962686" style="fill: #1f77b4; stroke: #333333"/>
     <use xlink:href="#m75ef230662" x="106.991269" y="190.119326" style="fill: #1f77b4; stroke: #333333"/>
     <use xlink:href="#m75ef230662" x="108.567957" y="197.531041" style="fill: #1f77b4; stroke: #333333"/>
     <use xlink:href="#m75ef230662" x="239.227411" y="37.893897" style="fill: #1f77b4; stroke: #333333"/>
     <use xlink:href="#m75ef230662" x="238.317384" y="36.021226" style="fill: #1f77b4; stroke: #333333"/>
     <use xlink:href="#m75ef230662" x="96.994499" y="211.79954" style="fill: #1f77b4; stroke: #333333"/>
     <use xlink:href="#m75ef230662" x="250.032038" y="38.007226" style="fill: #1f77b4; stroke: #333333"/>
     <use xlink:href="#m75ef230662" x="232.359401" y="73.3692" style="fill: #1f77b4; stroke: #333333"/>
     <use xlink:href="#m75ef230662" x="248.199716" y="33.797493" style="fill: #1f77b4; stroke: #333333"/>
     <use xlink:href="#m75ef230662" x="88.429047" y="196.343137" style="fill: #1f77b4; stroke: #333333"/>
     <use xlink:href="#m75ef230662" x="234.27057" y="48.50558" style="fill: #1f77b4; stroke: #333333"/>
     <use xlink:href="#m75ef230662" x="98.536004" y="216.294179" style="fill: #1f77b4; stroke: #333333"/>
     <use xlink:href="#m75ef230662" x="107.800107" y="207.926453" style="fill: #1f77b4; stroke: #333333"/>
     <use xlink:href="#m75ef230662" x="87.726796" y="194.572188" style="fill: #1f77b4; stroke: #333333"/>
     <use xlink:href="#m75ef230662" x="212.816998" y="54.467641" style="fill: #1f77b4; stroke: #333333"/>
     <use xlink:href="#m75ef230662" x="225.168168" y="48.348216" style="fill: #1f77b4; stroke: #333333"/>
     <use xlink:href="#m75ef230662" x="202.642744" y="45.13765" style="fill: #1f77b4; stroke: #333333"/>
     <use xlink:href="#m75ef230662" x="86.981531" y="194.89677" style="fill: #1f77b4; stroke: #333333"/>
     <use xlink:href="#m75ef230662" x="116.687423" y="210.643828" style="fill: #1f77b4; stroke: #333333"/>
     <use xlink:href="#m75ef230662" x="91.776781" y="213.543031" style="fill: #1f77b4; stroke: #333333"/>
     <use xlink:href="#m75ef230662" x="225.892096" y="92.064122" style="fill: #1f77b4; stroke: #333333"/>
     <use xlink:href="#m75ef230662" x="102.087238" y="198.740065" style="fill: #1f77b4; stroke: #333333"/>
     <use xlink:href="#m75ef230662" x="94.905243" y="192.46262" style="fill: #1f77b4; stroke: #333333"/>
     <use xlink:href="#m75ef230662" x="89.515988" y="203.757936" style="fill: #1f77b4; stroke: #333333"/>
     <use xlink:href="#m75ef230662" x="99.167164" y="211.899265" style="fill: #1f77b4; stroke: #333333"/>
     <use xlink:href="#m75ef230662" x="211.577945" y="58.574265" style="fill: #1f77b4; stroke: #333333"/>
     <use xlink:href="#m75ef230662" x="220.751413" y="41.850088" style="fill: #1f77b4; stroke: #333333"/>
     <use xlink:href="#m75ef230662" x="72.137778" y="218.262582" style="fill: #1f77b4; stroke: #333333"/>
     <use xlink:href="#m75ef230662" x="235.916363" y="81.620158" style="fill: #1f77b4; stroke: #333333"/>
    </g>
   </g>
   <g id="PathCollection_2">
    <defs>
     <path id="m459ecf7446" d="M 0 3 
C 0.795609 3 1.55874 2.683901 2.12132 2.12132 
C 2.683901 1.55874 3 0.795609 3 0 
C 3 -0.795609 2.683901 -1.55874 2.12132 -2.12132 
C 1.55874 -2.683901 0.795609 -3 0 -3 
C -0.795609 -3 -1.55874 -2.683901 -2.12132 -2.12132 
C -2.683901 -1.55874 -3 -0.795609 -3 0 
C -3 0.795609 -2.683901 1.55874 -2.12132 2.12132 
C -1.55874 2.683901 -0.795609 3 0 3 
z
" style="stroke: #333333"/>
    </defs>
    <g clip-path="url(#p86fbf4621b)">
     <use xlink:href="#m459ecf7446" x="230.877063" y="184.064459" style="fill: #ff7f0e; stroke: #333333"/>
     <use xlink:href="#m459ecf7446" x="243.842427" y="184.340261" style="fill: #ff7f0e; stroke: #333333"/>
     <use xlink:href="#m459ecf7446" x="232.017097" y="202.441215" style="fill: #ff7f0e; stroke: #333333"/>
     <use xlink:href="#m459ecf7446" x="89.746376" y="45.851439" style="fill: #ff7f0e; stroke: #333333"/>
     <use xlink:href="#m459ecf7446" x="250.686437" y="205.161614" style="fill: #ff7f0e; stroke: #333333"/>
     <use xlink:href="#m459ecf7446" x="100.400405" y="64.372734" style="fill: #ff7f0e; stroke: #333333"/>
     <use xlink:href="#m459ecf7446" x="219.862038" y="215.105614" style="fill: #ff7f0e; stroke: #333333"/>
     <use xlink:href="#m459ecf7446" x="130.59866" y="60.339707" style="fill: #ff7f0e; stroke: #333333"/>
     <use xlink:href="#m459ecf7446" x="247.536058" y="221.068731" style="fill: #ff7f0e; stroke: #333333"/>
     <use xlink:href="#m459ecf7446" x="214.797166" y="188.801084" style="fill: #ff7f0e; stroke: #333333"/>
     <use xlink:href="#m459ecf7446" x="229.906907" y="176.011923" style="fill: #ff7f0e; stroke: #333333"/>
     <use xlink:href="#m459ecf7446" x="65.731142" y="45.008831" style="fill: #ff7f0e; stroke: #333333"/>
     <use xlink:href="#m459ecf7446" x="116.585574" y="45.994237" style="fill: #ff7f0e; stroke: #333333"/>
     <use xlink:href="#m459ecf7446" x="96.4775" y="77.572203" style="fill: #ff7f0e; stroke: #333333"/>
     <use xlink:href="#m459ecf7446" x="96.788387" y="42.484313" style="fill: #ff7f0e; stroke: #333333"/>
     <use xlink:href="#m459ecf7446" x="75.708547" y="39.362608" style="fill: #ff7f0e; stroke: #333333"/>
     <use xlink:href="#m459ecf7446" x="233.922057" y="205.322233" style="fill: #ff7f0e; stroke: #333333"/>
     <use xlink:href="#m459ecf7446" x="216.28277" y="183.914717" style="fill: #ff7f0e; stroke: #333333"/>
     <use xlink:href="#m459ecf7446" x="225.945553" y="186.021764" style="fill: #ff7f0e; stroke: #333333"/>
     <use xlink:href="#m459ecf7446" x="107.888844" y="59.992966" style="fill: #ff7f0e; stroke: #333333"/>
     <use xlink:href="#m459ecf7446" x="212.266314" y="195.521501" style="fill: #ff7f0e; stroke: #333333"/>
     <use xlink:href="#m459ecf7446" x="257.089413" y="204.08342" style="fill: #ff7f0e; stroke: #333333"/>
     <use xlink:href="#m459ecf7446" x="248.528097" y="201.600425" style="fill: #ff7f0e; stroke: #333333"/>
     <use xlink:href="#m459ecf7446" x="223.275659" y="205.687898" style="fill: #ff7f0e; stroke: #333333"/>
     <use xlink:href="#m459ecf7446" x="254.62465" y="179.518498" style="fill: #ff7f0e; stroke: #333333"/>
     <use xlink:href="#m459ecf7446" x="83.200733" y="71.126184" style="fill: #ff7f0e; stroke: #333333"/>
     <use xlink:href="#m459ecf7446" x="251.724096" y="182.510698" style="fill: #ff7f0e; stroke: #333333"/>
     <use xlink:href="#m459ecf7446" x="110.819287" y="55.774959" style="fill: #ff7f0e; stroke: #333333"/>
     <use xlink:href="#m459ecf7446" x="232.126351" y="181.775374" style="fill: #ff7f0e; stroke: #333333"/>
     <use xlink:href="#m459ecf7446" x="68.497902" y="57.662146" style="fill: #ff7f0e; stroke: #333333"/>
     <use xlink:href="#m459ecf7446" x="95.226666" y="66.990484" style="fill: #ff7f0e; stroke: #333333"/>
     <use xlink:href="#m459ecf7446" x="223.392974" y="212.375041" style="fill: #ff7f0e; stroke: #333333"/>
     <use xlink:href="#m459ecf7446" x="214.945261" y="186.328734" style="fill: #ff7f0e; stroke: #333333"/>
     <use xlink:href="#m459ecf7446" x="100.205618" y="61.423422" style="fill: #ff7f0e; stroke: #333333"/>
     <use xlink:href="#m459ecf7446" x="244.127174" y="187.069023" style="fill: #ff7f0e; stroke: #333333"/>
     <use xlink:href="#m459ecf7446" x="100.782099" y="69.452204" style="fill: #ff7f0e; stroke: #333333"/>
     <use xlink:href="#m459ecf7446" x="97.685973" y="72.257232" style="fill: #ff7f0e; stroke: #333333"/>
     <use xlink:href="#m459ecf7446" x="261.24119" y="213.073602" style="fill: #ff7f0e; stroke: #333333"/>
     <use xlink:href="#m459ecf7446" x="231.536281" y="183.208803" style="fill: #ff7f0e; stroke: #333333"/>
     <use xlink:href="#m459ecf7446" x="84.432042" y="56.491819" style="fill: #ff7f0e; stroke: #333333"/>
     <use xlink:href="#m459ecf7446" x="114.704427" y="58.587926" style="fill: #ff7f0e; stroke: #333333"/>
     <use xlink:href="#m459ecf7446" x="118.139583" y="40.639434" style="fill: #ff7f0e; stroke: #333333"/>
     <use xlink:href="#m459ecf7446" x="244.331312" y="209.984157" style="fill: #ff7f0e; stroke: #333333"/>
     <use xlink:href="#m459ecf7446" x="84.937455" y="60.733388" style="fill: #ff7f0e; stroke: #333333"/>
     <use xlink:href="#m459ecf7446" x="229.111028" y="188.491788" style="fill: #ff7f0e; stroke: #333333"/>
     <use xlink:href="#m459ecf7446" x="99.865846" y="74.521377" style="fill: #ff7f0e; stroke: #333333"/>
     <use xlink:href="#m459ecf7446" x="107.774522" y="50.680713" style="fill: #ff7f0e; stroke: #333333"/>
     <use xlink:href="#m459ecf7446" x="106.681533" y="54.197282" style="fill: #ff7f0e; stroke: #333333"/>
     <use xlink:href="#m459ecf7446" x="220.300095" y="189.409162" style="fill: #ff7f0e; stroke: #333333"/>
     <use xlink:href="#m459ecf7446" x="84.93114" y="78.604599" style="fill: #ff7f0e; stroke: #333333"/>
     <use xlink:href="#m459ecf7446" x="105.491498" y="48.675045" style="fill: #ff7f0e; stroke: #333333"/>
     <use xlink:href="#m459ecf7446" x="212.017878" y="185.380972" style="fill: #ff7f0e; stroke: #333333"/>
     <use xlink:href="#m459ecf7446" x="238.780524" y="214.332575" style="fill: #ff7f0e; stroke: #333333"/>
     <use xlink:href="#m459ecf7446" x="102.920944" y="49.194851" style="fill: #ff7f0e; stroke: #333333"/>
     <use xlink:href="#m459ecf7446" x="109.227118" y="68.69468" style="fill: #ff7f0e; stroke: #333333"/>
     <use xlink:href="#m459ecf7446" x="218.916511" y="198.5437" style="fill: #ff7f0e; stroke: #333333"/>
     <use xlink:href="#m459ecf7446" x="210.412471" y="201.294091" style="fill: #ff7f0e; stroke: #333333"/>
     <use xlink:href="#m459ecf7446" x="106.409234" y="63.165772" style="fill: #ff7f0e; stroke: #333333"/>
     <use xlink:href="#m459ecf7446" x="62.306392" y="70.4775" style="fill: #ff7f0e; stroke: #333333"/>
     <use xlink:href="#m459ecf7446" x="91.834453" y="78.564893" style="fill: #ff7f0e; stroke: #333333"/>
     <use xlink:href="#m459ecf7446" x="109.483259" y="52.708383" style="fill: #ff7f0e; stroke: #333333"/>
     <use xlink:href="#m459ecf7446" x="87.52736" y="64.035928" style="fill: #ff7f0e; stroke: #333333"/>
     <use xlink:href="#m459ecf7446" x="94.034599" y="56.433368" style="fill: #ff7f0e; stroke: #333333"/>
     <use xlink:href="#m459ecf7446" x="110.113367" y="69.173857" style="fill: #ff7f0e; stroke: #333333"/>
     <use xlink:href="#m459ecf7446" x="257.318305" y="205.893872" style="fill: #ff7f0e; stroke: #333333"/>
     <use xlink:href="#m459ecf7446" x="79.762115" y="40.196254" style="fill: #ff7f0e; stroke: #333333"/>
     <use xlink:href="#m459ecf7446" x="258.048499" y="188.24511" style="fill: #ff7f0e; stroke: #333333"/>
     <use xlink:href="#m459ecf7446" x="244.789162" y="174.836438" style="fill: #ff7f0e; stroke: #333333"/>
     <use xlink:href="#m459ecf7446" x="214.47439" y="215.053945" style="fill: #ff7f0e; stroke: #333333"/>
     <use xlink:href="#m459ecf7446" x="218.387835" y="231.325231" style="fill: #ff7f0e; stroke: #333333"/>
     <use xlink:href="#m459ecf7446" x="98.247032" y="41.725431" style="fill: #ff7f0e; stroke: #333333"/>
     <use xlink:href="#m459ecf7446" x="221.09122" y="182.071913" style="fill: #ff7f0e; stroke: #333333"/>
     <use xlink:href="#m459ecf7446" x="207.783237" y="167.860073" style="fill: #ff7f0e; stroke: #333333"/>
     <use xlink:href="#m459ecf7446" x="84.486389" y="47.613063" style="fill: #ff7f0e; stroke: #333333"/>
     <use xlink:href="#m459ecf7446" x="108.320496" y="60.592713" style="fill: #ff7f0e; stroke: #333333"/>
     <use xlink:href="#m459ecf7446" x="247.02495" y="187.512004" style="fill: #ff7f0e; stroke: #333333"/>
     <use xlink:href="#m459ecf7446" x="92.024123" y="51.977778" style="fill: #ff7f0e; stroke: #333333"/>
     <use xlink:href="#m459ecf7446" x="103.976033" y="62.358549" style="fill: #ff7f0e; stroke: #333333"/>
     <use xlink:href="#m459ecf7446" x="102.375453" y="65.661131" style="fill: #ff7f0e; stroke: #333333"/>
     <use xlink:href="#m459ecf7446" x="230.527021" y="180.24788" style="fill: #ff7f0e; stroke: #333333"/>
     <use xlink:href="#m459ecf7446" x="238.484799" y="170.843528" style="fill: #ff7f0e; stroke: #333333"/>
     <use xlink:href="#m459ecf7446" x="247.340005" y="188.41563" style="fill: #ff7f0e; stroke: #333333"/>
     <use xlink:href="#m459ecf7446" x="134.8086" y="60.039544" style="fill: #ff7f0e; stroke: #333333"/>
     <use xlink:href="#m459ecf7446" x="213.726653" y="217.37803" style="fill: #ff7f0e; stroke: #333333"/>
     <use xlink:href="#m459ecf7446" x="265.215483" y="216.407409" style="fill: #ff7f0e; stroke: #333333"/>
     <use xlink:href="#m459ecf7446" x="226.839442" y="213.313899" style="fill: #ff7f0e; stroke: #333333"/>
     <use xlink:href="#m459ecf7446" x="88.454985" y="70.745677" style="fill: #ff7f0e; stroke: #333333"/>
     <use xlink:href="#m459ecf7446" x="86.200641" y="60.036238" style="fill: #ff7f0e; stroke: #333333"/>
     <use xlink:href="#m459ecf7446" x="249.708568" y="216.244964" style="fill: #ff7f0e; stroke: #333333"/>
     <use xlink:href="#m459ecf7446" x="86.639713" y="67.616948" style="fill: #ff7f0e; stroke: #333333"/>
     <use xlink:href="#m459ecf7446" x="72.549088" y="62.572016" style="fill: #ff7f0e; stroke: #333333"/>
     <use xlink:href="#m459ecf7446" x="116.327234" y="49.138967" style="fill: #ff7f0e; stroke: #333333"/>
     <use xlink:href="#m459ecf7446" x="89.624632" y="52.173154" style="fill: #ff7f0e; stroke: #333333"/>
     <use xlink:href="#m459ecf7446" x="257.369976" y="213.711341" style="fill: #ff7f0e; stroke: #333333"/>
     <use xlink:href="#m459ecf7446" x="209.334228" y="195.325995" style="fill: #ff7f0e; stroke: #333333"/>
     <use xlink:href="#m459ecf7446" x="98.138755" y="45.008294" style="fill: #ff7f0e; stroke: #333333"/>
     <use xlink:href="#m459ecf7446" x="254.619078" y="211.240618" style="fill: #ff7f0e; stroke: #333333"/>
    </g>
   </g>
   <g id="matplotlib.axis_1">
    <g id="xtick_1">
     <g id="line2d_1">
      <defs>
       <path id="mb3b486e8e1" d="M 0 0 
L 0 3.5 
" style="stroke: #000000; stroke-width: 0.8"/>
      </defs>
      <g>
       <use xlink:href="#mb3b486e8e1" x="62.596276" y="244.078125" style="stroke: #000000; stroke-width: 0.8"/>
      </g>
     </g>
     <g id="text_1">
      <!-- −0.25 -->
      <g transform="translate(47.27362 258.676562) scale(0.1 -0.1)">
       <defs>
        <path id="DejaVuSans-2212" d="M 678 2272 
L 4684 2272 
L 4684 1741 
L 678 1741 
L 678 2272 
z
" transform="scale(0.015625)"/>
        <path id="DejaVuSans-30" d="M 2034 4250 
Q 1547 4250 1301 3770 
Q 1056 3291 1056 2328 
Q 1056 1369 1301 889 
Q 1547 409 2034 409 
Q 2525 409 2770 889 
Q 3016 1369 3016 2328 
Q 3016 3291 2770 3770 
Q 2525 4250 2034 4250 
z
M 2034 4750 
Q 2819 4750 3233 4129 
Q 3647 3509 3647 2328 
Q 3647 1150 3233 529 
Q 2819 -91 2034 -91 
Q 1250 -91 836 529 
Q 422 1150 422 2328 
Q 422 3509 836 4129 
Q 1250 4750 2034 4750 
z
" transform="scale(0.015625)"/>
        <path id="DejaVuSans-2e" d="M 684 794 
L 1344 794 
L 1344 0 
L 684 0 
L 684 794 
z
" transform="scale(0.015625)"/>
        <path id="DejaVuSans-32" d="M 1228 531 
L 3431 531 
L 3431 0 
L 469 0 
L 469 531 
Q 828 903 1448 1529 
Q 2069 2156 2228 2338 
Q 2531 2678 2651 2914 
Q 2772 3150 2772 3378 
Q 2772 3750 2511 3984 
Q 2250 4219 1831 4219 
Q 1534 4219 1204 4116 
Q 875 4013 500 3803 
L 500 4441 
Q 881 4594 1212 4672 
Q 1544 4750 1819 4750 
Q 2544 4750 2975 4387 
Q 3406 4025 3406 3419 
Q 3406 3131 3298 2873 
Q 3191 2616 2906 2266 
Q 2828 2175 2409 1742 
Q 1991 1309 1228 531 
z
" transform="scale(0.015625)"/>
        <path id="DejaVuSans-35" d="M 691 4666 
L 3169 4666 
L 3169 4134 
L 1269 4134 
L 1269 2991 
Q 1406 3038 1543 3061 
Q 1681 3084 1819 3084 
Q 2600 3084 3056 2656 
Q 3513 2228 3513 1497 
Q 3513 744 3044 326 
Q 2575 -91 1722 -91 
Q 1428 -91 1123 -41 
Q 819 9 494 109 
L 494 744 
Q 775 591 1075 516 
Q 1375 441 1709 441 
Q 2250 441 2565 725 
Q 2881 1009 2881 1497 
Q 2881 1984 2565 2268 
Q 2250 2553 1709 2553 
Q 1456 2553 1204 2497 
Q 953 2441 691 2322 
L 691 4666 
z
" transform="scale(0.015625)"/>
       </defs>
       <use xlink:href="#DejaVuSans-2212"/>
       <use xlink:href="#DejaVuSans-30" x="83.789062"/>
       <use xlink:href="#DejaVuSans-2e" x="147.412109"/>
       <use xlink:href="#DejaVuSans-32" x="179.199219"/>
       <use xlink:href="#DejaVuSans-35" x="242.822266"/>
      </g>
     </g>
    </g>
    <g id="xtick_2">
     <g id="line2d_2">
      <g>
       <use xlink:href="#mb3b486e8e1" x="97.272305" y="244.078125" style="stroke: #000000; stroke-width: 0.8"/>
      </g>
     </g>
     <g id="text_2">
      <!-- 0.00 -->
      <g transform="translate(86.139492 258.676562) scale(0.1 -0.1)">
       <use xlink:href="#DejaVuSans-30"/>
       <use xlink:href="#DejaVuSans-2e" x="63.623047"/>
       <use xlink:href="#DejaVuSans-30" x="95.410156"/>
       <use xlink:href="#DejaVuSans-30" x="159.033203"/>
      </g>
     </g>
    </g>
    <g id="xtick_3">
     <g id="line2d_3">
      <g>
       <use xlink:href="#mb3b486e8e1" x="131.948333" y="244.078125" style="stroke: #000000; stroke-width: 0.8"/>
      </g>
     </g>
     <g id="text_3">
      <!-- 0.25 -->
      <g transform="translate(120.81552 258.676562) scale(0.1 -0.1)">
       <use xlink:href="#DejaVuSans-30"/>
       <use xlink:href="#DejaVuSans-2e" x="63.623047"/>
       <use xlink:href="#DejaVuSans-32" x="95.410156"/>
       <use xlink:href="#DejaVuSans-35" x="159.033203"/>
      </g>
     </g>
    </g>
    <g id="xtick_4">
     <g id="line2d_4">
      <g>
       <use xlink:href="#mb3b486e8e1" x="166.624361" y="244.078125" style="stroke: #000000; stroke-width: 0.8"/>
      </g>
     </g>
     <g id="text_4">
      <!-- 0.50 -->
      <g transform="translate(155.491548 258.676562) scale(0.1 -0.1)">
       <use xlink:href="#DejaVuSans-30"/>
       <use xlink:href="#DejaVuSans-2e" x="63.623047"/>
       <use xlink:href="#DejaVuSans-35" x="95.410156"/>
       <use xlink:href="#DejaVuSans-30" x="159.033203"/>
      </g>
     </g>
    </g>
    <g id="xtick_5">
     <g id="line2d_5">
      <g>
       <use xlink:href="#mb3b486e8e1" x="201.300389" y="244.078125" style="stroke: #000000; stroke-width: 0.8"/>
      </g>
     </g>
     <g id="text_5">
      <!-- 0.75 -->
      <g transform="translate(190.167577 258.676562) scale(0.1 -0.1)">
       <defs>
        <path id="DejaVuSans-37" d="M 525 4666 
L 3525 4666 
L 3525 4397 
L 1831 0 
L 1172 0 
L 2766 4134 
L 525 4134 
L 525 4666 
z
" transform="scale(0.015625)"/>
       </defs>
       <use xlink:href="#DejaVuSans-30"/>
       <use xlink:href="#DejaVuSans-2e" x="63.623047"/>
       <use xlink:href="#DejaVuSans-37" x="95.410156"/>
       <use xlink:href="#DejaVuSans-35" x="159.033203"/>
      </g>
     </g>
    </g>
    <g id="xtick_6">
     <g id="line2d_6">
      <g>
       <use xlink:href="#mb3b486e8e1" x="235.976417" y="244.078125" style="stroke: #000000; stroke-width: 0.8"/>
      </g>
     </g>
     <g id="text_6">
      <!-- 1.00 -->
      <g transform="translate(224.843605 258.676562) scale(0.1 -0.1)">
       <defs>
        <path id="DejaVuSans-31" d="M 794 531 
L 1825 531 
L 1825 4091 
L 703 3866 
L 703 4441 
L 1819 4666 
L 2450 4666 
L 2450 531 
L 3481 531 
L 3481 0 
L 794 0 
L 794 531 
z
" transform="scale(0.015625)"/>
       </defs>
       <use xlink:href="#DejaVuSans-31"/>
       <use xlink:href="#DejaVuSans-2e" x="63.623047"/>
       <use xlink:href="#DejaVuSans-30" x="95.410156"/>
       <use xlink:href="#DejaVuSans-30" x="159.033203"/>
      </g>
     </g>
    </g>
    <g id="xtick_7">
     <g id="line2d_7">
      <g>
       <use xlink:href="#mb3b486e8e1" x="270.652446" y="244.078125" style="stroke: #000000; stroke-width: 0.8"/>
      </g>
     </g>
     <g id="text_7">
      <!-- 1.25 -->
      <g transform="translate(259.519633 258.676562) scale(0.1 -0.1)">
       <use xlink:href="#DejaVuSans-31"/>
       <use xlink:href="#DejaVuSans-2e" x="63.623047"/>
       <use xlink:href="#DejaVuSans-32" x="95.410156"/>
       <use xlink:href="#DejaVuSans-35" x="159.033203"/>
      </g>
     </g>
    </g>
    <g id="text_8">
     <!-- $x_1$ -->
     <g transform="translate(158.410938 272.354687) scale(0.1 -0.1)">
      <defs>
       <path id="DejaVuSans-Oblique-78" d="M 3841 3500 
L 2234 1784 
L 3219 0 
L 2559 0 
L 1819 1388 
L 531 0 
L -166 0 
L 1556 1844 
L 641 3500 
L 1300 3500 
L 1972 2234 
L 3144 3500 
L 3841 3500 
z
" transform="scale(0.015625)"/>
      </defs>
      <use xlink:href="#DejaVuSans-Oblique-78" transform="translate(0 0.3125)"/>
      <use xlink:href="#DejaVuSans-31" transform="translate(59.179688 -16.09375) scale(0.7)"/>
     </g>
    </g>
   </g>
   <g id="matplotlib.axis_2">
    <g id="ytick_1">
     <g id="line2d_8">
      <defs>
       <path id="m8d4fa0afcc" d="M 0 0 
L -3.5 0 
" style="stroke: #000000; stroke-width: 0.8"/>
      </defs>
      <g>
       <use xlink:href="#m8d4fa0afcc" x="52.160938" y="227.948456" style="stroke: #000000; stroke-width: 0.8"/>
      </g>
     </g>
     <g id="text_9">
      <!-- −0.2 -->
      <g transform="translate(20.878125 231.747675) scale(0.1 -0.1)">
       <use xlink:href="#DejaVuSans-2212"/>
       <use xlink:href="#DejaVuSans-30" x="83.789062"/>
       <use xlink:href="#DejaVuSans-2e" x="147.412109"/>
       <use xlink:href="#DejaVuSans-32" x="179.199219"/>
      </g>
     </g>
    </g>
    <g id="ytick_2">
     <g id="line2d_9">
      <g>
       <use xlink:href="#m8d4fa0afcc" x="52.160938" y="199.792918" style="stroke: #000000; stroke-width: 0.8"/>
      </g>
     </g>
     <g id="text_10">
      <!-- 0.0 -->
      <g transform="translate(29.257812 203.592137) scale(0.1 -0.1)">
       <use xlink:href="#DejaVuSans-30"/>
       <use xlink:href="#DejaVuSans-2e" x="63.623047"/>
       <use xlink:href="#DejaVuSans-30" x="95.410156"/>
      </g>
     </g>
    </g>
    <g id="ytick_3">
     <g id="line2d_10">
      <g>
       <use xlink:href="#m8d4fa0afcc" x="52.160938" y="171.63738" style="stroke: #000000; stroke-width: 0.8"/>
      </g>
     </g>
     <g id="text_11">
      <!-- 0.2 -->
      <g transform="translate(29.257812 175.436599) scale(0.1 -0.1)">
       <use xlink:href="#DejaVuSans-30"/>
       <use xlink:href="#DejaVuSans-2e" x="63.623047"/>
       <use xlink:href="#DejaVuSans-32" x="95.410156"/>
      </g>
     </g>
    </g>
    <g id="ytick_4">
     <g id="line2d_11">
      <g>
       <use xlink:href="#m8d4fa0afcc" x="52.160938" y="143.481843" style="stroke: #000000; stroke-width: 0.8"/>
      </g>
     </g>
     <g id="text_12">
      <!-- 0.4 -->
      <g transform="translate(29.257812 147.281061) scale(0.1 -0.1)">
       <defs>
        <path id="DejaVuSans-34" d="M 2419 4116 
L 825 1625 
L 2419 1625 
L 2419 4116 
z
M 2253 4666 
L 3047 4666 
L 3047 1625 
L 3713 1625 
L 3713 1100 
L 3047 1100 
L 3047 0 
L 2419 0 
L 2419 1100 
L 313 1100 
L 313 1709 
L 2253 4666 
z
" transform="scale(0.015625)"/>
       </defs>
       <use xlink:href="#DejaVuSans-30"/>
       <use xlink:href="#DejaVuSans-2e" x="63.623047"/>
       <use xlink:href="#DejaVuSans-34" x="95.410156"/>
      </g>
     </g>
    </g>
    <g id="ytick_5">
     <g id="line2d_12">
      <g>
       <use xlink:href="#m8d4fa0afcc" x="52.160938" y="115.326305" style="stroke: #000000; stroke-width: 0.8"/>
      </g>
     </g>
     <g id="text_13">
      <!-- 0.6 -->
      <g transform="translate(29.257812 119.125524) scale(0.1 -0.1)">
       <defs>
        <path id="DejaVuSans-36" d="M 2113 2584 
Q 1688 2584 1439 2293 
Q 1191 2003 1191 1497 
Q 1191 994 1439 701 
Q 1688 409 2113 409 
Q 2538 409 2786 701 
Q 3034 994 3034 1497 
Q 3034 2003 2786 2293 
Q 2538 2584 2113 2584 
z
M 3366 4563 
L 3366 3988 
Q 3128 4100 2886 4159 
Q 2644 4219 2406 4219 
Q 1781 4219 1451 3797 
Q 1122 3375 1075 2522 
Q 1259 2794 1537 2939 
Q 1816 3084 2150 3084 
Q 2853 3084 3261 2657 
Q 3669 2231 3669 1497 
Q 3669 778 3244 343 
Q 2819 -91 2113 -91 
Q 1303 -91 875 529 
Q 447 1150 447 2328 
Q 447 3434 972 4092 
Q 1497 4750 2381 4750 
Q 2619 4750 2861 4703 
Q 3103 4656 3366 4563 
z
" transform="scale(0.015625)"/>
       </defs>
       <use xlink:href="#DejaVuSans-30"/>
       <use xlink:href="#DejaVuSans-2e" x="63.623047"/>
       <use xlink:href="#DejaVuSans-36" x="95.410156"/>
      </g>
     </g>
    </g>
    <g id="ytick_6">
     <g id="line2d_13">
      <g>
       <use xlink:href="#m8d4fa0afcc" x="52.160938" y="87.170767" style="stroke: #000000; stroke-width: 0.8"/>
      </g>
     </g>
     <g id="text_14">
      <!-- 0.8 -->
      <g transform="translate(29.257812 90.969986) scale(0.1 -0.1)">
       <defs>
        <path id="DejaVuSans-38" d="M 2034 2216 
Q 1584 2216 1326 1975 
Q 1069 1734 1069 1313 
Q 1069 891 1326 650 
Q 1584 409 2034 409 
Q 2484 409 2743 651 
Q 3003 894 3003 1313 
Q 3003 1734 2745 1975 
Q 2488 2216 2034 2216 
z
M 1403 2484 
Q 997 2584 770 2862 
Q 544 3141 544 3541 
Q 544 4100 942 4425 
Q 1341 4750 2034 4750 
Q 2731 4750 3128 4425 
Q 3525 4100 3525 3541 
Q 3525 3141 3298 2862 
Q 3072 2584 2669 2484 
Q 3125 2378 3379 2068 
Q 3634 1759 3634 1313 
Q 3634 634 3220 271 
Q 2806 -91 2034 -91 
Q 1263 -91 848 271 
Q 434 634 434 1313 
Q 434 1759 690 2068 
Q 947 2378 1403 2484 
z
M 1172 3481 
Q 1172 3119 1398 2916 
Q 1625 2713 2034 2713 
Q 2441 2713 2670 2916 
Q 2900 3119 2900 3481 
Q 2900 3844 2670 4047 
Q 2441 4250 2034 4250 
Q 1625 4250 1398 4047 
Q 1172 3844 1172 3481 
z
" transform="scale(0.015625)"/>
       </defs>
       <use xlink:href="#DejaVuSans-30"/>
       <use xlink:href="#DejaVuSans-2e" x="63.623047"/>
       <use xlink:href="#DejaVuSans-38" x="95.410156"/>
      </g>
     </g>
    </g>
    <g id="ytick_7">
     <g id="line2d_14">
      <g>
       <use xlink:href="#m8d4fa0afcc" x="52.160938" y="59.015229" style="stroke: #000000; stroke-width: 0.8"/>
      </g>
     </g>
     <g id="text_15">
      <!-- 1.0 -->
      <g transform="translate(29.257812 62.814448) scale(0.1 -0.1)">
       <use xlink:href="#DejaVuSans-31"/>
       <use xlink:href="#DejaVuSans-2e" x="63.623047"/>
       <use xlink:href="#DejaVuSans-30" x="95.410156"/>
      </g>
     </g>
    </g>
    <g id="ytick_8">
     <g id="line2d_15">
      <g>
       <use xlink:href="#m8d4fa0afcc" x="52.160938" y="30.859691" style="stroke: #000000; stroke-width: 0.8"/>
      </g>
     </g>
     <g id="text_16">
      <!-- 1.2 -->
      <g transform="translate(29.257812 34.65891) scale(0.1 -0.1)">
       <use xlink:href="#DejaVuSans-31"/>
       <use xlink:href="#DejaVuSans-2e" x="63.623047"/>
       <use xlink:href="#DejaVuSans-32" x="95.410156"/>
      </g>
     </g>
    </g>
    <g id="text_17">
     <!-- $x_2$ -->
     <g transform="translate(14.798438 138.548125) rotate(-90) scale(0.1 -0.1)">
      <use xlink:href="#DejaVuSans-Oblique-78" transform="translate(0 0.3125)"/>
      <use xlink:href="#DejaVuSans-32" transform="translate(59.179688 -16.09375) scale(0.7)"/>
     </g>
    </g>
   </g>
   <g id="patch_3">
    <path d="M 52.160938 244.078125 
L 52.160938 22.318125 
" style="fill: none; stroke: #000000; stroke-width: 0.8; stroke-linejoin: miter; stroke-linecap: square"/>
   </g>
   <g id="patch_4">
    <path d="M 275.360937 244.078125 
L 275.360937 22.318125 
" style="fill: none; stroke: #000000; stroke-width: 0.8; stroke-linejoin: miter; stroke-linecap: square"/>
   </g>
   <g id="patch_5">
    <path d="M 52.160937 244.078125 
L 275.360937 244.078125 
" style="fill: none; stroke: #000000; stroke-width: 0.8; stroke-linejoin: miter; stroke-linecap: square"/>
   </g>
   <g id="patch_6">
    <path d="M 52.160937 22.318125 
L 275.360937 22.318125 
" style="fill: none; stroke: #000000; stroke-width: 0.8; stroke-linejoin: miter; stroke-linecap: square"/>
   </g>
   <g id="text_18">
    <!-- Dataset samples -->
    <g transform="translate(113.418125 16.318125) scale(0.12 -0.12)">
     <defs>
      <path id="DejaVuSans-44" d="M 1259 4147 
L 1259 519 
L 2022 519 
Q 2988 519 3436 956 
Q 3884 1394 3884 2338 
Q 3884 3275 3436 3711 
Q 2988 4147 2022 4147 
L 1259 4147 
z
M 628 4666 
L 1925 4666 
Q 3281 4666 3915 4102 
Q 4550 3538 4550 2338 
Q 4550 1131 3912 565 
Q 3275 0 1925 0 
L 628 0 
L 628 4666 
z
" transform="scale(0.015625)"/>
      <path id="DejaVuSans-61" d="M 2194 1759 
Q 1497 1759 1228 1600 
Q 959 1441 959 1056 
Q 959 750 1161 570 
Q 1363 391 1709 391 
Q 2188 391 2477 730 
Q 2766 1069 2766 1631 
L 2766 1759 
L 2194 1759 
z
M 3341 1997 
L 3341 0 
L 2766 0 
L 2766 531 
Q 2569 213 2275 61 
Q 1981 -91 1556 -91 
Q 1019 -91 701 211 
Q 384 513 384 1019 
Q 384 1609 779 1909 
Q 1175 2209 1959 2209 
L 2766 2209 
L 2766 2266 
Q 2766 2663 2505 2880 
Q 2244 3097 1772 3097 
Q 1472 3097 1187 3025 
Q 903 2953 641 2809 
L 641 3341 
Q 956 3463 1253 3523 
Q 1550 3584 1831 3584 
Q 2591 3584 2966 3190 
Q 3341 2797 3341 1997 
z
" transform="scale(0.015625)"/>
      <path id="DejaVuSans-74" d="M 1172 4494 
L 1172 3500 
L 2356 3500 
L 2356 3053 
L 1172 3053 
L 1172 1153 
Q 1172 725 1289 603 
Q 1406 481 1766 481 
L 2356 481 
L 2356 0 
L 1766 0 
Q 1100 0 847 248 
Q 594 497 594 1153 
L 594 3053 
L 172 3053 
L 172 3500 
L 594 3500 
L 594 4494 
L 1172 4494 
z
" transform="scale(0.015625)"/>
      <path id="DejaVuSans-73" d="M 2834 3397 
L 2834 2853 
Q 2591 2978 2328 3040 
Q 2066 3103 1784 3103 
Q 1356 3103 1142 2972 
Q 928 2841 928 2578 
Q 928 2378 1081 2264 
Q 1234 2150 1697 2047 
L 1894 2003 
Q 2506 1872 2764 1633 
Q 3022 1394 3022 966 
Q 3022 478 2636 193 
Q 2250 -91 1575 -91 
Q 1294 -91 989 -36 
Q 684 19 347 128 
L 347 722 
Q 666 556 975 473 
Q 1284 391 1588 391 
Q 1994 391 2212 530 
Q 2431 669 2431 922 
Q 2431 1156 2273 1281 
Q 2116 1406 1581 1522 
L 1381 1569 
Q 847 1681 609 1914 
Q 372 2147 372 2553 
Q 372 3047 722 3315 
Q 1072 3584 1716 3584 
Q 2034 3584 2315 3537 
Q 2597 3491 2834 3397 
z
" transform="scale(0.015625)"/>
      <path id="DejaVuSans-65" d="M 3597 1894 
L 3597 1613 
L 953 1613 
Q 991 1019 1311 708 
Q 1631 397 2203 397 
Q 2534 397 2845 478 
Q 3156 559 3463 722 
L 3463 178 
Q 3153 47 2828 -22 
Q 2503 -91 2169 -91 
Q 1331 -91 842 396 
Q 353 884 353 1716 
Q 353 2575 817 3079 
Q 1281 3584 2069 3584 
Q 2775 3584 3186 3129 
Q 3597 2675 3597 1894 
z
M 3022 2063 
Q 3016 2534 2758 2815 
Q 2500 3097 2075 3097 
Q 1594 3097 1305 2825 
Q 1016 2553 972 2059 
L 3022 2063 
z
" transform="scale(0.015625)"/>
      <path id="DejaVuSans-20" transform="scale(0.015625)"/>
      <path id="DejaVuSans-6d" d="M 3328 2828 
Q 3544 3216 3844 3400 
Q 4144 3584 4550 3584 
Q 5097 3584 5394 3201 
Q 5691 2819 5691 2113 
L 5691 0 
L 5113 0 
L 5113 2094 
Q 5113 2597 4934 2840 
Q 4756 3084 4391 3084 
Q 3944 3084 3684 2787 
Q 3425 2491 3425 1978 
L 3425 0 
L 2847 0 
L 2847 2094 
Q 2847 2600 2669 2842 
Q 2491 3084 2119 3084 
Q 1678 3084 1418 2786 
Q 1159 2488 1159 1978 
L 1159 0 
L 581 0 
L 581 3500 
L 1159 3500 
L 1159 2956 
Q 1356 3278 1631 3431 
Q 1906 3584 2284 3584 
Q 2666 3584 2933 3390 
Q 3200 3197 3328 2828 
z
" transform="scale(0.015625)"/>
      <path id="DejaVuSans-70" d="M 1159 525 
L 1159 -1331 
L 581 -1331 
L 581 3500 
L 1159 3500 
L 1159 2969 
Q 1341 3281 1617 3432 
Q 1894 3584 2278 3584 
Q 2916 3584 3314 3078 
Q 3713 2572 3713 1747 
Q 3713 922 3314 415 
Q 2916 -91 2278 -91 
Q 1894 -91 1617 61 
Q 1341 213 1159 525 
z
M 3116 1747 
Q 3116 2381 2855 2742 
Q 2594 3103 2138 3103 
Q 1681 3103 1420 2742 
Q 1159 2381 1159 1747 
Q 1159 1113 1420 752 
Q 1681 391 2138 391 
Q 2594 391 2855 752 
Q 3116 1113 3116 1747 
z
" transform="scale(0.015625)"/>
      <path id="DejaVuSans-6c" d="M 603 4863 
L 1178 4863 
L 1178 0 
L 603 0 
L 603 4863 
z
" transform="scale(0.015625)"/>
     </defs>
     <use xlink:href="#DejaVuSans-44"/>
     <use xlink:href="#DejaVuSans-61" x="77.001953"/>
     <use xlink:href="#DejaVuSans-74" x="138.28125"/>
     <use xlink:href="#DejaVuSans-61" x="177.490234"/>
     <use xlink:href="#DejaVuSans-73" x="238.769531"/>
     <use xlink:href="#DejaVuSans-65" x="290.869141"/>
     <use xlink:href="#DejaVuSans-74" x="352.392578"/>
     <use xlink:href="#DejaVuSans-20" x="391.601562"/>
     <use xlink:href="#DejaVuSans-73" x="423.388672"/>
     <use xlink:href="#DejaVuSans-61" x="475.488281"/>
     <use xlink:href="#DejaVuSans-6d" x="536.767578"/>
     <use xlink:href="#DejaVuSans-70" x="634.179688"/>
     <use xlink:href="#DejaVuSans-6c" x="697.65625"/>
     <use xlink:href="#DejaVuSans-65" x="725.439453"/>
     <use xlink:href="#DejaVuSans-73" x="786.962891"/>
    </g>
   </g>
   <g id="legend_1">
    <g id="patch_7">
     <path d="M 200.5125 149.37625 
L 268.360937 149.37625 
Q 270.360937 149.37625 270.360937 147.37625 
L 270.360937 119.02 
Q 270.360937 117.02 268.360937 117.02 
L 200.5125 117.02 
Q 198.5125 117.02 198.5125 119.02 
L 198.5125 147.37625 
Q 198.5125 149.37625 200.5125 149.37625 
z
" style="fill: #ffffff; opacity: 0.8; stroke: #cccccc; stroke-linejoin: miter"/>
    </g>
    <g id="PathCollection_3">
     <g>
      <use xlink:href="#m75ef230662" x="212.5125" y="125.993437" style="fill: #1f77b4; stroke: #333333"/>
     </g>
    </g>
    <g id="text_19">
     <!-- Class 0 -->
     <g transform="translate(230.5125 128.618437) scale(0.1 -0.1)">
      <defs>
       <path id="DejaVuSans-43" d="M 4122 4306 
L 4122 3641 
Q 3803 3938 3442 4084 
Q 3081 4231 2675 4231 
Q 1875 4231 1450 3742 
Q 1025 3253 1025 2328 
Q 1025 1406 1450 917 
Q 1875 428 2675 428 
Q 3081 428 3442 575 
Q 3803 722 4122 1019 
L 4122 359 
Q 3791 134 3420 21 
Q 3050 -91 2638 -91 
Q 1578 -91 968 557 
Q 359 1206 359 2328 
Q 359 3453 968 4101 
Q 1578 4750 2638 4750 
Q 3056 4750 3426 4639 
Q 3797 4528 4122 4306 
z
" transform="scale(0.015625)"/>
      </defs>
      <use xlink:href="#DejaVuSans-43"/>
      <use xlink:href="#DejaVuSans-6c" x="69.824219"/>
      <use xlink:href="#DejaVuSans-61" x="97.607422"/>
      <use xlink:href="#DejaVuSans-73" x="158.886719"/>
      <use xlink:href="#DejaVuSans-73" x="210.986328"/>
      <use xlink:href="#DejaVuSans-20" x="263.085938"/>
      <use xlink:href="#DejaVuSans-30" x="294.873047"/>
     </g>
    </g>
    <g id="PathCollection_4">
     <g>
      <use xlink:href="#m459ecf7446" x="212.5125" y="140.671562" style="fill: #ff7f0e; stroke: #333333"/>
     </g>
    </g>
    <g id="text_20">
     <!-- Class 1 -->
     <g transform="translate(230.5125 143.296562) scale(0.1 -0.1)">
      <use xlink:href="#DejaVuSans-43"/>
      <use xlink:href="#DejaVuSans-6c" x="69.824219"/>
      <use xlink:href="#DejaVuSans-61" x="97.607422"/>
      <use xlink:href="#DejaVuSans-73" x="158.886719"/>
      <use xlink:href="#DejaVuSans-73" x="210.986328"/>
      <use xlink:href="#DejaVuSans-20" x="263.085938"/>
      <use xlink:href="#DejaVuSans-31" x="294.873047"/>
     </g>
    </g>
   </g>
  </g>
 </g>
 <defs>
  <clipPath id="p86fbf4621b">
   <rect x="52.160938" y="22.318125" width="223.2" height="221.76"/>
  </clipPath>
 </defs>
</svg>
