<?xml version="1.0" encoding="utf-8" standalone="no"?>
<!DOCTYPE svg PUBLIC "-//W3C//DTD SVG 1.1//EN"
  "http://www.w3.org/Graphics/SVG/1.1/DTD/svg11.dtd">
<svg xmlns:xlink="http://www.w3.org/1999/xlink" width="599.393438pt" height="215.984063pt" viewBox="0 0 599.393438 215.984063" xmlns="http://www.w3.org/2000/svg" version="1.1">
 <metadata>
  <rdf:RDF xmlns:dc="http://purl.org/dc/elements/1.1/" xmlns:cc="http://creativecommons.org/ns#" xmlns:rdf="http://www.w3.org/1999/02/22-rdf-syntax-ns#">
   <cc:Work>
    <dc:type rdf:resource="http://purl.org/dc/dcmitype/StillImage"/>
    <dc:date>2022-05-12T14:19:19.238784</dc:date>
    <dc:format>image/svg+xml</dc:format>
    <dc:creator>
     <cc:Agent>
      <dc:title>Matplotlib v3.5.2, https://matplotlib.org/</dc:title>
     </cc:Agent>
    </dc:creator>
   </cc:Work>
  </rdf:RDF>
 </metadata>
 <defs>
  <style type="text/css">*{stroke-linejoin: round; stroke-linecap: butt}</style>
 </defs>
 <g id="figure_1">
  <g id="patch_1">
   <path d="M 0 215.984063 
L 599.393438 215.984063 
L 599.393438 0 
L 0 0 
z
" style="fill: #ffffff"/>
  </g>
  <g id="axes_1">
   <g id="patch_2">
    <path d="M 34.193438 188.638125 
L 592.193437 188.638125 
L 592.193437 22.318125 
L 34.193438 22.318125 
z
" style="fill: #eaeaf2"/>
   </g>
   <g id="matplotlib.axis_1">
    <g id="xtick_1">
     <g id="line2d_1">
      <path d="M 105.551498 188.638125 
L 105.551498 22.318125 
" clip-path="url(#pf738aabbeb)" style="fill: none; stroke: #ffffff; stroke-linecap: round"/>
     </g>
     <g id="text_1">
      <!-- −10 -->
      <g style="fill: #262626" transform="translate(93.94392 206.496406)scale(0.11 -0.11)">
       <defs>
        <path id="DejaVuSans-2212" d="M 678 2272 
L 4684 2272 
L 4684 1741 
L 678 1741 
L 678 2272 
z
" transform="scale(0.015625)"/>
        <path id="DejaVuSans-31" d="M 794 531 
L 1825 531 
L 1825 4091 
L 703 3866 
L 703 4441 
L 1819 4666 
L 2450 4666 
L 2450 531 
L 3481 531 
L 3481 0 
L 794 0 
L 794 531 
z
" transform="scale(0.015625)"/>
        <path id="DejaVuSans-30" d="M 2034 4250 
Q 1547 4250 1301 3770 
Q 1056 3291 1056 2328 
Q 1056 1369 1301 889 
Q 1547 409 2034 409 
Q 2525 409 2770 889 
Q 3016 1369 3016 2328 
Q 3016 3291 2770 3770 
Q 2525 4250 2034 4250 
z
M 2034 4750 
Q 2819 4750 3233 4129 
Q 3647 3509 3647 2328 
Q 3647 1150 3233 529 
Q 2819 -91 2034 -91 
Q 1250 -91 836 529 
Q 422 1150 422 2328 
Q 422 3509 836 4129 
Q 1250 4750 2034 4750 
z
" transform="scale(0.015625)"/>
       </defs>
       <use xlink:href="#DejaVuSans-2212"/>
       <use xlink:href="#DejaVuSans-31" x="83.789062"/>
       <use xlink:href="#DejaVuSans-30" x="147.412109"/>
      </g>
     </g>
    </g>
    <g id="xtick_2">
     <g id="line2d_2">
      <path d="M 209.79675 188.638125 
L 209.79675 22.318125 
" clip-path="url(#pf738aabbeb)" style="fill: none; stroke: #ffffff; stroke-linecap: round"/>
     </g>
     <g id="text_2">
      <!-- −5 -->
      <g style="fill: #262626" transform="translate(201.688547 206.496406)scale(0.11 -0.11)">
       <defs>
        <path id="DejaVuSans-35" d="M 691 4666 
L 3169 4666 
L 3169 4134 
L 1269 4134 
L 1269 2991 
Q 1406 3038 1543 3061 
Q 1681 3084 1819 3084 
Q 2600 3084 3056 2656 
Q 3513 2228 3513 1497 
Q 3513 744 3044 326 
Q 2575 -91 1722 -91 
Q 1428 -91 1123 -41 
Q 819 9 494 109 
L 494 744 
Q 775 591 1075 516 
Q 1375 441 1709 441 
Q 2250 441 2565 725 
Q 2881 1009 2881 1497 
Q 2881 1984 2565 2268 
Q 2250 2553 1709 2553 
Q 1456 2553 1204 2497 
Q 953 2441 691 2322 
L 691 4666 
z
" transform="scale(0.015625)"/>
       </defs>
       <use xlink:href="#DejaVuSans-2212"/>
       <use xlink:href="#DejaVuSans-35" x="83.789062"/>
      </g>
     </g>
    </g>
    <g id="xtick_3">
     <g id="line2d_3">
      <path d="M 314.042003 188.638125 
L 314.042003 22.318125 
" clip-path="url(#pf738aabbeb)" style="fill: none; stroke: #ffffff; stroke-linecap: round"/>
     </g>
     <g id="text_3">
      <!-- 0 -->
      <g style="fill: #262626" transform="translate(310.542628 206.496406)scale(0.11 -0.11)">
       <use xlink:href="#DejaVuSans-30"/>
      </g>
     </g>
    </g>
    <g id="xtick_4">
     <g id="line2d_4">
      <path d="M 418.287255 188.638125 
L 418.287255 22.318125 
" clip-path="url(#pf738aabbeb)" style="fill: none; stroke: #ffffff; stroke-linecap: round"/>
     </g>
     <g id="text_4">
      <!-- 5 -->
      <g style="fill: #262626" transform="translate(414.78788 206.496406)scale(0.11 -0.11)">
       <use xlink:href="#DejaVuSans-35"/>
      </g>
     </g>
    </g>
    <g id="xtick_5">
     <g id="line2d_5">
      <path d="M 522.532508 188.638125 
L 522.532508 22.318125 
" clip-path="url(#pf738aabbeb)" style="fill: none; stroke: #ffffff; stroke-linecap: round"/>
     </g>
     <g id="text_5">
      <!-- 10 -->
      <g style="fill: #262626" transform="translate(515.533758 206.496406)scale(0.11 -0.11)">
       <use xlink:href="#DejaVuSans-31"/>
       <use xlink:href="#DejaVuSans-30" x="63.623047"/>
      </g>
     </g>
    </g>
   </g>
   <g id="matplotlib.axis_2">
    <g id="ytick_1">
     <g id="line2d_6">
      <path d="M 34.193438 188.638125 
L 592.193437 188.638125 
" clip-path="url(#pf738aabbeb)" style="fill: none; stroke: #ffffff; stroke-linecap: round"/>
     </g>
     <g id="text_6">
      <!-- 0.0 -->
      <g style="fill: #262626" transform="translate(7.2 192.817266)scale(0.11 -0.11)">
       <defs>
        <path id="DejaVuSans-2e" d="M 684 794 
L 1344 794 
L 1344 0 
L 684 0 
L 684 794 
z
" transform="scale(0.015625)"/>
       </defs>
       <use xlink:href="#DejaVuSans-30"/>
       <use xlink:href="#DejaVuSans-2e" x="63.623047"/>
       <use xlink:href="#DejaVuSans-30" x="95.410156"/>
      </g>
     </g>
    </g>
    <g id="ytick_2">
     <g id="line2d_7">
      <path d="M 34.193438 147.103553 
L 592.193437 147.103553 
" clip-path="url(#pf738aabbeb)" style="fill: none; stroke: #ffffff; stroke-linecap: round"/>
     </g>
     <g id="text_7">
      <!-- 0.2 -->
      <g style="fill: #262626" transform="translate(7.2 151.282693)scale(0.11 -0.11)">
       <defs>
        <path id="DejaVuSans-32" d="M 1228 531 
L 3431 531 
L 3431 0 
L 469 0 
L 469 531 
Q 828 903 1448 1529 
Q 2069 2156 2228 2338 
Q 2531 2678 2651 2914 
Q 2772 3150 2772 3378 
Q 2772 3750 2511 3984 
Q 2250 4219 1831 4219 
Q 1534 4219 1204 4116 
Q 875 4013 500 3803 
L 500 4441 
Q 881 4594 1212 4672 
Q 1544 4750 1819 4750 
Q 2544 4750 2975 4387 
Q 3406 4025 3406 3419 
Q 3406 3131 3298 2873 
Q 3191 2616 2906 2266 
Q 2828 2175 2409 1742 
Q 1991 1309 1228 531 
z
" transform="scale(0.015625)"/>
       </defs>
       <use xlink:href="#DejaVuSans-30"/>
       <use xlink:href="#DejaVuSans-2e" x="63.623047"/>
       <use xlink:href="#DejaVuSans-32" x="95.410156"/>
      </g>
     </g>
    </g>
    <g id="ytick_3">
     <g id="line2d_8">
      <path d="M 34.193438 105.56898 
L 592.193437 105.56898 
" clip-path="url(#pf738aabbeb)" style="fill: none; stroke: #ffffff; stroke-linecap: round"/>
     </g>
     <g id="text_8">
      <!-- 0.4 -->
      <g style="fill: #262626" transform="translate(7.2 109.748121)scale(0.11 -0.11)">
       <defs>
        <path id="DejaVuSans-34" d="M 2419 4116 
L 825 1625 
L 2419 1625 
L 2419 4116 
z
M 2253 4666 
L 3047 4666 
L 3047 1625 
L 3713 1625 
L 3713 1100 
L 3047 1100 
L 3047 0 
L 2419 0 
L 2419 1100 
L 313 1100 
L 313 1709 
L 2253 4666 
z
" transform="scale(0.015625)"/>
       </defs>
       <use xlink:href="#DejaVuSans-30"/>
       <use xlink:href="#DejaVuSans-2e" x="63.623047"/>
       <use xlink:href="#DejaVuSans-34" x="95.410156"/>
      </g>
     </g>
    </g>
    <g id="ytick_4">
     <g id="line2d_9">
      <path d="M 34.193438 64.034408 
L 592.193437 64.034408 
" clip-path="url(#pf738aabbeb)" style="fill: none; stroke: #ffffff; stroke-linecap: round"/>
     </g>
     <g id="text_9">
      <!-- 0.6 -->
      <g style="fill: #262626" transform="translate(7.2 68.213548)scale(0.11 -0.11)">
       <defs>
        <path id="DejaVuSans-36" d="M 2113 2584 
Q 1688 2584 1439 2293 
Q 1191 2003 1191 1497 
Q 1191 994 1439 701 
Q 1688 409 2113 409 
Q 2538 409 2786 701 
Q 3034 994 3034 1497 
Q 3034 2003 2786 2293 
Q 2538 2584 2113 2584 
z
M 3366 4563 
L 3366 3988 
Q 3128 4100 2886 4159 
Q 2644 4219 2406 4219 
Q 1781 4219 1451 3797 
Q 1122 3375 1075 2522 
Q 1259 2794 1537 2939 
Q 1816 3084 2150 3084 
Q 2853 3084 3261 2657 
Q 3669 2231 3669 1497 
Q 3669 778 3244 343 
Q 2819 -91 2113 -91 
Q 1303 -91 875 529 
Q 447 1150 447 2328 
Q 447 3434 972 4092 
Q 1497 4750 2381 4750 
Q 2619 4750 2861 4703 
Q 3103 4656 3366 4563 
z
" transform="scale(0.015625)"/>
       </defs>
       <use xlink:href="#DejaVuSans-30"/>
       <use xlink:href="#DejaVuSans-2e" x="63.623047"/>
       <use xlink:href="#DejaVuSans-36" x="95.410156"/>
      </g>
     </g>
    </g>
    <g id="ytick_5">
     <g id="line2d_10">
      <path d="M 34.193438 22.499835 
L 592.193437 22.499835 
" clip-path="url(#pf738aabbeb)" style="fill: none; stroke: #ffffff; stroke-linecap: round"/>
     </g>
     <g id="text_10">
      <!-- 0.8 -->
      <g style="fill: #262626" transform="translate(7.2 26.678976)scale(0.11 -0.11)">
       <defs>
        <path id="DejaVuSans-38" d="M 2034 2216 
Q 1584 2216 1326 1975 
Q 1069 1734 1069 1313 
Q 1069 891 1326 650 
Q 1584 409 2034 409 
Q 2484 409 2743 651 
Q 3003 894 3003 1313 
Q 3003 1734 2745 1975 
Q 2488 2216 2034 2216 
z
M 1403 2484 
Q 997 2584 770 2862 
Q 544 3141 544 3541 
Q 544 4100 942 4425 
Q 1341 4750 2034 4750 
Q 2731 4750 3128 4425 
Q 3525 4100 3525 3541 
Q 3525 3141 3298 2862 
Q 3072 2584 2669 2484 
Q 3125 2378 3379 2068 
Q 3634 1759 3634 1313 
Q 3634 634 3220 271 
Q 2806 -91 2034 -91 
Q 1263 -91 848 271 
Q 434 634 434 1313 
Q 434 1759 690 2068 
Q 947 2378 1403 2484 
z
M 1172 3481 
Q 1172 3119 1398 2916 
Q 1625 2713 2034 2713 
Q 2441 2713 2670 2916 
Q 2900 3119 2900 3481 
Q 2900 3844 2670 4047 
Q 2441 4250 2034 4250 
Q 1625 4250 1398 4047 
Q 1172 3844 1172 3481 
z
" transform="scale(0.015625)"/>
       </defs>
       <use xlink:href="#DejaVuSans-30"/>
       <use xlink:href="#DejaVuSans-2e" x="63.623047"/>
       <use xlink:href="#DejaVuSans-38" x="95.410156"/>
      </g>
     </g>
    </g>
   </g>
   <g id="patch_3">
    <path d="M 59.557074 188.638125 
L 61.538614 188.638125 
L 61.538614 188.432633 
L 59.557074 188.432633 
z
" clip-path="url(#pf738aabbeb)" style="fill: #4c72b0; fill-opacity: 0.5; stroke: #4c72b0; stroke-linejoin: miter"/>
   </g>
   <g id="patch_4">
    <path d="M 61.538614 188.638125 
L 63.520134 188.638125 
L 63.520134 188.378196 
L 61.538614 188.378196 
z
" clip-path="url(#pf738aabbeb)" style="fill: #4c72b0; fill-opacity: 0.5; stroke: #4c72b0; stroke-linejoin: miter"/>
   </g>
   <g id="patch_5">
    <path d="M 63.520115 188.638125 
L 65.501655 188.638125 
L 65.501655 188.365951 
L 63.520115 188.365951 
z
" clip-path="url(#pf738aabbeb)" style="fill: #4c72b0; fill-opacity: 0.5; stroke: #4c72b0; stroke-linejoin: miter"/>
   </g>
   <g id="patch_6">
    <path d="M 65.501675 188.638125 
L 67.483215 188.638125 
L 67.483215 188.34962 
L 65.501675 188.34962 
z
" clip-path="url(#pf738aabbeb)" style="fill: #4c72b0; fill-opacity: 0.5; stroke: #4c72b0; stroke-linejoin: miter"/>
   </g>
   <g id="patch_7">
    <path d="M 67.483215 188.638125 
L 69.464735 188.638125 
L 69.464735 188.299265 
L 67.483215 188.299265 
z
" clip-path="url(#pf738aabbeb)" style="fill: #4c72b0; fill-opacity: 0.5; stroke: #4c72b0; stroke-linejoin: miter"/>
   </g>
   <g id="patch_8">
    <path d="M 69.464715 188.638125 
L 71.446256 188.638125 
L 71.446256 188.281577 
L 69.464715 188.281577 
z
" clip-path="url(#pf738aabbeb)" style="fill: #4c72b0; fill-opacity: 0.5; stroke: #4c72b0; stroke-linejoin: miter"/>
   </g>
   <g id="patch_9">
    <path d="M 71.446275 188.638125 
L 73.427816 188.638125 
L 73.427816 188.272051 
L 71.446275 188.272051 
z
" clip-path="url(#pf738aabbeb)" style="fill: #4c72b0; fill-opacity: 0.5; stroke: #4c72b0; stroke-linejoin: miter"/>
   </g>
   <g id="patch_10">
    <path d="M 73.427796 188.638125 
L 75.409336 188.638125 
L 75.409336 188.229864 
L 73.427796 188.229864 
z
" clip-path="url(#pf738aabbeb)" style="fill: #4c72b0; fill-opacity: 0.5; stroke: #4c72b0; stroke-linejoin: miter"/>
   </g>
   <g id="patch_11">
    <path d="M 75.409356 188.638125 
L 77.390876 188.638125 
L 77.390876 188.135958 
L 75.409356 188.135958 
z
" clip-path="url(#pf738aabbeb)" style="fill: #4c72b0; fill-opacity: 0.5; stroke: #4c72b0; stroke-linejoin: miter"/>
   </g>
   <g id="patch_12">
    <path d="M 77.390876 188.638125 
L 79.372416 188.638125 
L 79.372416 188.055672 
L 77.390876 188.055672 
z
" clip-path="url(#pf738aabbeb)" style="fill: #4c72b0; fill-opacity: 0.5; stroke: #4c72b0; stroke-linejoin: miter"/>
   </g>
   <g id="patch_13">
    <path d="M 79.372397 188.638125 
L 81.353937 188.638125 
L 81.353937 188.078807 
L 79.372397 188.078807 
z
" clip-path="url(#pf738aabbeb)" style="fill: #4c72b0; fill-opacity: 0.5; stroke: #4c72b0; stroke-linejoin: miter"/>
   </g>
   <g id="patch_14">
    <path d="M 81.353957 188.638125 
L 83.335477 188.638125 
L 83.335477 188.005313 
L 81.353957 188.005313 
z
" clip-path="url(#pf738aabbeb)" style="fill: #4c72b0; fill-opacity: 0.5; stroke: #4c72b0; stroke-linejoin: miter"/>
   </g>
   <g id="patch_15">
    <path d="M 83.335477 188.638125 
L 85.317017 188.638125 
L 85.317017 187.862428 
L 83.335477 187.862428 
z
" clip-path="url(#pf738aabbeb)" style="fill: #4c72b0; fill-opacity: 0.5; stroke: #4c72b0; stroke-linejoin: miter"/>
   </g>
   <g id="patch_16">
    <path d="M 85.316997 188.638125 
L 87.298538 188.638125 
L 87.298538 187.821602 
L 85.316997 187.821602 
z
" clip-path="url(#pf738aabbeb)" style="fill: #4c72b0; fill-opacity: 0.5; stroke: #4c72b0; stroke-linejoin: miter"/>
   </g>
   <g id="patch_17">
    <path d="M 87.298558 188.638125 
L 89.280078 188.638125 
L 89.280078 187.858338 
L 87.298558 187.858338 
z
" clip-path="url(#pf738aabbeb)" style="fill: #4c72b0; fill-opacity: 0.5; stroke: #4c72b0; stroke-linejoin: miter"/>
   </g>
   <g id="patch_18">
    <path d="M 89.280078 188.638125 
L 91.261618 188.638125 
L 91.261618 187.714093 
L 89.280078 187.714093 
z
" clip-path="url(#pf738aabbeb)" style="fill: #4c72b0; fill-opacity: 0.5; stroke: #4c72b0; stroke-linejoin: miter"/>
   </g>
   <g id="patch_19">
    <path d="M 91.261598 188.638125 
L 93.243138 188.638125 
L 93.243138 187.628358 
L 91.261598 187.628358 
z
" clip-path="url(#pf738aabbeb)" style="fill: #4c72b0; fill-opacity: 0.5; stroke: #4c72b0; stroke-linejoin: miter"/>
   </g>
   <g id="patch_20">
    <path d="M 93.243158 188.638125 
L 95.224679 188.638125 
L 95.224679 187.531725 
L 93.243158 187.531725 
z
" clip-path="url(#pf738aabbeb)" style="fill: #4c72b0; fill-opacity: 0.5; stroke: #4c72b0; stroke-linejoin: miter"/>
   </g>
   <g id="patch_21">
    <path d="M 95.224679 188.638125 
L 97.206219 188.638125 
L 97.206219 187.401093 
L 95.224679 187.401093 
z
" clip-path="url(#pf738aabbeb)" style="fill: #4c72b0; fill-opacity: 0.5; stroke: #4c72b0; stroke-linejoin: miter"/>
   </g>
   <g id="patch_22">
    <path d="M 97.206199 188.638125 
L 99.187739 188.638125 
L 99.187739 187.284058 
L 97.206199 187.284058 
z
" clip-path="url(#pf738aabbeb)" style="fill: #4c72b0; fill-opacity: 0.5; stroke: #4c72b0; stroke-linejoin: miter"/>
   </g>
   <g id="patch_23">
    <path d="M 99.187759 188.638125 
L 101.169299 188.638125 
L 101.169299 187.048627 
L 99.187759 187.048627 
z
" clip-path="url(#pf738aabbeb)" style="fill: #4c72b0; fill-opacity: 0.5; stroke: #4c72b0; stroke-linejoin: miter"/>
   </g>
   <g id="patch_24">
    <path d="M 101.169299 188.638125 
L 103.15082 188.638125 
L 103.15082 186.879861 
L 101.169299 186.879861 
z
" clip-path="url(#pf738aabbeb)" style="fill: #4c72b0; fill-opacity: 0.5; stroke: #4c72b0; stroke-linejoin: miter"/>
   </g>
   <g id="patch_25">
    <path d="M 103.1508 188.638125 
L 105.13234 188.638125 
L 105.13234 186.728822 
L 103.1508 186.728822 
z
" clip-path="url(#pf738aabbeb)" style="fill: #4c72b0; fill-opacity: 0.5; stroke: #4c72b0; stroke-linejoin: miter"/>
   </g>
   <g id="patch_26">
    <path d="M 105.13236 188.638125 
L 107.1139 188.638125 
L 107.1139 186.585931 
L 105.13236 186.585931 
z
" clip-path="url(#pf738aabbeb)" style="fill: #4c72b0; fill-opacity: 0.5; stroke: #4c72b0; stroke-linejoin: miter"/>
   </g>
   <g id="patch_27">
    <path d="M 107.1139 188.638125 
L 109.09542 188.638125 
L 109.09542 186.436213 
L 107.1139 186.436213 
z
" clip-path="url(#pf738aabbeb)" style="fill: #4c72b0; fill-opacity: 0.5; stroke: #4c72b0; stroke-linejoin: miter"/>
   </g>
   <g id="patch_28">
    <path d="M 109.095401 188.638125 
L 111.076941 188.638125 
L 111.076941 186.199443 
L 109.095401 186.199443 
z
" clip-path="url(#pf738aabbeb)" style="fill: #4c72b0; fill-opacity: 0.5; stroke: #4c72b0; stroke-linejoin: miter"/>
   </g>
   <g id="patch_29">
    <path d="M 111.076961 188.638125 
L 113.058501 188.638125 
L 113.058501 185.965373 
L 111.076961 185.965373 
z
" clip-path="url(#pf738aabbeb)" style="fill: #4c72b0; fill-opacity: 0.5; stroke: #4c72b0; stroke-linejoin: miter"/>
   </g>
   <g id="patch_30">
    <path d="M 113.058501 188.638125 
L 115.040021 188.638125 
L 115.040021 185.732635 
L 113.058501 185.732635 
z
" clip-path="url(#pf738aabbeb)" style="fill: #4c72b0; fill-opacity: 0.5; stroke: #4c72b0; stroke-linejoin: miter"/>
   </g>
   <g id="patch_31">
    <path d="M 115.040001 188.638125 
L 117.021542 188.638125 
L 117.021542 185.497234 
L 115.040001 185.497234 
z
" clip-path="url(#pf738aabbeb)" style="fill: #4c72b0; fill-opacity: 0.5; stroke: #4c72b0; stroke-linejoin: miter"/>
   </g>
   <g id="patch_32">
    <path d="M 117.021561 188.638125 
L 119.003102 188.638125 
L 119.003102 185.173346 
L 117.021561 185.173346 
z
" clip-path="url(#pf738aabbeb)" style="fill: #4c72b0; fill-opacity: 0.5; stroke: #4c72b0; stroke-linejoin: miter"/>
   </g>
   <g id="patch_33">
    <path d="M 119.003102 188.638125 
L 120.984622 188.638125 
L 120.984622 184.680671 
L 119.003102 184.680671 
z
" clip-path="url(#pf738aabbeb)" style="fill: #4c72b0; fill-opacity: 0.5; stroke: #4c72b0; stroke-linejoin: miter"/>
   </g>
   <g id="patch_34">
    <path d="M 120.984602 188.638125 
L 122.966142 188.638125 
L 122.966142 184.262923 
L 120.984602 184.262923 
z
" clip-path="url(#pf738aabbeb)" style="fill: #4c72b0; fill-opacity: 0.5; stroke: #4c72b0; stroke-linejoin: miter"/>
   </g>
   <g id="patch_35">
    <path d="M 122.966162 188.638125 
L 124.947703 188.638125 
L 124.947703 183.919983 
L 122.966162 183.919983 
z
" clip-path="url(#pf738aabbeb)" style="fill: #4c72b0; fill-opacity: 0.5; stroke: #4c72b0; stroke-linejoin: miter"/>
   </g>
   <g id="patch_36">
    <path d="M 124.947683 188.638125 
L 126.929223 188.638125 
L 126.929223 183.494031 
L 124.947683 183.494031 
z
" clip-path="url(#pf738aabbeb)" style="fill: #4c72b0; fill-opacity: 0.5; stroke: #4c72b0; stroke-linejoin: miter"/>
   </g>
   <g id="patch_37">
    <path d="M 126.929243 188.638125 
L 128.910763 188.638125 
L 128.910763 182.971399 
L 126.929243 182.971399 
z
" clip-path="url(#pf738aabbeb)" style="fill: #4c72b0; fill-opacity: 0.5; stroke: #4c72b0; stroke-linejoin: miter"/>
   </g>
   <g id="patch_38">
    <path d="M 128.910763 188.638125 
L 130.892303 188.638125 
L 130.892303 182.299186 
L 128.910763 182.299186 
z
" clip-path="url(#pf738aabbeb)" style="fill: #4c72b0; fill-opacity: 0.5; stroke: #4c72b0; stroke-linejoin: miter"/>
   </g>
   <g id="patch_39">
    <path d="M 130.892283 188.638125 
L 132.873824 188.638125 
L 132.873824 181.780693 
L 130.892283 181.780693 
z
" clip-path="url(#pf738aabbeb)" style="fill: #4c72b0; fill-opacity: 0.5; stroke: #4c72b0; stroke-linejoin: miter"/>
   </g>
   <g id="patch_40">
    <path d="M 132.873844 188.638125 
L 134.855364 188.638125 
L 134.855364 180.991311 
L 132.873844 180.991311 
z
" clip-path="url(#pf738aabbeb)" style="fill: #4c72b0; fill-opacity: 0.5; stroke: #4c72b0; stroke-linejoin: miter"/>
   </g>
   <g id="patch_41">
    <path d="M 134.855364 188.638125 
L 136.836904 188.638125 
L 136.836904 180.339531 
L 134.855364 180.339531 
z
" clip-path="url(#pf738aabbeb)" style="fill: #4c72b0; fill-opacity: 0.5; stroke: #4c72b0; stroke-linejoin: miter"/>
   </g>
   <g id="patch_42">
    <path d="M 136.836884 188.638125 
L 138.818424 188.638125 
L 138.818424 179.781573 
L 136.836884 179.781573 
z
" clip-path="url(#pf738aabbeb)" style="fill: #4c72b0; fill-opacity: 0.5; stroke: #4c72b0; stroke-linejoin: miter"/>
   </g>
   <g id="patch_43">
    <path d="M 138.818444 188.638125 
L 140.799965 188.638125 
L 140.799965 178.473674 
L 138.818444 178.473674 
z
" clip-path="url(#pf738aabbeb)" style="fill: #4c72b0; fill-opacity: 0.5; stroke: #4c72b0; stroke-linejoin: miter"/>
   </g>
   <g id="patch_44">
    <path d="M 140.799965 188.638125 
L 142.781505 188.638125 
L 142.781505 177.488505 
L 140.799965 177.488505 
z
" clip-path="url(#pf738aabbeb)" style="fill: #4c72b0; fill-opacity: 0.5; stroke: #4c72b0; stroke-linejoin: miter"/>
   </g>
   <g id="patch_45">
    <path d="M 142.781485 188.638125 
L 144.763025 188.638125 
L 144.763025 176.281412 
L 142.781485 176.281412 
z
" clip-path="url(#pf738aabbeb)" style="fill: #4c72b0; fill-opacity: 0.5; stroke: #4c72b0; stroke-linejoin: miter"/>
   </g>
   <g id="patch_46">
    <path d="M 144.763045 188.638125 
L 146.744565 188.638125 
L 146.744565 175.11637 
L 144.763045 175.11637 
z
" clip-path="url(#pf738aabbeb)" style="fill: #4c72b0; fill-opacity: 0.5; stroke: #4c72b0; stroke-linejoin: miter"/>
   </g>
   <g id="patch_47">
    <path d="M 146.744565 188.638125 
L 148.726106 188.638125 
L 148.726106 174.142122 
L 146.744565 174.142122 
z
" clip-path="url(#pf738aabbeb)" style="fill: #4c72b0; fill-opacity: 0.5; stroke: #4c72b0; stroke-linejoin: miter"/>
   </g>
   <g id="patch_48">
    <path d="M 148.726106 188.638125 
L 150.707646 188.638125 
L 150.707646 172.564872 
L 148.726106 172.564872 
z
" clip-path="url(#pf738aabbeb)" style="fill: #4c72b0; fill-opacity: 0.5; stroke: #4c72b0; stroke-linejoin: miter"/>
   </g>
   <g id="patch_49">
    <path d="M 150.707646 188.638125 
L 152.689166 188.638125 
L 152.689166 170.999781 
L 150.707646 170.999781 
z
" clip-path="url(#pf738aabbeb)" style="fill: #4c72b0; fill-opacity: 0.5; stroke: #4c72b0; stroke-linejoin: miter"/>
   </g>
   <g id="patch_50">
    <path d="M 152.689186 188.638125 
L 154.670706 188.638125 
L 154.670706 169.165317 
L 152.689186 169.165317 
z
" clip-path="url(#pf738aabbeb)" style="fill: #4c72b0; fill-opacity: 0.5; stroke: #4c72b0; stroke-linejoin: miter"/>
   </g>
   <g id="patch_51">
    <path d="M 154.670706 188.638125 
L 156.652247 188.638125 
L 156.652247 166.982577 
L 154.670706 166.982577 
z
" clip-path="url(#pf738aabbeb)" style="fill: #4c72b0; fill-opacity: 0.5; stroke: #4c72b0; stroke-linejoin: miter"/>
   </g>
   <g id="patch_52">
    <path d="M 156.652247 188.638125 
L 158.633767 188.638125 
L 158.633767 164.696192 
L 156.652247 164.696192 
z
" clip-path="url(#pf738aabbeb)" style="fill: #4c72b0; fill-opacity: 0.5; stroke: #4c72b0; stroke-linejoin: miter"/>
   </g>
   <g id="patch_53">
    <path d="M 158.633777 188.638125 
L 160.615317 188.638125 
L 160.615317 162.355614 
L 158.633777 162.355614 
z
" clip-path="url(#pf738aabbeb)" style="fill: #4c72b0; fill-opacity: 0.5; stroke: #4c72b0; stroke-linejoin: miter"/>
   </g>
   <g id="patch_54">
    <path d="M 160.615327 188.638125 
L 162.596848 188.638125 
L 162.596848 159.76573 
L 160.615327 159.76573 
z
" clip-path="url(#pf738aabbeb)" style="fill: #4c72b0; fill-opacity: 0.5; stroke: #4c72b0; stroke-linejoin: miter"/>
   </g>
   <g id="patch_55">
    <path d="M 162.596848 188.638125 
L 164.578368 188.638125 
L 164.578368 157.004508 
L 162.596848 157.004508 
z
" clip-path="url(#pf738aabbeb)" style="fill: #4c72b0; fill-opacity: 0.5; stroke: #4c72b0; stroke-linejoin: miter"/>
   </g>
   <g id="patch_56">
    <path d="M 164.578378 188.638125 
L 166.559918 188.638125 
L 166.559918 153.71544 
L 164.578378 153.71544 
z
" clip-path="url(#pf738aabbeb)" style="fill: #4c72b0; fill-opacity: 0.5; stroke: #4c72b0; stroke-linejoin: miter"/>
   </g>
   <g id="patch_57">
    <path d="M 166.559928 188.638125 
L 168.541448 188.638125 
L 168.541448 150.442353 
L 166.559928 150.442353 
z
" clip-path="url(#pf738aabbeb)" style="fill: #4c72b0; fill-opacity: 0.5; stroke: #4c72b0; stroke-linejoin: miter"/>
   </g>
   <g id="patch_58">
    <path d="M 168.541448 188.638125 
L 170.522969 188.638125 
L 170.522969 146.513497 
L 168.541448 146.513497 
z
" clip-path="url(#pf738aabbeb)" style="fill: #4c72b0; fill-opacity: 0.5; stroke: #4c72b0; stroke-linejoin: miter"/>
   </g>
   <g id="patch_59">
    <path d="M 170.522979 188.638125 
L 172.504519 188.638125 
L 172.504519 142.28412 
L 170.522979 142.28412 
z
" clip-path="url(#pf738aabbeb)" style="fill: #4c72b0; fill-opacity: 0.5; stroke: #4c72b0; stroke-linejoin: miter"/>
   </g>
   <g id="patch_60">
    <path d="M 172.504529 188.638125 
L 174.486049 188.638125 
L 174.486049 138.093743 
L 172.504529 138.093743 
z
" clip-path="url(#pf738aabbeb)" style="fill: #4c72b0; fill-opacity: 0.5; stroke: #4c72b0; stroke-linejoin: miter"/>
   </g>
   <g id="patch_61">
    <path d="M 174.486049 188.638125 
L 176.467589 188.638125 
L 176.467589 132.929489 
L 174.486049 132.929489 
z
" clip-path="url(#pf738aabbeb)" style="fill: #4c72b0; fill-opacity: 0.5; stroke: #4c72b0; stroke-linejoin: miter"/>
   </g>
   <g id="patch_62">
    <path d="M 176.467589 188.638125 
L 178.44911 188.638125 
L 178.44911 127.065185 
L 176.467589 127.065185 
z
" clip-path="url(#pf738aabbeb)" style="fill: #4c72b0; fill-opacity: 0.5; stroke: #4c72b0; stroke-linejoin: miter"/>
   </g>
   <g id="patch_63">
    <path d="M 178.44913 188.638125 
L 180.43065 188.638125 
L 180.43065 121.689715 
L 178.44913 121.689715 
z
" clip-path="url(#pf738aabbeb)" style="fill: #4c72b0; fill-opacity: 0.5; stroke: #4c72b0; stroke-linejoin: miter"/>
   </g>
   <g id="patch_64">
    <path d="M 180.43065 188.638125 
L 182.41219 188.638125 
L 182.41219 114.907468 
L 180.43065 114.907468 
z
" clip-path="url(#pf738aabbeb)" style="fill: #4c72b0; fill-opacity: 0.5; stroke: #4c72b0; stroke-linejoin: miter"/>
   </g>
   <g id="patch_65">
    <path d="M 182.41219 188.638125 
L 184.39371 188.638125 
L 184.39371 107.067078 
L 182.41219 107.067078 
z
" clip-path="url(#pf738aabbeb)" style="fill: #4c72b0; fill-opacity: 0.5; stroke: #4c72b0; stroke-linejoin: miter"/>
   </g>
   <g id="patch_66">
    <path d="M 184.39373 188.638125 
L 186.375251 188.638125 
L 186.375251 99.315515 
L 184.39373 99.315515 
z
" clip-path="url(#pf738aabbeb)" style="fill: #4c72b0; fill-opacity: 0.5; stroke: #4c72b0; stroke-linejoin: miter"/>
   </g>
   <g id="patch_67">
    <path d="M 186.375251 188.638125 
L 188.356791 188.638125 
L 188.356791 90.085171 
L 186.375251 90.085171 
z
" clip-path="url(#pf738aabbeb)" style="fill: #4c72b0; fill-opacity: 0.5; stroke: #4c72b0; stroke-linejoin: miter"/>
   </g>
   <g id="patch_68">
    <path d="M 188.356791 188.638125 
L 190.338311 188.638125 
L 190.338311 80.444215 
L 188.356791 80.444215 
z
" clip-path="url(#pf738aabbeb)" style="fill: #4c72b0; fill-opacity: 0.5; stroke: #4c72b0; stroke-linejoin: miter"/>
   </g>
   <g id="patch_69">
    <path d="M 190.338321 188.638125 
L 192.319861 188.638125 
L 192.319861 69.570033 
L 190.338321 69.570033 
z
" clip-path="url(#pf738aabbeb)" style="fill: #4c72b0; fill-opacity: 0.5; stroke: #4c72b0; stroke-linejoin: miter"/>
   </g>
   <g id="patch_70">
    <path d="M 192.319871 188.638125 
L 194.301392 188.638125 
L 194.301392 57.633172 
L 192.319871 57.633172 
z
" clip-path="url(#pf738aabbeb)" style="fill: #4c72b0; fill-opacity: 0.5; stroke: #4c72b0; stroke-linejoin: miter"/>
   </g>
   <g id="patch_71">
    <path d="M 194.301392 188.638125 
L 196.282912 188.638125 
L 196.282912 45.540407 
L 194.301392 45.540407 
z
" clip-path="url(#pf738aabbeb)" style="fill: #4c72b0; fill-opacity: 0.5; stroke: #4c72b0; stroke-linejoin: miter"/>
   </g>
   <g id="patch_72">
    <path d="M 196.282922 188.638125 
L 198.264462 188.638125 
L 198.264462 30.238125 
L 196.282922 30.238125 
z
" clip-path="url(#pf738aabbeb)" style="fill: #4c72b0; fill-opacity: 0.5; stroke: #4c72b0; stroke-linejoin: miter"/>
   </g>
   <g id="patch_73">
    <path d="M 198.264472 188.638125 
L 200.245993 188.638125 
L 200.245993 165.192913 
L 198.264472 165.192913 
z
" clip-path="url(#pf738aabbeb)" style="fill: #4c72b0; fill-opacity: 0.5; stroke: #4c72b0; stroke-linejoin: miter"/>
   </g>
   <g id="patch_74">
    <path d="M 200.245993 188.638125 
L 202.227533 188.638125 
L 202.227533 188.544225 
L 200.245993 188.544225 
z
" clip-path="url(#pf738aabbeb)" style="fill: #4c72b0; fill-opacity: 0.5; stroke: #4c72b0; stroke-linejoin: miter"/>
   </g>
   <g id="patch_75">
    <path d="M 202.227533 188.638125 
L 204.209053 188.638125 
L 204.209053 188.561916 
L 202.227533 188.561916 
z
" clip-path="url(#pf738aabbeb)" style="fill: #4c72b0; fill-opacity: 0.5; stroke: #4c72b0; stroke-linejoin: miter"/>
   </g>
   <g id="patch_76">
    <path d="M 204.209073 188.638125 
L 206.190593 188.638125 
L 206.190593 188.530616 
L 204.209073 188.530616 
z
" clip-path="url(#pf738aabbeb)" style="fill: #4c72b0; fill-opacity: 0.5; stroke: #4c72b0; stroke-linejoin: miter"/>
   </g>
   <g id="patch_77">
    <path d="M 206.190593 188.638125 
L 208.172134 188.638125 
L 208.172134 188.53606 
L 206.190593 188.53606 
z
" clip-path="url(#pf738aabbeb)" style="fill: #4c72b0; fill-opacity: 0.5; stroke: #4c72b0; stroke-linejoin: miter"/>
   </g>
   <g id="patch_78">
    <path d="M 208.172134 188.638125 
L 210.153654 188.638125 
L 210.153654 188.533337 
L 208.172134 188.533337 
z
" clip-path="url(#pf738aabbeb)" style="fill: #4c72b0; fill-opacity: 0.5; stroke: #4c72b0; stroke-linejoin: miter"/>
   </g>
   <g id="patch_79">
    <path d="M 210.153674 188.638125 
L 212.135194 188.638125 
L 212.135194 188.481624 
L 210.153674 188.481624 
z
" clip-path="url(#pf738aabbeb)" style="fill: #4c72b0; fill-opacity: 0.5; stroke: #4c72b0; stroke-linejoin: miter"/>
   </g>
   <g id="patch_80">
    <path d="M 212.135194 188.638125 
L 214.116734 188.638125 
L 214.116734 188.39589 
L 212.135194 188.39589 
z
" clip-path="url(#pf738aabbeb)" style="fill: #4c72b0; fill-opacity: 0.5; stroke: #4c72b0; stroke-linejoin: miter"/>
   </g>
   <g id="patch_81">
    <path d="M 214.116734 188.638125 
L 216.098255 188.638125 
L 216.098255 188.276131 
L 214.116734 188.276131 
z
" clip-path="url(#pf738aabbeb)" style="fill: #4c72b0; fill-opacity: 0.5; stroke: #4c72b0; stroke-linejoin: miter"/>
   </g>
   <g id="patch_82">
    <path d="M 216.098265 188.638125 
L 218.079805 188.638125 
L 218.079805 188.223059 
L 216.098265 188.223059 
z
" clip-path="url(#pf738aabbeb)" style="fill: #4c72b0; fill-opacity: 0.5; stroke: #4c72b0; stroke-linejoin: miter"/>
   </g>
   <g id="patch_83">
    <path d="M 218.079815 188.638125 
L 220.061335 188.638125 
L 220.061335 188.242109 
L 218.079815 188.242109 
z
" clip-path="url(#pf738aabbeb)" style="fill: #4c72b0; fill-opacity: 0.5; stroke: #4c72b0; stroke-linejoin: miter"/>
   </g>
   <g id="patch_84">
    <path d="M 220.061335 188.638125 
L 222.042855 188.638125 
L 222.042855 188.179509 
L 220.061335 188.179509 
z
" clip-path="url(#pf738aabbeb)" style="fill: #4c72b0; fill-opacity: 0.5; stroke: #4c72b0; stroke-linejoin: miter"/>
   </g>
   <g id="patch_85">
    <path d="M 222.042865 188.638125 
L 224.024406 188.638125 
L 224.024406 188.220337 
L 222.042865 188.220337 
z
" clip-path="url(#pf738aabbeb)" style="fill: #4c72b0; fill-opacity: 0.5; stroke: #4c72b0; stroke-linejoin: miter"/>
   </g>
   <g id="patch_86">
    <path d="M 224.024416 188.638125 
L 226.005936 188.638125 
L 226.005936 188.179509 
L 224.024416 188.179509 
z
" clip-path="url(#pf738aabbeb)" style="fill: #4c72b0; fill-opacity: 0.5; stroke: #4c72b0; stroke-linejoin: miter"/>
   </g>
   <g id="patch_87">
    <path d="M 226.005936 188.638125 
L 227.987476 188.638125 
L 227.987476 188.14549 
L 226.005936 188.14549 
z
" clip-path="url(#pf738aabbeb)" style="fill: #4c72b0; fill-opacity: 0.5; stroke: #4c72b0; stroke-linejoin: miter"/>
   </g>
   <g id="patch_88">
    <path d="M 227.987476 188.638125 
L 229.968997 188.638125 
L 229.968997 187.949521 
L 227.987476 187.949521 
z
" clip-path="url(#pf738aabbeb)" style="fill: #4c72b0; fill-opacity: 0.5; stroke: #4c72b0; stroke-linejoin: miter"/>
   </g>
   <g id="patch_89">
    <path d="M 229.969006 188.638125 
L 231.950547 188.638125 
L 231.950547 187.904613 
L 229.969006 187.904613 
z
" clip-path="url(#pf738aabbeb)" style="fill: #4c72b0; fill-opacity: 0.5; stroke: #4c72b0; stroke-linejoin: miter"/>
   </g>
   <g id="patch_90">
    <path d="M 231.950547 188.638125 
L 233.932067 188.638125 
L 233.932067 187.873311 
L 231.950547 187.873311 
z
" clip-path="url(#pf738aabbeb)" style="fill: #4c72b0; fill-opacity: 0.5; stroke: #4c72b0; stroke-linejoin: miter"/>
   </g>
   <g id="patch_91">
    <path d="M 233.932067 188.638125 
L 235.913607 188.638125 
L 235.913607 187.933192 
L 233.932067 187.933192 
z
" clip-path="url(#pf738aabbeb)" style="fill: #4c72b0; fill-opacity: 0.5; stroke: #4c72b0; stroke-linejoin: miter"/>
   </g>
   <g id="patch_92">
    <path d="M 235.913607 188.638125 
L 237.895147 188.638125 
L 237.895147 187.501794 
L 235.913607 187.501794 
z
" clip-path="url(#pf738aabbeb)" style="fill: #4c72b0; fill-opacity: 0.5; stroke: #4c72b0; stroke-linejoin: miter"/>
   </g>
   <g id="patch_93">
    <path d="M 237.895138 188.638125 
L 239.876678 188.638125 
L 239.876678 187.425585 
L 237.895138 187.425585 
z
" clip-path="url(#pf738aabbeb)" style="fill: #4c72b0; fill-opacity: 0.5; stroke: #4c72b0; stroke-linejoin: miter"/>
   </g>
   <g id="patch_94">
    <path d="M 239.876683 188.638125 
L 241.858203 188.638125 
L 241.858203 187.537174 
L 239.876683 187.537174 
z
" clip-path="url(#pf738aabbeb)" style="fill: #4c72b0; fill-opacity: 0.5; stroke: #4c72b0; stroke-linejoin: miter"/>
   </g>
   <g id="patch_95">
    <path d="M 241.858208 188.638125 
L 243.839748 188.638125 
L 243.839748 187.420142 
L 241.858208 187.420142 
z
" clip-path="url(#pf738aabbeb)" style="fill: #4c72b0; fill-opacity: 0.5; stroke: #4c72b0; stroke-linejoin: miter"/>
   </g>
   <g id="patch_96">
    <path d="M 243.839738 188.638125 
L 245.821279 188.638125 
L 245.821279 187.289498 
L 243.839738 187.289498 
z
" clip-path="url(#pf738aabbeb)" style="fill: #4c72b0; fill-opacity: 0.5; stroke: #4c72b0; stroke-linejoin: miter"/>
   </g>
   <g id="patch_97">
    <path d="M 245.821279 188.638125 
L 247.802819 188.638125 
L 247.802819 186.840409 
L 245.821279 186.840409 
z
" clip-path="url(#pf738aabbeb)" style="fill: #4c72b0; fill-opacity: 0.5; stroke: #4c72b0; stroke-linejoin: miter"/>
   </g>
   <g id="patch_98">
    <path d="M 247.802809 188.638125 
L 249.784349 188.638125 
L 249.784349 186.885318 
L 247.802809 186.885318 
z
" clip-path="url(#pf738aabbeb)" style="fill: #4c72b0; fill-opacity: 0.5; stroke: #4c72b0; stroke-linejoin: miter"/>
   </g>
   <g id="patch_99">
    <path d="M 249.784354 188.638125 
L 251.765874 188.638125 
L 251.765874 186.867622 
L 249.784354 186.867622 
z
" clip-path="url(#pf738aabbeb)" style="fill: #4c72b0; fill-opacity: 0.5; stroke: #4c72b0; stroke-linejoin: miter"/>
   </g>
   <g id="patch_100">
    <path d="M 251.765879 188.638125 
L 253.74742 188.638125 
L 253.74742 186.811831 
L 251.765879 186.811831 
z
" clip-path="url(#pf738aabbeb)" style="fill: #4c72b0; fill-opacity: 0.5; stroke: #4c72b0; stroke-linejoin: miter"/>
   </g>
   <g id="patch_101">
    <path d="M 253.74741 188.638125 
L 255.72895 188.638125 
L 255.72895 186.713848 
L 253.74741 186.713848 
z
" clip-path="url(#pf738aabbeb)" style="fill: #4c72b0; fill-opacity: 0.5; stroke: #4c72b0; stroke-linejoin: miter"/>
   </g>
   <g id="patch_102">
    <path d="M 255.72895 188.638125 
L 257.71049 188.638125 
L 257.71049 186.798222 
L 255.72895 186.798222 
z
" clip-path="url(#pf738aabbeb)" style="fill: #4c72b0; fill-opacity: 0.5; stroke: #4c72b0; stroke-linejoin: miter"/>
   </g>
   <g id="patch_103">
    <path d="M 257.71049 188.638125 
L 259.69201 188.638125 
L 259.69201 186.7397 
L 257.71049 186.7397 
z
" clip-path="url(#pf738aabbeb)" style="fill: #4c72b0; fill-opacity: 0.5; stroke: #4c72b0; stroke-linejoin: miter"/>
   </g>
   <g id="patch_104">
    <path d="M 259.69201 188.638125 
L 261.673551 188.638125 
L 261.673551 186.425342 
L 259.69201 186.425342 
z
" clip-path="url(#pf738aabbeb)" style="fill: #4c72b0; fill-opacity: 0.5; stroke: #4c72b0; stroke-linejoin: miter"/>
   </g>
   <g id="patch_105">
    <path d="M 261.673551 188.638125 
L 263.655091 188.638125 
L 263.655091 186.159972 
L 261.673551 186.159972 
z
" clip-path="url(#pf738aabbeb)" style="fill: #4c72b0; fill-opacity: 0.5; stroke: #4c72b0; stroke-linejoin: miter"/>
   </g>
   <g id="patch_106">
    <path d="M 263.655081 188.638125 
L 265.636621 188.638125 
L 265.636621 185.646922 
L 263.655081 185.646922 
z
" clip-path="url(#pf738aabbeb)" style="fill: #4c72b0; fill-opacity: 0.5; stroke: #4c72b0; stroke-linejoin: miter"/>
   </g>
   <g id="patch_107">
    <path d="M 265.636626 188.638125 
L 267.618146 188.638125 
L 267.618146 186.410367 
L 265.636626 186.410367 
z
" clip-path="url(#pf738aabbeb)" style="fill: #4c72b0; fill-opacity: 0.5; stroke: #4c72b0; stroke-linejoin: miter"/>
   </g>
   <g id="patch_108">
    <path d="M 267.618151 188.638125 
L 269.599692 188.638125 
L 269.599692 186.131393 
L 267.618151 186.131393 
z
" clip-path="url(#pf738aabbeb)" style="fill: #4c72b0; fill-opacity: 0.5; stroke: #4c72b0; stroke-linejoin: miter"/>
   </g>
   <g id="patch_109">
    <path d="M 269.599682 188.638125 
L 271.581222 188.638125 
L 271.581222 185.636035 
L 269.599682 185.636035 
z
" clip-path="url(#pf738aabbeb)" style="fill: #4c72b0; fill-opacity: 0.5; stroke: #4c72b0; stroke-linejoin: miter"/>
   </g>
   <g id="patch_110">
    <path d="M 271.581217 188.638125 
L 273.562757 188.638125 
L 273.562757 184.978728 
L 271.581217 184.978728 
z
" clip-path="url(#pf738aabbeb)" style="fill: #4c72b0; fill-opacity: 0.5; stroke: #4c72b0; stroke-linejoin: miter"/>
   </g>
   <g id="patch_111">
    <path d="M 273.562752 188.638125 
L 275.544292 188.638125 
L 275.544292 186.042937 
L 273.562752 186.042937 
z
" clip-path="url(#pf738aabbeb)" style="fill: #4c72b0; fill-opacity: 0.5; stroke: #4c72b0; stroke-linejoin: miter"/>
   </g>
   <g id="patch_112">
    <path d="M 275.544288 188.638125 
L 277.525828 188.638125 
L 277.525828 185.403321 
L 275.544288 185.403321 
z
" clip-path="url(#pf738aabbeb)" style="fill: #4c72b0; fill-opacity: 0.5; stroke: #4c72b0; stroke-linejoin: miter"/>
   </g>
   <g id="patch_113">
    <path d="M 277.52582 188.638125 
L 279.507361 188.638125 
L 279.507361 185.31759 
L 277.52582 185.31759 
z
" clip-path="url(#pf738aabbeb)" style="fill: #4c72b0; fill-opacity: 0.5; stroke: #4c72b0; stroke-linejoin: miter"/>
   </g>
   <g id="patch_114">
    <path d="M 279.507356 188.638125 
L 281.488896 188.638125 
L 281.488896 184.903884 
L 279.507356 184.903884 
z
" clip-path="url(#pf738aabbeb)" style="fill: #4c72b0; fill-opacity: 0.5; stroke: #4c72b0; stroke-linejoin: miter"/>
   </g>
   <g id="patch_115">
    <path d="M 281.488888 188.638125 
L 283.470429 188.638125 
L 283.470429 185.418291 
L 281.488888 185.418291 
z
" clip-path="url(#pf738aabbeb)" style="fill: #4c72b0; fill-opacity: 0.5; stroke: #4c72b0; stroke-linejoin: miter"/>
   </g>
   <g id="patch_116">
    <path d="M 283.470424 188.638125 
L 285.451964 188.638125 
L 285.451964 184.925658 
L 283.470424 184.925658 
z
" clip-path="url(#pf738aabbeb)" style="fill: #4c72b0; fill-opacity: 0.5; stroke: #4c72b0; stroke-linejoin: miter"/>
   </g>
   <g id="patch_117">
    <path d="M 285.451959 188.638125 
L 287.433499 188.638125 
L 287.433499 185.480891 
L 285.451959 185.480891 
z
" clip-path="url(#pf738aabbeb)" style="fill: #4c72b0; fill-opacity: 0.5; stroke: #4c72b0; stroke-linejoin: miter"/>
   </g>
   <g id="patch_118">
    <path d="M 287.433492 188.638125 
L 289.415032 188.638125 
L 289.415032 184.445269 
L 287.433492 184.445269 
z
" clip-path="url(#pf738aabbeb)" style="fill: #4c72b0; fill-opacity: 0.5; stroke: #4c72b0; stroke-linejoin: miter"/>
   </g>
   <g id="patch_119">
    <path d="M 289.415024 188.638125 
L 291.396565 188.638125 
L 291.396565 183.892748 
L 289.415024 183.892748 
z
" clip-path="url(#pf738aabbeb)" style="fill: #4c72b0; fill-opacity: 0.5; stroke: #4c72b0; stroke-linejoin: miter"/>
   </g>
   <g id="patch_120">
    <path d="M 291.39656 188.638125 
L 293.3781 188.638125 
L 293.3781 184.299653 
L 291.39656 184.299653 
z
" clip-path="url(#pf738aabbeb)" style="fill: #4c72b0; fill-opacity: 0.5; stroke: #4c72b0; stroke-linejoin: miter"/>
   </g>
   <g id="patch_121">
    <path d="M 293.378092 188.638125 
L 295.359633 188.638125 
L 295.359633 184.347284 
L 293.378092 184.347284 
z
" clip-path="url(#pf738aabbeb)" style="fill: #4c72b0; fill-opacity: 0.5; stroke: #4c72b0; stroke-linejoin: miter"/>
   </g>
   <g id="patch_122">
    <path d="M 295.359628 188.638125 
L 297.341168 188.638125 
L 297.341168 184.237056 
L 295.359628 184.237056 
z
" clip-path="url(#pf738aabbeb)" style="fill: #4c72b0; fill-opacity: 0.5; stroke: #4c72b0; stroke-linejoin: miter"/>
   </g>
   <g id="patch_123">
    <path d="M 297.341163 188.638125 
L 299.322703 188.638125 
L 299.322703 184.17037 
L 297.341163 184.17037 
z
" clip-path="url(#pf738aabbeb)" style="fill: #4c72b0; fill-opacity: 0.5; stroke: #4c72b0; stroke-linejoin: miter"/>
   </g>
   <g id="patch_124">
    <path d="M 299.322696 188.638125 
L 301.304236 188.638125 
L 301.304236 183.213674 
L 299.322696 183.213674 
z
" clip-path="url(#pf738aabbeb)" style="fill: #4c72b0; fill-opacity: 0.5; stroke: #4c72b0; stroke-linejoin: miter"/>
   </g>
   <g id="patch_125">
    <path d="M 301.304231 188.638125 
L 303.285771 188.638125 
L 303.285771 184.40444 
L 301.304231 184.40444 
z
" clip-path="url(#pf738aabbeb)" style="fill: #4c72b0; fill-opacity: 0.5; stroke: #4c72b0; stroke-linejoin: miter"/>
   </g>
   <g id="patch_126">
    <path d="M 303.285764 188.638125 
L 305.267304 188.638125 
L 305.267304 184.171731 
L 303.285764 184.171731 
z
" clip-path="url(#pf738aabbeb)" style="fill: #4c72b0; fill-opacity: 0.5; stroke: #4c72b0; stroke-linejoin: miter"/>
   </g>
   <g id="patch_127">
    <path d="M 305.267298 188.638125 
L 307.248839 188.638125 
L 307.248839 183.962156 
L 305.267298 183.962156 
z
" clip-path="url(#pf738aabbeb)" style="fill: #4c72b0; fill-opacity: 0.5; stroke: #4c72b0; stroke-linejoin: miter"/>
   </g>
   <g id="patch_128">
    <path d="M 307.248832 188.638125 
L 309.230373 188.638125 
L 309.230373 184.053335 
L 307.248832 184.053335 
z
" clip-path="url(#pf738aabbeb)" style="fill: #4c72b0; fill-opacity: 0.5; stroke: #4c72b0; stroke-linejoin: miter"/>
   </g>
   <g id="patch_129">
    <path d="M 309.230366 188.638125 
L 311.211907 188.638125 
L 311.211907 183.529397 
L 309.230366 183.529397 
z
" clip-path="url(#pf738aabbeb)" style="fill: #4c72b0; fill-opacity: 0.5; stroke: #4c72b0; stroke-linejoin: miter"/>
   </g>
   <g id="patch_130">
    <path d="M 311.2119 188.638125 
L 313.193441 188.638125 
L 313.193441 183.638267 
L 311.2119 183.638267 
z
" clip-path="url(#pf738aabbeb)" style="fill: #4c72b0; fill-opacity: 0.5; stroke: #4c72b0; stroke-linejoin: miter"/>
   </g>
   <g id="patch_131">
    <path d="M 313.193434 188.638125 
L 315.174975 188.638125 
L 315.174975 181.165556 
L 313.193434 181.165556 
z
" clip-path="url(#pf738aabbeb)" style="fill: #4c72b0; fill-opacity: 0.5; stroke: #4c72b0; stroke-linejoin: miter"/>
   </g>
   <g id="patch_132">
    <path d="M 315.174968 188.638125 
L 317.156509 188.638125 
L 317.156509 183.763468 
L 315.174968 183.763468 
z
" clip-path="url(#pf738aabbeb)" style="fill: #4c72b0; fill-opacity: 0.5; stroke: #4c72b0; stroke-linejoin: miter"/>
   </g>
   <g id="patch_133">
    <path d="M 317.156502 188.638125 
L 319.138043 188.638125 
L 319.138043 183.151075 
L 317.156502 183.151075 
z
" clip-path="url(#pf738aabbeb)" style="fill: #4c72b0; fill-opacity: 0.5; stroke: #4c72b0; stroke-linejoin: miter"/>
   </g>
   <g id="patch_134">
    <path d="M 319.138036 188.638125 
L 321.119577 188.638125 
L 321.119577 183.804293 
L 319.138036 183.804293 
z
" clip-path="url(#pf738aabbeb)" style="fill: #4c72b0; fill-opacity: 0.5; stroke: #4c72b0; stroke-linejoin: miter"/>
   </g>
   <g id="patch_135">
    <path d="M 321.119571 188.638125 
L 323.101111 188.638125 
L 323.101111 183.76347 
L 321.119571 183.76347 
z
" clip-path="url(#pf738aabbeb)" style="fill: #4c72b0; fill-opacity: 0.5; stroke: #4c72b0; stroke-linejoin: miter"/>
   </g>
   <g id="patch_136">
    <path d="M 323.101105 188.638125 
L 325.082645 188.638125 
L 325.082645 184.473844 
L 323.101105 184.473844 
z
" clip-path="url(#pf738aabbeb)" style="fill: #4c72b0; fill-opacity: 0.5; stroke: #4c72b0; stroke-linejoin: miter"/>
   </g>
   <g id="patch_137">
    <path d="M 325.082639 188.638125 
L 327.064179 188.638125 
L 327.064179 184.394914 
L 325.082639 184.394914 
z
" clip-path="url(#pf738aabbeb)" style="fill: #4c72b0; fill-opacity: 0.5; stroke: #4c72b0; stroke-linejoin: miter"/>
   </g>
   <g id="patch_138">
    <path d="M 327.064172 188.638125 
L 329.045712 188.638125 
L 329.045712 182.793164 
L 327.064172 182.793164 
z
" clip-path="url(#pf738aabbeb)" style="fill: #4c72b0; fill-opacity: 0.5; stroke: #4c72b0; stroke-linejoin: miter"/>
   </g>
   <g id="patch_139">
    <path d="M 329.045707 188.638125 
L 331.027247 188.638125 
L 331.027247 184.238416 
L 329.045707 184.238416 
z
" clip-path="url(#pf738aabbeb)" style="fill: #4c72b0; fill-opacity: 0.5; stroke: #4c72b0; stroke-linejoin: miter"/>
   </g>
   <g id="patch_140">
    <path d="M 331.027242 188.638125 
L 333.008783 188.638125 
L 333.008783 183.827429 
L 331.027242 183.827429 
z
" clip-path="url(#pf738aabbeb)" style="fill: #4c72b0; fill-opacity: 0.5; stroke: #4c72b0; stroke-linejoin: miter"/>
   </g>
   <g id="patch_141">
    <path d="M 333.008775 188.638125 
L 334.990315 188.638125 
L 334.990315 185.176057 
L 333.008775 185.176057 
z
" clip-path="url(#pf738aabbeb)" style="fill: #4c72b0; fill-opacity: 0.5; stroke: #4c72b0; stroke-linejoin: miter"/>
   </g>
   <g id="patch_142">
    <path d="M 334.99031 188.638125 
L 336.971851 188.638125 
L 336.971851 182.820377 
L 334.99031 182.820377 
z
" clip-path="url(#pf738aabbeb)" style="fill: #4c72b0; fill-opacity: 0.5; stroke: #4c72b0; stroke-linejoin: miter"/>
   </g>
   <g id="patch_143">
    <path d="M 336.971843 188.638125 
L 338.953383 188.638125 
L 338.953383 184.424856 
L 336.971843 184.424856 
z
" clip-path="url(#pf738aabbeb)" style="fill: #4c72b0; fill-opacity: 0.5; stroke: #4c72b0; stroke-linejoin: miter"/>
   </g>
   <g id="patch_144">
    <path d="M 338.953376 188.638125 
L 340.934916 188.638125 
L 340.934916 184.318703 
L 338.953376 184.318703 
z
" clip-path="url(#pf738aabbeb)" style="fill: #4c72b0; fill-opacity: 0.5; stroke: #4c72b0; stroke-linejoin: miter"/>
   </g>
   <g id="patch_145">
    <path d="M 340.934911 188.638125 
L 342.916451 188.638125 
L 342.916451 185.171977 
L 340.934911 185.171977 
z
" clip-path="url(#pf738aabbeb)" style="fill: #4c72b0; fill-opacity: 0.5; stroke: #4c72b0; stroke-linejoin: miter"/>
   </g>
   <g id="patch_146">
    <path d="M 342.916446 188.638125 
L 344.897987 188.638125 
L 344.897987 185.351608 
L 342.916446 185.351608 
z
" clip-path="url(#pf738aabbeb)" style="fill: #4c72b0; fill-opacity: 0.5; stroke: #4c72b0; stroke-linejoin: miter"/>
   </g>
   <g id="patch_147">
    <path d="M 344.897979 188.638125 
L 346.879519 188.638125 
L 346.879519 184.94471 
L 344.897979 184.94471 
z
" clip-path="url(#pf738aabbeb)" style="fill: #4c72b0; fill-opacity: 0.5; stroke: #4c72b0; stroke-linejoin: miter"/>
   </g>
   <g id="patch_148">
    <path d="M 346.879514 188.638125 
L 348.861055 188.638125 
L 348.861055 184.793653 
L 346.879514 184.793653 
z
" clip-path="url(#pf738aabbeb)" style="fill: #4c72b0; fill-opacity: 0.5; stroke: #4c72b0; stroke-linejoin: miter"/>
   </g>
   <g id="patch_149">
    <path d="M 348.861047 188.638125 
L 350.842587 188.638125 
L 350.842587 184.978728 
L 348.861047 184.978728 
z
" clip-path="url(#pf738aabbeb)" style="fill: #4c72b0; fill-opacity: 0.5; stroke: #4c72b0; stroke-linejoin: miter"/>
   </g>
   <g id="patch_150">
    <path d="M 350.842583 188.638125 
L 352.824123 188.638125 
L 352.824123 185.980336 
L 350.842583 185.980336 
z
" clip-path="url(#pf738aabbeb)" style="fill: #4c72b0; fill-opacity: 0.5; stroke: #4c72b0; stroke-linejoin: miter"/>
   </g>
   <g id="patch_151">
    <path d="M 352.824118 188.638125 
L 354.805658 188.638125 
L 354.805658 185.259068 
L 352.824118 185.259068 
z
" clip-path="url(#pf738aabbeb)" style="fill: #4c72b0; fill-opacity: 0.5; stroke: #4c72b0; stroke-linejoin: miter"/>
   </g>
   <g id="patch_152">
    <path d="M 354.805653 188.638125 
L 356.787193 188.638125 
L 356.787193 185.142037 
L 354.805653 185.142037 
z
" clip-path="url(#pf738aabbeb)" style="fill: #4c72b0; fill-opacity: 0.5; stroke: #4c72b0; stroke-linejoin: miter"/>
   </g>
   <g id="patch_153">
    <path d="M 356.787183 188.638125 
L 358.768724 188.638125 
L 358.768724 185.800701 
L 356.787183 185.800701 
z
" clip-path="url(#pf738aabbeb)" style="fill: #4c72b0; fill-opacity: 0.5; stroke: #4c72b0; stroke-linejoin: miter"/>
   </g>
   <g id="patch_154">
    <path d="M 358.768729 188.638125 
L 360.750249 188.638125 
L 360.750249 186.127304 
L 358.768729 186.127304 
z
" clip-path="url(#pf738aabbeb)" style="fill: #4c72b0; fill-opacity: 0.5; stroke: #4c72b0; stroke-linejoin: miter"/>
   </g>
   <g id="patch_155">
    <path d="M 360.750254 188.638125 
L 362.731794 188.638125 
L 362.731794 185.743544 
L 360.750254 185.743544 
z
" clip-path="url(#pf738aabbeb)" style="fill: #4c72b0; fill-opacity: 0.5; stroke: #4c72b0; stroke-linejoin: miter"/>
   </g>
   <g id="patch_156">
    <path d="M 362.731784 188.638125 
L 364.713324 188.638125 
L 364.713324 185.934067 
L 362.731784 185.934067 
z
" clip-path="url(#pf738aabbeb)" style="fill: #4c72b0; fill-opacity: 0.5; stroke: #4c72b0; stroke-linejoin: miter"/>
   </g>
   <g id="patch_157">
    <path d="M 364.713324 188.638125 
L 366.694865 188.638125 
L 366.694865 186.068793 
L 364.713324 186.068793 
z
" clip-path="url(#pf738aabbeb)" style="fill: #4c72b0; fill-opacity: 0.5; stroke: #4c72b0; stroke-linejoin: miter"/>
   </g>
   <g id="patch_158">
    <path d="M 366.694865 188.638125 
L 368.676385 188.638125 
L 368.676385 186.511072 
L 366.694865 186.511072 
z
" clip-path="url(#pf738aabbeb)" style="fill: #4c72b0; fill-opacity: 0.5; stroke: #4c72b0; stroke-linejoin: miter"/>
   </g>
   <g id="patch_159">
    <path d="M 368.676385 188.638125 
L 370.657925 188.638125 
L 370.657925 186.682548 
L 368.676385 186.682548 
z
" clip-path="url(#pf738aabbeb)" style="fill: #4c72b0; fill-opacity: 0.5; stroke: #4c72b0; stroke-linejoin: miter"/>
   </g>
   <g id="patch_160">
    <path d="M 370.657925 188.638125 
L 372.639465 188.638125 
L 372.639465 186.626752 
L 370.657925 186.626752 
z
" clip-path="url(#pf738aabbeb)" style="fill: #4c72b0; fill-opacity: 0.5; stroke: #4c72b0; stroke-linejoin: miter"/>
   </g>
   <g id="patch_161">
    <path d="M 372.639455 188.638125 
L 374.620996 188.638125 
L 374.620996 186.651248 
L 372.639455 186.651248 
z
" clip-path="url(#pf738aabbeb)" style="fill: #4c72b0; fill-opacity: 0.5; stroke: #4c72b0; stroke-linejoin: miter"/>
   </g>
   <g id="patch_162">
    <path d="M 374.621001 188.638125 
L 376.602521 188.638125 
L 376.602521 186.779165 
L 374.621001 186.779165 
z
" clip-path="url(#pf738aabbeb)" style="fill: #4c72b0; fill-opacity: 0.5; stroke: #4c72b0; stroke-linejoin: miter"/>
   </g>
   <g id="patch_163">
    <path d="M 376.602526 188.638125 
L 378.584066 188.638125 
L 378.584066 187.04454 
L 376.602526 187.04454 
z
" clip-path="url(#pf738aabbeb)" style="fill: #4c72b0; fill-opacity: 0.5; stroke: #4c72b0; stroke-linejoin: miter"/>
   </g>
   <g id="patch_164">
    <path d="M 378.584056 188.638125 
L 380.565596 188.638125 
L 380.565596 186.947918 
L 378.584056 186.947918 
z
" clip-path="url(#pf738aabbeb)" style="fill: #4c72b0; fill-opacity: 0.5; stroke: #4c72b0; stroke-linejoin: miter"/>
   </g>
   <g id="patch_165">
    <path d="M 380.565596 188.638125 
L 382.547137 188.638125 
L 382.547137 187.377955 
L 380.565596 187.377955 
z
" clip-path="url(#pf738aabbeb)" style="fill: #4c72b0; fill-opacity: 0.5; stroke: #4c72b0; stroke-linejoin: miter"/>
   </g>
   <g id="patch_166">
    <path d="M 382.547127 188.638125 
L 384.528667 188.638125 
L 384.528667 187.315355 
L 382.547127 187.315355 
z
" clip-path="url(#pf738aabbeb)" style="fill: #4c72b0; fill-opacity: 0.5; stroke: #4c72b0; stroke-linejoin: miter"/>
   </g>
   <g id="patch_167">
    <path d="M 384.528672 188.638125 
L 386.510192 188.638125 
L 386.510192 187.342569 
L 384.528672 187.342569 
z
" clip-path="url(#pf738aabbeb)" style="fill: #4c72b0; fill-opacity: 0.5; stroke: #4c72b0; stroke-linejoin: miter"/>
   </g>
   <g id="patch_168">
    <path d="M 386.510197 188.638125 
L 388.491737 188.638125 
L 388.491737 187.552147 
L 386.510197 187.552147 
z
" clip-path="url(#pf738aabbeb)" style="fill: #4c72b0; fill-opacity: 0.5; stroke: #4c72b0; stroke-linejoin: miter"/>
   </g>
   <g id="patch_169">
    <path d="M 388.491728 188.638125 
L 390.473268 188.638125 
L 390.473268 187.531734 
L 388.491728 187.531734 
z
" clip-path="url(#pf738aabbeb)" style="fill: #4c72b0; fill-opacity: 0.5; stroke: #4c72b0; stroke-linejoin: miter"/>
   </g>
   <g id="patch_170">
    <path d="M 390.473268 188.638125 
L 392.454808 188.638125 
L 392.454808 187.614747 
L 390.473268 187.614747 
z
" clip-path="url(#pf738aabbeb)" style="fill: #4c72b0; fill-opacity: 0.5; stroke: #4c72b0; stroke-linejoin: miter"/>
   </g>
   <g id="patch_171">
    <path d="M 392.454808 188.638125 
L 394.436328 188.638125 
L 394.436328 187.705923 
L 392.454808 187.705923 
z
" clip-path="url(#pf738aabbeb)" style="fill: #4c72b0; fill-opacity: 0.5; stroke: #4c72b0; stroke-linejoin: miter"/>
   </g>
   <g id="patch_172">
    <path d="M 394.436328 188.638125 
L 396.417869 188.638125 
L 396.417869 187.228259 
L 394.436328 187.228259 
z
" clip-path="url(#pf738aabbeb)" style="fill: #4c72b0; fill-opacity: 0.5; stroke: #4c72b0; stroke-linejoin: miter"/>
   </g>
   <g id="patch_173">
    <path d="M 396.417874 188.638125 
L 398.399399 188.638125 
L 398.399399 186.501546 
L 396.417874 186.501546 
z
" clip-path="url(#pf738aabbeb)" style="fill: #4c72b0; fill-opacity: 0.5; stroke: #4c72b0; stroke-linejoin: miter"/>
   </g>
   <g id="patch_174">
    <path d="M 398.399399 188.638125 
L 400.380939 188.638125 
L 400.380939 186.63084 
L 398.399399 186.63084 
z
" clip-path="url(#pf738aabbeb)" style="fill: #4c72b0; fill-opacity: 0.5; stroke: #4c72b0; stroke-linejoin: miter"/>
   </g>
   <g id="patch_175">
    <path d="M 400.380939 188.638125 
L 402.362459 188.638125 
L 402.362459 176.028226 
L 400.380939 176.028226 
z
" clip-path="url(#pf738aabbeb)" style="fill: #4c72b0; fill-opacity: 0.5; stroke: #4c72b0; stroke-linejoin: miter"/>
   </g>
   <g id="patch_176">
    <path d="M 402.362469 188.638125 
L 404.34401 188.638125 
L 404.34401 177.187752 
L 402.362469 177.187752 
z
" clip-path="url(#pf738aabbeb)" style="fill: #4c72b0; fill-opacity: 0.5; stroke: #4c72b0; stroke-linejoin: miter"/>
   </g>
   <g id="patch_177">
    <path d="M 404.34402 188.638125 
L 406.32554 188.638125 
L 406.32554 177.996056 
L 404.34402 177.996056 
z
" clip-path="url(#pf738aabbeb)" style="fill: #4c72b0; fill-opacity: 0.5; stroke: #4c72b0; stroke-linejoin: miter"/>
   </g>
   <g id="patch_178">
    <path d="M 406.32554 188.638125 
L 408.30706 188.638125 
L 408.30706 173.224817 
L 406.32554 173.224817 
z
" clip-path="url(#pf738aabbeb)" style="fill: #4c72b0; fill-opacity: 0.5; stroke: #4c72b0; stroke-linejoin: miter"/>
   </g>
   <g id="patch_179">
    <path d="M 408.30707 188.638125 
L 410.28861 188.638125 
L 410.28861 174.196557 
L 408.30707 174.196557 
z
" clip-path="url(#pf738aabbeb)" style="fill: #4c72b0; fill-opacity: 0.5; stroke: #4c72b0; stroke-linejoin: miter"/>
   </g>
   <g id="patch_180">
    <path d="M 410.28862 188.638125 
L 412.270141 188.638125 
L 412.270141 175.585941 
L 410.28862 175.585941 
z
" clip-path="url(#pf738aabbeb)" style="fill: #4c72b0; fill-opacity: 0.5; stroke: #4c72b0; stroke-linejoin: miter"/>
   </g>
   <g id="patch_181">
    <path d="M 412.270141 188.638125 
L 414.251681 188.638125 
L 414.251681 176.706004 
L 412.270141 176.706004 
z
" clip-path="url(#pf738aabbeb)" style="fill: #4c72b0; fill-opacity: 0.5; stroke: #4c72b0; stroke-linejoin: miter"/>
   </g>
   <g id="patch_182">
    <path d="M 414.251681 188.638125 
L 416.233201 188.638125 
L 416.233201 179.542014 
L 414.251681 179.542014 
z
" clip-path="url(#pf738aabbeb)" style="fill: #4c72b0; fill-opacity: 0.5; stroke: #4c72b0; stroke-linejoin: miter"/>
   </g>
   <g id="patch_183">
    <path d="M 416.233221 188.638125 
L 418.214741 188.638125 
L 418.214741 181.298908 
L 416.233221 181.298908 
z
" clip-path="url(#pf738aabbeb)" style="fill: #4c72b0; fill-opacity: 0.5; stroke: #4c72b0; stroke-linejoin: miter"/>
   </g>
   <g id="patch_184">
    <path d="M 418.214741 188.638125 
L 420.196282 188.638125 
L 420.196282 182.020207 
L 418.214741 182.020207 
z
" clip-path="url(#pf738aabbeb)" style="fill: #4c72b0; fill-opacity: 0.5; stroke: #4c72b0; stroke-linejoin: miter"/>
   </g>
   <g id="patch_185">
    <path d="M 420.196282 188.638125 
L 422.177802 188.638125 
L 422.177802 182.520977 
L 420.196282 182.520977 
z
" clip-path="url(#pf738aabbeb)" style="fill: #4c72b0; fill-opacity: 0.5; stroke: #4c72b0; stroke-linejoin: miter"/>
   </g>
   <g id="patch_186">
    <path d="M 422.177822 188.638125 
L 424.159342 188.638125 
L 424.159342 183.127929 
L 422.177822 183.127929 
z
" clip-path="url(#pf738aabbeb)" style="fill: #4c72b0; fill-opacity: 0.5; stroke: #4c72b0; stroke-linejoin: miter"/>
   </g>
   <g id="patch_187">
    <path d="M 424.159342 188.638125 
L 426.140882 188.638125 
L 426.140882 183.699522 
L 424.159342 183.699522 
z
" clip-path="url(#pf738aabbeb)" style="fill: #4c72b0; fill-opacity: 0.5; stroke: #4c72b0; stroke-linejoin: miter"/>
   </g>
   <g id="patch_188">
    <path d="M 426.140882 188.638125 
L 428.122403 188.638125 
L 428.122403 184.035634 
L 426.140882 184.035634 
z
" clip-path="url(#pf738aabbeb)" style="fill: #4c72b0; fill-opacity: 0.5; stroke: #4c72b0; stroke-linejoin: miter"/>
   </g>
   <g id="patch_189">
    <path d="M 428.122413 188.638125 
L 430.103953 188.638125 
L 430.103953 185.206007 
L 428.122413 185.206007 
z
" clip-path="url(#pf738aabbeb)" style="fill: #4c72b0; fill-opacity: 0.5; stroke: #4c72b0; stroke-linejoin: miter"/>
   </g>
   <g id="patch_190">
    <path d="M 430.103963 188.638125 
L 432.085483 188.638125 
L 432.085483 187.337125 
L 430.103963 187.337125 
z
" clip-path="url(#pf738aabbeb)" style="fill: #4c72b0; fill-opacity: 0.5; stroke: #4c72b0; stroke-linejoin: miter"/>
   </g>
   <g id="patch_191">
    <path d="M 432.085483 188.638125 
L 434.067004 188.638125 
L 434.067004 187.481378 
L 432.085483 187.481378 
z
" clip-path="url(#pf738aabbeb)" style="fill: #4c72b0; fill-opacity: 0.5; stroke: #4c72b0; stroke-linejoin: miter"/>
   </g>
   <g id="patch_192">
    <path d="M 434.067014 188.638125 
L 436.048554 188.638125 
L 436.048554 187.55351 
L 434.067014 187.55351 
z
" clip-path="url(#pf738aabbeb)" style="fill: #4c72b0; fill-opacity: 0.5; stroke: #4c72b0; stroke-linejoin: miter"/>
   </g>
   <g id="patch_193">
    <path d="M 436.048564 188.638125 
L 438.030084 188.638125 
L 438.030084 187.565753 
L 436.048564 187.565753 
z
" clip-path="url(#pf738aabbeb)" style="fill: #4c72b0; fill-opacity: 0.5; stroke: #4c72b0; stroke-linejoin: miter"/>
   </g>
   <g id="patch_194">
    <path d="M 438.030084 188.638125 
L 440.011624 188.638125 
L 440.011624 187.673267 
L 438.030084 187.673267 
z
" clip-path="url(#pf738aabbeb)" style="fill: #4c72b0; fill-opacity: 0.5; stroke: #4c72b0; stroke-linejoin: miter"/>
   </g>
   <g id="patch_195">
    <path d="M 440.011624 188.638125 
L 441.993145 188.638125 
L 441.993145 187.82432 
L 440.011624 187.82432 
z
" clip-path="url(#pf738aabbeb)" style="fill: #4c72b0; fill-opacity: 0.5; stroke: #4c72b0; stroke-linejoin: miter"/>
   </g>
   <g id="patch_196">
    <path d="M 441.993165 188.638125 
L 443.974685 188.638125 
L 443.974685 187.865146 
L 441.993165 187.865146 
z
" clip-path="url(#pf738aabbeb)" style="fill: #4c72b0; fill-opacity: 0.5; stroke: #4c72b0; stroke-linejoin: miter"/>
   </g>
   <g id="patch_197">
    <path d="M 443.974685 188.638125 
L 445.956225 188.638125 
L 445.956225 187.988989 
L 443.974685 187.988989 
z
" clip-path="url(#pf738aabbeb)" style="fill: #4c72b0; fill-opacity: 0.5; stroke: #4c72b0; stroke-linejoin: miter"/>
   </g>
   <g id="patch_198">
    <path d="M 445.956225 188.638125 
L 447.937745 188.638125 
L 447.937745 187.99579 
L 445.956225 187.99579 
z
" clip-path="url(#pf738aabbeb)" style="fill: #4c72b0; fill-opacity: 0.5; stroke: #4c72b0; stroke-linejoin: miter"/>
   </g>
   <g id="patch_199">
    <path d="M 447.937765 188.638125 
L 449.919286 188.638125 
L 449.919286 188.018925 
L 447.937765 188.018925 
z
" clip-path="url(#pf738aabbeb)" style="fill: #4c72b0; fill-opacity: 0.5; stroke: #4c72b0; stroke-linejoin: miter"/>
   </g>
   <g id="patch_200">
    <path d="M 449.919286 188.638125 
L 451.900826 188.638125 
L 451.900826 188.047507 
L 449.919286 188.047507 
z
" clip-path="url(#pf738aabbeb)" style="fill: #4c72b0; fill-opacity: 0.5; stroke: #4c72b0; stroke-linejoin: miter"/>
   </g>
   <g id="patch_201">
    <path d="M 451.900826 188.638125 
L 453.882346 188.638125 
L 453.882346 188.213531 
L 451.900826 188.213531 
z
" clip-path="url(#pf738aabbeb)" style="fill: #4c72b0; fill-opacity: 0.5; stroke: #4c72b0; stroke-linejoin: miter"/>
   </g>
   <g id="patch_202">
    <path d="M 453.882356 188.638125 
L 455.863896 188.638125 
L 455.863896 188.164542 
L 453.882356 188.164542 
z
" clip-path="url(#pf738aabbeb)" style="fill: #4c72b0; fill-opacity: 0.5; stroke: #4c72b0; stroke-linejoin: miter"/>
   </g>
   <g id="patch_203">
    <path d="M 455.863906 188.638125 
L 457.845427 188.638125 
L 457.845427 188.204005 
L 455.863906 188.204005 
z
" clip-path="url(#pf738aabbeb)" style="fill: #4c72b0; fill-opacity: 0.5; stroke: #4c72b0; stroke-linejoin: miter"/>
   </g>
   <g id="patch_204">
    <path d="M 457.845427 188.638125 
L 459.826947 188.638125 
L 459.826947 188.293823 
L 457.845427 188.293823 
z
" clip-path="url(#pf738aabbeb)" style="fill: #4c72b0; fill-opacity: 0.5; stroke: #4c72b0; stroke-linejoin: miter"/>
   </g>
   <g id="patch_205">
    <path d="M 459.826957 188.638125 
L 461.808497 188.638125 
L 461.808497 188.310155 
L 459.826957 188.310155 
z
" clip-path="url(#pf738aabbeb)" style="fill: #4c72b0; fill-opacity: 0.5; stroke: #4c72b0; stroke-linejoin: miter"/>
   </g>
   <g id="patch_206">
    <path d="M 461.808507 188.638125 
L 463.790027 188.638125 
L 463.790027 188.329206 
L 461.808507 188.329206 
z
" clip-path="url(#pf738aabbeb)" style="fill: #4c72b0; fill-opacity: 0.5; stroke: #4c72b0; stroke-linejoin: miter"/>
   </g>
   <g id="patch_207">
    <path d="M 463.790027 188.638125 
L 465.771548 188.638125 
L 465.771548 188.379558 
L 463.790027 188.379558 
z
" clip-path="url(#pf738aabbeb)" style="fill: #4c72b0; fill-opacity: 0.5; stroke: #4c72b0; stroke-linejoin: miter"/>
   </g>
   <g id="patch_208">
    <path d="M 465.771558 188.638125 
L 467.753098 188.638125 
L 467.753098 188.39589 
L 465.771558 188.39589 
z
" clip-path="url(#pf738aabbeb)" style="fill: #4c72b0; fill-opacity: 0.5; stroke: #4c72b0; stroke-linejoin: miter"/>
   </g>
   <g id="patch_209">
    <path d="M 467.753108 188.638125 
L 469.734628 188.638125 
L 469.734628 188.42855 
L 467.753108 188.42855 
z
" clip-path="url(#pf738aabbeb)" style="fill: #4c72b0; fill-opacity: 0.5; stroke: #4c72b0; stroke-linejoin: miter"/>
   </g>
   <g id="patch_210">
    <path d="M 469.734628 188.638125 
L 471.716169 188.638125 
L 471.716169 188.429912 
L 469.734628 188.429912 
z
" clip-path="url(#pf738aabbeb)" style="fill: #4c72b0; fill-opacity: 0.5; stroke: #4c72b0; stroke-linejoin: miter"/>
   </g>
   <g id="patch_211">
    <path d="M 471.716169 188.638125 
L 473.697689 188.638125 
L 473.697689 188.446241 
L 471.716169 188.446241 
z
" clip-path="url(#pf738aabbeb)" style="fill: #4c72b0; fill-opacity: 0.5; stroke: #4c72b0; stroke-linejoin: miter"/>
   </g>
   <g id="patch_212">
    <path d="M 473.697709 188.638125 
L 475.679229 188.638125 
L 475.679229 188.462572 
L 473.697709 188.462572 
z
" clip-path="url(#pf738aabbeb)" style="fill: #4c72b0; fill-opacity: 0.5; stroke: #4c72b0; stroke-linejoin: miter"/>
   </g>
   <g id="patch_213">
    <path d="M 475.679229 188.638125 
L 477.660769 188.638125 
L 477.660769 188.496594 
L 475.679229 188.496594 
z
" clip-path="url(#pf738aabbeb)" style="fill: #4c72b0; fill-opacity: 0.5; stroke: #4c72b0; stroke-linejoin: miter"/>
   </g>
   <g id="patch_214">
    <path d="M 477.660769 188.638125 
L 479.64229 188.638125 
L 479.64229 188.484346 
L 477.660769 188.484346 
z
" clip-path="url(#pf738aabbeb)" style="fill: #4c72b0; fill-opacity: 0.5; stroke: #4c72b0; stroke-linejoin: miter"/>
   </g>
   <g id="patch_215">
    <path d="M 479.64231 188.638125 
L 481.62383 188.638125 
L 481.62383 188.489789 
L 479.64231 188.489789 
z
" clip-path="url(#pf738aabbeb)" style="fill: #4c72b0; fill-opacity: 0.5; stroke: #4c72b0; stroke-linejoin: miter"/>
   </g>
   <g id="patch_216">
    <path d="M 481.62381 188.638125 
L 483.60535 188.638125 
L 483.60535 188.507481 
L 481.62381 188.507481 
z
" clip-path="url(#pf738aabbeb)" style="fill: #4c72b0; fill-opacity: 0.5; stroke: #4c72b0; stroke-linejoin: miter"/>
   </g>
   <g id="patch_217">
    <path d="M 483.60537 188.638125 
L 485.58691 188.638125 
L 485.58691 188.544225 
L 483.60537 188.544225 
z
" clip-path="url(#pf738aabbeb)" style="fill: #4c72b0; fill-opacity: 0.5; stroke: #4c72b0; stroke-linejoin: miter"/>
   </g>
   <g id="patch_218">
    <path d="M 485.58691 188.638125 
L 487.568431 188.638125 
L 487.568431 188.548307 
L 485.58691 188.548307 
z
" clip-path="url(#pf738aabbeb)" style="fill: #4c72b0; fill-opacity: 0.5; stroke: #4c72b0; stroke-linejoin: miter"/>
   </g>
   <g id="patch_219">
    <path d="M 487.568411 188.638125 
L 489.549951 188.638125 
L 489.549951 188.55239 
L 487.568411 188.55239 
z
" clip-path="url(#pf738aabbeb)" style="fill: #4c72b0; fill-opacity: 0.5; stroke: #4c72b0; stroke-linejoin: miter"/>
   </g>
   <g id="patch_220">
    <path d="M 489.549971 188.638125 
L 491.531511 188.638125 
L 491.531511 188.56736 
L 489.549971 188.56736 
z
" clip-path="url(#pf738aabbeb)" style="fill: #4c72b0; fill-opacity: 0.5; stroke: #4c72b0; stroke-linejoin: miter"/>
   </g>
   <g id="patch_221">
    <path d="M 491.531511 188.638125 
L 493.513031 188.638125 
L 493.513031 188.565998 
L 491.531511 188.565998 
z
" clip-path="url(#pf738aabbeb)" style="fill: #4c72b0; fill-opacity: 0.5; stroke: #4c72b0; stroke-linejoin: miter"/>
   </g>
   <g id="patch_222">
    <path d="M 493.513012 188.638125 
L 495.494552 188.638125 
L 495.494552 188.572803 
L 493.513012 188.572803 
z
" clip-path="url(#pf738aabbeb)" style="fill: #4c72b0; fill-opacity: 0.5; stroke: #4c72b0; stroke-linejoin: miter"/>
   </g>
   <g id="patch_223">
    <path d="M 495.494572 188.638125 
L 497.476112 188.638125 
L 497.476112 188.578247 
L 495.494572 188.578247 
z
" clip-path="url(#pf738aabbeb)" style="fill: #4c72b0; fill-opacity: 0.5; stroke: #4c72b0; stroke-linejoin: miter"/>
   </g>
   <g id="patch_224">
    <path d="M 497.476112 188.638125 
L 499.457632 188.638125 
L 499.457632 188.591855 
L 497.476112 188.591855 
z
" clip-path="url(#pf738aabbeb)" style="fill: #4c72b0; fill-opacity: 0.5; stroke: #4c72b0; stroke-linejoin: miter"/>
   </g>
   <g id="patch_225">
    <path d="M 499.457612 188.638125 
L 501.439153 188.638125 
L 501.439153 188.601381 
L 499.457612 188.601381 
z
" clip-path="url(#pf738aabbeb)" style="fill: #4c72b0; fill-opacity: 0.5; stroke: #4c72b0; stroke-linejoin: miter"/>
   </g>
   <g id="patch_226">
    <path d="M 501.439172 188.638125 
L 503.420713 188.638125 
L 503.420713 188.593216 
L 501.439172 188.593216 
z
" clip-path="url(#pf738aabbeb)" style="fill: #4c72b0; fill-opacity: 0.5; stroke: #4c72b0; stroke-linejoin: miter"/>
   </g>
   <g id="patch_227">
    <path d="M 503.420693 188.638125 
L 505.402233 188.638125 
L 505.402233 188.604103 
L 503.420693 188.604103 
z
" clip-path="url(#pf738aabbeb)" style="fill: #4c72b0; fill-opacity: 0.5; stroke: #4c72b0; stroke-linejoin: miter"/>
   </g>
   <g id="patch_228">
    <path d="M 505.402253 188.638125 
L 507.383773 188.638125 
L 507.383773 188.606825 
L 505.402253 188.606825 
z
" clip-path="url(#pf738aabbeb)" style="fill: #4c72b0; fill-opacity: 0.5; stroke: #4c72b0; stroke-linejoin: miter"/>
   </g>
   <g id="patch_229">
    <path d="M 507.383773 188.638125 
L 509.365314 188.638125 
L 509.365314 188.601381 
L 507.383773 188.601381 
z
" clip-path="url(#pf738aabbeb)" style="fill: #4c72b0; fill-opacity: 0.5; stroke: #4c72b0; stroke-linejoin: miter"/>
   </g>
   <g id="patch_230">
    <path d="M 509.365294 188.638125 
L 511.346834 188.638125 
L 511.346834 188.608186 
L 509.365294 188.608186 
z
" clip-path="url(#pf738aabbeb)" style="fill: #4c72b0; fill-opacity: 0.5; stroke: #4c72b0; stroke-linejoin: miter"/>
   </g>
   <g id="patch_231">
    <path d="M 511.346854 188.638125 
L 513.328374 188.638125 
L 513.328374 188.616351 
L 511.346854 188.616351 
z
" clip-path="url(#pf738aabbeb)" style="fill: #4c72b0; fill-opacity: 0.5; stroke: #4c72b0; stroke-linejoin: miter"/>
   </g>
   <g id="patch_232">
    <path d="M 513.328374 188.638125 
L 515.309914 188.638125 
L 515.309914 188.606825 
L 513.328374 188.606825 
z
" clip-path="url(#pf738aabbeb)" style="fill: #4c72b0; fill-opacity: 0.5; stroke: #4c72b0; stroke-linejoin: miter"/>
   </g>
   <g id="patch_233">
    <path d="M 515.309894 188.638125 
L 517.291435 188.638125 
L 517.291435 188.620434 
L 515.309894 188.620434 
z
" clip-path="url(#pf738aabbeb)" style="fill: #4c72b0; fill-opacity: 0.5; stroke: #4c72b0; stroke-linejoin: miter"/>
   </g>
   <g id="patch_234">
    <path d="M 517.291455 188.638125 
L 519.272975 188.638125 
L 519.272975 188.621794 
L 517.291455 188.621794 
z
" clip-path="url(#pf738aabbeb)" style="fill: #4c72b0; fill-opacity: 0.5; stroke: #4c72b0; stroke-linejoin: miter"/>
   </g>
   <g id="patch_235">
    <path d="M 519.272975 188.638125 
L 521.254515 188.638125 
L 521.254515 188.623155 
L 519.272975 188.623155 
z
" clip-path="url(#pf738aabbeb)" style="fill: #4c72b0; fill-opacity: 0.5; stroke: #4c72b0; stroke-linejoin: miter"/>
   </g>
   <g id="patch_236">
    <path d="M 521.254495 188.638125 
L 523.236035 188.638125 
L 523.236035 188.631321 
L 521.254495 188.631321 
z
" clip-path="url(#pf738aabbeb)" style="fill: #4c72b0; fill-opacity: 0.5; stroke: #4c72b0; stroke-linejoin: miter"/>
   </g>
   <g id="patch_237">
    <path d="M 523.236055 188.638125 
L 525.217576 188.638125 
L 525.217576 188.624516 
L 523.236055 188.624516 
z
" clip-path="url(#pf738aabbeb)" style="fill: #4c72b0; fill-opacity: 0.5; stroke: #4c72b0; stroke-linejoin: miter"/>
   </g>
   <g id="patch_238">
    <path d="M 525.217576 188.638125 
L 527.199116 188.638125 
L 527.199116 188.628599 
L 525.217576 188.628599 
z
" clip-path="url(#pf738aabbeb)" style="fill: #4c72b0; fill-opacity: 0.5; stroke: #4c72b0; stroke-linejoin: miter"/>
   </g>
   <g id="patch_239">
    <path d="M 527.199096 188.638125 
L 529.180636 188.638125 
L 529.180636 188.621795 
L 527.199096 188.621795 
z
" clip-path="url(#pf738aabbeb)" style="fill: #4c72b0; fill-opacity: 0.5; stroke: #4c72b0; stroke-linejoin: miter"/>
   </g>
   <g id="patch_240">
    <path d="M 529.180656 188.638125 
L 531.162196 188.638125 
L 531.162196 188.624516 
L 529.180656 188.624516 
z
" clip-path="url(#pf738aabbeb)" style="fill: #4c72b0; fill-opacity: 0.5; stroke: #4c72b0; stroke-linejoin: miter"/>
   </g>
   <g id="patch_241">
    <path d="M 531.162196 188.638125 
L 533.143717 188.638125 
L 533.143717 188.635403 
L 531.162196 188.635403 
z
" clip-path="url(#pf738aabbeb)" style="fill: #4c72b0; fill-opacity: 0.5; stroke: #4c72b0; stroke-linejoin: miter"/>
   </g>
   <g id="patch_242">
    <path d="M 533.143697 188.638125 
L 535.125237 188.638125 
L 535.125237 188.627238 
L 533.143697 188.627238 
z
" clip-path="url(#pf738aabbeb)" style="fill: #4c72b0; fill-opacity: 0.5; stroke: #4c72b0; stroke-linejoin: miter"/>
   </g>
   <g id="patch_243">
    <path d="M 535.125257 188.638125 
L 537.106797 188.638125 
L 537.106797 188.636764 
L 535.125257 188.636764 
z
" clip-path="url(#pf738aabbeb)" style="fill: #4c72b0; fill-opacity: 0.5; stroke: #4c72b0; stroke-linejoin: miter"/>
   </g>
   <g id="patch_244">
    <path d="M 537.106797 188.638125 
L 539.088317 188.638125 
L 539.088317 188.634042 
L 537.106797 188.634042 
z
" clip-path="url(#pf738aabbeb)" style="fill: #4c72b0; fill-opacity: 0.5; stroke: #4c72b0; stroke-linejoin: miter"/>
   </g>
   <g id="patch_245">
    <path d="M 539.088298 188.638125 
L 541.069838 188.638125 
L 541.069838 188.631321 
L 539.088298 188.631321 
z
" clip-path="url(#pf738aabbeb)" style="fill: #4c72b0; fill-opacity: 0.5; stroke: #4c72b0; stroke-linejoin: miter"/>
   </g>
   <g id="patch_246">
    <path d="M 541.069858 188.638125 
L 543.051398 188.638125 
L 543.051398 188.628599 
L 541.069858 188.628599 
z
" clip-path="url(#pf738aabbeb)" style="fill: #4c72b0; fill-opacity: 0.5; stroke: #4c72b0; stroke-linejoin: miter"/>
   </g>
   <g id="patch_247">
    <path d="M 543.051398 188.638125 
L 545.032918 188.638125 
L 545.032918 188.62996 
L 543.051398 188.62996 
z
" clip-path="url(#pf738aabbeb)" style="fill: #4c72b0; fill-opacity: 0.5; stroke: #4c72b0; stroke-linejoin: miter"/>
   </g>
   <g id="patch_248">
    <path d="M 545.032898 188.638125 
L 547.014439 188.638125 
L 547.014439 188.634042 
L 545.032898 188.634042 
z
" clip-path="url(#pf738aabbeb)" style="fill: #4c72b0; fill-opacity: 0.5; stroke: #4c72b0; stroke-linejoin: miter"/>
   </g>
   <g id="patch_249">
    <path d="M 547.014459 188.638125 
L 548.995999 188.638125 
L 548.995999 188.632682 
L 547.014459 188.632682 
z
" clip-path="url(#pf738aabbeb)" style="fill: #4c72b0; fill-opacity: 0.5; stroke: #4c72b0; stroke-linejoin: miter"/>
   </g>
   <g id="patch_250">
    <path d="M 548.995999 188.638125 
L 550.977519 188.638125 
L 550.977519 188.638125 
L 548.995999 188.638125 
z
" clip-path="url(#pf738aabbeb)" style="fill: #4c72b0; fill-opacity: 0.5; stroke: #4c72b0; stroke-linejoin: miter"/>
   </g>
   <g id="patch_251">
    <path d="M 550.977499 188.638125 
L 552.959039 188.638125 
L 552.959039 188.636764 
L 550.977499 188.636764 
z
" clip-path="url(#pf738aabbeb)" style="fill: #4c72b0; fill-opacity: 0.5; stroke: #4c72b0; stroke-linejoin: miter"/>
   </g>
   <g id="patch_252">
    <path d="M 552.959059 188.638125 
L 554.9406 188.638125 
L 554.9406 188.632682 
L 552.959059 188.632682 
z
" clip-path="url(#pf738aabbeb)" style="fill: #4c72b0; fill-opacity: 0.5; stroke: #4c72b0; stroke-linejoin: miter"/>
   </g>
   <g id="patch_253">
    <path d="M 554.94058 188.638125 
L 556.92212 188.638125 
L 556.92212 188.634042 
L 554.94058 188.634042 
z
" clip-path="url(#pf738aabbeb)" style="fill: #4c72b0; fill-opacity: 0.5; stroke: #4c72b0; stroke-linejoin: miter"/>
   </g>
   <g id="patch_254">
    <path d="M 556.92214 188.638125 
L 558.90366 188.638125 
L 558.90366 188.638125 
L 556.92214 188.638125 
z
" clip-path="url(#pf738aabbeb)" style="fill: #4c72b0; fill-opacity: 0.5; stroke: #4c72b0; stroke-linejoin: miter"/>
   </g>
   <g id="patch_255">
    <path d="M 558.90366 188.638125 
L 560.8852 188.638125 
L 560.8852 188.635403 
L 558.90366 188.635403 
z
" clip-path="url(#pf738aabbeb)" style="fill: #4c72b0; fill-opacity: 0.5; stroke: #4c72b0; stroke-linejoin: miter"/>
   </g>
   <g id="patch_256">
    <path d="M 560.88518 188.638125 
L 562.866721 188.638125 
L 562.866721 188.632682 
L 560.88518 188.632682 
z
" clip-path="url(#pf738aabbeb)" style="fill: #4c72b0; fill-opacity: 0.5; stroke: #4c72b0; stroke-linejoin: miter"/>
   </g>
   <g id="patch_257">
    <path d="M 562.866741 188.638125 
L 564.848261 188.638125 
L 564.848261 188.636764 
L 562.866741 188.636764 
z
" clip-path="url(#pf738aabbeb)" style="fill: #4c72b0; fill-opacity: 0.5; stroke: #4c72b0; stroke-linejoin: miter"/>
   </g>
   <g id="patch_258">
    <path d="M 564.848261 188.638125 
L 566.829801 188.638125 
L 566.829801 188.635403 
L 564.848261 188.635403 
z
" clip-path="url(#pf738aabbeb)" style="fill: #4c72b0; fill-opacity: 0.5; stroke: #4c72b0; stroke-linejoin: miter"/>
   </g>
   <g id="patch_259">
    <path d="M 34.193438 188.638125 
L 34.193438 22.318125 
" style="fill: none; stroke: #ffffff; stroke-width: 1.25; stroke-linejoin: miter; stroke-linecap: square"/>
   </g>
   <g id="patch_260">
    <path d="M 592.193437 188.638125 
L 592.193437 22.318125 
" style="fill: none; stroke: #ffffff; stroke-width: 1.25; stroke-linejoin: miter; stroke-linecap: square"/>
   </g>
   <g id="patch_261">
    <path d="M 34.193437 188.638125 
L 592.193438 188.638125 
" style="fill: none; stroke: #ffffff; stroke-width: 1.25; stroke-linejoin: miter; stroke-linecap: square"/>
   </g>
   <g id="patch_262">
    <path d="M 34.193437 22.318125 
L 592.193438 22.318125 
" style="fill: none; stroke: #ffffff; stroke-width: 1.25; stroke-linejoin: miter; stroke-linecap: square"/>
   </g>
   <g id="text_11">
    <!-- Dequantization -->
    <g style="fill: #262626" transform="translate(267.452812 16.318125)scale(0.12 -0.12)">
     <defs>
      <path id="DejaVuSans-44" d="M 1259 4147 
L 1259 519 
L 2022 519 
Q 2988 519 3436 956 
Q 3884 1394 3884 2338 
Q 3884 3275 3436 3711 
Q 2988 4147 2022 4147 
L 1259 4147 
z
M 628 4666 
L 1925 4666 
Q 3281 4666 3915 4102 
Q 4550 3538 4550 2338 
Q 4550 1131 3912 565 
Q 3275 0 1925 0 
L 628 0 
L 628 4666 
z
" transform="scale(0.015625)"/>
      <path id="DejaVuSans-65" d="M 3597 1894 
L 3597 1613 
L 953 1613 
Q 991 1019 1311 708 
Q 1631 397 2203 397 
Q 2534 397 2845 478 
Q 3156 559 3463 722 
L 3463 178 
Q 3153 47 2828 -22 
Q 2503 -91 2169 -91 
Q 1331 -91 842 396 
Q 353 884 353 1716 
Q 353 2575 817 3079 
Q 1281 3584 2069 3584 
Q 2775 3584 3186 3129 
Q 3597 2675 3597 1894 
z
M 3022 2063 
Q 3016 2534 2758 2815 
Q 2500 3097 2075 3097 
Q 1594 3097 1305 2825 
Q 1016 2553 972 2059 
L 3022 2063 
z
" transform="scale(0.015625)"/>
      <path id="DejaVuSans-71" d="M 947 1747 
Q 947 1113 1208 752 
Q 1469 391 1925 391 
Q 2381 391 2643 752 
Q 2906 1113 2906 1747 
Q 2906 2381 2643 2742 
Q 2381 3103 1925 3103 
Q 1469 3103 1208 2742 
Q 947 2381 947 1747 
z
M 2906 525 
Q 2725 213 2448 61 
Q 2172 -91 1784 -91 
Q 1150 -91 751 415 
Q 353 922 353 1747 
Q 353 2572 751 3078 
Q 1150 3584 1784 3584 
Q 2172 3584 2448 3432 
Q 2725 3281 2906 2969 
L 2906 3500 
L 3481 3500 
L 3481 -1331 
L 2906 -1331 
L 2906 525 
z
" transform="scale(0.015625)"/>
      <path id="DejaVuSans-75" d="M 544 1381 
L 544 3500 
L 1119 3500 
L 1119 1403 
Q 1119 906 1312 657 
Q 1506 409 1894 409 
Q 2359 409 2629 706 
Q 2900 1003 2900 1516 
L 2900 3500 
L 3475 3500 
L 3475 0 
L 2900 0 
L 2900 538 
Q 2691 219 2414 64 
Q 2138 -91 1772 -91 
Q 1169 -91 856 284 
Q 544 659 544 1381 
z
M 1991 3584 
L 1991 3584 
z
" transform="scale(0.015625)"/>
      <path id="DejaVuSans-61" d="M 2194 1759 
Q 1497 1759 1228 1600 
Q 959 1441 959 1056 
Q 959 750 1161 570 
Q 1363 391 1709 391 
Q 2188 391 2477 730 
Q 2766 1069 2766 1631 
L 2766 1759 
L 2194 1759 
z
M 3341 1997 
L 3341 0 
L 2766 0 
L 2766 531 
Q 2569 213 2275 61 
Q 1981 -91 1556 -91 
Q 1019 -91 701 211 
Q 384 513 384 1019 
Q 384 1609 779 1909 
Q 1175 2209 1959 2209 
L 2766 2209 
L 2766 2266 
Q 2766 2663 2505 2880 
Q 2244 3097 1772 3097 
Q 1472 3097 1187 3025 
Q 903 2953 641 2809 
L 641 3341 
Q 956 3463 1253 3523 
Q 1550 3584 1831 3584 
Q 2591 3584 2966 3190 
Q 3341 2797 3341 1997 
z
" transform="scale(0.015625)"/>
      <path id="DejaVuSans-6e" d="M 3513 2113 
L 3513 0 
L 2938 0 
L 2938 2094 
Q 2938 2591 2744 2837 
Q 2550 3084 2163 3084 
Q 1697 3084 1428 2787 
Q 1159 2491 1159 1978 
L 1159 0 
L 581 0 
L 581 3500 
L 1159 3500 
L 1159 2956 
Q 1366 3272 1645 3428 
Q 1925 3584 2291 3584 
Q 2894 3584 3203 3211 
Q 3513 2838 3513 2113 
z
" transform="scale(0.015625)"/>
      <path id="DejaVuSans-74" d="M 1172 4494 
L 1172 3500 
L 2356 3500 
L 2356 3053 
L 1172 3053 
L 1172 1153 
Q 1172 725 1289 603 
Q 1406 481 1766 481 
L 2356 481 
L 2356 0 
L 1766 0 
Q 1100 0 847 248 
Q 594 497 594 1153 
L 594 3053 
L 172 3053 
L 172 3500 
L 594 3500 
L 594 4494 
L 1172 4494 
z
" transform="scale(0.015625)"/>
      <path id="DejaVuSans-69" d="M 603 3500 
L 1178 3500 
L 1178 0 
L 603 0 
L 603 3500 
z
M 603 4863 
L 1178 4863 
L 1178 4134 
L 603 4134 
L 603 4863 
z
" transform="scale(0.015625)"/>
      <path id="DejaVuSans-7a" d="M 353 3500 
L 3084 3500 
L 3084 2975 
L 922 459 
L 3084 459 
L 3084 0 
L 275 0 
L 275 525 
L 2438 3041 
L 353 3041 
L 353 3500 
z
" transform="scale(0.015625)"/>
      <path id="DejaVuSans-6f" d="M 1959 3097 
Q 1497 3097 1228 2736 
Q 959 2375 959 1747 
Q 959 1119 1226 758 
Q 1494 397 1959 397 
Q 2419 397 2687 759 
Q 2956 1122 2956 1747 
Q 2956 2369 2687 2733 
Q 2419 3097 1959 3097 
z
M 1959 3584 
Q 2709 3584 3137 3096 
Q 3566 2609 3566 1747 
Q 3566 888 3137 398 
Q 2709 -91 1959 -91 
Q 1206 -91 779 398 
Q 353 888 353 1747 
Q 353 2609 779 3096 
Q 1206 3584 1959 3584 
z
" transform="scale(0.015625)"/>
     </defs>
     <use xlink:href="#DejaVuSans-44"/>
     <use xlink:href="#DejaVuSans-65" x="77.001953"/>
     <use xlink:href="#DejaVuSans-71" x="138.525391"/>
     <use xlink:href="#DejaVuSans-75" x="202.001953"/>
     <use xlink:href="#DejaVuSans-61" x="265.380859"/>
     <use xlink:href="#DejaVuSans-6e" x="326.660156"/>
     <use xlink:href="#DejaVuSans-74" x="390.039062"/>
     <use xlink:href="#DejaVuSans-69" x="429.248047"/>
     <use xlink:href="#DejaVuSans-7a" x="457.03125"/>
     <use xlink:href="#DejaVuSans-61" x="509.521484"/>
     <use xlink:href="#DejaVuSans-74" x="570.800781"/>
     <use xlink:href="#DejaVuSans-69" x="610.009766"/>
     <use xlink:href="#DejaVuSans-6f" x="637.792969"/>
     <use xlink:href="#DejaVuSans-6e" x="698.974609"/>
    </g>
   </g>
  </g>
 </g>
 <defs>
  <clipPath id="pf738aabbeb">
   <rect x="34.193438" y="22.318125" width="558" height="166.32"/>
  </clipPath>
 </defs>
</svg>
