<?xml version="1.0" encoding="utf-8" standalone="no"?>
<!DOCTYPE svg PUBLIC "-//W3C//DTD SVG 1.1//EN"
  "http://www.w3.org/Graphics/SVG/1.1/DTD/svg11.dtd">
<svg xmlns:xlink="http://www.w3.org/1999/xlink" width="393.732813pt" height="226.194375pt" viewBox="0 0 393.732813 226.194375" xmlns="http://www.w3.org/2000/svg" version="1.1">
 <metadata>
  <rdf:RDF xmlns:dc="http://purl.org/dc/elements/1.1/" xmlns:cc="http://creativecommons.org/ns#" xmlns:rdf="http://www.w3.org/1999/02/22-rdf-syntax-ns#">
   <cc:Work>
    <dc:type rdf:resource="http://purl.org/dc/dcmitype/StillImage"/>
    <dc:date>2022-05-12T14:19:09.492340</dc:date>
    <dc:format>image/svg+xml</dc:format>
    <dc:creator>
     <cc:Agent>
      <dc:title>Matplotlib v3.5.2, https://matplotlib.org/</dc:title>
     </cc:Agent>
    </dc:creator>
   </cc:Work>
  </rdf:RDF>
 </metadata>
 <defs>
  <style type="text/css">*{stroke-linejoin: round; stroke-linecap: butt}</style>
 </defs>
 <g id="figure_1">
  <g id="patch_1">
   <path d="M 0 226.194375 
L 393.732813 226.194375 
L 393.732813 0 
L 0 0 
z
" style="fill: #ffffff"/>
  </g>
  <g id="axes_1">
   <g id="patch_2">
    <path d="M 43.78125 188.638125 
L 378.58125 188.638125 
L 378.58125 22.318125 
L 43.78125 22.318125 
z
" style="fill: #ffffff"/>
   </g>
   <g id="matplotlib.axis_1">
    <g id="xtick_1">
     <g id="text_1">
      <!-- -4.0 -->
      <g style="fill: #262626" transform="translate(34.025781 203.236563)scale(0.1 -0.1)">
       <defs>
        <path id="DejaVuSans-2d" d="M 313 2009 
L 1997 2009 
L 1997 1497 
L 313 1497 
L 313 2009 
z
" transform="scale(0.015625)"/>
        <path id="DejaVuSans-34" d="M 2419 4116 
L 825 1625 
L 2419 1625 
L 2419 4116 
z
M 2253 4666 
L 3047 4666 
L 3047 1625 
L 3713 1625 
L 3713 1100 
L 3047 1100 
L 3047 0 
L 2419 0 
L 2419 1100 
L 313 1100 
L 313 1709 
L 2253 4666 
z
" transform="scale(0.015625)"/>
        <path id="DejaVuSans-2e" d="M 684 794 
L 1344 794 
L 1344 0 
L 684 0 
L 684 794 
z
" transform="scale(0.015625)"/>
        <path id="DejaVuSans-30" d="M 2034 4250 
Q 1547 4250 1301 3770 
Q 1056 3291 1056 2328 
Q 1056 1369 1301 889 
Q 1547 409 2034 409 
Q 2525 409 2770 889 
Q 3016 1369 3016 2328 
Q 3016 3291 2770 3770 
Q 2525 4250 2034 4250 
z
M 2034 4750 
Q 2819 4750 3233 4129 
Q 3647 3509 3647 2328 
Q 3647 1150 3233 529 
Q 2819 -91 2034 -91 
Q 1250 -91 836 529 
Q 422 1150 422 2328 
Q 422 3509 836 4129 
Q 1250 4750 2034 4750 
z
" transform="scale(0.015625)"/>
       </defs>
       <use xlink:href="#DejaVuSans-2d"/>
       <use xlink:href="#DejaVuSans-34" x="36.083984"/>
       <use xlink:href="#DejaVuSans-2e" x="99.707031"/>
       <use xlink:href="#DejaVuSans-30" x="131.494141"/>
      </g>
     </g>
    </g>
    <g id="xtick_2">
     <g id="text_2">
      <!-- -1.9 -->
      <g style="fill: #262626" transform="translate(120.344677 203.236563)scale(0.1 -0.1)">
       <defs>
        <path id="DejaVuSans-31" d="M 794 531 
L 1825 531 
L 1825 4091 
L 703 3866 
L 703 4441 
L 1819 4666 
L 2450 4666 
L 2450 531 
L 3481 531 
L 3481 0 
L 794 0 
L 794 531 
z
" transform="scale(0.015625)"/>
        <path id="DejaVuSans-39" d="M 703 97 
L 703 672 
Q 941 559 1184 500 
Q 1428 441 1663 441 
Q 2288 441 2617 861 
Q 2947 1281 2994 2138 
Q 2813 1869 2534 1725 
Q 2256 1581 1919 1581 
Q 1219 1581 811 2004 
Q 403 2428 403 3163 
Q 403 3881 828 4315 
Q 1253 4750 1959 4750 
Q 2769 4750 3195 4129 
Q 3622 3509 3622 2328 
Q 3622 1225 3098 567 
Q 2575 -91 1691 -91 
Q 1453 -91 1209 -44 
Q 966 3 703 97 
z
M 1959 2075 
Q 2384 2075 2632 2365 
Q 2881 2656 2881 3163 
Q 2881 3666 2632 3958 
Q 2384 4250 1959 4250 
Q 1534 4250 1286 3958 
Q 1038 3666 1038 3163 
Q 1038 2656 1286 2365 
Q 1534 2075 1959 2075 
z
" transform="scale(0.015625)"/>
       </defs>
       <use xlink:href="#DejaVuSans-2d"/>
       <use xlink:href="#DejaVuSans-31" x="36.083984"/>
       <use xlink:href="#DejaVuSans-2e" x="99.707031"/>
       <use xlink:href="#DejaVuSans-39" x="131.494141"/>
      </g>
     </g>
    </g>
    <g id="xtick_3">
     <g id="text_3">
      <!-- -1.1 -->
      <g style="fill: #262626" transform="translate(155.9617 203.236563)scale(0.1 -0.1)">
       <use xlink:href="#DejaVuSans-2d"/>
       <use xlink:href="#DejaVuSans-31" x="36.083984"/>
       <use xlink:href="#DejaVuSans-2e" x="99.707031"/>
       <use xlink:href="#DejaVuSans-31" x="131.494141"/>
      </g>
     </g>
    </g>
    <g id="xtick_4">
     <g id="text_4">
      <!-- -0.5 -->
      <g style="fill: #262626" transform="translate(180.265081 203.236563)scale(0.1 -0.1)">
       <defs>
        <path id="DejaVuSans-35" d="M 691 4666 
L 3169 4666 
L 3169 4134 
L 1269 4134 
L 1269 2991 
Q 1406 3038 1543 3061 
Q 1681 3084 1819 3084 
Q 2600 3084 3056 2656 
Q 3513 2228 3513 1497 
Q 3513 744 3044 326 
Q 2575 -91 1722 -91 
Q 1428 -91 1123 -41 
Q 819 9 494 109 
L 494 744 
Q 775 591 1075 516 
Q 1375 441 1709 441 
Q 2250 441 2565 725 
Q 2881 1009 2881 1497 
Q 2881 1984 2565 2268 
Q 2250 2553 1709 2553 
Q 1456 2553 1204 2497 
Q 953 2441 691 2322 
L 691 4666 
z
" transform="scale(0.015625)"/>
       </defs>
       <use xlink:href="#DejaVuSans-2d"/>
       <use xlink:href="#DejaVuSans-30" x="36.083984"/>
       <use xlink:href="#DejaVuSans-2e" x="99.707031"/>
       <use xlink:href="#DejaVuSans-35" x="131.494141"/>
      </g>
     </g>
    </g>
    <g id="xtick_5">
     <g id="text_5">
      <!-- 0.0 -->
      <g style="fill: #262626" transform="translate(203.439199 203.236563)scale(0.1 -0.1)">
       <use xlink:href="#DejaVuSans-30"/>
       <use xlink:href="#DejaVuSans-2e" x="63.623047"/>
       <use xlink:href="#DejaVuSans-30" x="95.410156"/>
      </g>
     </g>
    </g>
    <g id="xtick_6">
     <g id="text_6">
      <!-- 0.5 -->
      <g style="fill: #262626" transform="translate(225.228435 203.236563)scale(0.1 -0.1)">
       <use xlink:href="#DejaVuSans-30"/>
       <use xlink:href="#DejaVuSans-2e" x="63.623047"/>
       <use xlink:href="#DejaVuSans-35" x="95.410156"/>
      </g>
     </g>
    </g>
    <g id="xtick_7">
     <g id="text_7">
      <!-- 1.1 -->
      <g style="fill: #262626" transform="translate(249.531811 203.236563)scale(0.1 -0.1)">
       <use xlink:href="#DejaVuSans-31"/>
       <use xlink:href="#DejaVuSans-2e" x="63.623047"/>
       <use xlink:href="#DejaVuSans-31" x="95.410156"/>
      </g>
     </g>
    </g>
    <g id="xtick_8">
     <g id="text_8">
      <!-- 1.9 -->
      <g style="fill: #262626" transform="translate(285.148833 203.236563)scale(0.1 -0.1)">
       <use xlink:href="#DejaVuSans-31"/>
       <use xlink:href="#DejaVuSans-2e" x="63.623047"/>
       <use xlink:href="#DejaVuSans-39" x="95.410156"/>
      </g>
     </g>
    </g>
    <g id="xtick_9">
     <g id="text_9">
      <!-- 4.0 -->
      <g style="fill: #262626" transform="translate(370.629688 203.236563)scale(0.1 -0.1)">
       <use xlink:href="#DejaVuSans-34"/>
       <use xlink:href="#DejaVuSans-2e" x="63.623047"/>
       <use xlink:href="#DejaVuSans-30" x="95.410156"/>
      </g>
     </g>
    </g>
    <g id="text_10">
     <!-- z -->
     <g style="fill: #262626" transform="translate(208.557031 216.914688)scale(0.1 -0.1)">
      <defs>
       <path id="DejaVuSans-7a" d="M 353 3500 
L 3084 3500 
L 3084 2975 
L 922 459 
L 3084 459 
L 3084 0 
L 275 0 
L 275 525 
L 2438 3041 
L 353 3041 
L 353 3500 
z
" transform="scale(0.015625)"/>
      </defs>
      <use xlink:href="#DejaVuSans-7a"/>
     </g>
    </g>
   </g>
   <g id="matplotlib.axis_2">
    <g id="ytick_1">
     <g id="text_11">
      <!-- 0.0 -->
      <g style="fill: #262626" transform="translate(20.878125 192.437344)scale(0.1 -0.1)">
       <use xlink:href="#DejaVuSans-30"/>
       <use xlink:href="#DejaVuSans-2e" x="63.623047"/>
       <use xlink:href="#DejaVuSans-30" x="95.410156"/>
      </g>
     </g>
    </g>
    <g id="ytick_2">
     <g id="text_12">
      <!-- 0.5 -->
      <g style="fill: #262626" transform="translate(20.878125 154.637344)scale(0.1 -0.1)">
       <use xlink:href="#DejaVuSans-30"/>
       <use xlink:href="#DejaVuSans-2e" x="63.623047"/>
       <use xlink:href="#DejaVuSans-35" x="95.410156"/>
      </g>
     </g>
    </g>
    <g id="ytick_3">
     <g id="text_13">
      <!-- 1.0 -->
      <g style="fill: #262626" transform="translate(20.878125 116.837344)scale(0.1 -0.1)">
       <use xlink:href="#DejaVuSans-31"/>
       <use xlink:href="#DejaVuSans-2e" x="63.623047"/>
       <use xlink:href="#DejaVuSans-30" x="95.410156"/>
      </g>
     </g>
    </g>
    <g id="ytick_4">
     <g id="text_14">
      <!-- 1.5 -->
      <g style="fill: #262626" transform="translate(20.878125 79.037344)scale(0.1 -0.1)">
       <use xlink:href="#DejaVuSans-31"/>
       <use xlink:href="#DejaVuSans-2e" x="63.623047"/>
       <use xlink:href="#DejaVuSans-35" x="95.410156"/>
      </g>
     </g>
    </g>
    <g id="ytick_5">
     <g id="text_15">
      <!-- 2.0 -->
      <g style="fill: #262626" transform="translate(20.878125 41.237344)scale(0.1 -0.1)">
       <defs>
        <path id="DejaVuSans-32" d="M 1228 531 
L 3431 531 
L 3431 0 
L 469 0 
L 469 531 
Q 828 903 1448 1529 
Q 2069 2156 2228 2338 
Q 2531 2678 2651 2914 
Q 2772 3150 2772 3378 
Q 2772 3750 2511 3984 
Q 2250 4219 1831 4219 
Q 1534 4219 1204 4116 
Q 875 4013 500 3803 
L 500 4441 
Q 881 4594 1212 4672 
Q 1544 4750 1819 4750 
Q 2544 4750 2975 4387 
Q 3406 4025 3406 3419 
Q 3406 3131 3298 2873 
Q 3191 2616 2906 2266 
Q 2828 2175 2409 1742 
Q 1991 1309 1228 531 
z
" transform="scale(0.015625)"/>
       </defs>
       <use xlink:href="#DejaVuSans-32"/>
       <use xlink:href="#DejaVuSans-2e" x="63.623047"/>
       <use xlink:href="#DejaVuSans-30" x="95.410156"/>
      </g>
     </g>
    </g>
    <g id="text_16">
     <!-- Probability -->
     <g style="fill: #262626" transform="translate(14.798438 131.907031)rotate(-90)scale(0.1 -0.1)">
      <defs>
       <path id="DejaVuSans-50" d="M 1259 4147 
L 1259 2394 
L 2053 2394 
Q 2494 2394 2734 2622 
Q 2975 2850 2975 3272 
Q 2975 3691 2734 3919 
Q 2494 4147 2053 4147 
L 1259 4147 
z
M 628 4666 
L 2053 4666 
Q 2838 4666 3239 4311 
Q 3641 3956 3641 3272 
Q 3641 2581 3239 2228 
Q 2838 1875 2053 1875 
L 1259 1875 
L 1259 0 
L 628 0 
L 628 4666 
z
" transform="scale(0.015625)"/>
       <path id="DejaVuSans-72" d="M 2631 2963 
Q 2534 3019 2420 3045 
Q 2306 3072 2169 3072 
Q 1681 3072 1420 2755 
Q 1159 2438 1159 1844 
L 1159 0 
L 581 0 
L 581 3500 
L 1159 3500 
L 1159 2956 
Q 1341 3275 1631 3429 
Q 1922 3584 2338 3584 
Q 2397 3584 2469 3576 
Q 2541 3569 2628 3553 
L 2631 2963 
z
" transform="scale(0.015625)"/>
       <path id="DejaVuSans-6f" d="M 1959 3097 
Q 1497 3097 1228 2736 
Q 959 2375 959 1747 
Q 959 1119 1226 758 
Q 1494 397 1959 397 
Q 2419 397 2687 759 
Q 2956 1122 2956 1747 
Q 2956 2369 2687 2733 
Q 2419 3097 1959 3097 
z
M 1959 3584 
Q 2709 3584 3137 3096 
Q 3566 2609 3566 1747 
Q 3566 888 3137 398 
Q 2709 -91 1959 -91 
Q 1206 -91 779 398 
Q 353 888 353 1747 
Q 353 2609 779 3096 
Q 1206 3584 1959 3584 
z
" transform="scale(0.015625)"/>
       <path id="DejaVuSans-62" d="M 3116 1747 
Q 3116 2381 2855 2742 
Q 2594 3103 2138 3103 
Q 1681 3103 1420 2742 
Q 1159 2381 1159 1747 
Q 1159 1113 1420 752 
Q 1681 391 2138 391 
Q 2594 391 2855 752 
Q 3116 1113 3116 1747 
z
M 1159 2969 
Q 1341 3281 1617 3432 
Q 1894 3584 2278 3584 
Q 2916 3584 3314 3078 
Q 3713 2572 3713 1747 
Q 3713 922 3314 415 
Q 2916 -91 2278 -91 
Q 1894 -91 1617 61 
Q 1341 213 1159 525 
L 1159 0 
L 581 0 
L 581 4863 
L 1159 4863 
L 1159 2969 
z
" transform="scale(0.015625)"/>
       <path id="DejaVuSans-61" d="M 2194 1759 
Q 1497 1759 1228 1600 
Q 959 1441 959 1056 
Q 959 750 1161 570 
Q 1363 391 1709 391 
Q 2188 391 2477 730 
Q 2766 1069 2766 1631 
L 2766 1759 
L 2194 1759 
z
M 3341 1997 
L 3341 0 
L 2766 0 
L 2766 531 
Q 2569 213 2275 61 
Q 1981 -91 1556 -91 
Q 1019 -91 701 211 
Q 384 513 384 1019 
Q 384 1609 779 1909 
Q 1175 2209 1959 2209 
L 2766 2209 
L 2766 2266 
Q 2766 2663 2505 2880 
Q 2244 3097 1772 3097 
Q 1472 3097 1187 3025 
Q 903 2953 641 2809 
L 641 3341 
Q 956 3463 1253 3523 
Q 1550 3584 1831 3584 
Q 2591 3584 2966 3190 
Q 3341 2797 3341 1997 
z
" transform="scale(0.015625)"/>
       <path id="DejaVuSans-69" d="M 603 3500 
L 1178 3500 
L 1178 0 
L 603 0 
L 603 3500 
z
M 603 4863 
L 1178 4863 
L 1178 4134 
L 603 4134 
L 603 4863 
z
" transform="scale(0.015625)"/>
       <path id="DejaVuSans-6c" d="M 603 4863 
L 1178 4863 
L 1178 0 
L 603 0 
L 603 4863 
z
" transform="scale(0.015625)"/>
       <path id="DejaVuSans-74" d="M 1172 4494 
L 1172 3500 
L 2356 3500 
L 2356 3053 
L 1172 3053 
L 1172 1153 
Q 1172 725 1289 603 
Q 1406 481 1766 481 
L 2356 481 
L 2356 0 
L 1766 0 
Q 1100 0 847 248 
Q 594 497 594 1153 
L 594 3053 
L 172 3053 
L 172 3500 
L 594 3500 
L 594 4494 
L 1172 4494 
z
" transform="scale(0.015625)"/>
       <path id="DejaVuSans-79" d="M 2059 -325 
Q 1816 -950 1584 -1140 
Q 1353 -1331 966 -1331 
L 506 -1331 
L 506 -850 
L 844 -850 
Q 1081 -850 1212 -737 
Q 1344 -625 1503 -206 
L 1606 56 
L 191 3500 
L 800 3500 
L 1894 763 
L 2988 3500 
L 3597 3500 
L 2059 -325 
z
" transform="scale(0.015625)"/>
      </defs>
      <use xlink:href="#DejaVuSans-50"/>
      <use xlink:href="#DejaVuSans-72" x="58.552734"/>
      <use xlink:href="#DejaVuSans-6f" x="97.416016"/>
      <use xlink:href="#DejaVuSans-62" x="158.597656"/>
      <use xlink:href="#DejaVuSans-61" x="222.074219"/>
      <use xlink:href="#DejaVuSans-62" x="283.353516"/>
      <use xlink:href="#DejaVuSans-69" x="346.830078"/>
      <use xlink:href="#DejaVuSans-6c" x="374.613281"/>
      <use xlink:href="#DejaVuSans-69" x="402.396484"/>
      <use xlink:href="#DejaVuSans-74" x="430.179688"/>
      <use xlink:href="#DejaVuSans-79" x="469.388672"/>
     </g>
    </g>
   </g>
   <g id="PolyCollection_1">
    <defs>
     <path id="mbc49098ec0" d="M 43.78125 -37.55625 
L 43.78125 -48.238657 
L 44.200273 -48.342109 
L 44.619297 -48.446538 
L 45.03832 -48.551936 
L 45.457344 -48.658306 
L 45.876367 -48.765666 
L 46.29539 -48.874031 
L 46.714414 -48.98339 
L 47.133437 -49.093766 
L 47.55246 -49.205165 
L 47.971484 -49.317593 
L 48.390507 -49.431062 
L 48.809531 -49.545573 
L 49.228554 -49.661149 
L 49.647577 -49.777787 
L 50.066601 -49.895495 
L 50.485634 -50.014286 
L 50.904657 -50.134177 
L 51.323681 -50.255161 
L 51.742704 -50.377258 
L 52.161728 -50.500469 
L 52.580751 -50.624814 
L 52.999774 -50.750297 
L 53.418798 -50.876921 
L 53.837821 -51.004708 
L 54.256844 -51.133657 
L 54.675868 -51.263777 
L 55.094891 -51.395085 
L 55.513915 -51.527584 
L 55.932938 -51.66129 
L 56.351961 -51.796209 
L 56.770985 -51.93235 
L 57.190008 -52.069722 
L 57.609032 -52.208345 
L 58.028055 -52.348206 
L 58.447078 -52.48934 
L 58.866102 -52.631741 
L 59.285125 -52.775426 
L 59.704148 -52.920401 
L 60.123172 -53.066683 
L 60.542205 -53.21428 
L 60.961229 -53.363193 
L 61.380252 -53.513441 
L 61.799275 -53.665031 
L 62.218299 -53.817968 
L 62.637322 -53.972279 
L 63.056345 -54.127959 
L 63.475369 -54.285028 
L 63.894392 -54.44349 
L 64.313416 -54.603354 
L 64.732439 -54.764641 
L 65.151462 -54.927347 
L 65.570486 -55.0915 
L 65.989509 -55.257094 
L 66.408532 -55.424149 
L 66.827556 -55.592677 
L 67.246579 -55.762684 
L 67.665603 -55.934187 
L 68.084626 -56.107181 
L 68.503649 -56.281697 
L 68.922673 -56.457737 
L 69.341696 -56.635314 
L 69.76072 -56.814441 
L 70.179743 -56.995118 
L 70.598776 -57.177374 
L 71.0178 -57.361203 
L 71.436823 -57.546628 
L 71.855846 -57.733647 
L 72.27487 -57.922288 
L 72.693893 -58.112546 
L 73.112917 -58.304443 
L 73.53194 -58.497991 
L 73.950963 -58.693205 
L 74.369987 -58.890075 
L 74.78901 -59.088635 
L 75.208033 -59.288886 
L 75.627057 -59.490845 
L 76.04608 -59.69451 
L 76.465104 -59.899908 
L 76.884127 -60.107049 
L 77.30315 -60.315948 
L 77.722174 -60.526595 
L 78.141197 -60.739016 
L 78.56022 -60.953234 
L 78.979244 -61.169239 
L 79.398267 -61.387058 
L 79.817291 -61.60669 
L 80.236314 -61.82815 
L 80.655347 -62.051468 
L 81.074371 -62.276634 
L 81.493394 -62.503656 
L 81.912418 -62.732571 
L 82.331441 -62.963367 
L 82.750464 -63.196061 
L 83.169488 -63.430662 
L 83.588511 -63.667199 
L 84.007534 -63.905661 
L 84.426558 -64.146071 
L 84.845581 -64.388443 
L 85.264605 -64.63278 
L 85.683628 -64.879095 
L 86.102651 -65.1274 
L 86.521675 -65.377712 
L 86.940698 -65.630039 
L 87.359721 -65.884386 
L 87.778745 -66.140777 
L 88.197768 -66.399216 
L 88.616792 -66.659712 
L 89.035815 -66.922281 
L 89.454838 -67.186936 
L 89.873862 -67.453678 
L 90.292885 -67.722517 
L 90.711908 -67.993472 
L 91.130932 -68.266551 
L 91.549955 -68.541769 
L 91.968979 -68.819126 
L 92.388002 -69.098652 
L 92.807025 -69.380327 
L 93.226049 -69.664193 
L 93.645072 -69.950255 
L 94.064106 -70.238497 
L 94.483129 -70.528968 
L 94.902152 -70.821638 
L 95.321176 -71.116538 
L 95.740199 -71.413682 
L 96.159222 -71.713082 
L 96.578246 -72.014734 
L 96.997269 -72.318653 
L 97.416293 -72.624853 
L 97.835316 -72.933341 
L 98.254339 -73.244121 
L 98.673363 -73.557201 
L 99.092386 -73.872595 
L 99.511409 -74.190314 
L 99.930433 -74.510372 
L 100.349456 -74.832766 
L 100.76848 -75.157506 
L 101.187503 -75.48462 
L 101.606526 -75.814071 
L 102.02555 -76.145923 
L 102.444573 -76.480137 
L 102.863596 -76.816757 
L 103.28262 -77.155756 
L 103.701643 -77.497171 
L 104.120677 -77.841005 
L 104.5397 -78.187259 
L 104.958723 -78.535929 
L 105.377747 -78.887013 
L 105.79677 -79.240554 
L 106.215794 -79.596555 
L 106.634817 -79.954966 
L 107.05384 -80.31587 
L 107.472864 -80.679224 
L 107.891887 -81.045044 
L 108.31091 -81.413338 
L 108.729934 -81.7841 
L 109.148957 -82.15736 
L 109.567981 -82.533102 
L 109.987004 -82.911318 
L 110.406027 -83.292039 
L 110.825051 -83.675275 
L 111.244074 -84.060989 
L 111.663097 -84.449235 
L 112.082121 -84.839956 
L 112.501144 -85.233209 
L 112.920168 -85.628971 
L 113.339191 -86.027235 
L 113.758214 -86.428031 
L 114.177248 -86.83135 
L 114.596271 -87.23718 
L 115.015294 -87.645519 
L 115.434318 -88.056395 
L 115.853341 -88.46979 
L 116.272365 -88.885691 
L 116.691388 -89.304124 
L 117.110411 -89.725049 
L 117.529435 -90.14852 
L 117.948458 -90.574491 
L 118.367482 -91.002995 
L 118.786505 -91.433987 
L 119.205528 -91.867497 
L 119.624552 -92.3035 
L 120.043575 -92.742007 
L 120.462598 -93.183016 
L 120.881622 -93.626534 
L 121.300645 -94.072509 
L 121.719669 -94.521002 
L 122.138692 -94.971956 
L 122.557715 -95.425379 
L 122.976739 -95.881266 
L 123.395762 -96.339601 
L 123.814785 -96.8004 
L 124.233819 -97.263638 
L 124.652842 -97.729304 
L 125.071866 -98.197412 
L 125.490889 -98.667913 
L 125.909912 -99.140829 
L 126.328936 -99.616166 
L 126.747959 -100.093858 
L 127.166982 -100.57393 
L 127.586006 -101.056359 
L 128.005029 -101.541172 
L 128.424053 -102.028269 
L 128.843076 -102.517709 
L 129.262099 -103.009497 
L 129.681123 -103.503525 
L 129.681123 -37.55625 
L 129.681123 -37.55625 
L 129.262099 -37.55625 
L 128.843076 -37.55625 
L 128.424053 -37.55625 
L 128.005029 -37.55625 
L 127.586006 -37.55625 
L 127.166982 -37.55625 
L 126.747959 -37.55625 
L 126.328936 -37.55625 
L 125.909912 -37.55625 
L 125.490889 -37.55625 
L 125.071866 -37.55625 
L 124.652842 -37.55625 
L 124.233819 -37.55625 
L 123.814785 -37.55625 
L 123.395762 -37.55625 
L 122.976739 -37.55625 
L 122.557715 -37.55625 
L 122.138692 -37.55625 
L 121.719669 -37.55625 
L 121.300645 -37.55625 
L 120.881622 -37.55625 
L 120.462598 -37.55625 
L 120.043575 -37.55625 
L 119.624552 -37.55625 
L 119.205528 -37.55625 
L 118.786505 -37.55625 
L 118.367482 -37.55625 
L 117.948458 -37.55625 
L 117.529435 -37.55625 
L 117.110411 -37.55625 
L 116.691388 -37.55625 
L 116.272365 -37.55625 
L 115.853341 -37.55625 
L 115.434318 -37.55625 
L 115.015294 -37.55625 
L 114.596271 -37.55625 
L 114.177248 -37.55625 
L 113.758214 -37.55625 
L 113.339191 -37.55625 
L 112.920168 -37.55625 
L 112.501144 -37.55625 
L 112.082121 -37.55625 
L 111.663097 -37.55625 
L 111.244074 -37.55625 
L 110.825051 -37.55625 
L 110.406027 -37.55625 
L 109.987004 -37.55625 
L 109.567981 -37.55625 
L 109.148957 -37.55625 
L 108.729934 -37.55625 
L 108.31091 -37.55625 
L 107.891887 -37.55625 
L 107.472864 -37.55625 
L 107.05384 -37.55625 
L 106.634817 -37.55625 
L 106.215794 -37.55625 
L 105.79677 -37.55625 
L 105.377747 -37.55625 
L 104.958723 -37.55625 
L 104.5397 -37.55625 
L 104.120677 -37.55625 
L 103.701643 -37.55625 
L 103.28262 -37.55625 
L 102.863596 -37.55625 
L 102.444573 -37.55625 
L 102.02555 -37.55625 
L 101.606526 -37.55625 
L 101.187503 -37.55625 
L 100.76848 -37.55625 
L 100.349456 -37.55625 
L 99.930433 -37.55625 
L 99.511409 -37.55625 
L 99.092386 -37.55625 
L 98.673363 -37.55625 
L 98.254339 -37.55625 
L 97.835316 -37.55625 
L 97.416293 -37.55625 
L 96.997269 -37.55625 
L 96.578246 -37.55625 
L 96.159222 -37.55625 
L 95.740199 -37.55625 
L 95.321176 -37.55625 
L 94.902152 -37.55625 
L 94.483129 -37.55625 
L 94.064106 -37.55625 
L 93.645072 -37.55625 
L 93.226049 -37.55625 
L 92.807025 -37.55625 
L 92.388002 -37.55625 
L 91.968979 -37.55625 
L 91.549955 -37.55625 
L 91.130932 -37.55625 
L 90.711908 -37.55625 
L 90.292885 -37.55625 
L 89.873862 -37.55625 
L 89.454838 -37.55625 
L 89.035815 -37.55625 
L 88.616792 -37.55625 
L 88.197768 -37.55625 
L 87.778745 -37.55625 
L 87.359721 -37.55625 
L 86.940698 -37.55625 
L 86.521675 -37.55625 
L 86.102651 -37.55625 
L 85.683628 -37.55625 
L 85.264605 -37.55625 
L 84.845581 -37.55625 
L 84.426558 -37.55625 
L 84.007534 -37.55625 
L 83.588511 -37.55625 
L 83.169488 -37.55625 
L 82.750464 -37.55625 
L 82.331441 -37.55625 
L 81.912418 -37.55625 
L 81.493394 -37.55625 
L 81.074371 -37.55625 
L 80.655347 -37.55625 
L 80.236314 -37.55625 
L 79.817291 -37.55625 
L 79.398267 -37.55625 
L 78.979244 -37.55625 
L 78.56022 -37.55625 
L 78.141197 -37.55625 
L 77.722174 -37.55625 
L 77.30315 -37.55625 
L 76.884127 -37.55625 
L 76.465104 -37.55625 
L 76.04608 -37.55625 
L 75.627057 -37.55625 
L 75.208033 -37.55625 
L 74.78901 -37.55625 
L 74.369987 -37.55625 
L 73.950963 -37.55625 
L 73.53194 -37.55625 
L 73.112917 -37.55625 
L 72.693893 -37.55625 
L 72.27487 -37.55625 
L 71.855846 -37.55625 
L 71.436823 -37.55625 
L 71.0178 -37.55625 
L 70.598776 -37.55625 
L 70.179743 -37.55625 
L 69.76072 -37.55625 
L 69.341696 -37.55625 
L 68.922673 -37.55625 
L 68.503649 -37.55625 
L 68.084626 -37.55625 
L 67.665603 -37.55625 
L 67.246579 -37.55625 
L 66.827556 -37.55625 
L 66.408532 -37.55625 
L 65.989509 -37.55625 
L 65.570486 -37.55625 
L 65.151462 -37.55625 
L 64.732439 -37.55625 
L 64.313416 -37.55625 
L 63.894392 -37.55625 
L 63.475369 -37.55625 
L 63.056345 -37.55625 
L 62.637322 -37.55625 
L 62.218299 -37.55625 
L 61.799275 -37.55625 
L 61.380252 -37.55625 
L 60.961229 -37.55625 
L 60.542205 -37.55625 
L 60.123172 -37.55625 
L 59.704148 -37.55625 
L 59.285125 -37.55625 
L 58.866102 -37.55625 
L 58.447078 -37.55625 
L 58.028055 -37.55625 
L 57.609032 -37.55625 
L 57.190008 -37.55625 
L 56.770985 -37.55625 
L 56.351961 -37.55625 
L 55.932938 -37.55625 
L 55.513915 -37.55625 
L 55.094891 -37.55625 
L 54.675868 -37.55625 
L 54.256844 -37.55625 
L 53.837821 -37.55625 
L 53.418798 -37.55625 
L 52.999774 -37.55625 
L 52.580751 -37.55625 
L 52.161728 -37.55625 
L 51.742704 -37.55625 
L 51.323681 -37.55625 
L 50.904657 -37.55625 
L 50.485634 -37.55625 
L 50.066601 -37.55625 
L 49.647577 -37.55625 
L 49.228554 -37.55625 
L 48.809531 -37.55625 
L 48.390507 -37.55625 
L 47.971484 -37.55625 
L 47.55246 -37.55625 
L 47.133437 -37.55625 
L 46.714414 -37.55625 
L 46.29539 -37.55625 
L 45.876367 -37.55625 
L 45.457344 -37.55625 
L 45.03832 -37.55625 
L 44.619297 -37.55625 
L 44.200273 -37.55625 
L 43.78125 -37.55625 
z
" style="stroke: #1f77b4; stroke-opacity: 0.5"/>
    </defs>
    <g clip-path="url(#pc8b7a1e7e3)">
     <use xlink:href="#mbc49098ec0" x="0" y="226.194375" style="fill: #1f77b4; fill-opacity: 0.5; stroke: #1f77b4; stroke-opacity: 0.5"/>
    </g>
   </g>
   <g id="PolyCollection_2">
    <defs>
     <path id="m7d8159ae1c" d="M 130.100146 -37.55625 
L 130.100146 -103.999859 
L 130.519174 -104.498474 
L 130.938198 -104.999319 
L 131.357221 -105.50239 
L 131.776245 -106.007679 
L 132.195268 -106.515148 
L 132.614291 -107.024821 
L 133.033315 -107.536625 
L 133.452338 -108.050623 
L 133.871367 -108.566699 
L 134.290385 -109.084884 
L 134.709408 -109.605133 
L 135.128432 -110.127436 
L 135.547455 -110.651785 
L 135.966478 -111.178162 
L 136.385502 -111.706494 
L 136.804525 -112.236801 
L 137.223554 -112.769035 
L 137.642577 -113.303185 
L 138.0616 -113.839214 
L 138.480624 -114.377082 
L 138.899647 -114.916806 
L 139.31867 -115.458314 
L 139.737694 -116.001589 
L 140.156717 -116.546603 
L 140.575746 -117.09332 
L 140.994769 -117.641759 
L 141.413792 -118.191784 
L 141.832816 -118.743458 
L 142.251839 -119.296692 
L 142.670862 -119.851484 
L 143.089886 -120.40779 
L 143.508909 -120.965566 
L 143.927938 -121.524792 
L 144.346956 -122.085398 
L 144.765979 -122.647373 
L 145.185003 -123.210664 
L 145.604026 -123.77527 
L 146.02305 -124.341103 
L 146.442073 -124.908143 
L 146.861096 -125.476354 
L 147.280125 -126.04572 
L 147.699148 -126.61613 
L 148.118171 -127.187586 
L 148.537195 -127.760024 
L 148.956218 -128.333409 
L 149.375242 -128.907722 
L 149.794265 -129.482882 
L 150.213288 -130.058835 
L 150.632317 -130.635572 
L 151.051335 -131.213003 
L 151.470358 -131.791083 
L 151.889382 -132.369812 
L 152.308405 -132.949073 
L 152.727429 -133.528874 
L 153.146452 -134.109117 
L 153.565475 -134.689757 
L 153.984504 -135.270784 
L 154.403527 -135.85209 
L 154.82255 -136.433649 
L 155.241574 -137.015397 
L 155.660597 -137.597253 
L 156.079621 -138.179199 
L 156.498644 -138.761181 
L 156.917667 -139.3431 
L 157.336696 -139.92492 
L 157.755719 -140.506587 
L 158.174743 -141.088029 
L 158.593766 -141.669209 
L 159.012789 -142.250011 
L 159.431813 -142.830434 
L 159.850836 -143.410388 
L 160.269859 -143.989802 
L 160.688888 -144.56863 
L 161.107906 -145.146809 
L 161.52693 -145.724258 
L 161.945953 -146.300896 
L 162.364976 -146.876687 
L 162.784 -147.45155 
L 163.203023 -148.025439 
L 163.622046 -148.598265 
L 164.041075 -149.169946 
L 164.460098 -149.740447 
L 164.879122 -150.309668 
L 165.298145 -150.877564 
L 165.298145 -37.55625 
L 165.298145 -37.55625 
L 164.879122 -37.55625 
L 164.460098 -37.55625 
L 164.041075 -37.55625 
L 163.622046 -37.55625 
L 163.203023 -37.55625 
L 162.784 -37.55625 
L 162.364976 -37.55625 
L 161.945953 -37.55625 
L 161.52693 -37.55625 
L 161.107906 -37.55625 
L 160.688888 -37.55625 
L 160.269859 -37.55625 
L 159.850836 -37.55625 
L 159.431813 -37.55625 
L 159.012789 -37.55625 
L 158.593766 -37.55625 
L 158.174743 -37.55625 
L 157.755719 -37.55625 
L 157.336696 -37.55625 
L 156.917667 -37.55625 
L 156.498644 -37.55625 
L 156.079621 -37.55625 
L 155.660597 -37.55625 
L 155.241574 -37.55625 
L 154.82255 -37.55625 
L 154.403527 -37.55625 
L 153.984504 -37.55625 
L 153.565475 -37.55625 
L 153.146452 -37.55625 
L 152.727429 -37.55625 
L 152.308405 -37.55625 
L 151.889382 -37.55625 
L 151.470358 -37.55625 
L 151.051335 -37.55625 
L 150.632317 -37.55625 
L 150.213288 -37.55625 
L 149.794265 -37.55625 
L 149.375242 -37.55625 
L 148.956218 -37.55625 
L 148.537195 -37.55625 
L 148.118171 -37.55625 
L 147.699148 -37.55625 
L 147.280125 -37.55625 
L 146.861096 -37.55625 
L 146.442073 -37.55625 
L 146.02305 -37.55625 
L 145.604026 -37.55625 
L 145.185003 -37.55625 
L 144.765979 -37.55625 
L 144.346956 -37.55625 
L 143.927938 -37.55625 
L 143.508909 -37.55625 
L 143.089886 -37.55625 
L 142.670862 -37.55625 
L 142.251839 -37.55625 
L 141.832816 -37.55625 
L 141.413792 -37.55625 
L 140.994769 -37.55625 
L 140.575746 -37.55625 
L 140.156717 -37.55625 
L 139.737694 -37.55625 
L 139.31867 -37.55625 
L 138.899647 -37.55625 
L 138.480624 -37.55625 
L 138.0616 -37.55625 
L 137.642577 -37.55625 
L 137.223554 -37.55625 
L 136.804525 -37.55625 
L 136.385502 -37.55625 
L 135.966478 -37.55625 
L 135.547455 -37.55625 
L 135.128432 -37.55625 
L 134.709408 -37.55625 
L 134.290385 -37.55625 
L 133.871367 -37.55625 
L 133.452338 -37.55625 
L 133.033315 -37.55625 
L 132.614291 -37.55625 
L 132.195268 -37.55625 
L 131.776245 -37.55625 
L 131.357221 -37.55625 
L 130.938198 -37.55625 
L 130.519174 -37.55625 
L 130.100146 -37.55625 
z
" style="stroke: #ff7f0e; stroke-opacity: 0.5"/>
    </defs>
    <g clip-path="url(#pc8b7a1e7e3)">
     <use xlink:href="#m7d8159ae1c" x="0" y="226.194375" style="fill: #ff7f0e; fill-opacity: 0.5; stroke: #ff7f0e; stroke-opacity: 0.5"/>
    </g>
   </g>
   <g id="PolyCollection_3">
    <defs>
     <path id="md985cd0a96" d="M 165.717168 -37.55625 
L 165.717168 -151.444028 
L 166.136192 -152.00904 
L 166.555215 -152.572493 
L 166.974238 -153.134306 
L 167.393267 -153.694452 
L 167.81229 -154.252822 
L 168.231314 -154.809345 
L 168.650337 -155.363948 
L 169.06936 -155.916595 
L 169.488386 -156.467161 
L 169.90741 -157.015591 
L 170.326433 -157.561794 
L 170.745456 -158.105727 
L 171.16448 -158.647308 
L 171.583503 -159.18641 
L 172.002527 -159.723033 
L 172.42155 -160.257071 
L 172.840576 -160.788431 
L 173.259599 -161.317034 
L 173.678623 -161.842843 
L 174.097646 -162.365732 
L 174.516669 -162.885684 
L 174.935693 -163.402553 
L 175.354716 -163.916303 
L 175.773739 -164.426864 
L 176.192765 -164.934126 
L 176.611789 -165.438008 
L 177.030812 -165.938493 
L 177.449835 -166.435463 
L 177.868859 -166.928846 
L 178.287882 -167.418534 
L 178.706906 -167.904482 
L 179.125929 -168.386609 
L 179.544955 -168.864879 
L 179.963978 -169.339147 
L 180.383002 -169.809359 
L 180.802025 -170.275463 
L 181.221048 -170.73733 
L 181.640072 -171.194944 
L 182.059095 -171.648213 
L 182.478119 -172.097022 
L 182.897144 -172.541352 
L 183.316168 -172.981103 
L 183.735191 -173.416204 
L 184.154215 -173.846556 
L 184.57324 -174.272131 
L 184.992264 -174.692803 
L 185.411287 -175.108573 
L 185.830311 -175.519314 
L 186.249336 -175.924936 
L 186.66836 -176.325448 
L 187.087383 -176.720716 
L 187.506407 -177.110692 
L 187.92543 -177.49528 
L 188.344453 -177.874478 
L 188.763477 -178.248152 
L 189.1825 -178.616238 
L 189.601526 -178.978728 
L 189.601526 -37.55625 
L 189.601526 -37.55625 
L 189.1825 -37.55625 
L 188.763477 -37.55625 
L 188.344453 -37.55625 
L 187.92543 -37.55625 
L 187.506407 -37.55625 
L 187.087383 -37.55625 
L 186.66836 -37.55625 
L 186.249336 -37.55625 
L 185.830311 -37.55625 
L 185.411287 -37.55625 
L 184.992264 -37.55625 
L 184.57324 -37.55625 
L 184.154215 -37.55625 
L 183.735191 -37.55625 
L 183.316168 -37.55625 
L 182.897144 -37.55625 
L 182.478119 -37.55625 
L 182.059095 -37.55625 
L 181.640072 -37.55625 
L 181.221048 -37.55625 
L 180.802025 -37.55625 
L 180.383002 -37.55625 
L 179.963978 -37.55625 
L 179.544955 -37.55625 
L 179.125929 -37.55625 
L 178.706906 -37.55625 
L 178.287882 -37.55625 
L 177.868859 -37.55625 
L 177.449835 -37.55625 
L 177.030812 -37.55625 
L 176.611789 -37.55625 
L 176.192765 -37.55625 
L 175.773739 -37.55625 
L 175.354716 -37.55625 
L 174.935693 -37.55625 
L 174.516669 -37.55625 
L 174.097646 -37.55625 
L 173.678623 -37.55625 
L 173.259599 -37.55625 
L 172.840576 -37.55625 
L 172.42155 -37.55625 
L 172.002527 -37.55625 
L 171.583503 -37.55625 
L 171.16448 -37.55625 
L 170.745456 -37.55625 
L 170.326433 -37.55625 
L 169.90741 -37.55625 
L 169.488386 -37.55625 
L 169.06936 -37.55625 
L 168.650337 -37.55625 
L 168.231314 -37.55625 
L 167.81229 -37.55625 
L 167.393267 -37.55625 
L 166.974238 -37.55625 
L 166.555215 -37.55625 
L 166.136192 -37.55625 
L 165.717168 -37.55625 
z
" style="stroke: #2ca02c; stroke-opacity: 0.5"/>
    </defs>
    <g clip-path="url(#pc8b7a1e7e3)">
     <use xlink:href="#md985cd0a96" x="0" y="226.194375" style="fill: #2ca02c; fill-opacity: 0.5; stroke: #2ca02c; stroke-opacity: 0.5"/>
    </g>
   </g>
   <g id="PolyCollection_4">
    <defs>
     <path id="m0df0cce004" d="M 190.020549 -37.55625 
L 190.020549 -179.335495 
L 190.439573 -179.686494 
L 190.858596 -180.031671 
L 191.277621 -180.370972 
L 191.696644 -180.704307 
L 192.115669 -181.031604 
L 192.534692 -181.352863 
L 192.953716 -181.668002 
L 193.37274 -181.976914 
L 193.791764 -182.279562 
L 194.210787 -182.575938 
L 194.62981 -182.865952 
L 195.048834 -183.14953 
L 195.467858 -183.426656 
L 195.886882 -183.697257 
L 196.305905 -183.96127 
L 196.72493 -184.218668 
L 197.143953 -184.469415 
L 197.562976 -184.713421 
L 197.982001 -184.95065 
L 198.401024 -185.181074 
L 198.820049 -185.404641 
L 199.239072 -185.621303 
L 199.658096 -185.831036 
L 200.07712 -186.033775 
L 200.496144 -186.229484 
L 200.915167 -186.418146 
L 201.334191 -186.599706 
L 201.753215 -186.774138 
L 202.172239 -186.941387 
L 202.591263 -187.101444 
L 203.010287 -187.254282 
L 203.42931 -187.399829 
L 203.848334 -187.538113 
L 204.267357 -187.66907 
L 204.686381 -187.792681 
L 205.105405 -187.908921 
L 205.524429 -188.017779 
L 205.943453 -188.119221 
L 206.362476 -188.213228 
L 206.7815 -188.299808 
L 207.200524 -188.378872 
L 207.619548 -188.450483 
L 208.038572 -188.514587 
L 208.457595 -188.571184 
L 208.876619 -188.620229 
L 209.295643 -188.661775 
L 209.714667 -188.695769 
L 210.13369 -188.722238 
L 210.552714 -188.741127 
L 210.971738 -188.752465 
L 210.971738 -37.55625 
L 210.971738 -37.55625 
L 210.552714 -37.55625 
L 210.13369 -37.55625 
L 209.714667 -37.55625 
L 209.295643 -37.55625 
L 208.876619 -37.55625 
L 208.457595 -37.55625 
L 208.038572 -37.55625 
L 207.619548 -37.55625 
L 207.200524 -37.55625 
L 206.7815 -37.55625 
L 206.362476 -37.55625 
L 205.943453 -37.55625 
L 205.524429 -37.55625 
L 205.105405 -37.55625 
L 204.686381 -37.55625 
L 204.267357 -37.55625 
L 203.848334 -37.55625 
L 203.42931 -37.55625 
L 203.010287 -37.55625 
L 202.591263 -37.55625 
L 202.172239 -37.55625 
L 201.753215 -37.55625 
L 201.334191 -37.55625 
L 200.915167 -37.55625 
L 200.496144 -37.55625 
L 200.07712 -37.55625 
L 199.658096 -37.55625 
L 199.239072 -37.55625 
L 198.820049 -37.55625 
L 198.401024 -37.55625 
L 197.982001 -37.55625 
L 197.562976 -37.55625 
L 197.143953 -37.55625 
L 196.72493 -37.55625 
L 196.305905 -37.55625 
L 195.886882 -37.55625 
L 195.467858 -37.55625 
L 195.048834 -37.55625 
L 194.62981 -37.55625 
L 194.210787 -37.55625 
L 193.791764 -37.55625 
L 193.37274 -37.55625 
L 192.953716 -37.55625 
L 192.534692 -37.55625 
L 192.115669 -37.55625 
L 191.696644 -37.55625 
L 191.277621 -37.55625 
L 190.858596 -37.55625 
L 190.439573 -37.55625 
L 190.020549 -37.55625 
z
" style="stroke: #d62728; stroke-opacity: 0.5"/>
    </defs>
    <g clip-path="url(#pc8b7a1e7e3)">
     <use xlink:href="#m0df0cce004" x="0" y="226.194375" style="fill: #d62728; fill-opacity: 0.5; stroke: #d62728; stroke-opacity: 0.5"/>
    </g>
   </g>
   <g id="PolyCollection_5">
    <defs>
     <path id="m227058dd92" d="M 211.390762 -37.55625 
L 211.390762 -188.75625 
L 211.809785 -188.752465 
L 212.228809 -188.741127 
L 212.647833 -188.722238 
L 213.066857 -188.695787 
L 213.485881 -188.661793 
L 213.904904 -188.620265 
L 214.323928 -188.571184 
L 214.742952 -188.514587 
L 215.161976 -188.450483 
L 215.581 -188.378872 
L 216.000023 -188.29979 
L 216.419047 -188.213228 
L 216.838071 -188.119221 
L 217.257095 -188.017779 
L 217.676118 -187.908921 
L 218.095142 -187.792699 
L 218.514166 -187.66907 
L 218.933189 -187.538113 
L 219.352213 -187.399829 
L 219.771237 -187.254264 
L 220.190261 -187.101444 
L 220.609285 -186.941387 
L 221.028308 -186.77412 
L 221.447332 -186.599706 
L 221.866356 -186.418146 
L 222.28538 -186.229484 
L 222.704403 -186.033775 
L 223.123428 -185.831036 
L 223.542451 -185.621303 
L 223.961474 -185.404641 
L 224.380499 -185.181074 
L 224.799522 -184.95065 
L 225.218546 -184.713421 
L 225.63757 -184.469397 
L 226.056594 -184.218686 
L 226.475617 -183.96127 
L 226.894642 -183.697257 
L 227.313665 -183.426656 
L 227.732688 -183.14953 
L 228.151713 -182.865952 
L 228.570736 -182.575947 
L 228.989761 -182.27958 
L 229.408784 -181.976914 
L 229.827808 -181.667984 
L 230.246833 -181.352863 
L 230.665856 -181.031622 
L 231.084879 -180.704298 
L 231.503903 -180.370972 
L 231.922926 -180.031671 
L 232.341951 -179.686494 
L 232.760974 -179.335495 
L 232.760974 -37.55625 
L 232.760974 -37.55625 
L 232.341951 -37.55625 
L 231.922926 -37.55625 
L 231.503903 -37.55625 
L 231.084879 -37.55625 
L 230.665856 -37.55625 
L 230.246833 -37.55625 
L 229.827808 -37.55625 
L 229.408784 -37.55625 
L 228.989761 -37.55625 
L 228.570736 -37.55625 
L 228.151713 -37.55625 
L 227.732688 -37.55625 
L 227.313665 -37.55625 
L 226.894642 -37.55625 
L 226.475617 -37.55625 
L 226.056594 -37.55625 
L 225.63757 -37.55625 
L 225.218546 -37.55625 
L 224.799522 -37.55625 
L 224.380499 -37.55625 
L 223.961474 -37.55625 
L 223.542451 -37.55625 
L 223.123428 -37.55625 
L 222.704403 -37.55625 
L 222.28538 -37.55625 
L 221.866356 -37.55625 
L 221.447332 -37.55625 
L 221.028308 -37.55625 
L 220.609285 -37.55625 
L 220.190261 -37.55625 
L 219.771237 -37.55625 
L 219.352213 -37.55625 
L 218.933189 -37.55625 
L 218.514166 -37.55625 
L 218.095142 -37.55625 
L 217.676118 -37.55625 
L 217.257095 -37.55625 
L 216.838071 -37.55625 
L 216.419047 -37.55625 
L 216.000023 -37.55625 
L 215.581 -37.55625 
L 215.161976 -37.55625 
L 214.742952 -37.55625 
L 214.323928 -37.55625 
L 213.904904 -37.55625 
L 213.485881 -37.55625 
L 213.066857 -37.55625 
L 212.647833 -37.55625 
L 212.228809 -37.55625 
L 211.809785 -37.55625 
L 211.390762 -37.55625 
z
" style="stroke: #9467bd; stroke-opacity: 0.5"/>
    </defs>
    <g clip-path="url(#pc8b7a1e7e3)">
     <use xlink:href="#m227058dd92" x="0" y="226.194375" style="fill: #9467bd; fill-opacity: 0.5; stroke: #9467bd; stroke-opacity: 0.5"/>
    </g>
   </g>
   <g id="PolyCollection_6">
    <defs>
     <path id="m2920a56ada" d="M 233.179997 -37.55625 
L 233.179997 -178.97871 
L 233.599021 -178.616238 
L 234.018044 -178.248143 
L 234.43707 -177.874478 
L 234.856093 -177.495298 
L 235.275117 -177.110692 
L 235.69414 -176.720716 
L 236.113164 -176.325448 
L 236.532189 -175.924972 
L 236.951213 -175.519296 
L 237.370236 -175.108573 
L 237.78926 -174.692812 
L 238.208283 -174.272113 
L 238.627306 -173.846556 
L 239.04633 -173.416186 
L 239.465353 -172.981085 
L 239.884379 -172.541352 
L 240.303402 -172.097022 
L 240.722426 -171.648195 
L 241.141449 -171.194944 
L 241.560475 -170.73733 
L 241.979498 -170.275445 
L 242.398522 -169.809359 
L 242.817545 -169.339147 
L 243.236571 -168.864879 
L 243.655594 -168.386636 
L 244.074618 -167.904482 
L 244.493641 -167.418534 
L 244.912665 -166.928846 
L 245.331688 -166.435463 
L 245.750711 -165.938511 
L 246.169735 -165.438035 
L 246.588761 -164.934126 
L 247.007784 -164.426855 
L 247.426807 -163.916294 
L 247.845831 -163.402553 
L 248.264854 -162.885675 
L 248.683877 -162.36575 
L 249.102901 -161.842825 
L 249.521924 -161.317034 
L 249.94095 -160.788422 
L 250.359973 -160.257053 
L 250.778997 -159.723033 
L 251.19802 -159.18641 
L 251.617044 -158.647271 
L 252.036067 -158.105727 
L 252.45509 -157.561794 
L 252.874114 -157.015573 
L 253.29314 -156.467143 
L 253.712163 -155.916577 
L 254.131186 -155.363957 
L 254.55021 -154.809345 
L 254.969233 -154.252822 
L 255.388257 -153.694452 
L 255.80728 -153.134324 
L 256.226303 -152.572493 
L 256.645327 -152.00904 
L 257.06435 -151.444037 
L 257.06435 -37.55625 
L 257.06435 -37.55625 
L 256.645327 -37.55625 
L 256.226303 -37.55625 
L 255.80728 -37.55625 
L 255.388257 -37.55625 
L 254.969233 -37.55625 
L 254.55021 -37.55625 
L 254.131186 -37.55625 
L 253.712163 -37.55625 
L 253.29314 -37.55625 
L 252.874114 -37.55625 
L 252.45509 -37.55625 
L 252.036067 -37.55625 
L 251.617044 -37.55625 
L 251.19802 -37.55625 
L 250.778997 -37.55625 
L 250.359973 -37.55625 
L 249.94095 -37.55625 
L 249.521924 -37.55625 
L 249.102901 -37.55625 
L 248.683877 -37.55625 
L 248.264854 -37.55625 
L 247.845831 -37.55625 
L 247.426807 -37.55625 
L 247.007784 -37.55625 
L 246.588761 -37.55625 
L 246.169735 -37.55625 
L 245.750711 -37.55625 
L 245.331688 -37.55625 
L 244.912665 -37.55625 
L 244.493641 -37.55625 
L 244.074618 -37.55625 
L 243.655594 -37.55625 
L 243.236571 -37.55625 
L 242.817545 -37.55625 
L 242.398522 -37.55625 
L 241.979498 -37.55625 
L 241.560475 -37.55625 
L 241.141449 -37.55625 
L 240.722426 -37.55625 
L 240.303402 -37.55625 
L 239.884379 -37.55625 
L 239.465353 -37.55625 
L 239.04633 -37.55625 
L 238.627306 -37.55625 
L 238.208283 -37.55625 
L 237.78926 -37.55625 
L 237.370236 -37.55625 
L 236.951213 -37.55625 
L 236.532189 -37.55625 
L 236.113164 -37.55625 
L 235.69414 -37.55625 
L 235.275117 -37.55625 
L 234.856093 -37.55625 
L 234.43707 -37.55625 
L 234.018044 -37.55625 
L 233.599021 -37.55625 
L 233.179997 -37.55625 
z
" style="stroke: #8c564b; stroke-opacity: 0.5"/>
    </defs>
    <g clip-path="url(#pc8b7a1e7e3)">
     <use xlink:href="#m2920a56ada" x="0" y="226.194375" style="fill: #8c564b; fill-opacity: 0.5; stroke: #8c564b; stroke-opacity: 0.5"/>
    </g>
   </g>
   <g id="PolyCollection_7">
    <defs>
     <path id="mc676ddd24f" d="M 257.483373 -37.55625 
L 257.483373 -150.877564 
L 257.902402 -150.309659 
L 258.321425 -149.740438 
L 258.740449 -149.169937 
L 259.159472 -148.598265 
L 259.578495 -148.025439 
L 259.997519 -147.451568 
L 260.416542 -146.876687 
L 260.835565 -146.300905 
L 261.254594 -145.724249 
L 261.673617 -145.146809 
L 262.092641 -144.568648 
L 262.511664 -143.98982 
L 262.930687 -143.410397 
L 263.349711 -142.830443 
L 263.768734 -142.250038 
L 264.187757 -141.6692 
L 264.606786 -141.088029 
L 265.025804 -140.506587 
L 265.444828 -139.924929 
L 265.863851 -139.3431 
L 266.282874 -138.761181 
L 266.701898 -138.179208 
L 267.120921 -137.597262 
L 267.539945 -137.015397 
L 267.958973 -136.433649 
L 268.377996 -135.852099 
L 268.79702 -135.270784 
L 269.216043 -134.689784 
L 269.635066 -134.109126 
L 270.05409 -133.528874 
L 270.473113 -132.949091 
L 270.892137 -132.369812 
L 271.311165 -131.791092 
L 271.730188 -131.212994 
L 272.149212 -130.635563 
L 272.568235 -130.058835 
L 272.987258 -129.482864 
L 273.406282 -128.907722 
L 273.825305 -128.333409 
L 274.244329 -127.760024 
L 274.663357 -127.187568 
L 275.082375 -126.61613 
L 275.501399 -126.045711 
L 275.920422 -125.476363 
L 276.339445 -124.90817 
L 276.758469 -124.341112 
L 277.177492 -123.77527 
L 277.596516 -123.210682 
L 278.015544 -122.647364 
L 278.434567 -122.08538 
L 278.853591 -121.524774 
L 279.272614 -120.965566 
L 279.691638 -120.407781 
L 280.110661 -119.851493 
L 280.529684 -119.296692 
L 280.948708 -118.743458 
L 281.367736 -118.191784 
L 281.786754 -117.641741 
L 282.205778 -117.093338 
L 282.624801 -116.546603 
L 283.043825 -116.001589 
L 283.462848 -115.458314 
L 283.881871 -114.916806 
L 284.300895 -114.3771 
L 284.719923 -113.839196 
L 285.138946 -113.303185 
L 285.55797 -112.769035 
L 285.976993 -112.236801 
L 286.396017 -111.706494 
L 286.81504 -111.178162 
L 287.234063 -110.651798 
L 287.653087 -110.127454 
L 288.072115 -109.605133 
L 288.491138 -109.084884 
L 288.910162 -108.566699 
L 289.329185 -108.050623 
L 289.748209 -107.536643 
L 290.167232 -107.024821 
L 290.586255 -106.515166 
L 291.005279 -106.007679 
L 291.424307 -105.502372 
L 291.843326 -104.999306 
L 292.262349 -104.498456 
L 292.681372 -103.999873 
L 292.681372 -37.55625 
L 292.681372 -37.55625 
L 292.262349 -37.55625 
L 291.843326 -37.55625 
L 291.424307 -37.55625 
L 291.005279 -37.55625 
L 290.586255 -37.55625 
L 290.167232 -37.55625 
L 289.748209 -37.55625 
L 289.329185 -37.55625 
L 288.910162 -37.55625 
L 288.491138 -37.55625 
L 288.072115 -37.55625 
L 287.653087 -37.55625 
L 287.234063 -37.55625 
L 286.81504 -37.55625 
L 286.396017 -37.55625 
L 285.976993 -37.55625 
L 285.55797 -37.55625 
L 285.138946 -37.55625 
L 284.719923 -37.55625 
L 284.300895 -37.55625 
L 283.881871 -37.55625 
L 283.462848 -37.55625 
L 283.043825 -37.55625 
L 282.624801 -37.55625 
L 282.205778 -37.55625 
L 281.786754 -37.55625 
L 281.367736 -37.55625 
L 280.948708 -37.55625 
L 280.529684 -37.55625 
L 280.110661 -37.55625 
L 279.691638 -37.55625 
L 279.272614 -37.55625 
L 278.853591 -37.55625 
L 278.434567 -37.55625 
L 278.015544 -37.55625 
L 277.596516 -37.55625 
L 277.177492 -37.55625 
L 276.758469 -37.55625 
L 276.339445 -37.55625 
L 275.920422 -37.55625 
L 275.501399 -37.55625 
L 275.082375 -37.55625 
L 274.663357 -37.55625 
L 274.244329 -37.55625 
L 273.825305 -37.55625 
L 273.406282 -37.55625 
L 272.987258 -37.55625 
L 272.568235 -37.55625 
L 272.149212 -37.55625 
L 271.730188 -37.55625 
L 271.311165 -37.55625 
L 270.892137 -37.55625 
L 270.473113 -37.55625 
L 270.05409 -37.55625 
L 269.635066 -37.55625 
L 269.216043 -37.55625 
L 268.79702 -37.55625 
L 268.377996 -37.55625 
L 267.958973 -37.55625 
L 267.539945 -37.55625 
L 267.120921 -37.55625 
L 266.701898 -37.55625 
L 266.282874 -37.55625 
L 265.863851 -37.55625 
L 265.444828 -37.55625 
L 265.025804 -37.55625 
L 264.606786 -37.55625 
L 264.187757 -37.55625 
L 263.768734 -37.55625 
L 263.349711 -37.55625 
L 262.930687 -37.55625 
L 262.511664 -37.55625 
L 262.092641 -37.55625 
L 261.673617 -37.55625 
L 261.254594 -37.55625 
L 260.835565 -37.55625 
L 260.416542 -37.55625 
L 259.997519 -37.55625 
L 259.578495 -37.55625 
L 259.159472 -37.55625 
L 258.740449 -37.55625 
L 258.321425 -37.55625 
L 257.902402 -37.55625 
L 257.483373 -37.55625 
z
" style="stroke: #e377c2; stroke-opacity: 0.5"/>
    </defs>
    <g clip-path="url(#pc8b7a1e7e3)">
     <use xlink:href="#mc676ddd24f" x="0" y="226.194375" style="fill: #e377c2; fill-opacity: 0.5; stroke: #e377c2; stroke-opacity: 0.5"/>
    </g>
   </g>
   <g id="PolyCollection_8">
    <defs>
     <path id="m32cb1aa068" d="M 293.100396 -37.55625 
L 293.100396 -103.503543 
L 293.519419 -103.009497 
L 293.938442 -102.517727 
L 294.357466 -102.028282 
L 294.776494 -101.541154 
L 295.195518 -101.056377 
L 295.614541 -100.57393 
L 296.033564 -100.093858 
L 296.452588 -99.616166 
L 296.871611 -99.140847 
L 297.290634 -98.667927 
L 297.709658 -98.197412 
L 298.128681 -97.729317 
L 298.547705 -97.263651 
L 298.966728 -96.8004 
L 299.385751 -96.339614 
L 299.804775 -95.881266 
L 300.223798 -95.425379 
L 300.642821 -94.971956 
L 301.061845 -94.521002 
L 301.480868 -94.072522 
L 301.899902 -93.626521 
L 302.318925 -93.18303 
L 302.737948 -92.742021 
L 303.156972 -92.3035 
L 303.575995 -91.867484 
L 303.995018 -91.433973 
L 304.414042 -91.002982 
L 304.833065 -90.574491 
L 305.252089 -90.14852 
L 305.671112 -89.725049 
L 306.090135 -89.304115 
L 306.509159 -88.885691 
L 306.928182 -88.469781 
L 307.347206 -88.056395 
L 307.766229 -87.645533 
L 308.185252 -87.23718 
L 308.604276 -86.83135 
L 309.023299 -86.42804 
L 309.442322 -86.027257 
L 309.861346 -85.628985 
L 310.280369 -85.233218 
L 310.699393 -84.839969 
L 311.118416 -84.449235 
L 311.537439 -84.060998 
L 311.956473 -83.675275 
L 312.375496 -83.292048 
L 312.794519 -82.911318 
L 313.213543 -82.533093 
L 313.632566 -82.15736 
L 314.05159 -81.7841 
L 314.470613 -81.413329 
L 314.889636 -81.045044 
L 315.30866 -80.679224 
L 315.727683 -80.31587 
L 316.146706 -79.95498 
L 316.56573 -79.596541 
L 316.984753 -79.240563 
L 317.403777 -78.887022 
L 317.8228 -78.535929 
L 318.241823 -78.18725 
L 318.660847 -77.841014 
L 319.07987 -77.497185 
L 319.498894 -77.155779 
L 319.917917 -76.816766 
L 320.33694 -76.480155 
L 320.755964 -76.145932 
L 321.174987 -75.814089 
L 321.59401 -75.48462 
L 322.013044 -75.157515 
L 322.432067 -74.832766 
L 322.851091 -74.510372 
L 323.270114 -74.190323 
L 323.689137 -73.872595 
L 324.108161 -73.557201 
L 324.527184 -73.244112 
L 324.946207 -72.933334 
L 325.365231 -72.624853 
L 325.784254 -72.318653 
L 326.203278 -72.014734 
L 326.622301 -71.713082 
L 327.041324 -71.413691 
L 327.460348 -71.116547 
L 327.879371 -70.821638 
L 328.298394 -70.528959 
L 328.717418 -70.238506 
L 329.136441 -69.950255 
L 329.555465 -69.664202 
L 329.974488 -69.38034 
L 330.393511 -69.098652 
L 330.812535 -68.819135 
L 331.231558 -68.541769 
L 331.650582 -68.266558 
L 332.069615 -67.993472 
L 332.488638 -67.72251 
L 332.907662 -67.453671 
L 333.326685 -67.18693 
L 333.745708 -66.922281 
L 334.164732 -66.659719 
L 334.583755 -66.399223 
L 335.002779 -66.140786 
L 335.421802 -65.884393 
L 335.840825 -65.630046 
L 336.259849 -65.377717 
L 336.678872 -65.1274 
L 337.097895 -64.879095 
L 337.516919 -64.632773 
L 337.935942 -64.388436 
L 338.354966 -64.146071 
L 338.773989 -63.905661 
L 339.193012 -63.667193 
L 339.612036 -63.430662 
L 340.031059 -63.196054 
L 340.450082 -62.963361 
L 340.869106 -62.732564 
L 341.288129 -62.503661 
L 341.707153 -62.276627 
L 342.126176 -62.051468 
L 342.545199 -61.828161 
L 342.964223 -61.606694 
L 343.383246 -61.387058 
L 343.80227 -61.169246 
L 344.221293 -60.953234 
L 344.640316 -60.739027 
L 345.05934 -60.5266 
L 345.478373 -60.315941 
L 345.897396 -60.107054 
L 346.31642 -59.899913 
L 346.735443 -59.694515 
L 347.154467 -59.490845 
L 347.57349 -59.288886 
L 347.992513 -59.088635 
L 348.411537 -58.890075 
L 348.83056 -58.693198 
L 349.249583 -58.497991 
L 349.668607 -58.304447 
L 350.08763 -58.112546 
L 350.506654 -57.922284 
L 350.925677 -57.733647 
L 351.3447 -57.546623 
L 351.763724 -57.361203 
L 352.182747 -57.177374 
L 352.60177 -56.995122 
L 353.020794 -56.814445 
L 353.439817 -56.635318 
L 353.858841 -56.457746 
L 354.277864 -56.281706 
L 354.696887 -56.10719 
L 355.115911 -55.934187 
L 355.534944 -55.762684 
L 355.953968 -55.592677 
L 356.372991 -55.424149 
L 356.792014 -55.257094 
L 357.211038 -55.0915 
L 357.630061 -54.927351 
L 358.049084 -54.764638 
L 358.468108 -54.603354 
L 358.887131 -54.44349 
L 359.306155 -54.285028 
L 359.725178 -54.127959 
L 360.144201 -53.972279 
L 360.563225 -53.817971 
L 360.982248 -53.665026 
L 361.401271 -53.513441 
L 361.820295 -53.36319 
L 362.239318 -53.21428 
L 362.658342 -53.066687 
L 363.077365 -52.920408 
L 363.496388 -52.77543 
L 363.915412 -52.631744 
L 364.334435 -52.489343 
L 364.753458 -52.348214 
L 365.172482 -52.208345 
L 365.591515 -52.069725 
L 366.010539 -51.93235 
L 366.429562 -51.796209 
L 366.848585 -51.66129 
L 367.267609 -51.527587 
L 367.686632 -51.395085 
L 368.105656 -51.263777 
L 368.524679 -51.133654 
L 368.943702 -51.004705 
L 369.362726 -50.876921 
L 369.781749 -50.750293 
L 370.200772 -50.624814 
L 370.619796 -50.500472 
L 371.038819 -50.377256 
L 371.457843 -50.255161 
L 371.876866 -50.134174 
L 372.295889 -50.01429 
L 372.714913 -49.895495 
L 373.133936 -49.777787 
L 373.552959 -49.661149 
L 373.971983 -49.54558 
L 374.391006 -49.431065 
L 374.81003 -49.317595 
L 375.229053 -49.205167 
L 375.648086 -49.093766 
L 376.06711 -48.983392 
L 376.486133 -48.874029 
L 376.905156 -48.765669 
L 377.32418 -48.658306 
L 377.743203 -48.551931 
L 378.162227 -48.446538 
L 378.58125 -48.342115 
L 378.58125 -37.55625 
L 378.58125 -37.55625 
L 378.162227 -37.55625 
L 377.743203 -37.55625 
L 377.32418 -37.55625 
L 376.905156 -37.55625 
L 376.486133 -37.55625 
L 376.06711 -37.55625 
L 375.648086 -37.55625 
L 375.229053 -37.55625 
L 374.81003 -37.55625 
L 374.391006 -37.55625 
L 373.971983 -37.55625 
L 373.552959 -37.55625 
L 373.133936 -37.55625 
L 372.714913 -37.55625 
L 372.295889 -37.55625 
L 371.876866 -37.55625 
L 371.457843 -37.55625 
L 371.038819 -37.55625 
L 370.619796 -37.55625 
L 370.200772 -37.55625 
L 369.781749 -37.55625 
L 369.362726 -37.55625 
L 368.943702 -37.55625 
L 368.524679 -37.55625 
L 368.105656 -37.55625 
L 367.686632 -37.55625 
L 367.267609 -37.55625 
L 366.848585 -37.55625 
L 366.429562 -37.55625 
L 366.010539 -37.55625 
L 365.591515 -37.55625 
L 365.172482 -37.55625 
L 364.753458 -37.55625 
L 364.334435 -37.55625 
L 363.915412 -37.55625 
L 363.496388 -37.55625 
L 363.077365 -37.55625 
L 362.658342 -37.55625 
L 362.239318 -37.55625 
L 361.820295 -37.55625 
L 361.401271 -37.55625 
L 360.982248 -37.55625 
L 360.563225 -37.55625 
L 360.144201 -37.55625 
L 359.725178 -37.55625 
L 359.306155 -37.55625 
L 358.887131 -37.55625 
L 358.468108 -37.55625 
L 358.049084 -37.55625 
L 357.630061 -37.55625 
L 357.211038 -37.55625 
L 356.792014 -37.55625 
L 356.372991 -37.55625 
L 355.953968 -37.55625 
L 355.534944 -37.55625 
L 355.115911 -37.55625 
L 354.696887 -37.55625 
L 354.277864 -37.55625 
L 353.858841 -37.55625 
L 353.439817 -37.55625 
L 353.020794 -37.55625 
L 352.60177 -37.55625 
L 352.182747 -37.55625 
L 351.763724 -37.55625 
L 351.3447 -37.55625 
L 350.925677 -37.55625 
L 350.506654 -37.55625 
L 350.08763 -37.55625 
L 349.668607 -37.55625 
L 349.249583 -37.55625 
L 348.83056 -37.55625 
L 348.411537 -37.55625 
L 347.992513 -37.55625 
L 347.57349 -37.55625 
L 347.154467 -37.55625 
L 346.735443 -37.55625 
L 346.31642 -37.55625 
L 345.897396 -37.55625 
L 345.478373 -37.55625 
L 345.05934 -37.55625 
L 344.640316 -37.55625 
L 344.221293 -37.55625 
L 343.80227 -37.55625 
L 343.383246 -37.55625 
L 342.964223 -37.55625 
L 342.545199 -37.55625 
L 342.126176 -37.55625 
L 341.707153 -37.55625 
L 341.288129 -37.55625 
L 340.869106 -37.55625 
L 340.450082 -37.55625 
L 340.031059 -37.55625 
L 339.612036 -37.55625 
L 339.193012 -37.55625 
L 338.773989 -37.55625 
L 338.354966 -37.55625 
L 337.935942 -37.55625 
L 337.516919 -37.55625 
L 337.097895 -37.55625 
L 336.678872 -37.55625 
L 336.259849 -37.55625 
L 335.840825 -37.55625 
L 335.421802 -37.55625 
L 335.002779 -37.55625 
L 334.583755 -37.55625 
L 334.164732 -37.55625 
L 333.745708 -37.55625 
L 333.326685 -37.55625 
L 332.907662 -37.55625 
L 332.488638 -37.55625 
L 332.069615 -37.55625 
L 331.650582 -37.55625 
L 331.231558 -37.55625 
L 330.812535 -37.55625 
L 330.393511 -37.55625 
L 329.974488 -37.55625 
L 329.555465 -37.55625 
L 329.136441 -37.55625 
L 328.717418 -37.55625 
L 328.298394 -37.55625 
L 327.879371 -37.55625 
L 327.460348 -37.55625 
L 327.041324 -37.55625 
L 326.622301 -37.55625 
L 326.203278 -37.55625 
L 325.784254 -37.55625 
L 325.365231 -37.55625 
L 324.946207 -37.55625 
L 324.527184 -37.55625 
L 324.108161 -37.55625 
L 323.689137 -37.55625 
L 323.270114 -37.55625 
L 322.851091 -37.55625 
L 322.432067 -37.55625 
L 322.013044 -37.55625 
L 321.59401 -37.55625 
L 321.174987 -37.55625 
L 320.755964 -37.55625 
L 320.33694 -37.55625 
L 319.917917 -37.55625 
L 319.498894 -37.55625 
L 319.07987 -37.55625 
L 318.660847 -37.55625 
L 318.241823 -37.55625 
L 317.8228 -37.55625 
L 317.403777 -37.55625 
L 316.984753 -37.55625 
L 316.56573 -37.55625 
L 316.146706 -37.55625 
L 315.727683 -37.55625 
L 315.30866 -37.55625 
L 314.889636 -37.55625 
L 314.470613 -37.55625 
L 314.05159 -37.55625 
L 313.632566 -37.55625 
L 313.213543 -37.55625 
L 312.794519 -37.55625 
L 312.375496 -37.55625 
L 311.956473 -37.55625 
L 311.537439 -37.55625 
L 311.118416 -37.55625 
L 310.699393 -37.55625 
L 310.280369 -37.55625 
L 309.861346 -37.55625 
L 309.442322 -37.55625 
L 309.023299 -37.55625 
L 308.604276 -37.55625 
L 308.185252 -37.55625 
L 307.766229 -37.55625 
L 307.347206 -37.55625 
L 306.928182 -37.55625 
L 306.509159 -37.55625 
L 306.090135 -37.55625 
L 305.671112 -37.55625 
L 305.252089 -37.55625 
L 304.833065 -37.55625 
L 304.414042 -37.55625 
L 303.995018 -37.55625 
L 303.575995 -37.55625 
L 303.156972 -37.55625 
L 302.737948 -37.55625 
L 302.318925 -37.55625 
L 301.899902 -37.55625 
L 301.480868 -37.55625 
L 301.061845 -37.55625 
L 300.642821 -37.55625 
L 300.223798 -37.55625 
L 299.804775 -37.55625 
L 299.385751 -37.55625 
L 298.966728 -37.55625 
L 298.547705 -37.55625 
L 298.128681 -37.55625 
L 297.709658 -37.55625 
L 297.290634 -37.55625 
L 296.871611 -37.55625 
L 296.452588 -37.55625 
L 296.033564 -37.55625 
L 295.614541 -37.55625 
L 295.195518 -37.55625 
L 294.776494 -37.55625 
L 294.357466 -37.55625 
L 293.938442 -37.55625 
L 293.519419 -37.55625 
L 293.100396 -37.55625 
z
" style="stroke: #7f7f7f; stroke-opacity: 0.5"/>
    </defs>
    <g clip-path="url(#pc8b7a1e7e3)">
     <use xlink:href="#m32cb1aa068" x="0" y="226.194375" style="fill: #7f7f7f; fill-opacity: 0.5; stroke: #7f7f7f; stroke-opacity: 0.5"/>
    </g>
   </g>
   <g id="line2d_1">
    <path d="M 43.78125 188.638125 
L 43.78125 177.955718 
" clip-path="url(#pc8b7a1e7e3)" style="fill: none; stroke: #1f77b4; stroke-width: 1.5; stroke-linecap: round"/>
   </g>
   <g id="line2d_2">
    <path d="M 129.681123 188.638125 
L 129.681123 122.69085 
" clip-path="url(#pc8b7a1e7e3)" style="fill: none; stroke: #1f77b4; stroke-width: 1.5; stroke-linecap: round"/>
   </g>
   <g id="line2d_3">
    <path d="M 130.100146 188.638125 
L 130.100146 122.194516 
" clip-path="url(#pc8b7a1e7e3)" style="fill: none; stroke: #ff7f0e; stroke-width: 1.5; stroke-linecap: round"/>
   </g>
   <g id="line2d_4">
    <path d="M 165.298145 188.638125 
L 165.298145 75.316811 
" clip-path="url(#pc8b7a1e7e3)" style="fill: none; stroke: #ff7f0e; stroke-width: 1.5; stroke-linecap: round"/>
   </g>
   <g id="line2d_5">
    <path d="M 165.717168 188.638125 
L 165.717168 74.750347 
" clip-path="url(#pc8b7a1e7e3)" style="fill: none; stroke: #2ca02c; stroke-width: 1.5; stroke-linecap: round"/>
   </g>
   <g id="line2d_6">
    <path d="M 189.601526 188.638125 
L 189.601526 47.215647 
" clip-path="url(#pc8b7a1e7e3)" style="fill: none; stroke: #2ca02c; stroke-width: 1.5; stroke-linecap: round"/>
   </g>
   <g id="line2d_7">
    <path d="M 190.020549 188.638125 
L 190.020549 46.85888 
" clip-path="url(#pc8b7a1e7e3)" style="fill: none; stroke: #d62728; stroke-width: 1.5; stroke-linecap: round"/>
   </g>
   <g id="line2d_8">
    <path d="M 210.971738 188.638125 
L 210.971738 37.44191 
" clip-path="url(#pc8b7a1e7e3)" style="fill: none; stroke: #d62728; stroke-width: 1.5; stroke-linecap: round"/>
   </g>
   <g id="line2d_9">
    <path d="M 211.390762 188.638125 
L 211.390762 37.438125 
" clip-path="url(#pc8b7a1e7e3)" style="fill: none; stroke: #9467bd; stroke-width: 1.5; stroke-linecap: round"/>
   </g>
   <g id="line2d_10">
    <path d="M 232.760974 188.638125 
L 232.760974 46.85888 
" clip-path="url(#pc8b7a1e7e3)" style="fill: none; stroke: #9467bd; stroke-width: 1.5; stroke-linecap: round"/>
   </g>
   <g id="line2d_11">
    <path d="M 233.179997 188.638125 
L 233.179997 47.215665 
" clip-path="url(#pc8b7a1e7e3)" style="fill: none; stroke: #8c564b; stroke-width: 1.5; stroke-linecap: round"/>
   </g>
   <g id="line2d_12">
    <path d="M 257.06435 188.638125 
L 257.06435 74.750338 
" clip-path="url(#pc8b7a1e7e3)" style="fill: none; stroke: #8c564b; stroke-width: 1.5; stroke-linecap: round"/>
   </g>
   <g id="line2d_13">
    <path d="M 257.483373 188.638125 
L 257.483373 75.316811 
" clip-path="url(#pc8b7a1e7e3)" style="fill: none; stroke: #e377c2; stroke-width: 1.5; stroke-linecap: round"/>
   </g>
   <g id="line2d_14">
    <path d="M 292.681372 188.638125 
L 292.681372 122.194502 
" clip-path="url(#pc8b7a1e7e3)" style="fill: none; stroke: #e377c2; stroke-width: 1.5; stroke-linecap: round"/>
   </g>
   <g id="line2d_15">
    <path d="M 293.100396 188.638125 
L 293.100396 122.690832 
" clip-path="url(#pc8b7a1e7e3)" style="fill: none; stroke: #7f7f7f; stroke-width: 1.5; stroke-linecap: round"/>
   </g>
   <g id="line2d_16">
    <path d="M 378.58125 188.638125 
L 378.58125 177.85226 
" clip-path="url(#pc8b7a1e7e3)" style="fill: none; stroke: #7f7f7f; stroke-width: 1.5; stroke-linecap: round"/>
   </g>
   <g id="line2d_17">
    <path d="M 43.78125 177.955718 
L 50.066601 176.29888 
L 55.932938 174.533085 
L 61.799275 172.529344 
L 67.246579 170.431691 
L 72.27487 168.272087 
L 77.30315 165.878427 
L 82.331441 163.231008 
L 86.940698 160.564336 
L 91.549955 157.652606 
L 96.159222 154.481293 
L 100.76848 151.036869 
L 105.377747 147.307362 
L 109.987004 143.283057 
L 114.596271 138.957195 
L 119.205528 134.326878 
L 123.814785 129.393975 
L 128.843076 123.676666 
L 133.871367 117.627676 
L 139.31867 110.736061 
L 145.604026 102.419105 
L 153.984504 90.923591 
L 167.393267 72.499923 
L 172.840576 65.405944 
L 177.449835 59.758912 
L 181.221048 55.457045 
L 184.992264 51.501572 
L 188.344453 48.319897 
L 191.277621 45.823403 
L 194.210787 43.618437 
L 196.72493 41.975707 
L 199.239072 40.573072 
L 201.753215 39.420237 
L 204.267357 38.525305 
L 206.7815 37.894567 
L 209.295643 37.5326 
L 211.390762 37.438125 
L 213.485881 37.532582 
L 215.581 37.815503 
L 218.095142 38.401676 
L 220.609285 39.252988 
L 223.123428 40.363339 
L 225.63757 41.724978 
L 228.151713 43.328423 
L 231.084879 45.490077 
L 234.018044 47.946232 
L 236.951213 50.675079 
L 240.303402 54.097353 
L 244.074618 58.289893 
L 248.264854 63.3087 
L 252.874114 69.178802 
L 258.740449 77.024438 
L 268.79702 90.923591 
L 278.434567 104.108995 
L 284.719923 112.355179 
L 290.586255 119.679209 
L 295.614541 125.620445 
L 300.642821 131.222419 
L 305.252089 136.045855 
L 309.861346 140.56539 
L 314.470613 144.781046 
L 319.07987 148.69719 
L 323.689137 152.32178 
L 328.298394 155.665416 
L 332.907662 158.740704 
L 337.516919 161.561602 
L 342.545199 164.366214 
L 347.57349 166.905489 
L 352.60177 169.199253 
L 358.049084 171.429737 
L 363.496388 173.418945 
L 369.362726 175.317454 
L 375.229053 176.989208 
L 378.58125 177.85226 
L 378.58125 177.85226 
" clip-path="url(#pc8b7a1e7e3)" style="fill: none; stroke: #000000; stroke-width: 1.5; stroke-linecap: round"/>
   </g>
   <g id="patch_3">
    <path d="M 43.78125 188.638125 
L 43.78125 22.318125 
" style="fill: none; stroke: #262626; stroke-width: 0.8; stroke-linejoin: miter; stroke-linecap: square"/>
   </g>
   <g id="patch_4">
    <path d="M 378.58125 188.638125 
L 378.58125 22.318125 
" style="fill: none; stroke: #262626; stroke-width: 0.8; stroke-linejoin: miter; stroke-linecap: square"/>
   </g>
   <g id="patch_5">
    <path d="M 43.78125 188.638125 
L 378.58125 188.638125 
" style="fill: none; stroke: #262626; stroke-width: 0.8; stroke-linejoin: miter; stroke-linecap: square"/>
   </g>
   <g id="patch_6">
    <path d="M 43.78125 22.318125 
L 378.58125 22.318125 
" style="fill: none; stroke: #262626; stroke-width: 0.8; stroke-linejoin: miter; stroke-linecap: square"/>
   </g>
   <g id="text_17">
    <!-- Dequantization distribution for 8 discrete values -->
    <g style="fill: #262626" transform="translate(66.164062 16.318125)scale(0.12 -0.12)">
     <defs>
      <path id="DejaVuSans-44" d="M 1259 4147 
L 1259 519 
L 2022 519 
Q 2988 519 3436 956 
Q 3884 1394 3884 2338 
Q 3884 3275 3436 3711 
Q 2988 4147 2022 4147 
L 1259 4147 
z
M 628 4666 
L 1925 4666 
Q 3281 4666 3915 4102 
Q 4550 3538 4550 2338 
Q 4550 1131 3912 565 
Q 3275 0 1925 0 
L 628 0 
L 628 4666 
z
" transform="scale(0.015625)"/>
      <path id="DejaVuSans-65" d="M 3597 1894 
L 3597 1613 
L 953 1613 
Q 991 1019 1311 708 
Q 1631 397 2203 397 
Q 2534 397 2845 478 
Q 3156 559 3463 722 
L 3463 178 
Q 3153 47 2828 -22 
Q 2503 -91 2169 -91 
Q 1331 -91 842 396 
Q 353 884 353 1716 
Q 353 2575 817 3079 
Q 1281 3584 2069 3584 
Q 2775 3584 3186 3129 
Q 3597 2675 3597 1894 
z
M 3022 2063 
Q 3016 2534 2758 2815 
Q 2500 3097 2075 3097 
Q 1594 3097 1305 2825 
Q 1016 2553 972 2059 
L 3022 2063 
z
" transform="scale(0.015625)"/>
      <path id="DejaVuSans-71" d="M 947 1747 
Q 947 1113 1208 752 
Q 1469 391 1925 391 
Q 2381 391 2643 752 
Q 2906 1113 2906 1747 
Q 2906 2381 2643 2742 
Q 2381 3103 1925 3103 
Q 1469 3103 1208 2742 
Q 947 2381 947 1747 
z
M 2906 525 
Q 2725 213 2448 61 
Q 2172 -91 1784 -91 
Q 1150 -91 751 415 
Q 353 922 353 1747 
Q 353 2572 751 3078 
Q 1150 3584 1784 3584 
Q 2172 3584 2448 3432 
Q 2725 3281 2906 2969 
L 2906 3500 
L 3481 3500 
L 3481 -1331 
L 2906 -1331 
L 2906 525 
z
" transform="scale(0.015625)"/>
      <path id="DejaVuSans-75" d="M 544 1381 
L 544 3500 
L 1119 3500 
L 1119 1403 
Q 1119 906 1312 657 
Q 1506 409 1894 409 
Q 2359 409 2629 706 
Q 2900 1003 2900 1516 
L 2900 3500 
L 3475 3500 
L 3475 0 
L 2900 0 
L 2900 538 
Q 2691 219 2414 64 
Q 2138 -91 1772 -91 
Q 1169 -91 856 284 
Q 544 659 544 1381 
z
M 1991 3584 
L 1991 3584 
z
" transform="scale(0.015625)"/>
      <path id="DejaVuSans-6e" d="M 3513 2113 
L 3513 0 
L 2938 0 
L 2938 2094 
Q 2938 2591 2744 2837 
Q 2550 3084 2163 3084 
Q 1697 3084 1428 2787 
Q 1159 2491 1159 1978 
L 1159 0 
L 581 0 
L 581 3500 
L 1159 3500 
L 1159 2956 
Q 1366 3272 1645 3428 
Q 1925 3584 2291 3584 
Q 2894 3584 3203 3211 
Q 3513 2838 3513 2113 
z
" transform="scale(0.015625)"/>
      <path id="DejaVuSans-20" transform="scale(0.015625)"/>
      <path id="DejaVuSans-64" d="M 2906 2969 
L 2906 4863 
L 3481 4863 
L 3481 0 
L 2906 0 
L 2906 525 
Q 2725 213 2448 61 
Q 2172 -91 1784 -91 
Q 1150 -91 751 415 
Q 353 922 353 1747 
Q 353 2572 751 3078 
Q 1150 3584 1784 3584 
Q 2172 3584 2448 3432 
Q 2725 3281 2906 2969 
z
M 947 1747 
Q 947 1113 1208 752 
Q 1469 391 1925 391 
Q 2381 391 2643 752 
Q 2906 1113 2906 1747 
Q 2906 2381 2643 2742 
Q 2381 3103 1925 3103 
Q 1469 3103 1208 2742 
Q 947 2381 947 1747 
z
" transform="scale(0.015625)"/>
      <path id="DejaVuSans-73" d="M 2834 3397 
L 2834 2853 
Q 2591 2978 2328 3040 
Q 2066 3103 1784 3103 
Q 1356 3103 1142 2972 
Q 928 2841 928 2578 
Q 928 2378 1081 2264 
Q 1234 2150 1697 2047 
L 1894 2003 
Q 2506 1872 2764 1633 
Q 3022 1394 3022 966 
Q 3022 478 2636 193 
Q 2250 -91 1575 -91 
Q 1294 -91 989 -36 
Q 684 19 347 128 
L 347 722 
Q 666 556 975 473 
Q 1284 391 1588 391 
Q 1994 391 2212 530 
Q 2431 669 2431 922 
Q 2431 1156 2273 1281 
Q 2116 1406 1581 1522 
L 1381 1569 
Q 847 1681 609 1914 
Q 372 2147 372 2553 
Q 372 3047 722 3315 
Q 1072 3584 1716 3584 
Q 2034 3584 2315 3537 
Q 2597 3491 2834 3397 
z
" transform="scale(0.015625)"/>
      <path id="DejaVuSans-66" d="M 2375 4863 
L 2375 4384 
L 1825 4384 
Q 1516 4384 1395 4259 
Q 1275 4134 1275 3809 
L 1275 3500 
L 2222 3500 
L 2222 3053 
L 1275 3053 
L 1275 0 
L 697 0 
L 697 3053 
L 147 3053 
L 147 3500 
L 697 3500 
L 697 3744 
Q 697 4328 969 4595 
Q 1241 4863 1831 4863 
L 2375 4863 
z
" transform="scale(0.015625)"/>
      <path id="DejaVuSans-38" d="M 2034 2216 
Q 1584 2216 1326 1975 
Q 1069 1734 1069 1313 
Q 1069 891 1326 650 
Q 1584 409 2034 409 
Q 2484 409 2743 651 
Q 3003 894 3003 1313 
Q 3003 1734 2745 1975 
Q 2488 2216 2034 2216 
z
M 1403 2484 
Q 997 2584 770 2862 
Q 544 3141 544 3541 
Q 544 4100 942 4425 
Q 1341 4750 2034 4750 
Q 2731 4750 3128 4425 
Q 3525 4100 3525 3541 
Q 3525 3141 3298 2862 
Q 3072 2584 2669 2484 
Q 3125 2378 3379 2068 
Q 3634 1759 3634 1313 
Q 3634 634 3220 271 
Q 2806 -91 2034 -91 
Q 1263 -91 848 271 
Q 434 634 434 1313 
Q 434 1759 690 2068 
Q 947 2378 1403 2484 
z
M 1172 3481 
Q 1172 3119 1398 2916 
Q 1625 2713 2034 2713 
Q 2441 2713 2670 2916 
Q 2900 3119 2900 3481 
Q 2900 3844 2670 4047 
Q 2441 4250 2034 4250 
Q 1625 4250 1398 4047 
Q 1172 3844 1172 3481 
z
" transform="scale(0.015625)"/>
      <path id="DejaVuSans-63" d="M 3122 3366 
L 3122 2828 
Q 2878 2963 2633 3030 
Q 2388 3097 2138 3097 
Q 1578 3097 1268 2742 
Q 959 2388 959 1747 
Q 959 1106 1268 751 
Q 1578 397 2138 397 
Q 2388 397 2633 464 
Q 2878 531 3122 666 
L 3122 134 
Q 2881 22 2623 -34 
Q 2366 -91 2075 -91 
Q 1284 -91 818 406 
Q 353 903 353 1747 
Q 353 2603 823 3093 
Q 1294 3584 2113 3584 
Q 2378 3584 2631 3529 
Q 2884 3475 3122 3366 
z
" transform="scale(0.015625)"/>
      <path id="DejaVuSans-76" d="M 191 3500 
L 800 3500 
L 1894 563 
L 2988 3500 
L 3597 3500 
L 2284 0 
L 1503 0 
L 191 3500 
z
" transform="scale(0.015625)"/>
     </defs>
     <use xlink:href="#DejaVuSans-44"/>
     <use xlink:href="#DejaVuSans-65" x="77.001953"/>
     <use xlink:href="#DejaVuSans-71" x="138.525391"/>
     <use xlink:href="#DejaVuSans-75" x="202.001953"/>
     <use xlink:href="#DejaVuSans-61" x="265.380859"/>
     <use xlink:href="#DejaVuSans-6e" x="326.660156"/>
     <use xlink:href="#DejaVuSans-74" x="390.039062"/>
     <use xlink:href="#DejaVuSans-69" x="429.248047"/>
     <use xlink:href="#DejaVuSans-7a" x="457.03125"/>
     <use xlink:href="#DejaVuSans-61" x="509.521484"/>
     <use xlink:href="#DejaVuSans-74" x="570.800781"/>
     <use xlink:href="#DejaVuSans-69" x="610.009766"/>
     <use xlink:href="#DejaVuSans-6f" x="637.792969"/>
     <use xlink:href="#DejaVuSans-6e" x="698.974609"/>
     <use xlink:href="#DejaVuSans-20" x="762.353516"/>
     <use xlink:href="#DejaVuSans-64" x="794.140625"/>
     <use xlink:href="#DejaVuSans-69" x="857.617188"/>
     <use xlink:href="#DejaVuSans-73" x="885.400391"/>
     <use xlink:href="#DejaVuSans-74" x="937.5"/>
     <use xlink:href="#DejaVuSans-72" x="976.708984"/>
     <use xlink:href="#DejaVuSans-69" x="1017.822266"/>
     <use xlink:href="#DejaVuSans-62" x="1045.605469"/>
     <use xlink:href="#DejaVuSans-75" x="1109.082031"/>
     <use xlink:href="#DejaVuSans-74" x="1172.460938"/>
     <use xlink:href="#DejaVuSans-69" x="1211.669922"/>
     <use xlink:href="#DejaVuSans-6f" x="1239.453125"/>
     <use xlink:href="#DejaVuSans-6e" x="1300.634766"/>
     <use xlink:href="#DejaVuSans-20" x="1364.013672"/>
     <use xlink:href="#DejaVuSans-66" x="1395.800781"/>
     <use xlink:href="#DejaVuSans-6f" x="1431.005859"/>
     <use xlink:href="#DejaVuSans-72" x="1492.1875"/>
     <use xlink:href="#DejaVuSans-20" x="1533.300781"/>
     <use xlink:href="#DejaVuSans-38" x="1565.087891"/>
     <use xlink:href="#DejaVuSans-20" x="1628.710938"/>
     <use xlink:href="#DejaVuSans-64" x="1660.498047"/>
     <use xlink:href="#DejaVuSans-69" x="1723.974609"/>
     <use xlink:href="#DejaVuSans-73" x="1751.757812"/>
     <use xlink:href="#DejaVuSans-63" x="1803.857422"/>
     <use xlink:href="#DejaVuSans-72" x="1858.837891"/>
     <use xlink:href="#DejaVuSans-65" x="1897.701172"/>
     <use xlink:href="#DejaVuSans-74" x="1959.224609"/>
     <use xlink:href="#DejaVuSans-65" x="1998.433594"/>
     <use xlink:href="#DejaVuSans-20" x="2059.957031"/>
     <use xlink:href="#DejaVuSans-76" x="2091.744141"/>
     <use xlink:href="#DejaVuSans-61" x="2150.923828"/>
     <use xlink:href="#DejaVuSans-6c" x="2212.203125"/>
     <use xlink:href="#DejaVuSans-75" x="2239.986328"/>
     <use xlink:href="#DejaVuSans-65" x="2303.365234"/>
     <use xlink:href="#DejaVuSans-73" x="2364.888672"/>
    </g>
   </g>
   <g id="legend_1">
    <g id="patch_7">
     <path d="M 333.21875 147.743125 
L 371.58125 147.743125 
Q 373.58125 147.743125 373.58125 145.743125 
L 373.58125 29.318125 
Q 373.58125 27.318125 371.58125 27.318125 
L 333.21875 27.318125 
Q 331.21875 27.318125 331.21875 29.318125 
L 331.21875 145.743125 
Q 331.21875 147.743125 333.21875 147.743125 
z
" style="fill: #ffffff; opacity: 0.8; stroke: #cccccc; stroke-linejoin: miter"/>
    </g>
    <g id="patch_8">
     <path d="M 335.21875 38.916562 
L 355.21875 38.916562 
L 355.21875 31.916562 
L 335.21875 31.916562 
z
" style="fill: #1f77b4; fill-opacity: 0.5; stroke: #1f77b4; stroke-opacity: 0.5; stroke-linejoin: miter"/>
    </g>
    <g id="text_18">
     <!-- 0 -->
     <g style="fill: #262626" transform="translate(363.21875 38.916562)scale(0.1 -0.1)">
      <use xlink:href="#DejaVuSans-30"/>
     </g>
    </g>
    <g id="patch_9">
     <path d="M 335.21875 53.594688 
L 355.21875 53.594688 
L 355.21875 46.594688 
L 335.21875 46.594688 
z
" style="fill: #ff7f0e; fill-opacity: 0.5; stroke: #ff7f0e; stroke-opacity: 0.5; stroke-linejoin: miter"/>
    </g>
    <g id="text_19">
     <!-- 1 -->
     <g style="fill: #262626" transform="translate(363.21875 53.594688)scale(0.1 -0.1)">
      <use xlink:href="#DejaVuSans-31"/>
     </g>
    </g>
    <g id="patch_10">
     <path d="M 335.21875 68.272812 
L 355.21875 68.272812 
L 355.21875 61.272812 
L 335.21875 61.272812 
z
" style="fill: #2ca02c; fill-opacity: 0.5; stroke: #2ca02c; stroke-opacity: 0.5; stroke-linejoin: miter"/>
    </g>
    <g id="text_20">
     <!-- 2 -->
     <g style="fill: #262626" transform="translate(363.21875 68.272812)scale(0.1 -0.1)">
      <use xlink:href="#DejaVuSans-32"/>
     </g>
    </g>
    <g id="patch_11">
     <path d="M 335.21875 82.950938 
L 355.21875 82.950938 
L 355.21875 75.950938 
L 335.21875 75.950938 
z
" style="fill: #d62728; fill-opacity: 0.5; stroke: #d62728; stroke-opacity: 0.5; stroke-linejoin: miter"/>
    </g>
    <g id="text_21">
     <!-- 3 -->
     <g style="fill: #262626" transform="translate(363.21875 82.950938)scale(0.1 -0.1)">
      <defs>
       <path id="DejaVuSans-33" d="M 2597 2516 
Q 3050 2419 3304 2112 
Q 3559 1806 3559 1356 
Q 3559 666 3084 287 
Q 2609 -91 1734 -91 
Q 1441 -91 1130 -33 
Q 819 25 488 141 
L 488 750 
Q 750 597 1062 519 
Q 1375 441 1716 441 
Q 2309 441 2620 675 
Q 2931 909 2931 1356 
Q 2931 1769 2642 2001 
Q 2353 2234 1838 2234 
L 1294 2234 
L 1294 2753 
L 1863 2753 
Q 2328 2753 2575 2939 
Q 2822 3125 2822 3475 
Q 2822 3834 2567 4026 
Q 2313 4219 1838 4219 
Q 1578 4219 1281 4162 
Q 984 4106 628 3988 
L 628 4550 
Q 988 4650 1302 4700 
Q 1616 4750 1894 4750 
Q 2613 4750 3031 4423 
Q 3450 4097 3450 3541 
Q 3450 3153 3228 2886 
Q 3006 2619 2597 2516 
z
" transform="scale(0.015625)"/>
      </defs>
      <use xlink:href="#DejaVuSans-33"/>
     </g>
    </g>
    <g id="patch_12">
     <path d="M 335.21875 97.629063 
L 355.21875 97.629063 
L 355.21875 90.629063 
L 335.21875 90.629063 
z
" style="fill: #9467bd; fill-opacity: 0.5; stroke: #9467bd; stroke-opacity: 0.5; stroke-linejoin: miter"/>
    </g>
    <g id="text_22">
     <!-- 4 -->
     <g style="fill: #262626" transform="translate(363.21875 97.629063)scale(0.1 -0.1)">
      <use xlink:href="#DejaVuSans-34"/>
     </g>
    </g>
    <g id="patch_13">
     <path d="M 335.21875 112.307187 
L 355.21875 112.307187 
L 355.21875 105.307187 
L 335.21875 105.307187 
z
" style="fill: #8c564b; fill-opacity: 0.5; stroke: #8c564b; stroke-opacity: 0.5; stroke-linejoin: miter"/>
    </g>
    <g id="text_23">
     <!-- 5 -->
     <g style="fill: #262626" transform="translate(363.21875 112.307187)scale(0.1 -0.1)">
      <use xlink:href="#DejaVuSans-35"/>
     </g>
    </g>
    <g id="patch_14">
     <path d="M 335.21875 126.985312 
L 355.21875 126.985312 
L 355.21875 119.985312 
L 335.21875 119.985312 
z
" style="fill: #e377c2; fill-opacity: 0.5; stroke: #e377c2; stroke-opacity: 0.5; stroke-linejoin: miter"/>
    </g>
    <g id="text_24">
     <!-- 6 -->
     <g style="fill: #262626" transform="translate(363.21875 126.985312)scale(0.1 -0.1)">
      <defs>
       <path id="DejaVuSans-36" d="M 2113 2584 
Q 1688 2584 1439 2293 
Q 1191 2003 1191 1497 
Q 1191 994 1439 701 
Q 1688 409 2113 409 
Q 2538 409 2786 701 
Q 3034 994 3034 1497 
Q 3034 2003 2786 2293 
Q 2538 2584 2113 2584 
z
M 3366 4563 
L 3366 3988 
Q 3128 4100 2886 4159 
Q 2644 4219 2406 4219 
Q 1781 4219 1451 3797 
Q 1122 3375 1075 2522 
Q 1259 2794 1537 2939 
Q 1816 3084 2150 3084 
Q 2853 3084 3261 2657 
Q 3669 2231 3669 1497 
Q 3669 778 3244 343 
Q 2819 -91 2113 -91 
Q 1303 -91 875 529 
Q 447 1150 447 2328 
Q 447 3434 972 4092 
Q 1497 4750 2381 4750 
Q 2619 4750 2861 4703 
Q 3103 4656 3366 4563 
z
" transform="scale(0.015625)"/>
      </defs>
      <use xlink:href="#DejaVuSans-36"/>
     </g>
    </g>
    <g id="patch_15">
     <path d="M 335.21875 141.663437 
L 355.21875 141.663437 
L 355.21875 134.663437 
L 335.21875 134.663437 
z
" style="fill: #7f7f7f; fill-opacity: 0.5; stroke: #7f7f7f; stroke-opacity: 0.5; stroke-linejoin: miter"/>
    </g>
    <g id="text_25">
     <!-- 7 -->
     <g style="fill: #262626" transform="translate(363.21875 141.663437)scale(0.1 -0.1)">
      <defs>
       <path id="DejaVuSans-37" d="M 525 4666 
L 3525 4666 
L 3525 4397 
L 1831 0 
L 1172 0 
L 2766 4134 
L 525 4134 
L 525 4666 
z
" transform="scale(0.015625)"/>
      </defs>
      <use xlink:href="#DejaVuSans-37"/>
     </g>
    </g>
   </g>
  </g>
 </g>
 <defs>
  <clipPath id="pc8b7a1e7e3">
   <rect x="43.78125" y="22.318125" width="334.8" height="166.32"/>
  </clipPath>
 </defs>
</svg>
