<?xml version="1.0" encoding="utf-8" standalone="no"?>
<!DOCTYPE svg PUBLIC "-//W3C//DTD SVG 1.1//EN"
  "http://www.w3.org/Graphics/SVG/1.1/DTD/svg11.dtd">
<svg xmlns:xlink="http://www.w3.org/1999/xlink" width="599.393438pt" height="215.984063pt" viewBox="0 0 599.393438 215.984063" xmlns="http://www.w3.org/2000/svg" version="1.1">
 <metadata>
  <rdf:RDF xmlns:dc="http://purl.org/dc/elements/1.1/" xmlns:cc="http://creativecommons.org/ns#" xmlns:rdf="http://www.w3.org/1999/02/22-rdf-syntax-ns#">
   <cc:Work>
    <dc:type rdf:resource="http://purl.org/dc/dcmitype/StillImage"/>
    <dc:date>2024-09-01T12:12:00.591555</dc:date>
    <dc:format>image/svg+xml</dc:format>
    <dc:creator>
     <cc:Agent>
      <dc:title>Matplotlib v3.9.2, https://matplotlib.org/</dc:title>
     </cc:Agent>
    </dc:creator>
   </cc:Work>
  </rdf:RDF>
 </metadata>
 <defs>
  <style type="text/css">*{stroke-linejoin: round; stroke-linecap: butt}</style>
 </defs>
 <g id="figure_1">
  <g id="patch_1">
   <path d="M 0 215.984063 
L 599.393438 215.984063 
L 599.393438 0 
L 0 0 
z
" style="fill: #ffffff"/>
  </g>
  <g id="axes_1">
   <g id="patch_2">
    <path d="M 34.193438 188.638125 
L 592.193437 188.638125 
L 592.193437 22.318125 
L 34.193438 22.318125 
z
" style="fill: #eaeaf2"/>
   </g>
   <g id="matplotlib.axis_1">
    <g id="xtick_1">
     <g id="line2d_1">
      <path d="M 105.64056 188.638125 
L 105.64056 22.318125 
" clip-path="url(#pc73ba281f6)" style="fill: none; stroke: #ffffff; stroke-linecap: round"/>
     </g>
     <g id="text_1">
      <!-- −10 -->
      <g style="fill: #262626" transform="translate(94.032982 206.496406) scale(0.11 -0.11)">
       <defs>
        <path id="DejaVuSans-2212" d="M 678 2272 
L 4684 2272 
L 4684 1741 
L 678 1741 
L 678 2272 
z
" transform="scale(0.015625)"/>
        <path id="DejaVuSans-31" d="M 794 531 
L 1825 531 
L 1825 4091 
L 703 3866 
L 703 4441 
L 1819 4666 
L 2450 4666 
L 2450 531 
L 3481 531 
L 3481 0 
L 794 0 
L 794 531 
z
" transform="scale(0.015625)"/>
        <path id="DejaVuSans-30" d="M 2034 4250 
Q 1547 4250 1301 3770 
Q 1056 3291 1056 2328 
Q 1056 1369 1301 889 
Q 1547 409 2034 409 
Q 2525 409 2770 889 
Q 3016 1369 3016 2328 
Q 3016 3291 2770 3770 
Q 2525 4250 2034 4250 
z
M 2034 4750 
Q 2819 4750 3233 4129 
Q 3647 3509 3647 2328 
Q 3647 1150 3233 529 
Q 2819 -91 2034 -91 
Q 1250 -91 836 529 
Q 422 1150 422 2328 
Q 422 3509 836 4129 
Q 1250 4750 2034 4750 
z
" transform="scale(0.015625)"/>
       </defs>
       <use xlink:href="#DejaVuSans-2212"/>
       <use xlink:href="#DejaVuSans-31" x="83.789062"/>
       <use xlink:href="#DejaVuSans-30" x="147.412109"/>
      </g>
     </g>
    </g>
    <g id="xtick_2">
     <g id="line2d_2">
      <path d="M 210.215968 188.638125 
L 210.215968 22.318125 
" clip-path="url(#pc73ba281f6)" style="fill: none; stroke: #ffffff; stroke-linecap: round"/>
     </g>
     <g id="text_2">
      <!-- −5 -->
      <g style="fill: #262626" transform="translate(202.107764 206.496406) scale(0.11 -0.11)">
       <defs>
        <path id="DejaVuSans-35" d="M 691 4666 
L 3169 4666 
L 3169 4134 
L 1269 4134 
L 1269 2991 
Q 1406 3038 1543 3061 
Q 1681 3084 1819 3084 
Q 2600 3084 3056 2656 
Q 3513 2228 3513 1497 
Q 3513 744 3044 326 
Q 2575 -91 1722 -91 
Q 1428 -91 1123 -41 
Q 819 9 494 109 
L 494 744 
Q 775 591 1075 516 
Q 1375 441 1709 441 
Q 2250 441 2565 725 
Q 2881 1009 2881 1497 
Q 2881 1984 2565 2268 
Q 2250 2553 1709 2553 
Q 1456 2553 1204 2497 
Q 953 2441 691 2322 
L 691 4666 
z
" transform="scale(0.015625)"/>
       </defs>
       <use xlink:href="#DejaVuSans-2212"/>
       <use xlink:href="#DejaVuSans-35" x="83.789062"/>
      </g>
     </g>
    </g>
    <g id="xtick_3">
     <g id="line2d_3">
      <path d="M 314.791376 188.638125 
L 314.791376 22.318125 
" clip-path="url(#pc73ba281f6)" style="fill: none; stroke: #ffffff; stroke-linecap: round"/>
     </g>
     <g id="text_3">
      <!-- 0 -->
      <g style="fill: #262626" transform="translate(311.292001 206.496406) scale(0.11 -0.11)">
       <use xlink:href="#DejaVuSans-30"/>
      </g>
     </g>
    </g>
    <g id="xtick_4">
     <g id="line2d_4">
      <path d="M 419.366783 188.638125 
L 419.366783 22.318125 
" clip-path="url(#pc73ba281f6)" style="fill: none; stroke: #ffffff; stroke-linecap: round"/>
     </g>
     <g id="text_4">
      <!-- 5 -->
      <g style="fill: #262626" transform="translate(415.867408 206.496406) scale(0.11 -0.11)">
       <use xlink:href="#DejaVuSans-35"/>
      </g>
     </g>
    </g>
    <g id="xtick_5">
     <g id="line2d_5">
      <path d="M 523.942191 188.638125 
L 523.942191 22.318125 
" clip-path="url(#pc73ba281f6)" style="fill: none; stroke: #ffffff; stroke-linecap: round"/>
     </g>
     <g id="text_5">
      <!-- 10 -->
      <g style="fill: #262626" transform="translate(516.943441 206.496406) scale(0.11 -0.11)">
       <use xlink:href="#DejaVuSans-31"/>
       <use xlink:href="#DejaVuSans-30" x="63.623047"/>
      </g>
     </g>
    </g>
   </g>
   <g id="matplotlib.axis_2">
    <g id="ytick_1">
     <g id="line2d_6">
      <path d="M 34.193438 188.638125 
L 592.193437 188.638125 
" clip-path="url(#pc73ba281f6)" style="fill: none; stroke: #ffffff; stroke-linecap: round"/>
     </g>
     <g id="text_6">
      <!-- 0.0 -->
      <g style="fill: #262626" transform="translate(7.2 192.817266) scale(0.11 -0.11)">
       <defs>
        <path id="DejaVuSans-2e" d="M 684 794 
L 1344 794 
L 1344 0 
L 684 0 
L 684 794 
z
" transform="scale(0.015625)"/>
       </defs>
       <use xlink:href="#DejaVuSans-30"/>
       <use xlink:href="#DejaVuSans-2e" x="63.623047"/>
       <use xlink:href="#DejaVuSans-30" x="95.410156"/>
      </g>
     </g>
    </g>
    <g id="ytick_2">
     <g id="line2d_7">
      <path d="M 34.193438 147.08991 
L 592.193437 147.08991 
" clip-path="url(#pc73ba281f6)" style="fill: none; stroke: #ffffff; stroke-linecap: round"/>
     </g>
     <g id="text_7">
      <!-- 0.1 -->
      <g style="fill: #262626" transform="translate(7.2 151.269051) scale(0.11 -0.11)">
       <use xlink:href="#DejaVuSans-30"/>
       <use xlink:href="#DejaVuSans-2e" x="63.623047"/>
       <use xlink:href="#DejaVuSans-31" x="95.410156"/>
      </g>
     </g>
    </g>
    <g id="ytick_3">
     <g id="line2d_8">
      <path d="M 34.193438 105.541695 
L 592.193437 105.541695 
" clip-path="url(#pc73ba281f6)" style="fill: none; stroke: #ffffff; stroke-linecap: round"/>
     </g>
     <g id="text_8">
      <!-- 0.2 -->
      <g style="fill: #262626" transform="translate(7.2 109.720836) scale(0.11 -0.11)">
       <defs>
        <path id="DejaVuSans-32" d="M 1228 531 
L 3431 531 
L 3431 0 
L 469 0 
L 469 531 
Q 828 903 1448 1529 
Q 2069 2156 2228 2338 
Q 2531 2678 2651 2914 
Q 2772 3150 2772 3378 
Q 2772 3750 2511 3984 
Q 2250 4219 1831 4219 
Q 1534 4219 1204 4116 
Q 875 4013 500 3803 
L 500 4441 
Q 881 4594 1212 4672 
Q 1544 4750 1819 4750 
Q 2544 4750 2975 4387 
Q 3406 4025 3406 3419 
Q 3406 3131 3298 2873 
Q 3191 2616 2906 2266 
Q 2828 2175 2409 1742 
Q 1991 1309 1228 531 
z
" transform="scale(0.015625)"/>
       </defs>
       <use xlink:href="#DejaVuSans-30"/>
       <use xlink:href="#DejaVuSans-2e" x="63.623047"/>
       <use xlink:href="#DejaVuSans-32" x="95.410156"/>
      </g>
     </g>
    </g>
    <g id="ytick_4">
     <g id="line2d_9">
      <path d="M 34.193438 63.99348 
L 592.193437 63.99348 
" clip-path="url(#pc73ba281f6)" style="fill: none; stroke: #ffffff; stroke-linecap: round"/>
     </g>
     <g id="text_9">
      <!-- 0.3 -->
      <g style="fill: #262626" transform="translate(7.2 68.172621) scale(0.11 -0.11)">
       <defs>
        <path id="DejaVuSans-33" d="M 2597 2516 
Q 3050 2419 3304 2112 
Q 3559 1806 3559 1356 
Q 3559 666 3084 287 
Q 2609 -91 1734 -91 
Q 1441 -91 1130 -33 
Q 819 25 488 141 
L 488 750 
Q 750 597 1062 519 
Q 1375 441 1716 441 
Q 2309 441 2620 675 
Q 2931 909 2931 1356 
Q 2931 1769 2642 2001 
Q 2353 2234 1838 2234 
L 1294 2234 
L 1294 2753 
L 1863 2753 
Q 2328 2753 2575 2939 
Q 2822 3125 2822 3475 
Q 2822 3834 2567 4026 
Q 2313 4219 1838 4219 
Q 1578 4219 1281 4162 
Q 984 4106 628 3988 
L 628 4550 
Q 988 4650 1302 4700 
Q 1616 4750 1894 4750 
Q 2613 4750 3031 4423 
Q 3450 4097 3450 3541 
Q 3450 3153 3228 2886 
Q 3006 2619 2597 2516 
z
" transform="scale(0.015625)"/>
       </defs>
       <use xlink:href="#DejaVuSans-30"/>
       <use xlink:href="#DejaVuSans-2e" x="63.623047"/>
       <use xlink:href="#DejaVuSans-33" x="95.410156"/>
      </g>
     </g>
    </g>
    <g id="ytick_5">
     <g id="line2d_10">
      <path d="M 34.193438 22.445266 
L 592.193437 22.445266 
" clip-path="url(#pc73ba281f6)" style="fill: none; stroke: #ffffff; stroke-linecap: round"/>
     </g>
     <g id="text_10">
      <!-- 0.4 -->
      <g style="fill: #262626" transform="translate(7.2 26.624406) scale(0.11 -0.11)">
       <defs>
        <path id="DejaVuSans-34" d="M 2419 4116 
L 825 1625 
L 2419 1625 
L 2419 4116 
z
M 2253 4666 
L 3047 4666 
L 3047 1625 
L 3713 1625 
L 3713 1100 
L 3047 1100 
L 3047 0 
L 2419 0 
L 2419 1100 
L 313 1100 
L 313 1709 
L 2253 4666 
z
" transform="scale(0.015625)"/>
       </defs>
       <use xlink:href="#DejaVuSans-30"/>
       <use xlink:href="#DejaVuSans-2e" x="63.623047"/>
       <use xlink:href="#DejaVuSans-34" x="95.410156"/>
      </g>
     </g>
    </g>
   </g>
   <g id="patch_3">
    <path d="M 59.557074 188.638125 
L 61.538607 188.638125 
L 61.538607 188.534337 
L 59.557074 188.534337 
z
" clip-path="url(#pc73ba281f6)" style="fill: #4c72b0; fill-opacity: 0.5; stroke: #4c72b0; stroke-linejoin: miter"/>
   </g>
   <g id="patch_4">
    <path d="M 61.538607 188.638125 
L 63.52014 188.638125 
L 63.52014 188.438742 
L 61.538607 188.438742 
z
" clip-path="url(#pc73ba281f6)" style="fill: #4c72b0; fill-opacity: 0.5; stroke: #4c72b0; stroke-linejoin: miter"/>
   </g>
   <g id="patch_5">
    <path d="M 63.52014 188.638125 
L 65.501673 188.638125 
L 65.501673 188.299448 
L 63.52014 188.299448 
z
" clip-path="url(#pc73ba281f6)" style="fill: #4c72b0; fill-opacity: 0.5; stroke: #4c72b0; stroke-linejoin: miter"/>
   </g>
   <g id="patch_6">
    <path d="M 65.501673 188.638125 
L 67.483206 188.638125 
L 67.483206 188.192928 
L 65.501673 188.192928 
z
" clip-path="url(#pc73ba281f6)" style="fill: #4c72b0; fill-opacity: 0.5; stroke: #4c72b0; stroke-linejoin: miter"/>
   </g>
   <g id="patch_7">
    <path d="M 67.483206 188.638125 
L 69.464738 188.638125 
L 69.464738 188.061827 
L 67.483206 188.061827 
z
" clip-path="url(#pc73ba281f6)" style="fill: #4c72b0; fill-opacity: 0.5; stroke: #4c72b0; stroke-linejoin: miter"/>
   </g>
   <g id="patch_8">
    <path d="M 69.464738 188.638125 
L 71.446271 188.638125 
L 71.446271 187.908876 
L 69.464738 187.908876 
z
" clip-path="url(#pc73ba281f6)" style="fill: #4c72b0; fill-opacity: 0.5; stroke: #4c72b0; stroke-linejoin: miter"/>
   </g>
   <g id="patch_9">
    <path d="M 71.446271 188.638125 
L 73.427804 188.638125 
L 73.427804 187.564736 
L 71.446271 187.564736 
z
" clip-path="url(#pc73ba281f6)" style="fill: #4c72b0; fill-opacity: 0.5; stroke: #4c72b0; stroke-linejoin: miter"/>
   </g>
   <g id="patch_10">
    <path d="M 73.427804 188.638125 
L 75.409337 188.638125 
L 75.409337 187.291609 
L 73.427804 187.291609 
z
" clip-path="url(#pc73ba281f6)" style="fill: #4c72b0; fill-opacity: 0.5; stroke: #4c72b0; stroke-linejoin: miter"/>
   </g>
   <g id="patch_11">
    <path d="M 75.409337 188.638125 
L 77.39089 188.638125 
L 77.39089 186.903786 
L 75.409337 186.903786 
z
" clip-path="url(#pc73ba281f6)" style="fill: #4c72b0; fill-opacity: 0.5; stroke: #4c72b0; stroke-linejoin: miter"/>
   </g>
   <g id="patch_12">
    <path d="M 77.39089 188.638125 
L 79.372423 188.638125 
L 79.372423 186.234607 
L 77.39089 186.234607 
z
" clip-path="url(#pc73ba281f6)" style="fill: #4c72b0; fill-opacity: 0.5; stroke: #4c72b0; stroke-linejoin: miter"/>
   </g>
   <g id="patch_13">
    <path d="M 79.372423 188.638125 
L 81.353956 188.638125 
L 81.353956 185.453464 
L 79.372423 185.453464 
z
" clip-path="url(#pc73ba281f6)" style="fill: #4c72b0; fill-opacity: 0.5; stroke: #4c72b0; stroke-linejoin: miter"/>
   </g>
   <g id="patch_14">
    <path d="M 81.353956 188.638125 
L 83.335489 188.638125 
L 83.335489 184.631352 
L 81.353956 184.631352 
z
" clip-path="url(#pc73ba281f6)" style="fill: #4c72b0; fill-opacity: 0.5; stroke: #4c72b0; stroke-linejoin: miter"/>
   </g>
   <g id="patch_15">
    <path d="M 83.335489 188.638125 
L 85.317022 188.638125 
L 85.317022 183.396818 
L 83.335489 183.396818 
z
" clip-path="url(#pc73ba281f6)" style="fill: #4c72b0; fill-opacity: 0.5; stroke: #4c72b0; stroke-linejoin: miter"/>
   </g>
   <g id="patch_16">
    <path d="M 85.317022 188.638125 
L 87.298555 188.638125 
L 87.298555 181.785369 
L 85.317022 181.785369 
z
" clip-path="url(#pc73ba281f6)" style="fill: #4c72b0; fill-opacity: 0.5; stroke: #4c72b0; stroke-linejoin: miter"/>
   </g>
   <g id="patch_17">
    <path d="M 87.298555 188.638125 
L 89.280088 188.638125 
L 89.280088 179.411895 
L 87.298555 179.411895 
z
" clip-path="url(#pc73ba281f6)" style="fill: #4c72b0; fill-opacity: 0.5; stroke: #4c72b0; stroke-linejoin: miter"/>
   </g>
   <g id="patch_18">
    <path d="M 89.280088 188.638125 
L 91.261621 188.638125 
L 91.261621 177.024765 
L 89.280088 177.024765 
z
" clip-path="url(#pc73ba281f6)" style="fill: #4c72b0; fill-opacity: 0.5; stroke: #4c72b0; stroke-linejoin: miter"/>
   </g>
   <g id="patch_19">
    <path d="M 91.261621 188.638125 
L 93.243153 188.638125 
L 93.243153 174.585741 
L 91.261621 174.585741 
z
" clip-path="url(#pc73ba281f6)" style="fill: #4c72b0; fill-opacity: 0.5; stroke: #4c72b0; stroke-linejoin: miter"/>
   </g>
   <g id="patch_20">
    <path d="M 93.243153 188.638125 
L 95.224686 188.638125 
L 95.224686 170.914914 
L 93.243153 170.914914 
z
" clip-path="url(#pc73ba281f6)" style="fill: #4c72b0; fill-opacity: 0.5; stroke: #4c72b0; stroke-linejoin: miter"/>
   </g>
   <g id="patch_21">
    <path d="M 95.224686 188.638125 
L 97.206219 188.638125 
L 97.206219 166.039598 
L 95.224686 166.039598 
z
" clip-path="url(#pc73ba281f6)" style="fill: #4c72b0; fill-opacity: 0.5; stroke: #4c72b0; stroke-linejoin: miter"/>
   </g>
   <g id="patch_22">
    <path d="M 97.206219 188.638125 
L 99.187752 188.638125 
L 99.187752 161.128774 
L 97.206219 161.128774 
z
" clip-path="url(#pc73ba281f6)" style="fill: #4c72b0; fill-opacity: 0.5; stroke: #4c72b0; stroke-linejoin: miter"/>
   </g>
   <g id="patch_23">
    <path d="M 99.187752 188.638125 
L 101.169285 188.638125 
L 101.169285 155.450464 
L 99.187752 155.450464 
z
" clip-path="url(#pc73ba281f6)" style="fill: #4c72b0; fill-opacity: 0.5; stroke: #4c72b0; stroke-linejoin: miter"/>
   </g>
   <g id="patch_24">
    <path d="M 101.169285 188.638125 
L 103.150838 188.638125 
L 103.150838 148.480667 
L 101.169285 148.480667 
z
" clip-path="url(#pc73ba281f6)" style="fill: #4c72b0; fill-opacity: 0.5; stroke: #4c72b0; stroke-linejoin: miter"/>
   </g>
   <g id="patch_25">
    <path d="M 103.150838 188.638125 
L 105.132371 188.638125 
L 105.132371 140.58143 
L 103.150838 140.58143 
z
" clip-path="url(#pc73ba281f6)" style="fill: #4c72b0; fill-opacity: 0.5; stroke: #4c72b0; stroke-linejoin: miter"/>
   </g>
   <g id="patch_26">
    <path d="M 105.132371 188.638125 
L 107.113904 188.638125 
L 107.113904 132.010705 
L 105.132371 132.010705 
z
" clip-path="url(#pc73ba281f6)" style="fill: #4c72b0; fill-opacity: 0.5; stroke: #4c72b0; stroke-linejoin: miter"/>
   </g>
   <g id="patch_27">
    <path d="M 107.113904 188.638125 
L 109.095437 188.638125 
L 109.095437 122.910114 
L 107.113904 122.910114 
z
" clip-path="url(#pc73ba281f6)" style="fill: #4c72b0; fill-opacity: 0.5; stroke: #4c72b0; stroke-linejoin: miter"/>
   </g>
   <g id="patch_28">
    <path d="M 109.095437 188.638125 
L 111.07697 188.638125 
L 111.07697 114.038949 
L 109.095437 114.038949 
z
" clip-path="url(#pc73ba281f6)" style="fill: #4c72b0; fill-opacity: 0.5; stroke: #4c72b0; stroke-linejoin: miter"/>
   </g>
   <g id="patch_29">
    <path d="M 111.07697 188.638125 
L 113.058503 188.638125 
L 113.058503 103.247702 
L 111.07697 103.247702 
z
" clip-path="url(#pc73ba281f6)" style="fill: #4c72b0; fill-opacity: 0.5; stroke: #4c72b0; stroke-linejoin: miter"/>
   </g>
   <g id="patch_30">
    <path d="M 113.058503 188.638125 
L 115.040036 188.638125 
L 115.040036 91.686236 
L 113.058503 91.686236 
z
" clip-path="url(#pc73ba281f6)" style="fill: #4c72b0; fill-opacity: 0.5; stroke: #4c72b0; stroke-linejoin: miter"/>
   </g>
   <g id="patch_31">
    <path d="M 115.040036 188.638125 
L 117.021568 188.638125 
L 117.021568 82.599301 
L 115.040036 82.599301 
z
" clip-path="url(#pc73ba281f6)" style="fill: #4c72b0; fill-opacity: 0.5; stroke: #4c72b0; stroke-linejoin: miter"/>
   </g>
   <g id="patch_32">
    <path d="M 117.021568 188.638125 
L 119.003101 188.638125 
L 119.003101 70.021803 
L 117.021568 70.021803 
z
" clip-path="url(#pc73ba281f6)" style="fill: #4c72b0; fill-opacity: 0.5; stroke: #4c72b0; stroke-linejoin: miter"/>
   </g>
   <g id="patch_33">
    <path d="M 119.003101 188.638125 
L 120.984634 188.638125 
L 120.984634 61.997332 
L 119.003101 61.997332 
z
" clip-path="url(#pc73ba281f6)" style="fill: #4c72b0; fill-opacity: 0.5; stroke: #4c72b0; stroke-linejoin: miter"/>
   </g>
   <g id="patch_34">
    <path d="M 120.984634 188.638125 
L 122.966167 188.638125 
L 122.966167 52.661851 
L 120.984634 52.661851 
z
" clip-path="url(#pc73ba281f6)" style="fill: #4c72b0; fill-opacity: 0.5; stroke: #4c72b0; stroke-linejoin: miter"/>
   </g>
   <g id="patch_35">
    <path d="M 122.966167 188.638125 
L 124.9477 188.638125 
L 124.9477 44.484429 
L 122.966167 44.484429 
z
" clip-path="url(#pc73ba281f6)" style="fill: #4c72b0; fill-opacity: 0.5; stroke: #4c72b0; stroke-linejoin: miter"/>
   </g>
   <g id="patch_36">
    <path d="M 124.9477 188.638125 
L 126.929233 188.638125 
L 126.929233 37.082687 
L 124.9477 37.082687 
z
" clip-path="url(#pc73ba281f6)" style="fill: #4c72b0; fill-opacity: 0.5; stroke: #4c72b0; stroke-linejoin: miter"/>
   </g>
   <g id="patch_37">
    <path d="M 126.929233 188.638125 
L 128.910766 188.638125 
L 128.910766 33.966308 
L 126.929233 33.966308 
z
" clip-path="url(#pc73ba281f6)" style="fill: #4c72b0; fill-opacity: 0.5; stroke: #4c72b0; stroke-linejoin: miter"/>
   </g>
   <g id="patch_38">
    <path d="M 128.910766 188.638125 
L 130.892299 188.638125 
L 130.892299 30.478477 
L 128.910766 30.478477 
z
" clip-path="url(#pc73ba281f6)" style="fill: #4c72b0; fill-opacity: 0.5; stroke: #4c72b0; stroke-linejoin: miter"/>
   </g>
   <g id="patch_39">
    <path d="M 130.892299 188.638125 
L 132.873832 188.638125 
L 132.873832 30.762529 
L 130.892299 30.762529 
z
" clip-path="url(#pc73ba281f6)" style="fill: #4c72b0; fill-opacity: 0.5; stroke: #4c72b0; stroke-linejoin: miter"/>
   </g>
   <g id="patch_40">
    <path d="M 132.873832 188.638125 
L 134.855365 188.638125 
L 134.855365 30.238125 
L 132.873832 30.238125 
z
" clip-path="url(#pc73ba281f6)" style="fill: #4c72b0; fill-opacity: 0.5; stroke: #4c72b0; stroke-linejoin: miter"/>
   </g>
   <g id="patch_41">
    <path d="M 134.855365 188.638125 
L 136.836898 188.638125 
L 136.836898 33.813357 
L 134.855365 33.813357 
z
" clip-path="url(#pc73ba281f6)" style="fill: #4c72b0; fill-opacity: 0.5; stroke: #4c72b0; stroke-linejoin: miter"/>
   </g>
   <g id="patch_42">
    <path d="M 136.836898 188.638125 
L 138.818431 188.638125 
L 138.818431 38.705062 
L 136.836898 38.705062 
z
" clip-path="url(#pc73ba281f6)" style="fill: #4c72b0; fill-opacity: 0.5; stroke: #4c72b0; stroke-linejoin: miter"/>
   </g>
   <g id="patch_43">
    <path d="M 138.818431 188.638125 
L 140.799964 188.638125 
L 140.799964 47.259399 
L 138.818431 47.259399 
z
" clip-path="url(#pc73ba281f6)" style="fill: #4c72b0; fill-opacity: 0.5; stroke: #4c72b0; stroke-linejoin: miter"/>
   </g>
   <g id="patch_44">
    <path d="M 140.799964 188.638125 
L 142.781496 188.638125 
L 142.781496 53.765284 
L 140.799964 53.765284 
z
" clip-path="url(#pc73ba281f6)" style="fill: #4c72b0; fill-opacity: 0.5; stroke: #4c72b0; stroke-linejoin: miter"/>
   </g>
   <g id="patch_45">
    <path d="M 142.781496 188.638125 
L 144.763029 188.638125 
L 144.763029 64.414506 
L 142.781496 64.414506 
z
" clip-path="url(#pc73ba281f6)" style="fill: #4c72b0; fill-opacity: 0.5; stroke: #4c72b0; stroke-linejoin: miter"/>
   </g>
   <g id="patch_46">
    <path d="M 144.763029 188.638125 
L 146.744582 188.638125 
L 146.744582 75.551032 
L 144.763029 75.551032 
z
" clip-path="url(#pc73ba281f6)" style="fill: #4c72b0; fill-opacity: 0.5; stroke: #4c72b0; stroke-linejoin: miter"/>
   </g>
   <g id="patch_47">
    <path d="M 146.744582 188.638125 
L 148.726115 188.638125 
L 148.726115 85.696561 
L 146.744582 85.696561 
z
" clip-path="url(#pc73ba281f6)" style="fill: #4c72b0; fill-opacity: 0.5; stroke: #4c72b0; stroke-linejoin: miter"/>
   </g>
   <g id="patch_48">
    <path d="M 148.726115 188.638125 
L 150.707648 188.638125 
L 150.707648 98.823044 
L 148.726115 98.823044 
z
" clip-path="url(#pc73ba281f6)" style="fill: #4c72b0; fill-opacity: 0.5; stroke: #4c72b0; stroke-linejoin: miter"/>
   </g>
   <g id="patch_49">
    <path d="M 150.707648 188.638125 
L 152.689181 188.638125 
L 152.689181 108.926012 
L 150.707648 108.926012 
z
" clip-path="url(#pc73ba281f6)" style="fill: #4c72b0; fill-opacity: 0.5; stroke: #4c72b0; stroke-linejoin: miter"/>
   </g>
   <g id="patch_50">
    <path d="M 152.689181 188.638125 
L 154.670714 188.638125 
L 154.670714 119.987655 
L 152.689181 119.987655 
z
" clip-path="url(#pc73ba281f6)" style="fill: #4c72b0; fill-opacity: 0.5; stroke: #4c72b0; stroke-linejoin: miter"/>
   </g>
   <g id="patch_51">
    <path d="M 154.670714 188.638125 
L 156.652247 188.638125 
L 156.652247 128.774151 
L 154.670714 128.774151 
z
" clip-path="url(#pc73ba281f6)" style="fill: #4c72b0; fill-opacity: 0.5; stroke: #4c72b0; stroke-linejoin: miter"/>
   </g>
   <g id="patch_52">
    <path d="M 156.652247 188.638125 
L 158.63378 188.638125 
L 158.63378 138.459234 
L 156.652247 138.459234 
z
" clip-path="url(#pc73ba281f6)" style="fill: #4c72b0; fill-opacity: 0.5; stroke: #4c72b0; stroke-linejoin: miter"/>
   </g>
   <g id="patch_53">
    <path d="M 158.63378 188.638125 
L 160.615313 188.638125 
L 160.615313 147.117359 
L 158.63378 147.117359 
z
" clip-path="url(#pc73ba281f6)" style="fill: #4c72b0; fill-opacity: 0.5; stroke: #4c72b0; stroke-linejoin: miter"/>
   </g>
   <g id="patch_54">
    <path d="M 160.615313 188.638125 
L 162.596846 188.638125 
L 162.596846 153.246329 
L 160.615313 153.246329 
z
" clip-path="url(#pc73ba281f6)" style="fill: #4c72b0; fill-opacity: 0.5; stroke: #4c72b0; stroke-linejoin: miter"/>
   </g>
   <g id="patch_55">
    <path d="M 162.596846 188.638125 
L 164.578389 188.638125 
L 164.578389 160.096498 
L 162.596846 160.096498 
z
" clip-path="url(#pc73ba281f6)" style="fill: #4c72b0; fill-opacity: 0.5; stroke: #4c72b0; stroke-linejoin: miter"/>
   </g>
   <g id="patch_56">
    <path d="M 164.578389 188.638125 
L 166.559921 188.638125 
L 166.559921 164.772288 
L 164.578389 164.772288 
z
" clip-path="url(#pc73ba281f6)" style="fill: #4c72b0; fill-opacity: 0.5; stroke: #4c72b0; stroke-linejoin: miter"/>
   </g>
   <g id="patch_57">
    <path d="M 166.559921 188.638125 
L 168.541454 188.638125 
L 168.541454 169.09862 
L 166.559921 169.09862 
z
" clip-path="url(#pc73ba281f6)" style="fill: #4c72b0; fill-opacity: 0.5; stroke: #4c72b0; stroke-linejoin: miter"/>
   </g>
   <g id="patch_58">
    <path d="M 168.541454 188.638125 
L 170.522987 188.638125 
L 170.522987 172.600108 
L 168.541454 172.600108 
z
" clip-path="url(#pc73ba281f6)" style="fill: #4c72b0; fill-opacity: 0.5; stroke: #4c72b0; stroke-linejoin: miter"/>
   </g>
   <g id="patch_59">
    <path d="M 170.522987 188.638125 
L 172.50452 188.638125 
L 172.50452 175.48706 
L 170.522987 175.48706 
z
" clip-path="url(#pc73ba281f6)" style="fill: #4c72b0; fill-opacity: 0.5; stroke: #4c72b0; stroke-linejoin: miter"/>
   </g>
   <g id="patch_60">
    <path d="M 172.50452 188.638125 
L 174.486053 188.638125 
L 174.486053 177.923353 
L 172.50452 177.923353 
z
" clip-path="url(#pc73ba281f6)" style="fill: #4c72b0; fill-opacity: 0.5; stroke: #4c72b0; stroke-linejoin: miter"/>
   </g>
   <g id="patch_61">
    <path d="M 174.486053 188.638125 
L 176.467586 188.638125 
L 176.467586 179.919911 
L 174.486053 179.919911 
z
" clip-path="url(#pc73ba281f6)" style="fill: #4c72b0; fill-opacity: 0.5; stroke: #4c72b0; stroke-linejoin: miter"/>
   </g>
   <g id="patch_62">
    <path d="M 176.467586 188.638125 
L 178.449129 188.638125 
L 178.449129 181.463115 
L 176.467586 181.463115 
z
" clip-path="url(#pc73ba281f6)" style="fill: #4c72b0; fill-opacity: 0.5; stroke: #4c72b0; stroke-linejoin: miter"/>
   </g>
   <g id="patch_63">
    <path d="M 178.449129 188.638125 
L 180.430662 188.638125 
L 180.430662 182.623869 
L 178.449129 182.623869 
z
" clip-path="url(#pc73ba281f6)" style="fill: #4c72b0; fill-opacity: 0.5; stroke: #4c72b0; stroke-linejoin: miter"/>
   </g>
   <g id="patch_64">
    <path d="M 180.430662 188.638125 
L 182.412195 188.638125 
L 182.412195 183.762808 
L 180.430662 183.762808 
z
" clip-path="url(#pc73ba281f6)" style="fill: #4c72b0; fill-opacity: 0.5; stroke: #4c72b0; stroke-linejoin: miter"/>
   </g>
   <g id="patch_65">
    <path d="M 182.412195 188.638125 
L 184.393728 188.638125 
L 184.393728 184.404657 
L 182.412195 184.404657 
z
" clip-path="url(#pc73ba281f6)" style="fill: #4c72b0; fill-opacity: 0.5; stroke: #4c72b0; stroke-linejoin: miter"/>
   </g>
   <g id="patch_66">
    <path d="M 184.393728 188.638125 
L 186.375261 188.638125 
L 186.375261 184.978223 
L 184.393728 184.978223 
z
" clip-path="url(#pc73ba281f6)" style="fill: #4c72b0; fill-opacity: 0.5; stroke: #4c72b0; stroke-linejoin: miter"/>
   </g>
   <g id="patch_67">
    <path d="M 186.375261 188.638125 
L 188.356794 188.638125 
L 188.356794 185.540865 
L 186.375261 185.540865 
z
" clip-path="url(#pc73ba281f6)" style="fill: #4c72b0; fill-opacity: 0.5; stroke: #4c72b0; stroke-linejoin: miter"/>
   </g>
   <g id="patch_68">
    <path d="M 188.356794 188.638125 
L 190.338327 188.638125 
L 190.338327 186.035225 
L 188.356794 186.035225 
z
" clip-path="url(#pc73ba281f6)" style="fill: #4c72b0; fill-opacity: 0.5; stroke: #4c72b0; stroke-linejoin: miter"/>
   </g>
   <g id="patch_69">
    <path d="M 190.338327 188.638125 
L 192.319859 188.638125 
L 192.319859 186.554166 
L 190.338327 186.554166 
z
" clip-path="url(#pc73ba281f6)" style="fill: #4c72b0; fill-opacity: 0.5; stroke: #4c72b0; stroke-linejoin: miter"/>
   </g>
   <g id="patch_70">
    <path d="M 192.319859 188.638125 
L 194.301392 188.638125 
L 194.301392 186.638835 
L 192.319859 186.638835 
z
" clip-path="url(#pc73ba281f6)" style="fill: #4c72b0; fill-opacity: 0.5; stroke: #4c72b0; stroke-linejoin: miter"/>
   </g>
   <g id="patch_71">
    <path d="M 194.301392 188.638125 
L 196.282935 188.638125 
L 196.282935 186.947477 
L 194.301392 186.947477 
z
" clip-path="url(#pc73ba281f6)" style="fill: #4c72b0; fill-opacity: 0.5; stroke: #4c72b0; stroke-linejoin: miter"/>
   </g>
   <g id="patch_72">
    <path d="M 196.282935 188.638125 
L 198.264468 188.638125 
L 198.264468 187.368084 
L 196.282935 187.368084 
z
" clip-path="url(#pc73ba281f6)" style="fill: #4c72b0; fill-opacity: 0.5; stroke: #4c72b0; stroke-linejoin: miter"/>
   </g>
   <g id="patch_73">
    <path d="M 198.264468 188.638125 
L 200.246001 188.638125 
L 200.246001 188.146496 
L 198.264468 188.146496 
z
" clip-path="url(#pc73ba281f6)" style="fill: #4c72b0; fill-opacity: 0.5; stroke: #4c72b0; stroke-linejoin: miter"/>
   </g>
   <g id="patch_74">
    <path d="M 200.246001 188.638125 
L 202.227534 188.638125 
L 202.227534 188.419623 
L 200.246001 188.419623 
z
" clip-path="url(#pc73ba281f6)" style="fill: #4c72b0; fill-opacity: 0.5; stroke: #4c72b0; stroke-linejoin: miter"/>
   </g>
   <g id="patch_75">
    <path d="M 202.227534 188.638125 
L 204.209067 188.638125 
L 204.209067 188.449667 
L 202.227534 188.449667 
z
" clip-path="url(#pc73ba281f6)" style="fill: #4c72b0; fill-opacity: 0.5; stroke: #4c72b0; stroke-linejoin: miter"/>
   </g>
   <g id="patch_76">
    <path d="M 204.209067 188.638125 
L 206.1906 188.638125 
L 206.1906 188.425086 
L 204.209067 188.425086 
z
" clip-path="url(#pc73ba281f6)" style="fill: #4c72b0; fill-opacity: 0.5; stroke: #4c72b0; stroke-linejoin: miter"/>
   </g>
   <g id="patch_77">
    <path d="M 206.1906 188.638125 
L 208.172133 188.638125 
L 208.172133 188.408698 
L 206.1906 188.408698 
z
" clip-path="url(#pc73ba281f6)" style="fill: #4c72b0; fill-opacity: 0.5; stroke: #4c72b0; stroke-linejoin: miter"/>
   </g>
   <g id="patch_78">
    <path d="M 208.172133 188.638125 
L 210.153676 188.638125 
L 210.153676 188.405968 
L 208.172133 188.405968 
z
" clip-path="url(#pc73ba281f6)" style="fill: #4c72b0; fill-opacity: 0.5; stroke: #4c72b0; stroke-linejoin: miter"/>
   </g>
   <g id="patch_79">
    <path d="M 210.153676 188.638125 
L 212.135209 188.638125 
L 212.135209 188.419623 
L 210.153676 188.419623 
z
" clip-path="url(#pc73ba281f6)" style="fill: #4c72b0; fill-opacity: 0.5; stroke: #4c72b0; stroke-linejoin: miter"/>
   </g>
   <g id="patch_80">
    <path d="M 212.135209 188.638125 
L 214.116742 188.638125 
L 214.116742 188.28306 
L 212.135209 188.28306 
z
" clip-path="url(#pc73ba281f6)" style="fill: #4c72b0; fill-opacity: 0.5; stroke: #4c72b0; stroke-linejoin: miter"/>
   </g>
   <g id="patch_81">
    <path d="M 214.116742 188.638125 
L 216.098274 188.638125 
L 216.098274 187.911607 
L 214.116742 187.911607 
z
" clip-path="url(#pc73ba281f6)" style="fill: #4c72b0; fill-opacity: 0.5; stroke: #4c72b0; stroke-linejoin: miter"/>
   </g>
   <g id="patch_82">
    <path d="M 216.098274 188.638125 
L 218.079807 188.638125 
L 218.079807 187.897951 
L 216.098274 187.897951 
z
" clip-path="url(#pc73ba281f6)" style="fill: #4c72b0; fill-opacity: 0.5; stroke: #4c72b0; stroke-linejoin: miter"/>
   </g>
   <g id="patch_83">
    <path d="M 218.079807 188.638125 
L 220.06134 188.638125 
L 220.06134 187.867907 
L 218.079807 187.867907 
z
" clip-path="url(#pc73ba281f6)" style="fill: #4c72b0; fill-opacity: 0.5; stroke: #4c72b0; stroke-linejoin: miter"/>
   </g>
   <g id="patch_84">
    <path d="M 220.06134 188.638125 
L 222.042873 188.638125 
L 222.042873 187.704031 
L 220.06134 187.704031 
z
" clip-path="url(#pc73ba281f6)" style="fill: #4c72b0; fill-opacity: 0.5; stroke: #4c72b0; stroke-linejoin: miter"/>
   </g>
   <g id="patch_85">
    <path d="M 222.042873 188.638125 
L 224.024406 188.638125 
L 224.024406 187.826938 
L 222.042873 187.826938 
z
" clip-path="url(#pc73ba281f6)" style="fill: #4c72b0; fill-opacity: 0.5; stroke: #4c72b0; stroke-linejoin: miter"/>
   </g>
   <g id="patch_86">
    <path d="M 224.024406 188.638125 
L 226.005939 188.638125 
L 226.005939 187.720418 
L 224.024406 187.720418 
z
" clip-path="url(#pc73ba281f6)" style="fill: #4c72b0; fill-opacity: 0.5; stroke: #4c72b0; stroke-linejoin: miter"/>
   </g>
   <g id="patch_87">
    <path d="M 226.005939 188.638125 
L 227.987472 188.638125 
L 227.987472 187.622093 
L 226.005939 187.622093 
z
" clip-path="url(#pc73ba281f6)" style="fill: #4c72b0; fill-opacity: 0.5; stroke: #4c72b0; stroke-linejoin: miter"/>
   </g>
   <g id="patch_88">
    <path d="M 227.987472 188.638125 
L 229.969005 188.638125 
L 229.969005 187.340772 
L 227.987472 187.340772 
z
" clip-path="url(#pc73ba281f6)" style="fill: #4c72b0; fill-opacity: 0.5; stroke: #4c72b0; stroke-linejoin: miter"/>
   </g>
   <g id="patch_89">
    <path d="M 229.969005 188.638125 
L 231.950538 188.638125 
L 231.950538 187.171433 
L 229.969005 187.171433 
z
" clip-path="url(#pc73ba281f6)" style="fill: #4c72b0; fill-opacity: 0.5; stroke: #4c72b0; stroke-linejoin: miter"/>
   </g>
   <g id="patch_90">
    <path d="M 231.950538 188.638125 
L 233.932091 188.638125 
L 233.932091 187.204223 
L 231.950538 187.204223 
z
" clip-path="url(#pc73ba281f6)" style="fill: #4c72b0; fill-opacity: 0.5; stroke: #4c72b0; stroke-linejoin: miter"/>
   </g>
   <g id="patch_91">
    <path d="M 233.932091 188.638125 
L 235.913624 188.638125 
L 235.913624 187.171433 
L 233.932091 187.171433 
z
" clip-path="url(#pc73ba281f6)" style="fill: #4c72b0; fill-opacity: 0.5; stroke: #4c72b0; stroke-linejoin: miter"/>
   </g>
   <g id="patch_92">
    <path d="M 235.913624 188.638125 
L 237.895157 188.638125 
L 237.895157 186.595135 
L 235.913624 186.595135 
z
" clip-path="url(#pc73ba281f6)" style="fill: #4c72b0; fill-opacity: 0.5; stroke: #4c72b0; stroke-linejoin: miter"/>
   </g>
   <g id="patch_93">
    <path d="M 237.895157 188.638125 
L 239.876689 188.638125 
L 239.876689 186.19637 
L 237.895157 186.19637 
z
" clip-path="url(#pc73ba281f6)" style="fill: #4c72b0; fill-opacity: 0.5; stroke: #4c72b0; stroke-linejoin: miter"/>
   </g>
   <g id="patch_94">
    <path d="M 239.876689 188.638125 
L 241.858222 188.638125 
L 241.858222 186.425796 
L 239.876689 186.425796 
z
" clip-path="url(#pc73ba281f6)" style="fill: #4c72b0; fill-opacity: 0.5; stroke: #4c72b0; stroke-linejoin: miter"/>
   </g>
   <g id="patch_95">
    <path d="M 241.858222 188.638125 
L 243.839755 188.638125 
L 243.839755 186.286502 
L 241.858222 186.286502 
z
" clip-path="url(#pc73ba281f6)" style="fill: #4c72b0; fill-opacity: 0.5; stroke: #4c72b0; stroke-linejoin: miter"/>
   </g>
   <g id="patch_96">
    <path d="M 243.839755 188.638125 
L 245.821288 188.638125 
L 245.821288 186.076194 
L 243.839755 186.076194 
z
" clip-path="url(#pc73ba281f6)" style="fill: #4c72b0; fill-opacity: 0.5; stroke: #4c72b0; stroke-linejoin: miter"/>
   </g>
   <g id="patch_97">
    <path d="M 245.821288 188.638125 
L 247.802821 188.638125 
L 247.802821 185.049236 
L 245.821288 185.049236 
z
" clip-path="url(#pc73ba281f6)" style="fill: #4c72b0; fill-opacity: 0.5; stroke: #4c72b0; stroke-linejoin: miter"/>
   </g>
   <g id="patch_98">
    <path d="M 247.802821 188.638125 
L 249.784354 188.638125 
L 249.784354 185.202187 
L 247.802821 185.202187 
z
" clip-path="url(#pc73ba281f6)" style="fill: #4c72b0; fill-opacity: 0.5; stroke: #4c72b0; stroke-linejoin: miter"/>
   </g>
   <g id="patch_99">
    <path d="M 249.784354 188.638125 
L 251.765887 188.638125 
L 251.765887 184.923598 
L 249.784354 184.923598 
z
" clip-path="url(#pc73ba281f6)" style="fill: #4c72b0; fill-opacity: 0.5; stroke: #4c72b0; stroke-linejoin: miter"/>
   </g>
   <g id="patch_100">
    <path d="M 251.765887 188.638125 
L 253.74742 188.638125 
L 253.74742 185.439808 
L 251.765887 185.439808 
z
" clip-path="url(#pc73ba281f6)" style="fill: #4c72b0; fill-opacity: 0.5; stroke: #4c72b0; stroke-linejoin: miter"/>
   </g>
   <g id="patch_101">
    <path d="M 253.74742 188.638125 
L 255.728953 188.638125 
L 255.728953 184.502982 
L 253.74742 184.502982 
z
" clip-path="url(#pc73ba281f6)" style="fill: #4c72b0; fill-opacity: 0.5; stroke: #4c72b0; stroke-linejoin: miter"/>
   </g>
   <g id="patch_102">
    <path d="M 255.728953 188.638125 
L 257.710486 188.638125 
L 257.710486 185.041042 
L 255.728953 185.041042 
z
" clip-path="url(#pc73ba281f6)" style="fill: #4c72b0; fill-opacity: 0.5; stroke: #4c72b0; stroke-linejoin: miter"/>
   </g>
   <g id="patch_103">
    <path d="M 257.710486 188.638125 
L 259.692019 188.638125 
L 259.692019 184.956373 
L 257.710486 184.956373 
z
" clip-path="url(#pc73ba281f6)" style="fill: #4c72b0; fill-opacity: 0.5; stroke: #4c72b0; stroke-linejoin: miter"/>
   </g>
   <g id="patch_104">
    <path d="M 259.692019 188.638125 
L 261.673552 188.638125 
L 261.673552 184.41285 
L 259.692019 184.41285 
z
" clip-path="url(#pc73ba281f6)" style="fill: #4c72b0; fill-opacity: 0.5; stroke: #4c72b0; stroke-linejoin: miter"/>
   </g>
   <g id="patch_105">
    <path d="M 261.673552 188.638125 
L 263.655085 188.638125 
L 263.655085 183.65902 
L 261.673552 183.65902 
z
" clip-path="url(#pc73ba281f6)" style="fill: #4c72b0; fill-opacity: 0.5; stroke: #4c72b0; stroke-linejoin: miter"/>
   </g>
   <g id="patch_106">
    <path d="M 263.655085 188.638125 
L 265.636617 188.638125 
L 265.636617 182.703075 
L 263.655085 182.703075 
z
" clip-path="url(#pc73ba281f6)" style="fill: #4c72b0; fill-opacity: 0.5; stroke: #4c72b0; stroke-linejoin: miter"/>
   </g>
   <g id="patch_107">
    <path d="M 265.636617 188.638125 
L 267.61817 188.638125 
L 267.61817 184.014132 
L 265.636617 184.014132 
z
" clip-path="url(#pc73ba281f6)" style="fill: #4c72b0; fill-opacity: 0.5; stroke: #4c72b0; stroke-linejoin: miter"/>
   </g>
   <g id="patch_108">
    <path d="M 267.61817 188.638125 
L 269.599703 188.638125 
L 269.599703 183.661751 
L 267.61817 183.661751 
z
" clip-path="url(#pc73ba281f6)" style="fill: #4c72b0; fill-opacity: 0.5; stroke: #4c72b0; stroke-linejoin: miter"/>
   </g>
   <g id="patch_109">
    <path d="M 269.599703 188.638125 
L 271.581236 188.638125 
L 271.581236 183.779196 
L 269.599703 183.779196 
z
" clip-path="url(#pc73ba281f6)" style="fill: #4c72b0; fill-opacity: 0.5; stroke: #4c72b0; stroke-linejoin: miter"/>
   </g>
   <g id="patch_110">
    <path d="M 271.581236 188.638125 
L 273.562769 188.638125 
L 273.562769 181.031538 
L 271.581236 181.031538 
z
" clip-path="url(#pc73ba281f6)" style="fill: #4c72b0; fill-opacity: 0.5; stroke: #4c72b0; stroke-linejoin: miter"/>
   </g>
   <g id="patch_111">
    <path d="M 273.562769 188.638125 
L 275.544302 188.638125 
L 275.544302 182.618406 
L 273.562769 182.618406 
z
" clip-path="url(#pc73ba281f6)" style="fill: #4c72b0; fill-opacity: 0.5; stroke: #4c72b0; stroke-linejoin: miter"/>
   </g>
   <g id="patch_112">
    <path d="M 275.544302 188.638125 
L 277.525835 188.638125 
L 277.525835 182.918846 
L 275.544302 182.918846 
z
" clip-path="url(#pc73ba281f6)" style="fill: #4c72b0; fill-opacity: 0.5; stroke: #4c72b0; stroke-linejoin: miter"/>
   </g>
   <g id="patch_113">
    <path d="M 277.525835 188.638125 
L 279.507368 188.638125 
L 279.507368 181.747131 
L 277.525835 181.747131 
z
" clip-path="url(#pc73ba281f6)" style="fill: #4c72b0; fill-opacity: 0.5; stroke: #4c72b0; stroke-linejoin: miter"/>
   </g>
   <g id="patch_114">
    <path d="M 279.507368 188.638125 
L 281.488901 188.638125 
L 281.488901 181.170833 
L 279.507368 181.170833 
z
" clip-path="url(#pc73ba281f6)" style="fill: #4c72b0; fill-opacity: 0.5; stroke: #4c72b0; stroke-linejoin: miter"/>
   </g>
   <g id="patch_115">
    <path d="M 281.488901 188.638125 
L 283.470434 188.638125 
L 283.470434 182.596556 
L 281.488901 182.596556 
z
" clip-path="url(#pc73ba281f6)" style="fill: #4c72b0; fill-opacity: 0.5; stroke: #4c72b0; stroke-linejoin: miter"/>
   </g>
   <g id="patch_116">
    <path d="M 283.470434 188.638125 
L 285.451967 188.638125 
L 285.451967 181.599642 
L 283.470434 181.599642 
z
" clip-path="url(#pc73ba281f6)" style="fill: #4c72b0; fill-opacity: 0.5; stroke: #4c72b0; stroke-linejoin: miter"/>
   </g>
   <g id="patch_117">
    <path d="M 285.451967 188.638125 
L 287.4335 188.638125 
L 287.4335 181.233652 
L 285.451967 181.233652 
z
" clip-path="url(#pc73ba281f6)" style="fill: #4c72b0; fill-opacity: 0.5; stroke: #4c72b0; stroke-linejoin: miter"/>
   </g>
   <g id="patch_118">
    <path d="M 287.4335 188.638125 
L 289.415032 188.638125 
L 289.415032 180.512597 
L 287.4335 180.512597 
z
" clip-path="url(#pc73ba281f6)" style="fill: #4c72b0; fill-opacity: 0.5; stroke: #4c72b0; stroke-linejoin: miter"/>
   </g>
   <g id="patch_119">
    <path d="M 289.415032 188.638125 
L 291.396565 188.638125 
L 291.396565 182.036646 
L 289.415032 182.036646 
z
" clip-path="url(#pc73ba281f6)" style="fill: #4c72b0; fill-opacity: 0.5; stroke: #4c72b0; stroke-linejoin: miter"/>
   </g>
   <g id="patch_120">
    <path d="M 291.396565 188.638125 
L 293.378098 188.638125 
L 293.378098 177.330667 
L 291.396565 177.330667 
z
" clip-path="url(#pc73ba281f6)" style="fill: #4c72b0; fill-opacity: 0.5; stroke: #4c72b0; stroke-linejoin: miter"/>
   </g>
   <g id="patch_121">
    <path d="M 293.378098 188.638125 
L 295.359631 188.638125 
L 295.359631 180.725636 
L 293.378098 180.725636 
z
" clip-path="url(#pc73ba281f6)" style="fill: #4c72b0; fill-opacity: 0.5; stroke: #4c72b0; stroke-linejoin: miter"/>
   </g>
   <g id="patch_122">
    <path d="M 295.359631 188.638125 
L 297.341184 188.638125 
L 297.341184 179.851718 
L 295.359631 179.851718 
z
" clip-path="url(#pc73ba281f6)" style="fill: #4c72b0; fill-opacity: 0.5; stroke: #4c72b0; stroke-linejoin: miter"/>
   </g>
   <g id="patch_123">
    <path d="M 297.341184 188.638125 
L 299.322717 188.638125 
L 299.322717 179.868017 
L 297.341184 179.868017 
z
" clip-path="url(#pc73ba281f6)" style="fill: #4c72b0; fill-opacity: 0.5; stroke: #4c72b0; stroke-linejoin: miter"/>
   </g>
   <g id="patch_124">
    <path d="M 299.322717 188.638125 
L 301.30425 188.638125 
L 301.30425 177.194104 
L 299.322717 177.194104 
z
" clip-path="url(#pc73ba281f6)" style="fill: #4c72b0; fill-opacity: 0.5; stroke: #4c72b0; stroke-linejoin: miter"/>
   </g>
   <g id="patch_125">
    <path d="M 301.30425 188.638125 
L 303.285783 188.638125 
L 303.285783 180.575416 
L 301.30425 180.575416 
z
" clip-path="url(#pc73ba281f6)" style="fill: #4c72b0; fill-opacity: 0.5; stroke: #4c72b0; stroke-linejoin: miter"/>
   </g>
   <g id="patch_126">
    <path d="M 303.285783 188.638125 
L 305.267316 188.638125 
L 305.267316 179.480177 
L 303.285783 179.480177 
z
" clip-path="url(#pc73ba281f6)" style="fill: #4c72b0; fill-opacity: 0.5; stroke: #4c72b0; stroke-linejoin: miter"/>
   </g>
   <g id="patch_127">
    <path d="M 305.267316 188.638125 
L 307.248849 188.638125 
L 307.248849 179.898061 
L 305.267316 179.898061 
z
" clip-path="url(#pc73ba281f6)" style="fill: #4c72b0; fill-opacity: 0.5; stroke: #4c72b0; stroke-linejoin: miter"/>
   </g>
   <g id="patch_128">
    <path d="M 307.248849 188.638125 
L 309.230382 188.638125 
L 309.230382 179.138768 
L 307.248849 179.138768 
z
" clip-path="url(#pc73ba281f6)" style="fill: #4c72b0; fill-opacity: 0.5; stroke: #4c72b0; stroke-linejoin: miter"/>
   </g>
   <g id="patch_129">
    <path d="M 309.230382 188.638125 
L 311.211915 188.638125 
L 311.211915 178.237449 
L 309.230382 178.237449 
z
" clip-path="url(#pc73ba281f6)" style="fill: #4c72b0; fill-opacity: 0.5; stroke: #4c72b0; stroke-linejoin: miter"/>
   </g>
   <g id="patch_130">
    <path d="M 311.211915 188.638125 
L 313.193447 188.638125 
L 313.193447 179.002205 
L 311.211915 179.002205 
z
" clip-path="url(#pc73ba281f6)" style="fill: #4c72b0; fill-opacity: 0.5; stroke: #4c72b0; stroke-linejoin: miter"/>
   </g>
   <g id="patch_131">
    <path d="M 313.193447 188.638125 
L 315.17498 188.638125 
L 315.17498 173.815523 
L 313.193447 173.815523 
z
" clip-path="url(#pc73ba281f6)" style="fill: #4c72b0; fill-opacity: 0.5; stroke: #4c72b0; stroke-linejoin: miter"/>
   </g>
   <g id="patch_132">
    <path d="M 315.17498 188.638125 
L 317.156513 188.638125 
L 317.156513 178.701765 
L 315.17498 178.701765 
z
" clip-path="url(#pc73ba281f6)" style="fill: #4c72b0; fill-opacity: 0.5; stroke: #4c72b0; stroke-linejoin: miter"/>
   </g>
   <g id="patch_133">
    <path d="M 317.156513 188.638125 
L 319.138046 188.638125 
L 319.138046 178.204674 
L 317.156513 178.204674 
z
" clip-path="url(#pc73ba281f6)" style="fill: #4c72b0; fill-opacity: 0.5; stroke: #4c72b0; stroke-linejoin: miter"/>
   </g>
   <g id="patch_134">
    <path d="M 319.138046 188.638125 
L 321.119579 188.638125 
L 321.119579 178.92846 
L 319.138046 178.92846 
z
" clip-path="url(#pc73ba281f6)" style="fill: #4c72b0; fill-opacity: 0.5; stroke: #4c72b0; stroke-linejoin: miter"/>
   </g>
   <g id="patch_135">
    <path d="M 321.119579 188.638125 
L 323.101112 188.638125 
L 323.101112 178.47507 
L 321.119579 178.47507 
z
" clip-path="url(#pc73ba281f6)" style="fill: #4c72b0; fill-opacity: 0.5; stroke: #4c72b0; stroke-linejoin: miter"/>
   </g>
   <g id="patch_136">
    <path d="M 323.101112 188.638125 
L 325.082645 188.638125 
L 325.082645 179.797004 
L 323.101112 179.797004 
z
" clip-path="url(#pc73ba281f6)" style="fill: #4c72b0; fill-opacity: 0.5; stroke: #4c72b0; stroke-linejoin: miter"/>
   </g>
   <g id="patch_137">
    <path d="M 325.082645 188.638125 
L 327.064178 188.638125 
L 327.064178 179.567578 
L 325.082645 179.567578 
z
" clip-path="url(#pc73ba281f6)" style="fill: #4c72b0; fill-opacity: 0.5; stroke: #4c72b0; stroke-linejoin: miter"/>
   </g>
   <g id="patch_138">
    <path d="M 327.064178 188.638125 
L 329.045711 188.638125 
L 329.045711 179.021324 
L 327.064178 179.021324 
z
" clip-path="url(#pc73ba281f6)" style="fill: #4c72b0; fill-opacity: 0.5; stroke: #4c72b0; stroke-linejoin: miter"/>
   </g>
   <g id="patch_139">
    <path d="M 329.045711 188.638125 
L 331.027264 188.638125 
L 331.027264 178.117379 
L 329.045711 178.117379 
z
" clip-path="url(#pc73ba281f6)" style="fill: #4c72b0; fill-opacity: 0.5; stroke: #4c72b0; stroke-linejoin: miter"/>
   </g>
   <g id="patch_140">
    <path d="M 331.027264 188.638125 
L 333.008797 188.638125 
L 333.008797 179.504758 
L 331.027264 179.504758 
z
" clip-path="url(#pc73ba281f6)" style="fill: #4c72b0; fill-opacity: 0.5; stroke: #4c72b0; stroke-linejoin: miter"/>
   </g>
   <g id="patch_141">
    <path d="M 333.008797 188.638125 
L 334.99033 188.638125 
L 334.99033 180.553566 
L 333.008797 180.553566 
z
" clip-path="url(#pc73ba281f6)" style="fill: #4c72b0; fill-opacity: 0.5; stroke: #4c72b0; stroke-linejoin: miter"/>
   </g>
   <g id="patch_142">
    <path d="M 334.99033 188.638125 
L 336.971862 188.638125 
L 336.971862 180.963256 
L 334.99033 180.963256 
z
" clip-path="url(#pc73ba281f6)" style="fill: #4c72b0; fill-opacity: 0.5; stroke: #4c72b0; stroke-linejoin: miter"/>
   </g>
   <g id="patch_143">
    <path d="M 336.971862 188.638125 
L 338.953395 188.638125 
L 338.953395 176.92644 
L 336.971862 176.92644 
z
" clip-path="url(#pc73ba281f6)" style="fill: #4c72b0; fill-opacity: 0.5; stroke: #4c72b0; stroke-linejoin: miter"/>
   </g>
   <g id="patch_144">
    <path d="M 338.953395 188.638125 
L 340.934928 188.638125 
L 340.934928 179.291719 
L 338.953395 179.291719 
z
" clip-path="url(#pc73ba281f6)" style="fill: #4c72b0; fill-opacity: 0.5; stroke: #4c72b0; stroke-linejoin: miter"/>
   </g>
   <g id="patch_145">
    <path d="M 340.934928 188.638125 
L 342.916461 188.638125 
L 342.916461 181.777175 
L 340.934928 181.777175 
z
" clip-path="url(#pc73ba281f6)" style="fill: #4c72b0; fill-opacity: 0.5; stroke: #4c72b0; stroke-linejoin: miter"/>
   </g>
   <g id="patch_146">
    <path d="M 342.916461 188.638125 
L 344.897994 188.638125 
L 344.897994 182.050302 
L 342.916461 182.050302 
z
" clip-path="url(#pc73ba281f6)" style="fill: #4c72b0; fill-opacity: 0.5; stroke: #4c72b0; stroke-linejoin: miter"/>
   </g>
   <g id="patch_147">
    <path d="M 344.897994 188.638125 
L 346.879527 188.638125 
L 346.879527 181.632418 
L 344.897994 181.632418 
z
" clip-path="url(#pc73ba281f6)" style="fill: #4c72b0; fill-opacity: 0.5; stroke: #4c72b0; stroke-linejoin: miter"/>
   </g>
   <g id="patch_148">
    <path d="M 346.879527 188.638125 
L 348.86106 188.638125 
L 348.86106 181.179027 
L 346.879527 181.179027 
z
" clip-path="url(#pc73ba281f6)" style="fill: #4c72b0; fill-opacity: 0.5; stroke: #4c72b0; stroke-linejoin: miter"/>
   </g>
   <g id="patch_149">
    <path d="M 348.86106 188.638125 
L 350.842593 188.638125 
L 350.842593 180.881318 
L 348.86106 180.881318 
z
" clip-path="url(#pc73ba281f6)" style="fill: #4c72b0; fill-opacity: 0.5; stroke: #4c72b0; stroke-linejoin: miter"/>
   </g>
   <g id="patch_150">
    <path d="M 350.842593 188.638125 
L 352.824126 188.638125 
L 352.824126 182.828714 
L 350.842593 182.828714 
z
" clip-path="url(#pc73ba281f6)" style="fill: #4c72b0; fill-opacity: 0.5; stroke: #4c72b0; stroke-linejoin: miter"/>
   </g>
   <g id="patch_151">
    <path d="M 352.824126 188.638125 
L 354.805659 188.638125 
L 354.805659 181.976558 
L 352.824126 181.976558 
z
" clip-path="url(#pc73ba281f6)" style="fill: #4c72b0; fill-opacity: 0.5; stroke: #4c72b0; stroke-linejoin: miter"/>
   </g>
   <g id="patch_152">
    <path d="M 354.805659 188.638125 
L 356.787192 188.638125 
L 356.787192 182.686688 
L 354.805659 182.686688 
z
" clip-path="url(#pc73ba281f6)" style="fill: #4c72b0; fill-opacity: 0.5; stroke: #4c72b0; stroke-linejoin: miter"/>
   </g>
   <g id="patch_153">
    <path d="M 356.787192 188.638125 
L 358.768725 188.638125 
L 358.768725 181.700699 
L 356.787192 181.700699 
z
" clip-path="url(#pc73ba281f6)" style="fill: #4c72b0; fill-opacity: 0.5; stroke: #4c72b0; stroke-linejoin: miter"/>
   </g>
   <g id="patch_154">
    <path d="M 358.768725 188.638125 
L 360.750277 188.638125 
L 360.750277 183.495195 
L 358.768725 183.495195 
z
" clip-path="url(#pc73ba281f6)" style="fill: #4c72b0; fill-opacity: 0.5; stroke: #4c72b0; stroke-linejoin: miter"/>
   </g>
   <g id="patch_155">
    <path d="M 360.750277 188.638125 
L 362.73181 188.638125 
L 362.73181 183.156466 
L 360.750277 183.156466 
z
" clip-path="url(#pc73ba281f6)" style="fill: #4c72b0; fill-opacity: 0.5; stroke: #4c72b0; stroke-linejoin: miter"/>
   </g>
   <g id="patch_156">
    <path d="M 362.73181 188.638125 
L 364.713343 188.638125 
L 364.713343 182.64845 
L 362.73181 182.64845 
z
" clip-path="url(#pc73ba281f6)" style="fill: #4c72b0; fill-opacity: 0.5; stroke: #4c72b0; stroke-linejoin: miter"/>
   </g>
   <g id="patch_157">
    <path d="M 364.713343 188.638125 
L 366.694876 188.638125 
L 366.694876 184.076904 
L 364.713343 184.076904 
z
" clip-path="url(#pc73ba281f6)" style="fill: #4c72b0; fill-opacity: 0.5; stroke: #4c72b0; stroke-linejoin: miter"/>
   </g>
   <g id="patch_158">
    <path d="M 366.694876 188.638125 
L 368.676409 188.638125 
L 368.676409 183.279373 
L 366.694876 183.279373 
z
" clip-path="url(#pc73ba281f6)" style="fill: #4c72b0; fill-opacity: 0.5; stroke: #4c72b0; stroke-linejoin: miter"/>
   </g>
   <g id="patch_159">
    <path d="M 368.676409 188.638125 
L 370.657942 188.638125 
L 370.657942 184.836197 
L 368.676409 184.836197 
z
" clip-path="url(#pc73ba281f6)" style="fill: #4c72b0; fill-opacity: 0.5; stroke: #4c72b0; stroke-linejoin: miter"/>
   </g>
   <g id="patch_160">
    <path d="M 370.657942 188.638125 
L 372.639475 188.638125 
L 372.639475 184.767915 
L 370.657942 184.767915 
z
" clip-path="url(#pc73ba281f6)" style="fill: #4c72b0; fill-opacity: 0.5; stroke: #4c72b0; stroke-linejoin: miter"/>
   </g>
   <g id="patch_161">
    <path d="M 372.639475 188.638125 
L 374.621008 188.638125 
L 374.621008 184.434701 
L 372.639475 184.434701 
z
" clip-path="url(#pc73ba281f6)" style="fill: #4c72b0; fill-opacity: 0.5; stroke: #4c72b0; stroke-linejoin: miter"/>
   </g>
   <g id="patch_162">
    <path d="M 374.621008 188.638125 
L 376.602541 188.638125 
L 376.602541 184.871704 
L 374.621008 184.871704 
z
" clip-path="url(#pc73ba281f6)" style="fill: #4c72b0; fill-opacity: 0.5; stroke: #4c72b0; stroke-linejoin: miter"/>
   </g>
   <g id="patch_163">
    <path d="M 376.602541 188.638125 
L 378.584074 188.638125 
L 378.584074 185.341482 
L 376.602541 185.341482 
z
" clip-path="url(#pc73ba281f6)" style="fill: #4c72b0; fill-opacity: 0.5; stroke: #4c72b0; stroke-linejoin: miter"/>
   </g>
   <g id="patch_164">
    <path d="M 378.584074 188.638125 
L 380.565607 188.638125 
L 380.565607 185.240425 
L 378.584074 185.240425 
z
" clip-path="url(#pc73ba281f6)" style="fill: #4c72b0; fill-opacity: 0.5; stroke: #4c72b0; stroke-linejoin: miter"/>
   </g>
   <g id="patch_165">
    <path d="M 380.565607 188.638125 
L 382.54714 188.638125 
L 382.54714 185.688353 
L 380.565607 185.688353 
z
" clip-path="url(#pc73ba281f6)" style="fill: #4c72b0; fill-opacity: 0.5; stroke: #4c72b0; stroke-linejoin: miter"/>
   </g>
   <g id="patch_166">
    <path d="M 382.54714 188.638125 
L 384.528673 188.638125 
L 384.528673 186.21822 
L 382.54714 186.21822 
z
" clip-path="url(#pc73ba281f6)" style="fill: #4c72b0; fill-opacity: 0.5; stroke: #4c72b0; stroke-linejoin: miter"/>
   </g>
   <g id="patch_167">
    <path d="M 384.528673 188.638125 
L 386.510205 188.638125 
L 386.510205 185.783948 
L 384.528673 185.783948 
z
" clip-path="url(#pc73ba281f6)" style="fill: #4c72b0; fill-opacity: 0.5; stroke: #4c72b0; stroke-linejoin: miter"/>
   </g>
   <g id="patch_168">
    <path d="M 386.510205 188.638125 
L 388.491738 188.638125 
L 388.491738 186.444915 
L 386.510205 186.444915 
z
" clip-path="url(#pc73ba281f6)" style="fill: #4c72b0; fill-opacity: 0.5; stroke: #4c72b0; stroke-linejoin: miter"/>
   </g>
   <g id="patch_169">
    <path d="M 388.491738 188.638125 
L 390.473271 188.638125 
L 390.473271 186.414871 
L 388.491738 186.414871 
z
" clip-path="url(#pc73ba281f6)" style="fill: #4c72b0; fill-opacity: 0.5; stroke: #4c72b0; stroke-linejoin: miter"/>
   </g>
   <g id="patch_170">
    <path d="M 390.473271 188.638125 
L 392.454804 188.638125 
L 392.454804 186.414871 
L 390.473271 186.414871 
z
" clip-path="url(#pc73ba281f6)" style="fill: #4c72b0; fill-opacity: 0.5; stroke: #4c72b0; stroke-linejoin: miter"/>
   </g>
   <g id="patch_171">
    <path d="M 392.454804 188.638125 
L 394.436337 188.638125 
L 394.436337 186.901037 
L 392.454804 186.901037 
z
" clip-path="url(#pc73ba281f6)" style="fill: #4c72b0; fill-opacity: 0.5; stroke: #4c72b0; stroke-linejoin: miter"/>
   </g>
   <g id="patch_172">
    <path d="M 394.436337 188.638125 
L 396.41787 188.638125 
L 396.41787 186.666148 
L 394.436337 186.666148 
z
" clip-path="url(#pc73ba281f6)" style="fill: #4c72b0; fill-opacity: 0.5; stroke: #4c72b0; stroke-linejoin: miter"/>
   </g>
   <g id="patch_173">
    <path d="M 396.41787 188.638125 
L 398.399403 188.638125 
L 398.399403 185.128443 
L 396.41787 185.128443 
z
" clip-path="url(#pc73ba281f6)" style="fill: #4c72b0; fill-opacity: 0.5; stroke: #4c72b0; stroke-linejoin: miter"/>
   </g>
   <g id="patch_174">
    <path d="M 398.399403 188.638125 
L 400.380936 188.638125 
L 400.380936 183.672676 
L 398.399403 183.672676 
z
" clip-path="url(#pc73ba281f6)" style="fill: #4c72b0; fill-opacity: 0.5; stroke: #4c72b0; stroke-linejoin: miter"/>
   </g>
   <g id="patch_175">
    <path d="M 400.380936 188.638125 
L 402.362469 188.638125 
L 402.362469 179.168812 
L 400.380936 179.168812 
z
" clip-path="url(#pc73ba281f6)" style="fill: #4c72b0; fill-opacity: 0.5; stroke: #4c72b0; stroke-linejoin: miter"/>
   </g>
   <g id="patch_176">
    <path d="M 402.362469 188.638125 
L 404.344002 188.638125 
L 404.344002 161.72146 
L 402.362469 161.72146 
z
" clip-path="url(#pc73ba281f6)" style="fill: #4c72b0; fill-opacity: 0.5; stroke: #4c72b0; stroke-linejoin: miter"/>
   </g>
   <g id="patch_177">
    <path d="M 404.344002 188.638125 
L 406.325535 188.638125 
L 406.325535 161.617672 
L 404.344002 161.617672 
z
" clip-path="url(#pc73ba281f6)" style="fill: #4c72b0; fill-opacity: 0.5; stroke: #4c72b0; stroke-linejoin: miter"/>
   </g>
   <g id="patch_178">
    <path d="M 406.325535 188.638125 
L 408.307108 188.638125 
L 408.307108 172.248104 
L 406.325535 172.248104 
z
" clip-path="url(#pc73ba281f6)" style="fill: #4c72b0; fill-opacity: 0.5; stroke: #4c72b0; stroke-linejoin: miter"/>
   </g>
   <g id="patch_179">
    <path d="M 408.307108 188.638125 
L 410.28864 188.638125 
L 410.28864 158.823582 
L 408.307108 158.823582 
z
" clip-path="url(#pc73ba281f6)" style="fill: #4c72b0; fill-opacity: 0.5; stroke: #4c72b0; stroke-linejoin: miter"/>
   </g>
   <g id="patch_180">
    <path d="M 410.28864 188.638125 
L 412.270173 188.638125 
L 412.270173 152.962277 
L 410.28864 152.962277 
z
" clip-path="url(#pc73ba281f6)" style="fill: #4c72b0; fill-opacity: 0.5; stroke: #4c72b0; stroke-linejoin: miter"/>
   </g>
   <g id="patch_181">
    <path d="M 412.270173 188.638125 
L 414.251706 188.638125 
L 414.251706 159.11856 
L 412.270173 159.11856 
z
" clip-path="url(#pc73ba281f6)" style="fill: #4c72b0; fill-opacity: 0.5; stroke: #4c72b0; stroke-linejoin: miter"/>
   </g>
   <g id="patch_182">
    <path d="M 414.251706 188.638125 
L 416.233239 188.638125 
L 416.233239 172.679315 
L 414.251706 172.679315 
z
" clip-path="url(#pc73ba281f6)" style="fill: #4c72b0; fill-opacity: 0.5; stroke: #4c72b0; stroke-linejoin: miter"/>
   </g>
   <g id="patch_183">
    <path d="M 416.233239 188.638125 
L 418.214772 188.638125 
L 418.214772 177.595601 
L 416.233239 177.595601 
z
" clip-path="url(#pc73ba281f6)" style="fill: #4c72b0; fill-opacity: 0.5; stroke: #4c72b0; stroke-linejoin: miter"/>
   </g>
   <g id="patch_184">
    <path d="M 418.214772 188.638125 
L 420.196305 188.638125 
L 420.196305 173.618872 
L 418.214772 173.618872 
z
" clip-path="url(#pc73ba281f6)" style="fill: #4c72b0; fill-opacity: 0.5; stroke: #4c72b0; stroke-linejoin: miter"/>
   </g>
   <g id="patch_185">
    <path d="M 420.196305 188.638125 
L 422.177838 188.638125 
L 422.177838 172.482663 
L 420.196305 172.482663 
z
" clip-path="url(#pc73ba281f6)" style="fill: #4c72b0; fill-opacity: 0.5; stroke: #4c72b0; stroke-linejoin: miter"/>
   </g>
   <g id="patch_186">
    <path d="M 422.177838 188.638125 
L 424.159371 188.638125 
L 424.159371 173.545127 
L 422.177838 173.545127 
z
" clip-path="url(#pc73ba281f6)" style="fill: #4c72b0; fill-opacity: 0.5; stroke: #4c72b0; stroke-linejoin: miter"/>
   </g>
   <g id="patch_187">
    <path d="M 424.159371 188.638125 
L 426.140904 188.638125 
L 426.140904 176.224503 
L 424.159371 176.224503 
z
" clip-path="url(#pc73ba281f6)" style="fill: #4c72b0; fill-opacity: 0.5; stroke: #4c72b0; stroke-linejoin: miter"/>
   </g>
   <g id="patch_188">
    <path d="M 426.140904 188.638125 
L 428.122437 188.638125 
L 428.122437 179.725991 
L 426.140904 179.725991 
z
" clip-path="url(#pc73ba281f6)" style="fill: #4c72b0; fill-opacity: 0.5; stroke: #4c72b0; stroke-linejoin: miter"/>
   </g>
   <g id="patch_189">
    <path d="M 428.122437 188.638125 
L 430.10397 188.638125 
L 430.10397 182.596556 
L 428.122437 182.596556 
z
" clip-path="url(#pc73ba281f6)" style="fill: #4c72b0; fill-opacity: 0.5; stroke: #4c72b0; stroke-linejoin: miter"/>
   </g>
   <g id="patch_190">
    <path d="M 430.10397 188.638125 
L 432.085503 188.638125 
L 432.085503 186.794518 
L 430.10397 186.794518 
z
" clip-path="url(#pc73ba281f6)" style="fill: #4c72b0; fill-opacity: 0.5; stroke: #4c72b0; stroke-linejoin: miter"/>
   </g>
   <g id="patch_191">
    <path d="M 432.085503 188.638125 
L 434.067036 188.638125 
L 434.067036 187.015751 
L 432.085503 187.015751 
z
" clip-path="url(#pc73ba281f6)" style="fill: #4c72b0; fill-opacity: 0.5; stroke: #4c72b0; stroke-linejoin: miter"/>
   </g>
   <g id="patch_192">
    <path d="M 434.067036 188.638125 
L 436.048568 188.638125 
L 436.048568 186.759011 
L 434.067036 186.759011 
z
" clip-path="url(#pc73ba281f6)" style="fill: #4c72b0; fill-opacity: 0.5; stroke: #4c72b0; stroke-linejoin: miter"/>
   </g>
   <g id="patch_193">
    <path d="M 436.048568 188.638125 
L 438.030101 188.638125 
L 438.030101 186.54051 
L 436.048568 186.54051 
z
" clip-path="url(#pc73ba281f6)" style="fill: #4c72b0; fill-opacity: 0.5; stroke: #4c72b0; stroke-linejoin: miter"/>
   </g>
   <g id="patch_194">
    <path d="M 438.030101 188.638125 
L 440.011634 188.638125 
L 440.011634 186.668879 
L 438.030101 186.668879 
z
" clip-path="url(#pc73ba281f6)" style="fill: #4c72b0; fill-opacity: 0.5; stroke: #4c72b0; stroke-linejoin: miter"/>
   </g>
   <g id="patch_195">
    <path d="M 440.011634 188.638125 
L 441.993167 188.638125 
L 441.993167 186.56236 
L 440.011634 186.56236 
z
" clip-path="url(#pc73ba281f6)" style="fill: #4c72b0; fill-opacity: 0.5; stroke: #4c72b0; stroke-linejoin: miter"/>
   </g>
   <g id="patch_196">
    <path d="M 441.993167 188.638125 
L 443.9747 188.638125 
L 443.9747 186.611523 
L 441.993167 186.611523 
z
" clip-path="url(#pc73ba281f6)" style="fill: #4c72b0; fill-opacity: 0.5; stroke: #4c72b0; stroke-linejoin: miter"/>
   </g>
   <g id="patch_197">
    <path d="M 443.9747 188.638125 
L 445.956233 188.638125 
L 445.956233 186.666148 
L 443.9747 186.666148 
z
" clip-path="url(#pc73ba281f6)" style="fill: #4c72b0; fill-opacity: 0.5; stroke: #4c72b0; stroke-linejoin: miter"/>
   </g>
   <g id="patch_198">
    <path d="M 445.956233 188.638125 
L 447.937766 188.638125 
L 447.937766 186.879187 
L 445.956233 186.879187 
z
" clip-path="url(#pc73ba281f6)" style="fill: #4c72b0; fill-opacity: 0.5; stroke: #4c72b0; stroke-linejoin: miter"/>
   </g>
   <g id="patch_199">
    <path d="M 447.937766 188.638125 
L 449.919299 188.638125 
L 449.919299 187.010288 
L 447.937766 187.010288 
z
" clip-path="url(#pc73ba281f6)" style="fill: #4c72b0; fill-opacity: 0.5; stroke: #4c72b0; stroke-linejoin: miter"/>
   </g>
   <g id="patch_200">
    <path d="M 449.919299 188.638125 
L 451.900832 188.638125 
L 451.900832 187.196014 
L 449.919299 187.196014 
z
" clip-path="url(#pc73ba281f6)" style="fill: #4c72b0; fill-opacity: 0.5; stroke: #4c72b0; stroke-linejoin: miter"/>
   </g>
   <g id="patch_201">
    <path d="M 451.900832 188.638125 
L 453.882365 188.638125 
L 453.882365 187.389935 
L 451.900832 187.389935 
z
" clip-path="url(#pc73ba281f6)" style="fill: #4c72b0; fill-opacity: 0.5; stroke: #4c72b0; stroke-linejoin: miter"/>
   </g>
   <g id="patch_202">
    <path d="M 453.882365 188.638125 
L 455.863898 188.638125 
L 455.863898 187.381741 
L 453.882365 187.381741 
z
" clip-path="url(#pc73ba281f6)" style="fill: #4c72b0; fill-opacity: 0.5; stroke: #4c72b0; stroke-linejoin: miter"/>
   </g>
   <g id="patch_203">
    <path d="M 455.863898 188.638125 
L 457.845431 188.638125 
L 457.845431 187.540154 
L 455.863898 187.540154 
z
" clip-path="url(#pc73ba281f6)" style="fill: #4c72b0; fill-opacity: 0.5; stroke: #4c72b0; stroke-linejoin: miter"/>
   </g>
   <g id="patch_204">
    <path d="M 457.845431 188.638125 
L 459.826963 188.638125 
L 459.826963 187.775044 
L 457.845431 187.775044 
z
" clip-path="url(#pc73ba281f6)" style="fill: #4c72b0; fill-opacity: 0.5; stroke: #4c72b0; stroke-linejoin: miter"/>
   </g>
   <g id="patch_205">
    <path d="M 459.826963 188.638125 
L 461.808496 188.638125 
L 461.808496 187.824207 
L 459.826963 187.824207 
z
" clip-path="url(#pc73ba281f6)" style="fill: #4c72b0; fill-opacity: 0.5; stroke: #4c72b0; stroke-linejoin: miter"/>
   </g>
   <g id="patch_206">
    <path d="M 461.808496 188.638125 
L 463.790029 188.638125 
L 463.790029 187.936189 
L 461.808496 187.936189 
z
" clip-path="url(#pc73ba281f6)" style="fill: #4c72b0; fill-opacity: 0.5; stroke: #4c72b0; stroke-linejoin: miter"/>
   </g>
   <g id="patch_207">
    <path d="M 463.790029 188.638125 
L 465.771562 188.638125 
L 465.771562 187.971695 
L 463.790029 187.971695 
z
" clip-path="url(#pc73ba281f6)" style="fill: #4c72b0; fill-opacity: 0.5; stroke: #4c72b0; stroke-linejoin: miter"/>
   </g>
   <g id="patch_208">
    <path d="M 465.771562 188.638125 
L 467.753095 188.638125 
L 467.753095 188.141034 
L 465.771562 188.141034 
z
" clip-path="url(#pc73ba281f6)" style="fill: #4c72b0; fill-opacity: 0.5; stroke: #4c72b0; stroke-linejoin: miter"/>
   </g>
   <g id="patch_209">
    <path d="M 467.753095 188.638125 
L 469.734628 188.638125 
L 469.734628 188.121915 
L 467.753095 188.121915 
z
" clip-path="url(#pc73ba281f6)" style="fill: #4c72b0; fill-opacity: 0.5; stroke: #4c72b0; stroke-linejoin: miter"/>
   </g>
   <g id="patch_210">
    <path d="M 469.734628 188.638125 
L 471.716161 188.638125 
L 471.716161 188.228435 
L 469.734628 188.228435 
z
" clip-path="url(#pc73ba281f6)" style="fill: #4c72b0; fill-opacity: 0.5; stroke: #4c72b0; stroke-linejoin: miter"/>
   </g>
   <g id="patch_211">
    <path d="M 471.716161 188.638125 
L 473.697734 188.638125 
L 473.697734 188.315842 
L 471.716161 188.315842 
z
" clip-path="url(#pc73ba281f6)" style="fill: #4c72b0; fill-opacity: 0.5; stroke: #4c72b0; stroke-linejoin: miter"/>
   </g>
   <g id="patch_212">
    <path d="M 473.697734 188.638125 
L 475.679267 188.638125 
L 475.679267 188.293985 
L 473.697734 188.293985 
z
" clip-path="url(#pc73ba281f6)" style="fill: #4c72b0; fill-opacity: 0.5; stroke: #4c72b0; stroke-linejoin: miter"/>
   </g>
   <g id="patch_213">
    <path d="M 475.679267 188.638125 
L 477.6608 188.638125 
L 477.6608 188.364998 
L 475.679267 188.364998 
z
" clip-path="url(#pc73ba281f6)" style="fill: #4c72b0; fill-opacity: 0.5; stroke: #4c72b0; stroke-linejoin: miter"/>
   </g>
   <g id="patch_214">
    <path d="M 477.6608 188.638125 
L 479.642333 188.638125 
L 479.642333 188.400505 
L 477.6608 188.400505 
z
" clip-path="url(#pc73ba281f6)" style="fill: #4c72b0; fill-opacity: 0.5; stroke: #4c72b0; stroke-linejoin: miter"/>
   </g>
   <g id="patch_215">
    <path d="M 479.642333 188.638125 
L 481.623866 188.638125 
L 481.623866 188.41143 
L 479.642333 188.41143 
z
" clip-path="url(#pc73ba281f6)" style="fill: #4c72b0; fill-opacity: 0.5; stroke: #4c72b0; stroke-linejoin: miter"/>
   </g>
   <g id="patch_216">
    <path d="M 481.623866 188.638125 
L 483.605398 188.638125 
L 483.605398 188.419623 
L 481.623866 188.419623 
z
" clip-path="url(#pc73ba281f6)" style="fill: #4c72b0; fill-opacity: 0.5; stroke: #4c72b0; stroke-linejoin: miter"/>
   </g>
   <g id="patch_217">
    <path d="M 483.605398 188.638125 
L 485.586931 188.638125 
L 485.586931 188.471518 
L 483.605398 188.471518 
z
" clip-path="url(#pc73ba281f6)" style="fill: #4c72b0; fill-opacity: 0.5; stroke: #4c72b0; stroke-linejoin: miter"/>
   </g>
   <g id="patch_218">
    <path d="M 485.586931 188.638125 
L 487.568464 188.638125 
L 487.568464 188.531605 
L 485.586931 188.531605 
z
" clip-path="url(#pc73ba281f6)" style="fill: #4c72b0; fill-opacity: 0.5; stroke: #4c72b0; stroke-linejoin: miter"/>
   </g>
   <g id="patch_219">
    <path d="M 487.568464 188.638125 
L 489.549997 188.638125 
L 489.549997 188.507024 
L 487.568464 188.507024 
z
" clip-path="url(#pc73ba281f6)" style="fill: #4c72b0; fill-opacity: 0.5; stroke: #4c72b0; stroke-linejoin: miter"/>
   </g>
   <g id="patch_220">
    <path d="M 489.549997 188.638125 
L 491.53153 188.638125 
L 491.53153 188.507024 
L 489.549997 188.507024 
z
" clip-path="url(#pc73ba281f6)" style="fill: #4c72b0; fill-opacity: 0.5; stroke: #4c72b0; stroke-linejoin: miter"/>
   </g>
   <g id="patch_221">
    <path d="M 491.53153 188.638125 
L 493.513063 188.638125 
L 493.513063 188.526143 
L 491.53153 188.526143 
z
" clip-path="url(#pc73ba281f6)" style="fill: #4c72b0; fill-opacity: 0.5; stroke: #4c72b0; stroke-linejoin: miter"/>
   </g>
   <g id="patch_222">
    <path d="M 493.513063 188.638125 
L 495.494596 188.638125 
L 495.494596 188.553456 
L 493.513063 188.553456 
z
" clip-path="url(#pc73ba281f6)" style="fill: #4c72b0; fill-opacity: 0.5; stroke: #4c72b0; stroke-linejoin: miter"/>
   </g>
   <g id="patch_223">
    <path d="M 495.494596 188.638125 
L 497.476129 188.638125 
L 497.476129 188.572575 
L 495.494596 188.572575 
z
" clip-path="url(#pc73ba281f6)" style="fill: #4c72b0; fill-opacity: 0.5; stroke: #4c72b0; stroke-linejoin: miter"/>
   </g>
   <g id="patch_224">
    <path d="M 497.476129 188.638125 
L 499.457662 188.638125 
L 499.457662 188.523412 
L 497.476129 188.523412 
z
" clip-path="url(#pc73ba281f6)" style="fill: #4c72b0; fill-opacity: 0.5; stroke: #4c72b0; stroke-linejoin: miter"/>
   </g>
   <g id="patch_225">
    <path d="M 499.457662 188.638125 
L 501.439195 188.638125 
L 501.439195 188.5835 
L 499.457662 188.5835 
z
" clip-path="url(#pc73ba281f6)" style="fill: #4c72b0; fill-opacity: 0.5; stroke: #4c72b0; stroke-linejoin: miter"/>
   </g>
   <g id="patch_226">
    <path d="M 501.439195 188.638125 
L 503.420728 188.638125 
L 503.420728 188.569843 
L 501.439195 188.569843 
z
" clip-path="url(#pc73ba281f6)" style="fill: #4c72b0; fill-opacity: 0.5; stroke: #4c72b0; stroke-linejoin: miter"/>
   </g>
   <g id="patch_227">
    <path d="M 503.420728 188.638125 
L 505.402261 188.638125 
L 505.402261 188.597156 
L 503.420728 188.597156 
z
" clip-path="url(#pc73ba281f6)" style="fill: #4c72b0; fill-opacity: 0.5; stroke: #4c72b0; stroke-linejoin: miter"/>
   </g>
   <g id="patch_228">
    <path d="M 505.402261 188.638125 
L 507.383794 188.638125 
L 507.383794 188.580768 
L 505.402261 188.580768 
z
" clip-path="url(#pc73ba281f6)" style="fill: #4c72b0; fill-opacity: 0.5; stroke: #4c72b0; stroke-linejoin: miter"/>
   </g>
   <g id="patch_229">
    <path d="M 507.383794 188.638125 
L 509.365326 188.638125 
L 509.365326 188.5835 
L 507.383794 188.5835 
z
" clip-path="url(#pc73ba281f6)" style="fill: #4c72b0; fill-opacity: 0.5; stroke: #4c72b0; stroke-linejoin: miter"/>
   </g>
   <g id="patch_230">
    <path d="M 509.365326 188.638125 
L 511.346859 188.638125 
L 511.346859 188.597156 
L 509.365326 188.597156 
z
" clip-path="url(#pc73ba281f6)" style="fill: #4c72b0; fill-opacity: 0.5; stroke: #4c72b0; stroke-linejoin: miter"/>
   </g>
   <g id="patch_231">
    <path d="M 511.346859 188.638125 
L 513.328392 188.638125 
L 513.328392 188.594425 
L 511.346859 188.594425 
z
" clip-path="url(#pc73ba281f6)" style="fill: #4c72b0; fill-opacity: 0.5; stroke: #4c72b0; stroke-linejoin: miter"/>
   </g>
   <g id="patch_232">
    <path d="M 513.328392 188.638125 
L 515.309925 188.638125 
L 515.309925 188.594425 
L 513.328392 188.594425 
z
" clip-path="url(#pc73ba281f6)" style="fill: #4c72b0; fill-opacity: 0.5; stroke: #4c72b0; stroke-linejoin: miter"/>
   </g>
   <g id="patch_233">
    <path d="M 515.309925 188.638125 
L 517.291458 188.638125 
L 517.291458 188.580768 
L 515.309925 188.580768 
z
" clip-path="url(#pc73ba281f6)" style="fill: #4c72b0; fill-opacity: 0.5; stroke: #4c72b0; stroke-linejoin: miter"/>
   </g>
   <g id="patch_234">
    <path d="M 517.291458 188.638125 
L 519.272991 188.638125 
L 519.272991 188.619006 
L 517.291458 188.619006 
z
" clip-path="url(#pc73ba281f6)" style="fill: #4c72b0; fill-opacity: 0.5; stroke: #4c72b0; stroke-linejoin: miter"/>
   </g>
   <g id="patch_235">
    <path d="M 519.272991 188.638125 
L 521.254524 188.638125 
L 521.254524 188.613544 
L 519.272991 188.613544 
z
" clip-path="url(#pc73ba281f6)" style="fill: #4c72b0; fill-opacity: 0.5; stroke: #4c72b0; stroke-linejoin: miter"/>
   </g>
   <g id="patch_236">
    <path d="M 521.254524 188.638125 
L 523.236057 188.638125 
L 523.236057 188.616275 
L 521.254524 188.616275 
z
" clip-path="url(#pc73ba281f6)" style="fill: #4c72b0; fill-opacity: 0.5; stroke: #4c72b0; stroke-linejoin: miter"/>
   </g>
   <g id="patch_237">
    <path d="M 523.236057 188.638125 
L 525.21759 188.638125 
L 525.21759 188.610812 
L 523.236057 188.610812 
z
" clip-path="url(#pc73ba281f6)" style="fill: #4c72b0; fill-opacity: 0.5; stroke: #4c72b0; stroke-linejoin: miter"/>
   </g>
   <g id="patch_238">
    <path d="M 525.21759 188.638125 
L 527.199123 188.638125 
L 527.199123 188.608081 
L 525.21759 188.608081 
z
" clip-path="url(#pc73ba281f6)" style="fill: #4c72b0; fill-opacity: 0.5; stroke: #4c72b0; stroke-linejoin: miter"/>
   </g>
   <g id="patch_239">
    <path d="M 527.199123 188.638125 
L 529.180656 188.638125 
L 529.180656 188.624469 
L 527.199123 188.624469 
z
" clip-path="url(#pc73ba281f6)" style="fill: #4c72b0; fill-opacity: 0.5; stroke: #4c72b0; stroke-linejoin: miter"/>
   </g>
   <g id="patch_240">
    <path d="M 529.180656 188.638125 
L 531.162189 188.638125 
L 531.162189 188.6272 
L 529.180656 188.6272 
z
" clip-path="url(#pc73ba281f6)" style="fill: #4c72b0; fill-opacity: 0.5; stroke: #4c72b0; stroke-linejoin: miter"/>
   </g>
   <g id="patch_241">
    <path d="M 531.162189 188.638125 
L 533.143722 188.638125 
L 533.143722 188.6272 
L 531.162189 188.6272 
z
" clip-path="url(#pc73ba281f6)" style="fill: #4c72b0; fill-opacity: 0.5; stroke: #4c72b0; stroke-linejoin: miter"/>
   </g>
   <g id="patch_242">
    <path d="M 533.143722 188.638125 
L 535.125294 188.638125 
L 535.125294 188.632663 
L 533.143722 188.632663 
z
" clip-path="url(#pc73ba281f6)" style="fill: #4c72b0; fill-opacity: 0.5; stroke: #4c72b0; stroke-linejoin: miter"/>
   </g>
   <g id="patch_243">
    <path d="M 535.125294 188.638125 
L 537.106827 188.638125 
L 537.106827 188.6272 
L 535.125294 188.6272 
z
" clip-path="url(#pc73ba281f6)" style="fill: #4c72b0; fill-opacity: 0.5; stroke: #4c72b0; stroke-linejoin: miter"/>
   </g>
   <g id="patch_244">
    <path d="M 537.106827 188.638125 
L 539.08836 188.638125 
L 539.08836 188.632662 
L 537.106827 188.632662 
z
" clip-path="url(#pc73ba281f6)" style="fill: #4c72b0; fill-opacity: 0.5; stroke: #4c72b0; stroke-linejoin: miter"/>
   </g>
   <g id="patch_245">
    <path d="M 539.08836 188.638125 
L 541.069893 188.638125 
L 541.069893 188.621737 
L 539.08836 188.621737 
z
" clip-path="url(#pc73ba281f6)" style="fill: #4c72b0; fill-opacity: 0.5; stroke: #4c72b0; stroke-linejoin: miter"/>
   </g>
   <g id="patch_246">
    <path d="M 541.069893 188.638125 
L 543.051426 188.638125 
L 543.051426 188.635394 
L 541.069893 188.635394 
z
" clip-path="url(#pc73ba281f6)" style="fill: #4c72b0; fill-opacity: 0.5; stroke: #4c72b0; stroke-linejoin: miter"/>
   </g>
   <g id="patch_247">
    <path d="M 543.051426 188.638125 
L 545.032959 188.638125 
L 545.032959 188.638125 
L 543.051426 188.638125 
z
" clip-path="url(#pc73ba281f6)" style="fill: #4c72b0; fill-opacity: 0.5; stroke: #4c72b0; stroke-linejoin: miter"/>
   </g>
   <g id="patch_248">
    <path d="M 545.032959 188.638125 
L 547.014492 188.638125 
L 547.014492 188.635394 
L 545.032959 188.635394 
z
" clip-path="url(#pc73ba281f6)" style="fill: #4c72b0; fill-opacity: 0.5; stroke: #4c72b0; stroke-linejoin: miter"/>
   </g>
   <g id="patch_249">
    <path d="M 547.014492 188.638125 
L 548.996025 188.638125 
L 548.996025 188.635394 
L 547.014492 188.635394 
z
" clip-path="url(#pc73ba281f6)" style="fill: #4c72b0; fill-opacity: 0.5; stroke: #4c72b0; stroke-linejoin: miter"/>
   </g>
   <g id="patch_250">
    <path d="M 548.996025 188.638125 
L 550.977558 188.638125 
L 550.977558 188.632662 
L 548.996025 188.632662 
z
" clip-path="url(#pc73ba281f6)" style="fill: #4c72b0; fill-opacity: 0.5; stroke: #4c72b0; stroke-linejoin: miter"/>
   </g>
   <g id="patch_251">
    <path d="M 550.977558 188.638125 
L 552.959091 188.638125 
L 552.959091 188.632662 
L 550.977558 188.632662 
z
" clip-path="url(#pc73ba281f6)" style="fill: #4c72b0; fill-opacity: 0.5; stroke: #4c72b0; stroke-linejoin: miter"/>
   </g>
   <g id="patch_252">
    <path d="M 552.959091 188.638125 
L 554.940624 188.638125 
L 554.940624 188.632662 
L 552.959091 188.632662 
z
" clip-path="url(#pc73ba281f6)" style="fill: #4c72b0; fill-opacity: 0.5; stroke: #4c72b0; stroke-linejoin: miter"/>
   </g>
   <g id="patch_253">
    <path d="M 554.940624 188.638125 
L 556.922156 188.638125 
L 556.922156 188.635394 
L 554.940624 188.635394 
z
" clip-path="url(#pc73ba281f6)" style="fill: #4c72b0; fill-opacity: 0.5; stroke: #4c72b0; stroke-linejoin: miter"/>
   </g>
   <g id="patch_254">
    <path d="M 556.922156 188.638125 
L 558.903689 188.638125 
L 558.903689 188.629931 
L 556.922156 188.629931 
z
" clip-path="url(#pc73ba281f6)" style="fill: #4c72b0; fill-opacity: 0.5; stroke: #4c72b0; stroke-linejoin: miter"/>
   </g>
   <g id="patch_255">
    <path d="M 558.903689 188.638125 
L 560.885222 188.638125 
L 560.885222 188.635394 
L 558.903689 188.635394 
z
" clip-path="url(#pc73ba281f6)" style="fill: #4c72b0; fill-opacity: 0.5; stroke: #4c72b0; stroke-linejoin: miter"/>
   </g>
   <g id="patch_256">
    <path d="M 560.885222 188.638125 
L 562.866755 188.638125 
L 562.866755 188.638125 
L 560.885222 188.638125 
z
" clip-path="url(#pc73ba281f6)" style="fill: #4c72b0; fill-opacity: 0.5; stroke: #4c72b0; stroke-linejoin: miter"/>
   </g>
   <g id="patch_257">
    <path d="M 562.866755 188.638125 
L 564.848288 188.638125 
L 564.848288 188.635394 
L 562.866755 188.635394 
z
" clip-path="url(#pc73ba281f6)" style="fill: #4c72b0; fill-opacity: 0.5; stroke: #4c72b0; stroke-linejoin: miter"/>
   </g>
   <g id="patch_258">
    <path d="M 564.848288 188.638125 
L 566.829801 188.638125 
L 566.829801 188.635394 
L 564.848288 188.635394 
z
" clip-path="url(#pc73ba281f6)" style="fill: #4c72b0; fill-opacity: 0.5; stroke: #4c72b0; stroke-linejoin: miter"/>
   </g>
   <g id="patch_259">
    <path d="M 34.193438 188.638125 
L 34.193438 22.318125 
" style="fill: none; stroke: #ffffff; stroke-width: 1.25; stroke-linejoin: miter; stroke-linecap: square"/>
   </g>
   <g id="patch_260">
    <path d="M 592.193437 188.638125 
L 592.193437 22.318125 
" style="fill: none; stroke: #ffffff; stroke-width: 1.25; stroke-linejoin: miter; stroke-linecap: square"/>
   </g>
   <g id="patch_261">
    <path d="M 34.193438 188.638125 
L 592.193438 188.638125 
" style="fill: none; stroke: #ffffff; stroke-width: 1.25; stroke-linejoin: miter; stroke-linecap: square"/>
   </g>
   <g id="patch_262">
    <path d="M 34.193438 22.318125 
L 592.193438 22.318125 
" style="fill: none; stroke: #ffffff; stroke-width: 1.25; stroke-linejoin: miter; stroke-linecap: square"/>
   </g>
   <g id="text_11">
    <!-- Variational dequantization -->
    <g style="fill: #262626" transform="translate(234.39375 16.318125) scale(0.12 -0.12)">
     <defs>
      <path id="DejaVuSans-56" d="M 1831 0 
L 50 4666 
L 709 4666 
L 2188 738 
L 3669 4666 
L 4325 4666 
L 2547 0 
L 1831 0 
z
" transform="scale(0.015625)"/>
      <path id="DejaVuSans-61" d="M 2194 1759 
Q 1497 1759 1228 1600 
Q 959 1441 959 1056 
Q 959 750 1161 570 
Q 1363 391 1709 391 
Q 2188 391 2477 730 
Q 2766 1069 2766 1631 
L 2766 1759 
L 2194 1759 
z
M 3341 1997 
L 3341 0 
L 2766 0 
L 2766 531 
Q 2569 213 2275 61 
Q 1981 -91 1556 -91 
Q 1019 -91 701 211 
Q 384 513 384 1019 
Q 384 1609 779 1909 
Q 1175 2209 1959 2209 
L 2766 2209 
L 2766 2266 
Q 2766 2663 2505 2880 
Q 2244 3097 1772 3097 
Q 1472 3097 1187 3025 
Q 903 2953 641 2809 
L 641 3341 
Q 956 3463 1253 3523 
Q 1550 3584 1831 3584 
Q 2591 3584 2966 3190 
Q 3341 2797 3341 1997 
z
" transform="scale(0.015625)"/>
      <path id="DejaVuSans-72" d="M 2631 2963 
Q 2534 3019 2420 3045 
Q 2306 3072 2169 3072 
Q 1681 3072 1420 2755 
Q 1159 2438 1159 1844 
L 1159 0 
L 581 0 
L 581 3500 
L 1159 3500 
L 1159 2956 
Q 1341 3275 1631 3429 
Q 1922 3584 2338 3584 
Q 2397 3584 2469 3576 
Q 2541 3569 2628 3553 
L 2631 2963 
z
" transform="scale(0.015625)"/>
      <path id="DejaVuSans-69" d="M 603 3500 
L 1178 3500 
L 1178 0 
L 603 0 
L 603 3500 
z
M 603 4863 
L 1178 4863 
L 1178 4134 
L 603 4134 
L 603 4863 
z
" transform="scale(0.015625)"/>
      <path id="DejaVuSans-74" d="M 1172 4494 
L 1172 3500 
L 2356 3500 
L 2356 3053 
L 1172 3053 
L 1172 1153 
Q 1172 725 1289 603 
Q 1406 481 1766 481 
L 2356 481 
L 2356 0 
L 1766 0 
Q 1100 0 847 248 
Q 594 497 594 1153 
L 594 3053 
L 172 3053 
L 172 3500 
L 594 3500 
L 594 4494 
L 1172 4494 
z
" transform="scale(0.015625)"/>
      <path id="DejaVuSans-6f" d="M 1959 3097 
Q 1497 3097 1228 2736 
Q 959 2375 959 1747 
Q 959 1119 1226 758 
Q 1494 397 1959 397 
Q 2419 397 2687 759 
Q 2956 1122 2956 1747 
Q 2956 2369 2687 2733 
Q 2419 3097 1959 3097 
z
M 1959 3584 
Q 2709 3584 3137 3096 
Q 3566 2609 3566 1747 
Q 3566 888 3137 398 
Q 2709 -91 1959 -91 
Q 1206 -91 779 398 
Q 353 888 353 1747 
Q 353 2609 779 3096 
Q 1206 3584 1959 3584 
z
" transform="scale(0.015625)"/>
      <path id="DejaVuSans-6e" d="M 3513 2113 
L 3513 0 
L 2938 0 
L 2938 2094 
Q 2938 2591 2744 2837 
Q 2550 3084 2163 3084 
Q 1697 3084 1428 2787 
Q 1159 2491 1159 1978 
L 1159 0 
L 581 0 
L 581 3500 
L 1159 3500 
L 1159 2956 
Q 1366 3272 1645 3428 
Q 1925 3584 2291 3584 
Q 2894 3584 3203 3211 
Q 3513 2838 3513 2113 
z
" transform="scale(0.015625)"/>
      <path id="DejaVuSans-6c" d="M 603 4863 
L 1178 4863 
L 1178 0 
L 603 0 
L 603 4863 
z
" transform="scale(0.015625)"/>
      <path id="DejaVuSans-20" transform="scale(0.015625)"/>
      <path id="DejaVuSans-64" d="M 2906 2969 
L 2906 4863 
L 3481 4863 
L 3481 0 
L 2906 0 
L 2906 525 
Q 2725 213 2448 61 
Q 2172 -91 1784 -91 
Q 1150 -91 751 415 
Q 353 922 353 1747 
Q 353 2572 751 3078 
Q 1150 3584 1784 3584 
Q 2172 3584 2448 3432 
Q 2725 3281 2906 2969 
z
M 947 1747 
Q 947 1113 1208 752 
Q 1469 391 1925 391 
Q 2381 391 2643 752 
Q 2906 1113 2906 1747 
Q 2906 2381 2643 2742 
Q 2381 3103 1925 3103 
Q 1469 3103 1208 2742 
Q 947 2381 947 1747 
z
" transform="scale(0.015625)"/>
      <path id="DejaVuSans-65" d="M 3597 1894 
L 3597 1613 
L 953 1613 
Q 991 1019 1311 708 
Q 1631 397 2203 397 
Q 2534 397 2845 478 
Q 3156 559 3463 722 
L 3463 178 
Q 3153 47 2828 -22 
Q 2503 -91 2169 -91 
Q 1331 -91 842 396 
Q 353 884 353 1716 
Q 353 2575 817 3079 
Q 1281 3584 2069 3584 
Q 2775 3584 3186 3129 
Q 3597 2675 3597 1894 
z
M 3022 2063 
Q 3016 2534 2758 2815 
Q 2500 3097 2075 3097 
Q 1594 3097 1305 2825 
Q 1016 2553 972 2059 
L 3022 2063 
z
" transform="scale(0.015625)"/>
      <path id="DejaVuSans-71" d="M 947 1747 
Q 947 1113 1208 752 
Q 1469 391 1925 391 
Q 2381 391 2643 752 
Q 2906 1113 2906 1747 
Q 2906 2381 2643 2742 
Q 2381 3103 1925 3103 
Q 1469 3103 1208 2742 
Q 947 2381 947 1747 
z
M 2906 525 
Q 2725 213 2448 61 
Q 2172 -91 1784 -91 
Q 1150 -91 751 415 
Q 353 922 353 1747 
Q 353 2572 751 3078 
Q 1150 3584 1784 3584 
Q 2172 3584 2448 3432 
Q 2725 3281 2906 2969 
L 2906 3500 
L 3481 3500 
L 3481 -1331 
L 2906 -1331 
L 2906 525 
z
" transform="scale(0.015625)"/>
      <path id="DejaVuSans-75" d="M 544 1381 
L 544 3500 
L 1119 3500 
L 1119 1403 
Q 1119 906 1312 657 
Q 1506 409 1894 409 
Q 2359 409 2629 706 
Q 2900 1003 2900 1516 
L 2900 3500 
L 3475 3500 
L 3475 0 
L 2900 0 
L 2900 538 
Q 2691 219 2414 64 
Q 2138 -91 1772 -91 
Q 1169 -91 856 284 
Q 544 659 544 1381 
z
M 1991 3584 
L 1991 3584 
z
" transform="scale(0.015625)"/>
      <path id="DejaVuSans-7a" d="M 353 3500 
L 3084 3500 
L 3084 2975 
L 922 459 
L 3084 459 
L 3084 0 
L 275 0 
L 275 525 
L 2438 3041 
L 353 3041 
L 353 3500 
z
" transform="scale(0.015625)"/>
     </defs>
     <use xlink:href="#DejaVuSans-56"/>
     <use xlink:href="#DejaVuSans-61" x="60.658203"/>
     <use xlink:href="#DejaVuSans-72" x="121.9375"/>
     <use xlink:href="#DejaVuSans-69" x="163.050781"/>
     <use xlink:href="#DejaVuSans-61" x="190.833984"/>
     <use xlink:href="#DejaVuSans-74" x="252.113281"/>
     <use xlink:href="#DejaVuSans-69" x="291.322266"/>
     <use xlink:href="#DejaVuSans-6f" x="319.105469"/>
     <use xlink:href="#DejaVuSans-6e" x="380.287109"/>
     <use xlink:href="#DejaVuSans-61" x="443.666016"/>
     <use xlink:href="#DejaVuSans-6c" x="504.945312"/>
     <use xlink:href="#DejaVuSans-20" x="532.728516"/>
     <use xlink:href="#DejaVuSans-64" x="564.515625"/>
     <use xlink:href="#DejaVuSans-65" x="627.992188"/>
     <use xlink:href="#DejaVuSans-71" x="689.515625"/>
     <use xlink:href="#DejaVuSans-75" x="752.992188"/>
     <use xlink:href="#DejaVuSans-61" x="816.371094"/>
     <use xlink:href="#DejaVuSans-6e" x="877.650391"/>
     <use xlink:href="#DejaVuSans-74" x="941.029297"/>
     <use xlink:href="#DejaVuSans-69" x="980.238281"/>
     <use xlink:href="#DejaVuSans-7a" x="1008.021484"/>
     <use xlink:href="#DejaVuSans-61" x="1060.511719"/>
     <use xlink:href="#DejaVuSans-74" x="1121.791016"/>
     <use xlink:href="#DejaVuSans-69" x="1161"/>
     <use xlink:href="#DejaVuSans-6f" x="1188.783203"/>
     <use xlink:href="#DejaVuSans-6e" x="1249.964844"/>
    </g>
   </g>
  </g>
 </g>
 <defs>
  <clipPath id="pc73ba281f6">
   <rect x="34.193438" y="22.318125" width="558" height="166.32"/>
  </clipPath>
 </defs>
</svg>
