<?xml version="1.0" encoding="utf-8" standalone="no"?>
<!DOCTYPE svg PUBLIC "-//W3C//DTD SVG 1.1//EN"
  "http://www.w3.org/Graphics/SVG/1.1/DTD/svg11.dtd">
<svg xmlns:xlink="http://www.w3.org/1999/xlink" width="409.304062pt" height="228.357813pt" viewBox="0 0 409.304062 228.357813" xmlns="http://www.w3.org/2000/svg" version="1.1">
 <metadata>
  <rdf:RDF xmlns:dc="http://purl.org/dc/elements/1.1/" xmlns:cc="http://creativecommons.org/ns#" xmlns:rdf="http://www.w3.org/1999/02/22-rdf-syntax-ns#">
   <cc:Work>
    <dc:type rdf:resource="http://purl.org/dc/dcmitype/StillImage"/>
    <dc:date>2022-05-03T03:17:09.154707</dc:date>
    <dc:format>image/svg+xml</dc:format>
    <dc:creator>
     <cc:Agent>
      <dc:title>Matplotlib v3.5.1, https://matplotlib.org/</dc:title>
     </cc:Agent>
    </dc:creator>
   </cc:Work>
  </rdf:RDF>
 </metadata>
 <defs>
  <style type="text/css">*{stroke-linejoin: round; stroke-linecap: butt}</style>
 </defs>
 <g id="figure_1">
  <g id="patch_1">
   <path d="M 0 228.357813 
L 409.304062 228.357813 
L 409.304062 0 
L 0 0 
z
" style="fill: #ffffff"/>
  </g>
  <g id="axes_1">
   <g id="patch_2">
    <path d="M 56.805937 185.398125 
L 391.605938 185.398125 
L 391.605938 22.318125 
L 56.805937 22.318125 
z
" style="fill: #eaeaf2"/>
   </g>
   <g id="matplotlib.axis_1">
    <g id="xtick_1">
     <g id="line2d_1">
      <path d="M 77.730937 185.398125 
L 77.730937 22.318125 
" clip-path="url(#pce41343ae5)" style="fill: none; stroke: #ffffff; stroke-linecap: round"/>
     </g>
     <g id="text_1">
      <!-- 100 -->
      <g style="fill: #262626" transform="translate(67.232812 203.256406)scale(0.11 -0.11)">
       <defs>
        <path id="DejaVuSans-31" d="M 794 531 
L 1825 531 
L 1825 4091 
L 703 3866 
L 703 4441 
L 1819 4666 
L 2450 4666 
L 2450 531 
L 3481 531 
L 3481 0 
L 794 0 
L 794 531 
z
" transform="scale(0.015625)"/>
        <path id="DejaVuSans-30" d="M 2034 4250 
Q 1547 4250 1301 3770 
Q 1056 3291 1056 2328 
Q 1056 1369 1301 889 
Q 1547 409 2034 409 
Q 2525 409 2770 889 
Q 3016 1369 3016 2328 
Q 3016 3291 2770 3770 
Q 2525 4250 2034 4250 
z
M 2034 4750 
Q 2819 4750 3233 4129 
Q 3647 3509 3647 2328 
Q 3647 1150 3233 529 
Q 2819 -91 2034 -91 
Q 1250 -91 836 529 
Q 422 1150 422 2328 
Q 422 3509 836 4129 
Q 1250 4750 2034 4750 
z
" transform="scale(0.015625)"/>
       </defs>
       <use xlink:href="#DejaVuSans-31"/>
       <use xlink:href="#DejaVuSans-30" x="63.623047"/>
       <use xlink:href="#DejaVuSans-30" x="127.246094"/>
      </g>
     </g>
    </g>
    <g id="xtick_2">
     <g id="line2d_2">
      <path d="M 130.043437 185.398125 
L 130.043437 22.318125 
" clip-path="url(#pce41343ae5)" style="fill: none; stroke: #ffffff; stroke-linecap: round"/>
     </g>
     <g id="text_2">
      <!-- 110 -->
      <g style="fill: #262626" transform="translate(119.545312 203.256406)scale(0.11 -0.11)">
       <use xlink:href="#DejaVuSans-31"/>
       <use xlink:href="#DejaVuSans-31" x="63.623047"/>
       <use xlink:href="#DejaVuSans-30" x="127.246094"/>
      </g>
     </g>
    </g>
    <g id="xtick_3">
     <g id="line2d_3">
      <path d="M 182.355937 185.398125 
L 182.355937 22.318125 
" clip-path="url(#pce41343ae5)" style="fill: none; stroke: #ffffff; stroke-linecap: round"/>
     </g>
     <g id="text_3">
      <!-- 120 -->
      <g style="fill: #262626" transform="translate(171.857812 203.256406)scale(0.11 -0.11)">
       <defs>
        <path id="DejaVuSans-32" d="M 1228 531 
L 3431 531 
L 3431 0 
L 469 0 
L 469 531 
Q 828 903 1448 1529 
Q 2069 2156 2228 2338 
Q 2531 2678 2651 2914 
Q 2772 3150 2772 3378 
Q 2772 3750 2511 3984 
Q 2250 4219 1831 4219 
Q 1534 4219 1204 4116 
Q 875 4013 500 3803 
L 500 4441 
Q 881 4594 1212 4672 
Q 1544 4750 1819 4750 
Q 2544 4750 2975 4387 
Q 3406 4025 3406 3419 
Q 3406 3131 3298 2873 
Q 3191 2616 2906 2266 
Q 2828 2175 2409 1742 
Q 1991 1309 1228 531 
z
" transform="scale(0.015625)"/>
       </defs>
       <use xlink:href="#DejaVuSans-31"/>
       <use xlink:href="#DejaVuSans-32" x="63.623047"/>
       <use xlink:href="#DejaVuSans-30" x="127.246094"/>
      </g>
     </g>
    </g>
    <g id="xtick_4">
     <g id="line2d_4">
      <path d="M 234.668437 185.398125 
L 234.668437 22.318125 
" clip-path="url(#pce41343ae5)" style="fill: none; stroke: #ffffff; stroke-linecap: round"/>
     </g>
     <g id="text_4">
      <!-- 130 -->
      <g style="fill: #262626" transform="translate(224.170312 203.256406)scale(0.11 -0.11)">
       <defs>
        <path id="DejaVuSans-33" d="M 2597 2516 
Q 3050 2419 3304 2112 
Q 3559 1806 3559 1356 
Q 3559 666 3084 287 
Q 2609 -91 1734 -91 
Q 1441 -91 1130 -33 
Q 819 25 488 141 
L 488 750 
Q 750 597 1062 519 
Q 1375 441 1716 441 
Q 2309 441 2620 675 
Q 2931 909 2931 1356 
Q 2931 1769 2642 2001 
Q 2353 2234 1838 2234 
L 1294 2234 
L 1294 2753 
L 1863 2753 
Q 2328 2753 2575 2939 
Q 2822 3125 2822 3475 
Q 2822 3834 2567 4026 
Q 2313 4219 1838 4219 
Q 1578 4219 1281 4162 
Q 984 4106 628 3988 
L 628 4550 
Q 988 4650 1302 4700 
Q 1616 4750 1894 4750 
Q 2613 4750 3031 4423 
Q 3450 4097 3450 3541 
Q 3450 3153 3228 2886 
Q 3006 2619 2597 2516 
z
" transform="scale(0.015625)"/>
       </defs>
       <use xlink:href="#DejaVuSans-31"/>
       <use xlink:href="#DejaVuSans-33" x="63.623047"/>
       <use xlink:href="#DejaVuSans-30" x="127.246094"/>
      </g>
     </g>
    </g>
    <g id="xtick_5">
     <g id="line2d_5">
      <path d="M 286.980937 185.398125 
L 286.980937 22.318125 
" clip-path="url(#pce41343ae5)" style="fill: none; stroke: #ffffff; stroke-linecap: round"/>
     </g>
     <g id="text_5">
      <!-- 140 -->
      <g style="fill: #262626" transform="translate(276.482812 203.256406)scale(0.11 -0.11)">
       <defs>
        <path id="DejaVuSans-34" d="M 2419 4116 
L 825 1625 
L 2419 1625 
L 2419 4116 
z
M 2253 4666 
L 3047 4666 
L 3047 1625 
L 3713 1625 
L 3713 1100 
L 3047 1100 
L 3047 0 
L 2419 0 
L 2419 1100 
L 313 1100 
L 313 1709 
L 2253 4666 
z
" transform="scale(0.015625)"/>
       </defs>
       <use xlink:href="#DejaVuSans-31"/>
       <use xlink:href="#DejaVuSans-34" x="63.623047"/>
       <use xlink:href="#DejaVuSans-30" x="127.246094"/>
      </g>
     </g>
    </g>
    <g id="xtick_6">
     <g id="line2d_6">
      <path d="M 339.293437 185.398125 
L 339.293437 22.318125 
" clip-path="url(#pce41343ae5)" style="fill: none; stroke: #ffffff; stroke-linecap: round"/>
     </g>
     <g id="text_6">
      <!-- 150 -->
      <g style="fill: #262626" transform="translate(328.795312 203.256406)scale(0.11 -0.11)">
       <defs>
        <path id="DejaVuSans-35" d="M 691 4666 
L 3169 4666 
L 3169 4134 
L 1269 4134 
L 1269 2991 
Q 1406 3038 1543 3061 
Q 1681 3084 1819 3084 
Q 2600 3084 3056 2656 
Q 3513 2228 3513 1497 
Q 3513 744 3044 326 
Q 2575 -91 1722 -91 
Q 1428 -91 1123 -41 
Q 819 9 494 109 
L 494 744 
Q 775 591 1075 516 
Q 1375 441 1709 441 
Q 2250 441 2565 725 
Q 2881 1009 2881 1497 
Q 2881 1984 2565 2268 
Q 2250 2553 1709 2553 
Q 1456 2553 1204 2497 
Q 953 2441 691 2322 
L 691 4666 
z
" transform="scale(0.015625)"/>
       </defs>
       <use xlink:href="#DejaVuSans-31"/>
       <use xlink:href="#DejaVuSans-35" x="63.623047"/>
       <use xlink:href="#DejaVuSans-30" x="127.246094"/>
      </g>
     </g>
    </g>
    <g id="xtick_7">
     <g id="line2d_7">
      <path d="M 391.605938 185.398125 
L 391.605938 22.318125 
" clip-path="url(#pce41343ae5)" style="fill: none; stroke: #ffffff; stroke-linecap: round"/>
     </g>
     <g id="text_7">
      <!-- 160 -->
      <g style="fill: #262626" transform="translate(381.107813 203.256406)scale(0.11 -0.11)">
       <defs>
        <path id="DejaVuSans-36" d="M 2113 2584 
Q 1688 2584 1439 2293 
Q 1191 2003 1191 1497 
Q 1191 994 1439 701 
Q 1688 409 2113 409 
Q 2538 409 2786 701 
Q 3034 994 3034 1497 
Q 3034 2003 2786 2293 
Q 2538 2584 2113 2584 
z
M 3366 4563 
L 3366 3988 
Q 3128 4100 2886 4159 
Q 2644 4219 2406 4219 
Q 1781 4219 1451 3797 
Q 1122 3375 1075 2522 
Q 1259 2794 1537 2939 
Q 1816 3084 2150 3084 
Q 2853 3084 3261 2657 
Q 3669 2231 3669 1497 
Q 3669 778 3244 343 
Q 2819 -91 2113 -91 
Q 1303 -91 875 529 
Q 447 1150 447 2328 
Q 447 3434 972 4092 
Q 1497 4750 2381 4750 
Q 2619 4750 2861 4703 
Q 3103 4656 3366 4563 
z
" transform="scale(0.015625)"/>
       </defs>
       <use xlink:href="#DejaVuSans-31"/>
       <use xlink:href="#DejaVuSans-36" x="63.623047"/>
       <use xlink:href="#DejaVuSans-30" x="127.246094"/>
      </g>
     </g>
    </g>
    <g id="text_8">
     <!-- Pixel value -->
     <g style="fill: #262626" transform="translate(192.0375 218.662188)scale(0.12 -0.12)">
      <defs>
       <path id="DejaVuSans-50" d="M 1259 4147 
L 1259 2394 
L 2053 2394 
Q 2494 2394 2734 2622 
Q 2975 2850 2975 3272 
Q 2975 3691 2734 3919 
Q 2494 4147 2053 4147 
L 1259 4147 
z
M 628 4666 
L 2053 4666 
Q 2838 4666 3239 4311 
Q 3641 3956 3641 3272 
Q 3641 2581 3239 2228 
Q 2838 1875 2053 1875 
L 1259 1875 
L 1259 0 
L 628 0 
L 628 4666 
z
" transform="scale(0.015625)"/>
       <path id="DejaVuSans-69" d="M 603 3500 
L 1178 3500 
L 1178 0 
L 603 0 
L 603 3500 
z
M 603 4863 
L 1178 4863 
L 1178 4134 
L 603 4134 
L 603 4863 
z
" transform="scale(0.015625)"/>
       <path id="DejaVuSans-78" d="M 3513 3500 
L 2247 1797 
L 3578 0 
L 2900 0 
L 1881 1375 
L 863 0 
L 184 0 
L 1544 1831 
L 300 3500 
L 978 3500 
L 1906 2253 
L 2834 3500 
L 3513 3500 
z
" transform="scale(0.015625)"/>
       <path id="DejaVuSans-65" d="M 3597 1894 
L 3597 1613 
L 953 1613 
Q 991 1019 1311 708 
Q 1631 397 2203 397 
Q 2534 397 2845 478 
Q 3156 559 3463 722 
L 3463 178 
Q 3153 47 2828 -22 
Q 2503 -91 2169 -91 
Q 1331 -91 842 396 
Q 353 884 353 1716 
Q 353 2575 817 3079 
Q 1281 3584 2069 3584 
Q 2775 3584 3186 3129 
Q 3597 2675 3597 1894 
z
M 3022 2063 
Q 3016 2534 2758 2815 
Q 2500 3097 2075 3097 
Q 1594 3097 1305 2825 
Q 1016 2553 972 2059 
L 3022 2063 
z
" transform="scale(0.015625)"/>
       <path id="DejaVuSans-6c" d="M 603 4863 
L 1178 4863 
L 1178 0 
L 603 0 
L 603 4863 
z
" transform="scale(0.015625)"/>
       <path id="DejaVuSans-20" transform="scale(0.015625)"/>
       <path id="DejaVuSans-76" d="M 191 3500 
L 800 3500 
L 1894 563 
L 2988 3500 
L 3597 3500 
L 2284 0 
L 1503 0 
L 191 3500 
z
" transform="scale(0.015625)"/>
       <path id="DejaVuSans-61" d="M 2194 1759 
Q 1497 1759 1228 1600 
Q 959 1441 959 1056 
Q 959 750 1161 570 
Q 1363 391 1709 391 
Q 2188 391 2477 730 
Q 2766 1069 2766 1631 
L 2766 1759 
L 2194 1759 
z
M 3341 1997 
L 3341 0 
L 2766 0 
L 2766 531 
Q 2569 213 2275 61 
Q 1981 -91 1556 -91 
Q 1019 -91 701 211 
Q 384 513 384 1019 
Q 384 1609 779 1909 
Q 1175 2209 1959 2209 
L 2766 2209 
L 2766 2266 
Q 2766 2663 2505 2880 
Q 2244 3097 1772 3097 
Q 1472 3097 1187 3025 
Q 903 2953 641 2809 
L 641 3341 
Q 956 3463 1253 3523 
Q 1550 3584 1831 3584 
Q 2591 3584 2966 3190 
Q 3341 2797 3341 1997 
z
" transform="scale(0.015625)"/>
       <path id="DejaVuSans-75" d="M 544 1381 
L 544 3500 
L 1119 3500 
L 1119 1403 
Q 1119 906 1312 657 
Q 1506 409 1894 409 
Q 2359 409 2629 706 
Q 2900 1003 2900 1516 
L 2900 3500 
L 3475 3500 
L 3475 0 
L 2900 0 
L 2900 538 
Q 2691 219 2414 64 
Q 2138 -91 1772 -91 
Q 1169 -91 856 284 
Q 544 659 544 1381 
z
M 1991 3584 
L 1991 3584 
z
" transform="scale(0.015625)"/>
      </defs>
      <use xlink:href="#DejaVuSans-50"/>
      <use xlink:href="#DejaVuSans-69" x="58.052734"/>
      <use xlink:href="#DejaVuSans-78" x="85.835938"/>
      <use xlink:href="#DejaVuSans-65" x="141.890625"/>
      <use xlink:href="#DejaVuSans-6c" x="203.414062"/>
      <use xlink:href="#DejaVuSans-20" x="231.197266"/>
      <use xlink:href="#DejaVuSans-76" x="262.984375"/>
      <use xlink:href="#DejaVuSans-61" x="322.164062"/>
      <use xlink:href="#DejaVuSans-6c" x="383.443359"/>
      <use xlink:href="#DejaVuSans-75" x="411.226562"/>
      <use xlink:href="#DejaVuSans-65" x="474.605469"/>
     </g>
    </g>
   </g>
   <g id="matplotlib.axis_2">
    <g id="ytick_1">
     <g id="line2d_8">
      <path d="M 56.805937 185.398125 
L 391.605938 185.398125 
" clip-path="url(#pce41343ae5)" style="fill: none; stroke: #ffffff; stroke-linecap: round"/>
     </g>
     <g id="text_9">
      <!-- 0.00 -->
      <g style="fill: #262626" transform="translate(22.81375 189.577266)scale(0.11 -0.11)">
       <defs>
        <path id="DejaVuSans-2e" d="M 684 794 
L 1344 794 
L 1344 0 
L 684 0 
L 684 794 
z
" transform="scale(0.015625)"/>
       </defs>
       <use xlink:href="#DejaVuSans-30"/>
       <use xlink:href="#DejaVuSans-2e" x="63.623047"/>
       <use xlink:href="#DejaVuSans-30" x="95.410156"/>
       <use xlink:href="#DejaVuSans-30" x="159.033203"/>
      </g>
     </g>
    </g>
    <g id="ytick_2">
     <g id="line2d_9">
      <path d="M 56.805937 160.418549 
L 391.605938 160.418549 
" clip-path="url(#pce41343ae5)" style="fill: none; stroke: #ffffff; stroke-linecap: round"/>
     </g>
     <g id="text_10">
      <!-- 0.02 -->
      <g style="fill: #262626" transform="translate(22.81375 164.59769)scale(0.11 -0.11)">
       <use xlink:href="#DejaVuSans-30"/>
       <use xlink:href="#DejaVuSans-2e" x="63.623047"/>
       <use xlink:href="#DejaVuSans-30" x="95.410156"/>
       <use xlink:href="#DejaVuSans-32" x="159.033203"/>
      </g>
     </g>
    </g>
    <g id="ytick_3">
     <g id="line2d_10">
      <path d="M 56.805937 135.438974 
L 391.605938 135.438974 
" clip-path="url(#pce41343ae5)" style="fill: none; stroke: #ffffff; stroke-linecap: round"/>
     </g>
     <g id="text_11">
      <!-- 0.04 -->
      <g style="fill: #262626" transform="translate(22.81375 139.618114)scale(0.11 -0.11)">
       <use xlink:href="#DejaVuSans-30"/>
       <use xlink:href="#DejaVuSans-2e" x="63.623047"/>
       <use xlink:href="#DejaVuSans-30" x="95.410156"/>
       <use xlink:href="#DejaVuSans-34" x="159.033203"/>
      </g>
     </g>
    </g>
    <g id="ytick_4">
     <g id="line2d_11">
      <path d="M 56.805937 110.459398 
L 391.605938 110.459398 
" clip-path="url(#pce41343ae5)" style="fill: none; stroke: #ffffff; stroke-linecap: round"/>
     </g>
     <g id="text_12">
      <!-- 0.06 -->
      <g style="fill: #262626" transform="translate(22.81375 114.638538)scale(0.11 -0.11)">
       <use xlink:href="#DejaVuSans-30"/>
       <use xlink:href="#DejaVuSans-2e" x="63.623047"/>
       <use xlink:href="#DejaVuSans-30" x="95.410156"/>
       <use xlink:href="#DejaVuSans-36" x="159.033203"/>
      </g>
     </g>
    </g>
    <g id="ytick_5">
     <g id="line2d_12">
      <path d="M 56.805937 85.479822 
L 391.605938 85.479822 
" clip-path="url(#pce41343ae5)" style="fill: none; stroke: #ffffff; stroke-linecap: round"/>
     </g>
     <g id="text_13">
      <!-- 0.08 -->
      <g style="fill: #262626" transform="translate(22.81375 89.658963)scale(0.11 -0.11)">
       <defs>
        <path id="DejaVuSans-38" d="M 2034 2216 
Q 1584 2216 1326 1975 
Q 1069 1734 1069 1313 
Q 1069 891 1326 650 
Q 1584 409 2034 409 
Q 2484 409 2743 651 
Q 3003 894 3003 1313 
Q 3003 1734 2745 1975 
Q 2488 2216 2034 2216 
z
M 1403 2484 
Q 997 2584 770 2862 
Q 544 3141 544 3541 
Q 544 4100 942 4425 
Q 1341 4750 2034 4750 
Q 2731 4750 3128 4425 
Q 3525 4100 3525 3541 
Q 3525 3141 3298 2862 
Q 3072 2584 2669 2484 
Q 3125 2378 3379 2068 
Q 3634 1759 3634 1313 
Q 3634 634 3220 271 
Q 2806 -91 2034 -91 
Q 1263 -91 848 271 
Q 434 634 434 1313 
Q 434 1759 690 2068 
Q 947 2378 1403 2484 
z
M 1172 3481 
Q 1172 3119 1398 2916 
Q 1625 2713 2034 2713 
Q 2441 2713 2670 2916 
Q 2900 3119 2900 3481 
Q 2900 3844 2670 4047 
Q 2441 4250 2034 4250 
Q 1625 4250 1398 4047 
Q 1172 3844 1172 3481 
z
" transform="scale(0.015625)"/>
       </defs>
       <use xlink:href="#DejaVuSans-30"/>
       <use xlink:href="#DejaVuSans-2e" x="63.623047"/>
       <use xlink:href="#DejaVuSans-30" x="95.410156"/>
       <use xlink:href="#DejaVuSans-38" x="159.033203"/>
      </g>
     </g>
    </g>
    <g id="ytick_6">
     <g id="line2d_13">
      <path d="M 56.805937 60.500246 
L 391.605938 60.500246 
" clip-path="url(#pce41343ae5)" style="fill: none; stroke: #ffffff; stroke-linecap: round"/>
     </g>
     <g id="text_14">
      <!-- 0.10 -->
      <g style="fill: #262626" transform="translate(22.81375 64.679387)scale(0.11 -0.11)">
       <use xlink:href="#DejaVuSans-30"/>
       <use xlink:href="#DejaVuSans-2e" x="63.623047"/>
       <use xlink:href="#DejaVuSans-31" x="95.410156"/>
       <use xlink:href="#DejaVuSans-30" x="159.033203"/>
      </g>
     </g>
    </g>
    <g id="ytick_7">
     <g id="line2d_14">
      <path d="M 56.805937 35.520671 
L 391.605938 35.520671 
" clip-path="url(#pce41343ae5)" style="fill: none; stroke: #ffffff; stroke-linecap: round"/>
     </g>
     <g id="text_15">
      <!-- 0.12 -->
      <g style="fill: #262626" transform="translate(22.81375 39.699811)scale(0.11 -0.11)">
       <use xlink:href="#DejaVuSans-30"/>
       <use xlink:href="#DejaVuSans-2e" x="63.623047"/>
       <use xlink:href="#DejaVuSans-31" x="95.410156"/>
       <use xlink:href="#DejaVuSans-32" x="159.033203"/>
      </g>
     </g>
    </g>
    <g id="text_16">
     <!-- Probability -->
     <g style="fill: #262626" transform="translate(16.318125 135.572812)rotate(-90)scale(0.12 -0.12)">
      <defs>
       <path id="DejaVuSans-72" d="M 2631 2963 
Q 2534 3019 2420 3045 
Q 2306 3072 2169 3072 
Q 1681 3072 1420 2755 
Q 1159 2438 1159 1844 
L 1159 0 
L 581 0 
L 581 3500 
L 1159 3500 
L 1159 2956 
Q 1341 3275 1631 3429 
Q 1922 3584 2338 3584 
Q 2397 3584 2469 3576 
Q 2541 3569 2628 3553 
L 2631 2963 
z
" transform="scale(0.015625)"/>
       <path id="DejaVuSans-6f" d="M 1959 3097 
Q 1497 3097 1228 2736 
Q 959 2375 959 1747 
Q 959 1119 1226 758 
Q 1494 397 1959 397 
Q 2419 397 2687 759 
Q 2956 1122 2956 1747 
Q 2956 2369 2687 2733 
Q 2419 3097 1959 3097 
z
M 1959 3584 
Q 2709 3584 3137 3096 
Q 3566 2609 3566 1747 
Q 3566 888 3137 398 
Q 2709 -91 1959 -91 
Q 1206 -91 779 398 
Q 353 888 353 1747 
Q 353 2609 779 3096 
Q 1206 3584 1959 3584 
z
" transform="scale(0.015625)"/>
       <path id="DejaVuSans-62" d="M 3116 1747 
Q 3116 2381 2855 2742 
Q 2594 3103 2138 3103 
Q 1681 3103 1420 2742 
Q 1159 2381 1159 1747 
Q 1159 1113 1420 752 
Q 1681 391 2138 391 
Q 2594 391 2855 752 
Q 3116 1113 3116 1747 
z
M 1159 2969 
Q 1341 3281 1617 3432 
Q 1894 3584 2278 3584 
Q 2916 3584 3314 3078 
Q 3713 2572 3713 1747 
Q 3713 922 3314 415 
Q 2916 -91 2278 -91 
Q 1894 -91 1617 61 
Q 1341 213 1159 525 
L 1159 0 
L 581 0 
L 581 4863 
L 1159 4863 
L 1159 2969 
z
" transform="scale(0.015625)"/>
       <path id="DejaVuSans-74" d="M 1172 4494 
L 1172 3500 
L 2356 3500 
L 2356 3053 
L 1172 3053 
L 1172 1153 
Q 1172 725 1289 603 
Q 1406 481 1766 481 
L 2356 481 
L 2356 0 
L 1766 0 
Q 1100 0 847 248 
Q 594 497 594 1153 
L 594 3053 
L 172 3053 
L 172 3500 
L 594 3500 
L 594 4494 
L 1172 4494 
z
" transform="scale(0.015625)"/>
       <path id="DejaVuSans-79" d="M 2059 -325 
Q 1816 -950 1584 -1140 
Q 1353 -1331 966 -1331 
L 506 -1331 
L 506 -850 
L 844 -850 
Q 1081 -850 1212 -737 
Q 1344 -625 1503 -206 
L 1606 56 
L 191 3500 
L 800 3500 
L 1894 763 
L 2988 3500 
L 3597 3500 
L 2059 -325 
z
" transform="scale(0.015625)"/>
      </defs>
      <use xlink:href="#DejaVuSans-50"/>
      <use xlink:href="#DejaVuSans-72" x="58.552734"/>
      <use xlink:href="#DejaVuSans-6f" x="97.416016"/>
      <use xlink:href="#DejaVuSans-62" x="158.597656"/>
      <use xlink:href="#DejaVuSans-61" x="222.074219"/>
      <use xlink:href="#DejaVuSans-62" x="283.353516"/>
      <use xlink:href="#DejaVuSans-69" x="346.830078"/>
      <use xlink:href="#DejaVuSans-6c" x="374.613281"/>
      <use xlink:href="#DejaVuSans-69" x="402.396484"/>
      <use xlink:href="#DejaVuSans-74" x="430.179688"/>
      <use xlink:href="#DejaVuSans-79" x="469.388672"/>
     </g>
    </g>
   </g>
   <g id="patch_3">
    <path d="M -448.009688 185.398125 
L -442.778438 185.398125 
L -442.778438 185.398125 
L -448.009688 185.398125 
z
" clip-path="url(#pce41343ae5)" style="fill: #4c72b0; fill-opacity: 0.5; stroke: #4c72b0; stroke-width: 0.5; stroke-linejoin: miter"/>
   </g>
   <g id="patch_4">
    <path d="M -442.778438 185.398125 
L -437.547188 185.398125 
L -437.547188 185.398125 
L -442.778438 185.398125 
z
" clip-path="url(#pce41343ae5)" style="fill: #4c72b0; fill-opacity: 0.5; stroke: #4c72b0; stroke-width: 0.5; stroke-linejoin: miter"/>
   </g>
   <g id="patch_5">
    <path d="M -437.547188 185.398125 
L -432.315938 185.398125 
L -432.315938 185.398125 
L -437.547188 185.398125 
z
" clip-path="url(#pce41343ae5)" style="fill: #4c72b0; fill-opacity: 0.5; stroke: #4c72b0; stroke-width: 0.5; stroke-linejoin: miter"/>
   </g>
   <g id="patch_6">
    <path d="M -432.315938 185.398125 
L -427.084688 185.398125 
L -427.084688 185.398125 
L -432.315938 185.398125 
z
" clip-path="url(#pce41343ae5)" style="fill: #4c72b0; fill-opacity: 0.5; stroke: #4c72b0; stroke-width: 0.5; stroke-linejoin: miter"/>
   </g>
   <g id="patch_7">
    <path d="M -427.084688 185.398125 
L -421.853438 185.398125 
L -421.853438 185.398125 
L -427.084688 185.398125 
z
" clip-path="url(#pce41343ae5)" style="fill: #4c72b0; fill-opacity: 0.5; stroke: #4c72b0; stroke-width: 0.5; stroke-linejoin: miter"/>
   </g>
   <g id="patch_8">
    <path d="M -421.853438 185.398125 
L -416.622188 185.398125 
L -416.622188 185.398125 
L -421.853438 185.398125 
z
" clip-path="url(#pce41343ae5)" style="fill: #4c72b0; fill-opacity: 0.5; stroke: #4c72b0; stroke-width: 0.5; stroke-linejoin: miter"/>
   </g>
   <g id="patch_9">
    <path d="M -416.622188 185.398125 
L -411.390938 185.398125 
L -411.390938 185.398125 
L -416.622188 185.398125 
z
" clip-path="url(#pce41343ae5)" style="fill: #4c72b0; fill-opacity: 0.5; stroke: #4c72b0; stroke-width: 0.5; stroke-linejoin: miter"/>
   </g>
   <g id="patch_10">
    <path d="M -411.390938 185.398125 
L -406.159688 185.398125 
L -406.159688 185.398125 
L -411.390938 185.398125 
z
" clip-path="url(#pce41343ae5)" style="fill: #4c72b0; fill-opacity: 0.5; stroke: #4c72b0; stroke-width: 0.5; stroke-linejoin: miter"/>
   </g>
   <g id="patch_11">
    <path d="M -406.159688 185.398125 
L -400.928438 185.398125 
L -400.928438 185.398125 
L -406.159688 185.398125 
z
" clip-path="url(#pce41343ae5)" style="fill: #4c72b0; fill-opacity: 0.5; stroke: #4c72b0; stroke-width: 0.5; stroke-linejoin: miter"/>
   </g>
   <g id="patch_12">
    <path d="M -400.928438 185.398125 
L -395.697188 185.398125 
L -395.697188 185.398125 
L -400.928438 185.398125 
z
" clip-path="url(#pce41343ae5)" style="fill: #4c72b0; fill-opacity: 0.5; stroke: #4c72b0; stroke-width: 0.5; stroke-linejoin: miter"/>
   </g>
   <g id="patch_13">
    <path d="M -395.697188 185.398125 
L -390.465938 185.398125 
L -390.465938 185.398125 
L -395.697188 185.398125 
z
" clip-path="url(#pce41343ae5)" style="fill: #4c72b0; fill-opacity: 0.5; stroke: #4c72b0; stroke-width: 0.5; stroke-linejoin: miter"/>
   </g>
   <g id="patch_14">
    <path d="M -390.465938 185.398125 
L -385.234688 185.398125 
L -385.234688 185.398125 
L -390.465938 185.398125 
z
" clip-path="url(#pce41343ae5)" style="fill: #4c72b0; fill-opacity: 0.5; stroke: #4c72b0; stroke-width: 0.5; stroke-linejoin: miter"/>
   </g>
   <g id="patch_15">
    <path d="M -385.234688 185.398125 
L -380.003438 185.398125 
L -380.003438 185.398125 
L -385.234688 185.398125 
z
" clip-path="url(#pce41343ae5)" style="fill: #4c72b0; fill-opacity: 0.5; stroke: #4c72b0; stroke-width: 0.5; stroke-linejoin: miter"/>
   </g>
   <g id="patch_16">
    <path d="M -380.003438 185.398125 
L -374.772188 185.398125 
L -374.772188 185.398125 
L -380.003438 185.398125 
z
" clip-path="url(#pce41343ae5)" style="fill: #4c72b0; fill-opacity: 0.5; stroke: #4c72b0; stroke-width: 0.5; stroke-linejoin: miter"/>
   </g>
   <g id="patch_17">
    <path d="M -374.772188 185.398125 
L -369.540938 185.398125 
L -369.540938 185.398125 
L -374.772188 185.398125 
z
" clip-path="url(#pce41343ae5)" style="fill: #4c72b0; fill-opacity: 0.5; stroke: #4c72b0; stroke-width: 0.5; stroke-linejoin: miter"/>
   </g>
   <g id="patch_18">
    <path d="M -369.540938 185.398125 
L -364.309688 185.398125 
L -364.309688 185.398125 
L -369.540938 185.398125 
z
" clip-path="url(#pce41343ae5)" style="fill: #4c72b0; fill-opacity: 0.5; stroke: #4c72b0; stroke-width: 0.5; stroke-linejoin: miter"/>
   </g>
   <g id="patch_19">
    <path d="M -364.309688 185.398125 
L -359.078438 185.398125 
L -359.078438 185.398125 
L -364.309688 185.398125 
z
" clip-path="url(#pce41343ae5)" style="fill: #4c72b0; fill-opacity: 0.5; stroke: #4c72b0; stroke-width: 0.5; stroke-linejoin: miter"/>
   </g>
   <g id="patch_20">
    <path d="M -359.078438 185.398125 
L -353.847188 185.398125 
L -353.847188 185.398125 
L -359.078438 185.398125 
z
" clip-path="url(#pce41343ae5)" style="fill: #4c72b0; fill-opacity: 0.5; stroke: #4c72b0; stroke-width: 0.5; stroke-linejoin: miter"/>
   </g>
   <g id="patch_21">
    <path d="M -353.847188 185.398125 
L -348.615938 185.398125 
L -348.615938 185.398125 
L -353.847188 185.398125 
z
" clip-path="url(#pce41343ae5)" style="fill: #4c72b0; fill-opacity: 0.5; stroke: #4c72b0; stroke-width: 0.5; stroke-linejoin: miter"/>
   </g>
   <g id="patch_22">
    <path d="M -348.615938 185.398125 
L -343.384688 185.398125 
L -343.384688 185.398125 
L -348.615938 185.398125 
z
" clip-path="url(#pce41343ae5)" style="fill: #4c72b0; fill-opacity: 0.5; stroke: #4c72b0; stroke-width: 0.5; stroke-linejoin: miter"/>
   </g>
   <g id="patch_23">
    <path d="M -343.384688 185.398125 
L -338.153438 185.398125 
L -338.153438 185.398125 
L -343.384688 185.398125 
z
" clip-path="url(#pce41343ae5)" style="fill: #4c72b0; fill-opacity: 0.5; stroke: #4c72b0; stroke-width: 0.5; stroke-linejoin: miter"/>
   </g>
   <g id="patch_24">
    <path d="M -338.153438 185.398125 
L -332.922188 185.398125 
L -332.922188 185.398125 
L -338.153438 185.398125 
z
" clip-path="url(#pce41343ae5)" style="fill: #4c72b0; fill-opacity: 0.5; stroke: #4c72b0; stroke-width: 0.5; stroke-linejoin: miter"/>
   </g>
   <g id="patch_25">
    <path d="M -332.922188 185.398125 
L -327.690938 185.398125 
L -327.690938 185.398125 
L -332.922188 185.398125 
z
" clip-path="url(#pce41343ae5)" style="fill: #4c72b0; fill-opacity: 0.5; stroke: #4c72b0; stroke-width: 0.5; stroke-linejoin: miter"/>
   </g>
   <g id="patch_26">
    <path d="M -327.690938 185.398125 
L -322.459688 185.398125 
L -322.459688 185.398125 
L -327.690938 185.398125 
z
" clip-path="url(#pce41343ae5)" style="fill: #4c72b0; fill-opacity: 0.5; stroke: #4c72b0; stroke-width: 0.5; stroke-linejoin: miter"/>
   </g>
   <g id="patch_27">
    <path d="M -322.459688 185.398125 
L -317.228438 185.398125 
L -317.228438 185.398125 
L -322.459688 185.398125 
z
" clip-path="url(#pce41343ae5)" style="fill: #4c72b0; fill-opacity: 0.5; stroke: #4c72b0; stroke-width: 0.5; stroke-linejoin: miter"/>
   </g>
   <g id="patch_28">
    <path d="M -317.228438 185.398125 
L -311.997188 185.398125 
L -311.997188 185.398125 
L -317.228438 185.398125 
z
" clip-path="url(#pce41343ae5)" style="fill: #4c72b0; fill-opacity: 0.5; stroke: #4c72b0; stroke-width: 0.5; stroke-linejoin: miter"/>
   </g>
   <g id="patch_29">
    <path d="M -311.997188 185.398125 
L -306.765938 185.398125 
L -306.765938 185.398125 
L -311.997188 185.398125 
z
" clip-path="url(#pce41343ae5)" style="fill: #4c72b0; fill-opacity: 0.5; stroke: #4c72b0; stroke-width: 0.5; stroke-linejoin: miter"/>
   </g>
   <g id="patch_30">
    <path d="M -306.765938 185.398125 
L -301.534688 185.398125 
L -301.534688 185.398125 
L -306.765938 185.398125 
z
" clip-path="url(#pce41343ae5)" style="fill: #4c72b0; fill-opacity: 0.5; stroke: #4c72b0; stroke-width: 0.5; stroke-linejoin: miter"/>
   </g>
   <g id="patch_31">
    <path d="M -301.534688 185.398125 
L -296.303438 185.398125 
L -296.303438 185.398125 
L -301.534688 185.398125 
z
" clip-path="url(#pce41343ae5)" style="fill: #4c72b0; fill-opacity: 0.5; stroke: #4c72b0; stroke-width: 0.5; stroke-linejoin: miter"/>
   </g>
   <g id="patch_32">
    <path d="M -296.303438 185.398125 
L -291.072188 185.398125 
L -291.072188 185.398125 
L -296.303438 185.398125 
z
" clip-path="url(#pce41343ae5)" style="fill: #4c72b0; fill-opacity: 0.5; stroke: #4c72b0; stroke-width: 0.5; stroke-linejoin: miter"/>
   </g>
   <g id="patch_33">
    <path d="M -291.072188 185.398125 
L -285.840938 185.398125 
L -285.840938 185.398125 
L -291.072188 185.398125 
z
" clip-path="url(#pce41343ae5)" style="fill: #4c72b0; fill-opacity: 0.5; stroke: #4c72b0; stroke-width: 0.5; stroke-linejoin: miter"/>
   </g>
   <g id="patch_34">
    <path d="M -285.840938 185.398125 
L -280.609688 185.398125 
L -280.609688 185.398125 
L -285.840938 185.398125 
z
" clip-path="url(#pce41343ae5)" style="fill: #4c72b0; fill-opacity: 0.5; stroke: #4c72b0; stroke-width: 0.5; stroke-linejoin: miter"/>
   </g>
   <g id="patch_35">
    <path d="M -280.609688 185.398125 
L -275.378438 185.398125 
L -275.378438 185.398125 
L -280.609688 185.398125 
z
" clip-path="url(#pce41343ae5)" style="fill: #4c72b0; fill-opacity: 0.5; stroke: #4c72b0; stroke-width: 0.5; stroke-linejoin: miter"/>
   </g>
   <g id="patch_36">
    <path d="M -275.378438 185.398125 
L -270.147188 185.398125 
L -270.147188 185.398125 
L -275.378438 185.398125 
z
" clip-path="url(#pce41343ae5)" style="fill: #4c72b0; fill-opacity: 0.5; stroke: #4c72b0; stroke-width: 0.5; stroke-linejoin: miter"/>
   </g>
   <g id="patch_37">
    <path d="M -270.147188 185.398125 
L -264.915938 185.398125 
L -264.915938 185.398125 
L -270.147188 185.398125 
z
" clip-path="url(#pce41343ae5)" style="fill: #4c72b0; fill-opacity: 0.5; stroke: #4c72b0; stroke-width: 0.5; stroke-linejoin: miter"/>
   </g>
   <g id="patch_38">
    <path d="M -264.915938 185.398125 
L -259.684688 185.398125 
L -259.684688 185.398125 
L -264.915938 185.398125 
z
" clip-path="url(#pce41343ae5)" style="fill: #4c72b0; fill-opacity: 0.5; stroke: #4c72b0; stroke-width: 0.5; stroke-linejoin: miter"/>
   </g>
   <g id="patch_39">
    <path d="M -259.684688 185.398125 
L -254.453438 185.398125 
L -254.453438 185.398125 
L -259.684688 185.398125 
z
" clip-path="url(#pce41343ae5)" style="fill: #4c72b0; fill-opacity: 0.5; stroke: #4c72b0; stroke-width: 0.5; stroke-linejoin: miter"/>
   </g>
   <g id="patch_40">
    <path d="M -254.453438 185.398125 
L -249.222188 185.398125 
L -249.222188 185.398125 
L -254.453438 185.398125 
z
" clip-path="url(#pce41343ae5)" style="fill: #4c72b0; fill-opacity: 0.5; stroke: #4c72b0; stroke-width: 0.5; stroke-linejoin: miter"/>
   </g>
   <g id="patch_41">
    <path d="M -249.222188 185.398125 
L -243.990938 185.398125 
L -243.990938 185.398125 
L -249.222188 185.398125 
z
" clip-path="url(#pce41343ae5)" style="fill: #4c72b0; fill-opacity: 0.5; stroke: #4c72b0; stroke-width: 0.5; stroke-linejoin: miter"/>
   </g>
   <g id="patch_42">
    <path d="M -243.990938 185.398125 
L -238.759688 185.398125 
L -238.759688 185.398125 
L -243.990938 185.398125 
z
" clip-path="url(#pce41343ae5)" style="fill: #4c72b0; fill-opacity: 0.5; stroke: #4c72b0; stroke-width: 0.5; stroke-linejoin: miter"/>
   </g>
   <g id="patch_43">
    <path d="M -238.759688 185.398125 
L -233.528438 185.398125 
L -233.528438 185.398125 
L -238.759688 185.398125 
z
" clip-path="url(#pce41343ae5)" style="fill: #4c72b0; fill-opacity: 0.5; stroke: #4c72b0; stroke-width: 0.5; stroke-linejoin: miter"/>
   </g>
   <g id="patch_44">
    <path d="M -233.528438 185.398125 
L -228.297188 185.398125 
L -228.297188 185.398125 
L -233.528438 185.398125 
z
" clip-path="url(#pce41343ae5)" style="fill: #4c72b0; fill-opacity: 0.5; stroke: #4c72b0; stroke-width: 0.5; stroke-linejoin: miter"/>
   </g>
   <g id="patch_45">
    <path d="M -228.297188 185.398125 
L -223.065938 185.398125 
L -223.065938 185.398125 
L -228.297188 185.398125 
z
" clip-path="url(#pce41343ae5)" style="fill: #4c72b0; fill-opacity: 0.5; stroke: #4c72b0; stroke-width: 0.5; stroke-linejoin: miter"/>
   </g>
   <g id="patch_46">
    <path d="M -223.065938 185.398125 
L -217.834688 185.398125 
L -217.834688 185.398125 
L -223.065938 185.398125 
z
" clip-path="url(#pce41343ae5)" style="fill: #4c72b0; fill-opacity: 0.5; stroke: #4c72b0; stroke-width: 0.5; stroke-linejoin: miter"/>
   </g>
   <g id="patch_47">
    <path d="M -217.834688 185.398125 
L -212.603438 185.398125 
L -212.603438 185.398125 
L -217.834688 185.398125 
z
" clip-path="url(#pce41343ae5)" style="fill: #4c72b0; fill-opacity: 0.5; stroke: #4c72b0; stroke-width: 0.5; stroke-linejoin: miter"/>
   </g>
   <g id="patch_48">
    <path d="M -212.603438 185.398125 
L -207.372188 185.398125 
L -207.372188 185.398125 
L -212.603438 185.398125 
z
" clip-path="url(#pce41343ae5)" style="fill: #4c72b0; fill-opacity: 0.5; stroke: #4c72b0; stroke-width: 0.5; stroke-linejoin: miter"/>
   </g>
   <g id="patch_49">
    <path d="M -207.372188 185.398125 
L -202.140938 185.398125 
L -202.140938 185.398125 
L -207.372188 185.398125 
z
" clip-path="url(#pce41343ae5)" style="fill: #4c72b0; fill-opacity: 0.5; stroke: #4c72b0; stroke-width: 0.5; stroke-linejoin: miter"/>
   </g>
   <g id="patch_50">
    <path d="M -202.140938 185.398125 
L -196.909688 185.398125 
L -196.909688 185.398125 
L -202.140938 185.398125 
z
" clip-path="url(#pce41343ae5)" style="fill: #4c72b0; fill-opacity: 0.5; stroke: #4c72b0; stroke-width: 0.5; stroke-linejoin: miter"/>
   </g>
   <g id="patch_51">
    <path d="M -196.909688 185.398125 
L -191.678438 185.398125 
L -191.678438 185.398125 
L -196.909688 185.398125 
z
" clip-path="url(#pce41343ae5)" style="fill: #4c72b0; fill-opacity: 0.5; stroke: #4c72b0; stroke-width: 0.5; stroke-linejoin: miter"/>
   </g>
   <g id="patch_52">
    <path d="M -191.678438 185.398125 
L -186.447188 185.398125 
L -186.447188 185.398125 
L -191.678438 185.398125 
z
" clip-path="url(#pce41343ae5)" style="fill: #4c72b0; fill-opacity: 0.5; stroke: #4c72b0; stroke-width: 0.5; stroke-linejoin: miter"/>
   </g>
   <g id="patch_53">
    <path d="M -186.447188 185.398125 
L -181.215938 185.398125 
L -181.215938 185.398125 
L -186.447188 185.398125 
z
" clip-path="url(#pce41343ae5)" style="fill: #4c72b0; fill-opacity: 0.5; stroke: #4c72b0; stroke-width: 0.5; stroke-linejoin: miter"/>
   </g>
   <g id="patch_54">
    <path d="M -181.215938 185.398125 
L -175.984688 185.398125 
L -175.984688 185.398125 
L -181.215938 185.398125 
z
" clip-path="url(#pce41343ae5)" style="fill: #4c72b0; fill-opacity: 0.5; stroke: #4c72b0; stroke-width: 0.5; stroke-linejoin: miter"/>
   </g>
   <g id="patch_55">
    <path d="M -175.984688 185.398125 
L -170.753438 185.398125 
L -170.753438 185.398125 
L -175.984688 185.398125 
z
" clip-path="url(#pce41343ae5)" style="fill: #4c72b0; fill-opacity: 0.5; stroke: #4c72b0; stroke-width: 0.5; stroke-linejoin: miter"/>
   </g>
   <g id="patch_56">
    <path d="M -170.753438 185.398125 
L -165.522188 185.398125 
L -165.522188 185.398125 
L -170.753438 185.398125 
z
" clip-path="url(#pce41343ae5)" style="fill: #4c72b0; fill-opacity: 0.5; stroke: #4c72b0; stroke-width: 0.5; stroke-linejoin: miter"/>
   </g>
   <g id="patch_57">
    <path d="M -165.522188 185.398125 
L -160.290938 185.398125 
L -160.290938 185.398125 
L -165.522188 185.398125 
z
" clip-path="url(#pce41343ae5)" style="fill: #4c72b0; fill-opacity: 0.5; stroke: #4c72b0; stroke-width: 0.5; stroke-linejoin: miter"/>
   </g>
   <g id="patch_58">
    <path d="M -160.290938 185.398125 
L -155.059688 185.398125 
L -155.059688 185.398125 
L -160.290938 185.398125 
z
" clip-path="url(#pce41343ae5)" style="fill: #4c72b0; fill-opacity: 0.5; stroke: #4c72b0; stroke-width: 0.5; stroke-linejoin: miter"/>
   </g>
   <g id="patch_59">
    <path d="M -155.059688 185.398125 
L -149.828438 185.398125 
L -149.828438 185.398125 
L -155.059688 185.398125 
z
" clip-path="url(#pce41343ae5)" style="fill: #4c72b0; fill-opacity: 0.5; stroke: #4c72b0; stroke-width: 0.5; stroke-linejoin: miter"/>
   </g>
   <g id="patch_60">
    <path d="M -149.828438 185.398125 
L -144.597188 185.398125 
L -144.597188 185.398125 
L -149.828438 185.398125 
z
" clip-path="url(#pce41343ae5)" style="fill: #4c72b0; fill-opacity: 0.5; stroke: #4c72b0; stroke-width: 0.5; stroke-linejoin: miter"/>
   </g>
   <g id="patch_61">
    <path d="M -144.597188 185.398125 
L -139.365938 185.398125 
L -139.365938 185.398125 
L -144.597188 185.398125 
z
" clip-path="url(#pce41343ae5)" style="fill: #4c72b0; fill-opacity: 0.5; stroke: #4c72b0; stroke-width: 0.5; stroke-linejoin: miter"/>
   </g>
   <g id="patch_62">
    <path d="M -139.365938 185.398125 
L -134.134688 185.398125 
L -134.134688 185.398125 
L -139.365938 185.398125 
z
" clip-path="url(#pce41343ae5)" style="fill: #4c72b0; fill-opacity: 0.5; stroke: #4c72b0; stroke-width: 0.5; stroke-linejoin: miter"/>
   </g>
   <g id="patch_63">
    <path d="M -134.134688 185.398125 
L -128.903438 185.398125 
L -128.903438 185.398125 
L -134.134688 185.398125 
z
" clip-path="url(#pce41343ae5)" style="fill: #4c72b0; fill-opacity: 0.5; stroke: #4c72b0; stroke-width: 0.5; stroke-linejoin: miter"/>
   </g>
   <g id="patch_64">
    <path d="M -128.903438 185.398125 
L -123.672188 185.398125 
L -123.672188 185.398125 
L -128.903438 185.398125 
z
" clip-path="url(#pce41343ae5)" style="fill: #4c72b0; fill-opacity: 0.5; stroke: #4c72b0; stroke-width: 0.5; stroke-linejoin: miter"/>
   </g>
   <g id="patch_65">
    <path d="M -123.672188 185.398125 
L -118.440938 185.398125 
L -118.440938 185.398125 
L -123.672188 185.398125 
z
" clip-path="url(#pce41343ae5)" style="fill: #4c72b0; fill-opacity: 0.5; stroke: #4c72b0; stroke-width: 0.5; stroke-linejoin: miter"/>
   </g>
   <g id="patch_66">
    <path d="M -118.440938 185.398125 
L -113.209688 185.398125 
L -113.209688 185.398125 
L -118.440938 185.398125 
z
" clip-path="url(#pce41343ae5)" style="fill: #4c72b0; fill-opacity: 0.5; stroke: #4c72b0; stroke-width: 0.5; stroke-linejoin: miter"/>
   </g>
   <g id="patch_67">
    <path d="M -113.209688 185.398125 
L -107.978438 185.398125 
L -107.978438 185.398125 
L -113.209688 185.398125 
z
" clip-path="url(#pce41343ae5)" style="fill: #4c72b0; fill-opacity: 0.5; stroke: #4c72b0; stroke-width: 0.5; stroke-linejoin: miter"/>
   </g>
   <g id="patch_68">
    <path d="M -107.978438 185.398125 
L -102.747188 185.398125 
L -102.747188 185.398125 
L -107.978438 185.398125 
z
" clip-path="url(#pce41343ae5)" style="fill: #4c72b0; fill-opacity: 0.5; stroke: #4c72b0; stroke-width: 0.5; stroke-linejoin: miter"/>
   </g>
   <g id="patch_69">
    <path d="M -102.747188 185.398125 
L -97.515938 185.398125 
L -97.515938 185.398125 
L -102.747188 185.398125 
z
" clip-path="url(#pce41343ae5)" style="fill: #4c72b0; fill-opacity: 0.5; stroke: #4c72b0; stroke-width: 0.5; stroke-linejoin: miter"/>
   </g>
   <g id="patch_70">
    <path d="M -97.515938 185.398125 
L -92.284688 185.398125 
L -92.284688 185.398125 
L -97.515938 185.398125 
z
" clip-path="url(#pce41343ae5)" style="fill: #4c72b0; fill-opacity: 0.5; stroke: #4c72b0; stroke-width: 0.5; stroke-linejoin: miter"/>
   </g>
   <g id="patch_71">
    <path d="M -92.284688 185.398125 
L -87.053438 185.398125 
L -87.053438 185.398125 
L -92.284688 185.398125 
z
" clip-path="url(#pce41343ae5)" style="fill: #4c72b0; fill-opacity: 0.5; stroke: #4c72b0; stroke-width: 0.5; stroke-linejoin: miter"/>
   </g>
   <g id="patch_72">
    <path d="M -87.053438 185.398125 
L -81.822188 185.398125 
L -81.822188 185.398125 
L -87.053438 185.398125 
z
" clip-path="url(#pce41343ae5)" style="fill: #4c72b0; fill-opacity: 0.5; stroke: #4c72b0; stroke-width: 0.5; stroke-linejoin: miter"/>
   </g>
   <g id="patch_73">
    <path d="M -81.822188 185.398125 
L -76.590938 185.398125 
L -76.590938 185.398125 
L -81.822188 185.398125 
z
" clip-path="url(#pce41343ae5)" style="fill: #4c72b0; fill-opacity: 0.5; stroke: #4c72b0; stroke-width: 0.5; stroke-linejoin: miter"/>
   </g>
   <g id="patch_74">
    <path d="M -76.590938 185.398125 
L -71.359688 185.398125 
L -71.359688 185.398125 
L -76.590938 185.398125 
z
" clip-path="url(#pce41343ae5)" style="fill: #4c72b0; fill-opacity: 0.5; stroke: #4c72b0; stroke-width: 0.5; stroke-linejoin: miter"/>
   </g>
   <g id="patch_75">
    <path d="M -71.359688 185.398125 
L -66.128438 185.398125 
L -66.128438 185.398125 
L -71.359688 185.398125 
z
" clip-path="url(#pce41343ae5)" style="fill: #4c72b0; fill-opacity: 0.5; stroke: #4c72b0; stroke-width: 0.5; stroke-linejoin: miter"/>
   </g>
   <g id="patch_76">
    <path d="M -66.128438 185.398125 
L -60.897188 185.398125 
L -60.897188 185.398125 
L -66.128438 185.398125 
z
" clip-path="url(#pce41343ae5)" style="fill: #4c72b0; fill-opacity: 0.5; stroke: #4c72b0; stroke-width: 0.5; stroke-linejoin: miter"/>
   </g>
   <g id="patch_77">
    <path d="M -60.897188 185.398125 
L -55.665938 185.398125 
L -55.665938 185.398125 
L -60.897188 185.398125 
z
" clip-path="url(#pce41343ae5)" style="fill: #4c72b0; fill-opacity: 0.5; stroke: #4c72b0; stroke-width: 0.5; stroke-linejoin: miter"/>
   </g>
   <g id="patch_78">
    <path d="M -55.665938 185.398125 
L -50.434688 185.398125 
L -50.434688 185.398125 
L -55.665938 185.398125 
z
" clip-path="url(#pce41343ae5)" style="fill: #4c72b0; fill-opacity: 0.5; stroke: #4c72b0; stroke-width: 0.5; stroke-linejoin: miter"/>
   </g>
   <g id="patch_79">
    <path d="M -50.434688 185.398125 
L -45.203438 185.398125 
L -45.203438 185.398125 
L -50.434688 185.398125 
z
" clip-path="url(#pce41343ae5)" style="fill: #4c72b0; fill-opacity: 0.5; stroke: #4c72b0; stroke-width: 0.5; stroke-linejoin: miter"/>
   </g>
   <g id="patch_80">
    <path d="M -45.203438 185.398125 
L -39.972188 185.398125 
L -39.972188 185.398125 
L -45.203438 185.398125 
z
" clip-path="url(#pce41343ae5)" style="fill: #4c72b0; fill-opacity: 0.5; stroke: #4c72b0; stroke-width: 0.5; stroke-linejoin: miter"/>
   </g>
   <g id="patch_81">
    <path d="M -39.972188 185.398125 
L -34.740938 185.398125 
L -34.740938 185.398125 
L -39.972188 185.398125 
z
" clip-path="url(#pce41343ae5)" style="fill: #4c72b0; fill-opacity: 0.5; stroke: #4c72b0; stroke-width: 0.5; stroke-linejoin: miter"/>
   </g>
   <g id="patch_82">
    <path d="M -34.740938 185.398125 
L -29.509688 185.398125 
L -29.509688 185.398125 
L -34.740938 185.398125 
z
" clip-path="url(#pce41343ae5)" style="fill: #4c72b0; fill-opacity: 0.5; stroke: #4c72b0; stroke-width: 0.5; stroke-linejoin: miter"/>
   </g>
   <g id="patch_83">
    <path d="M -29.509688 185.398125 
L -24.278438 185.398125 
L -24.278438 185.398125 
L -29.509688 185.398125 
z
" clip-path="url(#pce41343ae5)" style="fill: #4c72b0; fill-opacity: 0.5; stroke: #4c72b0; stroke-width: 0.5; stroke-linejoin: miter"/>
   </g>
   <g id="patch_84">
    <path d="M -24.278438 185.398125 
L -19.047188 185.398125 
L -19.047188 185.398125 
L -24.278438 185.398125 
z
" clip-path="url(#pce41343ae5)" style="fill: #4c72b0; fill-opacity: 0.5; stroke: #4c72b0; stroke-width: 0.5; stroke-linejoin: miter"/>
   </g>
   <g id="patch_85">
    <path d="M -19.047188 185.398125 
L -13.815938 185.398125 
L -13.815938 185.398125 
L -19.047188 185.398125 
z
" clip-path="url(#pce41343ae5)" style="fill: #4c72b0; fill-opacity: 0.5; stroke: #4c72b0; stroke-width: 0.5; stroke-linejoin: miter"/>
   </g>
   <g id="patch_86">
    <path d="M -13.815938 185.398125 
L -8.584688 185.398125 
L -8.584688 185.398125 
L -13.815938 185.398125 
z
" clip-path="url(#pce41343ae5)" style="fill: #4c72b0; fill-opacity: 0.5; stroke: #4c72b0; stroke-width: 0.5; stroke-linejoin: miter"/>
   </g>
   <g id="patch_87">
    <path d="M -8.584688 185.398125 
L -3.353438 185.398125 
L -3.353438 185.398125 
L -8.584688 185.398125 
z
" clip-path="url(#pce41343ae5)" style="fill: #4c72b0; fill-opacity: 0.5; stroke: #4c72b0; stroke-width: 0.5; stroke-linejoin: miter"/>
   </g>
   <g id="patch_88">
    <path d="M -3.353438 185.398125 
L 1.877812 185.398125 
L 1.877812 185.398125 
L -3.353438 185.398125 
z
" clip-path="url(#pce41343ae5)" style="fill: #4c72b0; fill-opacity: 0.5; stroke: #4c72b0; stroke-width: 0.5; stroke-linejoin: miter"/>
   </g>
   <g id="patch_89">
    <path d="M 1.877812 185.398125 
L 7.109062 185.398125 
L 7.109062 185.398125 
L 1.877812 185.398125 
z
" clip-path="url(#pce41343ae5)" style="fill: #4c72b0; fill-opacity: 0.5; stroke: #4c72b0; stroke-width: 0.5; stroke-linejoin: miter"/>
   </g>
   <g id="patch_90">
    <path d="M 7.109062 185.398125 
L 12.340312 185.398125 
L 12.340312 185.398124 
L 7.109062 185.398124 
z
" clip-path="url(#pce41343ae5)" style="fill: #4c72b0; fill-opacity: 0.5; stroke: #4c72b0; stroke-width: 0.5; stroke-linejoin: miter"/>
   </g>
   <g id="patch_91">
    <path d="M 12.340312 185.398125 
L 17.571562 185.398125 
L 17.571562 185.398124 
L 12.340312 185.398124 
z
" clip-path="url(#pce41343ae5)" style="fill: #4c72b0; fill-opacity: 0.5; stroke: #4c72b0; stroke-width: 0.5; stroke-linejoin: miter"/>
   </g>
   <g id="patch_92">
    <path d="M 17.571562 185.398125 
L 22.802812 185.398125 
L 22.802812 185.398123 
L 17.571562 185.398123 
z
" clip-path="url(#pce41343ae5)" style="fill: #4c72b0; fill-opacity: 0.5; stroke: #4c72b0; stroke-width: 0.5; stroke-linejoin: miter"/>
   </g>
   <g id="patch_93">
    <path d="M 22.802812 185.398125 
L 28.034062 185.398125 
L 28.034062 185.398121 
L 22.802812 185.398121 
z
" clip-path="url(#pce41343ae5)" style="fill: #4c72b0; fill-opacity: 0.5; stroke: #4c72b0; stroke-width: 0.5; stroke-linejoin: miter"/>
   </g>
   <g id="patch_94">
    <path d="M 28.034062 185.398125 
L 33.265312 185.398125 
L 33.265312 185.398119 
L 28.034062 185.398119 
z
" clip-path="url(#pce41343ae5)" style="fill: #4c72b0; fill-opacity: 0.5; stroke: #4c72b0; stroke-width: 0.5; stroke-linejoin: miter"/>
   </g>
   <g id="patch_95">
    <path d="M 33.265312 185.398125 
L 38.496562 185.398125 
L 38.496562 185.398115 
L 33.265312 185.398115 
z
" clip-path="url(#pce41343ae5)" style="fill: #4c72b0; fill-opacity: 0.5; stroke: #4c72b0; stroke-width: 0.5; stroke-linejoin: miter"/>
   </g>
   <g id="patch_96">
    <path d="M 38.496562 185.398125 
L 43.727812 185.398125 
L 43.727812 185.398109 
L 38.496562 185.398109 
z
" clip-path="url(#pce41343ae5)" style="fill: #4c72b0; fill-opacity: 0.5; stroke: #4c72b0; stroke-width: 0.5; stroke-linejoin: miter"/>
   </g>
   <g id="patch_97">
    <path d="M 43.727812 185.398125 
L 48.959062 185.398125 
L 48.959062 185.398099 
L 43.727812 185.398099 
z
" clip-path="url(#pce41343ae5)" style="fill: #4c72b0; fill-opacity: 0.5; stroke: #4c72b0; stroke-width: 0.5; stroke-linejoin: miter"/>
   </g>
   <g id="patch_98">
    <path d="M 48.959062 185.398125 
L 54.190312 185.398125 
L 54.190312 185.398082 
L 48.959062 185.398082 
z
" clip-path="url(#pce41343ae5)" style="fill: #4c72b0; fill-opacity: 0.5; stroke: #4c72b0; stroke-width: 0.5; stroke-linejoin: miter"/>
   </g>
   <g id="patch_99">
    <path d="M 54.190312 185.398125 
L 59.421562 185.398125 
L 59.421562 185.398054 
L 54.190312 185.398054 
z
" clip-path="url(#pce41343ae5)" style="fill: #4c72b0; fill-opacity: 0.5; stroke: #4c72b0; stroke-width: 0.5; stroke-linejoin: miter"/>
   </g>
   <g id="patch_100">
    <path d="M 59.421562 185.398125 
L 64.652812 185.398125 
L 64.652812 185.398008 
L 59.421562 185.398008 
z
" clip-path="url(#pce41343ae5)" style="fill: #4c72b0; fill-opacity: 0.5; stroke: #4c72b0; stroke-width: 0.5; stroke-linejoin: miter"/>
   </g>
   <g id="patch_101">
    <path d="M 64.652812 185.398125 
L 69.884062 185.398125 
L 69.884062 185.397932 
L 64.652812 185.397932 
z
" clip-path="url(#pce41343ae5)" style="fill: #4c72b0; fill-opacity: 0.5; stroke: #4c72b0; stroke-width: 0.5; stroke-linejoin: miter"/>
   </g>
   <g id="patch_102">
    <path d="M 69.884063 185.398125 
L 75.115313 185.398125 
L 75.115313 185.397807 
L 69.884063 185.397807 
z
" clip-path="url(#pce41343ae5)" style="fill: #4c72b0; fill-opacity: 0.5; stroke: #4c72b0; stroke-width: 0.5; stroke-linejoin: miter"/>
   </g>
   <g id="patch_103">
    <path d="M 75.115312 185.398125 
L 80.346562 185.398125 
L 80.346562 185.3976 
L 75.115312 185.3976 
z
" clip-path="url(#pce41343ae5)" style="fill: #4c72b0; fill-opacity: 0.5; stroke: #4c72b0; stroke-width: 0.5; stroke-linejoin: miter"/>
   </g>
   <g id="patch_104">
    <path d="M 80.346563 185.398125 
L 85.577813 185.398125 
L 85.577813 185.39726 
L 80.346563 185.39726 
z
" clip-path="url(#pce41343ae5)" style="fill: #4c72b0; fill-opacity: 0.5; stroke: #4c72b0; stroke-width: 0.5; stroke-linejoin: miter"/>
   </g>
   <g id="patch_105">
    <path d="M 85.577812 185.398125 
L 90.809062 185.398125 
L 90.809062 185.396699 
L 85.577812 185.396699 
z
" clip-path="url(#pce41343ae5)" style="fill: #4c72b0; fill-opacity: 0.5; stroke: #4c72b0; stroke-width: 0.5; stroke-linejoin: miter"/>
   </g>
   <g id="patch_106">
    <path d="M 90.809062 185.398125 
L 96.040312 185.398125 
L 96.040312 185.395773 
L 90.809062 185.395773 
z
" clip-path="url(#pce41343ae5)" style="fill: #4c72b0; fill-opacity: 0.5; stroke: #4c72b0; stroke-width: 0.5; stroke-linejoin: miter"/>
   </g>
   <g id="patch_107">
    <path d="M 96.040313 185.398125 
L 101.271563 185.398125 
L 101.271563 185.394248 
L 96.040313 185.394248 
z
" clip-path="url(#pce41343ae5)" style="fill: #4c72b0; fill-opacity: 0.5; stroke: #4c72b0; stroke-width: 0.5; stroke-linejoin: miter"/>
   </g>
   <g id="patch_108">
    <path d="M 101.271562 185.398125 
L 106.502812 185.398125 
L 106.502812 185.391733 
L 101.271562 185.391733 
z
" clip-path="url(#pce41343ae5)" style="fill: #4c72b0; fill-opacity: 0.5; stroke: #4c72b0; stroke-width: 0.5; stroke-linejoin: miter"/>
   </g>
   <g id="patch_109">
    <path d="M 106.502813 185.398125 
L 111.734063 185.398125 
L 111.734063 185.387586 
L 106.502813 185.387586 
z
" clip-path="url(#pce41343ae5)" style="fill: #4c72b0; fill-opacity: 0.5; stroke: #4c72b0; stroke-width: 0.5; stroke-linejoin: miter"/>
   </g>
   <g id="patch_110">
    <path d="M 111.734062 185.398125 
L 116.965312 185.398125 
L 116.965312 185.38075 
L 111.734062 185.38075 
z
" clip-path="url(#pce41343ae5)" style="fill: #4c72b0; fill-opacity: 0.5; stroke: #4c72b0; stroke-width: 0.5; stroke-linejoin: miter"/>
   </g>
   <g id="patch_111">
    <path d="M 116.965312 185.398125 
L 122.196562 185.398125 
L 122.196562 185.36948 
L 116.965312 185.36948 
z
" clip-path="url(#pce41343ae5)" style="fill: #4c72b0; fill-opacity: 0.5; stroke: #4c72b0; stroke-width: 0.5; stroke-linejoin: miter"/>
   </g>
   <g id="patch_112">
    <path d="M 122.196563 185.398125 
L 127.427813 185.398125 
L 127.427813 185.3509 
L 122.196563 185.3509 
z
" clip-path="url(#pce41343ae5)" style="fill: #4c72b0; fill-opacity: 0.5; stroke: #4c72b0; stroke-width: 0.5; stroke-linejoin: miter"/>
   </g>
   <g id="patch_113">
    <path d="M 127.427812 185.398125 
L 132.659062 185.398125 
L 132.659062 185.320271 
L 127.427812 185.320271 
z
" clip-path="url(#pce41343ae5)" style="fill: #4c72b0; fill-opacity: 0.5; stroke: #4c72b0; stroke-width: 0.5; stroke-linejoin: miter"/>
   </g>
   <g id="patch_114">
    <path d="M 132.659063 185.398125 
L 137.890312 185.398125 
L 137.890312 185.269787 
L 132.659063 185.269787 
z
" clip-path="url(#pce41343ae5)" style="fill: #4c72b0; fill-opacity: 0.5; stroke: #4c72b0; stroke-width: 0.5; stroke-linejoin: miter"/>
   </g>
   <g id="patch_115">
    <path d="M 137.890312 185.398125 
L 143.121562 185.398125 
L 143.121562 185.186589 
L 137.890312 185.186589 
z
" clip-path="url(#pce41343ae5)" style="fill: #4c72b0; fill-opacity: 0.5; stroke: #4c72b0; stroke-width: 0.5; stroke-linejoin: miter"/>
   </g>
   <g id="patch_116">
    <path d="M 143.121562 185.398125 
L 148.352812 185.398125 
L 148.352812 185.049518 
L 143.121562 185.049518 
z
" clip-path="url(#pce41343ae5)" style="fill: #4c72b0; fill-opacity: 0.5; stroke: #4c72b0; stroke-width: 0.5; stroke-linejoin: miter"/>
   </g>
   <g id="patch_117">
    <path d="M 148.352813 185.398125 
L 153.584063 185.398125 
L 153.584063 184.823795 
L 148.352813 184.823795 
z
" clip-path="url(#pce41343ae5)" style="fill: #4c72b0; fill-opacity: 0.5; stroke: #4c72b0; stroke-width: 0.5; stroke-linejoin: miter"/>
   </g>
   <g id="patch_118">
    <path d="M 153.584062 185.398125 
L 158.815312 185.398125 
L 158.815312 184.452368 
L 153.584062 184.452368 
z
" clip-path="url(#pce41343ae5)" style="fill: #4c72b0; fill-opacity: 0.5; stroke: #4c72b0; stroke-width: 0.5; stroke-linejoin: miter"/>
   </g>
   <g id="patch_119">
    <path d="M 158.815313 185.398125 
L 164.046562 185.398125 
L 164.046562 183.841962 
L 158.815313 183.841962 
z
" clip-path="url(#pce41343ae5)" style="fill: #4c72b0; fill-opacity: 0.5; stroke: #4c72b0; stroke-width: 0.5; stroke-linejoin: miter"/>
   </g>
   <g id="patch_120">
    <path d="M 164.046562 185.398125 
L 169.277812 185.398125 
L 169.277812 182.840912 
L 164.046562 182.840912 
z
" clip-path="url(#pce41343ae5)" style="fill: #4c72b0; fill-opacity: 0.5; stroke: #4c72b0; stroke-width: 0.5; stroke-linejoin: miter"/>
   </g>
   <g id="patch_121">
    <path d="M 169.277812 185.398125 
L 174.509062 185.398125 
L 174.509062 181.204854 
L 169.277812 181.204854 
z
" clip-path="url(#pce41343ae5)" style="fill: #4c72b0; fill-opacity: 0.5; stroke: #4c72b0; stroke-width: 0.5; stroke-linejoin: miter"/>
   </g>
   <g id="patch_122">
    <path d="M 174.509063 185.398125 
L 179.740313 185.398125 
L 179.740313 178.546051 
L 174.509063 178.546051 
z
" clip-path="url(#pce41343ae5)" style="fill: #4c72b0; fill-opacity: 0.5; stroke: #4c72b0; stroke-width: 0.5; stroke-linejoin: miter"/>
   </g>
   <g id="patch_123">
    <path d="M 179.740312 185.398125 
L 184.971562 185.398125 
L 184.971562 174.265048 
L 179.740312 174.265048 
z
" clip-path="url(#pce41343ae5)" style="fill: #4c72b0; fill-opacity: 0.5; stroke: #4c72b0; stroke-width: 0.5; stroke-linejoin: miter"/>
   </g>
   <g id="patch_124">
    <path d="M 184.971563 185.398125 
L 190.202812 185.398125 
L 190.202812 167.475883 
L 184.971563 167.475883 
z
" clip-path="url(#pce41343ae5)" style="fill: #4c72b0; fill-opacity: 0.5; stroke: #4c72b0; stroke-width: 0.5; stroke-linejoin: miter"/>
   </g>
   <g id="patch_125">
    <path d="M 190.202813 185.398125 
L 195.434063 185.398125 
L 195.434063 156.971661 
L 190.202813 156.971661 
z
" clip-path="url(#pce41343ae5)" style="fill: #4c72b0; fill-opacity: 0.5; stroke: #4c72b0; stroke-width: 0.5; stroke-linejoin: miter"/>
   </g>
   <g id="patch_126">
    <path d="M 195.434062 185.398125 
L 200.665312 185.398125 
L 200.665312 141.355616 
L 195.434062 141.355616 
z
" clip-path="url(#pce41343ae5)" style="fill: #4c72b0; fill-opacity: 0.5; stroke: #4c72b0; stroke-width: 0.5; stroke-linejoin: miter"/>
   </g>
   <g id="patch_127">
    <path d="M 200.665313 185.398125 
L 205.896563 185.398125 
L 205.896563 119.579765 
L 200.665313 119.579765 
z
" clip-path="url(#pce41343ae5)" style="fill: #4c72b0; fill-opacity: 0.5; stroke: #4c72b0; stroke-width: 0.5; stroke-linejoin: miter"/>
   </g>
   <g id="patch_128">
    <path d="M 205.896562 185.398125 
L 211.127812 185.398125 
L 211.127812 92.158205 
L 205.896562 92.158205 
z
" clip-path="url(#pce41343ae5)" style="fill: #4c72b0; fill-opacity: 0.5; stroke: #4c72b0; stroke-width: 0.5; stroke-linejoin: miter"/>
   </g>
   <g id="patch_129">
    <path d="M 211.127813 185.398125 
L 216.359062 185.398125 
L 216.359062 62.846889 
L 211.127813 62.846889 
z
" clip-path="url(#pce41343ae5)" style="fill: #4c72b0; fill-opacity: 0.5; stroke: #4c72b0; stroke-width: 0.5; stroke-linejoin: miter"/>
   </g>
   <g id="patch_130">
    <path d="M 216.359063 185.398125 
L 221.590313 185.398125 
L 221.590313 39.264836 
L 216.359063 39.264836 
z
" clip-path="url(#pce41343ae5)" style="fill: #4c72b0; fill-opacity: 0.5; stroke: #4c72b0; stroke-width: 0.5; stroke-linejoin: miter"/>
   </g>
   <g id="patch_131">
    <path d="M 221.590312 185.398125 
L 226.821562 185.398125 
L 226.821562 30.083839 
L 221.590312 30.083839 
z
" clip-path="url(#pce41343ae5)" style="fill: #4c72b0; fill-opacity: 0.5; stroke: #4c72b0; stroke-width: 0.5; stroke-linejoin: miter"/>
   </g>
   <g id="patch_132">
    <path d="M 226.821563 185.398125 
L 232.052813 185.398125 
L 232.052813 39.264873 
L 226.821563 39.264873 
z
" clip-path="url(#pce41343ae5)" style="fill: #4c72b0; fill-opacity: 0.5; stroke: #4c72b0; stroke-width: 0.5; stroke-linejoin: miter"/>
   </g>
   <g id="patch_133">
    <path d="M 232.052812 185.398125 
L 237.284062 185.398125 
L 237.284062 62.84687 
L 232.052812 62.84687 
z
" clip-path="url(#pce41343ae5)" style="fill: #4c72b0; fill-opacity: 0.5; stroke: #4c72b0; stroke-width: 0.5; stroke-linejoin: miter"/>
   </g>
   <g id="patch_134">
    <path d="M 237.284063 185.398125 
L 242.515312 185.398125 
L 242.515312 92.158298 
L 237.284063 92.158298 
z
" clip-path="url(#pce41343ae5)" style="fill: #4c72b0; fill-opacity: 0.5; stroke: #4c72b0; stroke-width: 0.5; stroke-linejoin: miter"/>
   </g>
   <g id="patch_135">
    <path d="M 242.515313 185.398125 
L 247.746563 185.398125 
L 247.746563 119.579719 
L 242.515313 119.579719 
z
" clip-path="url(#pce41343ae5)" style="fill: #4c72b0; fill-opacity: 0.5; stroke: #4c72b0; stroke-width: 0.5; stroke-linejoin: miter"/>
   </g>
   <g id="patch_136">
    <path d="M 247.746562 185.398125 
L 252.977812 185.398125 
L 252.977812 141.355607 
L 247.746562 141.355607 
z
" clip-path="url(#pce41343ae5)" style="fill: #4c72b0; fill-opacity: 0.5; stroke: #4c72b0; stroke-width: 0.5; stroke-linejoin: miter"/>
   </g>
   <g id="patch_137">
    <path d="M 252.977813 185.398125 
L 258.209063 185.398125 
L 258.209063 156.971698 
L 252.977813 156.971698 
z
" clip-path="url(#pce41343ae5)" style="fill: #4c72b0; fill-opacity: 0.5; stroke: #4c72b0; stroke-width: 0.5; stroke-linejoin: miter"/>
   </g>
   <g id="patch_138">
    <path d="M 258.209062 185.398125 
L 263.440312 185.398125 
L 263.440312 167.475804 
L 258.209062 167.475804 
z
" clip-path="url(#pce41343ae5)" style="fill: #4c72b0; fill-opacity: 0.5; stroke: #4c72b0; stroke-width: 0.5; stroke-linejoin: miter"/>
   </g>
   <g id="patch_139">
    <path d="M 263.440313 185.398125 
L 268.671562 185.398125 
L 268.671562 174.265034 
L 263.440313 174.265034 
z
" clip-path="url(#pce41343ae5)" style="fill: #4c72b0; fill-opacity: 0.5; stroke: #4c72b0; stroke-width: 0.5; stroke-linejoin: miter"/>
   </g>
   <g id="patch_140">
    <path d="M 268.671563 185.398125 
L 273.902813 185.398125 
L 273.902813 178.546139 
L 268.671563 178.546139 
z
" clip-path="url(#pce41343ae5)" style="fill: #4c72b0; fill-opacity: 0.5; stroke: #4c72b0; stroke-width: 0.5; stroke-linejoin: miter"/>
   </g>
   <g id="patch_141">
    <path d="M 273.902812 185.398125 
L 279.134062 185.398125 
L 279.134062 181.204716 
L 273.902812 181.204716 
z
" clip-path="url(#pce41343ae5)" style="fill: #4c72b0; fill-opacity: 0.5; stroke: #4c72b0; stroke-width: 0.5; stroke-linejoin: miter"/>
   </g>
   <g id="patch_142">
    <path d="M 279.134063 185.398125 
L 284.365313 185.398125 
L 284.365313 182.841016 
L 279.134063 182.841016 
z
" clip-path="url(#pce41343ae5)" style="fill: #4c72b0; fill-opacity: 0.5; stroke: #4c72b0; stroke-width: 0.5; stroke-linejoin: miter"/>
   </g>
   <g id="patch_143">
    <path d="M 284.365313 185.398125 
L 289.596563 185.398125 
L 289.596563 183.842002 
L 284.365313 183.842002 
z
" clip-path="url(#pce41343ae5)" style="fill: #4c72b0; fill-opacity: 0.5; stroke: #4c72b0; stroke-width: 0.5; stroke-linejoin: miter"/>
   </g>
   <g id="patch_144">
    <path d="M 289.596563 185.398125 
L 294.827812 185.398125 
L 294.827812 184.452302 
L 289.596563 184.452302 
z
" clip-path="url(#pce41343ae5)" style="fill: #4c72b0; fill-opacity: 0.5; stroke: #4c72b0; stroke-width: 0.5; stroke-linejoin: miter"/>
   </g>
   <g id="patch_145">
    <path d="M 294.827813 185.398125 
L 300.059063 185.398125 
L 300.059063 184.823782 
L 294.827813 184.823782 
z
" clip-path="url(#pce41343ae5)" style="fill: #4c72b0; fill-opacity: 0.5; stroke: #4c72b0; stroke-width: 0.5; stroke-linejoin: miter"/>
   </g>
   <g id="patch_146">
    <path d="M 300.059062 185.398125 
L 305.290312 185.398125 
L 305.290312 185.049499 
L 300.059062 185.049499 
z
" clip-path="url(#pce41343ae5)" style="fill: #4c72b0; fill-opacity: 0.5; stroke: #4c72b0; stroke-width: 0.5; stroke-linejoin: miter"/>
   </g>
   <g id="patch_147">
    <path d="M 305.290313 185.398125 
L 310.521563 185.398125 
L 310.521563 185.186701 
L 305.290313 185.186701 
z
" clip-path="url(#pce41343ae5)" style="fill: #4c72b0; fill-opacity: 0.5; stroke: #4c72b0; stroke-width: 0.5; stroke-linejoin: miter"/>
   </g>
   <g id="patch_148">
    <path d="M 310.521563 185.398125 
L 315.752813 185.398125 
L 315.752813 185.269707 
L 310.521563 185.269707 
z
" clip-path="url(#pce41343ae5)" style="fill: #4c72b0; fill-opacity: 0.5; stroke: #4c72b0; stroke-width: 0.5; stroke-linejoin: miter"/>
   </g>
   <g id="patch_149">
    <path d="M 315.752813 185.398125 
L 320.984062 185.398125 
L 320.984062 185.320256 
L 315.752813 185.320256 
z
" clip-path="url(#pce41343ae5)" style="fill: #4c72b0; fill-opacity: 0.5; stroke: #4c72b0; stroke-width: 0.5; stroke-linejoin: miter"/>
   </g>
   <g id="patch_150">
    <path d="M 320.984063 185.398125 
L 326.215313 185.398125 
L 326.215313 185.350927 
L 320.984063 185.350927 
z
" clip-path="url(#pce41343ae5)" style="fill: #4c72b0; fill-opacity: 0.5; stroke: #4c72b0; stroke-width: 0.5; stroke-linejoin: miter"/>
   </g>
   <g id="patch_151">
    <path d="M 326.215312 185.398125 
L 331.446562 185.398125 
L 331.446562 185.369538 
L 326.215312 185.369538 
z
" clip-path="url(#pce41343ae5)" style="fill: #4c72b0; fill-opacity: 0.5; stroke: #4c72b0; stroke-width: 0.5; stroke-linejoin: miter"/>
   </g>
   <g id="patch_152">
    <path d="M 331.446563 185.398125 
L 336.677813 185.398125 
L 336.677813 185.380705 
L 331.446563 185.380705 
z
" clip-path="url(#pce41343ae5)" style="fill: #4c72b0; fill-opacity: 0.5; stroke: #4c72b0; stroke-width: 0.5; stroke-linejoin: miter"/>
   </g>
   <g id="patch_153">
    <path d="M 336.677813 185.398125 
L 341.909063 185.398125 
L 341.909063 185.387554 
L 336.677813 185.387554 
z
" clip-path="url(#pce41343ae5)" style="fill: #4c72b0; fill-opacity: 0.5; stroke: #4c72b0; stroke-width: 0.5; stroke-linejoin: miter"/>
   </g>
   <g id="patch_154">
    <path d="M 341.909063 185.398125 
L 347.140312 185.398125 
L 347.140312 185.391723 
L 341.909063 185.391723 
z
" clip-path="url(#pce41343ae5)" style="fill: #4c72b0; fill-opacity: 0.5; stroke: #4c72b0; stroke-width: 0.5; stroke-linejoin: miter"/>
   </g>
   <g id="patch_155">
    <path d="M 347.140313 185.398125 
L 352.371563 185.398125 
L 352.371563 185.394254 
L 347.140313 185.394254 
z
" clip-path="url(#pce41343ae5)" style="fill: #4c72b0; fill-opacity: 0.5; stroke: #4c72b0; stroke-width: 0.5; stroke-linejoin: miter"/>
   </g>
   <g id="patch_156">
    <path d="M 352.371562 185.398125 
L 357.602812 185.398125 
L 357.602812 185.395743 
L 352.371562 185.395743 
z
" clip-path="url(#pce41343ae5)" style="fill: #4c72b0; fill-opacity: 0.5; stroke: #4c72b0; stroke-width: 0.5; stroke-linejoin: miter"/>
   </g>
   <g id="patch_157">
    <path d="M 357.602813 185.398125 
L 362.834063 185.398125 
L 362.834063 185.396785 
L 357.602813 185.396785 
z
" clip-path="url(#pce41343ae5)" style="fill: #4c72b0; fill-opacity: 0.5; stroke: #4c72b0; stroke-width: 0.5; stroke-linejoin: miter"/>
   </g>
   <g id="patch_158">
    <path d="M 362.834063 185.398125 
L 368.065313 185.398125 
L 368.065313 185.397232 
L 362.834063 185.397232 
z
" clip-path="url(#pce41343ae5)" style="fill: #4c72b0; fill-opacity: 0.5; stroke: #4c72b0; stroke-width: 0.5; stroke-linejoin: miter"/>
   </g>
   <g id="patch_159">
    <path d="M 368.065313 185.398125 
L 373.296562 185.398125 
L 373.296562 185.397529 
L 368.065313 185.397529 
z
" clip-path="url(#pce41343ae5)" style="fill: #4c72b0; fill-opacity: 0.5; stroke: #4c72b0; stroke-width: 0.5; stroke-linejoin: miter"/>
   </g>
   <g id="patch_160">
    <path d="M 373.296563 185.398125 
L 378.527813 185.398125 
L 378.527813 185.397827 
L 373.296563 185.397827 
z
" clip-path="url(#pce41343ae5)" style="fill: #4c72b0; fill-opacity: 0.5; stroke: #4c72b0; stroke-width: 0.5; stroke-linejoin: miter"/>
   </g>
   <g id="patch_161">
    <path d="M 378.527812 185.398125 
L 383.759062 185.398125 
L 383.759062 185.397976 
L 378.527812 185.397976 
z
" clip-path="url(#pce41343ae5)" style="fill: #4c72b0; fill-opacity: 0.5; stroke: #4c72b0; stroke-width: 0.5; stroke-linejoin: miter"/>
   </g>
   <g id="patch_162">
    <path d="M 383.759063 185.398125 
L 388.990313 185.398125 
L 388.990313 185.397976 
L 383.759063 185.397976 
z
" clip-path="url(#pce41343ae5)" style="fill: #4c72b0; fill-opacity: 0.5; stroke: #4c72b0; stroke-width: 0.5; stroke-linejoin: miter"/>
   </g>
   <g id="patch_163">
    <path d="M 388.990313 185.398125 
L 394.221563 185.398125 
L 394.221563 185.398125 
L 388.990313 185.398125 
z
" clip-path="url(#pce41343ae5)" style="fill: #4c72b0; fill-opacity: 0.5; stroke: #4c72b0; stroke-width: 0.5; stroke-linejoin: miter"/>
   </g>
   <g id="patch_164">
    <path d="M 394.221563 185.398125 
L 399.452812 185.398125 
L 399.452812 185.397976 
L 394.221563 185.397976 
z
" clip-path="url(#pce41343ae5)" style="fill: #4c72b0; fill-opacity: 0.5; stroke: #4c72b0; stroke-width: 0.5; stroke-linejoin: miter"/>
   </g>
   <g id="patch_165">
    <path d="M 399.452813 185.398125 
L 404.684063 185.398125 
L 404.684063 185.398125 
L 399.452813 185.398125 
z
" clip-path="url(#pce41343ae5)" style="fill: #4c72b0; fill-opacity: 0.5; stroke: #4c72b0; stroke-width: 0.5; stroke-linejoin: miter"/>
   </g>
   <g id="patch_166">
    <path d="M 404.684063 185.398125 
L 409.915313 185.398125 
L 409.915313 185.398125 
L 404.684063 185.398125 
z
" clip-path="url(#pce41343ae5)" style="fill: #4c72b0; fill-opacity: 0.5; stroke: #4c72b0; stroke-width: 0.5; stroke-linejoin: miter"/>
   </g>
   <g id="patch_167">
    <path d="M 409.915313 185.398125 
L 415.146563 185.398125 
L 415.146563 185.398125 
L 409.915313 185.398125 
z
" clip-path="url(#pce41343ae5)" style="fill: #4c72b0; fill-opacity: 0.5; stroke: #4c72b0; stroke-width: 0.5; stroke-linejoin: miter"/>
   </g>
   <g id="patch_168">
    <path d="M 415.146563 185.398125 
L 420.377813 185.398125 
L 420.377813 185.398125 
L 415.146563 185.398125 
z
" clip-path="url(#pce41343ae5)" style="fill: #4c72b0; fill-opacity: 0.5; stroke: #4c72b0; stroke-width: 0.5; stroke-linejoin: miter"/>
   </g>
   <g id="patch_169">
    <path d="M 420.377813 185.398125 
L 425.609062 185.398125 
L 425.609062 185.398125 
L 420.377813 185.398125 
z
" clip-path="url(#pce41343ae5)" style="fill: #4c72b0; fill-opacity: 0.5; stroke: #4c72b0; stroke-width: 0.5; stroke-linejoin: miter"/>
   </g>
   <g id="patch_170">
    <path d="M 425.609063 185.398125 
L 430.840313 185.398125 
L 430.840313 185.398125 
L 425.609063 185.398125 
z
" clip-path="url(#pce41343ae5)" style="fill: #4c72b0; fill-opacity: 0.5; stroke: #4c72b0; stroke-width: 0.5; stroke-linejoin: miter"/>
   </g>
   <g id="patch_171">
    <path d="M 430.840313 185.398125 
L 436.071563 185.398125 
L 436.071563 185.398125 
L 430.840313 185.398125 
z
" clip-path="url(#pce41343ae5)" style="fill: #4c72b0; fill-opacity: 0.5; stroke: #4c72b0; stroke-width: 0.5; stroke-linejoin: miter"/>
   </g>
   <g id="patch_172">
    <path d="M 436.071563 185.398125 
L 441.302813 185.398125 
L 441.302813 185.398125 
L 436.071563 185.398125 
z
" clip-path="url(#pce41343ae5)" style="fill: #4c72b0; fill-opacity: 0.5; stroke: #4c72b0; stroke-width: 0.5; stroke-linejoin: miter"/>
   </g>
   <g id="patch_173">
    <path d="M 441.302813 185.398125 
L 446.534063 185.398125 
L 446.534063 185.398125 
L 441.302813 185.398125 
z
" clip-path="url(#pce41343ae5)" style="fill: #4c72b0; fill-opacity: 0.5; stroke: #4c72b0; stroke-width: 0.5; stroke-linejoin: miter"/>
   </g>
   <g id="patch_174">
    <path d="M 446.534063 185.398125 
L 451.765312 185.398125 
L 451.765312 185.398125 
L 446.534063 185.398125 
z
" clip-path="url(#pce41343ae5)" style="fill: #4c72b0; fill-opacity: 0.5; stroke: #4c72b0; stroke-width: 0.5; stroke-linejoin: miter"/>
   </g>
   <g id="patch_175">
    <path d="M 451.765313 185.398125 
L 456.996563 185.398125 
L 456.996563 185.398125 
L 451.765313 185.398125 
z
" clip-path="url(#pce41343ae5)" style="fill: #4c72b0; fill-opacity: 0.5; stroke: #4c72b0; stroke-width: 0.5; stroke-linejoin: miter"/>
   </g>
   <g id="patch_176">
    <path d="M 456.996563 185.398125 
L 462.227813 185.398125 
L 462.227813 185.398125 
L 456.996563 185.398125 
z
" clip-path="url(#pce41343ae5)" style="fill: #4c72b0; fill-opacity: 0.5; stroke: #4c72b0; stroke-width: 0.5; stroke-linejoin: miter"/>
   </g>
   <g id="patch_177">
    <path d="M 462.227813 185.398125 
L 467.459063 185.398125 
L 467.459063 185.398125 
L 462.227813 185.398125 
z
" clip-path="url(#pce41343ae5)" style="fill: #4c72b0; fill-opacity: 0.5; stroke: #4c72b0; stroke-width: 0.5; stroke-linejoin: miter"/>
   </g>
   <g id="patch_178">
    <path d="M 467.459063 185.398125 
L 472.690313 185.398125 
L 472.690313 185.398125 
L 467.459063 185.398125 
z
" clip-path="url(#pce41343ae5)" style="fill: #4c72b0; fill-opacity: 0.5; stroke: #4c72b0; stroke-width: 0.5; stroke-linejoin: miter"/>
   </g>
   <g id="patch_179">
    <path d="M 472.690313 185.398125 
L 477.921562 185.398125 
L 477.921562 185.398125 
L 472.690313 185.398125 
z
" clip-path="url(#pce41343ae5)" style="fill: #4c72b0; fill-opacity: 0.5; stroke: #4c72b0; stroke-width: 0.5; stroke-linejoin: miter"/>
   </g>
   <g id="patch_180">
    <path d="M 477.921563 185.398125 
L 483.152813 185.398125 
L 483.152813 185.398125 
L 477.921563 185.398125 
z
" clip-path="url(#pce41343ae5)" style="fill: #4c72b0; fill-opacity: 0.5; stroke: #4c72b0; stroke-width: 0.5; stroke-linejoin: miter"/>
   </g>
   <g id="patch_181">
    <path d="M 483.152813 185.398125 
L 488.384063 185.398125 
L 488.384063 185.398125 
L 483.152813 185.398125 
z
" clip-path="url(#pce41343ae5)" style="fill: #4c72b0; fill-opacity: 0.5; stroke: #4c72b0; stroke-width: 0.5; stroke-linejoin: miter"/>
   </g>
   <g id="patch_182">
    <path d="M 488.384063 185.398125 
L 493.615313 185.398125 
L 493.615313 185.398125 
L 488.384063 185.398125 
z
" clip-path="url(#pce41343ae5)" style="fill: #4c72b0; fill-opacity: 0.5; stroke: #4c72b0; stroke-width: 0.5; stroke-linejoin: miter"/>
   </g>
   <g id="patch_183">
    <path d="M 493.615313 185.398125 
L 498.846563 185.398125 
L 498.846563 185.398125 
L 493.615313 185.398125 
z
" clip-path="url(#pce41343ae5)" style="fill: #4c72b0; fill-opacity: 0.5; stroke: #4c72b0; stroke-width: 0.5; stroke-linejoin: miter"/>
   </g>
   <g id="patch_184">
    <path d="M 498.846563 185.398125 
L 504.077812 185.398125 
L 504.077812 185.398125 
L 498.846563 185.398125 
z
" clip-path="url(#pce41343ae5)" style="fill: #4c72b0; fill-opacity: 0.5; stroke: #4c72b0; stroke-width: 0.5; stroke-linejoin: miter"/>
   </g>
   <g id="patch_185">
    <path d="M 504.077813 185.398125 
L 509.309063 185.398125 
L 509.309063 185.398125 
L 504.077813 185.398125 
z
" clip-path="url(#pce41343ae5)" style="fill: #4c72b0; fill-opacity: 0.5; stroke: #4c72b0; stroke-width: 0.5; stroke-linejoin: miter"/>
   </g>
   <g id="patch_186">
    <path d="M 509.309063 185.398125 
L 514.540313 185.398125 
L 514.540313 185.398125 
L 509.309063 185.398125 
z
" clip-path="url(#pce41343ae5)" style="fill: #4c72b0; fill-opacity: 0.5; stroke: #4c72b0; stroke-width: 0.5; stroke-linejoin: miter"/>
   </g>
   <g id="patch_187">
    <path d="M 514.540313 185.398125 
L 519.771563 185.398125 
L 519.771563 185.398125 
L 514.540313 185.398125 
z
" clip-path="url(#pce41343ae5)" style="fill: #4c72b0; fill-opacity: 0.5; stroke: #4c72b0; stroke-width: 0.5; stroke-linejoin: miter"/>
   </g>
   <g id="patch_188">
    <path d="M 519.771563 185.398125 
L 525.002813 185.398125 
L 525.002813 185.398125 
L 519.771563 185.398125 
z
" clip-path="url(#pce41343ae5)" style="fill: #4c72b0; fill-opacity: 0.5; stroke: #4c72b0; stroke-width: 0.5; stroke-linejoin: miter"/>
   </g>
   <g id="patch_189">
    <path d="M 525.002813 185.398125 
L 530.234063 185.398125 
L 530.234063 185.398125 
L 525.002813 185.398125 
z
" clip-path="url(#pce41343ae5)" style="fill: #4c72b0; fill-opacity: 0.5; stroke: #4c72b0; stroke-width: 0.5; stroke-linejoin: miter"/>
   </g>
   <g id="patch_190">
    <path d="M 530.234063 185.398125 
L 535.465313 185.398125 
L 535.465313 185.398125 
L 530.234063 185.398125 
z
" clip-path="url(#pce41343ae5)" style="fill: #4c72b0; fill-opacity: 0.5; stroke: #4c72b0; stroke-width: 0.5; stroke-linejoin: miter"/>
   </g>
   <g id="patch_191">
    <path d="M 535.465313 185.398125 
L 540.696563 185.398125 
L 540.696563 185.398125 
L 535.465313 185.398125 
z
" clip-path="url(#pce41343ae5)" style="fill: #4c72b0; fill-opacity: 0.5; stroke: #4c72b0; stroke-width: 0.5; stroke-linejoin: miter"/>
   </g>
   <g id="patch_192">
    <path d="M 540.696563 185.398125 
L 545.927813 185.398125 
L 545.927813 185.398125 
L 540.696563 185.398125 
z
" clip-path="url(#pce41343ae5)" style="fill: #4c72b0; fill-opacity: 0.5; stroke: #4c72b0; stroke-width: 0.5; stroke-linejoin: miter"/>
   </g>
   <g id="patch_193">
    <path d="M 545.927813 185.398125 
L 551.159063 185.398125 
L 551.159063 185.398125 
L 545.927813 185.398125 
z
" clip-path="url(#pce41343ae5)" style="fill: #4c72b0; fill-opacity: 0.5; stroke: #4c72b0; stroke-width: 0.5; stroke-linejoin: miter"/>
   </g>
   <g id="patch_194">
    <path d="M 551.159063 185.398125 
L 556.390313 185.398125 
L 556.390313 185.398125 
L 551.159063 185.398125 
z
" clip-path="url(#pce41343ae5)" style="fill: #4c72b0; fill-opacity: 0.5; stroke: #4c72b0; stroke-width: 0.5; stroke-linejoin: miter"/>
   </g>
   <g id="patch_195">
    <path d="M 556.390313 185.398125 
L 561.621563 185.398125 
L 561.621563 185.398125 
L 556.390313 185.398125 
z
" clip-path="url(#pce41343ae5)" style="fill: #4c72b0; fill-opacity: 0.5; stroke: #4c72b0; stroke-width: 0.5; stroke-linejoin: miter"/>
   </g>
   <g id="patch_196">
    <path d="M 561.621563 185.398125 
L 566.852813 185.398125 
L 566.852813 185.398125 
L 561.621563 185.398125 
z
" clip-path="url(#pce41343ae5)" style="fill: #4c72b0; fill-opacity: 0.5; stroke: #4c72b0; stroke-width: 0.5; stroke-linejoin: miter"/>
   </g>
   <g id="patch_197">
    <path d="M 566.852813 185.398125 
L 572.084063 185.398125 
L 572.084063 185.398125 
L 566.852813 185.398125 
z
" clip-path="url(#pce41343ae5)" style="fill: #4c72b0; fill-opacity: 0.5; stroke: #4c72b0; stroke-width: 0.5; stroke-linejoin: miter"/>
   </g>
   <g id="patch_198">
    <path d="M 572.084063 185.398125 
L 577.315313 185.398125 
L 577.315313 185.398125 
L 572.084063 185.398125 
z
" clip-path="url(#pce41343ae5)" style="fill: #4c72b0; fill-opacity: 0.5; stroke: #4c72b0; stroke-width: 0.5; stroke-linejoin: miter"/>
   </g>
   <g id="patch_199">
    <path d="M 577.315313 185.398125 
L 582.546563 185.398125 
L 582.546563 185.398125 
L 577.315313 185.398125 
z
" clip-path="url(#pce41343ae5)" style="fill: #4c72b0; fill-opacity: 0.5; stroke: #4c72b0; stroke-width: 0.5; stroke-linejoin: miter"/>
   </g>
   <g id="patch_200">
    <path d="M 582.546563 185.398125 
L 587.777813 185.398125 
L 587.777813 185.398125 
L 582.546563 185.398125 
z
" clip-path="url(#pce41343ae5)" style="fill: #4c72b0; fill-opacity: 0.5; stroke: #4c72b0; stroke-width: 0.5; stroke-linejoin: miter"/>
   </g>
   <g id="patch_201">
    <path d="M 587.777813 185.398125 
L 593.009063 185.398125 
L 593.009063 185.398125 
L 587.777813 185.398125 
z
" clip-path="url(#pce41343ae5)" style="fill: #4c72b0; fill-opacity: 0.5; stroke: #4c72b0; stroke-width: 0.5; stroke-linejoin: miter"/>
   </g>
   <g id="patch_202">
    <path d="M 593.009063 185.398125 
L 598.240313 185.398125 
L 598.240313 185.398125 
L 593.009063 185.398125 
z
" clip-path="url(#pce41343ae5)" style="fill: #4c72b0; fill-opacity: 0.5; stroke: #4c72b0; stroke-width: 0.5; stroke-linejoin: miter"/>
   </g>
   <g id="patch_203">
    <path d="M 598.240313 185.398125 
L 603.471563 185.398125 
L 603.471563 185.398125 
L 598.240313 185.398125 
z
" clip-path="url(#pce41343ae5)" style="fill: #4c72b0; fill-opacity: 0.5; stroke: #4c72b0; stroke-width: 0.5; stroke-linejoin: miter"/>
   </g>
   <g id="patch_204">
    <path d="M 603.471563 185.398125 
L 608.702813 185.398125 
L 608.702813 185.398125 
L 603.471563 185.398125 
z
" clip-path="url(#pce41343ae5)" style="fill: #4c72b0; fill-opacity: 0.5; stroke: #4c72b0; stroke-width: 0.5; stroke-linejoin: miter"/>
   </g>
   <g id="patch_205">
    <path d="M 608.702813 185.398125 
L 613.934063 185.398125 
L 613.934063 185.398125 
L 608.702813 185.398125 
z
" clip-path="url(#pce41343ae5)" style="fill: #4c72b0; fill-opacity: 0.5; stroke: #4c72b0; stroke-width: 0.5; stroke-linejoin: miter"/>
   </g>
   <g id="patch_206">
    <path d="M 613.934063 185.398125 
L 619.165313 185.398125 
L 619.165313 185.398125 
L 613.934063 185.398125 
z
" clip-path="url(#pce41343ae5)" style="fill: #4c72b0; fill-opacity: 0.5; stroke: #4c72b0; stroke-width: 0.5; stroke-linejoin: miter"/>
   </g>
   <g id="patch_207">
    <path d="M 619.165313 185.398125 
L 624.396563 185.398125 
L 624.396563 185.398125 
L 619.165313 185.398125 
z
" clip-path="url(#pce41343ae5)" style="fill: #4c72b0; fill-opacity: 0.5; stroke: #4c72b0; stroke-width: 0.5; stroke-linejoin: miter"/>
   </g>
   <g id="patch_208">
    <path d="M 624.396563 185.398125 
L 629.627813 185.398125 
L 629.627813 185.398125 
L 624.396563 185.398125 
z
" clip-path="url(#pce41343ae5)" style="fill: #4c72b0; fill-opacity: 0.5; stroke: #4c72b0; stroke-width: 0.5; stroke-linejoin: miter"/>
   </g>
   <g id="patch_209">
    <path d="M 629.627813 185.398125 
L 634.859063 185.398125 
L 634.859063 185.398125 
L 629.627813 185.398125 
z
" clip-path="url(#pce41343ae5)" style="fill: #4c72b0; fill-opacity: 0.5; stroke: #4c72b0; stroke-width: 0.5; stroke-linejoin: miter"/>
   </g>
   <g id="patch_210">
    <path d="M 634.859063 185.398125 
L 640.090313 185.398125 
L 640.090313 185.398125 
L 634.859063 185.398125 
z
" clip-path="url(#pce41343ae5)" style="fill: #4c72b0; fill-opacity: 0.5; stroke: #4c72b0; stroke-width: 0.5; stroke-linejoin: miter"/>
   </g>
   <g id="patch_211">
    <path d="M 640.090313 185.398125 
L 645.321563 185.398125 
L 645.321563 185.398125 
L 640.090313 185.398125 
z
" clip-path="url(#pce41343ae5)" style="fill: #4c72b0; fill-opacity: 0.5; stroke: #4c72b0; stroke-width: 0.5; stroke-linejoin: miter"/>
   </g>
   <g id="patch_212">
    <path d="M 645.321563 185.398125 
L 650.552813 185.398125 
L 650.552813 185.398125 
L 645.321563 185.398125 
z
" clip-path="url(#pce41343ae5)" style="fill: #4c72b0; fill-opacity: 0.5; stroke: #4c72b0; stroke-width: 0.5; stroke-linejoin: miter"/>
   </g>
   <g id="patch_213">
    <path d="M 650.552813 185.398125 
L 655.784063 185.398125 
L 655.784063 185.398125 
L 650.552813 185.398125 
z
" clip-path="url(#pce41343ae5)" style="fill: #4c72b0; fill-opacity: 0.5; stroke: #4c72b0; stroke-width: 0.5; stroke-linejoin: miter"/>
   </g>
   <g id="patch_214">
    <path d="M 655.784063 185.398125 
L 661.015313 185.398125 
L 661.015313 185.398125 
L 655.784063 185.398125 
z
" clip-path="url(#pce41343ae5)" style="fill: #4c72b0; fill-opacity: 0.5; stroke: #4c72b0; stroke-width: 0.5; stroke-linejoin: miter"/>
   </g>
   <g id="patch_215">
    <path d="M 661.015313 185.398125 
L 666.246563 185.398125 
L 666.246563 185.398125 
L 661.015313 185.398125 
z
" clip-path="url(#pce41343ae5)" style="fill: #4c72b0; fill-opacity: 0.5; stroke: #4c72b0; stroke-width: 0.5; stroke-linejoin: miter"/>
   </g>
   <g id="patch_216">
    <path d="M 666.246563 185.398125 
L 671.477813 185.398125 
L 671.477813 185.398125 
L 666.246563 185.398125 
z
" clip-path="url(#pce41343ae5)" style="fill: #4c72b0; fill-opacity: 0.5; stroke: #4c72b0; stroke-width: 0.5; stroke-linejoin: miter"/>
   </g>
   <g id="patch_217">
    <path d="M 671.477813 185.398125 
L 676.709063 185.398125 
L 676.709063 185.398125 
L 671.477813 185.398125 
z
" clip-path="url(#pce41343ae5)" style="fill: #4c72b0; fill-opacity: 0.5; stroke: #4c72b0; stroke-width: 0.5; stroke-linejoin: miter"/>
   </g>
   <g id="patch_218">
    <path d="M 676.709063 185.398125 
L 681.940313 185.398125 
L 681.940313 185.398125 
L 676.709063 185.398125 
z
" clip-path="url(#pce41343ae5)" style="fill: #4c72b0; fill-opacity: 0.5; stroke: #4c72b0; stroke-width: 0.5; stroke-linejoin: miter"/>
   </g>
   <g id="patch_219">
    <path d="M 681.940313 185.398125 
L 687.171563 185.398125 
L 687.171563 185.398125 
L 681.940313 185.398125 
z
" clip-path="url(#pce41343ae5)" style="fill: #4c72b0; fill-opacity: 0.5; stroke: #4c72b0; stroke-width: 0.5; stroke-linejoin: miter"/>
   </g>
   <g id="patch_220">
    <path d="M 687.171563 185.398125 
L 692.402813 185.398125 
L 692.402813 185.398125 
L 687.171563 185.398125 
z
" clip-path="url(#pce41343ae5)" style="fill: #4c72b0; fill-opacity: 0.5; stroke: #4c72b0; stroke-width: 0.5; stroke-linejoin: miter"/>
   </g>
   <g id="patch_221">
    <path d="M 692.402813 185.398125 
L 697.634063 185.398125 
L 697.634063 185.398125 
L 692.402813 185.398125 
z
" clip-path="url(#pce41343ae5)" style="fill: #4c72b0; fill-opacity: 0.5; stroke: #4c72b0; stroke-width: 0.5; stroke-linejoin: miter"/>
   </g>
   <g id="patch_222">
    <path d="M 697.634063 185.398125 
L 702.865313 185.398125 
L 702.865313 185.398125 
L 697.634063 185.398125 
z
" clip-path="url(#pce41343ae5)" style="fill: #4c72b0; fill-opacity: 0.5; stroke: #4c72b0; stroke-width: 0.5; stroke-linejoin: miter"/>
   </g>
   <g id="patch_223">
    <path d="M 702.865313 185.398125 
L 708.096563 185.398125 
L 708.096563 185.398125 
L 702.865313 185.398125 
z
" clip-path="url(#pce41343ae5)" style="fill: #4c72b0; fill-opacity: 0.5; stroke: #4c72b0; stroke-width: 0.5; stroke-linejoin: miter"/>
   </g>
   <g id="patch_224">
    <path d="M 708.096563 185.398125 
L 713.327813 185.398125 
L 713.327813 185.398125 
L 708.096563 185.398125 
z
" clip-path="url(#pce41343ae5)" style="fill: #4c72b0; fill-opacity: 0.5; stroke: #4c72b0; stroke-width: 0.5; stroke-linejoin: miter"/>
   </g>
   <g id="patch_225">
    <path d="M 713.327813 185.398125 
L 718.559063 185.398125 
L 718.559063 185.398125 
L 713.327813 185.398125 
z
" clip-path="url(#pce41343ae5)" style="fill: #4c72b0; fill-opacity: 0.5; stroke: #4c72b0; stroke-width: 0.5; stroke-linejoin: miter"/>
   </g>
   <g id="patch_226">
    <path d="M 718.559063 185.398125 
L 723.790313 185.398125 
L 723.790313 185.398125 
L 718.559063 185.398125 
z
" clip-path="url(#pce41343ae5)" style="fill: #4c72b0; fill-opacity: 0.5; stroke: #4c72b0; stroke-width: 0.5; stroke-linejoin: miter"/>
   </g>
   <g id="patch_227">
    <path d="M 723.790313 185.398125 
L 729.021563 185.398125 
L 729.021563 185.398125 
L 723.790313 185.398125 
z
" clip-path="url(#pce41343ae5)" style="fill: #4c72b0; fill-opacity: 0.5; stroke: #4c72b0; stroke-width: 0.5; stroke-linejoin: miter"/>
   </g>
   <g id="patch_228">
    <path d="M 729.021563 185.398125 
L 734.252813 185.398125 
L 734.252813 185.398125 
L 729.021563 185.398125 
z
" clip-path="url(#pce41343ae5)" style="fill: #4c72b0; fill-opacity: 0.5; stroke: #4c72b0; stroke-width: 0.5; stroke-linejoin: miter"/>
   </g>
   <g id="patch_229">
    <path d="M 734.252813 185.398125 
L 739.484063 185.398125 
L 739.484063 185.398125 
L 734.252813 185.398125 
z
" clip-path="url(#pce41343ae5)" style="fill: #4c72b0; fill-opacity: 0.5; stroke: #4c72b0; stroke-width: 0.5; stroke-linejoin: miter"/>
   </g>
   <g id="patch_230">
    <path d="M 739.484063 185.398125 
L 744.715313 185.398125 
L 744.715313 185.398125 
L 739.484063 185.398125 
z
" clip-path="url(#pce41343ae5)" style="fill: #4c72b0; fill-opacity: 0.5; stroke: #4c72b0; stroke-width: 0.5; stroke-linejoin: miter"/>
   </g>
   <g id="patch_231">
    <path d="M 744.715313 185.398125 
L 749.946563 185.398125 
L 749.946563 185.398125 
L 744.715313 185.398125 
z
" clip-path="url(#pce41343ae5)" style="fill: #4c72b0; fill-opacity: 0.5; stroke: #4c72b0; stroke-width: 0.5; stroke-linejoin: miter"/>
   </g>
   <g id="patch_232">
    <path d="M 749.946563 185.398125 
L 755.177813 185.398125 
L 755.177813 185.398125 
L 749.946563 185.398125 
z
" clip-path="url(#pce41343ae5)" style="fill: #4c72b0; fill-opacity: 0.5; stroke: #4c72b0; stroke-width: 0.5; stroke-linejoin: miter"/>
   </g>
   <g id="patch_233">
    <path d="M 755.177813 185.398125 
L 760.409063 185.398125 
L 760.409063 185.398125 
L 755.177813 185.398125 
z
" clip-path="url(#pce41343ae5)" style="fill: #4c72b0; fill-opacity: 0.5; stroke: #4c72b0; stroke-width: 0.5; stroke-linejoin: miter"/>
   </g>
   <g id="patch_234">
    <path d="M 760.409063 185.398125 
L 765.640313 185.398125 
L 765.640313 185.398125 
L 760.409063 185.398125 
z
" clip-path="url(#pce41343ae5)" style="fill: #4c72b0; fill-opacity: 0.5; stroke: #4c72b0; stroke-width: 0.5; stroke-linejoin: miter"/>
   </g>
   <g id="patch_235">
    <path d="M 765.640313 185.398125 
L 770.871563 185.398125 
L 770.871563 185.398125 
L 765.640313 185.398125 
z
" clip-path="url(#pce41343ae5)" style="fill: #4c72b0; fill-opacity: 0.5; stroke: #4c72b0; stroke-width: 0.5; stroke-linejoin: miter"/>
   </g>
   <g id="patch_236">
    <path d="M 770.871563 185.398125 
L 776.102813 185.398125 
L 776.102813 185.398125 
L 770.871563 185.398125 
z
" clip-path="url(#pce41343ae5)" style="fill: #4c72b0; fill-opacity: 0.5; stroke: #4c72b0; stroke-width: 0.5; stroke-linejoin: miter"/>
   </g>
   <g id="patch_237">
    <path d="M 776.102813 185.398125 
L 781.334063 185.398125 
L 781.334063 185.398125 
L 776.102813 185.398125 
z
" clip-path="url(#pce41343ae5)" style="fill: #4c72b0; fill-opacity: 0.5; stroke: #4c72b0; stroke-width: 0.5; stroke-linejoin: miter"/>
   </g>
   <g id="patch_238">
    <path d="M 781.334063 185.398125 
L 786.565313 185.398125 
L 786.565313 185.398125 
L 781.334063 185.398125 
z
" clip-path="url(#pce41343ae5)" style="fill: #4c72b0; fill-opacity: 0.5; stroke: #4c72b0; stroke-width: 0.5; stroke-linejoin: miter"/>
   </g>
   <g id="patch_239">
    <path d="M 786.565313 185.398125 
L 791.796563 185.398125 
L 791.796563 185.398125 
L 786.565313 185.398125 
z
" clip-path="url(#pce41343ae5)" style="fill: #4c72b0; fill-opacity: 0.5; stroke: #4c72b0; stroke-width: 0.5; stroke-linejoin: miter"/>
   </g>
   <g id="patch_240">
    <path d="M 791.796563 185.398125 
L 797.027813 185.398125 
L 797.027813 185.398125 
L 791.796563 185.398125 
z
" clip-path="url(#pce41343ae5)" style="fill: #4c72b0; fill-opacity: 0.5; stroke: #4c72b0; stroke-width: 0.5; stroke-linejoin: miter"/>
   </g>
   <g id="patch_241">
    <path d="M 797.027813 185.398125 
L 802.259063 185.398125 
L 802.259063 185.398125 
L 797.027813 185.398125 
z
" clip-path="url(#pce41343ae5)" style="fill: #4c72b0; fill-opacity: 0.5; stroke: #4c72b0; stroke-width: 0.5; stroke-linejoin: miter"/>
   </g>
   <g id="patch_242">
    <path d="M 802.259063 185.398125 
L 807.490313 185.398125 
L 807.490313 185.398125 
L 802.259063 185.398125 
z
" clip-path="url(#pce41343ae5)" style="fill: #4c72b0; fill-opacity: 0.5; stroke: #4c72b0; stroke-width: 0.5; stroke-linejoin: miter"/>
   </g>
   <g id="patch_243">
    <path d="M 807.490313 185.398125 
L 812.721563 185.398125 
L 812.721563 185.398125 
L 807.490313 185.398125 
z
" clip-path="url(#pce41343ae5)" style="fill: #4c72b0; fill-opacity: 0.5; stroke: #4c72b0; stroke-width: 0.5; stroke-linejoin: miter"/>
   </g>
   <g id="patch_244">
    <path d="M 812.721563 185.398125 
L 817.952813 185.398125 
L 817.952813 185.398125 
L 812.721563 185.398125 
z
" clip-path="url(#pce41343ae5)" style="fill: #4c72b0; fill-opacity: 0.5; stroke: #4c72b0; stroke-width: 0.5; stroke-linejoin: miter"/>
   </g>
   <g id="patch_245">
    <path d="M 817.952813 185.398125 
L 823.184063 185.398125 
L 823.184063 185.398125 
L 817.952813 185.398125 
z
" clip-path="url(#pce41343ae5)" style="fill: #4c72b0; fill-opacity: 0.5; stroke: #4c72b0; stroke-width: 0.5; stroke-linejoin: miter"/>
   </g>
   <g id="patch_246">
    <path d="M 823.184063 185.398125 
L 828.415313 185.398125 
L 828.415313 185.398125 
L 823.184063 185.398125 
z
" clip-path="url(#pce41343ae5)" style="fill: #4c72b0; fill-opacity: 0.5; stroke: #4c72b0; stroke-width: 0.5; stroke-linejoin: miter"/>
   </g>
   <g id="patch_247">
    <path d="M 828.415313 185.398125 
L 833.646563 185.398125 
L 833.646563 185.398125 
L 828.415313 185.398125 
z
" clip-path="url(#pce41343ae5)" style="fill: #4c72b0; fill-opacity: 0.5; stroke: #4c72b0; stroke-width: 0.5; stroke-linejoin: miter"/>
   </g>
   <g id="patch_248">
    <path d="M 833.646563 185.398125 
L 838.877813 185.398125 
L 838.877813 185.398125 
L 833.646563 185.398125 
z
" clip-path="url(#pce41343ae5)" style="fill: #4c72b0; fill-opacity: 0.5; stroke: #4c72b0; stroke-width: 0.5; stroke-linejoin: miter"/>
   </g>
   <g id="patch_249">
    <path d="M 838.877813 185.398125 
L 844.109063 185.398125 
L 844.109063 185.398125 
L 838.877813 185.398125 
z
" clip-path="url(#pce41343ae5)" style="fill: #4c72b0; fill-opacity: 0.5; stroke: #4c72b0; stroke-width: 0.5; stroke-linejoin: miter"/>
   </g>
   <g id="patch_250">
    <path d="M 844.109063 185.398125 
L 849.340313 185.398125 
L 849.340313 185.398125 
L 844.109063 185.398125 
z
" clip-path="url(#pce41343ae5)" style="fill: #4c72b0; fill-opacity: 0.5; stroke: #4c72b0; stroke-width: 0.5; stroke-linejoin: miter"/>
   </g>
   <g id="patch_251">
    <path d="M 849.340313 185.398125 
L 854.571563 185.398125 
L 854.571563 185.398125 
L 849.340313 185.398125 
z
" clip-path="url(#pce41343ae5)" style="fill: #4c72b0; fill-opacity: 0.5; stroke: #4c72b0; stroke-width: 0.5; stroke-linejoin: miter"/>
   </g>
   <g id="patch_252">
    <path d="M 854.571563 185.398125 
L 859.802813 185.398125 
L 859.802813 185.398125 
L 854.571563 185.398125 
z
" clip-path="url(#pce41343ae5)" style="fill: #4c72b0; fill-opacity: 0.5; stroke: #4c72b0; stroke-width: 0.5; stroke-linejoin: miter"/>
   </g>
   <g id="patch_253">
    <path d="M 859.802813 185.398125 
L 865.034063 185.398125 
L 865.034063 185.398125 
L 859.802813 185.398125 
z
" clip-path="url(#pce41343ae5)" style="fill: #4c72b0; fill-opacity: 0.5; stroke: #4c72b0; stroke-width: 0.5; stroke-linejoin: miter"/>
   </g>
   <g id="patch_254">
    <path d="M 865.034063 185.398125 
L 870.265313 185.398125 
L 870.265313 185.398125 
L 865.034063 185.398125 
z
" clip-path="url(#pce41343ae5)" style="fill: #4c72b0; fill-opacity: 0.5; stroke: #4c72b0; stroke-width: 0.5; stroke-linejoin: miter"/>
   </g>
   <g id="patch_255">
    <path d="M 870.265313 185.398125 
L 875.496563 185.398125 
L 875.496563 185.398125 
L 870.265313 185.398125 
z
" clip-path="url(#pce41343ae5)" style="fill: #4c72b0; fill-opacity: 0.5; stroke: #4c72b0; stroke-width: 0.5; stroke-linejoin: miter"/>
   </g>
   <g id="patch_256">
    <path d="M 875.496563 185.398125 
L 880.727813 185.398125 
L 880.727813 185.398125 
L 875.496563 185.398125 
z
" clip-path="url(#pce41343ae5)" style="fill: #4c72b0; fill-opacity: 0.5; stroke: #4c72b0; stroke-width: 0.5; stroke-linejoin: miter"/>
   </g>
   <g id="patch_257">
    <path d="M 880.727813 185.398125 
L 885.959063 185.398125 
L 885.959063 185.398125 
L 880.727813 185.398125 
z
" clip-path="url(#pce41343ae5)" style="fill: #4c72b0; fill-opacity: 0.5; stroke: #4c72b0; stroke-width: 0.5; stroke-linejoin: miter"/>
   </g>
   <g id="patch_258">
    <path d="M 885.959063 185.398125 
L 891.190313 185.398125 
L 891.190313 185.398125 
L 885.959063 185.398125 
z
" clip-path="url(#pce41343ae5)" style="fill: #4c72b0; fill-opacity: 0.5; stroke: #4c72b0; stroke-width: 0.5; stroke-linejoin: miter"/>
   </g>
   <g id="patch_259">
    <path d="M 56.805937 185.398125 
L 56.805937 22.318125 
" style="fill: none; stroke: #ffffff; stroke-width: 1.25; stroke-linejoin: miter; stroke-linecap: square"/>
   </g>
   <g id="patch_260">
    <path d="M 391.605938 185.398125 
L 391.605938 22.318125 
" style="fill: none; stroke: #ffffff; stroke-width: 1.25; stroke-linejoin: miter; stroke-linecap: square"/>
   </g>
   <g id="patch_261">
    <path d="M 56.805937 185.398125 
L 391.605938 185.398125 
" style="fill: none; stroke: #ffffff; stroke-width: 1.25; stroke-linejoin: miter; stroke-linecap: square"/>
   </g>
   <g id="patch_262">
    <path d="M 56.805937 22.318125 
L 391.605938 22.318125 
" style="fill: none; stroke: #ffffff; stroke-width: 1.25; stroke-linejoin: miter; stroke-linecap: square"/>
   </g>
   <g id="text_17">
    <!-- Discrete logistic distribution -->
    <g style="fill: #262626" transform="translate(140.16375 16.318125)scale(0.12 -0.12)">
     <defs>
      <path id="DejaVuSans-44" d="M 1259 4147 
L 1259 519 
L 2022 519 
Q 2988 519 3436 956 
Q 3884 1394 3884 2338 
Q 3884 3275 3436 3711 
Q 2988 4147 2022 4147 
L 1259 4147 
z
M 628 4666 
L 1925 4666 
Q 3281 4666 3915 4102 
Q 4550 3538 4550 2338 
Q 4550 1131 3912 565 
Q 3275 0 1925 0 
L 628 0 
L 628 4666 
z
" transform="scale(0.015625)"/>
      <path id="DejaVuSans-73" d="M 2834 3397 
L 2834 2853 
Q 2591 2978 2328 3040 
Q 2066 3103 1784 3103 
Q 1356 3103 1142 2972 
Q 928 2841 928 2578 
Q 928 2378 1081 2264 
Q 1234 2150 1697 2047 
L 1894 2003 
Q 2506 1872 2764 1633 
Q 3022 1394 3022 966 
Q 3022 478 2636 193 
Q 2250 -91 1575 -91 
Q 1294 -91 989 -36 
Q 684 19 347 128 
L 347 722 
Q 666 556 975 473 
Q 1284 391 1588 391 
Q 1994 391 2212 530 
Q 2431 669 2431 922 
Q 2431 1156 2273 1281 
Q 2116 1406 1581 1522 
L 1381 1569 
Q 847 1681 609 1914 
Q 372 2147 372 2553 
Q 372 3047 722 3315 
Q 1072 3584 1716 3584 
Q 2034 3584 2315 3537 
Q 2597 3491 2834 3397 
z
" transform="scale(0.015625)"/>
      <path id="DejaVuSans-63" d="M 3122 3366 
L 3122 2828 
Q 2878 2963 2633 3030 
Q 2388 3097 2138 3097 
Q 1578 3097 1268 2742 
Q 959 2388 959 1747 
Q 959 1106 1268 751 
Q 1578 397 2138 397 
Q 2388 397 2633 464 
Q 2878 531 3122 666 
L 3122 134 
Q 2881 22 2623 -34 
Q 2366 -91 2075 -91 
Q 1284 -91 818 406 
Q 353 903 353 1747 
Q 353 2603 823 3093 
Q 1294 3584 2113 3584 
Q 2378 3584 2631 3529 
Q 2884 3475 3122 3366 
z
" transform="scale(0.015625)"/>
      <path id="DejaVuSans-67" d="M 2906 1791 
Q 2906 2416 2648 2759 
Q 2391 3103 1925 3103 
Q 1463 3103 1205 2759 
Q 947 2416 947 1791 
Q 947 1169 1205 825 
Q 1463 481 1925 481 
Q 2391 481 2648 825 
Q 2906 1169 2906 1791 
z
M 3481 434 
Q 3481 -459 3084 -895 
Q 2688 -1331 1869 -1331 
Q 1566 -1331 1297 -1286 
Q 1028 -1241 775 -1147 
L 775 -588 
Q 1028 -725 1275 -790 
Q 1522 -856 1778 -856 
Q 2344 -856 2625 -561 
Q 2906 -266 2906 331 
L 2906 616 
Q 2728 306 2450 153 
Q 2172 0 1784 0 
Q 1141 0 747 490 
Q 353 981 353 1791 
Q 353 2603 747 3093 
Q 1141 3584 1784 3584 
Q 2172 3584 2450 3431 
Q 2728 3278 2906 2969 
L 2906 3500 
L 3481 3500 
L 3481 434 
z
" transform="scale(0.015625)"/>
      <path id="DejaVuSans-64" d="M 2906 2969 
L 2906 4863 
L 3481 4863 
L 3481 0 
L 2906 0 
L 2906 525 
Q 2725 213 2448 61 
Q 2172 -91 1784 -91 
Q 1150 -91 751 415 
Q 353 922 353 1747 
Q 353 2572 751 3078 
Q 1150 3584 1784 3584 
Q 2172 3584 2448 3432 
Q 2725 3281 2906 2969 
z
M 947 1747 
Q 947 1113 1208 752 
Q 1469 391 1925 391 
Q 2381 391 2643 752 
Q 2906 1113 2906 1747 
Q 2906 2381 2643 2742 
Q 2381 3103 1925 3103 
Q 1469 3103 1208 2742 
Q 947 2381 947 1747 
z
" transform="scale(0.015625)"/>
      <path id="DejaVuSans-6e" d="M 3513 2113 
L 3513 0 
L 2938 0 
L 2938 2094 
Q 2938 2591 2744 2837 
Q 2550 3084 2163 3084 
Q 1697 3084 1428 2787 
Q 1159 2491 1159 1978 
L 1159 0 
L 581 0 
L 581 3500 
L 1159 3500 
L 1159 2956 
Q 1366 3272 1645 3428 
Q 1925 3584 2291 3584 
Q 2894 3584 3203 3211 
Q 3513 2838 3513 2113 
z
" transform="scale(0.015625)"/>
     </defs>
     <use xlink:href="#DejaVuSans-44"/>
     <use xlink:href="#DejaVuSans-69" x="77.001953"/>
     <use xlink:href="#DejaVuSans-73" x="104.785156"/>
     <use xlink:href="#DejaVuSans-63" x="156.884766"/>
     <use xlink:href="#DejaVuSans-72" x="211.865234"/>
     <use xlink:href="#DejaVuSans-65" x="250.728516"/>
     <use xlink:href="#DejaVuSans-74" x="312.251953"/>
     <use xlink:href="#DejaVuSans-65" x="351.460938"/>
     <use xlink:href="#DejaVuSans-20" x="412.984375"/>
     <use xlink:href="#DejaVuSans-6c" x="444.771484"/>
     <use xlink:href="#DejaVuSans-6f" x="472.554688"/>
     <use xlink:href="#DejaVuSans-67" x="533.736328"/>
     <use xlink:href="#DejaVuSans-69" x="597.212891"/>
     <use xlink:href="#DejaVuSans-73" x="624.996094"/>
     <use xlink:href="#DejaVuSans-74" x="677.095703"/>
     <use xlink:href="#DejaVuSans-69" x="716.304688"/>
     <use xlink:href="#DejaVuSans-63" x="744.087891"/>
     <use xlink:href="#DejaVuSans-20" x="799.068359"/>
     <use xlink:href="#DejaVuSans-64" x="830.855469"/>
     <use xlink:href="#DejaVuSans-69" x="894.332031"/>
     <use xlink:href="#DejaVuSans-73" x="922.115234"/>
     <use xlink:href="#DejaVuSans-74" x="974.214844"/>
     <use xlink:href="#DejaVuSans-72" x="1013.423828"/>
     <use xlink:href="#DejaVuSans-69" x="1054.537109"/>
     <use xlink:href="#DejaVuSans-62" x="1082.320312"/>
     <use xlink:href="#DejaVuSans-75" x="1145.796875"/>
     <use xlink:href="#DejaVuSans-74" x="1209.175781"/>
     <use xlink:href="#DejaVuSans-69" x="1248.384766"/>
     <use xlink:href="#DejaVuSans-6f" x="1276.167969"/>
     <use xlink:href="#DejaVuSans-6e" x="1337.349609"/>
    </g>
   </g>
  </g>
 </g>
 <defs>
  <clipPath id="pce41343ae5">
   <rect x="56.805937" y="22.318125" width="334.8" height="163.08"/>
  </clipPath>
 </defs>
</svg>
