<svg xmlns="http://www.w3.org/2000/svg" xmlns:xlink="http://www.w3.org/1999/xlink" width="325.057" height="240.121" viewBox="0 0 243.793 180.091" xmlns:v="https://vecta.io/nano"><style><![CDATA[.B{stroke:none}.C{fill:rgb(0%,0%,0%)}.D{fill-opacity:1}.E{fill-rule:nonzero}.F{stroke-width:.401}.G{stroke-miterlimit:2}.H{fill-rule:evenodd}.I{stroke:rgb(0%,0%,0%)}.J{overflow:visible}.K{fill:none}.L{fill:rgb(100%,100%,100%)}.M{fill:rgb(100%,0%,0%)}.N{fill:rgb(0%,69.020081%,31.37207%)}.O{stroke:rgb(100%,0%,0%)}.P{stroke-width:.1}.Q{stroke:rgb(0%,69.020081%,31.37207%)}.R{fill:rgb(61.961365%,36.862183%,60.784912%)}.S{stroke:rgb(61.961365%,36.862183%,60.784912%)}.T{fill:rgb(100%,75.294495%,0%)}.U{stroke:rgb(100%,75.294495%,0%)}.V{fill:rgb(95.294189%,63.137817%,43.528748%)}]]></style><defs><symbol id="A" class="J"><path d="M1.703-1.562l.438.844c.156.293.281.477.375.547.039.043.109.07.203.078V0H1.281v-.094c.113-.008.18-.023.203-.047.031-.02.047-.047.047-.078 0-.051-.027-.133-.078-.25l-.234-.406-.187.266c-.086.125-.133.203-.141.234s-.016.063-.016.094c0 .043.004.078.016.109.02.023.047.043.078.063a.5.5 0 0 0 .156.016V0h-1v-.094a.66.66 0 0 0 .344-.094c.102-.07.254-.254.453-.547l.203-.312-.437-.828C.539-2.133.43-2.297.359-2.359.297-2.422.219-2.453.125-2.453v-.109h1.422v.109h-.078l-.141.047c-.012.012-.016.031-.016.063s.004.059.016.078c0 .023.023.074.078.156l.188.375.109-.156c.145-.195.219-.336.219-.422 0-.031-.016-.062-.047-.094s-.09-.047-.172-.047v-.109h.906v.109c-.117 0-.219.031-.312.094s-.203.188-.328.375zm0 0" class="B"/></symbol><symbol id="B" class="J"><path d="M.125-1.203c0-.27.039-.504.125-.703s.195-.348.344-.453a.57.57 0 0 1 .328-.109c.188 0 .352.094.5.281.188.242.281.559.281.953 0 .281-.043.523-.125.719s-.187.344-.312.438C1.141.004 1.02.047.906.047.676.047.484-.086.328-.359.191-.586.125-.867.125-1.203zm.359.047c0 .336.039.609.125.828.063.18.16.266.297.266.063 0 .129-.031.203-.094a.55.55 0 0 0 .156-.297c.051-.195.078-.484.078-.859 0-.27-.027-.5-.078-.687a.67.67 0 0 0-.172-.297.29.29 0 0 0-.172-.062c-.086 0-.156.039-.219.109-.086.105-.141.266-.172.484a4.16 4.16 0 0 0-.047.609zm0 0" class="B"/></symbol><symbol id="C" class="J"><path d="M.422-2.187l.594-.281h.063v2.047c0 .137.004.219.016.25s.031.059.063.078c.039.023.113.031.219.031V0H.469v-.062c.113 0 .188-.008.219-.031.039-.02.066-.039.078-.062.008-.031.016-.117.016-.266v-1.312l-.016-.344a.26.26 0 0 0-.047-.078c-.023-.02-.047-.031-.078-.031-.043 0-.105.023-.187.063zm0 0" class="B"/></symbol><symbol id="D" class="J"><path d="M1.672-.469L1.5 0H.078v-.062C.492-.445.785-.758.953-1c.176-.25.266-.473.266-.672 0-.156-.047-.281-.141-.375-.094-.102-.203-.156-.328-.156s-.234.039-.328.109a.61.61 0 0 0-.203.313H.141c.031-.227.109-.398.234-.516s.281-.172.469-.172a.66.66 0 0 1 .484.188c.133.125.203.277.203.453 0 .117-.031.234-.094.359-.086.199-.227.402-.422.609l-.562.594h.641c.125 0 .211-.004.266-.016s.098-.031.141-.062.078-.07.109-.125zm0 0" class="B"/></symbol><symbol id="E" class="J"><path d="M.188-1.953c.07-.164.16-.289.266-.375.102-.094.234-.141.391-.141a.54.54 0 0 1 .438.188c.082.094.125.195.125.297 0 .18-.109.359-.328.547.145.063.254.152.328.266.082.105.125.23.125.375 0 .211-.07.391-.203.547-.18.199-.434.297-.766.297C.406.047.297.023.234-.016S.141-.098.141-.141s.016-.07.047-.094c.031-.031.066-.047.109-.047.02 0 .047.008.078.016l.141.078.156.063a.5.5 0 0 0 .141.016c.113 0 .219-.047.313-.141s.141-.207.141-.344a.63.63 0 0 0-.062-.266c-.031-.07-.07-.125-.109-.156a1.31 1.31 0 0 0-.219-.125.63.63 0 0 0-.266-.062H.563v-.047c.094-.008.188-.039.281-.094.094-.062.16-.129.203-.203.039-.082.063-.172.063-.266a.38.38 0 0 0-.125-.297C.91-2.191.816-2.234.703-2.234c-.18 0-.328.102-.453.297zm0 0" class="B"/></symbol><symbol id="F" class="J"><path d="M1.703-.891v.25h-.328V0h-.297v-.641H.063v-.234l1.125-1.594h.188v1.578zm-.625 0v-1.203L.234-.891zm0 0" class="B"/></symbol><symbol id="G" class="J"><path d="M1.391-2.062h1.703l.281-.906c.051-.187.078-.328.078-.422 0-.051-.016-.094-.047-.125-.023-.031-.059-.051-.109-.062-.043-.02-.133-.031-.266-.031l.016-.109h1.5l-.031.109c-.125 0-.219.012-.281.031-.086.043-.148.094-.187.156-.062.086-.125.234-.187.453L3.203-.734c-.055.188-.078.324-.078.406 0 .063.02.117.063.156.051.031.164.059.344.078L3.516 0H2.063l.031-.094c.145-.008.242-.023.297-.047.07-.031.125-.07.156-.125.039-.07.098-.227.172-.469l.328-1.141H1.328L1-.734C.945-.547.922-.41.922-.328c0 .063.02.117.063.156.051.031.164.059.344.078L1.313 0H-.141l.031-.094c.145-.008.238-.023.281-.047.07-.031.129-.07.172-.125.039-.07.098-.227.172-.469l.656-2.234c.051-.187.078-.328.078-.422 0-.051-.012-.094-.031-.125s-.059-.051-.109-.062a.92.92 0 0 0-.281-.031l.031-.109h1.469l-.031.109c-.125 0-.219.012-.281.031-.086.043-.148.094-.187.156-.055.074-.109.227-.172.453zm0 0" class="B"/></symbol><symbol id="H" class="J"><path d="M1.531-2.469l-.578 2a1.12 1.12 0 0 0-.047.25c0 .055.016.09.047.109s.098.039.203.047L1.141 0H.219L.25-.062c.094 0 .156-.008.188-.031a.24.24 0 0 0 .109-.078.97.97 0 0 0 .125-.297l.422-1.437.031-.156c.008-.02.016-.039.016-.062 0-.039-.016-.07-.047-.094-.023-.031-.055-.047-.094-.047-.031 0-.078.012-.141.031l-.016-.062.594-.172zm0 0" class="B"/></symbol><symbol id="I" class="J"><path d="M1.266 0H.063v-.062c.613-.539 1.02-.961 1.219-1.266a.91.91 0 0 0 .125-.453c0-.125-.039-.223-.109-.297A.38.38 0 0 0 1-2.203c-.168 0-.305.086-.406.25l-.062-.031a.69.69 0 0 1 .25-.359.7.7 0 0 1 .391-.125.54.54 0 0 1 .391.156c.102.105.156.23.156.375a.68.68 0 0 1-.062.297c-.055.137-.156.293-.312.469-.23.262-.543.563-.937.906h.609c.094 0 .172-.016.234-.047.063-.039.109-.098.141-.172h.078zm0 0" class="B"/></symbol><symbol id="J" class="J"><path d="M.563-1.328v-.047c.281-.039.492-.125.641-.25.102-.094.156-.203.156-.328 0-.094-.031-.172-.094-.234s-.137-.094-.219-.094c-.125 0-.242.086-.344.25l-.078-.016c.063-.145.141-.25.234-.312a.57.57 0 0 1 .328-.109c.133 0 .242.043.328.125.094.086.141.188.141.313 0 .117-.043.227-.125.328-.086.094-.227.184-.422.266.125.055.219.125.281.219s.094.211.094.344c0 .148-.043.297-.125.453A.87.87 0 0 1 1-.078C.852.004.703.047.547.047S.273.02.203-.031C.148-.07.125-.113.125-.156s.016-.078.047-.109.066-.047.109-.047c.031 0 .063.008.094.016.02 0 .066.023.141.063a1.68 1.68 0 0 0 .172.094.44.44 0 0 0 .125.016c.102 0 .191-.062.266-.187s.109-.254.109-.391A.57.57 0 0 0 1.109-1c-.043-.094-.117-.164-.219-.219-.105-.062-.215-.098-.328-.109zm0 0" class="B"/></symbol><symbol id="K" class="J"><path d="M1.781-2.422L1.313-.828h.297l-.062.219H1.25l-.187.656H.797l.188-.656H.109l.078-.25 1.453-1.562zm-.391.469L.344-.828h.719zm0 0" class="B"/></symbol><clipPath id="L"><path d="M.977 3H2v5H.977zm0 0"/></clipPath><clipPath id="M"><path d="M2 4h2v4H2zm0 0"/></clipPath><clipPath id="N"><path d="M10.148.113L1.004 4.281.977 8.938l9.148-4.168zm0 0"/></clipPath><clipPath id="O"><path d="M4 3h3v5H4zm0 0"/></clipPath><clipPath id="P"><path d="M10.148.113L1.004 4.281.977 8.938l9.148-4.168zm0 0"/></clipPath><clipPath id="Q"><path d="M6 1h3v4H6zm0 0"/></clipPath><clipPath id="R"><path d="M10.148.113L1.004 4.281.977 8.938l9.148-4.168zm0 0"/></clipPath><clipPath id="S"><path d="M8 .145h2.148V4H8zm0 0"/></clipPath><clipPath id="T"><path d="M10.148.113L1.004 4.281.977 8.938l9.148-4.168zm0 0"/></clipPath><clipPath id="U"><path d="M0 0h11v9H0z"/></clipPath><g id="V" clip-path="url(#U)"><g clip-path="url(#L)"><path d="M1.004 4.281v.387l.266-.121-.016 2.738-.266.121v.379l.891-.406.004-.383-.27.125.012-2.738.27-.125.004-.383zm0 0" class="B C D E"/></g><g clip-path="url(#M)"><g clip-path="url(#N)"><path d="M3.516 4.109c-.027.004-.055.012-.082.02l-.121.043c-.281.129-.5.387-.652.77l-.012.004.004-.418-.348.164-.016 2.5.352-.16.008-1.426a1.28 1.28 0 0 1 .152-.617c.102-.191.23-.32.383-.391l.078-.031.051-.012c.211-.027.316.172.313.605l-.004 1.426.348-.156.008-1.535c0-.336-.055-.566-.164-.684-.074-.086-.172-.117-.297-.102" class="B C D E"/></g></g><g clip-path="url(#O)"><g clip-path="url(#P)"><path d="M5.836 3.055c-.031.004-.059.012-.09.02-.043.012-.086.031-.133.051-.301.137-.527.406-.687.801l-.004.004V3.5l-.352.156-.02 3.652.219-.102.137-.062.004-1.5.008-.004c.102.156.234.223.402.199a.76.76 0 0 0 .078-.02c.035-.008.07-.023.105-.039.281-.125.5-.355.664-.68s.254-.695.254-1.113c0-.379-.07-.641-.211-.805-.102-.105-.227-.148-.375-.129m-.52 2.43c-.094.012-.18-.012-.246-.074-.105-.094-.16-.238-.156-.445v-.332a1.4 1.4 0 0 1 .172-.676.96.96 0 0 1 .43-.426l.082-.027a.41.41 0 0 1 .066-.016c.102-.012.184.016.25.094.098.105.148.293.148.562-.004.32-.059.598-.164.824s-.254.383-.441.469l-.078.031c-.023.008-.043.012-.062.016" class="B C D E"/></g></g><g clip-path="url(#Q)"><g clip-path="url(#R)"><path d="M8.563 1.84L8.207 2l-.008 1.441c0 .215-.047.418-.141.598-.094.188-.223.32-.375.387l-.082.031c-.02.008-.035.008-.055.012-.219.031-.328-.168-.324-.598l.008-1.426-.352.16-.004 1.492c-.004.59.156.855.473.813a.8.8 0 0 0 .094-.02c.043-.012.086-.027.133-.051.277-.125.48-.371.617-.734h.008l-.008.395.355-.16.016-2.5" class="B C D E"/></g></g><g clip-path="url(#S)"><g clip-path="url(#T)"><path d="M9.652.602l-.348.301-.004.602-.344.152v.367l.34-.156-.004 1.445c-.004.406.113.59.352.559.023-.004.047-.008.07-.016l.102-.039a.93.93 0 0 0 .313-.223v-.371c-.051.086-.125.141-.203.176l-.062.027c-.012.004-.027.004-.035.008-.055.008-.094-.008-.121-.039-.047-.051-.066-.156-.066-.32l.004-1.363.496-.23v-.359l-.492.223.004-.742" class="B C D E"/></g></g></g><clipPath id="W"><path d="M.348 1H34v22.73H.348zm0 0"/></clipPath><clipPath id="X"><path d="M.348.586h33.785V23.73H.348zm0 0"/></clipPath><clipPath id="Y"><path d="M0 0h35v25H0z"/></clipPath><g id="Z" clip-path="url(#Y)"><g clip-path="url(#W)"><path d="M.668 16.188l-.035 7.059L33.816 8.129l.035-7.059zm0 0" class="B D E L"/></g><g clip-path="url(#X)"><path d="M.387 15.961l-.039 7.77 33.75-15.375.035-7.77zm.281.227L33.852 1.07l-.035 7.059L.633 23.246zm0 0" class="B C D E"/></g></g><clipPath id="a"><path d="M.508 11H3v4.504H.508zm0 0"/></clipPath><clipPath id="b"><path d="M26.598.004L.531 11.887.508 15.504l26.07-11.883zm0 0"/></clipPath><clipPath id="c"><path d="M2 9h4v6H2zm0 0"/></clipPath><clipPath id="d"><path d="M26.598.004L.531 11.887.508 15.504l26.07-11.883zm0 0"/></clipPath><clipPath id="e"><path d="M5 11h2v1H5zm0 0"/></clipPath><clipPath id="f"><path d="M26.598.004L.531 11.887.508 15.504l26.07-11.883zm0 0"/></clipPath><clipPath id="g"><path d="M7 8h3v5H7zm0 0"/></clipPath><clipPath id="h"><path d="M26.598.004L.531 11.887.508 15.504l26.07-11.883zm0 0"/></clipPath><clipPath id="i"><path d="M9 8h3v4H9zm0 0"/></clipPath><clipPath id="j"><path d="M26.598.004L.531 11.887.508 15.504l26.07-11.883zm0 0"/></clipPath><clipPath id="k"><path d="M11 6h3v5h-3zm0 0"/></clipPath><clipPath id="l"><path d="M26.598.004L.531 11.887.508 15.504l26.07-11.883zm0 0"/></clipPath><clipPath id="m"><path d="M13 5h3v5h-3zm0 0"/></clipPath><clipPath id="n"><path d="M26.598.004L.531 11.887.508 15.504l26.07-11.883zm0 0"/></clipPath><clipPath id="o"><path d="M16 6h2v2h-2zm0 0"/></clipPath><clipPath id="p"><path d="M26.598.004L.531 11.887.508 15.504l26.07-11.883zm0 0"/></clipPath><clipPath id="q"><path d="M17 3h3v5h-3zm0 0"/></clipPath><clipPath id="r"><path d="M26.598.004L.531 11.887.508 15.504l26.07-11.883zm0 0"/></clipPath><clipPath id="s"><path d="M20 3h3v4h-3zm0 0"/></clipPath><clipPath id="t"><path d="M26.598.004L.531 11.887.508 15.504l26.07-11.883zm0 0"/></clipPath><clipPath id="u"><path d="M22 2h3v4h-3zm0 0"/></clipPath><clipPath id="v"><path d="M26.598.004L.531 11.887.508 15.504l26.07-11.883zm0 0"/></clipPath><clipPath id="w"><path d="M24 1h2.598v4H24zm0 0"/></clipPath><clipPath id="x"><path d="M26.598.004L.531 11.887.508 15.504l26.07-11.883zm0 0"/></clipPath><clipPath id="y"><path d="M0 0h28v17H0z"/></clipPath><g id="z" clip-path="url(#y)"><g clip-path="url(#a)"><g clip-path="url(#b)"><path d="M1.625 11.48l-.117.027c-.051.016-.105.039-.164.063l-.816.371-.008 1.754-.012 1.754.84-.387a1.49 1.49 0 0 0 .66-.578 1.54 1.54 0 0 0 .262-.852c0-.23-.055-.398-.164-.504-.09-.078-.199-.109-.332-.09-.031.004-.062.012-.098.023l-.023.004v-.008a1.45 1.45 0 0 0 .359-.477c.086-.187.129-.375.129-.57 0-.242-.066-.406-.211-.484-.086-.047-.187-.062-.305-.047m-.75 1.797l.012-1.102.355-.164c.051-.02.102-.043.141-.051s.063-.016.094-.02c.191-.027.293.082.289.332a.91.91 0 0 1-.152.504c-.098.152-.234.27-.406.352l-.332.148m-.008 1.609l.008-1.219.375-.176c.063-.027.121-.047.176-.066a.61.61 0 0 1 .109-.023c.238-.035.359.102.359.398a.92.92 0 0 1-.16.523c-.098.156-.242.277-.434.367l-.434.195" class="B C D E"/></g></g><g clip-path="url(#c)"><g clip-path="url(#d)"><path d="M5.109 9.859l-.359.16-.012 2.406.02.504-.008.004c-.012-.027-.051-.094-.117-.191l-1.344-2.055-.453.207-.02 3.5.355-.16.012-2.461-.008-.484.008-.008a.84.84 0 0 0 .094.188l1.387 2.086.426-.191.02-3.504" class="B C D E"/></g></g><g clip-path="url(#e)"><g clip-path="url(#f)"><path d="M6.797 11.027l-1.059.48-.004.34 1.063-.48zm0 0" class="B C D E"/></g></g><g clip-path="url(#g)"><g clip-path="url(#h)"><path d="M8.574 8.316l-.125.027a1.35 1.35 0 0 0-.18.074l-.852.387-.016 3.5.359-.164.008-1.473.258-.121.07-.023.059-.012c.051-.008.102 0 .145.02.078.035.16.129.25.281l.461.762.422-.195-.516-.812a1.28 1.28 0 0 0-.215-.285c-.055-.051-.121-.082-.199-.082v-.016c.414-.328.621-.738.625-1.227.004-.293-.074-.488-.227-.586-.086-.055-.199-.07-.328-.055m-.801 1.957V9.039l.434-.203.125-.043.082-.02c.078-.012.145 0 .199.039.094.059.141.176.141.359-.004.191-.055.379-.16.543a.91.91 0 0 1-.398.363l-.422.195" class="B C D E"/></g></g><g clip-path="url(#i)"><g clip-path="url(#j)"><path d="M10.688 8.285l-.102.023c-.039.012-.086.031-.133.051-.262.121-.484.348-.66.676a2.21 2.21 0 0 0-.273 1.066c-.004.41.078.688.242.844a.45.45 0 0 0 .398.121c.039-.004.078-.012.117-.027.035-.008.07-.02.105-.035l.105-.047c.262-.129.477-.305.637-.523l.004-.398c-.184.266-.395.449-.613.551l-.117.047c-.027.008-.051.012-.078.016-.109.016-.195-.008-.266-.07-.109-.094-.164-.273-.176-.535l1.395-.637v-.223c0-.379-.07-.641-.215-.781-.098-.102-.219-.137-.371-.117m-.805 1.398c.031-.223.094-.422.195-.598.105-.184.23-.301.367-.363l.082-.031c.02-.004.039-.012.059-.012.086-.012.156.008.211.066.086.082.125.242.125.465l-1.039.473" class="B C D E"/></g></g><g clip-path="url(#k)"><g clip-path="url(#l)"><path d="M12.16 6.641l-.363.168-.016 3.5 1.469-.668.004-.398-1.109.504zm0 0" class="B C D E"/></g></g><g clip-path="url(#m)"><g clip-path="url(#n)"><path d="M15.695 5.031l-.359.16-.012 2.145c-.004.68-.23 1.121-.684 1.324-.043.023-.09.039-.129.051l-.09.02c-.316.047-.477-.219-.473-.801l.012-2.105-.363.164-.012 2.129c0 .777.223 1.133.68 1.07a.91.91 0 0 0 .141-.031 1.23 1.23 0 0 0 .176-.066l.016-.004.063-.031c.676-.328 1.02-.98 1.027-1.949l.008-2.074" class="B C D E"/></g></g><g clip-path="url(#o)"><g clip-path="url(#p)"><path d="M17.348 6.219l-1.055.48-.004.34 1.059-.48zm0 0" class="B C D E"/></g></g><g clip-path="url(#q)"><g clip-path="url(#r)"><path d="M19.703 3.215a1.24 1.24 0 0 0-.187.039 2.11 2.11 0 0 0-.297.117c-.41.188-.758.516-1.023.98-.273.465-.406.977-.41 1.543-.004.523.117.887.352 1.105.156.133.348.188.578.156a1.32 1.32 0 0 0 .16-.035l.168-.062.063-.031.047-.02c.277-.133.516-.309.707-.523l.004-.434a2.05 2.05 0 0 1-.719.559 1.22 1.22 0 0 1-.16.063.69.69 0 0 1-.117.023c-.172.027-.316-.02-.437-.129-.18-.164-.27-.457-.27-.871.004-.441.102-.836.301-1.187a1.66 1.66 0 0 1 .762-.734.98.98 0 0 1 .184-.07 1.23 1.23 0 0 1 .164-.035.72.72 0 0 1 .305.016l.004-.477c-.055-.004-.113 0-.176.008" class="B C D E"/></g></g><g clip-path="url(#s)"><g clip-path="url(#t)"><path d="M21.559 3.34l-.121.027c-.051.016-.105.035-.164.063a1.67 1.67 0 0 0-.75.695c-.184.324-.277.691-.277 1.105 0 .387.086.656.262.809.117.102.262.141.43.117l.113-.027c.055-.016.109-.035.168-.062.301-.137.543-.367.727-.695.184-.32.273-.684.277-1.082s-.082-.68-.246-.836c-.113-.094-.254-.137-.418-.113m-.496 2.406a.32.32 0 0 1-.289-.09c-.113-.117-.172-.312-.172-.605s.059-.555.176-.777.277-.379.473-.465c.035-.02.074-.031.109-.043.023-.008.047-.012.074-.016.113-.016.207.012.277.094.102.109.152.32.152.625a1.71 1.71 0 0 1-.16.77c-.109.207-.262.363-.465.457-.031.016-.062.027-.098.035-.027.008-.055.012-.078.016" class="B C D E"/></g></g><g clip-path="url(#u)"><g clip-path="url(#v)"><path d="M23.934 2.246c-.027.004-.055.012-.082.02-.035.008-.074.023-.113.039-.285.129-.504.391-.652.773l-.012.004v-.414l-.348.16-.016 2.504.355-.164.008-1.426a1.26 1.26 0 0 1 .152-.621c.098-.187.227-.312.379-.383l.078-.035.051-.012c.215-.027.316.176.313.609l-.004 1.422.352-.16.008-1.527c0-.34-.055-.566-.168-.687-.078-.086-.18-.117-.301-.102" class="B C D E"/></g></g><g clip-path="url(#w)"><g clip-path="url(#x)"><path d="M26.594 1.063l-.367.172-.52 2.027a2.73 2.73 0 0 0-.066.379l-.004.004c-.012-.098-.035-.203-.07-.332L25.09 1.75l-.387.176.734 2.164.355-.168.801-2.848v-.012" class="B C D E"/></g></g></g><clipPath id="AA"><path d="M.527 1h33.789v23H.527zm0 0"/></clipPath><clipPath id="AB"><path d="M34.316.953L.566 16.332l-.039 7.77L34.281 8.723zm0 0"/></clipPath><clipPath id="AC"><path d="M.527.953h33.789v23.148H.527zm0 0"/></clipPath><clipPath id="AD"><path d="M34.316.953L.566 16.332l-.039 7.77L34.281 8.723zm0 0"/></clipPath><clipPath id="AE"><path d="M0 0h36v25H0z"/></clipPath><g id="AF" clip-path="url(#AE)"><g clip-path="url(#AA)"><g clip-path="url(#AB)"><path d="M34.031 1.441L.848 16.559.813 23.613 33.996 8.496zm0 0" class="B D E L"/></g></g><g clip-path="url(#AC)"><g clip-path="url(#AD)"><path d="M34.316.953L.566 16.332l-.039 7.77L34.281 8.723l.035-7.77M.813 23.613l.035-7.055L34.031 1.441l-.035 7.055zm0 0" class="B C D E"/></g></g></g><clipPath id="AG"><path d="M.688 10H3v4.871H.688zm0 0"/></clipPath><clipPath id="AH"><path d="M26.777-.625L.707 11.254l-.02 3.617 26.07-11.879zm0 0"/></clipPath><clipPath id="AI"><path d="M2 9h4v5H2zm0 0"/></clipPath><clipPath id="AJ"><path d="M26.777-.625L.707 11.254l-.02 3.617 26.07-11.879zm0 0"/></clipPath><clipPath id="AK"><path d="M5 10h2v2H5zm0 0"/></clipPath><clipPath id="AL"><path d="M26.777-.625L.707 11.254l-.02 3.617 26.07-11.879zm0 0"/></clipPath><clipPath id="AM"><path d="M7 7h3v5H7zm0 0"/></clipPath><clipPath id="AN"><path d="M26.777-.625L.707 11.254l-.02 3.617 26.07-11.879zm0 0"/></clipPath><clipPath id="AO"><path d="M9 7h3v4H9zm0 0"/></clipPath><clipPath id="AP"><path d="M26.777-.625L.707 11.254l-.02 3.617 26.07-11.879zm0 0"/></clipPath><clipPath id="AQ"><path d="M11 6h3v4h-3zm0 0"/></clipPath><clipPath id="AR"><path d="M26.777-.625L.707 11.254l-.02 3.617 26.07-11.879zm0 0"/></clipPath><clipPath id="AS"><path d="M13 4h3v5h-3zm0 0"/></clipPath><clipPath id="AT"><path d="M26.777-.625L.707 11.254l-.02 3.617 26.07-11.879zm0 0"/></clipPath><clipPath id="AU"><path d="M16 5h2v2h-2zm0 0"/></clipPath><clipPath id="AV"><path d="M26.777-.625L.707 11.254l-.02 3.617 26.07-11.879zm0 0"/></clipPath><clipPath id="AW"><path d="M17 2h4v5h-4zm0 0"/></clipPath><clipPath id="AX"><path d="M26.777-.625L.707 11.254l-.02 3.617 26.07-11.879zm0 0"/></clipPath><clipPath id="AY"><path d="M20 2h3v4h-3zm0 0"/></clipPath><clipPath id="AZ"><path d="M26.777-.625L.707 11.254l-.02 3.617 26.07-11.879zm0 0"/></clipPath><clipPath id="Aa"><path d="M22 1h3v4h-3zm0 0"/></clipPath><clipPath id="Ab"><path d="M26.777-.625L.707 11.254l-.02 3.617 26.07-11.879zm0 0"/></clipPath><clipPath id="Ac"><path d="M24 .145h2.777V4H24zm0 0"/></clipPath><clipPath id="Ad"><path d="M26.777-.625L.707 11.254l-.02 3.617 26.07-11.879zm0 0"/></clipPath><clipPath id="Ae"><path d="M0 0h28v16H0z"/></clipPath><g id="Af" clip-path="url(#Ae)"><g clip-path="url(#AG)"><g clip-path="url(#AH)"><path d="M1.805 10.852a.65.65 0 0 0-.113.023c-.055.02-.109.035-.168.066l-.816.371-.008 1.699v.105l-.004.824-.004.875.836-.383c.27-.121.488-.312.66-.578s.262-.547.262-.852c.004-.238-.055-.398-.164-.508-.086-.074-.195-.105-.328-.09-.031.008-.066.012-.102.023l-.023.008v-.012c.152-.129.27-.289.363-.477.086-.187.129-.375.129-.566 0-.242-.07-.406-.215-.488-.086-.047-.187-.062-.305-.043m-.75 1.797l.012-1.102.355-.164a1.13 1.13 0 0 1 .141-.055l.094-.02c.191-.027.293.082.289.332-.004.184-.051.359-.148.508a.95.95 0 0 1-.414.348l-.328.152m-.008 1.613l.008-1.223.375-.176.176-.066c.039-.012.078-.02.109-.023.242-.035.359.098.355.395a.91.91 0 0 1-.156.527c-.098.156-.242.281-.434.367l-.434.199" class="B C D E"/></g></g><g clip-path="url(#AI)"><g clip-path="url(#AJ)"><path d="M5.289 9.227l-.355.16-.012 2.406.016.504-.008.008a1.48 1.48 0 0 0-.117-.195l-1.344-2.055-.453.207-.02 3.504.359-.164.012-2.461-.012-.48.008-.012c.023.066.055.129.098.188l1.383 2.082.426-.187.02-3.504" class="B C D E"/></g></g><g clip-path="url(#AK)"><g clip-path="url(#AL)"><path d="M6.977 10.395l-1.062.484v.34l1.063-.484zm0 0" class="B C D E"/></g></g><g clip-path="url(#AM)"><g clip-path="url(#AN)"><path d="M8.758 7.688c-.043.004-.082.016-.129.027l-.18.07-.852.387-.016 3.5.359-.164.008-1.473.258-.113.07-.027c.02-.008.043-.012.059-.016.055-.008.102 0 .145.02.078.035.16.133.25.285l.461.758.422-.195-.516-.809a1.53 1.53 0 0 0-.211-.289c-.059-.047-.125-.078-.199-.082v-.016c.414-.328.617-.738.621-1.227.004-.293-.074-.484-.227-.582-.086-.055-.195-.074-.324-.055m-.805 1.953V8.41l.434-.203.125-.047c.027-.008.055-.012.082-.016a.28.28 0 0 1 .199.035c.098.055.141.18.141.359a1.04 1.04 0 0 1-.16.547c-.098.164-.238.285-.398.359l-.422.195" class="B C D E"/></g></g><g clip-path="url(#AO)"><g clip-path="url(#AP)"><path d="M10.875 7.656a.51.51 0 0 0-.105.023l-.137.051c-.266.121-.484.348-.66.672a2.21 2.21 0 0 0-.27 1.07c-.004.406.074.688.234.844.109.102.238.141.398.121l.117-.027.113-.039.125-.055c.25-.133.457-.301.613-.512l.004-.398c-.184.266-.391.445-.613.551l-.117.043a.46.46 0 0 1-.078.016c-.105.016-.195-.008-.266-.066-.109-.094-.164-.277-.172-.543l1.391-.633v-.223c0-.375-.066-.641-.215-.781-.094-.094-.219-.133-.363-.113m-.812 1.398c.031-.223.094-.426.195-.602s.23-.301.367-.363l.082-.027c.02-.008.039-.012.059-.016.086-.012.156.012.211.07.086.082.129.238.125.465l-1.039.473" class="B C D E"/></g></g><g clip-path="url(#AQ)"><g clip-path="url(#AR)"><path d="M12.34 6.008l-.363.168-.016 3.5 1.469-.664.004-.402-1.109.504zm0 0" class="B C D E"/></g></g><g clip-path="url(#AS)"><g clip-path="url(#AT)"><path d="M15.875 4.398l-.359.168-.012 2.137c-.004.68-.23 1.125-.684 1.332-.043.02-.086.035-.129.047a.68.68 0 0 1-.086.02c-.32.047-.48-.223-.477-.805l.012-2.105-.363.164-.008 2.129c-.004.777.219 1.137.676 1.07.047-.004.094-.016.141-.031a.7.7 0 0 0 .176-.066l.016-.004.063-.027c.676-.332 1.02-.984 1.027-1.949l.008-2.078" class="B C D E"/></g></g><g clip-path="url(#AU)"><g clip-path="url(#AV)"><path d="M17.527 5.586l-1.055.48-.004.34 1.059-.48zm0 0" class="B C D E"/></g></g><g clip-path="url(#AW)"><g clip-path="url(#AX)"><path d="M19.863 2.586a1.11 1.11 0 0 0-.176.039l-.215.078-.125.059c-.391.195-.715.512-.973.957-.273.465-.406.98-.41 1.547-.004.52.117.887.352 1.098.152.141.348.191.574.16a1.56 1.56 0 0 0 .164-.035l.176-.066.043-.02.051-.023a2.3 2.3 0 0 0 .719-.527v-.434c-.203.25-.445.434-.719.563l-.156.059a1.27 1.27 0 0 1-.117.027c-.172.023-.32-.02-.441-.129-.18-.164-.27-.457-.27-.875a2.42 2.42 0 0 1 .301-1.184c.195-.352.449-.594.758-.738.063-.027.125-.047.184-.066s.105-.027.156-.035c.109-.016.215-.012.316.012l.004-.469c-.062-.008-.125-.004-.195.004" class="B C D E"/></g></g><g clip-path="url(#AY)"><g clip-path="url(#AZ)"><path d="M21.746 2.711c-.039.004-.078.016-.121.027-.055.016-.113.035-.172.063-.309.141-.562.375-.75.695s-.277.695-.277 1.102c-.004.387.082.656.262.809.113.105.254.145.422.121l.121-.027a1 1 0 0 0 .125-.047c.016-.004.027-.012.043-.02.301-.137.547-.367.73-.691s.27-.684.273-1.082c.004-.406-.082-.684-.246-.836-.109-.098-.246-.137-.41-.113m-.504 2.406a.33.33 0 0 1-.289-.094c-.113-.109-.172-.312-.172-.602s.063-.555.18-.777.273-.379.469-.465c.035-.02.074-.031.109-.043l.074-.02c.117-.016.207.016.277.094.102.117.152.324.152.629s-.055.563-.16.766a.96.96 0 0 1-.465.457c-.031.016-.062.027-.098.035-.027.008-.051.016-.078.02" class="B C D E"/></g></g><g clip-path="url(#Aa)"><g clip-path="url(#Ab)"><path d="M24.117 1.613c-.023.004-.051.012-.082.02l-.117.043c-.285.133-.504.387-.652.77l-.012.004v-.41l-.348.156-.012 2.5.352-.16.008-1.422c0-.227.051-.43.152-.617.098-.195.227-.32.379-.395l.078-.027c.02-.008.035-.012.055-.012.211-.031.316.172.313.605l-.004 1.422.348-.16.008-1.527c0-.336-.055-.566-.168-.687-.074-.082-.172-.117-.297-.102" class="B C D E"/></g></g><g clip-path="url(#Ac)"><g clip-path="url(#Ad)"><path d="M26.773.434l-.367.168-.52 2.027c-.031.117-.051.246-.062.375l-.012.008c-.008-.094-.031-.199-.066-.328l-.477-1.562-.387.172.738 2.164.355-.164.797-2.852V.434" class="B C D E"/></g></g></g><clipPath id="Ag"><path d="M1 .453h33.516v23.148H1zm0 0"/></clipPath><clipPath id="Ah"><path d="M34.516.453L.762 15.828.727 23.602l33.75-15.379zm0 0"/></clipPath><clipPath id="Ai"><path d="M.727.453h33.789v23.148H.727zm0 0"/></clipPath><clipPath id="Aj"><path d="M34.516.453L.762 15.828.727 23.602l33.75-15.379zm0 0"/></clipPath><clipPath id="Ak"><path d="M0 0h36v25H0z"/></clipPath><g id="Al" clip-path="url(#Ak)"><g clip-path="url(#Ag)"><g clip-path="url(#Ah)"><path d="M34.227.941L1.043 16.059l-.035 7.055L34.191 7.996zm0 0" class="B D E L"/></g></g><g clip-path="url(#Ai)"><g clip-path="url(#Aj)"><path d="M34.516.453L.762 15.832l-.035 7.77 33.75-15.379.039-7.77M1.008 23.113l.035-7.055L34.227.938l-.035 7.059zm0 0" class="B C D E"/></g></g></g><clipPath id="Am"><path d="M.887 11H3v4.371H.887zm0 0"/></clipPath><clipPath id="An"><path d="M26.977-.129L.906 11.754l-.02 3.617 26.07-11.883zm0 0"/></clipPath><clipPath id="Ao"><path d="M3 9h3v6H3zm0 0"/></clipPath><clipPath id="Ap"><path d="M26.977-.129L.906 11.754l-.02 3.617 26.07-11.883zm0 0"/></clipPath><clipPath id="Aq"><path d="M6 10h2v2H6zm0 0"/></clipPath><clipPath id="Ar"><path d="M26.977-.129L.906 11.754l-.02 3.617 26.07-11.883zm0 0"/></clipPath><clipPath id="As"><path d="M7 8h3v5H7zm0 0"/></clipPath><clipPath id="At"><path d="M26.977-.129L.906 11.754l-.02 3.617 26.07-11.883zm0 0"/></clipPath><clipPath id="Au"><path d="M9 8h3v3H9zm0 0"/></clipPath><clipPath id="Av"><path d="M26.977-.129L.906 11.754l-.02 3.617 26.07-11.883zm0 0"/></clipPath><clipPath id="Aw"><path d="M12 6h2v5h-2zm0 0"/></clipPath><clipPath id="Ax"><path d="M26.977-.129L.906 11.754l-.02 3.617 26.07-11.883zm0 0"/></clipPath><clipPath id="Ay"><path d="M13 4h4v6h-4zm0 0"/></clipPath><clipPath id="Az"><path d="M26.977-.129L.906 11.754l-.02 3.617 26.07-11.883zm0 0"/></clipPath><clipPath id="BA"><path d="M16 6h2v1h-2zm0 0"/></clipPath><clipPath id="BB"><path d="M26.977-.129L.906 11.754l-.02 3.617 26.07-11.883zm0 0"/></clipPath><clipPath id="BC"><path d="M18 3h3v5h-3zm0 0"/></clipPath><clipPath id="BD"><path d="M26.977-.129L.906 11.754l-.02 3.617 26.07-11.883zm0 0"/></clipPath><clipPath id="BE"><path d="M20 3h3v4h-3zm0 0"/></clipPath><clipPath id="BF"><path d="M26.977-.129L.906 11.754l-.02 3.617 26.07-11.883zm0 0"/></clipPath><clipPath id="BG"><path d="M23 2h2v4h-2zm0 0"/></clipPath><clipPath id="BH"><path d="M26.977-.129L.906 11.754l-.02 3.617 26.07-11.883zm0 0"/></clipPath><clipPath id="BI"><path d="M25 .145h1.977V4H25zm0 0"/></clipPath><clipPath id="BJ"><path d="M26.977-.129L.906 11.754l-.02 3.617 26.07-11.883zm0 0"/></clipPath><clipPath id="BK"><path d="M0 0h28v17H0z"/></clipPath><g id="BL" clip-path="url(#BK)"><g clip-path="url(#Am)"><g clip-path="url(#An)"><path d="M2.012 11.352a.69.69 0 0 0-.117.023c-.055.016-.113.039-.176.066l-.812.371-.008 1.75-.012 1.75.84-.383a1.56 1.56 0 0 0 .66-.578c.172-.262.258-.547.262-.848 0-.234-.059-.402-.168-.508-.086-.078-.195-.109-.328-.09-.031.004-.062.012-.098.023l-.027.004v-.008c.152-.129.273-.289.363-.48.086-.184.133-.371.133-.566 0-.242-.07-.406-.215-.484-.086-.047-.184-.059-.297-.043m-.758 1.793l.008-1.102.359-.164.145-.055.082-.02c.195-.027.297.082.297.332-.004.188-.055.359-.148.508-.102.148-.238.27-.414.352l-.328.148m-.008 1.613l.008-1.223.371-.172a1.15 1.15 0 0 1 .18-.066.61.61 0 0 1 .109-.023c.242-.035.359.098.359.395a.95.95 0 0 1-.16.523c-.102.16-.246.281-.434.371l-.434.195" class="B C D E"/></g></g><g clip-path="url(#Ao)"><g clip-path="url(#Ap)"><path d="M5.484 9.73l-.352.156-.016 2.406.016.504-.004.004-.117-.191-1.348-2.051-.453.207-.02 3.496.363-.16.008-2.461-.012-.484.012-.008c.023.066.055.125.094.188l1.387 2.086.426-.191.016-3.5" class="B C D E"/></g></g><g clip-path="url(#Aq)"><g clip-path="url(#Ar)"><path d="M7.176 10.895l-1.059.48-.004.344 1.059-.48zm0 0" class="B C D E"/></g></g><g clip-path="url(#As)"><g clip-path="url(#At)"><path d="M8.961 8.188c-.039.004-.086.016-.129.027l-.184.07-.852.387-.016 3.5.359-.164.008-1.473.258-.117.07-.027.059-.012c.055-.008.102 0 .145.02.078.035.16.129.25.285l.457.758.426-.195-.516-.809c-.086-.145-.16-.238-.215-.289a.33.33 0 0 0-.199-.086v-.012c.414-.328.621-.738.625-1.23 0-.289-.074-.48-.227-.582-.086-.051-.191-.07-.32-.051m-.812 1.953l.004-1.234.434-.203.121-.043.086-.02a.28.28 0 0 1 .199.035c.094.063.141.18.141.359a1.03 1.03 0 0 1-.16.547.91.91 0 0 1-.402.367l-.422.191" class="B C D E"/></g></g><g clip-path="url(#Au)"><g clip-path="url(#Av)"><path d="M11.074 8.156a.51.51 0 0 0-.105.023c-.047.012-.09.031-.141.051-.262.117-.48.344-.66.672a2.19 2.19 0 0 0-.266 1.066c-.004.41.074.691.234.844.109.105.242.145.402.125l.113-.027.109-.039.125-.059a1.78 1.78 0 0 0 .621-.516v-.395c-.187.266-.395.449-.613.551l-.117.047c-.027.008-.055.012-.078.016-.109.016-.199-.008-.27-.07-.105-.094-.164-.27-.172-.535l1.395-.637v-.223c0-.379-.066-.641-.215-.781-.098-.098-.219-.137-.363-.113m-.812 1.395c.027-.223.094-.422.195-.602s.227-.297.367-.359l.078-.031c.023-.008.043-.012.063-.012.086-.012.156.008.211.066.082.082.125.242.125.465l-1.039.473" class="B C D E"/></g></g><g clip-path="url(#Aw)"><g clip-path="url(#Ax)"><path d="M12.539 6.512l-.363.164-.016 3.5 1.465-.668.004-.398-1.109.504zm0 0" class="B C D E"/></g></g><g clip-path="url(#Ay)"><g clip-path="url(#Az)"><path d="M16.074 4.902l-.359.164-.012 2.133c0 .684-.234 1.129-.684 1.332l-.129.051-.09.02c-.32.043-.477-.223-.473-.805l.008-2.102-.359.164-.012 2.125c-.004.777.223 1.133.68 1.07l.141-.031c.055-.016.113-.039.176-.066l.012-.008.063-.027c.68-.328 1.023-.984 1.027-1.949l.012-2.07" class="B C D E"/></g></g><g clip-path="url(#BA)"><g clip-path="url(#BB)"><path d="M17.727 6.086l-1.055.48-.004.344 1.059-.484zm0 0" class="B C D E"/></g></g><g clip-path="url(#BC)"><g clip-path="url(#BD)"><path d="M20.066 3.086c-.055.008-.113.02-.176.035-.09.027-.187.066-.297.117-.41.184-.754.52-1.023.98s-.406.98-.41 1.543c0 .523.117.891.352 1.102.156.141.348.191.574.16a1.23 1.23 0 0 0 .164-.035l.18-.066.043-.02.051-.023c.281-.137.523-.312.715-.531v-.43a2.06 2.06 0 0 1-.715.563c-.055.023-.105.043-.156.055-.043.016-.082.023-.121.027-.172.023-.316-.016-.441-.125-.18-.168-.27-.457-.27-.875.008-.441.105-.84.305-1.184.195-.352.449-.594.762-.738l.18-.07.156-.031c.109-.016.215-.012.316.012v-.473c-.055-.004-.121-.004-.187.008" class="B C D E"/></g></g><g clip-path="url(#BE)"><g clip-path="url(#BF)"><path d="M21.941 3.207l-.117.027c-.055.016-.113.039-.172.063a1.67 1.67 0 0 0-.75.695c-.184.328-.277.695-.277 1.105-.004.387.086.656.262.805.113.105.254.145.418.121.039-.004.082-.016.125-.027s.078-.023.121-.043h.004c.012-.008.027-.012.043-.02.301-.137.543-.367.727-.695.184-.32.273-.684.273-1.082s-.078-.68-.246-.836c-.109-.098-.246-.137-.41-.113m-.5 2.406c-.113.016-.211-.016-.293-.094-.109-.109-.168-.309-.168-.602s.063-.551.176-.77c.117-.227.277-.387.469-.473.039-.02.078-.031.113-.043.027-.008.051-.012.074-.016.109-.016.203.012.277.094.102.113.152.324.152.629 0 .297-.055.559-.164.766a.97.97 0 0 1-.461.457c-.035.016-.066.027-.098.035s-.055.012-.078.016" class="B C D E"/></g></g><g clip-path="url(#BG)"><g clip-path="url(#BH)"><path d="M24.316 2.113c-.027.004-.055.008-.082.02-.039.012-.078.027-.117.043-.289.129-.508.387-.656.77l-.008.004v-.414l-.348.16-.016 2.5.352-.16.008-1.422c.004-.227.051-.434.152-.621.102-.195.227-.32.383-.391l.074-.031.051-.012c.215-.027.324.176.32.609l-.008 1.422.348-.16.012-1.527c0-.34-.055-.562-.172-.687-.074-.086-.176-.117-.293-.102" class="B C D E"/></g></g><g clip-path="url(#BI)"><g clip-path="url(#BJ)"><path d="M26.973.93l-.367.172-.523 2.023c-.027.125-.051.25-.059.383l-.016.004a1.38 1.38 0 0 0-.066-.332l-.477-1.562-.383.176.738 2.16.352-.164.801-2.848V.93" class="B C D E"/></g></g></g><clipPath id="BM"><path d="M1.254.477H35v23.145H1.254zm0 0"/></clipPath><clipPath id="BN"><path d="M35.039.477L1.293 15.855l-.039 7.766L35.004 8.25zm0 0"/></clipPath><clipPath id="BO"><path d="M1.254.477h33.785v23.145H1.254zm0 0"/></clipPath><clipPath id="BP"><path d="M35.039.477L1.293 15.855l-.039 7.766L35.004 8.25zm0 0"/></clipPath><clipPath id="BQ"><path d="M0 0h36v25H0z"/></clipPath><g id="BR" clip-path="url(#BQ)"><g clip-path="url(#BM)"><g clip-path="url(#BN)"><path d="M34.758.965L1.574 16.082l-.035 7.059L34.723 8.02zm0 0" class="B D E L"/></g></g><g clip-path="url(#BO)"><g clip-path="url(#BP)"><path d="M35.039.477L1.293 15.855l-.039 7.766L35.004 8.25l.035-7.773m-33.5 22.664l.035-7.059L34.758.965l-.035 7.055zm0 0" class="B C D E"/></g></g></g><clipPath id="BS"><path d="M.418 11H3v4.398H.418zm0 0"/></clipPath><clipPath id="BT"><path d="M26.508-.102L.438 11.777l-.02 3.621L26.492 3.516zm0 0"/></clipPath><clipPath id="BU"><path d="M2 9h4v6H2zm0 0"/></clipPath><clipPath id="BV"><path d="M26.508-.102L.438 11.777l-.02 3.621L26.492 3.516zm0 0"/></clipPath><clipPath id="BW"><path d="M5 10h2v2H5zm0 0"/></clipPath><clipPath id="BX"><path d="M26.508-.102L.438 11.777l-.02 3.621L26.492 3.516zm0 0"/></clipPath><clipPath id="BY"><path d="M7 8h3v5H7zm0 0"/></clipPath><clipPath id="BZ"><path d="M26.508-.102L.438 11.777l-.02 3.621L26.492 3.516zm0 0"/></clipPath><clipPath id="Ba"><path d="M9 8h3v3H9zm0 0"/></clipPath><clipPath id="Bb"><path d="M26.508-.102L.438 11.777l-.02 3.621L26.492 3.516zm0 0"/></clipPath><clipPath id="Bc"><path d="M11 6h3v5h-3zm0 0"/></clipPath><clipPath id="Bd"><path d="M26.508-.102L.438 11.777l-.02 3.621L26.492 3.516zm0 0"/></clipPath><clipPath id="Be"><path d="M13 4h3v6h-3zm0 0"/></clipPath><clipPath id="Bf"><path d="M26.508-.102L.438 11.777l-.02 3.621L26.492 3.516zm0 0"/></clipPath><clipPath id="Bg"><path d="M16 6h2v1h-2zm0 0"/></clipPath><clipPath id="Bh"><path d="M26.508-.102L.438 11.777l-.02 3.621L26.492 3.516zm0 0"/></clipPath><clipPath id="Bi"><path d="M17 3h3v5h-3zm0 0"/></clipPath><clipPath id="Bj"><path d="M26.508-.102L.438 11.777l-.02 3.621L26.492 3.516zm0 0"/></clipPath><clipPath id="Bk"><path d="M20 3h3v4h-3zm0 0"/></clipPath><clipPath id="Bl"><path d="M26.508-.102L.438 11.777l-.02 3.621L26.492 3.516zm0 0"/></clipPath><clipPath id="Bm"><path d="M22 2h3v4h-3zm0 0"/></clipPath><clipPath id="Bn"><path d="M26.508-.102L.438 11.777l-.02 3.621L26.492 3.516zm0 0"/></clipPath><clipPath id="Bo"><path d="M24 .145h2.508V4H24zm0 0"/></clipPath><clipPath id="Bp"><path d="M26.508-.102L.438 11.777l-.02 3.621L26.492 3.516zm0 0"/></clipPath><clipPath id="Bq"><path d="M0 0h28v17H0z"/></clipPath><g id="Br" clip-path="url(#Bq)"><g clip-path="url(#BS)"><g clip-path="url(#BT)"><path d="M1.539 11.375l-.117.027c-.055.016-.113.035-.176.066l-.809.371-.012 1.75-.008 1.746.84-.379c.262-.121.488-.316.66-.578s.258-.547.262-.848c0-.238-.059-.402-.168-.508-.09-.078-.195-.109-.328-.09-.031.004-.066.008-.098.02l-.027.008v-.008c.152-.133.27-.289.359-.48a1.27 1.27 0 0 0 .133-.566c.004-.242-.07-.406-.215-.488-.082-.043-.18-.059-.297-.043m-.754 1.797l.008-1.102.355-.164c.051-.023.102-.039.145-.051.031-.012.063-.02.09-.023.195-.027.293.082.289.328-.004.188-.051.363-.152.512a.91.91 0 0 1-.406.348l-.328.152m-.012 1.609l.012-1.219.371-.176.176-.066c.039-.012.078-.02.109-.023.242-.031.359.098.359.395-.004.199-.055.375-.156.527-.102.16-.246.277-.434.367l-.438.195" class="B C D E"/></g></g><g clip-path="url(#BU)"><g clip-path="url(#BV)"><path d="M5.016 9.75l-.355.168-.016 2.402.02.504-.008.004c-.012-.031-.051-.094-.117-.187l-1.344-2.059-.453.207-.02 3.496.359-.16.012-2.461-.012-.48.012-.008c.02.063.055.121.09.188l1.391 2.082.422-.191.02-3.504" class="B C D E"/></g></g><g clip-path="url(#BW)"><g clip-path="url(#BX)"><path d="M6.703 10.918l-1.059.484-.004.344 1.063-.484zm0 0" class="B C D E"/></g></g><g clip-path="url(#BY)"><g clip-path="url(#BZ)"><path d="M8.492 8.211c-.043.008-.086.016-.133.031a1.06 1.06 0 0 0-.18.07l-.855.387-.016 3.5.359-.168.012-1.469.258-.117.07-.027c.02-.008.039-.012.059-.016.051-.008.102 0 .145.02.074.035.16.133.25.285l.457.758.426-.195-.516-.809c-.09-.145-.16-.234-.215-.289-.059-.047-.125-.078-.199-.082v-.016c.414-.328.621-.738.625-1.227 0-.293-.078-.484-.227-.582a.48.48 0 0 0-.32-.055m-.813 1.953l.004-1.234.434-.199.121-.047c.031-.008.059-.012.082-.016.082-.012.148 0 .199.031.094.066.145.184.141.363a1.04 1.04 0 0 1-.16.547c-.102.168-.234.285-.395.363l-.426.191" class="B C D E"/></g></g><g clip-path="url(#Ba)"><g clip-path="url(#Bb)"><path d="M10.602 8.18l-.105.023-.137.051c-.262.121-.48.348-.664.672-.176.336-.266.688-.27 1.07 0 .41.082.688.238.844a.46.46 0 0 0 .406.121c.035-.004.074-.012.109-.023l.125-.047.082-.035c.266-.129.484-.309.648-.523V9.93c-.184.266-.391.445-.613.551l-.113.043c-.027.008-.055.012-.078.016a.33.33 0 0 1-.27-.066c-.109-.094-.164-.277-.172-.539l1.391-.637v-.223c0-.375-.066-.637-.211-.781-.098-.094-.219-.133-.367-.113m-.809 1.398a1.65 1.65 0 0 1 .191-.602c.105-.176.23-.297.367-.363l.082-.027c.02-.008.043-.012.063-.016.082-.012.156.008.211.07.082.082.125.238.125.465l-1.039.473" class="B C D E"/></g></g><g clip-path="url(#Bc)"><g clip-path="url(#Bd)"><path d="M12.07 6.539l-.359.164-.02 3.5 1.469-.668v-.402l-1.109.504zm0 0" class="B C D E"/></g></g><g clip-path="url(#Be)"><g clip-path="url(#Bf)"><path d="M15.605 4.926l-.363.164-.008 2.137c-.004.68-.234 1.125-.684 1.332l-.129.047-.09.02c-.32.047-.48-.223-.477-.801l.012-2.105-.359.164-.016 2.125c0 .777.227 1.137.684 1.07.043-.004.09-.016.137-.031.039-.008.082-.023.129-.039l.109-.051c.688-.328 1.039-.984 1.043-1.957l.012-2.074" class="B C D E"/></g></g><g clip-path="url(#Bg)"><g clip-path="url(#Bh)"><path d="M17.258 6.109l-1.055.48-.004.344 1.059-.48zm0 0" class="B C D E"/></g></g><g clip-path="url(#Bi)"><g clip-path="url(#Bj)"><path d="M19.594 3.109a1.07 1.07 0 0 0-.172.039 2.65 2.65 0 0 0-.297.113c-.41.188-.754.52-1.023.98a3.07 3.07 0 0 0-.41 1.547c0 .52.117.887.352 1.098a.66.66 0 0 0 .574.16 1.56 1.56 0 0 0 .164-.035l.176-.066.082-.035c.289-.137.535-.312.727-.531l.004-.434a2.11 2.11 0 0 1-.719.563l-.156.059a.61.61 0 0 1-.109.023.54.54 0 0 1-.449-.129c-.18-.164-.27-.453-.27-.875.004-.441.102-.836.301-1.184s.453-.594.766-.738a1.41 1.41 0 0 1 .18-.066c.051-.016.102-.027.152-.031a.8.8 0 0 1 .32.008v-.469c-.059-.008-.121-.004-.191.004" class="B C D E"/></g></g><g clip-path="url(#Bk)"><g clip-path="url(#Bl)"><path d="M21.473 3.234c-.039.004-.078.016-.121.027-.055.016-.113.035-.168.063a1.63 1.63 0 0 0-.75.695c-.184.324-.277.695-.281 1.105 0 .383.082.652.262.805a.49.49 0 0 0 .422.121l.121-.027a.83.83 0 0 0 .168-.066c.305-.137.543-.367.727-.691s.277-.684.277-1.082c.008-.402-.078-.684-.246-.836-.113-.098-.246-.137-.41-.113m-.504 2.406c-.113.016-.211-.016-.289-.09-.113-.113-.168-.316-.168-.605s.063-.555.172-.77c.117-.23.277-.387.473-.473.039-.02.078-.031.113-.043.023-.008.047-.012.07-.016.113-.016.207.012.277.09.105.113.156.324.152.629s-.055.563-.16.766c-.105.215-.262.363-.465.457a.46.46 0 0 1-.094.035l-.082.02" class="B C D E"/></g></g><g clip-path="url(#Bm)"><g clip-path="url(#Bn)"><path d="M23.848 2.141c-.027 0-.055.008-.082.016l-.121.043c-.285.133-.504.391-.652.77l-.008.004v-.41l-.348.16-.016 2.496.352-.16.008-1.426c0-.223.051-.426.152-.613.102-.195.227-.32.379-.395l.078-.027c.02-.004.035-.012.055-.012.211-.031.316.176.313.609l-.008 1.418.352-.16.008-1.527c0-.336-.055-.562-.168-.687-.074-.082-.172-.117-.293-.098" class="B C D E"/></g></g><g clip-path="url(#Bo)"><g clip-path="url(#Bp)"><path d="M26.5.957l-.367.168-.52 2.027-.066.379-.008.004a1.57 1.57 0 0 0-.066-.328l-.477-1.563-.387.176.734 2.16.359-.164L26.5.965V.957" class="B C D E"/></g></g></g><clipPath id="Bs"><path d="M1.184.383h33.785v23.148H1.184zm0 0"/></clipPath><clipPath id="Bt"><path d="M34.969.383L1.223 15.758l-.039 7.773 33.75-15.379zm0 0"/></clipPath><clipPath id="Bu"><path d="M0 0h36v25H0z"/></clipPath><g id="Bv" clip-path="url(#Bu)"><g clip-path="url(#Bs)"><g clip-path="url(#Bt)" class="B E"><path d="M34.688.867L1.504 15.984l-.035 7.059L34.652 7.926zm0 0" class="D L"/><path d="M34.969.383L1.223 15.758l-.039 7.773 33.75-15.379.035-7.77m-33.5 22.66l.035-7.059L34.688.867l-.035 7.059zm0 0" class="C D"/></g></g></g><clipPath id="Bw"><path d="M.422 11H3v5H.422zm0 0"/></clipPath><clipPath id="Bx"><path d="M27.898-.547L.449 11.961l-.027 4.84L27.871 4.293zm0 0"/></clipPath><clipPath id="By"><path d="M2 11h2v4H2zm0 0"/></clipPath><clipPath id="Bz"><path d="M27.898-.547L.449 11.961l-.027 4.84L27.871 4.293zm0 0"/></clipPath><clipPath id="CA"><path d="M3 11h3v3H3zm0 0"/></clipPath><clipPath id="CB"><path d="M27.898-.547L.449 11.961l-.027 4.84L27.871 4.293zm0 0"/></clipPath><clipPath id="CC"><path d="M5 10h3v4H5zm0 0"/></clipPath><clipPath id="CD"><path d="M27.898-.547L.449 11.961l-.027 4.84L27.871 4.293zm0 0"/></clipPath><clipPath id="CE"><path d="M8 9h2v4H8zm0 0"/></clipPath><clipPath id="CF"><path d="M27.898-.547L.449 11.961l-.027 4.84L27.871 4.293zm0 0"/></clipPath><clipPath id="CG"><path d="M9 7h2v5H9zm0 0"/></clipPath><clipPath id="CH"><path d="M27.898-.547L.449 11.961l-.027 4.84L27.871 4.293zm0 0"/></clipPath><clipPath id="CI"><path d="M10 7h2v4h-2zm0 0"/></clipPath><clipPath id="CJ"><path d="M27.898-.547L.449 11.961l-.027 4.84L27.871 4.293zm0 0"/></clipPath><clipPath id="CK"><path d="M12 6h1v5h-1zm0 0"/></clipPath><clipPath id="CL"><path d="M27.898-.547L.449 11.961l-.027 4.84L27.871 4.293zm0 0"/></clipPath><clipPath id="CM"><path d="M13 6h3v4h-3zm0 0"/></clipPath><clipPath id="CN"><path d="M27.898-.547L.449 11.961l-.027 4.84L27.871 4.293zm0 0"/></clipPath><clipPath id="CO"><path d="M15 5h3v4h-3zm0 0"/></clipPath><clipPath id="CP"><path d="M27.898-.547L.449 11.961l-.027 4.84L27.871 4.293zm0 0"/></clipPath><clipPath id="CQ"><path d="M18 3h3v5h-3zm0 0"/></clipPath><clipPath id="CR"><path d="M27.898-.547L.449 11.961l-.027 4.84L27.871 4.293zm0 0"/></clipPath><clipPath id="CS"><path d="M20 3h3v4h-3zm0 0"/></clipPath><clipPath id="CT"><path d="M27.898-.547L.449 11.961l-.027 4.84L27.871 4.293zm0 0"/></clipPath><clipPath id="CU"><path d="M22 2h3v5h-3zm0 0"/></clipPath><clipPath id="CV"><path d="M27.898-.547L.449 11.961l-.027 4.84L27.871 4.293zm0 0"/></clipPath><clipPath id="CW"><path d="M24 1h3v4h-3zm0 0"/></clipPath><clipPath id="CX"><path d="M27.898-.547L.449 11.961l-.027 4.84L27.871 4.293zm0 0"/></clipPath><clipPath id="CY"><path d="M26 .145h1.898V4H26zm0 0"/></clipPath><clipPath id="CZ"><path d="M27.898-.547L.449 11.961l-.027 4.84L27.871 4.293zm0 0"/></clipPath><clipPath id="Ca"><path d="M0 0h29v17H0z"/></clipPath><g id="Cb" clip-path="url(#Ca)"><g clip-path="url(#Bw)"><g clip-path="url(#Bx)"><path d="M2.414 11.223l-1.965.898v.402l.797-.363-.016 3.094.363-.16.012-3.102.809-.367zm0 0" class="B C D E"/></g></g><g clip-path="url(#By)"><g clip-path="url(#Bz)"><path d="M3.473 11.715l-.047.012a.46.46 0 0 0-.098.039c-.25.109-.422.375-.527.789l-.008.004.004-.508-.352.156-.012 2.5.348-.16.012-1.266c0-.262.043-.492.137-.691s.199-.336.336-.398l.082-.031.055-.012c.043-.004.074 0 .109.016v-.449h-.039" class="B C D E"/></g></g><g clip-path="url(#CA)"><g clip-path="url(#CB)"><path d="M4.832 11.098a.58.58 0 0 0-.098.023c-.047.012-.094.031-.148.059-.262.117-.488.297-.687.539l-.004.43c.199-.289.414-.488.656-.602l.074-.027.051-.012c.18-.023.273.133.27.469l-.586.371c-.441.281-.66.652-.664 1.117-.004.227.051.375.168.457.07.043.152.063.25.047.027-.004.059-.012.09-.02s.074-.023.117-.043c.27-.121.473-.363.613-.727h.008v.387l.348-.16.008-1.605c0-.512-.152-.746-.465-.703m-.539 2.445a.2.2 0 0 1-.145-.031c-.066-.047-.102-.125-.102-.242 0-.137.035-.258.094-.359s.176-.203.34-.309l.465-.289v.238c0 .203-.051.398-.152.578s-.227.309-.379.379l-.066.023-.055.012" class="B C D E"/></g></g><g clip-path="url(#CC)"><g clip-path="url(#CD)"><path d="M7.098 10.059a.82.82 0 0 0-.082.02c-.039.012-.078.023-.117.043-.289.133-.508.387-.656.77l-.008.004.004-.414-.355.16-.008 2.496.348-.156.008-1.426c.004-.223.051-.426.156-.613.098-.195.227-.328.379-.395l.078-.027a.12.12 0 0 1 .051-.012c.211-.031.316.176.316.605l-.008 1.422.344-.16.012-1.527c0-.336-.051-.566-.164-.691-.074-.082-.172-.113-.297-.098" class="B C D E"/></g></g><g clip-path="url(#CE)"><g clip-path="url(#CF)"><path d="M9.141 9.148l-.137.027c-.059.016-.121.043-.184.074a1.36 1.36 0 0 0-.555.445 1.06 1.06 0 0 0-.223.637c-.004.156.031.273.094.352s.211.125.426.133c.184.004.309.02.363.059.063.035.094.102.094.199 0 .223-.141.398-.418.523-.039.023-.082.035-.121.047a.54.54 0 0 1-.102.023.66.66 0 0 1-.348-.047l-.004.449c.063.012.133.012.203.004.047-.008.094-.02.141-.031a1.23 1.23 0 0 0 .195-.074c.238-.105.434-.258.582-.461a1.02 1.02 0 0 0 .227-.641c0-.168-.035-.289-.117-.359-.074-.078-.223-.117-.445-.121-.172-.008-.285-.027-.336-.059s-.078-.102-.078-.199.039-.199.109-.297c.07-.09.16-.16.277-.215.043-.02.086-.035.129-.047.035-.012.07-.02.109-.027.094-.012.18-.004.262.023v-.426a.62.62 0 0 0-.145.008" class="B C D E"/></g></g><g clip-path="url(#CG)"><g clip-path="url(#CH)"><path d="M10.109 7.57c-.012 0-.02.004-.031.008l-.02.004-.023.012c-.062.027-.109.078-.152.148a.44.44 0 0 0-.062.227c0 .078.02.133.059.168.027.023.059.031.098.023.008 0 .02 0 .027-.004l.035-.016c.066-.027.117-.078.164-.152a.47.47 0 0 0 .063-.223c0-.082-.02-.137-.062-.168-.027-.023-.059-.035-.094-.027m.098 1.102l-.352.16-.012 2.504.348-.164.016-2.5" class="B C D E"/></g></g><g clip-path="url(#CI)"><g clip-path="url(#CJ)"><path d="M11.301 7.434l-.352.297-.004.605-.344.156v.363l.344-.156-.008 1.445c-.004.406.113.59.352.559.023-.004.047-.012.074-.02a.67.67 0 0 0 .102-.039.86.86 0 0 0 .313-.219l.004-.371c-.059.082-.129.141-.207.176l-.066.023c-.016.008-.031.008-.043.012-.051.008-.086-.008-.109-.039-.047-.047-.066-.156-.062-.324V8.539l.496-.223.004-.367-.492.227v-.742" class="B C D E"/></g></g><g clip-path="url(#CK)"><g clip-path="url(#CL)"><path d="M12.449 6.5c-.008 0-.016.004-.023.004l-.031.016h-.008a.41.41 0 0 0-.156.152.46.46 0 0 0-.059.23c0 .074.02.133.059.164.031.02.063.027.102.023.008-.004.016-.004.023-.008l.035-.016c.063-.023.117-.074.16-.148s.066-.145.066-.223-.023-.137-.066-.172c-.031-.02-.062-.031-.102-.023m.109 1.098l-.352.164-.012 2.496.352-.156.012-2.504" class="B C D E"/></g></g><g clip-path="url(#CM)"><g clip-path="url(#CN)"><path d="M14.359 6.762a.65.65 0 0 0-.113.023l-.172.066a1.62 1.62 0 0 0-.746.695 2.17 2.17 0 0 0-.281 1.102c0 .387.086.656.262.809.113.102.258.141.426.117l.125-.027a1.22 1.22 0 0 0 .16-.062c.301-.137.551-.371.73-.695s.273-.68.277-1.078-.086-.684-.254-.836c-.109-.098-.246-.137-.414-.113m-.492 2.402c-.113.016-.211-.012-.285-.09-.121-.109-.176-.316-.176-.602.004-.297.059-.555.176-.777s.27-.379.473-.469c.035-.016.074-.031.105-.039l.078-.02a.28.28 0 0 1 .27.094c.109.109.156.324.156.629s-.055.559-.16.766a.93.93 0 0 1-.461.453c-.035.016-.07.027-.102.039s-.051.012-.074.016" class="B C D E"/></g></g><g clip-path="url(#CO)"><g clip-path="url(#CP)"><path d="M16.742 5.664c-.027.004-.055.012-.082.02l-.121.043c-.281.133-.5.383-.656.77h-.008l.004-.41-.352.164-.012 2.5.352-.164.004-1.426a1.31 1.31 0 0 1 .156-.613c.102-.195.227-.324.383-.395l.074-.027c.02-.008.035-.012.055-.012.211-.031.316.172.313.605l-.008 1.422.352-.16.008-1.531c0-.336-.055-.559-.164-.687-.078-.078-.176-.113-.297-.098" class="B C D E"/></g></g><g clip-path="url(#CQ)"><g clip-path="url(#CR)"><path d="M19.293 3.531l-.359.164-.016 3.504 1.465-.672.008-.398-1.113.504zm0 0" class="B C D E"/></g></g><g clip-path="url(#CS)"><g clip-path="url(#CT)"><path d="M21.758 3.387c-.031.004-.062.012-.098.02l-.156.059c-.258.121-.484.297-.684.547l-.004.426c.199-.293.418-.492.652-.602l.074-.027c.02-.008.039-.012.055-.012.184-.027.277.133.273.469l-.59.371c-.441.277-.664.652-.664 1.117 0 .223.055.375.168.453.066.051.152.066.246.051a.37.37 0 0 0 .09-.02c.039-.012.078-.027.121-.043.27-.125.473-.363.613-.727l.012-.004-.004.391.348-.16.008-1.609c.004-.512-.152-.746-.461-.699m-.539 2.445c-.059.008-.109 0-.148-.027-.066-.047-.098-.129-.098-.246.004-.137.031-.258.094-.363s.172-.203.332-.305l.473-.289-.004.234c0 .207-.051.398-.152.586-.102.176-.227.301-.379.371l-.07.027-.047.012" class="B C D E"/></g></g><g clip-path="url(#CU)"><g clip-path="url(#CV)"><path d="M24.426 2.191l-.363.164-.551 2.129-.043.223-.008.004-.043-.184-.512-1.645-.387.176.762 2.145-.152.52c-.078.277-.199.441-.359.516l-.062.023a.33.33 0 0 1-.066.016c-.023.004-.047.004-.07.004v.387c.012 0 .027-.004.043-.004s.043-.008.066-.016.059-.02.09-.031l.055-.023c.293-.152.52-.523.688-1.113l.914-3.289" class="B C D E"/></g></g><g clip-path="url(#CW)"><g clip-path="url(#CX)"><path d="M25.773 1.555l-.109.027c-.043.012-.09.027-.137.051-.262.117-.48.344-.66.672a2.24 2.24 0 0 0-.27 1.066c0 .406.078.691.234.844a.44.44 0 0 0 .398.121c.039-.004.078-.016.121-.027a1.04 1.04 0 0 0 .152-.055c.289-.133.523-.316.699-.555l.004-.395c-.187.266-.395.449-.617.551-.043.016-.082.035-.117.043l-.078.02c-.109.016-.195-.008-.266-.07-.109-.094-.168-.277-.172-.539l1.395-.633v-.227c0-.375-.07-.637-.215-.777-.098-.102-.219-.137-.363-.117m-.816 1.402c.031-.227.094-.426.199-.605s.223-.297.363-.363l.078-.027c.023-.008.043-.012.063-.012.09-.016.16.008.215.066.082.082.125.238.121.469l-1.039.473" class="B C D E"/></g></g><g clip-path="url(#CY)"><g clip-path="url(#CZ)"><path d="M27.855.605c-.016 0-.031.008-.051.012a.56.56 0 0 0-.098.039c-.25.109-.422.375-.527.789h-.004l.004-.508-.359.16-.012 2.5.359-.16V2.172c.004-.262.051-.492.141-.695s.203-.332.34-.395l.078-.031.059-.012c.039-.008.078-.004.102.012l.004-.289V.605c-.008-.004-.023-.004-.035 0" class="B C D E"/></g></g></g><path id="Cc" d="M59.828 58.078l-2.746-.723.289-.41-8.934-6.379.602-.82 8.934 6.383.289-.41zm0 0"/><path id="Cd" d="M62.57 84.707l21.332-9.945-.527-28.988-21.332 9.945zm0 0"/></defs><g class="H"><path d="M45.719 46.547l2.598 3.609-4.262-1.324zm0 0" class="M"/><g class="F G I"><path d="M5.316 48.832l21.332-9.941-.504-28.992-21.332 9.945zm0 0" fill="rgb(52.941895%,5.490112%,5.490112%)"/><path d="M8.184 50.781l21.309-9.941-.508-28.965-21.332 9.941zm0 0" fill="rgb(62.353516%,6.666565%,6.666565%)"/><path d="M11.457 52.637l21.332-9.945-.508-28.988-21.332 9.945zm0 0" fill="rgb(74.510193%,7.843018%,7.843018%)"/><path d="M14.828 54.852l21.332-9.945-.508-28.988-21.332 9.945zm0 0" fill="rgb(92.549133%,33.724976%,32.940674%)"/><path d="M18.199 57.043l21.332-9.945-.508-28.965-21.332 9.945zm0 0" fill="rgb(94.902039%,55.686951%,55.2948%)"/><path d="M21.594 59.258l21.309-9.945-.508-28.988-21.332 9.945zm0 0" fill="rgb(97.254944%,77.6474%,77.6474%)"/></g></g><g class="C"><use xlink:href="#A" x="36.616" y="13.006"/><use xlink:href="#B" x="39.41" y="13.801"/></g><use xlink:href="#V" x="8" y="7"/><use xlink:href="#Z" x="32" y="38"/><use xlink:href="#z" x="36" y="42"/><use xlink:href="#Cc" class="H N"/><g class="G"><g class="K"><path d="M33.148 39.25l12.016 8.645" class="F O"/><use xlink:href="#Cc" class="I P"/></g><g class="F H I"><path d="M55.832 80.301l21.332-9.945-.531-28.988-21.332 9.945zm0 0" fill="rgb(29.019165%,52.157593%,42.352295%)"/><path d="M59.199 82.492l21.332-9.945-.527-28.965-21.332 9.945zm0 0" fill="rgb(64.706421%,80.392456%,73.725891%)"/><use xlink:href="#Cd" fill="rgb(76.470947%,86.66687%,82.35321%)"/><use xlink:href="#Cd" x="3.371" y="2.215" fill="rgb(88.235474%,93.333435%,90.98053%)"/></g><path d="M76.656 67.758L90.02 76.57" class="F K Q"/></g><g class="H"><path d="M90.5 75.195l2.77 3.492-4.332-1.133zm0 0" class="N"/><path d="M89.105 77.051l4.164 1.637-4.332 1.18zm0 0" class="M"/></g><g class="C"><use xlink:href="#A" x="82.098" y="42.717"/><use xlink:href="#C" x="84.915" y="43.511"/><use xlink:href="#G" x="62.089" y="35.831"/><use xlink:href="#H" x="66.135" y="36.65"/></g><path d="M89.367 78.473c-29.879-2.387-54.387-19.48-56.074-39.125" class="F G K O"/><use xlink:href="#AF" x="76" y="66"/><use xlink:href="#Af" x="80" y="71"/><g class="G H I"><path d="M105.285 87.258l-2.121-.312.289-.41-10.832-8.016.602-.797 10.832 8.02.289-.41zm0 0" class="P R"/><g class="F"><path d="M99.891 108.641l21.332-9.969-.504-28.965-21.332 9.945zm0 0" fill="rgb(46.273804%,27.450562%,45.489502%)"/><path d="M103.262 110.828l21.332-9.941-.508-28.988-21.328 9.969zm0 0" fill="rgb(77.255249%,61.569214%,76.470947%)"/><path d="M106.656 113.047l21.309-9.945-.508-28.988-21.332 9.945zm0 0" fill="rgb(84.706116%,74.510193%,84.313965%)"/><path d="M110.027 115.262l21.332-9.969-.531-28.965-21.332 9.945zm0 0" fill="rgb(92.156982%,87.059021%,92.156982%)"/></g></g><path d="M120.547 95.711l13.848 9.172" class="F G K S"/><path d="M134.875 103.512l2.746 3.516-4.312-1.156zm0 0" class="H R"/><path d="M133.742 106.832c-30.121-2.262-54.992-19.285-56.918-38.953" class="F G K Q"/><g class="H"><path d="M133.453 105.391l4.168 1.637-4.312 1.18zm0 0" class="N"/><path d="M133.285 105.969l4.336 1.059-4.121 1.758zm0 0" class="M"/><path d="M178.523 133.414l4.168 1.637-4.312 1.203zm0 0" class="R"/><path d="M177.609 134.426l4.359.938-4.047 1.855zm0 0" class="M"/><path d="M177.586 133.992l4.359 1.035-4.117 1.781zm0 0" class="N"/><path d="M222.465 160.285l2.746 3.516-4.309-1.18zm0 0" fill="rgb(51.765442%,5.882263%,5.490112%)"/><path d="M221.07 162.137l4.141 1.664-4.336 1.156zm0 0" class="T"/><path d="M220.875 162.738l4.336 1.063-4.117 1.758zm0 0" class="R"/><path d="M220.828 162.859l4.383.941-4.07 1.875zm0 0" class="N"/><path d="M221.887 162.57l4.383.82-4.02 1.973zm0 0" class="M"/></g><g class="C"><use xlink:href="#A" x="127.603" y="71.152"/><use xlink:href="#D" x="130.42" y="71.946"/><use xlink:href="#G" x="106.006" y="64.266"/><use xlink:href="#I" x="110.051" y="65.084"/><use xlink:href="#G" x="150.933" y="92.724"/><use xlink:href="#J" x="154.978" y="93.519"/><use xlink:href="#G" x="195.283" y="121.159"/><use xlink:href="#K" x="199.352" y="121.954"/></g><path d="M133.742 107.34C76.344 111.191 31.945 81.168 33.293 39.395" class="F G K O"/><use xlink:href="#Al" x="120" y="95"/><use xlink:href="#BL" x="124" y="99"/><g class="H"><g class="G I"><path d="M149.777 115.609l-2.141-.336.313-.387-10.836-8.02.578-.816 10.859 8.02.289-.41zm0 0" fill="rgb(100%,100%,0%)" class="P"/><g class="F"><path d="M143.977 136.953l21.332-9.941-.531-28.965-21.332 9.941zm0 0" fill="rgb(70.980835%,55.686951%,8.235168%)"/><path d="M147.348 139.168l21.332-9.941-.531-28.992-21.309 9.945zm0 0" fill="rgb(94.117737%,82.745361%,49.411011%)"/></g></g><path d="M150.719 141.176l21.328-9.945-.504-28.988-21.332 9.945zm0 0" fill="rgb(95.68634%,88.627625%,66.275024%)"/></g><g class="F G I"><path d="M150.719 141.383l21.332-9.941-.508-28.988-21.332 9.941zm0 0" class="K"/><path d="M154.086 143.574l21.332-9.941-.504-28.965-21.332 9.941zm0 0" fill="rgb(97.647095%,94.117737%,83.137512%)" class="H"/></g><g class="C"><use xlink:href="#A" x="170.267" y="99.586"/><use xlink:href="#E" x="173.06" y="100.381"/></g><g class="F G K"><path d="M178.117 135.797C94.473 144.055 30.211 101.273 33.32 39.371" class="O"/><path d="M178.816 134.859c-30.508-2.215-55.934-19.309-58.172-39.078" class="S"/><path d="M178.066 135.363c-57.543 4.168-102.301-25.688-101.289-67.535" class="Q"/></g><path d="M179.125 131.754l2.77 3.488-4.309-1.105zm0 0" class="H T"/><path d="M164.418 123.93l14.227 9.219" class="F G K U"/><use xlink:href="#BR" x="164" y="123"/><use xlink:href="#Br" x="169" y="127"/><g class="H"><g class="G I"><path d="M194.262 144.398l-2.117-.312.289-.383-10.836-8.02.602-.82 10.836 8.02.313-.41zm0 0" class="P V"/><g class="F"><path d="M188.059 165.293l21.332-9.945-.527-28.988-21.332 9.969zm0 0" fill="rgb(68.62793%,29.019165%,5.097961%)"/><use xlink:href="#Cd" x="128.86" y="82.801" class="V"/></g></g><path d="M194.801 169.723l21.332-9.969-.531-28.965-21.328 9.945zm0 0" fill="rgb(96.862793%,75.294495%,62.353516%)"/></g><g class="F G I"><path d="M194.801 169.723l21.332-9.969-.527-28.965-21.332 9.945zm0 0" class="K"/><path d="M198.172 171.914l21.332-9.945-.531-28.988-21.332 9.969zm0 0" fill="rgb(98.431396%,87.451172%,81.176758%)" class="H"/></g><g class="C"><use xlink:href="#A" x="214.327" y="128.021"/><use xlink:href="#F" x="217.145" y="128.816"/></g><g class="F G K"><path d="M221.332 164.23c-83.52 8.332-147.637-34.355-144.484-96.234" class="Q"/><path d="M221.332 164.113c-57.566 3.684-102.082-26.535-100.734-68.355" class="S"/><path d="M222.418 163.918c-110.68 14.277-194.855-41.074-189.27-124.453" class="O"/><path d="M221.332 163.582c-30.117-2.527-54.871-19.766-56.652-39.484" class="U"/><path d="M209.344 153.18l12.641 8.477" stroke="rgb(51.765442%,5.882263%,5.490112%)"/></g><use xlink:href="#Bv" x="206" y="153"/><use xlink:href="#Cb" x="210" y="157"/><path d="M238.34 172.437l-2.551-.691.246-.328-10.168-6.637.516-.672 10.145 6.656.25-.348zm0 0" fill="rgb(74.902344%,74.902344%,74.902344%)" class="G H I P"/></svg>
